G04 start of page 3 for group 1 idx 1 *
G04 Title: (unknown), ground *
G04 Creator: pcb 4.0.2 *
G04 CreationDate: Sun Aug  9 18:55:02 2020 UTC *
G04 For: kevin *
G04 Format: Gerber/RS-274X *
G04 PCB-Dimensions (mil): 3300.00 3550.00 *
G04 PCB-Coordinate-Origin: lower left *
%MOIN*%
%FSLAX25Y25*%
%LNBOTTOM*%
%ADD39C,0.0200*%
%ADD38C,0.0350*%
%ADD37C,0.0360*%
%ADD36C,0.0320*%
%ADD35C,0.0900*%
%ADD34C,0.0600*%
%ADD33C,0.0500*%
%ADD32C,0.1530*%
%ADD31C,0.0690*%
%ADD30C,0.0550*%
%ADD29C,0.1500*%
%ADD28C,0.0001*%
%ADD27C,0.0100*%
%ADD26C,0.0250*%
G54D26*X218000Y147000D02*Y164000D01*
X162000Y147000D02*Y164000D01*
X208000Y255000D02*Y164000D01*
X152000Y255000D02*Y164000D01*
G54D27*X123000Y188000D02*X118000Y193000D01*
X107000D01*
X112000Y168000D02*X113000D01*
X108000Y173000D02*X118000D01*
X123000Y168000D01*
X24000Y73000D02*X34000D01*
X58000Y97000D01*
Y335000D01*
X63000Y97000D02*Y345000D01*
X70000Y156000D02*Y97000D01*
X24000Y68000D02*X34000D01*
X50000Y57000D02*X25000D01*
X19000Y63000D01*
X57000Y52000D02*X61000Y56000D01*
X34000Y68000D02*X63000Y97000D01*
X55000Y82000D02*Y62000D01*
X50000Y57000D01*
X61000Y56000D02*Y78000D01*
X70000Y97000D02*X55000Y82000D01*
X97000Y84000D02*X107000Y94000D01*
X61000Y78000D02*X81000Y98000D01*
X107000Y94000D02*Y163000D01*
X97000Y94000D02*X103000Y100000D01*
Y168000D01*
X107000Y193000D02*X70000Y156000D01*
X107000Y163000D02*X112000Y168000D01*
X103000D02*X108000Y173000D01*
X98000Y203000D02*X81000D01*
Y98000D02*Y138000D01*
G54D26*X39000Y192378D02*Y192000D01*
X12000Y211000D02*X26000Y225000D01*
X30000D01*
X80000Y32000D02*X74000D01*
X59000Y17000D01*
X55000D01*
X39000Y33000D01*
X35000D01*
X22000Y20000D01*
X18000D01*
X12000Y26000D01*
Y79000D01*
X16000Y83000D01*
X19000D01*
X16000D02*X12000Y87000D01*
Y211000D01*
X154000Y26000D02*X144000Y16000D01*
X96000D01*
X80000Y32000D01*
X218000Y107000D02*X162000D01*
X154000Y99000D01*
Y26000D01*
Y99000D02*X150000Y103000D01*
X132000D01*
G54D27*X118000D01*
X113000Y98000D01*
G54D28*G36*
X95002Y90533D02*X95178Y90425D01*
X95760Y90184D01*
X96372Y90037D01*
X97000Y89988D01*
X97628Y90037D01*
X98240Y90184D01*
X98822Y90425D01*
X99358Y90754D01*
X99837Y91163D01*
X100246Y91642D01*
X100575Y92178D01*
X100816Y92760D01*
X100963Y93372D01*
X101000Y94000D01*
X100963Y94628D01*
X100816Y95240D01*
X100683Y95561D01*
X104019Y98898D01*
X104064Y98936D01*
X104217Y99115D01*
X104217Y99116D01*
X104341Y99317D01*
X104431Y99535D01*
X104486Y99765D01*
X104505Y100000D01*
X104500Y100059D01*
Y167379D01*
X108621Y171500D01*
X110246D01*
X109844Y171156D01*
X109389Y170624D01*
X109023Y170026D01*
X108755Y169379D01*
X108591Y168698D01*
X108536Y168000D01*
X108591Y167302D01*
X108705Y166827D01*
X105981Y164102D01*
X105936Y164064D01*
X105783Y163884D01*
X105659Y163683D01*
X105569Y163465D01*
X105514Y163235D01*
X105514Y163235D01*
X105495Y163000D01*
X105500Y162941D01*
Y94621D01*
X98561Y87683D01*
X98240Y87816D01*
X97628Y87963D01*
X97000Y88012D01*
X96372Y87963D01*
X95760Y87816D01*
X95178Y87575D01*
X95002Y87467D01*
Y90533D01*
G37*
G36*
X312993Y352000D02*X325000D01*
Y7000D01*
X312993D01*
Y50915D01*
X313100Y50980D01*
X314135Y51865D01*
X315020Y52900D01*
X315731Y54061D01*
X316252Y55319D01*
X316570Y56643D01*
X316650Y58000D01*
X316570Y59357D01*
X316252Y60681D01*
X315731Y61939D01*
X315020Y63100D01*
X314135Y64135D01*
X313100Y65020D01*
X312993Y65085D01*
Y73537D01*
X313000Y73536D01*
X313698Y73591D01*
X314379Y73755D01*
X315026Y74023D01*
X315624Y74389D01*
X316156Y74844D01*
X316611Y75376D01*
X316977Y75974D01*
X317245Y76621D01*
X317409Y77302D01*
X317450Y78000D01*
X317409Y78698D01*
X317245Y79379D01*
X316977Y80026D01*
X316611Y80624D01*
X316156Y81156D01*
X315624Y81611D01*
X315026Y81977D01*
X314379Y82245D01*
X313698Y82409D01*
X313000Y82464D01*
X312993Y82463D01*
Y83537D01*
X313000Y83536D01*
X313698Y83591D01*
X314379Y83755D01*
X315026Y84023D01*
X315624Y84389D01*
X316156Y84844D01*
X316611Y85376D01*
X316977Y85974D01*
X317245Y86621D01*
X317409Y87302D01*
X317450Y88000D01*
X317409Y88698D01*
X317245Y89379D01*
X316977Y90026D01*
X316611Y90624D01*
X316156Y91156D01*
X315624Y91611D01*
X315026Y91977D01*
X314379Y92245D01*
X313698Y92409D01*
X313000Y92464D01*
X312993Y92463D01*
Y93537D01*
X313000Y93536D01*
X313698Y93591D01*
X314379Y93755D01*
X315026Y94023D01*
X315624Y94389D01*
X316156Y94844D01*
X316611Y95376D01*
X316977Y95974D01*
X317245Y96621D01*
X317409Y97302D01*
X317450Y98000D01*
X317409Y98698D01*
X317245Y99379D01*
X316977Y100026D01*
X316611Y100624D01*
X316156Y101156D01*
X315624Y101611D01*
X315026Y101977D01*
X314379Y102245D01*
X313698Y102409D01*
X313000Y102464D01*
X312993Y102463D01*
Y103537D01*
X313000Y103536D01*
X313698Y103591D01*
X314379Y103755D01*
X315026Y104023D01*
X315624Y104389D01*
X316156Y104844D01*
X316611Y105376D01*
X316977Y105974D01*
X317245Y106621D01*
X317409Y107302D01*
X317450Y108000D01*
X317409Y108698D01*
X317245Y109379D01*
X316977Y110026D01*
X316611Y110624D01*
X316156Y111156D01*
X315624Y111611D01*
X315026Y111977D01*
X314379Y112245D01*
X313698Y112409D01*
X313000Y112464D01*
X312993Y112463D01*
Y113537D01*
X313000Y113536D01*
X313698Y113591D01*
X314379Y113755D01*
X315026Y114023D01*
X315624Y114389D01*
X316156Y114844D01*
X316611Y115376D01*
X316977Y115974D01*
X317245Y116621D01*
X317409Y117302D01*
X317450Y118000D01*
X317409Y118698D01*
X317245Y119379D01*
X316977Y120026D01*
X316611Y120624D01*
X316156Y121156D01*
X315624Y121611D01*
X315026Y121977D01*
X314379Y122245D01*
X313698Y122409D01*
X313000Y122464D01*
X312993Y122463D01*
Y123537D01*
X313000Y123536D01*
X313698Y123591D01*
X314379Y123755D01*
X315026Y124023D01*
X315624Y124389D01*
X316156Y124844D01*
X316611Y125376D01*
X316977Y125974D01*
X317245Y126621D01*
X317409Y127302D01*
X317450Y128000D01*
X317409Y128698D01*
X317245Y129379D01*
X316977Y130026D01*
X316611Y130624D01*
X316156Y131156D01*
X315624Y131611D01*
X315026Y131977D01*
X314379Y132245D01*
X313698Y132409D01*
X313000Y132464D01*
X312993Y132463D01*
Y133537D01*
X313000Y133536D01*
X313698Y133591D01*
X314379Y133755D01*
X315026Y134023D01*
X315624Y134389D01*
X316156Y134844D01*
X316611Y135376D01*
X316977Y135974D01*
X317245Y136621D01*
X317409Y137302D01*
X317450Y138000D01*
X317409Y138698D01*
X317245Y139379D01*
X316977Y140026D01*
X316611Y140624D01*
X316156Y141156D01*
X315624Y141611D01*
X315026Y141977D01*
X314379Y142245D01*
X313698Y142409D01*
X313000Y142464D01*
X312993Y142463D01*
Y143537D01*
X313000Y143536D01*
X313698Y143591D01*
X314379Y143755D01*
X315026Y144023D01*
X315624Y144389D01*
X316156Y144844D01*
X316611Y145376D01*
X316977Y145974D01*
X317245Y146621D01*
X317409Y147302D01*
X317450Y148000D01*
X317409Y148698D01*
X317245Y149379D01*
X316977Y150026D01*
X316611Y150624D01*
X316156Y151156D01*
X315624Y151611D01*
X315026Y151977D01*
X314379Y152245D01*
X313698Y152409D01*
X313000Y152464D01*
X312993Y152463D01*
Y153537D01*
X313000Y153536D01*
X313698Y153591D01*
X314379Y153755D01*
X315026Y154023D01*
X315624Y154389D01*
X316156Y154844D01*
X316611Y155376D01*
X316977Y155974D01*
X317245Y156621D01*
X317409Y157302D01*
X317450Y158000D01*
X317409Y158698D01*
X317245Y159379D01*
X316977Y160026D01*
X316611Y160624D01*
X316156Y161156D01*
X315624Y161611D01*
X315026Y161977D01*
X314379Y162245D01*
X313698Y162409D01*
X313000Y162464D01*
X312993Y162463D01*
Y163537D01*
X313000Y163536D01*
X313698Y163591D01*
X314379Y163755D01*
X315026Y164023D01*
X315624Y164389D01*
X316156Y164844D01*
X316611Y165376D01*
X316977Y165974D01*
X317245Y166621D01*
X317409Y167302D01*
X317450Y168000D01*
X317409Y168698D01*
X317245Y169379D01*
X316977Y170026D01*
X316611Y170624D01*
X316156Y171156D01*
X315624Y171611D01*
X315026Y171977D01*
X314379Y172245D01*
X313698Y172409D01*
X313000Y172464D01*
X312993Y172463D01*
Y173537D01*
X313000Y173536D01*
X313698Y173591D01*
X314379Y173755D01*
X315026Y174023D01*
X315624Y174389D01*
X316156Y174844D01*
X316611Y175376D01*
X316977Y175974D01*
X317245Y176621D01*
X317409Y177302D01*
X317450Y178000D01*
X317409Y178698D01*
X317245Y179379D01*
X316977Y180026D01*
X316611Y180624D01*
X316156Y181156D01*
X315624Y181611D01*
X315026Y181977D01*
X314379Y182245D01*
X313698Y182409D01*
X313000Y182464D01*
X312993Y182463D01*
Y183537D01*
X313000Y183536D01*
X313698Y183591D01*
X314379Y183755D01*
X315026Y184023D01*
X315624Y184389D01*
X316156Y184844D01*
X316611Y185376D01*
X316977Y185974D01*
X317245Y186621D01*
X317409Y187302D01*
X317450Y188000D01*
X317409Y188698D01*
X317245Y189379D01*
X316977Y190026D01*
X316611Y190624D01*
X316156Y191156D01*
X315624Y191611D01*
X315026Y191977D01*
X314379Y192245D01*
X313698Y192409D01*
X313000Y192464D01*
X312993Y192463D01*
Y193537D01*
X313000Y193536D01*
X313698Y193591D01*
X314379Y193755D01*
X315026Y194023D01*
X315624Y194389D01*
X316156Y194844D01*
X316611Y195376D01*
X316977Y195974D01*
X317245Y196621D01*
X317409Y197302D01*
X317450Y198000D01*
X317409Y198698D01*
X317245Y199379D01*
X316977Y200026D01*
X316611Y200624D01*
X316156Y201156D01*
X315624Y201611D01*
X315026Y201977D01*
X314379Y202245D01*
X313698Y202409D01*
X313000Y202464D01*
X312993Y202463D01*
Y203537D01*
X313000Y203536D01*
X313698Y203591D01*
X314379Y203755D01*
X315026Y204023D01*
X315624Y204389D01*
X316156Y204844D01*
X316611Y205376D01*
X316977Y205974D01*
X317245Y206621D01*
X317409Y207302D01*
X317450Y208000D01*
X317409Y208698D01*
X317245Y209379D01*
X316977Y210026D01*
X316611Y210624D01*
X316156Y211156D01*
X315624Y211611D01*
X315026Y211977D01*
X314379Y212245D01*
X313698Y212409D01*
X313000Y212464D01*
X312993Y212463D01*
Y213537D01*
X313000Y213536D01*
X313698Y213591D01*
X314379Y213755D01*
X315026Y214023D01*
X315624Y214389D01*
X316156Y214844D01*
X316611Y215376D01*
X316977Y215974D01*
X317245Y216621D01*
X317409Y217302D01*
X317450Y218000D01*
X317409Y218698D01*
X317245Y219379D01*
X316977Y220026D01*
X316611Y220624D01*
X316156Y221156D01*
X315624Y221611D01*
X315026Y221977D01*
X314379Y222245D01*
X313698Y222409D01*
X313000Y222464D01*
X312993Y222463D01*
Y223537D01*
X313000Y223536D01*
X313698Y223591D01*
X314379Y223755D01*
X315026Y224023D01*
X315624Y224389D01*
X316156Y224844D01*
X316611Y225376D01*
X316977Y225974D01*
X317245Y226621D01*
X317409Y227302D01*
X317450Y228000D01*
X317409Y228698D01*
X317245Y229379D01*
X316977Y230026D01*
X316611Y230624D01*
X316156Y231156D01*
X315624Y231611D01*
X315026Y231977D01*
X314379Y232245D01*
X313698Y232409D01*
X313000Y232464D01*
X312993Y232463D01*
Y233537D01*
X313000Y233536D01*
X313698Y233591D01*
X314379Y233755D01*
X315026Y234023D01*
X315624Y234389D01*
X316156Y234844D01*
X316611Y235376D01*
X316977Y235974D01*
X317245Y236621D01*
X317409Y237302D01*
X317450Y238000D01*
X317409Y238698D01*
X317245Y239379D01*
X316977Y240026D01*
X316611Y240624D01*
X316156Y241156D01*
X315624Y241611D01*
X315026Y241977D01*
X314379Y242245D01*
X313698Y242409D01*
X313000Y242464D01*
X312993Y242463D01*
Y243537D01*
X313000Y243536D01*
X313698Y243591D01*
X314379Y243755D01*
X315026Y244023D01*
X315624Y244389D01*
X316156Y244844D01*
X316611Y245376D01*
X316977Y245974D01*
X317245Y246621D01*
X317409Y247302D01*
X317450Y248000D01*
X317409Y248698D01*
X317245Y249379D01*
X316977Y250026D01*
X316611Y250624D01*
X316156Y251156D01*
X315624Y251611D01*
X315026Y251977D01*
X314379Y252245D01*
X313698Y252409D01*
X313000Y252464D01*
X312993Y252463D01*
Y253537D01*
X313000Y253536D01*
X313698Y253591D01*
X314379Y253755D01*
X315026Y254023D01*
X315624Y254389D01*
X316156Y254844D01*
X316611Y255376D01*
X316977Y255974D01*
X317245Y256621D01*
X317409Y257302D01*
X317450Y258000D01*
X317409Y258698D01*
X317245Y259379D01*
X316977Y260026D01*
X316611Y260624D01*
X316156Y261156D01*
X315624Y261611D01*
X315026Y261977D01*
X314379Y262245D01*
X313698Y262409D01*
X313000Y262464D01*
X312993Y262463D01*
Y263537D01*
X313000Y263536D01*
X313698Y263591D01*
X314379Y263755D01*
X315026Y264023D01*
X315624Y264389D01*
X316156Y264844D01*
X316611Y265376D01*
X316977Y265974D01*
X317245Y266621D01*
X317409Y267302D01*
X317450Y268000D01*
X317409Y268698D01*
X317245Y269379D01*
X316977Y270026D01*
X316611Y270624D01*
X316156Y271156D01*
X315624Y271611D01*
X315026Y271977D01*
X314379Y272245D01*
X313698Y272409D01*
X313000Y272464D01*
X312993Y272463D01*
Y273537D01*
X313000Y273536D01*
X313698Y273591D01*
X314379Y273755D01*
X315026Y274023D01*
X315624Y274389D01*
X316156Y274844D01*
X316611Y275376D01*
X316977Y275974D01*
X317245Y276621D01*
X317409Y277302D01*
X317450Y278000D01*
X317409Y278698D01*
X317245Y279379D01*
X316977Y280026D01*
X316611Y280624D01*
X316156Y281156D01*
X315624Y281611D01*
X315026Y281977D01*
X314379Y282245D01*
X313698Y282409D01*
X313000Y282464D01*
X312993Y282463D01*
Y283537D01*
X313000Y283536D01*
X313698Y283591D01*
X314379Y283755D01*
X315026Y284023D01*
X315624Y284389D01*
X316156Y284844D01*
X316611Y285376D01*
X316977Y285974D01*
X317245Y286621D01*
X317409Y287302D01*
X317450Y288000D01*
X317409Y288698D01*
X317245Y289379D01*
X316977Y290026D01*
X316611Y290624D01*
X316156Y291156D01*
X315624Y291611D01*
X315026Y291977D01*
X314379Y292245D01*
X313698Y292409D01*
X313000Y292464D01*
X312993Y292463D01*
Y293537D01*
X313000Y293536D01*
X313698Y293591D01*
X314379Y293755D01*
X315026Y294023D01*
X315624Y294389D01*
X316156Y294844D01*
X316611Y295376D01*
X316977Y295974D01*
X317245Y296621D01*
X317409Y297302D01*
X317450Y298000D01*
X317409Y298698D01*
X317245Y299379D01*
X316977Y300026D01*
X316611Y300624D01*
X316156Y301156D01*
X315624Y301611D01*
X315026Y301977D01*
X314379Y302245D01*
X313698Y302409D01*
X313000Y302464D01*
X312993Y302463D01*
Y352000D01*
G37*
G36*
Y7000D02*X303000D01*
Y50919D01*
X304061Y50269D01*
X305319Y49748D01*
X306643Y49430D01*
X308000Y49323D01*
X309357Y49430D01*
X310681Y49748D01*
X311939Y50269D01*
X312993Y50915D01*
Y7000D01*
G37*
G36*
X302993Y352000D02*X312993D01*
Y302463D01*
X312302Y302409D01*
X311621Y302245D01*
X310974Y301977D01*
X310376Y301611D01*
X309844Y301156D01*
X309389Y300624D01*
X309023Y300026D01*
X308755Y299379D01*
X308591Y298698D01*
X308536Y298000D01*
X308591Y297302D01*
X308755Y296621D01*
X309023Y295974D01*
X309389Y295376D01*
X309844Y294844D01*
X310376Y294389D01*
X310974Y294023D01*
X311621Y293755D01*
X312302Y293591D01*
X312993Y293537D01*
Y292463D01*
X312302Y292409D01*
X311621Y292245D01*
X310974Y291977D01*
X310376Y291611D01*
X309844Y291156D01*
X309389Y290624D01*
X309023Y290026D01*
X308755Y289379D01*
X308591Y288698D01*
X308536Y288000D01*
X308591Y287302D01*
X308755Y286621D01*
X309023Y285974D01*
X309389Y285376D01*
X309844Y284844D01*
X310376Y284389D01*
X310974Y284023D01*
X311621Y283755D01*
X312302Y283591D01*
X312993Y283537D01*
Y282463D01*
X312302Y282409D01*
X311621Y282245D01*
X310974Y281977D01*
X310376Y281611D01*
X309844Y281156D01*
X309389Y280624D01*
X309023Y280026D01*
X308755Y279379D01*
X308591Y278698D01*
X308536Y278000D01*
X308591Y277302D01*
X308755Y276621D01*
X309023Y275974D01*
X309389Y275376D01*
X309844Y274844D01*
X310376Y274389D01*
X310974Y274023D01*
X311621Y273755D01*
X312302Y273591D01*
X312993Y273537D01*
Y272463D01*
X312302Y272409D01*
X311621Y272245D01*
X310974Y271977D01*
X310376Y271611D01*
X309844Y271156D01*
X309389Y270624D01*
X309023Y270026D01*
X308755Y269379D01*
X308591Y268698D01*
X308536Y268000D01*
X308591Y267302D01*
X308755Y266621D01*
X309023Y265974D01*
X309389Y265376D01*
X309844Y264844D01*
X310376Y264389D01*
X310974Y264023D01*
X311621Y263755D01*
X312302Y263591D01*
X312993Y263537D01*
Y262463D01*
X312302Y262409D01*
X311621Y262245D01*
X310974Y261977D01*
X310376Y261611D01*
X309844Y261156D01*
X309389Y260624D01*
X309023Y260026D01*
X308755Y259379D01*
X308591Y258698D01*
X308536Y258000D01*
X308591Y257302D01*
X308755Y256621D01*
X309023Y255974D01*
X309389Y255376D01*
X309844Y254844D01*
X310376Y254389D01*
X310974Y254023D01*
X311621Y253755D01*
X312302Y253591D01*
X312993Y253537D01*
Y252463D01*
X312302Y252409D01*
X311621Y252245D01*
X310974Y251977D01*
X310376Y251611D01*
X309844Y251156D01*
X309389Y250624D01*
X309023Y250026D01*
X308755Y249379D01*
X308591Y248698D01*
X308536Y248000D01*
X308591Y247302D01*
X308755Y246621D01*
X309023Y245974D01*
X309389Y245376D01*
X309844Y244844D01*
X310376Y244389D01*
X310974Y244023D01*
X311621Y243755D01*
X312302Y243591D01*
X312993Y243537D01*
Y242463D01*
X312302Y242409D01*
X311621Y242245D01*
X310974Y241977D01*
X310376Y241611D01*
X309844Y241156D01*
X309389Y240624D01*
X309023Y240026D01*
X308755Y239379D01*
X308591Y238698D01*
X308536Y238000D01*
X308591Y237302D01*
X308755Y236621D01*
X309023Y235974D01*
X309389Y235376D01*
X309844Y234844D01*
X310376Y234389D01*
X310974Y234023D01*
X311621Y233755D01*
X312302Y233591D01*
X312993Y233537D01*
Y232463D01*
X312302Y232409D01*
X311621Y232245D01*
X310974Y231977D01*
X310376Y231611D01*
X309844Y231156D01*
X309389Y230624D01*
X309023Y230026D01*
X308755Y229379D01*
X308591Y228698D01*
X308536Y228000D01*
X308591Y227302D01*
X308755Y226621D01*
X309023Y225974D01*
X309389Y225376D01*
X309844Y224844D01*
X310376Y224389D01*
X310974Y224023D01*
X311621Y223755D01*
X312302Y223591D01*
X312993Y223537D01*
Y222463D01*
X312302Y222409D01*
X311621Y222245D01*
X310974Y221977D01*
X310376Y221611D01*
X309844Y221156D01*
X309389Y220624D01*
X309023Y220026D01*
X308755Y219379D01*
X308591Y218698D01*
X308536Y218000D01*
X308591Y217302D01*
X308755Y216621D01*
X309023Y215974D01*
X309389Y215376D01*
X309844Y214844D01*
X310376Y214389D01*
X310974Y214023D01*
X311621Y213755D01*
X312302Y213591D01*
X312993Y213537D01*
Y212463D01*
X312302Y212409D01*
X311621Y212245D01*
X310974Y211977D01*
X310376Y211611D01*
X309844Y211156D01*
X309389Y210624D01*
X309023Y210026D01*
X308755Y209379D01*
X308591Y208698D01*
X308536Y208000D01*
X308591Y207302D01*
X308755Y206621D01*
X309023Y205974D01*
X309389Y205376D01*
X309844Y204844D01*
X310376Y204389D01*
X310974Y204023D01*
X311621Y203755D01*
X312302Y203591D01*
X312993Y203537D01*
Y202463D01*
X312302Y202409D01*
X311621Y202245D01*
X310974Y201977D01*
X310376Y201611D01*
X309844Y201156D01*
X309389Y200624D01*
X309023Y200026D01*
X308755Y199379D01*
X308591Y198698D01*
X308536Y198000D01*
X308591Y197302D01*
X308755Y196621D01*
X309023Y195974D01*
X309389Y195376D01*
X309844Y194844D01*
X310376Y194389D01*
X310974Y194023D01*
X311621Y193755D01*
X312302Y193591D01*
X312993Y193537D01*
Y192463D01*
X312302Y192409D01*
X311621Y192245D01*
X310974Y191977D01*
X310376Y191611D01*
X309844Y191156D01*
X309389Y190624D01*
X309023Y190026D01*
X308755Y189379D01*
X308591Y188698D01*
X308536Y188000D01*
X308591Y187302D01*
X308755Y186621D01*
X309023Y185974D01*
X309389Y185376D01*
X309844Y184844D01*
X310376Y184389D01*
X310974Y184023D01*
X311621Y183755D01*
X312302Y183591D01*
X312993Y183537D01*
Y182463D01*
X312302Y182409D01*
X311621Y182245D01*
X310974Y181977D01*
X310376Y181611D01*
X309844Y181156D01*
X309389Y180624D01*
X309023Y180026D01*
X308755Y179379D01*
X308591Y178698D01*
X308536Y178000D01*
X308591Y177302D01*
X308755Y176621D01*
X309023Y175974D01*
X309389Y175376D01*
X309844Y174844D01*
X310376Y174389D01*
X310974Y174023D01*
X311621Y173755D01*
X312302Y173591D01*
X312993Y173537D01*
Y172463D01*
X312302Y172409D01*
X311621Y172245D01*
X310974Y171977D01*
X310376Y171611D01*
X309844Y171156D01*
X309389Y170624D01*
X309023Y170026D01*
X308755Y169379D01*
X308591Y168698D01*
X308536Y168000D01*
X308591Y167302D01*
X308755Y166621D01*
X309023Y165974D01*
X309389Y165376D01*
X309844Y164844D01*
X310376Y164389D01*
X310974Y164023D01*
X311621Y163755D01*
X312302Y163591D01*
X312993Y163537D01*
Y162463D01*
X312302Y162409D01*
X311621Y162245D01*
X310974Y161977D01*
X310376Y161611D01*
X309844Y161156D01*
X309389Y160624D01*
X309023Y160026D01*
X308755Y159379D01*
X308591Y158698D01*
X308536Y158000D01*
X308591Y157302D01*
X308755Y156621D01*
X309023Y155974D01*
X309389Y155376D01*
X309844Y154844D01*
X310376Y154389D01*
X310974Y154023D01*
X311621Y153755D01*
X312302Y153591D01*
X312993Y153537D01*
Y152463D01*
X312302Y152409D01*
X311621Y152245D01*
X310974Y151977D01*
X310376Y151611D01*
X309844Y151156D01*
X309389Y150624D01*
X309023Y150026D01*
X308755Y149379D01*
X308591Y148698D01*
X308536Y148000D01*
X308591Y147302D01*
X308755Y146621D01*
X309023Y145974D01*
X309389Y145376D01*
X309844Y144844D01*
X310376Y144389D01*
X310974Y144023D01*
X311621Y143755D01*
X312302Y143591D01*
X312993Y143537D01*
Y142463D01*
X312302Y142409D01*
X311621Y142245D01*
X310974Y141977D01*
X310376Y141611D01*
X309844Y141156D01*
X309389Y140624D01*
X309023Y140026D01*
X308755Y139379D01*
X308591Y138698D01*
X308536Y138000D01*
X308591Y137302D01*
X308755Y136621D01*
X309023Y135974D01*
X309389Y135376D01*
X309844Y134844D01*
X310376Y134389D01*
X310974Y134023D01*
X311621Y133755D01*
X312302Y133591D01*
X312993Y133537D01*
Y132463D01*
X312302Y132409D01*
X311621Y132245D01*
X310974Y131977D01*
X310376Y131611D01*
X309844Y131156D01*
X309389Y130624D01*
X309023Y130026D01*
X308755Y129379D01*
X308591Y128698D01*
X308536Y128000D01*
X308591Y127302D01*
X308755Y126621D01*
X309023Y125974D01*
X309389Y125376D01*
X309844Y124844D01*
X310376Y124389D01*
X310974Y124023D01*
X311621Y123755D01*
X312302Y123591D01*
X312993Y123537D01*
Y122463D01*
X312302Y122409D01*
X311621Y122245D01*
X310974Y121977D01*
X310376Y121611D01*
X309844Y121156D01*
X309389Y120624D01*
X309023Y120026D01*
X308755Y119379D01*
X308591Y118698D01*
X308536Y118000D01*
X308591Y117302D01*
X308755Y116621D01*
X309023Y115974D01*
X309389Y115376D01*
X309844Y114844D01*
X310376Y114389D01*
X310974Y114023D01*
X311621Y113755D01*
X312302Y113591D01*
X312993Y113537D01*
Y112463D01*
X312302Y112409D01*
X311621Y112245D01*
X310974Y111977D01*
X310376Y111611D01*
X309844Y111156D01*
X309389Y110624D01*
X309023Y110026D01*
X308755Y109379D01*
X308591Y108698D01*
X308536Y108000D01*
X308591Y107302D01*
X308755Y106621D01*
X309023Y105974D01*
X309389Y105376D01*
X309844Y104844D01*
X310376Y104389D01*
X310974Y104023D01*
X311621Y103755D01*
X312302Y103591D01*
X312993Y103537D01*
Y102463D01*
X312302Y102409D01*
X311621Y102245D01*
X310974Y101977D01*
X310376Y101611D01*
X309844Y101156D01*
X309389Y100624D01*
X309023Y100026D01*
X308755Y99379D01*
X308591Y98698D01*
X308536Y98000D01*
X308591Y97302D01*
X308755Y96621D01*
X309023Y95974D01*
X309389Y95376D01*
X309844Y94844D01*
X310376Y94389D01*
X310974Y94023D01*
X311621Y93755D01*
X312302Y93591D01*
X312993Y93537D01*
Y92463D01*
X312302Y92409D01*
X311621Y92245D01*
X310974Y91977D01*
X310376Y91611D01*
X309844Y91156D01*
X309389Y90624D01*
X309023Y90026D01*
X308755Y89379D01*
X308591Y88698D01*
X308536Y88000D01*
X308591Y87302D01*
X308755Y86621D01*
X309023Y85974D01*
X309389Y85376D01*
X309844Y84844D01*
X310376Y84389D01*
X310974Y84023D01*
X311621Y83755D01*
X312302Y83591D01*
X312993Y83537D01*
Y82463D01*
X312302Y82409D01*
X311621Y82245D01*
X310974Y81977D01*
X310376Y81611D01*
X309844Y81156D01*
X309389Y80624D01*
X309023Y80026D01*
X308755Y79379D01*
X308591Y78698D01*
X308536Y78000D01*
X308591Y77302D01*
X308755Y76621D01*
X309023Y75974D01*
X309389Y75376D01*
X309844Y74844D01*
X310376Y74389D01*
X310974Y74023D01*
X311621Y73755D01*
X312302Y73591D01*
X312993Y73537D01*
Y65085D01*
X311939Y65731D01*
X310681Y66252D01*
X309357Y66570D01*
X308000Y66677D01*
X306643Y66570D01*
X305319Y66252D01*
X304061Y65731D01*
X303000Y65081D01*
Y73536D01*
X303698Y73591D01*
X304379Y73755D01*
X305026Y74023D01*
X305624Y74389D01*
X306156Y74844D01*
X306611Y75376D01*
X306977Y75974D01*
X307245Y76621D01*
X307409Y77302D01*
X307450Y78000D01*
X307409Y78698D01*
X307245Y79379D01*
X306977Y80026D01*
X306611Y80624D01*
X306156Y81156D01*
X305624Y81611D01*
X305026Y81977D01*
X304379Y82245D01*
X303698Y82409D01*
X303000Y82464D01*
X302993Y82463D01*
Y83537D01*
X303000Y83536D01*
X303698Y83591D01*
X304379Y83755D01*
X305026Y84023D01*
X305624Y84389D01*
X306156Y84844D01*
X306611Y85376D01*
X306977Y85974D01*
X307245Y86621D01*
X307409Y87302D01*
X307450Y88000D01*
X307409Y88698D01*
X307245Y89379D01*
X306977Y90026D01*
X306611Y90624D01*
X306156Y91156D01*
X305624Y91611D01*
X305026Y91977D01*
X304379Y92245D01*
X303698Y92409D01*
X303000Y92464D01*
X302993Y92463D01*
Y93537D01*
X303000Y93536D01*
X303698Y93591D01*
X304379Y93755D01*
X305026Y94023D01*
X305624Y94389D01*
X306156Y94844D01*
X306611Y95376D01*
X306977Y95974D01*
X307245Y96621D01*
X307409Y97302D01*
X307450Y98000D01*
X307409Y98698D01*
X307245Y99379D01*
X306977Y100026D01*
X306611Y100624D01*
X306156Y101156D01*
X305624Y101611D01*
X305026Y101977D01*
X304379Y102245D01*
X303698Y102409D01*
X303000Y102464D01*
X302993Y102463D01*
Y103537D01*
X303000Y103536D01*
X303698Y103591D01*
X304379Y103755D01*
X305026Y104023D01*
X305624Y104389D01*
X306156Y104844D01*
X306611Y105376D01*
X306977Y105974D01*
X307245Y106621D01*
X307409Y107302D01*
X307450Y108000D01*
X307409Y108698D01*
X307245Y109379D01*
X306977Y110026D01*
X306611Y110624D01*
X306156Y111156D01*
X305624Y111611D01*
X305026Y111977D01*
X304379Y112245D01*
X303698Y112409D01*
X303000Y112464D01*
X302993Y112463D01*
Y113537D01*
X303000Y113536D01*
X303698Y113591D01*
X304379Y113755D01*
X305026Y114023D01*
X305624Y114389D01*
X306156Y114844D01*
X306611Y115376D01*
X306977Y115974D01*
X307245Y116621D01*
X307409Y117302D01*
X307450Y118000D01*
X307409Y118698D01*
X307245Y119379D01*
X306977Y120026D01*
X306611Y120624D01*
X306156Y121156D01*
X305624Y121611D01*
X305026Y121977D01*
X304379Y122245D01*
X303698Y122409D01*
X303000Y122464D01*
X302993Y122463D01*
Y123537D01*
X303000Y123536D01*
X303698Y123591D01*
X304379Y123755D01*
X305026Y124023D01*
X305624Y124389D01*
X306156Y124844D01*
X306611Y125376D01*
X306977Y125974D01*
X307245Y126621D01*
X307409Y127302D01*
X307450Y128000D01*
X307409Y128698D01*
X307245Y129379D01*
X306977Y130026D01*
X306611Y130624D01*
X306156Y131156D01*
X305624Y131611D01*
X305026Y131977D01*
X304379Y132245D01*
X303698Y132409D01*
X303000Y132464D01*
X302993Y132463D01*
Y133537D01*
X303000Y133536D01*
X303698Y133591D01*
X304379Y133755D01*
X305026Y134023D01*
X305624Y134389D01*
X306156Y134844D01*
X306611Y135376D01*
X306977Y135974D01*
X307245Y136621D01*
X307409Y137302D01*
X307450Y138000D01*
X307409Y138698D01*
X307245Y139379D01*
X306977Y140026D01*
X306611Y140624D01*
X306156Y141156D01*
X305624Y141611D01*
X305026Y141977D01*
X304379Y142245D01*
X303698Y142409D01*
X303000Y142464D01*
X302993Y142463D01*
Y143537D01*
X303000Y143536D01*
X303698Y143591D01*
X304379Y143755D01*
X305026Y144023D01*
X305624Y144389D01*
X306156Y144844D01*
X306611Y145376D01*
X306977Y145974D01*
X307245Y146621D01*
X307409Y147302D01*
X307450Y148000D01*
X307409Y148698D01*
X307245Y149379D01*
X306977Y150026D01*
X306611Y150624D01*
X306156Y151156D01*
X305624Y151611D01*
X305026Y151977D01*
X304379Y152245D01*
X303698Y152409D01*
X303000Y152464D01*
X302993Y152463D01*
Y153537D01*
X303000Y153536D01*
X303698Y153591D01*
X304379Y153755D01*
X305026Y154023D01*
X305624Y154389D01*
X306156Y154844D01*
X306611Y155376D01*
X306977Y155974D01*
X307245Y156621D01*
X307409Y157302D01*
X307450Y158000D01*
X307409Y158698D01*
X307245Y159379D01*
X306977Y160026D01*
X306611Y160624D01*
X306156Y161156D01*
X305624Y161611D01*
X305026Y161977D01*
X304379Y162245D01*
X303698Y162409D01*
X303000Y162464D01*
X302993Y162463D01*
Y163537D01*
X303000Y163536D01*
X303698Y163591D01*
X304379Y163755D01*
X305026Y164023D01*
X305624Y164389D01*
X306156Y164844D01*
X306611Y165376D01*
X306977Y165974D01*
X307245Y166621D01*
X307409Y167302D01*
X307450Y168000D01*
X307409Y168698D01*
X307245Y169379D01*
X306977Y170026D01*
X306611Y170624D01*
X306156Y171156D01*
X305624Y171611D01*
X305026Y171977D01*
X304379Y172245D01*
X303698Y172409D01*
X303000Y172464D01*
X302993Y172463D01*
Y173537D01*
X303000Y173536D01*
X303698Y173591D01*
X304379Y173755D01*
X305026Y174023D01*
X305624Y174389D01*
X306156Y174844D01*
X306611Y175376D01*
X306977Y175974D01*
X307245Y176621D01*
X307409Y177302D01*
X307450Y178000D01*
X307409Y178698D01*
X307245Y179379D01*
X306977Y180026D01*
X306611Y180624D01*
X306156Y181156D01*
X305624Y181611D01*
X305026Y181977D01*
X304379Y182245D01*
X303698Y182409D01*
X303000Y182464D01*
X302993Y182463D01*
Y183537D01*
X303000Y183536D01*
X303698Y183591D01*
X304379Y183755D01*
X305026Y184023D01*
X305624Y184389D01*
X306156Y184844D01*
X306611Y185376D01*
X306977Y185974D01*
X307245Y186621D01*
X307409Y187302D01*
X307450Y188000D01*
X307409Y188698D01*
X307245Y189379D01*
X306977Y190026D01*
X306611Y190624D01*
X306156Y191156D01*
X305624Y191611D01*
X305026Y191977D01*
X304379Y192245D01*
X303698Y192409D01*
X303000Y192464D01*
X302993Y192463D01*
Y193537D01*
X303000Y193536D01*
X303698Y193591D01*
X304379Y193755D01*
X305026Y194023D01*
X305624Y194389D01*
X306156Y194844D01*
X306611Y195376D01*
X306977Y195974D01*
X307245Y196621D01*
X307409Y197302D01*
X307450Y198000D01*
X307409Y198698D01*
X307245Y199379D01*
X306977Y200026D01*
X306611Y200624D01*
X306156Y201156D01*
X305624Y201611D01*
X305026Y201977D01*
X304379Y202245D01*
X303698Y202409D01*
X303000Y202464D01*
X302993Y202463D01*
Y203537D01*
X303000Y203536D01*
X303698Y203591D01*
X304379Y203755D01*
X305026Y204023D01*
X305624Y204389D01*
X306156Y204844D01*
X306611Y205376D01*
X306977Y205974D01*
X307245Y206621D01*
X307409Y207302D01*
X307450Y208000D01*
X307409Y208698D01*
X307245Y209379D01*
X306977Y210026D01*
X306611Y210624D01*
X306156Y211156D01*
X305624Y211611D01*
X305026Y211977D01*
X304379Y212245D01*
X303698Y212409D01*
X303000Y212464D01*
X302993Y212463D01*
Y213537D01*
X303000Y213536D01*
X303698Y213591D01*
X304379Y213755D01*
X305026Y214023D01*
X305624Y214389D01*
X306156Y214844D01*
X306611Y215376D01*
X306977Y215974D01*
X307245Y216621D01*
X307409Y217302D01*
X307450Y218000D01*
X307409Y218698D01*
X307245Y219379D01*
X306977Y220026D01*
X306611Y220624D01*
X306156Y221156D01*
X305624Y221611D01*
X305026Y221977D01*
X304379Y222245D01*
X303698Y222409D01*
X303000Y222464D01*
X302993Y222463D01*
Y223537D01*
X303000Y223536D01*
X303698Y223591D01*
X304379Y223755D01*
X305026Y224023D01*
X305624Y224389D01*
X306156Y224844D01*
X306611Y225376D01*
X306977Y225974D01*
X307245Y226621D01*
X307409Y227302D01*
X307450Y228000D01*
X307409Y228698D01*
X307245Y229379D01*
X306977Y230026D01*
X306611Y230624D01*
X306156Y231156D01*
X305624Y231611D01*
X305026Y231977D01*
X304379Y232245D01*
X303698Y232409D01*
X303000Y232464D01*
X302993Y232463D01*
Y233537D01*
X303000Y233536D01*
X303698Y233591D01*
X304379Y233755D01*
X305026Y234023D01*
X305624Y234389D01*
X306156Y234844D01*
X306611Y235376D01*
X306977Y235974D01*
X307245Y236621D01*
X307409Y237302D01*
X307450Y238000D01*
X307409Y238698D01*
X307245Y239379D01*
X306977Y240026D01*
X306611Y240624D01*
X306156Y241156D01*
X305624Y241611D01*
X305026Y241977D01*
X304379Y242245D01*
X303698Y242409D01*
X303000Y242464D01*
X302993Y242463D01*
Y243537D01*
X303000Y243536D01*
X303698Y243591D01*
X304379Y243755D01*
X305026Y244023D01*
X305624Y244389D01*
X306156Y244844D01*
X306611Y245376D01*
X306977Y245974D01*
X307245Y246621D01*
X307409Y247302D01*
X307450Y248000D01*
X307409Y248698D01*
X307245Y249379D01*
X306977Y250026D01*
X306611Y250624D01*
X306156Y251156D01*
X305624Y251611D01*
X305026Y251977D01*
X304379Y252245D01*
X303698Y252409D01*
X303000Y252464D01*
X302993Y252463D01*
Y253537D01*
X303000Y253536D01*
X303698Y253591D01*
X304379Y253755D01*
X305026Y254023D01*
X305624Y254389D01*
X306156Y254844D01*
X306611Y255376D01*
X306977Y255974D01*
X307245Y256621D01*
X307409Y257302D01*
X307450Y258000D01*
X307409Y258698D01*
X307245Y259379D01*
X306977Y260026D01*
X306611Y260624D01*
X306156Y261156D01*
X305624Y261611D01*
X305026Y261977D01*
X304379Y262245D01*
X303698Y262409D01*
X303000Y262464D01*
X302993Y262463D01*
Y263537D01*
X303000Y263536D01*
X303698Y263591D01*
X304379Y263755D01*
X305026Y264023D01*
X305624Y264389D01*
X306156Y264844D01*
X306611Y265376D01*
X306977Y265974D01*
X307245Y266621D01*
X307409Y267302D01*
X307450Y268000D01*
X307409Y268698D01*
X307245Y269379D01*
X306977Y270026D01*
X306611Y270624D01*
X306156Y271156D01*
X305624Y271611D01*
X305026Y271977D01*
X304379Y272245D01*
X303698Y272409D01*
X303000Y272464D01*
X302993Y272463D01*
Y273537D01*
X303000Y273536D01*
X303698Y273591D01*
X304379Y273755D01*
X305026Y274023D01*
X305624Y274389D01*
X306156Y274844D01*
X306611Y275376D01*
X306977Y275974D01*
X307245Y276621D01*
X307409Y277302D01*
X307450Y278000D01*
X307409Y278698D01*
X307245Y279379D01*
X306977Y280026D01*
X306611Y280624D01*
X306156Y281156D01*
X305624Y281611D01*
X305026Y281977D01*
X304379Y282245D01*
X303698Y282409D01*
X303000Y282464D01*
X302993Y282463D01*
Y283537D01*
X303000Y283536D01*
X303698Y283591D01*
X304379Y283755D01*
X305026Y284023D01*
X305624Y284389D01*
X306156Y284844D01*
X306611Y285376D01*
X306977Y285974D01*
X307245Y286621D01*
X307409Y287302D01*
X307450Y288000D01*
X307409Y288698D01*
X307245Y289379D01*
X306977Y290026D01*
X306611Y290624D01*
X306156Y291156D01*
X305624Y291611D01*
X305026Y291977D01*
X304379Y292245D01*
X303698Y292409D01*
X303000Y292464D01*
X302993Y292463D01*
Y293537D01*
X303000Y293536D01*
X303698Y293591D01*
X304379Y293755D01*
X305026Y294023D01*
X305624Y294389D01*
X306156Y294844D01*
X306611Y295376D01*
X306977Y295974D01*
X307245Y296621D01*
X307409Y297302D01*
X307450Y298000D01*
X307409Y298698D01*
X307245Y299379D01*
X306977Y300026D01*
X306611Y300624D01*
X306156Y301156D01*
X305624Y301611D01*
X305026Y301977D01*
X304379Y302245D01*
X303698Y302409D01*
X303000Y302464D01*
X302993Y302463D01*
Y313673D01*
X303231Y314061D01*
X303752Y315319D01*
X304070Y316643D01*
X304150Y318000D01*
X304070Y319357D01*
X303752Y320681D01*
X303231Y321939D01*
X302993Y322327D01*
Y352000D01*
G37*
G36*
X239284D02*X302993D01*
Y322327D01*
X302520Y323100D01*
X301635Y324135D01*
X300600Y325020D01*
X299439Y325731D01*
X298181Y326252D01*
X296857Y326570D01*
X295500Y326677D01*
X294143Y326570D01*
X292819Y326252D01*
X291561Y325731D01*
X290400Y325020D01*
X289365Y324135D01*
X288480Y323100D01*
X287769Y321939D01*
X287248Y320681D01*
X286930Y319357D01*
X286823Y318000D01*
X286930Y316643D01*
X287248Y315319D01*
X287769Y314061D01*
X288480Y312900D01*
X289365Y311865D01*
X290400Y310980D01*
X291561Y310269D01*
X292819Y309748D01*
X294143Y309430D01*
X295500Y309323D01*
X296857Y309430D01*
X298181Y309748D01*
X299439Y310269D01*
X300600Y310980D01*
X301635Y311865D01*
X302520Y312900D01*
X302993Y313673D01*
Y302463D01*
X302302Y302409D01*
X301621Y302245D01*
X300974Y301977D01*
X300376Y301611D01*
X299844Y301156D01*
X299389Y300624D01*
X299023Y300026D01*
X298755Y299379D01*
X298591Y298698D01*
X298536Y298000D01*
X298591Y297302D01*
X298755Y296621D01*
X299023Y295974D01*
X299389Y295376D01*
X299844Y294844D01*
X300376Y294389D01*
X300974Y294023D01*
X301621Y293755D01*
X302302Y293591D01*
X302993Y293537D01*
Y292463D01*
X302302Y292409D01*
X301621Y292245D01*
X300974Y291977D01*
X300376Y291611D01*
X299844Y291156D01*
X299389Y290624D01*
X299023Y290026D01*
X298755Y289379D01*
X298591Y288698D01*
X298536Y288000D01*
X298591Y287302D01*
X298755Y286621D01*
X299023Y285974D01*
X299389Y285376D01*
X299844Y284844D01*
X300376Y284389D01*
X300974Y284023D01*
X301621Y283755D01*
X302302Y283591D01*
X302993Y283537D01*
Y282463D01*
X302302Y282409D01*
X301621Y282245D01*
X300974Y281977D01*
X300376Y281611D01*
X299844Y281156D01*
X299389Y280624D01*
X299023Y280026D01*
X298755Y279379D01*
X298591Y278698D01*
X298536Y278000D01*
X298591Y277302D01*
X298755Y276621D01*
X299023Y275974D01*
X299389Y275376D01*
X299844Y274844D01*
X300376Y274389D01*
X300974Y274023D01*
X301621Y273755D01*
X302302Y273591D01*
X302993Y273537D01*
Y272463D01*
X302302Y272409D01*
X301621Y272245D01*
X300974Y271977D01*
X300376Y271611D01*
X299844Y271156D01*
X299389Y270624D01*
X299023Y270026D01*
X298755Y269379D01*
X298591Y268698D01*
X298536Y268000D01*
X298591Y267302D01*
X298755Y266621D01*
X299023Y265974D01*
X299389Y265376D01*
X299844Y264844D01*
X300376Y264389D01*
X300974Y264023D01*
X301621Y263755D01*
X302302Y263591D01*
X302993Y263537D01*
Y262463D01*
X302302Y262409D01*
X301621Y262245D01*
X300974Y261977D01*
X300376Y261611D01*
X299844Y261156D01*
X299389Y260624D01*
X299023Y260026D01*
X298755Y259379D01*
X298591Y258698D01*
X298536Y258000D01*
X298591Y257302D01*
X298755Y256621D01*
X299023Y255974D01*
X299389Y255376D01*
X299844Y254844D01*
X300376Y254389D01*
X300974Y254023D01*
X301621Y253755D01*
X302302Y253591D01*
X302993Y253537D01*
Y252463D01*
X302302Y252409D01*
X301621Y252245D01*
X300974Y251977D01*
X300376Y251611D01*
X299844Y251156D01*
X299389Y250624D01*
X299023Y250026D01*
X298755Y249379D01*
X298591Y248698D01*
X298536Y248000D01*
X298591Y247302D01*
X298755Y246621D01*
X299023Y245974D01*
X299389Y245376D01*
X299844Y244844D01*
X300376Y244389D01*
X300974Y244023D01*
X301621Y243755D01*
X302302Y243591D01*
X302993Y243537D01*
Y242463D01*
X302302Y242409D01*
X301621Y242245D01*
X300974Y241977D01*
X300376Y241611D01*
X299844Y241156D01*
X299389Y240624D01*
X299023Y240026D01*
X298755Y239379D01*
X298591Y238698D01*
X298536Y238000D01*
X298591Y237302D01*
X298755Y236621D01*
X299023Y235974D01*
X299389Y235376D01*
X299844Y234844D01*
X300376Y234389D01*
X300974Y234023D01*
X301621Y233755D01*
X302302Y233591D01*
X302993Y233537D01*
Y232463D01*
X302302Y232409D01*
X301621Y232245D01*
X300974Y231977D01*
X300376Y231611D01*
X299844Y231156D01*
X299389Y230624D01*
X299023Y230026D01*
X298755Y229379D01*
X298591Y228698D01*
X298536Y228000D01*
X298591Y227302D01*
X298755Y226621D01*
X299023Y225974D01*
X299389Y225376D01*
X299844Y224844D01*
X300376Y224389D01*
X300974Y224023D01*
X301621Y223755D01*
X302302Y223591D01*
X302993Y223537D01*
Y222463D01*
X302302Y222409D01*
X301621Y222245D01*
X300974Y221977D01*
X300376Y221611D01*
X299844Y221156D01*
X299389Y220624D01*
X299023Y220026D01*
X298755Y219379D01*
X298591Y218698D01*
X298536Y218000D01*
X298591Y217302D01*
X298755Y216621D01*
X299023Y215974D01*
X299389Y215376D01*
X299844Y214844D01*
X300376Y214389D01*
X300974Y214023D01*
X301621Y213755D01*
X302302Y213591D01*
X302993Y213537D01*
Y212463D01*
X302302Y212409D01*
X301621Y212245D01*
X300974Y211977D01*
X300376Y211611D01*
X299844Y211156D01*
X299389Y210624D01*
X299023Y210026D01*
X298755Y209379D01*
X298591Y208698D01*
X298536Y208000D01*
X298591Y207302D01*
X298755Y206621D01*
X299023Y205974D01*
X299389Y205376D01*
X299844Y204844D01*
X300376Y204389D01*
X300974Y204023D01*
X301621Y203755D01*
X302302Y203591D01*
X302993Y203537D01*
Y202463D01*
X302302Y202409D01*
X301621Y202245D01*
X300974Y201977D01*
X300376Y201611D01*
X299844Y201156D01*
X299389Y200624D01*
X299023Y200026D01*
X298755Y199379D01*
X298591Y198698D01*
X298536Y198000D01*
X298591Y197302D01*
X298755Y196621D01*
X299023Y195974D01*
X299389Y195376D01*
X299844Y194844D01*
X300376Y194389D01*
X300974Y194023D01*
X301621Y193755D01*
X302302Y193591D01*
X302993Y193537D01*
Y192463D01*
X302302Y192409D01*
X301621Y192245D01*
X300974Y191977D01*
X300376Y191611D01*
X299844Y191156D01*
X299389Y190624D01*
X299023Y190026D01*
X298755Y189379D01*
X298591Y188698D01*
X298536Y188000D01*
X298591Y187302D01*
X298755Y186621D01*
X299023Y185974D01*
X299389Y185376D01*
X299844Y184844D01*
X300376Y184389D01*
X300974Y184023D01*
X301621Y183755D01*
X302302Y183591D01*
X302993Y183537D01*
Y182463D01*
X302302Y182409D01*
X301621Y182245D01*
X300974Y181977D01*
X300376Y181611D01*
X299844Y181156D01*
X299389Y180624D01*
X299023Y180026D01*
X298755Y179379D01*
X298591Y178698D01*
X298536Y178000D01*
X298591Y177302D01*
X298755Y176621D01*
X299023Y175974D01*
X299389Y175376D01*
X299844Y174844D01*
X300376Y174389D01*
X300974Y174023D01*
X301621Y173755D01*
X302302Y173591D01*
X302993Y173537D01*
Y172463D01*
X302302Y172409D01*
X301621Y172245D01*
X300974Y171977D01*
X300376Y171611D01*
X299844Y171156D01*
X299389Y170624D01*
X299023Y170026D01*
X298755Y169379D01*
X298591Y168698D01*
X298536Y168000D01*
X298591Y167302D01*
X298755Y166621D01*
X299023Y165974D01*
X299389Y165376D01*
X299844Y164844D01*
X300376Y164389D01*
X300974Y164023D01*
X301621Y163755D01*
X302302Y163591D01*
X302993Y163537D01*
Y162463D01*
X302302Y162409D01*
X301621Y162245D01*
X300974Y161977D01*
X300376Y161611D01*
X299844Y161156D01*
X299389Y160624D01*
X299023Y160026D01*
X298755Y159379D01*
X298591Y158698D01*
X298536Y158000D01*
X298591Y157302D01*
X298755Y156621D01*
X299023Y155974D01*
X299389Y155376D01*
X299844Y154844D01*
X300376Y154389D01*
X300974Y154023D01*
X301621Y153755D01*
X302302Y153591D01*
X302993Y153537D01*
Y152463D01*
X302302Y152409D01*
X301621Y152245D01*
X300974Y151977D01*
X300376Y151611D01*
X299844Y151156D01*
X299389Y150624D01*
X299023Y150026D01*
X298755Y149379D01*
X298591Y148698D01*
X298536Y148000D01*
X298591Y147302D01*
X298755Y146621D01*
X299023Y145974D01*
X299389Y145376D01*
X299844Y144844D01*
X300376Y144389D01*
X300974Y144023D01*
X301621Y143755D01*
X302302Y143591D01*
X302993Y143537D01*
Y142463D01*
X302302Y142409D01*
X301621Y142245D01*
X300974Y141977D01*
X300376Y141611D01*
X299844Y141156D01*
X299389Y140624D01*
X299023Y140026D01*
X298755Y139379D01*
X298591Y138698D01*
X298536Y138000D01*
X298591Y137302D01*
X298755Y136621D01*
X299023Y135974D01*
X299389Y135376D01*
X299844Y134844D01*
X300376Y134389D01*
X300974Y134023D01*
X301621Y133755D01*
X302302Y133591D01*
X302993Y133537D01*
Y132463D01*
X302302Y132409D01*
X301621Y132245D01*
X300974Y131977D01*
X300376Y131611D01*
X299844Y131156D01*
X299389Y130624D01*
X299023Y130026D01*
X298755Y129379D01*
X298591Y128698D01*
X298536Y128000D01*
X298591Y127302D01*
X298755Y126621D01*
X299023Y125974D01*
X299389Y125376D01*
X299844Y124844D01*
X300376Y124389D01*
X300974Y124023D01*
X301621Y123755D01*
X302302Y123591D01*
X302993Y123537D01*
Y122463D01*
X302302Y122409D01*
X301621Y122245D01*
X300974Y121977D01*
X300376Y121611D01*
X299844Y121156D01*
X299389Y120624D01*
X299023Y120026D01*
X298755Y119379D01*
X298591Y118698D01*
X298536Y118000D01*
X298591Y117302D01*
X298755Y116621D01*
X299023Y115974D01*
X299389Y115376D01*
X299844Y114844D01*
X300376Y114389D01*
X300974Y114023D01*
X301621Y113755D01*
X302302Y113591D01*
X302993Y113537D01*
Y112463D01*
X302302Y112409D01*
X301621Y112245D01*
X300974Y111977D01*
X300376Y111611D01*
X299844Y111156D01*
X299389Y110624D01*
X299023Y110026D01*
X298755Y109379D01*
X298591Y108698D01*
X298536Y108000D01*
X298591Y107302D01*
X298755Y106621D01*
X299023Y105974D01*
X299389Y105376D01*
X299844Y104844D01*
X300376Y104389D01*
X300974Y104023D01*
X301621Y103755D01*
X302302Y103591D01*
X302993Y103537D01*
Y102463D01*
X302302Y102409D01*
X301621Y102245D01*
X300974Y101977D01*
X300376Y101611D01*
X299844Y101156D01*
X299389Y100624D01*
X299023Y100026D01*
X298755Y99379D01*
X298591Y98698D01*
X298536Y98000D01*
X298591Y97302D01*
X298755Y96621D01*
X299023Y95974D01*
X299389Y95376D01*
X299844Y94844D01*
X300376Y94389D01*
X300974Y94023D01*
X301621Y93755D01*
X302302Y93591D01*
X302993Y93537D01*
Y92463D01*
X302302Y92409D01*
X301621Y92245D01*
X300974Y91977D01*
X300376Y91611D01*
X299844Y91156D01*
X299389Y90624D01*
X299023Y90026D01*
X298755Y89379D01*
X298591Y88698D01*
X298536Y88000D01*
X298591Y87302D01*
X298755Y86621D01*
X299023Y85974D01*
X299389Y85376D01*
X299844Y84844D01*
X300376Y84389D01*
X300974Y84023D01*
X301621Y83755D01*
X302302Y83591D01*
X302993Y83537D01*
Y82463D01*
X302302Y82409D01*
X301621Y82245D01*
X300974Y81977D01*
X300376Y81611D01*
X299844Y81156D01*
X299389Y80624D01*
X299023Y80026D01*
X299012Y80000D01*
X239284D01*
Y153869D01*
X239287Y153870D01*
X239355Y153909D01*
X239416Y153958D01*
X239469Y154017D01*
X239511Y154083D01*
X239674Y154408D01*
X239803Y154748D01*
X239901Y155098D01*
X239967Y155456D01*
X240000Y155818D01*
Y156182D01*
X239967Y156544D01*
X239901Y156902D01*
X239803Y157252D01*
X239674Y157592D01*
X239515Y157919D01*
X239472Y157985D01*
X239419Y158044D01*
X239357Y158094D01*
X239288Y158133D01*
X239284Y158135D01*
Y352000D01*
G37*
G36*
X236002D02*X239284D01*
Y158135D01*
X239214Y158161D01*
X239137Y158177D01*
X239058Y158181D01*
X238979Y158173D01*
X238903Y158152D01*
X238830Y158120D01*
X238764Y158077D01*
X238705Y158024D01*
X238656Y157962D01*
X238616Y157893D01*
X238588Y157819D01*
X238572Y157742D01*
X238568Y157663D01*
X238576Y157584D01*
X238597Y157507D01*
X238630Y157436D01*
X238753Y157193D01*
X238850Y156938D01*
X238923Y156676D01*
X238972Y156408D01*
X238997Y156136D01*
Y155864D01*
X238972Y155592D01*
X238923Y155324D01*
X238850Y155062D01*
X238753Y154807D01*
X238633Y154563D01*
X238600Y154491D01*
X238579Y154416D01*
X238571Y154337D01*
X238575Y154259D01*
X238591Y154182D01*
X238619Y154108D01*
X238658Y154040D01*
X238707Y153979D01*
X238766Y153926D01*
X238832Y153883D01*
X238904Y153851D01*
X238980Y153830D01*
X239058Y153822D01*
X239136Y153826D01*
X239213Y153842D01*
X239284Y153869D01*
Y80000D01*
X236002D01*
Y152000D01*
X236182D01*
X236544Y152033D01*
X236902Y152099D01*
X237252Y152197D01*
X237592Y152326D01*
X237919Y152485D01*
X237985Y152528D01*
X238044Y152581D01*
X238094Y152643D01*
X238133Y152712D01*
X238161Y152786D01*
X238177Y152863D01*
X238181Y152942D01*
X238173Y153021D01*
X238152Y153097D01*
X238120Y153170D01*
X238077Y153236D01*
X238024Y153295D01*
X237962Y153344D01*
X237893Y153384D01*
X237819Y153412D01*
X237742Y153428D01*
X237663Y153432D01*
X237584Y153424D01*
X237507Y153403D01*
X237436Y153370D01*
X237193Y153247D01*
X236938Y153150D01*
X236676Y153077D01*
X236408Y153028D01*
X236136Y153003D01*
X236002D01*
Y158997D01*
X236136D01*
X236408Y158972D01*
X236676Y158923D01*
X236938Y158850D01*
X237193Y158753D01*
X237437Y158633D01*
X237509Y158600D01*
X237584Y158579D01*
X237663Y158571D01*
X237741Y158575D01*
X237818Y158591D01*
X237892Y158619D01*
X237960Y158658D01*
X238021Y158707D01*
X238074Y158766D01*
X238117Y158832D01*
X238149Y158904D01*
X238170Y158980D01*
X238178Y159058D01*
X238174Y159136D01*
X238158Y159213D01*
X238130Y159287D01*
X238091Y159355D01*
X238042Y159416D01*
X237983Y159469D01*
X237917Y159511D01*
X237592Y159674D01*
X237252Y159803D01*
X236902Y159901D01*
X236544Y159967D01*
X236182Y160000D01*
X236002D01*
Y352000D01*
G37*
G36*
X232716D02*X236002D01*
Y160000D01*
X235818D01*
X235456Y159967D01*
X235098Y159901D01*
X234748Y159803D01*
X234408Y159674D01*
X234081Y159515D01*
X234015Y159472D01*
X233956Y159419D01*
X233906Y159357D01*
X233867Y159288D01*
X233839Y159214D01*
X233823Y159137D01*
X233819Y159058D01*
X233827Y158979D01*
X233848Y158903D01*
X233880Y158830D01*
X233923Y158764D01*
X233976Y158705D01*
X234038Y158656D01*
X234107Y158616D01*
X234181Y158588D01*
X234258Y158572D01*
X234337Y158568D01*
X234416Y158576D01*
X234493Y158597D01*
X234564Y158630D01*
X234807Y158753D01*
X235062Y158850D01*
X235324Y158923D01*
X235592Y158972D01*
X235864Y158997D01*
X236002D01*
Y153003D01*
X235864D01*
X235592Y153028D01*
X235324Y153077D01*
X235062Y153150D01*
X234807Y153247D01*
X234563Y153367D01*
X234491Y153400D01*
X234415Y153421D01*
X234337Y153429D01*
X234259Y153425D01*
X234182Y153409D01*
X234108Y153381D01*
X234040Y153342D01*
X233979Y153293D01*
X233926Y153234D01*
X233883Y153168D01*
X233851Y153096D01*
X233830Y153020D01*
X233822Y152942D01*
X233826Y152864D01*
X233842Y152787D01*
X233870Y152713D01*
X233909Y152645D01*
X233958Y152584D01*
X234017Y152531D01*
X234083Y152489D01*
X234408Y152326D01*
X234748Y152197D01*
X235098Y152099D01*
X235456Y152033D01*
X235818Y152000D01*
X236002D01*
Y80000D01*
X232716D01*
Y153865D01*
X232786Y153839D01*
X232863Y153823D01*
X232942Y153819D01*
X233021Y153827D01*
X233097Y153848D01*
X233170Y153880D01*
X233236Y153923D01*
X233295Y153976D01*
X233344Y154038D01*
X233384Y154107D01*
X233412Y154181D01*
X233428Y154258D01*
X233432Y154337D01*
X233424Y154416D01*
X233403Y154493D01*
X233370Y154564D01*
X233247Y154807D01*
X233150Y155062D01*
X233077Y155324D01*
X233028Y155592D01*
X233003Y155864D01*
Y156136D01*
X233028Y156408D01*
X233077Y156676D01*
X233150Y156938D01*
X233247Y157193D01*
X233367Y157437D01*
X233400Y157509D01*
X233421Y157585D01*
X233429Y157663D01*
X233425Y157741D01*
X233409Y157818D01*
X233381Y157892D01*
X233342Y157960D01*
X233293Y158021D01*
X233234Y158074D01*
X233168Y158117D01*
X233096Y158149D01*
X233020Y158170D01*
X232942Y158178D01*
X232864Y158174D01*
X232787Y158158D01*
X232716Y158131D01*
Y160283D01*
X232869Y160462D01*
X233363Y161268D01*
X233724Y162140D01*
X233944Y163058D01*
X234000Y164000D01*
X233944Y164942D01*
X233724Y165860D01*
X233363Y166732D01*
X232869Y167538D01*
X232716Y167717D01*
Y352000D01*
G37*
G36*
Y80000D02*X218000D01*
Y102988D01*
X218628Y103037D01*
X219240Y103184D01*
X219822Y103425D01*
X220358Y103754D01*
X220837Y104163D01*
X221246Y104642D01*
X221575Y105178D01*
X221816Y105760D01*
X221963Y106372D01*
X222000Y107000D01*
X221963Y107628D01*
X221816Y108240D01*
X221575Y108822D01*
X221246Y109358D01*
X220837Y109837D01*
X220358Y110246D01*
X219822Y110575D01*
X219240Y110816D01*
X218628Y110963D01*
X218000Y111012D01*
Y143007D01*
X220735Y143014D01*
X220965Y143069D01*
X221183Y143159D01*
X221384Y143283D01*
X221564Y143436D01*
X221717Y143616D01*
X221841Y143817D01*
X221931Y144035D01*
X221986Y144265D01*
X222000Y144500D01*
X221986Y149735D01*
X221931Y149965D01*
X221841Y150183D01*
X221717Y150384D01*
X221564Y150564D01*
X221384Y150717D01*
X221183Y150841D01*
X220965Y150931D01*
X220735Y150986D01*
X220500Y151000D01*
X220250Y150999D01*
Y158438D01*
X220732Y158637D01*
X221538Y159131D01*
X222256Y159744D01*
X222869Y160462D01*
X223000Y160676D01*
X223131Y160462D01*
X223744Y159744D01*
X224462Y159131D01*
X225268Y158637D01*
X226140Y158276D01*
X227058Y158056D01*
X228000Y157981D01*
X228942Y158056D01*
X229860Y158276D01*
X230732Y158637D01*
X231538Y159131D01*
X232256Y159744D01*
X232716Y160283D01*
Y158131D01*
X232713Y158130D01*
X232645Y158091D01*
X232584Y158042D01*
X232531Y157983D01*
X232489Y157917D01*
X232326Y157592D01*
X232197Y157252D01*
X232099Y156902D01*
X232033Y156544D01*
X232000Y156182D01*
Y155818D01*
X232033Y155456D01*
X232099Y155098D01*
X232197Y154748D01*
X232326Y154408D01*
X232485Y154081D01*
X232528Y154015D01*
X232581Y153956D01*
X232643Y153906D01*
X232712Y153867D01*
X232716Y153865D01*
Y80000D01*
G37*
G36*
X218000Y352000D02*X232716D01*
Y167717D01*
X232256Y168256D01*
X231538Y168869D01*
X230732Y169363D01*
X229860Y169724D01*
X228942Y169944D01*
X228000Y170019D01*
X227058Y169944D01*
X226140Y169724D01*
X225268Y169363D01*
X224462Y168869D01*
X223744Y168256D01*
X223131Y167538D01*
X223000Y167324D01*
X222869Y167538D01*
X222256Y168256D01*
X221538Y168869D01*
X220732Y169363D01*
X219860Y169724D01*
X218942Y169944D01*
X218000Y170019D01*
Y221972D01*
X219412Y222083D01*
X220790Y222414D01*
X222099Y222956D01*
X223306Y223696D01*
X224384Y224616D01*
X225304Y225694D01*
X226044Y226901D01*
X226586Y228210D01*
X226917Y229588D01*
X227000Y231000D01*
X226917Y232412D01*
X226586Y233790D01*
X226044Y235099D01*
X225304Y236306D01*
X224384Y237384D01*
X223306Y238304D01*
X222099Y239044D01*
X220790Y239586D01*
X219412Y239917D01*
X218000Y240028D01*
Y352000D01*
G37*
G36*
Y170019D02*X217058Y169944D01*
X216140Y169724D01*
X215268Y169363D01*
X214462Y168869D01*
X213987Y168463D01*
X213986Y168735D01*
X213931Y168965D01*
X213841Y169183D01*
X213717Y169384D01*
X213564Y169564D01*
X213384Y169717D01*
X213183Y169841D01*
X212965Y169931D01*
X212735Y169986D01*
X212500Y170000D01*
X210250Y169997D01*
Y226422D01*
X210696Y225694D01*
X211616Y224616D01*
X212694Y223696D01*
X213901Y222956D01*
X215210Y222414D01*
X216588Y222083D01*
X218000Y221972D01*
Y170019D01*
G37*
G36*
Y80000D02*X160000D01*
Y7000D01*
X98284D01*
Y13750D01*
X143912D01*
X144000Y13743D01*
X144353Y13771D01*
X144353Y13771D01*
X144697Y13854D01*
X145025Y13989D01*
X145327Y14174D01*
X145596Y14404D01*
X145653Y14471D01*
X155529Y24347D01*
X155596Y24404D01*
X155826Y24673D01*
X155826Y24673D01*
X156011Y24975D01*
X156146Y25303D01*
X156229Y25647D01*
X156257Y26000D01*
X156250Y26088D01*
Y98068D01*
X161249Y103067D01*
X161372Y103037D01*
X162000Y102988D01*
X162628Y103037D01*
X163240Y103184D01*
X163822Y103425D01*
X164358Y103754D01*
X164837Y104163D01*
X165246Y104642D01*
X165312Y104750D01*
X214688D01*
X214754Y104642D01*
X215163Y104163D01*
X215642Y103754D01*
X216178Y103425D01*
X216760Y103184D01*
X217372Y103037D01*
X218000Y102988D01*
Y80000D01*
G37*
G36*
X122993Y93537D02*X123000Y93536D01*
X123698Y93591D01*
X124379Y93755D01*
X125026Y94023D01*
X125624Y94389D01*
X126156Y94844D01*
X126611Y95376D01*
X126977Y95974D01*
X127245Y96621D01*
X127409Y97302D01*
X127450Y98000D01*
X127409Y98698D01*
X127245Y99379D01*
X126977Y100026D01*
X126611Y100624D01*
X126156Y101156D01*
X125754Y101500D01*
X128292D01*
X128425Y101178D01*
X128754Y100642D01*
X129163Y100163D01*
X129642Y99754D01*
X130178Y99425D01*
X130760Y99184D01*
X131372Y99037D01*
X132000Y98988D01*
X132628Y99037D01*
X133240Y99184D01*
X133822Y99425D01*
X134358Y99754D01*
X134837Y100163D01*
X135246Y100642D01*
X135312Y100750D01*
X149068D01*
X151750Y98068D01*
Y26932D01*
X143068Y18250D01*
X122993D01*
Y50915D01*
X123100Y50980D01*
X124135Y51865D01*
X125020Y52900D01*
X125731Y54061D01*
X126252Y55319D01*
X126570Y56643D01*
X126650Y58000D01*
X126570Y59357D01*
X126252Y60681D01*
X125731Y61939D01*
X125020Y63100D01*
X124135Y64135D01*
X123100Y65020D01*
X122993Y65085D01*
Y73537D01*
X123000Y73536D01*
X123698Y73591D01*
X124379Y73755D01*
X125026Y74023D01*
X125624Y74389D01*
X126156Y74844D01*
X126611Y75376D01*
X126977Y75974D01*
X127245Y76621D01*
X127409Y77302D01*
X127450Y78000D01*
X127409Y78698D01*
X127245Y79379D01*
X126977Y80026D01*
X126611Y80624D01*
X126156Y81156D01*
X125624Y81611D01*
X125026Y81977D01*
X124379Y82245D01*
X123698Y82409D01*
X123000Y82464D01*
X122993Y82463D01*
Y83537D01*
X123000Y83536D01*
X123698Y83591D01*
X124379Y83755D01*
X125026Y84023D01*
X125624Y84389D01*
X126156Y84844D01*
X126611Y85376D01*
X126977Y85974D01*
X127245Y86621D01*
X127409Y87302D01*
X127450Y88000D01*
X127409Y88698D01*
X127245Y89379D01*
X126977Y90026D01*
X126611Y90624D01*
X126156Y91156D01*
X125624Y91611D01*
X125026Y91977D01*
X124379Y92245D01*
X123698Y92409D01*
X123000Y92464D01*
X122993Y92463D01*
Y93537D01*
G37*
G36*
Y18250D02*X112993D01*
Y50923D01*
X114061Y50269D01*
X115319Y49748D01*
X116643Y49430D01*
X118000Y49323D01*
X119357Y49430D01*
X120681Y49748D01*
X121939Y50269D01*
X122993Y50915D01*
Y18250D01*
G37*
G36*
X116677Y95484D02*X116977Y95974D01*
X117245Y96621D01*
X117409Y97302D01*
X117450Y98000D01*
X117409Y98698D01*
X117245Y99379D01*
X117027Y99906D01*
X118621Y101500D01*
X120246D01*
X119844Y101156D01*
X119389Y100624D01*
X119023Y100026D01*
X118755Y99379D01*
X118591Y98698D01*
X118536Y98000D01*
X118591Y97302D01*
X118755Y96621D01*
X119023Y95974D01*
X119389Y95376D01*
X119844Y94844D01*
X120376Y94389D01*
X120974Y94023D01*
X121621Y93755D01*
X122302Y93591D01*
X122993Y93537D01*
Y92463D01*
X122302Y92409D01*
X121621Y92245D01*
X120974Y91977D01*
X120376Y91611D01*
X119844Y91156D01*
X119389Y90624D01*
X119023Y90026D01*
X118755Y89379D01*
X118591Y88698D01*
X118536Y88000D01*
X118591Y87302D01*
X118755Y86621D01*
X119023Y85974D01*
X119389Y85376D01*
X119844Y84844D01*
X120376Y84389D01*
X120974Y84023D01*
X121621Y83755D01*
X122302Y83591D01*
X122993Y83537D01*
Y82463D01*
X122302Y82409D01*
X121621Y82245D01*
X120974Y81977D01*
X120376Y81611D01*
X119844Y81156D01*
X119389Y80624D01*
X119023Y80026D01*
X118755Y79379D01*
X118591Y78698D01*
X118536Y78000D01*
X118591Y77302D01*
X118755Y76621D01*
X119023Y75974D01*
X119389Y75376D01*
X119844Y74844D01*
X120376Y74389D01*
X120974Y74023D01*
X121621Y73755D01*
X122302Y73591D01*
X122993Y73537D01*
Y65085D01*
X121939Y65731D01*
X120681Y66252D01*
X119357Y66570D01*
X118000Y66677D01*
X116677Y66573D01*
Y75575D01*
X116736Y75620D01*
X116791Y75677D01*
X116834Y75742D01*
X117023Y76088D01*
X117177Y76452D01*
X117298Y76829D01*
X117384Y77214D01*
X117437Y77605D01*
X117454Y78000D01*
X117437Y78395D01*
X117384Y78786D01*
X117298Y79171D01*
X117177Y79548D01*
X117023Y79912D01*
X116838Y80260D01*
X116793Y80326D01*
X116738Y80383D01*
X116677Y80429D01*
Y85484D01*
X116977Y85974D01*
X117245Y86621D01*
X117409Y87302D01*
X117450Y88000D01*
X117409Y88698D01*
X117245Y89379D01*
X116977Y90026D01*
X116677Y90516D01*
Y95484D01*
G37*
G36*
Y66573D02*X116643Y66570D01*
X115319Y66252D01*
X114061Y65731D01*
X112993Y65077D01*
Y73546D01*
X113000Y73546D01*
X113395Y73563D01*
X113786Y73616D01*
X114171Y73702D01*
X114548Y73823D01*
X114912Y73977D01*
X115260Y74162D01*
X115326Y74207D01*
X115383Y74262D01*
X115430Y74325D01*
X115468Y74395D01*
X115493Y74470D01*
X115507Y74548D01*
X115508Y74627D01*
X115497Y74706D01*
X115474Y74781D01*
X115440Y74853D01*
X115394Y74918D01*
X115339Y74975D01*
X115276Y75022D01*
X115206Y75059D01*
X115131Y75085D01*
X115053Y75099D01*
X114974Y75100D01*
X114895Y75089D01*
X114819Y75066D01*
X114749Y75030D01*
X114480Y74884D01*
X114199Y74765D01*
X113907Y74671D01*
X113609Y74604D01*
X113306Y74564D01*
X113000Y74550D01*
X112993Y74550D01*
Y81450D01*
X113000Y81450D01*
X113306Y81436D01*
X113609Y81396D01*
X113907Y81329D01*
X114199Y81235D01*
X114480Y81116D01*
X114751Y80973D01*
X114821Y80937D01*
X114896Y80914D01*
X114974Y80903D01*
X115053Y80904D01*
X115130Y80918D01*
X115204Y80944D01*
X115274Y80981D01*
X115337Y81028D01*
X115391Y81085D01*
X115437Y81149D01*
X115471Y81220D01*
X115494Y81295D01*
X115505Y81373D01*
X115504Y81452D01*
X115490Y81529D01*
X115464Y81604D01*
X115427Y81673D01*
X115380Y81736D01*
X115323Y81791D01*
X115258Y81834D01*
X114912Y82023D01*
X114548Y82177D01*
X114171Y82298D01*
X113786Y82384D01*
X113395Y82437D01*
X113000Y82454D01*
X112993Y82454D01*
Y83537D01*
X113000Y83536D01*
X113698Y83591D01*
X114379Y83755D01*
X115026Y84023D01*
X115624Y84389D01*
X116156Y84844D01*
X116611Y85376D01*
X116677Y85484D01*
Y80429D01*
X116675Y80430D01*
X116605Y80468D01*
X116530Y80493D01*
X116452Y80507D01*
X116373Y80508D01*
X116294Y80497D01*
X116219Y80474D01*
X116147Y80440D01*
X116082Y80394D01*
X116025Y80339D01*
X115978Y80276D01*
X115941Y80206D01*
X115915Y80131D01*
X115901Y80053D01*
X115900Y79974D01*
X115911Y79895D01*
X115934Y79819D01*
X115970Y79749D01*
X116116Y79480D01*
X116235Y79199D01*
X116329Y78907D01*
X116396Y78609D01*
X116436Y78306D01*
X116450Y78000D01*
X116436Y77694D01*
X116396Y77391D01*
X116329Y77093D01*
X116235Y76801D01*
X116116Y76520D01*
X115973Y76249D01*
X115937Y76179D01*
X115914Y76104D01*
X115903Y76026D01*
X115904Y75947D01*
X115918Y75870D01*
X115944Y75796D01*
X115981Y75726D01*
X116028Y75663D01*
X116085Y75609D01*
X116149Y75563D01*
X116220Y75529D01*
X116295Y75506D01*
X116373Y75495D01*
X116452Y75496D01*
X116529Y75510D01*
X116604Y75536D01*
X116673Y75573D01*
X116677Y75575D01*
Y66573D01*
G37*
G36*
X112993Y93537D02*X113000Y93536D01*
X113698Y93591D01*
X114379Y93755D01*
X115026Y94023D01*
X115624Y94389D01*
X116156Y94844D01*
X116611Y95376D01*
X116677Y95484D01*
Y90516D01*
X116611Y90624D01*
X116156Y91156D01*
X115624Y91611D01*
X115026Y91977D01*
X114379Y92245D01*
X113698Y92409D01*
X113000Y92464D01*
X112993Y92463D01*
Y93537D01*
G37*
G36*
X207993Y158007D02*X212735Y158014D01*
X212965Y158069D01*
X213183Y158159D01*
X213384Y158283D01*
X213564Y158436D01*
X213717Y158616D01*
X213841Y158817D01*
X213931Y159035D01*
X213986Y159265D01*
X214000Y159500D01*
X214000Y159526D01*
X214462Y159131D01*
X215268Y158637D01*
X215750Y158438D01*
Y150987D01*
X215265Y150986D01*
X215035Y150931D01*
X214817Y150841D01*
X214616Y150717D01*
X214436Y150564D01*
X214283Y150384D01*
X214159Y150183D01*
X214069Y149965D01*
X214014Y149735D01*
X214000Y149500D01*
X214014Y144265D01*
X214069Y144035D01*
X214159Y143817D01*
X214283Y143616D01*
X214436Y143436D01*
X214616Y143283D01*
X214817Y143159D01*
X215035Y143069D01*
X215265Y143014D01*
X215500Y143000D01*
X218000Y143007D01*
Y111012D01*
X217372Y110963D01*
X216760Y110816D01*
X216178Y110575D01*
X215642Y110246D01*
X215163Y109837D01*
X214754Y109358D01*
X214688Y109250D01*
X207993D01*
Y158007D01*
G37*
G36*
Y352000D02*X218000D01*
Y240028D01*
X216588Y239917D01*
X215210Y239586D01*
X213901Y239044D01*
X212694Y238304D01*
X211616Y237384D01*
X210696Y236306D01*
X210250Y235578D01*
Y250762D01*
X210985Y250764D01*
X211215Y250819D01*
X211433Y250909D01*
X211634Y251033D01*
X211814Y251186D01*
X211967Y251366D01*
X212091Y251567D01*
X212181Y251785D01*
X212236Y252015D01*
X212250Y252250D01*
X212236Y257985D01*
X212181Y258215D01*
X212091Y258433D01*
X211967Y258634D01*
X211814Y258814D01*
X211634Y258967D01*
X211433Y259091D01*
X211215Y259181D01*
X210985Y259236D01*
X210750Y259250D01*
X207993Y259243D01*
Y290737D01*
X208000Y290737D01*
X208667Y290789D01*
X209317Y290946D01*
X209935Y291202D01*
X210506Y291551D01*
X211014Y291986D01*
X211449Y292494D01*
X211798Y293065D01*
X212054Y293683D01*
X212211Y294333D01*
X212250Y295000D01*
X212211Y295667D01*
X212054Y296317D01*
X211798Y296935D01*
X211449Y297506D01*
X211014Y298014D01*
X210506Y298449D01*
X209935Y298798D01*
X209317Y299054D01*
X208667Y299211D01*
X208000Y299263D01*
X207993Y299263D01*
Y352000D01*
G37*
G36*
X183284D02*X207993D01*
Y299263D01*
X207333Y299211D01*
X206683Y299054D01*
X206065Y298798D01*
X205494Y298449D01*
X204986Y298014D01*
X204551Y297506D01*
X204202Y296935D01*
X203946Y296317D01*
X203789Y295667D01*
X203737Y295000D01*
X203789Y294333D01*
X203946Y293683D01*
X204202Y293065D01*
X204551Y292494D01*
X204986Y291986D01*
X205494Y291551D01*
X206065Y291202D01*
X206683Y290946D01*
X207333Y290789D01*
X207993Y290737D01*
Y259243D01*
X205015Y259236D01*
X204785Y259181D01*
X204567Y259091D01*
X204366Y258967D01*
X204186Y258814D01*
X204033Y258634D01*
X203909Y258433D01*
X203819Y258215D01*
X203764Y257985D01*
X203750Y257750D01*
X203764Y252015D01*
X203819Y251785D01*
X203909Y251567D01*
X204033Y251366D01*
X204186Y251186D01*
X204366Y251033D01*
X204567Y250909D01*
X204785Y250819D01*
X205015Y250764D01*
X205250Y250750D01*
X205750Y250751D01*
Y169990D01*
X203265Y169986D01*
X203035Y169931D01*
X202817Y169841D01*
X202616Y169717D01*
X202436Y169564D01*
X202283Y169384D01*
X202159Y169183D01*
X202069Y168965D01*
X202014Y168735D01*
X202000Y168500D01*
X202014Y159265D01*
X202069Y159035D01*
X202159Y158817D01*
X202283Y158616D01*
X202436Y158436D01*
X202616Y158283D01*
X202817Y158159D01*
X203035Y158069D01*
X203265Y158014D01*
X203500Y158000D01*
X207993Y158007D01*
Y109250D01*
X183284D01*
Y153869D01*
X183287Y153870D01*
X183355Y153909D01*
X183416Y153958D01*
X183469Y154017D01*
X183511Y154083D01*
X183674Y154408D01*
X183803Y154748D01*
X183901Y155098D01*
X183967Y155456D01*
X184000Y155818D01*
Y156182D01*
X183967Y156544D01*
X183901Y156902D01*
X183803Y157252D01*
X183674Y157592D01*
X183515Y157919D01*
X183472Y157985D01*
X183419Y158044D01*
X183357Y158094D01*
X183288Y158133D01*
X183284Y158135D01*
Y352000D01*
G37*
G36*
X180002D02*X183284D01*
Y158135D01*
X183214Y158161D01*
X183137Y158177D01*
X183058Y158181D01*
X182979Y158173D01*
X182903Y158152D01*
X182830Y158120D01*
X182764Y158077D01*
X182705Y158024D01*
X182656Y157962D01*
X182616Y157893D01*
X182588Y157819D01*
X182572Y157742D01*
X182568Y157663D01*
X182576Y157584D01*
X182597Y157507D01*
X182630Y157436D01*
X182753Y157193D01*
X182850Y156938D01*
X182923Y156676D01*
X182972Y156408D01*
X182997Y156136D01*
Y155864D01*
X182972Y155592D01*
X182923Y155324D01*
X182850Y155062D01*
X182753Y154807D01*
X182633Y154563D01*
X182600Y154491D01*
X182579Y154416D01*
X182571Y154337D01*
X182575Y154259D01*
X182591Y154182D01*
X182619Y154108D01*
X182658Y154040D01*
X182707Y153979D01*
X182766Y153926D01*
X182832Y153883D01*
X182904Y153851D01*
X182980Y153830D01*
X183058Y153822D01*
X183136Y153826D01*
X183213Y153842D01*
X183284Y153869D01*
Y109250D01*
X180002D01*
Y152000D01*
X180182D01*
X180544Y152033D01*
X180902Y152099D01*
X181252Y152197D01*
X181592Y152326D01*
X181919Y152485D01*
X181985Y152528D01*
X182044Y152581D01*
X182094Y152643D01*
X182133Y152712D01*
X182161Y152786D01*
X182177Y152863D01*
X182181Y152942D01*
X182173Y153021D01*
X182152Y153097D01*
X182120Y153170D01*
X182077Y153236D01*
X182024Y153295D01*
X181962Y153344D01*
X181893Y153384D01*
X181819Y153412D01*
X181742Y153428D01*
X181663Y153432D01*
X181584Y153424D01*
X181507Y153403D01*
X181436Y153370D01*
X181193Y153247D01*
X180938Y153150D01*
X180676Y153077D01*
X180408Y153028D01*
X180136Y153003D01*
X180002D01*
Y158997D01*
X180136D01*
X180408Y158972D01*
X180676Y158923D01*
X180938Y158850D01*
X181193Y158753D01*
X181437Y158633D01*
X181509Y158600D01*
X181584Y158579D01*
X181663Y158571D01*
X181741Y158575D01*
X181818Y158591D01*
X181892Y158619D01*
X181960Y158658D01*
X182021Y158707D01*
X182074Y158766D01*
X182117Y158832D01*
X182149Y158904D01*
X182170Y158980D01*
X182178Y159058D01*
X182174Y159136D01*
X182158Y159213D01*
X182130Y159287D01*
X182091Y159355D01*
X182042Y159416D01*
X181983Y159469D01*
X181917Y159511D01*
X181592Y159674D01*
X181252Y159803D01*
X180902Y159901D01*
X180544Y159967D01*
X180182Y160000D01*
X180002D01*
Y352000D01*
G37*
G36*
X176716D02*X180002D01*
Y160000D01*
X179818D01*
X179456Y159967D01*
X179098Y159901D01*
X178748Y159803D01*
X178408Y159674D01*
X178081Y159515D01*
X178015Y159472D01*
X177956Y159419D01*
X177906Y159357D01*
X177867Y159288D01*
X177839Y159214D01*
X177823Y159137D01*
X177819Y159058D01*
X177827Y158979D01*
X177848Y158903D01*
X177880Y158830D01*
X177923Y158764D01*
X177976Y158705D01*
X178038Y158656D01*
X178107Y158616D01*
X178181Y158588D01*
X178258Y158572D01*
X178337Y158568D01*
X178416Y158576D01*
X178493Y158597D01*
X178564Y158630D01*
X178807Y158753D01*
X179062Y158850D01*
X179324Y158923D01*
X179592Y158972D01*
X179864Y158997D01*
X180002D01*
Y153003D01*
X179864D01*
X179592Y153028D01*
X179324Y153077D01*
X179062Y153150D01*
X178807Y153247D01*
X178563Y153367D01*
X178491Y153400D01*
X178415Y153421D01*
X178337Y153429D01*
X178259Y153425D01*
X178182Y153409D01*
X178108Y153381D01*
X178040Y153342D01*
X177979Y153293D01*
X177926Y153234D01*
X177883Y153168D01*
X177851Y153096D01*
X177830Y153020D01*
X177822Y152942D01*
X177826Y152864D01*
X177842Y152787D01*
X177870Y152713D01*
X177909Y152645D01*
X177958Y152584D01*
X178017Y152531D01*
X178083Y152489D01*
X178408Y152326D01*
X178748Y152197D01*
X179098Y152099D01*
X179456Y152033D01*
X179818Y152000D01*
X180002D01*
Y109250D01*
X176716D01*
Y153865D01*
X176786Y153839D01*
X176863Y153823D01*
X176942Y153819D01*
X177021Y153827D01*
X177097Y153848D01*
X177170Y153880D01*
X177236Y153923D01*
X177295Y153976D01*
X177344Y154038D01*
X177384Y154107D01*
X177412Y154181D01*
X177428Y154258D01*
X177432Y154337D01*
X177424Y154416D01*
X177403Y154493D01*
X177370Y154564D01*
X177247Y154807D01*
X177150Y155062D01*
X177077Y155324D01*
X177028Y155592D01*
X177003Y155864D01*
Y156136D01*
X177028Y156408D01*
X177077Y156676D01*
X177150Y156938D01*
X177247Y157193D01*
X177367Y157437D01*
X177400Y157509D01*
X177421Y157585D01*
X177429Y157663D01*
X177425Y157741D01*
X177409Y157818D01*
X177381Y157892D01*
X177342Y157960D01*
X177293Y158021D01*
X177234Y158074D01*
X177168Y158117D01*
X177096Y158149D01*
X177020Y158170D01*
X176942Y158178D01*
X176864Y158174D01*
X176787Y158158D01*
X176716Y158131D01*
Y160283D01*
X176869Y160462D01*
X177363Y161268D01*
X177724Y162140D01*
X177944Y163058D01*
X178000Y164000D01*
X177944Y164942D01*
X177724Y165860D01*
X177363Y166732D01*
X176869Y167538D01*
X176716Y167717D01*
Y352000D01*
G37*
G36*
Y109250D02*X165312D01*
X165246Y109358D01*
X164837Y109837D01*
X164358Y110246D01*
X163822Y110575D01*
X163240Y110816D01*
X162628Y110963D01*
X162000Y111012D01*
Y143007D01*
X164735Y143014D01*
X164965Y143069D01*
X165183Y143159D01*
X165384Y143283D01*
X165564Y143436D01*
X165717Y143616D01*
X165841Y143817D01*
X165931Y144035D01*
X165986Y144265D01*
X166000Y144500D01*
X165986Y149735D01*
X165931Y149965D01*
X165841Y150183D01*
X165717Y150384D01*
X165564Y150564D01*
X165384Y150717D01*
X165183Y150841D01*
X164965Y150931D01*
X164735Y150986D01*
X164500Y151000D01*
X164250Y150999D01*
Y158438D01*
X164732Y158637D01*
X165538Y159131D01*
X166256Y159744D01*
X166869Y160462D01*
X167000Y160676D01*
X167131Y160462D01*
X167744Y159744D01*
X168462Y159131D01*
X169268Y158637D01*
X170140Y158276D01*
X171058Y158056D01*
X172000Y157981D01*
X172942Y158056D01*
X173860Y158276D01*
X174732Y158637D01*
X175538Y159131D01*
X176256Y159744D01*
X176716Y160283D01*
Y158131D01*
X176713Y158130D01*
X176645Y158091D01*
X176584Y158042D01*
X176531Y157983D01*
X176489Y157917D01*
X176326Y157592D01*
X176197Y157252D01*
X176099Y156902D01*
X176033Y156544D01*
X176000Y156182D01*
Y155818D01*
X176033Y155456D01*
X176099Y155098D01*
X176197Y154748D01*
X176326Y154408D01*
X176485Y154081D01*
X176528Y154015D01*
X176581Y153956D01*
X176643Y153906D01*
X176712Y153867D01*
X176716Y153865D01*
Y109250D01*
G37*
G36*
X162000Y352000D02*X176716D01*
Y167717D01*
X176256Y168256D01*
X175538Y168869D01*
X174732Y169363D01*
X173860Y169724D01*
X172942Y169944D01*
X172000Y170019D01*
X171058Y169944D01*
X170140Y169724D01*
X169268Y169363D01*
X168462Y168869D01*
X167744Y168256D01*
X167131Y167538D01*
X167000Y167324D01*
X166869Y167538D01*
X166256Y168256D01*
X165538Y168869D01*
X164732Y169363D01*
X163860Y169724D01*
X162942Y169944D01*
X162000Y170019D01*
Y221972D01*
X163412Y222083D01*
X164790Y222414D01*
X166099Y222956D01*
X167306Y223696D01*
X168384Y224616D01*
X169304Y225694D01*
X170044Y226901D01*
X170586Y228210D01*
X170917Y229588D01*
X171000Y231000D01*
X170917Y232412D01*
X170586Y233790D01*
X170044Y235099D01*
X169304Y236306D01*
X168384Y237384D01*
X167306Y238304D01*
X166099Y239044D01*
X164790Y239586D01*
X163412Y239917D01*
X162000Y240028D01*
Y352000D01*
G37*
G36*
Y170019D02*X161058Y169944D01*
X160140Y169724D01*
X159268Y169363D01*
X158462Y168869D01*
X157987Y168463D01*
X157986Y168735D01*
X157931Y168965D01*
X157841Y169183D01*
X157717Y169384D01*
X157564Y169564D01*
X157384Y169717D01*
X157183Y169841D01*
X156965Y169931D01*
X156735Y169986D01*
X156500Y170000D01*
X154250Y169997D01*
Y226422D01*
X154696Y225694D01*
X155616Y224616D01*
X156694Y223696D01*
X157901Y222956D01*
X159210Y222414D01*
X160588Y222083D01*
X162000Y221972D01*
Y170019D01*
G37*
G36*
X151993Y158007D02*X156735Y158014D01*
X156965Y158069D01*
X157183Y158159D01*
X157384Y158283D01*
X157564Y158436D01*
X157717Y158616D01*
X157841Y158817D01*
X157931Y159035D01*
X157986Y159265D01*
X158000Y159500D01*
X158000Y159526D01*
X158462Y159131D01*
X159268Y158637D01*
X159750Y158438D01*
Y150987D01*
X159265Y150986D01*
X159035Y150931D01*
X158817Y150841D01*
X158616Y150717D01*
X158436Y150564D01*
X158283Y150384D01*
X158159Y150183D01*
X158069Y149965D01*
X158014Y149735D01*
X158000Y149500D01*
X158014Y144265D01*
X158069Y144035D01*
X158159Y143817D01*
X158283Y143616D01*
X158436Y143436D01*
X158616Y143283D01*
X158817Y143159D01*
X159035Y143069D01*
X159265Y143014D01*
X159500Y143000D01*
X162000Y143007D01*
Y111012D01*
X161372Y110963D01*
X160760Y110816D01*
X160178Y110575D01*
X159642Y110246D01*
X159163Y109837D01*
X158754Y109358D01*
X158425Y108822D01*
X158184Y108240D01*
X158037Y107628D01*
X157988Y107000D01*
X158037Y106372D01*
X158067Y106249D01*
X154000Y102182D01*
X151993Y104189D01*
Y158007D01*
G37*
G36*
Y352000D02*X162000D01*
Y240028D01*
X160588Y239917D01*
X159210Y239586D01*
X157901Y239044D01*
X156694Y238304D01*
X155616Y237384D01*
X154696Y236306D01*
X154250Y235578D01*
Y250762D01*
X154985Y250764D01*
X155215Y250819D01*
X155433Y250909D01*
X155634Y251033D01*
X155814Y251186D01*
X155967Y251366D01*
X156091Y251567D01*
X156181Y251785D01*
X156236Y252015D01*
X156250Y252250D01*
X156236Y257985D01*
X156181Y258215D01*
X156091Y258433D01*
X155967Y258634D01*
X155814Y258814D01*
X155634Y258967D01*
X155433Y259091D01*
X155215Y259181D01*
X154985Y259236D01*
X154750Y259250D01*
X151993Y259243D01*
Y290737D01*
X152000Y290737D01*
X152667Y290789D01*
X153317Y290946D01*
X153935Y291202D01*
X154506Y291551D01*
X155014Y291986D01*
X155449Y292494D01*
X155798Y293065D01*
X156054Y293683D01*
X156211Y294333D01*
X156250Y295000D01*
X156211Y295667D01*
X156054Y296317D01*
X155798Y296935D01*
X155449Y297506D01*
X155014Y298014D01*
X154506Y298449D01*
X153935Y298798D01*
X153317Y299054D01*
X152667Y299211D01*
X152000Y299263D01*
X151993Y299263D01*
Y352000D01*
G37*
G36*
X131994D02*X151993D01*
Y299263D01*
X151333Y299211D01*
X150683Y299054D01*
X150065Y298798D01*
X149494Y298449D01*
X148986Y298014D01*
X148551Y297506D01*
X148202Y296935D01*
X147946Y296317D01*
X147789Y295667D01*
X147737Y295000D01*
X147789Y294333D01*
X147946Y293683D01*
X148202Y293065D01*
X148551Y292494D01*
X148986Y291986D01*
X149494Y291551D01*
X150065Y291202D01*
X150683Y290946D01*
X151333Y290789D01*
X151993Y290737D01*
Y259243D01*
X149015Y259236D01*
X148785Y259181D01*
X148567Y259091D01*
X148366Y258967D01*
X148186Y258814D01*
X148033Y258634D01*
X147909Y258433D01*
X147819Y258215D01*
X147764Y257985D01*
X147750Y257750D01*
X147764Y252015D01*
X147819Y251785D01*
X147909Y251567D01*
X148033Y251366D01*
X148186Y251186D01*
X148366Y251033D01*
X148567Y250909D01*
X148785Y250819D01*
X149015Y250764D01*
X149250Y250750D01*
X149750Y250751D01*
Y169990D01*
X147265Y169986D01*
X147035Y169931D01*
X146817Y169841D01*
X146616Y169717D01*
X146436Y169564D01*
X146283Y169384D01*
X146159Y169183D01*
X146069Y168965D01*
X146014Y168735D01*
X146000Y168500D01*
X146014Y159265D01*
X146069Y159035D01*
X146159Y158817D01*
X146283Y158616D01*
X146436Y158436D01*
X146616Y158283D01*
X146817Y158159D01*
X147035Y158069D01*
X147265Y158014D01*
X147500Y158000D01*
X151993Y158007D01*
Y104189D01*
X151653Y104529D01*
X151596Y104596D01*
X151327Y104826D01*
X151327Y104826D01*
X151212Y104896D01*
X151025Y105011D01*
X150793Y105107D01*
X150697Y105146D01*
X150353Y105229D01*
X150000Y105257D01*
X149912Y105250D01*
X135312D01*
X135246Y105358D01*
X134837Y105837D01*
X134358Y106246D01*
X133822Y106575D01*
X133240Y106816D01*
X132628Y106963D01*
X132000Y107012D01*
X131994Y107012D01*
Y108988D01*
X132000Y108988D01*
X132628Y109037D01*
X133240Y109184D01*
X133822Y109425D01*
X134358Y109754D01*
X134837Y110163D01*
X135246Y110642D01*
X135575Y111178D01*
X135816Y111760D01*
X135963Y112372D01*
X136000Y113000D01*
X135963Y113628D01*
X135816Y114240D01*
X135575Y114822D01*
X135246Y115358D01*
X134837Y115837D01*
X134358Y116246D01*
X133822Y116575D01*
X133240Y116816D01*
X132628Y116963D01*
X132000Y117012D01*
X131994Y117012D01*
Y309463D01*
X133181Y309748D01*
X134439Y310269D01*
X135600Y310980D01*
X136635Y311865D01*
X137520Y312900D01*
X138231Y314061D01*
X138752Y315319D01*
X139070Y316643D01*
X139150Y318000D01*
X139070Y319357D01*
X138752Y320681D01*
X138231Y321939D01*
X137520Y323100D01*
X136635Y324135D01*
X135600Y325020D01*
X134439Y325731D01*
X133181Y326252D01*
X131994Y326537D01*
Y352000D01*
G37*
G36*
Y107012D02*X131372Y106963D01*
X130760Y106816D01*
X130178Y106575D01*
X129642Y106246D01*
X129163Y105837D01*
X128754Y105358D01*
X128425Y104822D01*
X128292Y104500D01*
X125754D01*
X126156Y104844D01*
X126611Y105376D01*
X126977Y105974D01*
X127245Y106621D01*
X127409Y107302D01*
X127450Y108000D01*
X127409Y108698D01*
X127245Y109379D01*
X126977Y110026D01*
X126611Y110624D01*
X126156Y111156D01*
X125624Y111611D01*
X125026Y111977D01*
X124379Y112245D01*
X123698Y112409D01*
X123000Y112464D01*
X122993Y112463D01*
Y113537D01*
X123000Y113536D01*
X123698Y113591D01*
X124379Y113755D01*
X125026Y114023D01*
X125624Y114389D01*
X126156Y114844D01*
X126611Y115376D01*
X126977Y115974D01*
X127245Y116621D01*
X127409Y117302D01*
X127450Y118000D01*
X127409Y118698D01*
X127245Y119379D01*
X126977Y120026D01*
X126611Y120624D01*
X126156Y121156D01*
X125624Y121611D01*
X125026Y121977D01*
X124379Y122245D01*
X123698Y122409D01*
X123000Y122464D01*
X122993Y122463D01*
Y123537D01*
X123000Y123536D01*
X123698Y123591D01*
X124379Y123755D01*
X125026Y124023D01*
X125624Y124389D01*
X126156Y124844D01*
X126611Y125376D01*
X126977Y125974D01*
X127245Y126621D01*
X127409Y127302D01*
X127450Y128000D01*
X127409Y128698D01*
X127245Y129379D01*
X126977Y130026D01*
X126611Y130624D01*
X126156Y131156D01*
X125624Y131611D01*
X125026Y131977D01*
X124379Y132245D01*
X123698Y132409D01*
X123000Y132464D01*
X122993Y132463D01*
Y133537D01*
X123000Y133536D01*
X123698Y133591D01*
X124379Y133755D01*
X125026Y134023D01*
X125624Y134389D01*
X126156Y134844D01*
X126611Y135376D01*
X126977Y135974D01*
X127245Y136621D01*
X127409Y137302D01*
X127450Y138000D01*
X127409Y138698D01*
X127245Y139379D01*
X126977Y140026D01*
X126611Y140624D01*
X126156Y141156D01*
X125624Y141611D01*
X125026Y141977D01*
X124379Y142245D01*
X123698Y142409D01*
X123000Y142464D01*
X122993Y142463D01*
Y143537D01*
X123000Y143536D01*
X123698Y143591D01*
X124379Y143755D01*
X125026Y144023D01*
X125624Y144389D01*
X126156Y144844D01*
X126611Y145376D01*
X126977Y145974D01*
X127245Y146621D01*
X127409Y147302D01*
X127450Y148000D01*
X127409Y148698D01*
X127245Y149379D01*
X126977Y150026D01*
X126611Y150624D01*
X126156Y151156D01*
X125624Y151611D01*
X125026Y151977D01*
X124379Y152245D01*
X123698Y152409D01*
X123000Y152464D01*
X122993Y152463D01*
Y153537D01*
X123000Y153536D01*
X123698Y153591D01*
X124379Y153755D01*
X125026Y154023D01*
X125624Y154389D01*
X126156Y154844D01*
X126611Y155376D01*
X126977Y155974D01*
X127245Y156621D01*
X127409Y157302D01*
X127450Y158000D01*
X127409Y158698D01*
X127245Y159379D01*
X126977Y160026D01*
X126611Y160624D01*
X126156Y161156D01*
X125624Y161611D01*
X125026Y161977D01*
X124379Y162245D01*
X123698Y162409D01*
X123000Y162464D01*
X122993Y162463D01*
Y163537D01*
X123000Y163536D01*
X123698Y163591D01*
X124379Y163755D01*
X125026Y164023D01*
X125624Y164389D01*
X126156Y164844D01*
X126611Y165376D01*
X126977Y165974D01*
X127245Y166621D01*
X127409Y167302D01*
X127450Y168000D01*
X127409Y168698D01*
X127245Y169379D01*
X126977Y170026D01*
X126611Y170624D01*
X126156Y171156D01*
X125624Y171611D01*
X125026Y171977D01*
X124379Y172245D01*
X123698Y172409D01*
X123000Y172464D01*
X122993Y172463D01*
Y173537D01*
X123000Y173536D01*
X123698Y173591D01*
X124379Y173755D01*
X125026Y174023D01*
X125624Y174389D01*
X126156Y174844D01*
X126611Y175376D01*
X126977Y175974D01*
X127245Y176621D01*
X127409Y177302D01*
X127450Y178000D01*
X127409Y178698D01*
X127245Y179379D01*
X126977Y180026D01*
X126611Y180624D01*
X126156Y181156D01*
X125624Y181611D01*
X125026Y181977D01*
X124379Y182245D01*
X123698Y182409D01*
X123000Y182464D01*
X122993Y182463D01*
Y183537D01*
X123000Y183536D01*
X123698Y183591D01*
X124379Y183755D01*
X125026Y184023D01*
X125624Y184389D01*
X126156Y184844D01*
X126611Y185376D01*
X126977Y185974D01*
X127245Y186621D01*
X127409Y187302D01*
X127450Y188000D01*
X127409Y188698D01*
X127245Y189379D01*
X126977Y190026D01*
X126611Y190624D01*
X126156Y191156D01*
X125624Y191611D01*
X125026Y191977D01*
X124379Y192245D01*
X123698Y192409D01*
X123000Y192464D01*
X122993Y192463D01*
Y193537D01*
X123000Y193536D01*
X123698Y193591D01*
X124379Y193755D01*
X125026Y194023D01*
X125624Y194389D01*
X126156Y194844D01*
X126611Y195376D01*
X126977Y195974D01*
X127245Y196621D01*
X127409Y197302D01*
X127450Y198000D01*
X127409Y198698D01*
X127245Y199379D01*
X126977Y200026D01*
X126611Y200624D01*
X126156Y201156D01*
X125624Y201611D01*
X125026Y201977D01*
X124379Y202245D01*
X123698Y202409D01*
X123000Y202464D01*
X122993Y202463D01*
Y203537D01*
X123000Y203536D01*
X123698Y203591D01*
X124379Y203755D01*
X125026Y204023D01*
X125624Y204389D01*
X126156Y204844D01*
X126611Y205376D01*
X126977Y205974D01*
X127245Y206621D01*
X127409Y207302D01*
X127450Y208000D01*
X127409Y208698D01*
X127245Y209379D01*
X126977Y210026D01*
X126611Y210624D01*
X126156Y211156D01*
X125624Y211611D01*
X125026Y211977D01*
X124379Y212245D01*
X123698Y212409D01*
X123000Y212464D01*
X122993Y212463D01*
Y213537D01*
X123000Y213536D01*
X123698Y213591D01*
X124379Y213755D01*
X125026Y214023D01*
X125624Y214389D01*
X126156Y214844D01*
X126611Y215376D01*
X126977Y215974D01*
X127245Y216621D01*
X127409Y217302D01*
X127450Y218000D01*
X127409Y218698D01*
X127245Y219379D01*
X126977Y220026D01*
X126611Y220624D01*
X126156Y221156D01*
X125624Y221611D01*
X125026Y221977D01*
X124379Y222245D01*
X123698Y222409D01*
X123000Y222464D01*
X122993Y222463D01*
Y223537D01*
X123000Y223536D01*
X123698Y223591D01*
X124379Y223755D01*
X125026Y224023D01*
X125624Y224389D01*
X126156Y224844D01*
X126611Y225376D01*
X126977Y225974D01*
X127245Y226621D01*
X127409Y227302D01*
X127450Y228000D01*
X127409Y228698D01*
X127245Y229379D01*
X126977Y230026D01*
X126611Y230624D01*
X126156Y231156D01*
X125624Y231611D01*
X125026Y231977D01*
X124379Y232245D01*
X123698Y232409D01*
X123000Y232464D01*
X122993Y232463D01*
Y233537D01*
X123000Y233536D01*
X123698Y233591D01*
X124379Y233755D01*
X125026Y234023D01*
X125624Y234389D01*
X126156Y234844D01*
X126611Y235376D01*
X126977Y235974D01*
X127245Y236621D01*
X127409Y237302D01*
X127450Y238000D01*
X127409Y238698D01*
X127245Y239379D01*
X126977Y240026D01*
X126611Y240624D01*
X126156Y241156D01*
X125624Y241611D01*
X125026Y241977D01*
X124379Y242245D01*
X123698Y242409D01*
X123000Y242464D01*
X122993Y242463D01*
Y243537D01*
X123000Y243536D01*
X123698Y243591D01*
X124379Y243755D01*
X125026Y244023D01*
X125624Y244389D01*
X126156Y244844D01*
X126611Y245376D01*
X126977Y245974D01*
X127245Y246621D01*
X127409Y247302D01*
X127450Y248000D01*
X127409Y248698D01*
X127245Y249379D01*
X126977Y250026D01*
X126611Y250624D01*
X126156Y251156D01*
X125624Y251611D01*
X125026Y251977D01*
X124379Y252245D01*
X123698Y252409D01*
X123000Y252464D01*
X122993Y252463D01*
Y253537D01*
X123000Y253536D01*
X123698Y253591D01*
X124379Y253755D01*
X125026Y254023D01*
X125624Y254389D01*
X126156Y254844D01*
X126611Y255376D01*
X126977Y255974D01*
X127245Y256621D01*
X127409Y257302D01*
X127450Y258000D01*
X127409Y258698D01*
X127245Y259379D01*
X126977Y260026D01*
X126611Y260624D01*
X126156Y261156D01*
X125624Y261611D01*
X125026Y261977D01*
X124379Y262245D01*
X123698Y262409D01*
X123000Y262464D01*
X122993Y262463D01*
Y263537D01*
X123000Y263536D01*
X123698Y263591D01*
X124379Y263755D01*
X125026Y264023D01*
X125624Y264389D01*
X126156Y264844D01*
X126611Y265376D01*
X126977Y265974D01*
X127245Y266621D01*
X127409Y267302D01*
X127450Y268000D01*
X127409Y268698D01*
X127245Y269379D01*
X126977Y270026D01*
X126611Y270624D01*
X126156Y271156D01*
X125624Y271611D01*
X125026Y271977D01*
X124379Y272245D01*
X123698Y272409D01*
X123000Y272464D01*
X122993Y272463D01*
Y273537D01*
X123000Y273536D01*
X123698Y273591D01*
X124379Y273755D01*
X125026Y274023D01*
X125624Y274389D01*
X126156Y274844D01*
X126611Y275376D01*
X126977Y275974D01*
X127245Y276621D01*
X127409Y277302D01*
X127450Y278000D01*
X127409Y278698D01*
X127245Y279379D01*
X126977Y280026D01*
X126611Y280624D01*
X126156Y281156D01*
X125624Y281611D01*
X125026Y281977D01*
X124379Y282245D01*
X123698Y282409D01*
X123000Y282464D01*
X122993Y282463D01*
Y283537D01*
X123000Y283536D01*
X123698Y283591D01*
X124379Y283755D01*
X125026Y284023D01*
X125624Y284389D01*
X126156Y284844D01*
X126611Y285376D01*
X126977Y285974D01*
X127245Y286621D01*
X127409Y287302D01*
X127450Y288000D01*
X127409Y288698D01*
X127245Y289379D01*
X126977Y290026D01*
X126611Y290624D01*
X126156Y291156D01*
X125624Y291611D01*
X125026Y291977D01*
X124379Y292245D01*
X123698Y292409D01*
X123000Y292464D01*
X122993Y292463D01*
Y293537D01*
X123000Y293536D01*
X123698Y293591D01*
X124379Y293755D01*
X125026Y294023D01*
X125624Y294389D01*
X126156Y294844D01*
X126611Y295376D01*
X126977Y295974D01*
X127245Y296621D01*
X127409Y297302D01*
X127450Y298000D01*
X127409Y298698D01*
X127245Y299379D01*
X126977Y300026D01*
X126611Y300624D01*
X126156Y301156D01*
X125624Y301611D01*
X125026Y301977D01*
X124379Y302245D01*
X123698Y302409D01*
X123000Y302464D01*
X122993Y302463D01*
Y313695D01*
X123480Y312900D01*
X124365Y311865D01*
X125400Y310980D01*
X126561Y310269D01*
X127819Y309748D01*
X129143Y309430D01*
X130500Y309323D01*
X131857Y309430D01*
X131994Y309463D01*
Y117012D01*
X131372Y116963D01*
X130760Y116816D01*
X130178Y116575D01*
X129642Y116246D01*
X129163Y115837D01*
X128754Y115358D01*
X128425Y114822D01*
X128184Y114240D01*
X128037Y113628D01*
X127988Y113000D01*
X128037Y112372D01*
X128184Y111760D01*
X128425Y111178D01*
X128754Y110642D01*
X129163Y110163D01*
X129642Y109754D01*
X130178Y109425D01*
X130760Y109184D01*
X131372Y109037D01*
X131994Y108988D01*
Y107012D01*
G37*
G36*
X122993Y352000D02*X131994D01*
Y326537D01*
X131857Y326570D01*
X130500Y326677D01*
X129143Y326570D01*
X127819Y326252D01*
X126561Y325731D01*
X125400Y325020D01*
X124365Y324135D01*
X123480Y323100D01*
X122993Y322305D01*
Y352000D01*
G37*
G36*
Y172463D02*X122302Y172409D01*
X121621Y172245D01*
X121094Y172027D01*
X119102Y174019D01*
X119064Y174064D01*
X118884Y174217D01*
X118683Y174341D01*
X118465Y174431D01*
X118235Y174486D01*
X118000Y174505D01*
X117941Y174500D01*
X115754D01*
X116156Y174844D01*
X116611Y175376D01*
X116977Y175974D01*
X117245Y176621D01*
X117409Y177302D01*
X117450Y178000D01*
X117409Y178698D01*
X117245Y179379D01*
X116977Y180026D01*
X116611Y180624D01*
X116156Y181156D01*
X115624Y181611D01*
X115026Y181977D01*
X114379Y182245D01*
X113698Y182409D01*
X113000Y182464D01*
X112993Y182463D01*
Y183537D01*
X113000Y183536D01*
X113698Y183591D01*
X114379Y183755D01*
X115026Y184023D01*
X115624Y184389D01*
X116156Y184844D01*
X116611Y185376D01*
X116977Y185974D01*
X117245Y186621D01*
X117409Y187302D01*
X117450Y188000D01*
X117409Y188698D01*
X117245Y189379D01*
X116977Y190026D01*
X116611Y190624D01*
X116156Y191156D01*
X115754Y191500D01*
X117379D01*
X118973Y189906D01*
X118755Y189379D01*
X118591Y188698D01*
X118536Y188000D01*
X118591Y187302D01*
X118755Y186621D01*
X119023Y185974D01*
X119389Y185376D01*
X119844Y184844D01*
X120376Y184389D01*
X120974Y184023D01*
X121621Y183755D01*
X122302Y183591D01*
X122993Y183537D01*
Y182463D01*
X122302Y182409D01*
X121621Y182245D01*
X120974Y181977D01*
X120376Y181611D01*
X119844Y181156D01*
X119389Y180624D01*
X119023Y180026D01*
X118755Y179379D01*
X118591Y178698D01*
X118536Y178000D01*
X118591Y177302D01*
X118755Y176621D01*
X119023Y175974D01*
X119389Y175376D01*
X119844Y174844D01*
X120376Y174389D01*
X120974Y174023D01*
X121621Y173755D01*
X122302Y173591D01*
X122993Y173537D01*
Y172463D01*
G37*
G36*
Y112463D02*X122302Y112409D01*
X121621Y112245D01*
X120974Y111977D01*
X120376Y111611D01*
X119844Y111156D01*
X119389Y110624D01*
X119023Y110026D01*
X118755Y109379D01*
X118591Y108698D01*
X118536Y108000D01*
X118591Y107302D01*
X118755Y106621D01*
X119023Y105974D01*
X119389Y105376D01*
X119844Y104844D01*
X120246Y104500D01*
X118059D01*
X118000Y104505D01*
X117765Y104486D01*
X117535Y104431D01*
X117317Y104341D01*
X117116Y104217D01*
X117115Y104217D01*
X116936Y104064D01*
X116898Y104019D01*
X114906Y102027D01*
X114379Y102245D01*
X113698Y102409D01*
X113000Y102464D01*
X112993Y102463D01*
Y103537D01*
X113000Y103536D01*
X113698Y103591D01*
X114379Y103755D01*
X115026Y104023D01*
X115624Y104389D01*
X116156Y104844D01*
X116611Y105376D01*
X116977Y105974D01*
X117245Y106621D01*
X117409Y107302D01*
X117450Y108000D01*
X117409Y108698D01*
X117245Y109379D01*
X116977Y110026D01*
X116611Y110624D01*
X116156Y111156D01*
X115624Y111611D01*
X115026Y111977D01*
X114379Y112245D01*
X113698Y112409D01*
X113000Y112464D01*
X112993Y112463D01*
Y113537D01*
X113000Y113536D01*
X113698Y113591D01*
X114379Y113755D01*
X115026Y114023D01*
X115624Y114389D01*
X116156Y114844D01*
X116611Y115376D01*
X116977Y115974D01*
X117245Y116621D01*
X117409Y117302D01*
X117450Y118000D01*
X117409Y118698D01*
X117245Y119379D01*
X116977Y120026D01*
X116611Y120624D01*
X116156Y121156D01*
X115624Y121611D01*
X115026Y121977D01*
X114379Y122245D01*
X113698Y122409D01*
X113000Y122464D01*
X112993Y122463D01*
Y123537D01*
X113000Y123536D01*
X113698Y123591D01*
X114379Y123755D01*
X115026Y124023D01*
X115624Y124389D01*
X116156Y124844D01*
X116611Y125376D01*
X116977Y125974D01*
X117245Y126621D01*
X117409Y127302D01*
X117450Y128000D01*
X117409Y128698D01*
X117245Y129379D01*
X116977Y130026D01*
X116611Y130624D01*
X116156Y131156D01*
X115624Y131611D01*
X115026Y131977D01*
X114379Y132245D01*
X113698Y132409D01*
X113000Y132464D01*
X112993Y132463D01*
Y133537D01*
X113000Y133536D01*
X113698Y133591D01*
X114379Y133755D01*
X115026Y134023D01*
X115624Y134389D01*
X116156Y134844D01*
X116611Y135376D01*
X116977Y135974D01*
X117245Y136621D01*
X117409Y137302D01*
X117450Y138000D01*
X117409Y138698D01*
X117245Y139379D01*
X116977Y140026D01*
X116611Y140624D01*
X116156Y141156D01*
X115624Y141611D01*
X115026Y141977D01*
X114379Y142245D01*
X113698Y142409D01*
X113000Y142464D01*
X112993Y142463D01*
Y143537D01*
X113000Y143536D01*
X113698Y143591D01*
X114379Y143755D01*
X115026Y144023D01*
X115624Y144389D01*
X116156Y144844D01*
X116611Y145376D01*
X116977Y145974D01*
X117245Y146621D01*
X117409Y147302D01*
X117450Y148000D01*
X117409Y148698D01*
X117245Y149379D01*
X116977Y150026D01*
X116611Y150624D01*
X116156Y151156D01*
X115624Y151611D01*
X115026Y151977D01*
X114379Y152245D01*
X113698Y152409D01*
X113000Y152464D01*
X112993Y152463D01*
Y153537D01*
X113000Y153536D01*
X113698Y153591D01*
X114379Y153755D01*
X115026Y154023D01*
X115624Y154389D01*
X116156Y154844D01*
X116611Y155376D01*
X116977Y155974D01*
X117245Y156621D01*
X117409Y157302D01*
X117450Y158000D01*
X117409Y158698D01*
X117245Y159379D01*
X116977Y160026D01*
X116611Y160624D01*
X116156Y161156D01*
X115624Y161611D01*
X115026Y161977D01*
X114379Y162245D01*
X113698Y162409D01*
X113000Y162464D01*
X112993Y162463D01*
Y163537D01*
X113000Y163536D01*
X113698Y163591D01*
X114379Y163755D01*
X115026Y164023D01*
X115624Y164389D01*
X116156Y164844D01*
X116611Y165376D01*
X116977Y165974D01*
X117245Y166621D01*
X117409Y167302D01*
X117450Y168000D01*
X117409Y168698D01*
X117245Y169379D01*
X116977Y170026D01*
X116611Y170624D01*
X116156Y171156D01*
X115754Y171500D01*
X117379D01*
X118973Y169906D01*
X118755Y169379D01*
X118591Y168698D01*
X118536Y168000D01*
X118591Y167302D01*
X118755Y166621D01*
X119023Y165974D01*
X119389Y165376D01*
X119844Y164844D01*
X120376Y164389D01*
X120974Y164023D01*
X121621Y163755D01*
X122302Y163591D01*
X122993Y163537D01*
Y162463D01*
X122302Y162409D01*
X121621Y162245D01*
X120974Y161977D01*
X120376Y161611D01*
X119844Y161156D01*
X119389Y160624D01*
X119023Y160026D01*
X118755Y159379D01*
X118591Y158698D01*
X118536Y158000D01*
X118591Y157302D01*
X118755Y156621D01*
X119023Y155974D01*
X119389Y155376D01*
X119844Y154844D01*
X120376Y154389D01*
X120974Y154023D01*
X121621Y153755D01*
X122302Y153591D01*
X122993Y153537D01*
Y152463D01*
X122302Y152409D01*
X121621Y152245D01*
X120974Y151977D01*
X120376Y151611D01*
X119844Y151156D01*
X119389Y150624D01*
X119023Y150026D01*
X118755Y149379D01*
X118591Y148698D01*
X118536Y148000D01*
X118591Y147302D01*
X118755Y146621D01*
X119023Y145974D01*
X119389Y145376D01*
X119844Y144844D01*
X120376Y144389D01*
X120974Y144023D01*
X121621Y143755D01*
X122302Y143591D01*
X122993Y143537D01*
Y142463D01*
X122302Y142409D01*
X121621Y142245D01*
X120974Y141977D01*
X120376Y141611D01*
X119844Y141156D01*
X119389Y140624D01*
X119023Y140026D01*
X118755Y139379D01*
X118591Y138698D01*
X118536Y138000D01*
X118591Y137302D01*
X118755Y136621D01*
X119023Y135974D01*
X119389Y135376D01*
X119844Y134844D01*
X120376Y134389D01*
X120974Y134023D01*
X121621Y133755D01*
X122302Y133591D01*
X122993Y133537D01*
Y132463D01*
X122302Y132409D01*
X121621Y132245D01*
X120974Y131977D01*
X120376Y131611D01*
X119844Y131156D01*
X119389Y130624D01*
X119023Y130026D01*
X118755Y129379D01*
X118591Y128698D01*
X118536Y128000D01*
X118591Y127302D01*
X118755Y126621D01*
X119023Y125974D01*
X119389Y125376D01*
X119844Y124844D01*
X120376Y124389D01*
X120974Y124023D01*
X121621Y123755D01*
X122302Y123591D01*
X122993Y123537D01*
Y122463D01*
X122302Y122409D01*
X121621Y122245D01*
X120974Y121977D01*
X120376Y121611D01*
X119844Y121156D01*
X119389Y120624D01*
X119023Y120026D01*
X118755Y119379D01*
X118591Y118698D01*
X118536Y118000D01*
X118591Y117302D01*
X118755Y116621D01*
X119023Y115974D01*
X119389Y115376D01*
X119844Y114844D01*
X120376Y114389D01*
X120974Y114023D01*
X121621Y113755D01*
X122302Y113591D01*
X122993Y113537D01*
Y112463D01*
G37*
G36*
X112993Y352000D02*X122993D01*
Y322305D01*
X122769Y321939D01*
X122248Y320681D01*
X121930Y319357D01*
X121823Y318000D01*
X121930Y316643D01*
X122248Y315319D01*
X122769Y314061D01*
X122993Y313695D01*
Y302463D01*
X122302Y302409D01*
X121621Y302245D01*
X120974Y301977D01*
X120376Y301611D01*
X119844Y301156D01*
X119389Y300624D01*
X119023Y300026D01*
X118755Y299379D01*
X118591Y298698D01*
X118536Y298000D01*
X118591Y297302D01*
X118755Y296621D01*
X119023Y295974D01*
X119389Y295376D01*
X119844Y294844D01*
X120376Y294389D01*
X120974Y294023D01*
X121621Y293755D01*
X122302Y293591D01*
X122993Y293537D01*
Y292463D01*
X122302Y292409D01*
X121621Y292245D01*
X120974Y291977D01*
X120376Y291611D01*
X119844Y291156D01*
X119389Y290624D01*
X119023Y290026D01*
X118755Y289379D01*
X118591Y288698D01*
X118536Y288000D01*
X118591Y287302D01*
X118755Y286621D01*
X119023Y285974D01*
X119389Y285376D01*
X119844Y284844D01*
X120376Y284389D01*
X120974Y284023D01*
X121621Y283755D01*
X122302Y283591D01*
X122993Y283537D01*
Y282463D01*
X122302Y282409D01*
X121621Y282245D01*
X120974Y281977D01*
X120376Y281611D01*
X119844Y281156D01*
X119389Y280624D01*
X119023Y280026D01*
X118755Y279379D01*
X118591Y278698D01*
X118536Y278000D01*
X118591Y277302D01*
X118755Y276621D01*
X119023Y275974D01*
X119389Y275376D01*
X119844Y274844D01*
X120376Y274389D01*
X120974Y274023D01*
X121621Y273755D01*
X122302Y273591D01*
X122993Y273537D01*
Y272463D01*
X122302Y272409D01*
X121621Y272245D01*
X120974Y271977D01*
X120376Y271611D01*
X119844Y271156D01*
X119389Y270624D01*
X119023Y270026D01*
X118755Y269379D01*
X118591Y268698D01*
X118536Y268000D01*
X118591Y267302D01*
X118755Y266621D01*
X119023Y265974D01*
X119389Y265376D01*
X119844Y264844D01*
X120376Y264389D01*
X120974Y264023D01*
X121621Y263755D01*
X122302Y263591D01*
X122993Y263537D01*
Y262463D01*
X122302Y262409D01*
X121621Y262245D01*
X120974Y261977D01*
X120376Y261611D01*
X119844Y261156D01*
X119389Y260624D01*
X119023Y260026D01*
X118755Y259379D01*
X118591Y258698D01*
X118536Y258000D01*
X118591Y257302D01*
X118755Y256621D01*
X119023Y255974D01*
X119389Y255376D01*
X119844Y254844D01*
X120376Y254389D01*
X120974Y254023D01*
X121621Y253755D01*
X122302Y253591D01*
X122993Y253537D01*
Y252463D01*
X122302Y252409D01*
X121621Y252245D01*
X120974Y251977D01*
X120376Y251611D01*
X119844Y251156D01*
X119389Y250624D01*
X119023Y250026D01*
X118755Y249379D01*
X118591Y248698D01*
X118536Y248000D01*
X118591Y247302D01*
X118755Y246621D01*
X119023Y245974D01*
X119389Y245376D01*
X119844Y244844D01*
X120376Y244389D01*
X120974Y244023D01*
X121621Y243755D01*
X122302Y243591D01*
X122993Y243537D01*
Y242463D01*
X122302Y242409D01*
X121621Y242245D01*
X120974Y241977D01*
X120376Y241611D01*
X119844Y241156D01*
X119389Y240624D01*
X119023Y240026D01*
X118755Y239379D01*
X118591Y238698D01*
X118536Y238000D01*
X118591Y237302D01*
X118755Y236621D01*
X119023Y235974D01*
X119389Y235376D01*
X119844Y234844D01*
X120376Y234389D01*
X120974Y234023D01*
X121621Y233755D01*
X122302Y233591D01*
X122993Y233537D01*
Y232463D01*
X122302Y232409D01*
X121621Y232245D01*
X120974Y231977D01*
X120376Y231611D01*
X119844Y231156D01*
X119389Y230624D01*
X119023Y230026D01*
X118755Y229379D01*
X118591Y228698D01*
X118536Y228000D01*
X118591Y227302D01*
X118755Y226621D01*
X119023Y225974D01*
X119389Y225376D01*
X119844Y224844D01*
X120376Y224389D01*
X120974Y224023D01*
X121621Y223755D01*
X122302Y223591D01*
X122993Y223537D01*
Y222463D01*
X122302Y222409D01*
X121621Y222245D01*
X120974Y221977D01*
X120376Y221611D01*
X119844Y221156D01*
X119389Y220624D01*
X119023Y220026D01*
X118755Y219379D01*
X118591Y218698D01*
X118536Y218000D01*
X118591Y217302D01*
X118755Y216621D01*
X119023Y215974D01*
X119389Y215376D01*
X119844Y214844D01*
X120376Y214389D01*
X120974Y214023D01*
X121621Y213755D01*
X122302Y213591D01*
X122993Y213537D01*
Y212463D01*
X122302Y212409D01*
X121621Y212245D01*
X120974Y211977D01*
X120376Y211611D01*
X119844Y211156D01*
X119389Y210624D01*
X119023Y210026D01*
X118755Y209379D01*
X118591Y208698D01*
X118536Y208000D01*
X118591Y207302D01*
X118755Y206621D01*
X119023Y205974D01*
X119389Y205376D01*
X119844Y204844D01*
X120376Y204389D01*
X120974Y204023D01*
X121621Y203755D01*
X122302Y203591D01*
X122993Y203537D01*
Y202463D01*
X122302Y202409D01*
X121621Y202245D01*
X120974Y201977D01*
X120376Y201611D01*
X119844Y201156D01*
X119389Y200624D01*
X119023Y200026D01*
X118755Y199379D01*
X118591Y198698D01*
X118536Y198000D01*
X118591Y197302D01*
X118755Y196621D01*
X119023Y195974D01*
X119389Y195376D01*
X119844Y194844D01*
X120376Y194389D01*
X120974Y194023D01*
X121621Y193755D01*
X122302Y193591D01*
X122993Y193537D01*
Y192463D01*
X122302Y192409D01*
X121621Y192245D01*
X121094Y192027D01*
X119102Y194019D01*
X119064Y194064D01*
X118884Y194217D01*
X118683Y194341D01*
X118465Y194431D01*
X118235Y194486D01*
X118000Y194505D01*
X117941Y194500D01*
X115754D01*
X116156Y194844D01*
X116611Y195376D01*
X116977Y195974D01*
X117245Y196621D01*
X117409Y197302D01*
X117450Y198000D01*
X117409Y198698D01*
X117245Y199379D01*
X116977Y200026D01*
X116611Y200624D01*
X116156Y201156D01*
X115624Y201611D01*
X115026Y201977D01*
X114379Y202245D01*
X113698Y202409D01*
X113000Y202464D01*
X112993Y202463D01*
Y203537D01*
X113000Y203536D01*
X113698Y203591D01*
X114379Y203755D01*
X115026Y204023D01*
X115624Y204389D01*
X116156Y204844D01*
X116611Y205376D01*
X116977Y205974D01*
X117245Y206621D01*
X117409Y207302D01*
X117450Y208000D01*
X117409Y208698D01*
X117245Y209379D01*
X116977Y210026D01*
X116611Y210624D01*
X116156Y211156D01*
X115624Y211611D01*
X115026Y211977D01*
X114379Y212245D01*
X113698Y212409D01*
X113000Y212464D01*
X112993Y212463D01*
Y213537D01*
X113000Y213536D01*
X113698Y213591D01*
X114379Y213755D01*
X115026Y214023D01*
X115624Y214389D01*
X116156Y214844D01*
X116611Y215376D01*
X116977Y215974D01*
X117245Y216621D01*
X117409Y217302D01*
X117450Y218000D01*
X117409Y218698D01*
X117245Y219379D01*
X116977Y220026D01*
X116611Y220624D01*
X116156Y221156D01*
X115624Y221611D01*
X115026Y221977D01*
X114379Y222245D01*
X113698Y222409D01*
X113000Y222464D01*
X112993Y222463D01*
Y223537D01*
X113000Y223536D01*
X113698Y223591D01*
X114379Y223755D01*
X115026Y224023D01*
X115624Y224389D01*
X116156Y224844D01*
X116611Y225376D01*
X116977Y225974D01*
X117245Y226621D01*
X117409Y227302D01*
X117450Y228000D01*
X117409Y228698D01*
X117245Y229379D01*
X116977Y230026D01*
X116611Y230624D01*
X116156Y231156D01*
X115624Y231611D01*
X115026Y231977D01*
X114379Y232245D01*
X113698Y232409D01*
X113000Y232464D01*
X112993Y232463D01*
Y233537D01*
X113000Y233536D01*
X113698Y233591D01*
X114379Y233755D01*
X115026Y234023D01*
X115624Y234389D01*
X116156Y234844D01*
X116611Y235376D01*
X116977Y235974D01*
X117245Y236621D01*
X117409Y237302D01*
X117450Y238000D01*
X117409Y238698D01*
X117245Y239379D01*
X116977Y240026D01*
X116611Y240624D01*
X116156Y241156D01*
X115624Y241611D01*
X115026Y241977D01*
X114379Y242245D01*
X113698Y242409D01*
X113000Y242464D01*
X112993Y242463D01*
Y243537D01*
X113000Y243536D01*
X113698Y243591D01*
X114379Y243755D01*
X115026Y244023D01*
X115624Y244389D01*
X116156Y244844D01*
X116611Y245376D01*
X116977Y245974D01*
X117245Y246621D01*
X117409Y247302D01*
X117450Y248000D01*
X117409Y248698D01*
X117245Y249379D01*
X116977Y250026D01*
X116611Y250624D01*
X116156Y251156D01*
X115624Y251611D01*
X115026Y251977D01*
X114379Y252245D01*
X113698Y252409D01*
X113000Y252464D01*
X112993Y252463D01*
Y253537D01*
X113000Y253536D01*
X113698Y253591D01*
X114379Y253755D01*
X115026Y254023D01*
X115624Y254389D01*
X116156Y254844D01*
X116611Y255376D01*
X116977Y255974D01*
X117245Y256621D01*
X117409Y257302D01*
X117450Y258000D01*
X117409Y258698D01*
X117245Y259379D01*
X116977Y260026D01*
X116611Y260624D01*
X116156Y261156D01*
X115624Y261611D01*
X115026Y261977D01*
X114379Y262245D01*
X113698Y262409D01*
X113000Y262464D01*
X112993Y262463D01*
Y263537D01*
X113000Y263536D01*
X113698Y263591D01*
X114379Y263755D01*
X115026Y264023D01*
X115624Y264389D01*
X116156Y264844D01*
X116611Y265376D01*
X116977Y265974D01*
X117245Y266621D01*
X117409Y267302D01*
X117450Y268000D01*
X117409Y268698D01*
X117245Y269379D01*
X116977Y270026D01*
X116611Y270624D01*
X116156Y271156D01*
X115624Y271611D01*
X115026Y271977D01*
X114379Y272245D01*
X113698Y272409D01*
X113000Y272464D01*
X112993Y272463D01*
Y273537D01*
X113000Y273536D01*
X113698Y273591D01*
X114379Y273755D01*
X115026Y274023D01*
X115624Y274389D01*
X116156Y274844D01*
X116611Y275376D01*
X116977Y275974D01*
X117245Y276621D01*
X117409Y277302D01*
X117450Y278000D01*
X117409Y278698D01*
X117245Y279379D01*
X116977Y280026D01*
X116611Y280624D01*
X116156Y281156D01*
X115624Y281611D01*
X115026Y281977D01*
X114379Y282245D01*
X113698Y282409D01*
X113000Y282464D01*
X112993Y282463D01*
Y283537D01*
X113000Y283536D01*
X113698Y283591D01*
X114379Y283755D01*
X115026Y284023D01*
X115624Y284389D01*
X116156Y284844D01*
X116611Y285376D01*
X116977Y285974D01*
X117245Y286621D01*
X117409Y287302D01*
X117450Y288000D01*
X117409Y288698D01*
X117245Y289379D01*
X116977Y290026D01*
X116611Y290624D01*
X116156Y291156D01*
X115624Y291611D01*
X115026Y291977D01*
X114379Y292245D01*
X113698Y292409D01*
X113000Y292464D01*
X112993Y292463D01*
Y293537D01*
X113000Y293536D01*
X113698Y293591D01*
X114379Y293755D01*
X115026Y294023D01*
X115624Y294389D01*
X116156Y294844D01*
X116611Y295376D01*
X116977Y295974D01*
X117245Y296621D01*
X117409Y297302D01*
X117450Y298000D01*
X117409Y298698D01*
X117245Y299379D01*
X116977Y300026D01*
X116611Y300624D01*
X116156Y301156D01*
X115624Y301611D01*
X115026Y301977D01*
X114379Y302245D01*
X113698Y302409D01*
X113000Y302464D01*
X112993Y302463D01*
Y352000D01*
G37*
G36*
Y182463D02*X112302Y182409D01*
X111621Y182245D01*
X110974Y181977D01*
X110376Y181611D01*
X109844Y181156D01*
X109389Y180624D01*
X109023Y180026D01*
X108755Y179379D01*
X108591Y178698D01*
X108536Y178000D01*
X108591Y177302D01*
X108755Y176621D01*
X109023Y175974D01*
X109389Y175376D01*
X109844Y174844D01*
X110246Y174500D01*
X108059D01*
X108000Y174505D01*
X107765Y174486D01*
X107535Y174431D01*
X107317Y174341D01*
X107116Y174217D01*
X107115Y174217D01*
X106936Y174064D01*
X106898Y174019D01*
X101981Y169102D01*
X101936Y169064D01*
X101783Y168884D01*
X101659Y168683D01*
X101569Y168465D01*
X101514Y168235D01*
X101514Y168235D01*
X101495Y168000D01*
X101500Y167941D01*
Y100621D01*
X98561Y97683D01*
X98284Y97798D01*
Y100202D01*
X98822Y100425D01*
X99358Y100754D01*
X99837Y101163D01*
X100246Y101642D01*
X100575Y102178D01*
X100816Y102760D01*
X100963Y103372D01*
X101000Y104000D01*
X100963Y104628D01*
X100816Y105240D01*
X100575Y105822D01*
X100246Y106358D01*
X99837Y106837D01*
X99358Y107246D01*
X98822Y107575D01*
X98284Y107798D01*
Y110202D01*
X98822Y110425D01*
X99358Y110754D01*
X99837Y111163D01*
X100246Y111642D01*
X100575Y112178D01*
X100816Y112760D01*
X100963Y113372D01*
X101000Y114000D01*
X100963Y114628D01*
X100816Y115240D01*
X100575Y115822D01*
X100246Y116358D01*
X99837Y116837D01*
X99358Y117246D01*
X98822Y117575D01*
X98284Y117798D01*
Y120202D01*
X98822Y120425D01*
X99358Y120754D01*
X99837Y121163D01*
X100246Y121642D01*
X100575Y122178D01*
X100816Y122760D01*
X100963Y123372D01*
X101000Y124000D01*
X100963Y124628D01*
X100816Y125240D01*
X100575Y125822D01*
X100246Y126358D01*
X99837Y126837D01*
X99358Y127246D01*
X98822Y127575D01*
X98284Y127798D01*
Y162869D01*
X98287Y162870D01*
X98355Y162909D01*
X98416Y162958D01*
X98469Y163017D01*
X98511Y163083D01*
X98674Y163408D01*
X98803Y163748D01*
X98901Y164098D01*
X98967Y164456D01*
X99000Y164818D01*
Y165182D01*
X98967Y165544D01*
X98901Y165902D01*
X98803Y166252D01*
X98674Y166592D01*
X98515Y166919D01*
X98472Y166985D01*
X98419Y167044D01*
X98357Y167094D01*
X98288Y167133D01*
X98284Y167135D01*
Y182162D01*
X107621Y191500D01*
X110246D01*
X109844Y191156D01*
X109389Y190624D01*
X109023Y190026D01*
X108755Y189379D01*
X108591Y188698D01*
X108536Y188000D01*
X108591Y187302D01*
X108755Y186621D01*
X109023Y185974D01*
X109389Y185376D01*
X109844Y184844D01*
X110376Y184389D01*
X110974Y184023D01*
X111621Y183755D01*
X112302Y183591D01*
X112993Y183537D01*
Y182463D01*
G37*
G36*
X109323Y115484D02*X109389Y115376D01*
X109844Y114844D01*
X110376Y114389D01*
X110974Y114023D01*
X111621Y113755D01*
X112302Y113591D01*
X112993Y113537D01*
Y112463D01*
X112302Y112409D01*
X111621Y112245D01*
X110974Y111977D01*
X110376Y111611D01*
X109844Y111156D01*
X109389Y110624D01*
X109323Y110516D01*
Y115484D01*
G37*
G36*
Y125484D02*X109389Y125376D01*
X109844Y124844D01*
X110376Y124389D01*
X110974Y124023D01*
X111621Y123755D01*
X112302Y123591D01*
X112993Y123537D01*
Y122463D01*
X112302Y122409D01*
X111621Y122245D01*
X110974Y121977D01*
X110376Y121611D01*
X109844Y121156D01*
X109389Y120624D01*
X109323Y120516D01*
Y125484D01*
G37*
G36*
Y135484D02*X109389Y135376D01*
X109844Y134844D01*
X110376Y134389D01*
X110974Y134023D01*
X111621Y133755D01*
X112302Y133591D01*
X112993Y133537D01*
Y132463D01*
X112302Y132409D01*
X111621Y132245D01*
X110974Y131977D01*
X110376Y131611D01*
X109844Y131156D01*
X109389Y130624D01*
X109323Y130516D01*
Y135484D01*
G37*
G36*
Y145484D02*X109389Y145376D01*
X109844Y144844D01*
X110376Y144389D01*
X110974Y144023D01*
X111621Y143755D01*
X112302Y143591D01*
X112993Y143537D01*
Y142463D01*
X112302Y142409D01*
X111621Y142245D01*
X110974Y141977D01*
X110376Y141611D01*
X109844Y141156D01*
X109389Y140624D01*
X109323Y140516D01*
Y145484D01*
G37*
G36*
Y155484D02*X109389Y155376D01*
X109844Y154844D01*
X110376Y154389D01*
X110974Y154023D01*
X111621Y153755D01*
X112302Y153591D01*
X112993Y153537D01*
Y152463D01*
X112302Y152409D01*
X111621Y152245D01*
X110974Y151977D01*
X110376Y151611D01*
X109844Y151156D01*
X109389Y150624D01*
X109323Y150516D01*
Y155484D01*
G37*
G36*
Y163202D02*X110459Y164338D01*
X110974Y164023D01*
X111621Y163755D01*
X112302Y163591D01*
X112993Y163537D01*
Y162463D01*
X112302Y162409D01*
X111621Y162245D01*
X110974Y161977D01*
X110376Y161611D01*
X109844Y161156D01*
X109389Y160624D01*
X109323Y160516D01*
Y163202D01*
G37*
G36*
Y85484D02*X109389Y85376D01*
X109844Y84844D01*
X110376Y84389D01*
X110974Y84023D01*
X111621Y83755D01*
X112302Y83591D01*
X112993Y83537D01*
Y82454D01*
X112605Y82437D01*
X112214Y82384D01*
X111829Y82298D01*
X111452Y82177D01*
X111088Y82023D01*
X110740Y81838D01*
X110674Y81793D01*
X110617Y81738D01*
X110570Y81675D01*
X110532Y81605D01*
X110507Y81530D01*
X110493Y81452D01*
X110492Y81373D01*
X110503Y81294D01*
X110526Y81219D01*
X110560Y81147D01*
X110606Y81082D01*
X110661Y81025D01*
X110724Y80978D01*
X110794Y80941D01*
X110869Y80915D01*
X110947Y80901D01*
X111026Y80900D01*
X111105Y80911D01*
X111181Y80934D01*
X111251Y80970D01*
X111520Y81116D01*
X111801Y81235D01*
X112093Y81329D01*
X112391Y81396D01*
X112694Y81436D01*
X112993Y81450D01*
Y74550D01*
X112694Y74564D01*
X112391Y74604D01*
X112093Y74671D01*
X111801Y74765D01*
X111520Y74884D01*
X111249Y75027D01*
X111179Y75063D01*
X111104Y75086D01*
X111026Y75097D01*
X110947Y75096D01*
X110870Y75082D01*
X110796Y75056D01*
X110726Y75019D01*
X110663Y74972D01*
X110609Y74915D01*
X110563Y74851D01*
X110529Y74780D01*
X110506Y74705D01*
X110495Y74627D01*
X110496Y74548D01*
X110510Y74471D01*
X110536Y74396D01*
X110573Y74327D01*
X110620Y74264D01*
X110677Y74209D01*
X110742Y74166D01*
X111088Y73977D01*
X111452Y73823D01*
X111829Y73702D01*
X112214Y73616D01*
X112605Y73563D01*
X112993Y73546D01*
Y65077D01*
X112900Y65020D01*
X111865Y64135D01*
X110980Y63100D01*
X110269Y61939D01*
X109748Y60681D01*
X109430Y59357D01*
X109323Y58000D01*
X109430Y56643D01*
X109748Y55319D01*
X110269Y54061D01*
X110980Y52900D01*
X111865Y51865D01*
X112900Y50980D01*
X112993Y50923D01*
Y18250D01*
X109323D01*
Y75571D01*
X109325Y75570D01*
X109395Y75532D01*
X109470Y75507D01*
X109548Y75493D01*
X109627Y75492D01*
X109706Y75503D01*
X109781Y75526D01*
X109853Y75560D01*
X109918Y75606D01*
X109975Y75661D01*
X110022Y75724D01*
X110059Y75794D01*
X110085Y75869D01*
X110099Y75947D01*
X110100Y76026D01*
X110089Y76105D01*
X110066Y76181D01*
X110030Y76251D01*
X109884Y76520D01*
X109765Y76801D01*
X109671Y77093D01*
X109604Y77391D01*
X109564Y77694D01*
X109550Y78000D01*
X109564Y78306D01*
X109604Y78609D01*
X109671Y78907D01*
X109765Y79199D01*
X109884Y79480D01*
X110027Y79751D01*
X110063Y79821D01*
X110086Y79896D01*
X110097Y79974D01*
X110096Y80053D01*
X110082Y80130D01*
X110056Y80204D01*
X110019Y80274D01*
X109972Y80337D01*
X109915Y80391D01*
X109851Y80437D01*
X109780Y80471D01*
X109705Y80494D01*
X109627Y80505D01*
X109548Y80504D01*
X109471Y80490D01*
X109396Y80464D01*
X109327Y80427D01*
X109323Y80425D01*
Y85484D01*
G37*
G36*
Y95484D02*X109389Y95376D01*
X109844Y94844D01*
X110376Y94389D01*
X110974Y94023D01*
X111621Y93755D01*
X112302Y93591D01*
X112993Y93537D01*
Y92463D01*
X112302Y92409D01*
X111621Y92245D01*
X110974Y91977D01*
X110376Y91611D01*
X109844Y91156D01*
X109389Y90624D01*
X109323Y90516D01*
Y95484D01*
G37*
G36*
X112993Y102463D02*X112302Y102409D01*
X111621Y102245D01*
X110974Y101977D01*
X110376Y101611D01*
X109844Y101156D01*
X109389Y100624D01*
X109323Y100516D01*
Y105484D01*
X109389Y105376D01*
X109844Y104844D01*
X110376Y104389D01*
X110974Y104023D01*
X111621Y103755D01*
X112302Y103591D01*
X112993Y103537D01*
Y102463D01*
G37*
G36*
X109323Y100516D02*X109023Y100026D01*
X108755Y99379D01*
X108591Y98698D01*
X108536Y98000D01*
X108591Y97302D01*
X108755Y96621D01*
X109023Y95974D01*
X109323Y95484D01*
Y90516D01*
X109023Y90026D01*
X108755Y89379D01*
X108591Y88698D01*
X108536Y88000D01*
X108591Y87302D01*
X108755Y86621D01*
X109023Y85974D01*
X109323Y85484D01*
Y80425D01*
X109264Y80380D01*
X109209Y80323D01*
X109166Y80258D01*
X108977Y79912D01*
X108823Y79548D01*
X108702Y79171D01*
X108616Y78786D01*
X108563Y78395D01*
X108546Y78000D01*
X108563Y77605D01*
X108616Y77214D01*
X108702Y76829D01*
X108823Y76452D01*
X108977Y76088D01*
X109162Y75740D01*
X109207Y75674D01*
X109262Y75617D01*
X109323Y75571D01*
Y18250D01*
X98284D01*
Y21202D01*
X98822Y21425D01*
X99358Y21754D01*
X99837Y22163D01*
X100246Y22642D01*
X100575Y23178D01*
X100816Y23760D01*
X100963Y24372D01*
X101000Y25000D01*
X100963Y25628D01*
X100816Y26240D01*
X100575Y26822D01*
X100246Y27358D01*
X99837Y27837D01*
X99358Y28246D01*
X98822Y28575D01*
X98284Y28798D01*
Y50202D01*
X98822Y50425D01*
X99358Y50754D01*
X99837Y51163D01*
X100246Y51642D01*
X100575Y52178D01*
X100816Y52760D01*
X100963Y53372D01*
X101000Y54000D01*
X100963Y54628D01*
X100816Y55240D01*
X100575Y55822D01*
X100246Y56358D01*
X99837Y56837D01*
X99358Y57246D01*
X98822Y57575D01*
X98284Y57798D01*
Y60202D01*
X98822Y60425D01*
X99358Y60754D01*
X99837Y61163D01*
X100246Y61642D01*
X100575Y62178D01*
X100816Y62760D01*
X100963Y63372D01*
X101000Y64000D01*
X100963Y64628D01*
X100816Y65240D01*
X100575Y65822D01*
X100246Y66358D01*
X99837Y66837D01*
X99358Y67246D01*
X98822Y67575D01*
X98284Y67798D01*
Y70202D01*
X98822Y70425D01*
X99358Y70754D01*
X99837Y71163D01*
X100246Y71642D01*
X100575Y72178D01*
X100816Y72760D01*
X100963Y73372D01*
X101000Y74000D01*
X100963Y74628D01*
X100816Y75240D01*
X100575Y75822D01*
X100246Y76358D01*
X99837Y76837D01*
X99358Y77246D01*
X98822Y77575D01*
X98284Y77798D01*
Y80202D01*
X98822Y80425D01*
X99358Y80754D01*
X99837Y81163D01*
X100246Y81642D01*
X100575Y82178D01*
X100816Y82760D01*
X100963Y83372D01*
X101000Y84000D01*
X100963Y84628D01*
X100816Y85240D01*
X100683Y85561D01*
X108019Y92898D01*
X108064Y92936D01*
X108217Y93115D01*
X108217Y93116D01*
X108341Y93317D01*
X108431Y93535D01*
X108486Y93765D01*
X108505Y94000D01*
X108500Y94059D01*
Y162379D01*
X109323Y163202D01*
Y160516D01*
X109023Y160026D01*
X108755Y159379D01*
X108591Y158698D01*
X108536Y158000D01*
X108591Y157302D01*
X108755Y156621D01*
X109023Y155974D01*
X109323Y155484D01*
Y150516D01*
X109023Y150026D01*
X108755Y149379D01*
X108591Y148698D01*
X108536Y148000D01*
X108591Y147302D01*
X108755Y146621D01*
X109023Y145974D01*
X109323Y145484D01*
Y140516D01*
X109023Y140026D01*
X108755Y139379D01*
X108591Y138698D01*
X108536Y138000D01*
X108591Y137302D01*
X108755Y136621D01*
X109023Y135974D01*
X109323Y135484D01*
Y130516D01*
X109023Y130026D01*
X108755Y129379D01*
X108591Y128698D01*
X108536Y128000D01*
X108591Y127302D01*
X108755Y126621D01*
X109023Y125974D01*
X109323Y125484D01*
Y120516D01*
X109023Y120026D01*
X108755Y119379D01*
X108591Y118698D01*
X108536Y118000D01*
X108591Y117302D01*
X108755Y116621D01*
X109023Y115974D01*
X109323Y115484D01*
Y110516D01*
X109023Y110026D01*
X108755Y109379D01*
X108591Y108698D01*
X108536Y108000D01*
X108591Y107302D01*
X108755Y106621D01*
X109023Y105974D01*
X109323Y105484D01*
Y100516D01*
G37*
G36*
X98284Y352000D02*X112993D01*
Y302463D01*
X112302Y302409D01*
X111621Y302245D01*
X110974Y301977D01*
X110376Y301611D01*
X109844Y301156D01*
X109389Y300624D01*
X109023Y300026D01*
X108755Y299379D01*
X108591Y298698D01*
X108536Y298000D01*
X108591Y297302D01*
X108755Y296621D01*
X109023Y295974D01*
X109389Y295376D01*
X109844Y294844D01*
X110376Y294389D01*
X110974Y294023D01*
X111621Y293755D01*
X112302Y293591D01*
X112993Y293537D01*
Y292463D01*
X112302Y292409D01*
X111621Y292245D01*
X110974Y291977D01*
X110376Y291611D01*
X109844Y291156D01*
X109389Y290624D01*
X109023Y290026D01*
X108755Y289379D01*
X108591Y288698D01*
X108536Y288000D01*
X108591Y287302D01*
X108755Y286621D01*
X109023Y285974D01*
X109389Y285376D01*
X109844Y284844D01*
X110376Y284389D01*
X110974Y284023D01*
X111621Y283755D01*
X112302Y283591D01*
X112993Y283537D01*
Y282463D01*
X112302Y282409D01*
X111621Y282245D01*
X110974Y281977D01*
X110376Y281611D01*
X109844Y281156D01*
X109389Y280624D01*
X109023Y280026D01*
X108755Y279379D01*
X108591Y278698D01*
X108536Y278000D01*
X108591Y277302D01*
X108755Y276621D01*
X109023Y275974D01*
X109389Y275376D01*
X109844Y274844D01*
X110376Y274389D01*
X110974Y274023D01*
X111621Y273755D01*
X112302Y273591D01*
X112993Y273537D01*
Y272463D01*
X112302Y272409D01*
X111621Y272245D01*
X110974Y271977D01*
X110376Y271611D01*
X109844Y271156D01*
X109389Y270624D01*
X109023Y270026D01*
X108755Y269379D01*
X108591Y268698D01*
X108536Y268000D01*
X108591Y267302D01*
X108755Y266621D01*
X109023Y265974D01*
X109389Y265376D01*
X109844Y264844D01*
X110376Y264389D01*
X110974Y264023D01*
X111621Y263755D01*
X112302Y263591D01*
X112993Y263537D01*
Y262463D01*
X112302Y262409D01*
X111621Y262245D01*
X110974Y261977D01*
X110376Y261611D01*
X109844Y261156D01*
X109389Y260624D01*
X109023Y260026D01*
X108755Y259379D01*
X108591Y258698D01*
X108536Y258000D01*
X108591Y257302D01*
X108755Y256621D01*
X109023Y255974D01*
X109389Y255376D01*
X109844Y254844D01*
X110376Y254389D01*
X110974Y254023D01*
X111621Y253755D01*
X112302Y253591D01*
X112993Y253537D01*
Y252463D01*
X112302Y252409D01*
X111621Y252245D01*
X110974Y251977D01*
X110376Y251611D01*
X109844Y251156D01*
X109389Y250624D01*
X109023Y250026D01*
X108755Y249379D01*
X108591Y248698D01*
X108536Y248000D01*
X108591Y247302D01*
X108755Y246621D01*
X109023Y245974D01*
X109389Y245376D01*
X109844Y244844D01*
X110376Y244389D01*
X110974Y244023D01*
X111621Y243755D01*
X112302Y243591D01*
X112993Y243537D01*
Y242463D01*
X112302Y242409D01*
X111621Y242245D01*
X110974Y241977D01*
X110376Y241611D01*
X109844Y241156D01*
X109389Y240624D01*
X109023Y240026D01*
X108755Y239379D01*
X108591Y238698D01*
X108536Y238000D01*
X108591Y237302D01*
X108755Y236621D01*
X109023Y235974D01*
X109389Y235376D01*
X109844Y234844D01*
X110376Y234389D01*
X110974Y234023D01*
X111621Y233755D01*
X112302Y233591D01*
X112993Y233537D01*
Y232463D01*
X112302Y232409D01*
X111621Y232245D01*
X110974Y231977D01*
X110376Y231611D01*
X109844Y231156D01*
X109389Y230624D01*
X109023Y230026D01*
X108755Y229379D01*
X108591Y228698D01*
X108536Y228000D01*
X108591Y227302D01*
X108755Y226621D01*
X109023Y225974D01*
X109389Y225376D01*
X109844Y224844D01*
X110376Y224389D01*
X110974Y224023D01*
X111621Y223755D01*
X112302Y223591D01*
X112993Y223537D01*
Y222463D01*
X112302Y222409D01*
X111621Y222245D01*
X110974Y221977D01*
X110376Y221611D01*
X109844Y221156D01*
X109389Y220624D01*
X109023Y220026D01*
X108755Y219379D01*
X108591Y218698D01*
X108536Y218000D01*
X108591Y217302D01*
X108755Y216621D01*
X109023Y215974D01*
X109389Y215376D01*
X109844Y214844D01*
X110376Y214389D01*
X110974Y214023D01*
X111621Y213755D01*
X112302Y213591D01*
X112993Y213537D01*
Y212463D01*
X112302Y212409D01*
X111621Y212245D01*
X110974Y211977D01*
X110376Y211611D01*
X109844Y211156D01*
X109389Y210624D01*
X109023Y210026D01*
X108755Y209379D01*
X108591Y208698D01*
X108536Y208000D01*
X108591Y207302D01*
X108755Y206621D01*
X109023Y205974D01*
X109389Y205376D01*
X109844Y204844D01*
X110376Y204389D01*
X110974Y204023D01*
X111621Y203755D01*
X112302Y203591D01*
X112993Y203537D01*
Y202463D01*
X112302Y202409D01*
X111621Y202245D01*
X110974Y201977D01*
X110376Y201611D01*
X109844Y201156D01*
X109389Y200624D01*
X109023Y200026D01*
X108755Y199379D01*
X108591Y198698D01*
X108536Y198000D01*
X108591Y197302D01*
X108755Y196621D01*
X109023Y195974D01*
X109389Y195376D01*
X109844Y194844D01*
X110246Y194500D01*
X107059D01*
X107000Y194505D01*
X106765Y194486D01*
X106535Y194431D01*
X106317Y194341D01*
X106116Y194217D01*
X106115Y194217D01*
X105936Y194064D01*
X105898Y194019D01*
X98284Y186405D01*
Y190869D01*
X98287Y190870D01*
X98355Y190909D01*
X98416Y190958D01*
X98469Y191017D01*
X98511Y191083D01*
X98674Y191408D01*
X98803Y191748D01*
X98901Y192098D01*
X98967Y192456D01*
X99000Y192818D01*
Y193182D01*
X98967Y193544D01*
X98901Y193902D01*
X98803Y194252D01*
X98674Y194592D01*
X98515Y194919D01*
X98472Y194985D01*
X98419Y195044D01*
X98357Y195094D01*
X98288Y195133D01*
X98284Y195135D01*
Y200214D01*
X98439Y200226D01*
X98868Y200329D01*
X99275Y200497D01*
X99651Y200728D01*
X99986Y201014D01*
X100272Y201349D01*
X100503Y201725D01*
X100671Y202132D01*
X100774Y202561D01*
X100800Y203000D01*
X100774Y203439D01*
X100671Y203868D01*
X100503Y204275D01*
X100272Y204651D01*
X99986Y204986D01*
X99651Y205272D01*
X99275Y205503D01*
X98868Y205671D01*
X98439Y205774D01*
X98284Y205786D01*
Y352000D01*
G37*
G36*
Y186405D02*X95002Y183123D01*
Y189000D01*
X95182D01*
X95544Y189033D01*
X95902Y189099D01*
X96252Y189197D01*
X96592Y189326D01*
X96919Y189485D01*
X96985Y189528D01*
X97044Y189581D01*
X97094Y189643D01*
X97133Y189712D01*
X97161Y189786D01*
X97177Y189863D01*
X97181Y189942D01*
X97173Y190021D01*
X97152Y190097D01*
X97120Y190170D01*
X97077Y190236D01*
X97024Y190295D01*
X96962Y190344D01*
X96893Y190384D01*
X96819Y190412D01*
X96742Y190428D01*
X96663Y190432D01*
X96584Y190424D01*
X96507Y190403D01*
X96436Y190370D01*
X96193Y190247D01*
X95938Y190150D01*
X95676Y190077D01*
X95408Y190028D01*
X95136Y190003D01*
X95002D01*
Y195997D01*
X95136D01*
X95408Y195972D01*
X95676Y195923D01*
X95938Y195850D01*
X96193Y195753D01*
X96437Y195633D01*
X96509Y195600D01*
X96584Y195579D01*
X96663Y195571D01*
X96741Y195575D01*
X96818Y195591D01*
X96892Y195619D01*
X96960Y195658D01*
X97021Y195707D01*
X97074Y195766D01*
X97117Y195832D01*
X97149Y195904D01*
X97170Y195980D01*
X97178Y196058D01*
X97174Y196136D01*
X97158Y196213D01*
X97130Y196287D01*
X97091Y196355D01*
X97042Y196416D01*
X96983Y196469D01*
X96917Y196511D01*
X96592Y196674D01*
X96252Y196803D01*
X95902Y196901D01*
X95544Y196967D01*
X95182Y197000D01*
X95002D01*
Y201500D01*
X95635D01*
X95728Y201349D01*
X96014Y201014D01*
X96349Y200728D01*
X96725Y200497D01*
X97132Y200329D01*
X97561Y200226D01*
X98000Y200191D01*
X98284Y200214D01*
Y195135D01*
X98214Y195161D01*
X98137Y195177D01*
X98058Y195181D01*
X97979Y195173D01*
X97903Y195152D01*
X97830Y195120D01*
X97764Y195077D01*
X97705Y195024D01*
X97656Y194962D01*
X97616Y194893D01*
X97588Y194819D01*
X97572Y194742D01*
X97568Y194663D01*
X97576Y194584D01*
X97597Y194507D01*
X97630Y194436D01*
X97753Y194193D01*
X97850Y193938D01*
X97923Y193676D01*
X97972Y193408D01*
X97997Y193136D01*
Y192864D01*
X97972Y192592D01*
X97923Y192324D01*
X97850Y192062D01*
X97753Y191807D01*
X97633Y191563D01*
X97600Y191491D01*
X97579Y191416D01*
X97571Y191337D01*
X97575Y191259D01*
X97591Y191182D01*
X97619Y191108D01*
X97658Y191040D01*
X97707Y190979D01*
X97766Y190926D01*
X97832Y190883D01*
X97904Y190851D01*
X97980Y190830D01*
X98058Y190822D01*
X98136Y190826D01*
X98213Y190842D01*
X98284Y190869D01*
Y186405D01*
G37*
G36*
Y127798D02*X98240Y127816D01*
X97628Y127963D01*
X97000Y128012D01*
X96372Y127963D01*
X95760Y127816D01*
X95178Y127575D01*
X95002Y127467D01*
Y161000D01*
X95182D01*
X95544Y161033D01*
X95902Y161099D01*
X96252Y161197D01*
X96592Y161326D01*
X96919Y161485D01*
X96985Y161528D01*
X97044Y161581D01*
X97094Y161643D01*
X97133Y161712D01*
X97161Y161786D01*
X97177Y161863D01*
X97181Y161942D01*
X97173Y162021D01*
X97152Y162097D01*
X97120Y162170D01*
X97077Y162236D01*
X97024Y162295D01*
X96962Y162344D01*
X96893Y162384D01*
X96819Y162412D01*
X96742Y162428D01*
X96663Y162432D01*
X96584Y162424D01*
X96507Y162403D01*
X96436Y162370D01*
X96193Y162247D01*
X95938Y162150D01*
X95676Y162077D01*
X95408Y162028D01*
X95136Y162003D01*
X95002D01*
Y167997D01*
X95136D01*
X95408Y167972D01*
X95676Y167923D01*
X95938Y167850D01*
X96193Y167753D01*
X96437Y167633D01*
X96509Y167600D01*
X96584Y167579D01*
X96663Y167571D01*
X96741Y167575D01*
X96818Y167591D01*
X96892Y167619D01*
X96960Y167658D01*
X97021Y167707D01*
X97074Y167766D01*
X97117Y167832D01*
X97149Y167904D01*
X97170Y167980D01*
X97178Y168058D01*
X97174Y168136D01*
X97158Y168213D01*
X97130Y168287D01*
X97091Y168355D01*
X97042Y168416D01*
X96983Y168469D01*
X96917Y168511D01*
X96592Y168674D01*
X96252Y168803D01*
X95902Y168901D01*
X95544Y168967D01*
X95182Y169000D01*
X95002D01*
Y178880D01*
X98284Y182162D01*
Y167135D01*
X98214Y167161D01*
X98137Y167177D01*
X98058Y167181D01*
X97979Y167173D01*
X97903Y167152D01*
X97830Y167120D01*
X97764Y167077D01*
X97705Y167024D01*
X97656Y166962D01*
X97616Y166893D01*
X97588Y166819D01*
X97572Y166742D01*
X97568Y166663D01*
X97576Y166584D01*
X97597Y166507D01*
X97630Y166436D01*
X97753Y166193D01*
X97850Y165938D01*
X97923Y165676D01*
X97972Y165408D01*
X97997Y165136D01*
Y164864D01*
X97972Y164592D01*
X97923Y164324D01*
X97850Y164062D01*
X97753Y163807D01*
X97633Y163563D01*
X97600Y163491D01*
X97579Y163416D01*
X97571Y163337D01*
X97575Y163259D01*
X97591Y163182D01*
X97619Y163108D01*
X97658Y163040D01*
X97707Y162979D01*
X97766Y162926D01*
X97832Y162883D01*
X97904Y162851D01*
X97980Y162830D01*
X98058Y162822D01*
X98136Y162826D01*
X98213Y162842D01*
X98284Y162869D01*
Y127798D01*
G37*
G36*
Y117798D02*X98240Y117816D01*
X97628Y117963D01*
X97000Y118012D01*
X96372Y117963D01*
X95760Y117816D01*
X95178Y117575D01*
X95002Y117467D01*
Y120533D01*
X95178Y120425D01*
X95760Y120184D01*
X96372Y120037D01*
X97000Y119988D01*
X97628Y120037D01*
X98240Y120184D01*
X98284Y120202D01*
Y117798D01*
G37*
G36*
Y107798D02*X98240Y107816D01*
X97628Y107963D01*
X97000Y108012D01*
X96372Y107963D01*
X95760Y107816D01*
X95178Y107575D01*
X95002Y107467D01*
Y110533D01*
X95178Y110425D01*
X95760Y110184D01*
X96372Y110037D01*
X97000Y109988D01*
X97628Y110037D01*
X98240Y110184D01*
X98284Y110202D01*
Y107798D01*
G37*
G36*
Y97798D02*X98240Y97816D01*
X97628Y97963D01*
X97000Y98012D01*
X96372Y97963D01*
X95760Y97816D01*
X95178Y97575D01*
X95002Y97467D01*
Y100533D01*
X95178Y100425D01*
X95760Y100184D01*
X96372Y100037D01*
X97000Y99988D01*
X97628Y100037D01*
X98240Y100184D01*
X98284Y100202D01*
Y97798D01*
G37*
G36*
Y77798D02*X98240Y77816D01*
X97628Y77963D01*
X97000Y78012D01*
X96372Y77963D01*
X95760Y77816D01*
X95178Y77575D01*
X95002Y77467D01*
Y80533D01*
X95178Y80425D01*
X95760Y80184D01*
X96372Y80037D01*
X97000Y79988D01*
X97628Y80037D01*
X98240Y80184D01*
X98284Y80202D01*
Y77798D01*
G37*
G36*
Y67798D02*X98240Y67816D01*
X97628Y67963D01*
X97000Y68012D01*
X96372Y67963D01*
X95760Y67816D01*
X95178Y67575D01*
X95002Y67467D01*
Y70533D01*
X95178Y70425D01*
X95760Y70184D01*
X96372Y70037D01*
X97000Y69988D01*
X97628Y70037D01*
X98240Y70184D01*
X98284Y70202D01*
Y67798D01*
G37*
G36*
Y57798D02*X98240Y57816D01*
X97628Y57963D01*
X97000Y58012D01*
X96372Y57963D01*
X95760Y57816D01*
X95178Y57575D01*
X95002Y57467D01*
Y60533D01*
X95178Y60425D01*
X95760Y60184D01*
X96372Y60037D01*
X97000Y59988D01*
X97628Y60037D01*
X98240Y60184D01*
X98284Y60202D01*
Y57798D01*
G37*
G36*
Y28798D02*X98240Y28816D01*
X97628Y28963D01*
X97000Y29012D01*
X96372Y28963D01*
X95760Y28816D01*
X95178Y28575D01*
X95002Y28467D01*
Y50533D01*
X95178Y50425D01*
X95760Y50184D01*
X96372Y50037D01*
X97000Y49988D01*
X97628Y50037D01*
X98240Y50184D01*
X98284Y50202D01*
Y28798D01*
G37*
G36*
Y18250D02*X96932D01*
X95002Y20180D01*
Y21533D01*
X95178Y21425D01*
X95760Y21184D01*
X96372Y21037D01*
X97000Y20988D01*
X97628Y21037D01*
X98240Y21184D01*
X98284Y21202D01*
Y18250D01*
G37*
G36*
Y7000D02*X95002D01*
Y13978D01*
X95303Y13854D01*
X95647Y13771D01*
X95647D01*
X96000Y13743D01*
X96088Y13750D01*
X98284D01*
Y7000D01*
G37*
G36*
X95002Y352000D02*X98284D01*
Y205786D01*
X98000Y205809D01*
X97561Y205774D01*
X97132Y205671D01*
X96725Y205503D01*
X96349Y205272D01*
X96014Y204986D01*
X95728Y204651D01*
X95635Y204500D01*
X95002D01*
Y352000D01*
G37*
G36*
X91716Y175595D02*X95002Y178880D01*
Y169000D01*
X94818D01*
X94456Y168967D01*
X94098Y168901D01*
X93748Y168803D01*
X93408Y168674D01*
X93081Y168515D01*
X93015Y168472D01*
X92956Y168419D01*
X92906Y168357D01*
X92867Y168288D01*
X92839Y168214D01*
X92823Y168137D01*
X92819Y168058D01*
X92827Y167979D01*
X92848Y167903D01*
X92880Y167830D01*
X92923Y167764D01*
X92976Y167705D01*
X93038Y167656D01*
X93107Y167616D01*
X93181Y167588D01*
X93258Y167572D01*
X93337Y167568D01*
X93416Y167576D01*
X93493Y167597D01*
X93564Y167630D01*
X93807Y167753D01*
X94062Y167850D01*
X94324Y167923D01*
X94592Y167972D01*
X94864Y167997D01*
X95002D01*
Y162003D01*
X94864D01*
X94592Y162028D01*
X94324Y162077D01*
X94062Y162150D01*
X93807Y162247D01*
X93563Y162367D01*
X93491Y162400D01*
X93415Y162421D01*
X93337Y162429D01*
X93259Y162425D01*
X93182Y162409D01*
X93108Y162381D01*
X93040Y162342D01*
X92979Y162293D01*
X92926Y162234D01*
X92883Y162168D01*
X92851Y162096D01*
X92830Y162020D01*
X92822Y161942D01*
X92826Y161864D01*
X92842Y161787D01*
X92870Y161713D01*
X92909Y161645D01*
X92958Y161584D01*
X93017Y161531D01*
X93083Y161489D01*
X93408Y161326D01*
X93748Y161197D01*
X94098Y161099D01*
X94456Y161033D01*
X94818Y161000D01*
X95002D01*
Y127467D01*
X94642Y127246D01*
X94163Y126837D01*
X93754Y126358D01*
X93425Y125822D01*
X93184Y125240D01*
X93037Y124628D01*
X92988Y124000D01*
X93037Y123372D01*
X93184Y122760D01*
X93425Y122178D01*
X93754Y121642D01*
X94163Y121163D01*
X94642Y120754D01*
X95002Y120533D01*
Y117467D01*
X94642Y117246D01*
X94163Y116837D01*
X93754Y116358D01*
X93425Y115822D01*
X93184Y115240D01*
X93037Y114628D01*
X92988Y114000D01*
X93037Y113372D01*
X93184Y112760D01*
X93425Y112178D01*
X93754Y111642D01*
X94163Y111163D01*
X94642Y110754D01*
X95002Y110533D01*
Y107467D01*
X94642Y107246D01*
X94163Y106837D01*
X93754Y106358D01*
X93425Y105822D01*
X93184Y105240D01*
X93037Y104628D01*
X92988Y104000D01*
X93037Y103372D01*
X93184Y102760D01*
X93425Y102178D01*
X93754Y101642D01*
X94163Y101163D01*
X94642Y100754D01*
X95002Y100533D01*
Y97467D01*
X94642Y97246D01*
X94163Y96837D01*
X93754Y96358D01*
X93425Y95822D01*
X93184Y95240D01*
X93037Y94628D01*
X92988Y94000D01*
X93037Y93372D01*
X93184Y92760D01*
X93425Y92178D01*
X93754Y91642D01*
X94163Y91163D01*
X94642Y90754D01*
X95002Y90533D01*
Y87467D01*
X94642Y87246D01*
X94163Y86837D01*
X93754Y86358D01*
X93425Y85822D01*
X93184Y85240D01*
X93037Y84628D01*
X92988Y84000D01*
X93037Y83372D01*
X93184Y82760D01*
X93425Y82178D01*
X93754Y81642D01*
X94163Y81163D01*
X94642Y80754D01*
X95002Y80533D01*
Y77467D01*
X94642Y77246D01*
X94163Y76837D01*
X93754Y76358D01*
X93688Y76250D01*
X91716D01*
Y162865D01*
X91786Y162839D01*
X91863Y162823D01*
X91942Y162819D01*
X92021Y162827D01*
X92097Y162848D01*
X92170Y162880D01*
X92236Y162923D01*
X92295Y162976D01*
X92344Y163038D01*
X92384Y163107D01*
X92412Y163181D01*
X92428Y163258D01*
X92432Y163337D01*
X92424Y163416D01*
X92403Y163493D01*
X92370Y163564D01*
X92247Y163807D01*
X92150Y164062D01*
X92077Y164324D01*
X92028Y164592D01*
X92003Y164864D01*
Y165136D01*
X92028Y165408D01*
X92077Y165676D01*
X92150Y165938D01*
X92247Y166193D01*
X92367Y166437D01*
X92400Y166509D01*
X92421Y166585D01*
X92429Y166663D01*
X92425Y166741D01*
X92409Y166818D01*
X92381Y166892D01*
X92342Y166960D01*
X92293Y167021D01*
X92234Y167074D01*
X92168Y167117D01*
X92096Y167149D01*
X92020Y167170D01*
X91942Y167178D01*
X91864Y167174D01*
X91787Y167158D01*
X91716Y167131D01*
Y175595D01*
G37*
G36*
X95002Y20180D02*X91716Y23466D01*
Y71750D01*
X93688D01*
X93754Y71642D01*
X94163Y71163D01*
X94642Y70754D01*
X95002Y70533D01*
Y67467D01*
X94642Y67246D01*
X94163Y66837D01*
X93754Y66358D01*
X93425Y65822D01*
X93184Y65240D01*
X93037Y64628D01*
X92988Y64000D01*
X93037Y63372D01*
X93184Y62760D01*
X93425Y62178D01*
X93754Y61642D01*
X94163Y61163D01*
X94642Y60754D01*
X95002Y60533D01*
Y57467D01*
X94642Y57246D01*
X94163Y56837D01*
X93754Y56358D01*
X93425Y55822D01*
X93184Y55240D01*
X93037Y54628D01*
X92988Y54000D01*
X93037Y53372D01*
X93184Y52760D01*
X93425Y52178D01*
X93754Y51642D01*
X94163Y51163D01*
X94642Y50754D01*
X95002Y50533D01*
Y28467D01*
X94642Y28246D01*
X94163Y27837D01*
X93754Y27358D01*
X93425Y26822D01*
X93184Y26240D01*
X93037Y25628D01*
X92988Y25000D01*
X93037Y24372D01*
X93184Y23760D01*
X93425Y23178D01*
X93754Y22642D01*
X94163Y22163D01*
X94642Y21754D01*
X95002Y21533D01*
Y20180D01*
G37*
G36*
X72002Y86880D02*X82019Y96898D01*
X82064Y96936D01*
X82217Y97115D01*
X82217Y97116D01*
X82341Y97317D01*
X82431Y97535D01*
X82486Y97765D01*
X82505Y98000D01*
X82500Y98059D01*
Y135635D01*
X82651Y135728D01*
X82986Y136014D01*
X83272Y136349D01*
X83503Y136725D01*
X83671Y137132D01*
X83774Y137561D01*
X83800Y138000D01*
X83774Y138439D01*
X83671Y138868D01*
X83503Y139275D01*
X83272Y139651D01*
X82986Y139986D01*
X82651Y140272D01*
X82275Y140503D01*
X81868Y140671D01*
X81439Y140774D01*
X81000Y140809D01*
X80561Y140774D01*
X80132Y140671D01*
X79725Y140503D01*
X79349Y140272D01*
X79014Y139986D01*
X78728Y139651D01*
X78497Y139275D01*
X78329Y138868D01*
X78226Y138439D01*
X78191Y138000D01*
X78226Y137561D01*
X78329Y137132D01*
X78497Y136725D01*
X78728Y136349D01*
X79014Y136014D01*
X79349Y135728D01*
X79500Y135635D01*
Y98621D01*
X72002Y91123D01*
Y155880D01*
X91716Y175595D01*
Y167131D01*
X91713Y167130D01*
X91645Y167091D01*
X91584Y167042D01*
X91531Y166983D01*
X91489Y166917D01*
X91326Y166592D01*
X91197Y166252D01*
X91099Y165902D01*
X91033Y165544D01*
X91000Y165182D01*
Y164818D01*
X91033Y164456D01*
X91099Y164098D01*
X91197Y163748D01*
X91326Y163408D01*
X91485Y163081D01*
X91528Y163015D01*
X91581Y162956D01*
X91643Y162906D01*
X91712Y162867D01*
X91716Y162865D01*
Y76250D01*
X72002D01*
Y76997D01*
X72136D01*
X72408Y76972D01*
X72676Y76923D01*
X72938Y76850D01*
X73193Y76753D01*
X73437Y76633D01*
X73509Y76600D01*
X73584Y76579D01*
X73663Y76571D01*
X73741Y76575D01*
X73818Y76591D01*
X73892Y76619D01*
X73960Y76658D01*
X74021Y76707D01*
X74074Y76766D01*
X74117Y76832D01*
X74149Y76904D01*
X74170Y76980D01*
X74178Y77058D01*
X74174Y77136D01*
X74158Y77213D01*
X74130Y77287D01*
X74091Y77355D01*
X74042Y77416D01*
X73983Y77469D01*
X73917Y77511D01*
X73592Y77674D01*
X73252Y77803D01*
X72902Y77901D01*
X72544Y77967D01*
X72182Y78000D01*
X72002D01*
Y86880D01*
G37*
G36*
X91716Y23466D02*X90933Y24249D01*
X90963Y24372D01*
X91000Y25000D01*
X90963Y25628D01*
X90816Y26240D01*
X90575Y26822D01*
X90246Y27358D01*
X89837Y27837D01*
X89358Y28246D01*
X88822Y28575D01*
X88240Y28816D01*
X87628Y28963D01*
X87000Y29012D01*
X86372Y28963D01*
X86249Y28933D01*
X81653Y33529D01*
X81596Y33596D01*
X81327Y33826D01*
X81327Y33826D01*
X81212Y33896D01*
X81025Y34011D01*
X80793Y34107D01*
X80697Y34146D01*
X80353Y34229D01*
X80000Y34257D01*
X79912Y34250D01*
X74088D01*
X74000Y34257D01*
X73647Y34229D01*
X73303Y34146D01*
X72975Y34011D01*
X72673Y33826D01*
X72673Y33826D01*
X72404Y33596D01*
X72347Y33529D01*
X72002Y33184D01*
Y70000D01*
X72182D01*
X72544Y70033D01*
X72902Y70099D01*
X73252Y70197D01*
X73592Y70326D01*
X73919Y70485D01*
X73985Y70528D01*
X74044Y70581D01*
X74094Y70643D01*
X74133Y70712D01*
X74161Y70786D01*
X74177Y70863D01*
X74181Y70942D01*
X74173Y71021D01*
X74152Y71097D01*
X74120Y71170D01*
X74077Y71236D01*
X74024Y71295D01*
X73962Y71344D01*
X73893Y71384D01*
X73819Y71412D01*
X73742Y71428D01*
X73663Y71432D01*
X73584Y71424D01*
X73507Y71403D01*
X73436Y71370D01*
X73193Y71247D01*
X72938Y71150D01*
X72676Y71077D01*
X72408Y71028D01*
X72136Y71003D01*
X72002D01*
Y71750D01*
X91716D01*
Y23466D01*
G37*
G36*
X72002Y91123D02*X68996Y88117D01*
Y93874D01*
X71019Y95898D01*
X71064Y95936D01*
X71217Y96115D01*
X71217Y96116D01*
X71341Y96317D01*
X71431Y96535D01*
X71486Y96765D01*
X71505Y97000D01*
X71500Y97059D01*
Y155379D01*
X72002Y155880D01*
Y91123D01*
G37*
G36*
Y33184D02*X68996Y30178D01*
Y71824D01*
X69021Y71827D01*
X69097Y71848D01*
X69170Y71880D01*
X69236Y71923D01*
X69295Y71976D01*
X69344Y72038D01*
X69384Y72107D01*
X69412Y72181D01*
X69428Y72258D01*
X69432Y72337D01*
X69424Y72416D01*
X69403Y72493D01*
X69370Y72564D01*
X69247Y72807D01*
X69150Y73062D01*
X69077Y73324D01*
X69028Y73592D01*
X69003Y73864D01*
Y74136D01*
X69028Y74408D01*
X69077Y74676D01*
X69150Y74938D01*
X69247Y75193D01*
X69367Y75437D01*
X69400Y75509D01*
X69421Y75585D01*
X69429Y75663D01*
X69425Y75741D01*
X69409Y75818D01*
X69381Y75892D01*
X69342Y75960D01*
X69293Y76021D01*
X69234Y76074D01*
X69168Y76117D01*
X69096Y76149D01*
X69020Y76170D01*
X68996Y76173D01*
Y83874D01*
X72002Y86880D01*
Y78000D01*
X71818D01*
X71456Y77967D01*
X71098Y77901D01*
X70748Y77803D01*
X70408Y77674D01*
X70081Y77515D01*
X70015Y77472D01*
X69956Y77419D01*
X69906Y77357D01*
X69867Y77288D01*
X69839Y77214D01*
X69823Y77137D01*
X69819Y77058D01*
X69827Y76979D01*
X69848Y76903D01*
X69880Y76830D01*
X69923Y76764D01*
X69976Y76705D01*
X70038Y76656D01*
X70107Y76616D01*
X70181Y76588D01*
X70258Y76572D01*
X70337Y76568D01*
X70416Y76576D01*
X70493Y76597D01*
X70564Y76630D01*
X70807Y76753D01*
X71062Y76850D01*
X71324Y76923D01*
X71592Y76972D01*
X71864Y76997D01*
X72002D01*
Y76250D01*
X72000D01*
X71647Y76229D01*
X71303Y76146D01*
X70975Y76011D01*
X70673Y75826D01*
X70404Y75596D01*
X70174Y75327D01*
X69989Y75025D01*
X69854Y74697D01*
X69771Y74353D01*
X69743Y74000D01*
X69771Y73647D01*
X69854Y73303D01*
X69989Y72975D01*
X70174Y72673D01*
X70404Y72404D01*
X70673Y72174D01*
X70975Y71989D01*
X71303Y71854D01*
X71647Y71771D01*
X72000Y71750D01*
X72002D01*
Y71003D01*
X71864D01*
X71592Y71028D01*
X71324Y71077D01*
X71062Y71150D01*
X70807Y71247D01*
X70563Y71367D01*
X70491Y71400D01*
X70415Y71421D01*
X70337Y71429D01*
X70259Y71425D01*
X70182Y71409D01*
X70108Y71381D01*
X70040Y71342D01*
X69979Y71293D01*
X69926Y71234D01*
X69883Y71168D01*
X69851Y71096D01*
X69830Y71020D01*
X69822Y70942D01*
X69826Y70864D01*
X69842Y70787D01*
X69870Y70713D01*
X69909Y70645D01*
X69958Y70584D01*
X70017Y70531D01*
X70083Y70489D01*
X70408Y70326D01*
X70748Y70197D01*
X71098Y70099D01*
X71456Y70033D01*
X71818Y70000D01*
X72002D01*
Y33184D01*
G37*
G36*
X56994Y81873D02*X68996Y93874D01*
Y88117D01*
X59981Y79102D01*
X59936Y79064D01*
X59783Y78884D01*
X59659Y78683D01*
X59569Y78465D01*
X59514Y78235D01*
X59514Y78235D01*
X59495Y78000D01*
X59500Y77941D01*
Y56621D01*
X57611Y54733D01*
X57439Y54774D01*
X57000Y54809D01*
X56994Y54808D01*
Y81873D01*
G37*
G36*
X68996Y30178D02*X67751Y28933D01*
X67628Y28963D01*
X67000Y29012D01*
X66372Y28963D01*
X65760Y28816D01*
X65178Y28575D01*
X64642Y28246D01*
X64163Y27837D01*
X63754Y27358D01*
X63425Y26822D01*
X63184Y26240D01*
X63037Y25628D01*
X62988Y25000D01*
X63037Y24372D01*
X63067Y24249D01*
X58068Y19250D01*
X56994D01*
Y20988D01*
X57000Y20988D01*
X57628Y21037D01*
X58240Y21184D01*
X58822Y21425D01*
X59358Y21754D01*
X59837Y22163D01*
X60246Y22642D01*
X60575Y23178D01*
X60816Y23760D01*
X60963Y24372D01*
X61000Y25000D01*
X60963Y25628D01*
X60816Y26240D01*
X60575Y26822D01*
X60246Y27358D01*
X59837Y27837D01*
X59358Y28246D01*
X58822Y28575D01*
X58240Y28816D01*
X57628Y28963D01*
X57000Y29012D01*
X56994Y29012D01*
Y49192D01*
X57000Y49191D01*
X57439Y49226D01*
X57868Y49329D01*
X58275Y49497D01*
X58651Y49728D01*
X58986Y50014D01*
X59272Y50349D01*
X59503Y50725D01*
X59671Y51132D01*
X59774Y51561D01*
X59800Y52000D01*
X59774Y52439D01*
X59733Y52611D01*
X62019Y54898D01*
X62064Y54936D01*
X62217Y55115D01*
X62217Y55116D01*
X62341Y55317D01*
X62431Y55535D01*
X62486Y55765D01*
X62505Y56000D01*
X62500Y56059D01*
Y77379D01*
X68996Y83874D01*
Y76173D01*
X68942Y76178D01*
X68864Y76174D01*
X68787Y76158D01*
X68713Y76130D01*
X68645Y76091D01*
X68584Y76042D01*
X68531Y75983D01*
X68489Y75917D01*
X68326Y75592D01*
X68197Y75252D01*
X68099Y74902D01*
X68033Y74544D01*
X68000Y74182D01*
Y73818D01*
X68033Y73456D01*
X68099Y73098D01*
X68197Y72748D01*
X68326Y72408D01*
X68485Y72081D01*
X68528Y72015D01*
X68581Y71956D01*
X68643Y71906D01*
X68712Y71867D01*
X68786Y71839D01*
X68863Y71823D01*
X68942Y71819D01*
X68996Y71824D01*
Y30178D01*
G37*
G36*
X56994Y19250D02*X55932D01*
X50933Y24249D01*
X50963Y24372D01*
X51000Y25000D01*
X50963Y25628D01*
X50816Y26240D01*
X50575Y26822D01*
X50246Y27358D01*
X49837Y27837D01*
X49358Y28246D01*
X48822Y28575D01*
X48240Y28816D01*
X47628Y28963D01*
X47000Y29012D01*
X46372Y28963D01*
X46249Y28933D01*
X40653Y34529D01*
X40596Y34596D01*
X40327Y34826D01*
X40327Y34826D01*
X40212Y34896D01*
X40025Y35011D01*
X39793Y35107D01*
X39697Y35146D01*
X39353Y35229D01*
X39000Y35257D01*
X38912Y35250D01*
X35088D01*
X35000Y35257D01*
X34647Y35229D01*
X34303Y35146D01*
X33975Y35011D01*
X33673Y34826D01*
X33673Y34826D01*
X33673Y34826D01*
X33404Y34596D01*
X33347Y34529D01*
X27751Y28933D01*
X27628Y28963D01*
X27000Y29012D01*
X26372Y28963D01*
X25760Y28816D01*
X25178Y28575D01*
X24642Y28246D01*
X24284Y27940D01*
Y31869D01*
X24287Y31870D01*
X24355Y31909D01*
X24416Y31958D01*
X24469Y32017D01*
X24511Y32083D01*
X24674Y32408D01*
X24803Y32748D01*
X24901Y33098D01*
X24967Y33456D01*
X25000Y33818D01*
Y34182D01*
X24967Y34544D01*
X24901Y34902D01*
X24803Y35252D01*
X24674Y35592D01*
X24515Y35919D01*
X24472Y35985D01*
X24419Y36044D01*
X24357Y36094D01*
X24288Y36133D01*
X24284Y36135D01*
Y55680D01*
X24317Y55659D01*
X24535Y55569D01*
X24765Y55514D01*
X25000Y55495D01*
X25059Y55500D01*
X49941D01*
X50000Y55495D01*
X50235Y55514D01*
X50235Y55514D01*
X50465Y55569D01*
X50683Y55659D01*
X50884Y55783D01*
X51064Y55936D01*
X51102Y55981D01*
X56019Y60898D01*
X56064Y60936D01*
X56217Y61115D01*
X56217Y61116D01*
X56341Y61317D01*
X56431Y61535D01*
X56486Y61765D01*
X56505Y62000D01*
X56500Y62059D01*
Y81379D01*
X56994Y81873D01*
Y54808D01*
X56561Y54774D01*
X56132Y54671D01*
X55725Y54503D01*
X55349Y54272D01*
X55014Y53986D01*
X54728Y53651D01*
X54497Y53275D01*
X54329Y52868D01*
X54226Y52439D01*
X54191Y52000D01*
X54226Y51561D01*
X54329Y51132D01*
X54497Y50725D01*
X54728Y50349D01*
X55014Y50014D01*
X55349Y49728D01*
X55725Y49497D01*
X56132Y49329D01*
X56561Y49226D01*
X56994Y49192D01*
Y29012D01*
X56372Y28963D01*
X55760Y28816D01*
X55178Y28575D01*
X54642Y28246D01*
X54163Y27837D01*
X53754Y27358D01*
X53425Y26822D01*
X53184Y26240D01*
X53037Y25628D01*
X52988Y25000D01*
X53037Y24372D01*
X53184Y23760D01*
X53425Y23178D01*
X53754Y22642D01*
X54163Y22163D01*
X54642Y21754D01*
X55178Y21425D01*
X55760Y21184D01*
X56372Y21037D01*
X56994Y20988D01*
Y19250D01*
G37*
G36*
X24284Y27940D02*X24163Y27837D01*
X23754Y27358D01*
X23425Y26822D01*
X23184Y26240D01*
X23037Y25628D01*
X22988Y25000D01*
X23037Y24372D01*
X23067Y24249D01*
X21068Y22250D01*
X21002D01*
Y30000D01*
X21182D01*
X21544Y30033D01*
X21902Y30099D01*
X22252Y30197D01*
X22592Y30326D01*
X22919Y30485D01*
X22985Y30528D01*
X23044Y30581D01*
X23094Y30643D01*
X23133Y30712D01*
X23161Y30786D01*
X23177Y30863D01*
X23181Y30942D01*
X23173Y31021D01*
X23152Y31097D01*
X23120Y31170D01*
X23077Y31236D01*
X23024Y31295D01*
X22962Y31344D01*
X22893Y31384D01*
X22819Y31412D01*
X22742Y31428D01*
X22663Y31432D01*
X22584Y31424D01*
X22507Y31403D01*
X22436Y31370D01*
X22193Y31247D01*
X21938Y31150D01*
X21676Y31077D01*
X21408Y31028D01*
X21136Y31003D01*
X21002D01*
Y36997D01*
X21136D01*
X21408Y36972D01*
X21676Y36923D01*
X21938Y36850D01*
X22193Y36753D01*
X22437Y36633D01*
X22509Y36600D01*
X22584Y36579D01*
X22663Y36571D01*
X22741Y36575D01*
X22818Y36591D01*
X22892Y36619D01*
X22960Y36658D01*
X23021Y36707D01*
X23074Y36766D01*
X23117Y36832D01*
X23149Y36904D01*
X23170Y36980D01*
X23178Y37058D01*
X23174Y37136D01*
X23158Y37213D01*
X23130Y37287D01*
X23091Y37355D01*
X23042Y37416D01*
X22983Y37469D01*
X22917Y37511D01*
X22592Y37674D01*
X22252Y37803D01*
X21902Y37901D01*
X21544Y37967D01*
X21182Y38000D01*
X21002D01*
Y58877D01*
X23898Y55981D01*
X23936Y55936D01*
X24116Y55783D01*
X24284Y55680D01*
Y36135D01*
X24214Y36161D01*
X24137Y36177D01*
X24058Y36181D01*
X23979Y36173D01*
X23903Y36152D01*
X23830Y36120D01*
X23764Y36077D01*
X23705Y36024D01*
X23656Y35962D01*
X23616Y35893D01*
X23588Y35819D01*
X23572Y35742D01*
X23568Y35663D01*
X23576Y35584D01*
X23597Y35507D01*
X23630Y35436D01*
X23753Y35193D01*
X23850Y34938D01*
X23923Y34676D01*
X23972Y34408D01*
X23997Y34136D01*
Y33864D01*
X23972Y33592D01*
X23923Y33324D01*
X23850Y33062D01*
X23753Y32807D01*
X23633Y32563D01*
X23600Y32491D01*
X23579Y32415D01*
X23571Y32337D01*
X23575Y32259D01*
X23591Y32182D01*
X23619Y32108D01*
X23658Y32040D01*
X23707Y31979D01*
X23766Y31926D01*
X23832Y31883D01*
X23904Y31851D01*
X23980Y31830D01*
X24058Y31822D01*
X24136Y31826D01*
X24213Y31842D01*
X24284Y31869D01*
Y27940D01*
G37*
G36*
X17716Y65737D02*X17816Y65676D01*
X18194Y65520D01*
X18276Y65500D01*
X18194Y65480D01*
X17816Y65324D01*
X17716Y65263D01*
Y65737D01*
G37*
G36*
Y70737D02*X17816Y70676D01*
X18194Y70520D01*
X18276Y70500D01*
X18194Y70480D01*
X17816Y70324D01*
X17716Y70263D01*
Y70737D01*
G37*
G36*
Y75737D02*X17816Y75676D01*
X18194Y75520D01*
X18276Y75500D01*
X18194Y75480D01*
X17816Y75324D01*
X17716Y75263D01*
Y75737D01*
G37*
G36*
Y80737D02*X17816Y80676D01*
X18194Y80520D01*
X18276Y80500D01*
X18194Y80480D01*
X17816Y80324D01*
X17716Y80263D01*
Y80737D01*
G37*
G36*
X21002Y22250D02*X18932D01*
X17716Y23466D01*
Y31865D01*
X17786Y31839D01*
X17863Y31823D01*
X17942Y31819D01*
X18021Y31827D01*
X18097Y31848D01*
X18170Y31880D01*
X18236Y31923D01*
X18295Y31976D01*
X18344Y32038D01*
X18384Y32107D01*
X18412Y32181D01*
X18428Y32258D01*
X18432Y32337D01*
X18424Y32416D01*
X18403Y32493D01*
X18370Y32564D01*
X18247Y32807D01*
X18150Y33062D01*
X18077Y33324D01*
X18028Y33592D01*
X18003Y33864D01*
Y34136D01*
X18028Y34408D01*
X18077Y34676D01*
X18150Y34938D01*
X18247Y35193D01*
X18367Y35437D01*
X18400Y35509D01*
X18421Y35585D01*
X18429Y35663D01*
X18425Y35741D01*
X18409Y35818D01*
X18381Y35892D01*
X18342Y35960D01*
X18293Y36021D01*
X18234Y36074D01*
X18168Y36117D01*
X18096Y36149D01*
X18020Y36170D01*
X17942Y36178D01*
X17864Y36174D01*
X17787Y36158D01*
X17716Y36131D01*
Y60737D01*
X17816Y60676D01*
X18194Y60520D01*
X18592Y60424D01*
X19000Y60392D01*
X19408Y60424D01*
X19446Y60433D01*
X21002Y58877D01*
Y38000D01*
X20818D01*
X20456Y37967D01*
X20098Y37901D01*
X19748Y37803D01*
X19408Y37674D01*
X19081Y37515D01*
X19015Y37472D01*
X18956Y37419D01*
X18906Y37357D01*
X18867Y37288D01*
X18839Y37214D01*
X18823Y37137D01*
X18819Y37058D01*
X18827Y36979D01*
X18848Y36903D01*
X18880Y36830D01*
X18923Y36764D01*
X18976Y36705D01*
X19038Y36656D01*
X19107Y36616D01*
X19181Y36588D01*
X19258Y36572D01*
X19337Y36568D01*
X19416Y36576D01*
X19493Y36597D01*
X19564Y36630D01*
X19807Y36753D01*
X20062Y36850D01*
X20324Y36923D01*
X20592Y36972D01*
X20864Y36997D01*
X21002D01*
Y31003D01*
X20864D01*
X20592Y31028D01*
X20324Y31077D01*
X20062Y31150D01*
X19807Y31247D01*
X19563Y31367D01*
X19491Y31400D01*
X19415Y31421D01*
X19337Y31429D01*
X19259Y31425D01*
X19182Y31409D01*
X19108Y31381D01*
X19040Y31342D01*
X18979Y31293D01*
X18926Y31234D01*
X18883Y31168D01*
X18851Y31096D01*
X18830Y31020D01*
X18822Y30942D01*
X18826Y30864D01*
X18842Y30787D01*
X18870Y30713D01*
X18909Y30645D01*
X18958Y30584D01*
X19017Y30531D01*
X19083Y30489D01*
X19408Y30326D01*
X19748Y30197D01*
X20098Y30099D01*
X20456Y30033D01*
X20818Y30000D01*
X21002D01*
Y22250D01*
G37*
G36*
X17716Y23466D02*X14250Y26932D01*
Y78068D01*
X16932Y80750D01*
X17696D01*
X17716Y80737D01*
Y80263D01*
X17467Y80110D01*
X17156Y79844D01*
X16890Y79533D01*
X16676Y79184D01*
X16520Y78806D01*
X16424Y78408D01*
X16392Y78000D01*
X16424Y77592D01*
X16520Y77194D01*
X16676Y76816D01*
X16890Y76467D01*
X17156Y76156D01*
X17467Y75890D01*
X17716Y75737D01*
Y75263D01*
X17467Y75110D01*
X17156Y74844D01*
X16890Y74533D01*
X16676Y74184D01*
X16520Y73806D01*
X16424Y73408D01*
X16392Y73000D01*
X16424Y72592D01*
X16520Y72194D01*
X16676Y71816D01*
X16890Y71467D01*
X17156Y71156D01*
X17467Y70890D01*
X17716Y70737D01*
Y70263D01*
X17467Y70110D01*
X17156Y69844D01*
X16890Y69533D01*
X16676Y69184D01*
X16520Y68806D01*
X16424Y68408D01*
X16392Y68000D01*
X16424Y67592D01*
X16520Y67194D01*
X16676Y66816D01*
X16890Y66467D01*
X17156Y66156D01*
X17467Y65890D01*
X17716Y65737D01*
Y65263D01*
X17467Y65110D01*
X17156Y64844D01*
X16890Y64533D01*
X16676Y64184D01*
X16520Y63806D01*
X16424Y63408D01*
X16392Y63000D01*
X16424Y62592D01*
X16520Y62194D01*
X16676Y61816D01*
X16890Y61467D01*
X17156Y61156D01*
X17467Y60890D01*
X17716Y60737D01*
Y36131D01*
X17713Y36130D01*
X17645Y36091D01*
X17584Y36042D01*
X17531Y35983D01*
X17489Y35917D01*
X17326Y35592D01*
X17197Y35252D01*
X17099Y34902D01*
X17033Y34544D01*
X17000Y34182D01*
Y33818D01*
X17033Y33456D01*
X17099Y33098D01*
X17197Y32748D01*
X17326Y32408D01*
X17485Y32081D01*
X17528Y32015D01*
X17581Y31956D01*
X17643Y31906D01*
X17712Y31867D01*
X17716Y31865D01*
Y23466D01*
G37*
G36*
X91716Y17102D02*X94347Y14471D01*
X94404Y14404D01*
X94673Y14174D01*
X94673Y14174D01*
X94861Y14059D01*
X94975Y13989D01*
X95002Y13978D01*
Y7000D01*
X91716D01*
Y17102D01*
G37*
G36*
Y201500D02*X95002D01*
Y197000D01*
X94818D01*
X94456Y196967D01*
X94098Y196901D01*
X93748Y196803D01*
X93408Y196674D01*
X93081Y196515D01*
X93015Y196472D01*
X92956Y196419D01*
X92906Y196357D01*
X92867Y196288D01*
X92839Y196214D01*
X92823Y196137D01*
X92819Y196058D01*
X92827Y195979D01*
X92848Y195903D01*
X92880Y195830D01*
X92923Y195764D01*
X92976Y195705D01*
X93038Y195656D01*
X93107Y195616D01*
X93181Y195588D01*
X93258Y195572D01*
X93337Y195568D01*
X93416Y195576D01*
X93493Y195597D01*
X93564Y195630D01*
X93807Y195753D01*
X94062Y195850D01*
X94324Y195923D01*
X94592Y195972D01*
X94864Y195997D01*
X95002D01*
Y190003D01*
X94864D01*
X94592Y190028D01*
X94324Y190077D01*
X94062Y190150D01*
X93807Y190247D01*
X93563Y190367D01*
X93491Y190400D01*
X93415Y190421D01*
X93337Y190429D01*
X93259Y190425D01*
X93182Y190409D01*
X93108Y190381D01*
X93040Y190342D01*
X92979Y190293D01*
X92926Y190234D01*
X92883Y190168D01*
X92851Y190096D01*
X92830Y190020D01*
X92822Y189942D01*
X92826Y189864D01*
X92842Y189787D01*
X92870Y189713D01*
X92909Y189645D01*
X92958Y189584D01*
X93017Y189531D01*
X93083Y189489D01*
X93408Y189326D01*
X93748Y189197D01*
X94098Y189099D01*
X94456Y189033D01*
X94818Y189000D01*
X95002D01*
Y183123D01*
X91716Y179838D01*
Y190865D01*
X91786Y190839D01*
X91863Y190823D01*
X91942Y190819D01*
X92021Y190827D01*
X92097Y190848D01*
X92170Y190880D01*
X92236Y190923D01*
X92295Y190976D01*
X92344Y191038D01*
X92384Y191107D01*
X92412Y191181D01*
X92428Y191258D01*
X92432Y191337D01*
X92424Y191416D01*
X92403Y191493D01*
X92370Y191564D01*
X92247Y191807D01*
X92150Y192062D01*
X92077Y192324D01*
X92028Y192592D01*
X92003Y192864D01*
Y193136D01*
X92028Y193408D01*
X92077Y193676D01*
X92150Y193938D01*
X92247Y194193D01*
X92367Y194437D01*
X92400Y194509D01*
X92421Y194585D01*
X92429Y194663D01*
X92425Y194741D01*
X92409Y194818D01*
X92381Y194892D01*
X92342Y194960D01*
X92293Y195021D01*
X92234Y195074D01*
X92168Y195117D01*
X92096Y195149D01*
X92020Y195170D01*
X91942Y195178D01*
X91864Y195174D01*
X91787Y195158D01*
X91716Y195131D01*
Y201500D01*
G37*
G36*
Y352000D02*X95002D01*
Y204500D01*
X91716D01*
Y352000D01*
G37*
G36*
X76994Y29750D02*X79068D01*
X83067Y25751D01*
X83037Y25628D01*
X82988Y25000D01*
X83037Y24372D01*
X83184Y23760D01*
X83425Y23178D01*
X83754Y22642D01*
X84163Y22163D01*
X84642Y21754D01*
X85178Y21425D01*
X85760Y21184D01*
X86372Y21037D01*
X87000Y20988D01*
X87628Y21037D01*
X87751Y21067D01*
X91716Y17102D01*
Y7000D01*
X76994D01*
Y20988D01*
X77000Y20988D01*
X77628Y21037D01*
X78240Y21184D01*
X78822Y21425D01*
X79358Y21754D01*
X79837Y22163D01*
X80246Y22642D01*
X80575Y23178D01*
X80816Y23760D01*
X80963Y24372D01*
X81000Y25000D01*
X80963Y25628D01*
X80816Y26240D01*
X80575Y26822D01*
X80246Y27358D01*
X79837Y27837D01*
X79358Y28246D01*
X78822Y28575D01*
X78240Y28816D01*
X77628Y28963D01*
X77000Y29012D01*
X76994Y29012D01*
Y29750D01*
G37*
G36*
X36994Y30750D02*X38068D01*
X43067Y25751D01*
X43037Y25628D01*
X42988Y25000D01*
X43037Y24372D01*
X43184Y23760D01*
X43425Y23178D01*
X43754Y22642D01*
X44163Y22163D01*
X44642Y21754D01*
X45178Y21425D01*
X45760Y21184D01*
X46372Y21037D01*
X47000Y20988D01*
X47628Y21037D01*
X47751Y21067D01*
X53347Y15471D01*
X53404Y15404D01*
X53673Y15174D01*
X53673Y15174D01*
X53861Y15059D01*
X53975Y14989D01*
X54303Y14854D01*
X54647Y14771D01*
X54647D01*
X55000Y14743D01*
X55088Y14750D01*
X58912D01*
X59000Y14743D01*
X59353Y14771D01*
X59353Y14771D01*
X59697Y14854D01*
X60025Y14989D01*
X60327Y15174D01*
X60596Y15404D01*
X60653Y15471D01*
X66249Y21067D01*
X66372Y21037D01*
X67000Y20988D01*
X67628Y21037D01*
X68240Y21184D01*
X68822Y21425D01*
X69358Y21754D01*
X69837Y22163D01*
X70246Y22642D01*
X70575Y23178D01*
X70816Y23760D01*
X70963Y24372D01*
X71000Y25000D01*
X70963Y25628D01*
X70933Y25751D01*
X74932Y29750D01*
X76994D01*
Y29012D01*
X76372Y28963D01*
X75760Y28816D01*
X75178Y28575D01*
X74642Y28246D01*
X74163Y27837D01*
X73754Y27358D01*
X73425Y26822D01*
X73184Y26240D01*
X73037Y25628D01*
X72988Y25000D01*
X73037Y24372D01*
X73184Y23760D01*
X73425Y23178D01*
X73754Y22642D01*
X74163Y22163D01*
X74642Y21754D01*
X75178Y21425D01*
X75760Y21184D01*
X76372Y21037D01*
X76994Y20988D01*
Y7000D01*
X36994D01*
Y20988D01*
X37000Y20988D01*
X37628Y21037D01*
X38240Y21184D01*
X38822Y21425D01*
X39358Y21754D01*
X39837Y22163D01*
X40246Y22642D01*
X40575Y23178D01*
X40816Y23760D01*
X40963Y24372D01*
X41000Y25000D01*
X40963Y25628D01*
X40816Y26240D01*
X40575Y26822D01*
X40246Y27358D01*
X39837Y27837D01*
X39358Y28246D01*
X38822Y28575D01*
X38240Y28816D01*
X37628Y28963D01*
X37000Y29012D01*
X36994Y29012D01*
Y30750D01*
G37*
G36*
X13284Y21534D02*X16347Y18471D01*
X16404Y18404D01*
X16673Y18174D01*
X16673Y18174D01*
X16861Y18059D01*
X16975Y17989D01*
X17303Y17854D01*
X17647Y17771D01*
X17647D01*
X18000Y17743D01*
X18088Y17750D01*
X21912D01*
X22000Y17743D01*
X22353Y17771D01*
X22353Y17771D01*
X22697Y17854D01*
X23025Y17989D01*
X23327Y18174D01*
X23596Y18404D01*
X23653Y18471D01*
X26249Y21067D01*
X26372Y21037D01*
X27000Y20988D01*
X27628Y21037D01*
X28240Y21184D01*
X28822Y21425D01*
X29358Y21754D01*
X29837Y22163D01*
X30246Y22642D01*
X30575Y23178D01*
X30816Y23760D01*
X30963Y24372D01*
X31000Y25000D01*
X30963Y25628D01*
X30933Y25751D01*
X35932Y30750D01*
X36994D01*
Y29012D01*
X36372Y28963D01*
X35760Y28816D01*
X35178Y28575D01*
X34642Y28246D01*
X34163Y27837D01*
X33754Y27358D01*
X33425Y26822D01*
X33184Y26240D01*
X33037Y25628D01*
X32988Y25000D01*
X33037Y24372D01*
X33184Y23760D01*
X33425Y23178D01*
X33754Y22642D01*
X34163Y22163D01*
X34642Y21754D01*
X35178Y21425D01*
X35760Y21184D01*
X36372Y21037D01*
X36994Y20988D01*
Y7000D01*
X13284D01*
Y10869D01*
X13287Y10870D01*
X13355Y10909D01*
X13416Y10958D01*
X13469Y11017D01*
X13511Y11083D01*
X13674Y11408D01*
X13803Y11748D01*
X13901Y12098D01*
X13967Y12456D01*
X14000Y12818D01*
Y13182D01*
X13967Y13544D01*
X13901Y13902D01*
X13803Y14252D01*
X13674Y14592D01*
X13515Y14919D01*
X13472Y14985D01*
X13419Y15044D01*
X13357Y15094D01*
X13288Y15133D01*
X13284Y15135D01*
Y21534D01*
G37*
G36*
X10002Y24955D02*X10059Y24861D01*
X10174Y24673D01*
X10174Y24673D01*
X10404Y24404D01*
X10471Y24347D01*
X13284Y21534D01*
Y15135D01*
X13214Y15161D01*
X13137Y15177D01*
X13058Y15181D01*
X12979Y15173D01*
X12903Y15152D01*
X12830Y15120D01*
X12764Y15077D01*
X12705Y15024D01*
X12656Y14962D01*
X12616Y14893D01*
X12588Y14819D01*
X12572Y14742D01*
X12568Y14663D01*
X12576Y14584D01*
X12597Y14507D01*
X12630Y14436D01*
X12753Y14193D01*
X12850Y13938D01*
X12923Y13676D01*
X12972Y13408D01*
X12997Y13136D01*
Y12864D01*
X12972Y12592D01*
X12923Y12324D01*
X12850Y12062D01*
X12753Y11807D01*
X12633Y11563D01*
X12600Y11491D01*
X12579Y11416D01*
X12571Y11337D01*
X12575Y11259D01*
X12591Y11182D01*
X12619Y11108D01*
X12658Y11040D01*
X12707Y10979D01*
X12766Y10926D01*
X12832Y10883D01*
X12904Y10851D01*
X12980Y10830D01*
X13058Y10822D01*
X13136Y10826D01*
X13213Y10842D01*
X13284Y10869D01*
Y7000D01*
X10002D01*
Y9000D01*
X10182D01*
X10544Y9033D01*
X10902Y9099D01*
X11252Y9197D01*
X11592Y9326D01*
X11919Y9485D01*
X11985Y9528D01*
X12044Y9581D01*
X12094Y9643D01*
X12133Y9712D01*
X12161Y9786D01*
X12177Y9863D01*
X12181Y9942D01*
X12173Y10021D01*
X12152Y10097D01*
X12120Y10170D01*
X12077Y10236D01*
X12024Y10295D01*
X11962Y10344D01*
X11893Y10384D01*
X11819Y10412D01*
X11742Y10428D01*
X11663Y10432D01*
X11584Y10424D01*
X11507Y10403D01*
X11436Y10370D01*
X11193Y10247D01*
X10938Y10150D01*
X10676Y10077D01*
X10408Y10028D01*
X10136Y10003D01*
X10002D01*
Y15997D01*
X10136D01*
X10408Y15972D01*
X10676Y15923D01*
X10938Y15850D01*
X11193Y15753D01*
X11437Y15633D01*
X11509Y15600D01*
X11584Y15579D01*
X11663Y15571D01*
X11741Y15575D01*
X11818Y15591D01*
X11892Y15619D01*
X11960Y15658D01*
X12021Y15707D01*
X12074Y15766D01*
X12117Y15832D01*
X12149Y15904D01*
X12170Y15980D01*
X12178Y16058D01*
X12174Y16136D01*
X12158Y16213D01*
X12130Y16287D01*
X12091Y16355D01*
X12042Y16416D01*
X11983Y16469D01*
X11917Y16511D01*
X11592Y16674D01*
X11252Y16803D01*
X10902Y16901D01*
X10544Y16967D01*
X10182Y17000D01*
X10002D01*
Y24955D01*
G37*
G36*
Y85955D02*X10059Y85861D01*
X10174Y85673D01*
X10174Y85673D01*
X10404Y85404D01*
X10471Y85347D01*
X12818Y83000D01*
X10471Y80653D01*
X10404Y80596D01*
X10174Y80327D01*
X10002Y80045D01*
Y85955D01*
G37*
G36*
X80284Y200292D02*X80561Y200226D01*
X81000Y200191D01*
X81439Y200226D01*
X81868Y200329D01*
X82275Y200497D01*
X82651Y200728D01*
X82986Y201014D01*
X83272Y201349D01*
X83365Y201500D01*
X91716D01*
Y195131D01*
X91713Y195130D01*
X91645Y195091D01*
X91584Y195042D01*
X91531Y194983D01*
X91489Y194917D01*
X91326Y194592D01*
X91197Y194252D01*
X91099Y193902D01*
X91033Y193544D01*
X91000Y193182D01*
Y192818D01*
X91033Y192456D01*
X91099Y192098D01*
X91197Y191748D01*
X91326Y191408D01*
X91485Y191081D01*
X91528Y191015D01*
X91581Y190956D01*
X91643Y190906D01*
X91712Y190867D01*
X91716Y190865D01*
Y179838D01*
X80284Y168405D01*
Y200292D01*
G37*
G36*
Y352000D02*X91716D01*
Y204500D01*
X83365D01*
X83272Y204651D01*
X82986Y204986D01*
X82651Y205272D01*
X82275Y205503D01*
X81868Y205671D01*
X81439Y205774D01*
X81000Y205809D01*
X80561Y205774D01*
X80284Y205708D01*
Y302869D01*
X80287Y302870D01*
X80355Y302909D01*
X80416Y302958D01*
X80469Y303017D01*
X80511Y303083D01*
X80674Y303408D01*
X80803Y303748D01*
X80901Y304098D01*
X80967Y304456D01*
X81000Y304818D01*
Y305182D01*
X80967Y305544D01*
X80901Y305902D01*
X80803Y306252D01*
X80674Y306592D01*
X80515Y306919D01*
X80472Y306985D01*
X80419Y307044D01*
X80357Y307094D01*
X80288Y307133D01*
X80284Y307135D01*
Y352000D01*
G37*
G36*
X77002D02*X80284D01*
Y307135D01*
X80214Y307161D01*
X80137Y307177D01*
X80058Y307181D01*
X79979Y307173D01*
X79903Y307152D01*
X79830Y307120D01*
X79764Y307077D01*
X79705Y307024D01*
X79656Y306962D01*
X79616Y306893D01*
X79588Y306819D01*
X79572Y306742D01*
X79568Y306663D01*
X79576Y306584D01*
X79597Y306507D01*
X79630Y306436D01*
X79753Y306193D01*
X79850Y305938D01*
X79923Y305676D01*
X79972Y305408D01*
X79997Y305136D01*
Y304864D01*
X79972Y304592D01*
X79923Y304324D01*
X79850Y304062D01*
X79753Y303807D01*
X79633Y303563D01*
X79600Y303491D01*
X79579Y303416D01*
X79571Y303337D01*
X79575Y303259D01*
X79591Y303182D01*
X79619Y303108D01*
X79658Y303040D01*
X79707Y302979D01*
X79766Y302926D01*
X79832Y302883D01*
X79904Y302851D01*
X79980Y302830D01*
X80058Y302822D01*
X80136Y302826D01*
X80213Y302842D01*
X80284Y302869D01*
Y205708D01*
X80132Y205671D01*
X79725Y205503D01*
X79349Y205272D01*
X79014Y204986D01*
X78728Y204651D01*
X78497Y204275D01*
X78329Y203868D01*
X78226Y203439D01*
X78191Y203000D01*
X78226Y202561D01*
X78329Y202132D01*
X78497Y201725D01*
X78728Y201349D01*
X79014Y201014D01*
X79349Y200728D01*
X79725Y200497D01*
X80132Y200329D01*
X80284Y200292D01*
Y168405D01*
X77002Y165123D01*
Y301000D01*
X77182D01*
X77544Y301033D01*
X77902Y301099D01*
X78252Y301197D01*
X78592Y301326D01*
X78919Y301485D01*
X78985Y301528D01*
X79044Y301581D01*
X79094Y301643D01*
X79133Y301712D01*
X79161Y301786D01*
X79177Y301863D01*
X79181Y301942D01*
X79173Y302021D01*
X79152Y302097D01*
X79120Y302170D01*
X79077Y302236D01*
X79024Y302295D01*
X78962Y302344D01*
X78893Y302384D01*
X78819Y302412D01*
X78742Y302428D01*
X78663Y302432D01*
X78584Y302424D01*
X78507Y302403D01*
X78436Y302370D01*
X78193Y302247D01*
X77938Y302150D01*
X77676Y302077D01*
X77408Y302028D01*
X77136Y302003D01*
X77002D01*
Y307997D01*
X77136D01*
X77408Y307972D01*
X77676Y307923D01*
X77938Y307850D01*
X78193Y307753D01*
X78437Y307633D01*
X78509Y307600D01*
X78584Y307579D01*
X78663Y307571D01*
X78741Y307575D01*
X78818Y307591D01*
X78892Y307619D01*
X78960Y307658D01*
X79021Y307707D01*
X79074Y307766D01*
X79117Y307832D01*
X79149Y307904D01*
X79170Y307980D01*
X79178Y308058D01*
X79174Y308136D01*
X79158Y308213D01*
X79130Y308287D01*
X79091Y308355D01*
X79042Y308416D01*
X78983Y308469D01*
X78917Y308511D01*
X78592Y308674D01*
X78252Y308803D01*
X77902Y308901D01*
X77544Y308967D01*
X77182Y309000D01*
X77002D01*
Y352000D01*
G37*
G36*
X73716D02*X77002D01*
Y309000D01*
X76818D01*
X76456Y308967D01*
X76098Y308901D01*
X75748Y308803D01*
X75408Y308674D01*
X75081Y308515D01*
X75015Y308472D01*
X74956Y308419D01*
X74906Y308357D01*
X74867Y308288D01*
X74839Y308214D01*
X74823Y308137D01*
X74819Y308058D01*
X74827Y307979D01*
X74848Y307903D01*
X74880Y307830D01*
X74923Y307764D01*
X74976Y307705D01*
X75038Y307656D01*
X75107Y307616D01*
X75181Y307588D01*
X75258Y307572D01*
X75337Y307568D01*
X75416Y307576D01*
X75493Y307597D01*
X75564Y307630D01*
X75807Y307753D01*
X76062Y307850D01*
X76324Y307923D01*
X76592Y307972D01*
X76864Y307997D01*
X77002D01*
Y302003D01*
X76864D01*
X76592Y302028D01*
X76324Y302077D01*
X76062Y302150D01*
X75807Y302247D01*
X75563Y302367D01*
X75491Y302400D01*
X75415Y302421D01*
X75337Y302429D01*
X75259Y302425D01*
X75182Y302409D01*
X75108Y302381D01*
X75040Y302342D01*
X74979Y302293D01*
X74926Y302234D01*
X74883Y302168D01*
X74851Y302096D01*
X74830Y302020D01*
X74822Y301942D01*
X74826Y301864D01*
X74842Y301787D01*
X74870Y301713D01*
X74909Y301645D01*
X74958Y301584D01*
X75017Y301531D01*
X75083Y301489D01*
X75408Y301326D01*
X75748Y301197D01*
X76098Y301099D01*
X76456Y301033D01*
X76818Y301000D01*
X77002D01*
Y165123D01*
X73716Y161838D01*
Y302865D01*
X73786Y302839D01*
X73863Y302823D01*
X73942Y302819D01*
X74021Y302827D01*
X74097Y302848D01*
X74170Y302880D01*
X74236Y302923D01*
X74295Y302976D01*
X74344Y303038D01*
X74384Y303107D01*
X74412Y303181D01*
X74428Y303258D01*
X74432Y303337D01*
X74424Y303416D01*
X74403Y303493D01*
X74370Y303564D01*
X74247Y303807D01*
X74150Y304062D01*
X74077Y304324D01*
X74028Y304592D01*
X74003Y304864D01*
Y305136D01*
X74028Y305408D01*
X74077Y305676D01*
X74150Y305938D01*
X74247Y306193D01*
X74367Y306437D01*
X74400Y306509D01*
X74421Y306585D01*
X74429Y306663D01*
X74425Y306741D01*
X74409Y306818D01*
X74381Y306892D01*
X74342Y306960D01*
X74293Y307021D01*
X74234Y307074D01*
X74168Y307117D01*
X74096Y307149D01*
X74020Y307170D01*
X73942Y307178D01*
X73864Y307174D01*
X73787Y307158D01*
X73716Y307131D01*
Y352000D01*
G37*
G36*
X48498D02*X73716D01*
Y307131D01*
X73713Y307130D01*
X73645Y307091D01*
X73584Y307042D01*
X73531Y306983D01*
X73489Y306917D01*
X73326Y306592D01*
X73197Y306252D01*
X73099Y305902D01*
X73033Y305544D01*
X73000Y305182D01*
Y304818D01*
X73033Y304456D01*
X73099Y304098D01*
X73197Y303748D01*
X73326Y303408D01*
X73485Y303081D01*
X73528Y303015D01*
X73581Y302956D01*
X73643Y302906D01*
X73712Y302867D01*
X73716Y302865D01*
Y161838D01*
X68981Y157102D01*
X68936Y157064D01*
X68783Y156884D01*
X68659Y156683D01*
X68569Y156465D01*
X68514Y156235D01*
X68514Y156235D01*
X68495Y156000D01*
X68500Y155941D01*
Y97621D01*
X53981Y83102D01*
X53936Y83064D01*
X53783Y82884D01*
X53659Y82683D01*
X53569Y82465D01*
X53514Y82235D01*
X53514Y82235D01*
X53495Y82000D01*
X53500Y81941D01*
Y62621D01*
X49379Y58500D01*
X48498D01*
Y65062D01*
X48511Y65083D01*
X48674Y65408D01*
X48803Y65748D01*
X48901Y66098D01*
X48967Y66456D01*
X49000Y66818D01*
Y67182D01*
X48967Y67544D01*
X48901Y67902D01*
X48803Y68252D01*
X48674Y68592D01*
X48515Y68919D01*
X48498Y68945D01*
Y80376D01*
X64019Y95898D01*
X64064Y95936D01*
X64217Y96115D01*
X64217Y96116D01*
X64341Y96317D01*
X64431Y96535D01*
X64486Y96765D01*
X64505Y97000D01*
X64500Y97059D01*
Y342635D01*
X64651Y342728D01*
X64986Y343014D01*
X65272Y343349D01*
X65503Y343725D01*
X65671Y344132D01*
X65774Y344561D01*
X65800Y345000D01*
X65774Y345439D01*
X65671Y345868D01*
X65503Y346275D01*
X65272Y346651D01*
X64986Y346986D01*
X64651Y347272D01*
X64275Y347503D01*
X63868Y347671D01*
X63439Y347774D01*
X63000Y347809D01*
X62561Y347774D01*
X62132Y347671D01*
X61725Y347503D01*
X61349Y347272D01*
X61014Y346986D01*
X60728Y346651D01*
X60497Y346275D01*
X60329Y345868D01*
X60226Y345439D01*
X60191Y345000D01*
X60226Y344561D01*
X60329Y344132D01*
X60497Y343725D01*
X60728Y343349D01*
X61014Y343014D01*
X61349Y342728D01*
X61500Y342635D01*
Y97621D01*
X48498Y84619D01*
Y85376D01*
X59019Y95898D01*
X59064Y95936D01*
X59217Y96115D01*
X59217Y96116D01*
X59341Y96317D01*
X59431Y96535D01*
X59486Y96765D01*
X59505Y97000D01*
X59500Y97059D01*
Y332635D01*
X59651Y332728D01*
X59986Y333014D01*
X60272Y333349D01*
X60503Y333725D01*
X60671Y334132D01*
X60774Y334561D01*
X60800Y335000D01*
X60774Y335439D01*
X60671Y335868D01*
X60503Y336275D01*
X60272Y336651D01*
X59986Y336986D01*
X59651Y337272D01*
X59275Y337503D01*
X58868Y337671D01*
X58439Y337774D01*
X58000Y337809D01*
X57561Y337774D01*
X57132Y337671D01*
X56725Y337503D01*
X56349Y337272D01*
X56014Y336986D01*
X55728Y336651D01*
X55497Y336275D01*
X55329Y335868D01*
X55226Y335439D01*
X55191Y335000D01*
X55226Y334561D01*
X55329Y334132D01*
X55497Y333725D01*
X55728Y333349D01*
X56014Y333014D01*
X56349Y332728D01*
X56500Y332635D01*
Y97621D01*
X48498Y89619D01*
Y209177D01*
X48504Y209177D01*
X49132Y209226D01*
X49744Y209373D01*
X50326Y209614D01*
X50862Y209943D01*
X51341Y210352D01*
X51750Y210831D01*
X52079Y211367D01*
X52320Y211949D01*
X52467Y212561D01*
X52504Y213189D01*
X52467Y213817D01*
X52320Y214429D01*
X52079Y215011D01*
X51750Y215547D01*
X51341Y216026D01*
X50862Y216435D01*
X50326Y216764D01*
X49744Y217005D01*
X49132Y217152D01*
X48504Y217201D01*
X48498Y217201D01*
Y352000D01*
G37*
G36*
Y84619D02*X33379Y69500D01*
X26130D01*
X26110Y69533D01*
X25844Y69844D01*
X25533Y70110D01*
X25184Y70324D01*
X24806Y70480D01*
X24724Y70500D01*
X24806Y70520D01*
X25184Y70676D01*
X25533Y70890D01*
X25844Y71156D01*
X26110Y71467D01*
X26130Y71500D01*
X33941D01*
X34000Y71495D01*
X34235Y71514D01*
X34235Y71514D01*
X34465Y71569D01*
X34683Y71659D01*
X34884Y71783D01*
X35064Y71936D01*
X35102Y71981D01*
X48498Y85376D01*
Y84619D01*
G37*
G36*
Y58500D02*X45002D01*
Y63000D01*
X45182D01*
X45544Y63033D01*
X45902Y63099D01*
X46252Y63197D01*
X46592Y63326D01*
X46919Y63485D01*
X46985Y63528D01*
X47044Y63581D01*
X47094Y63643D01*
X47133Y63712D01*
X47161Y63786D01*
X47177Y63863D01*
X47181Y63942D01*
X47173Y64021D01*
X47152Y64097D01*
X47120Y64170D01*
X47077Y64236D01*
X47024Y64295D01*
X46962Y64344D01*
X46893Y64384D01*
X46819Y64412D01*
X46742Y64428D01*
X46663Y64432D01*
X46584Y64424D01*
X46507Y64403D01*
X46436Y64370D01*
X46193Y64247D01*
X45938Y64150D01*
X45676Y64077D01*
X45408Y64028D01*
X45136Y64003D01*
X45002D01*
Y69997D01*
X45136D01*
X45408Y69972D01*
X45676Y69923D01*
X45938Y69850D01*
X46193Y69753D01*
X46437Y69633D01*
X46509Y69600D01*
X46584Y69579D01*
X46663Y69571D01*
X46741Y69575D01*
X46818Y69591D01*
X46892Y69619D01*
X46960Y69658D01*
X47021Y69707D01*
X47074Y69766D01*
X47117Y69832D01*
X47149Y69904D01*
X47170Y69980D01*
X47178Y70058D01*
X47174Y70136D01*
X47158Y70213D01*
X47130Y70287D01*
X47091Y70355D01*
X47042Y70416D01*
X46983Y70469D01*
X46917Y70511D01*
X46592Y70674D01*
X46252Y70803D01*
X45902Y70901D01*
X45544Y70967D01*
X45182Y71000D01*
X45002D01*
Y76880D01*
X48498Y80376D01*
Y68945D01*
X48472Y68985D01*
X48419Y69044D01*
X48357Y69094D01*
X48288Y69133D01*
X48214Y69161D01*
X48137Y69177D01*
X48058Y69181D01*
X47979Y69173D01*
X47903Y69152D01*
X47830Y69120D01*
X47764Y69077D01*
X47705Y69024D01*
X47656Y68962D01*
X47616Y68893D01*
X47588Y68819D01*
X47572Y68742D01*
X47568Y68663D01*
X47576Y68584D01*
X47597Y68507D01*
X47630Y68436D01*
X47753Y68193D01*
X47850Y67938D01*
X47923Y67676D01*
X47972Y67408D01*
X47997Y67136D01*
Y66864D01*
X47972Y66592D01*
X47923Y66324D01*
X47850Y66062D01*
X47753Y65807D01*
X47633Y65563D01*
X47600Y65491D01*
X47579Y65416D01*
X47571Y65337D01*
X47575Y65259D01*
X47591Y65182D01*
X47619Y65108D01*
X47658Y65040D01*
X47707Y64979D01*
X47766Y64926D01*
X47832Y64883D01*
X47904Y64851D01*
X47980Y64830D01*
X48058Y64822D01*
X48136Y64826D01*
X48213Y64842D01*
X48287Y64870D01*
X48355Y64909D01*
X48416Y64958D01*
X48469Y65017D01*
X48498Y65062D01*
Y58500D01*
G37*
G36*
X45002D02*X41716D01*
Y64865D01*
X41786Y64839D01*
X41863Y64823D01*
X41942Y64819D01*
X42021Y64827D01*
X42097Y64848D01*
X42170Y64880D01*
X42236Y64923D01*
X42295Y64976D01*
X42344Y65038D01*
X42384Y65107D01*
X42412Y65181D01*
X42428Y65258D01*
X42432Y65337D01*
X42424Y65416D01*
X42403Y65493D01*
X42370Y65564D01*
X42247Y65807D01*
X42150Y66062D01*
X42077Y66324D01*
X42028Y66592D01*
X42003Y66864D01*
Y67136D01*
X42028Y67408D01*
X42077Y67676D01*
X42150Y67938D01*
X42247Y68193D01*
X42367Y68437D01*
X42400Y68509D01*
X42421Y68585D01*
X42429Y68663D01*
X42425Y68741D01*
X42409Y68818D01*
X42381Y68892D01*
X42342Y68960D01*
X42293Y69021D01*
X42234Y69074D01*
X42168Y69117D01*
X42096Y69149D01*
X42020Y69170D01*
X41942Y69178D01*
X41864Y69174D01*
X41787Y69158D01*
X41716Y69131D01*
Y73595D01*
X45002Y76880D01*
Y71000D01*
X44818D01*
X44456Y70967D01*
X44098Y70901D01*
X43748Y70803D01*
X43408Y70674D01*
X43081Y70515D01*
X43015Y70472D01*
X42956Y70419D01*
X42906Y70357D01*
X42867Y70288D01*
X42839Y70214D01*
X42823Y70137D01*
X42819Y70058D01*
X42827Y69979D01*
X42848Y69903D01*
X42880Y69830D01*
X42923Y69764D01*
X42976Y69705D01*
X43038Y69656D01*
X43107Y69616D01*
X43181Y69588D01*
X43258Y69572D01*
X43337Y69568D01*
X43416Y69576D01*
X43493Y69597D01*
X43564Y69630D01*
X43807Y69753D01*
X44062Y69850D01*
X44324Y69923D01*
X44592Y69972D01*
X44864Y69997D01*
X45002D01*
Y64003D01*
X44864D01*
X44592Y64028D01*
X44324Y64077D01*
X44062Y64150D01*
X43807Y64247D01*
X43563Y64367D01*
X43491Y64400D01*
X43415Y64421D01*
X43337Y64429D01*
X43259Y64425D01*
X43182Y64409D01*
X43108Y64381D01*
X43040Y64342D01*
X42979Y64293D01*
X42926Y64234D01*
X42883Y64168D01*
X42851Y64096D01*
X42830Y64020D01*
X42822Y63942D01*
X42826Y63864D01*
X42842Y63787D01*
X42870Y63713D01*
X42909Y63645D01*
X42958Y63584D01*
X43017Y63531D01*
X43083Y63489D01*
X43408Y63326D01*
X43748Y63197D01*
X44098Y63099D01*
X44456Y63033D01*
X44818Y63000D01*
X45002D01*
Y58500D01*
G37*
G36*
X41716D02*X25621D01*
X23706Y60415D01*
X24000Y60392D01*
X24408Y60424D01*
X24806Y60520D01*
X25184Y60676D01*
X25533Y60890D01*
X25844Y61156D01*
X26110Y61467D01*
X26324Y61816D01*
X26480Y62194D01*
X26576Y62592D01*
X26600Y63000D01*
X26576Y63408D01*
X26480Y63806D01*
X26324Y64184D01*
X26110Y64533D01*
X25844Y64844D01*
X25533Y65110D01*
X25184Y65324D01*
X24806Y65480D01*
X24724Y65500D01*
X24806Y65520D01*
X25184Y65676D01*
X25533Y65890D01*
X25844Y66156D01*
X26110Y66467D01*
X26130Y66500D01*
X33941D01*
X34000Y66495D01*
X34235Y66514D01*
X34235Y66514D01*
X34465Y66569D01*
X34683Y66659D01*
X34884Y66783D01*
X35064Y66936D01*
X35102Y66981D01*
X41716Y73595D01*
Y69131D01*
X41713Y69130D01*
X41645Y69091D01*
X41584Y69042D01*
X41531Y68983D01*
X41489Y68917D01*
X41326Y68592D01*
X41197Y68252D01*
X41099Y67902D01*
X41033Y67544D01*
X41000Y67182D01*
Y66818D01*
X41033Y66456D01*
X41099Y66098D01*
X41197Y65748D01*
X41326Y65408D01*
X41485Y65081D01*
X41528Y65015D01*
X41581Y64956D01*
X41643Y64906D01*
X41712Y64867D01*
X41716Y64865D01*
Y58500D01*
G37*
G36*
X47284Y209368D02*X47876Y209226D01*
X48498Y209177D01*
Y89619D01*
X47284Y88405D01*
Y209368D01*
G37*
G36*
Y352000D02*X48498D01*
Y217201D01*
X47876Y217152D01*
X47284Y217010D01*
Y302869D01*
X47287Y302870D01*
X47355Y302909D01*
X47416Y302958D01*
X47469Y303017D01*
X47511Y303083D01*
X47674Y303408D01*
X47803Y303748D01*
X47901Y304098D01*
X47967Y304456D01*
X48000Y304818D01*
Y305182D01*
X47967Y305544D01*
X47901Y305902D01*
X47803Y306252D01*
X47674Y306592D01*
X47515Y306919D01*
X47472Y306985D01*
X47419Y307044D01*
X47357Y307094D01*
X47288Y307133D01*
X47284Y307135D01*
Y352000D01*
G37*
G36*
X42284D02*X47284D01*
Y307135D01*
X47214Y307161D01*
X47137Y307177D01*
X47058Y307181D01*
X46979Y307173D01*
X46903Y307152D01*
X46830Y307120D01*
X46764Y307077D01*
X46705Y307024D01*
X46656Y306962D01*
X46616Y306893D01*
X46588Y306819D01*
X46572Y306742D01*
X46568Y306663D01*
X46576Y306584D01*
X46597Y306507D01*
X46630Y306436D01*
X46753Y306193D01*
X46850Y305938D01*
X46923Y305676D01*
X46972Y305408D01*
X46997Y305136D01*
Y304864D01*
X46972Y304592D01*
X46923Y304324D01*
X46850Y304062D01*
X46753Y303807D01*
X46633Y303563D01*
X46600Y303491D01*
X46579Y303416D01*
X46571Y303337D01*
X46575Y303259D01*
X46591Y303182D01*
X46619Y303108D01*
X46658Y303040D01*
X46707Y302979D01*
X46766Y302926D01*
X46832Y302883D01*
X46904Y302851D01*
X46980Y302830D01*
X47058Y302822D01*
X47136Y302826D01*
X47213Y302842D01*
X47284Y302869D01*
Y217010D01*
X47264Y217005D01*
X46682Y216764D01*
X46146Y216435D01*
X45667Y216026D01*
X45258Y215547D01*
X44929Y215011D01*
X44688Y214429D01*
X44541Y213817D01*
X44492Y213189D01*
X44541Y212561D01*
X44688Y211949D01*
X44929Y211367D01*
X45258Y210831D01*
X45667Y210352D01*
X46146Y209943D01*
X46682Y209614D01*
X47264Y209373D01*
X47284Y209368D01*
Y88405D01*
X42284Y83405D01*
Y189869D01*
X42287Y189870D01*
X42355Y189909D01*
X42416Y189958D01*
X42469Y190017D01*
X42511Y190083D01*
X42674Y190408D01*
X42803Y190748D01*
X42901Y191098D01*
X42967Y191456D01*
X43000Y191818D01*
Y192182D01*
X42967Y192544D01*
X42901Y192902D01*
X42803Y193252D01*
X42674Y193592D01*
X42515Y193919D01*
X42472Y193985D01*
X42419Y194044D01*
X42357Y194094D01*
X42288Y194133D01*
X42284Y194135D01*
Y301388D01*
X42408Y301326D01*
X42748Y301197D01*
X43098Y301099D01*
X43456Y301033D01*
X43818Y301000D01*
X44182D01*
X44544Y301033D01*
X44902Y301099D01*
X45252Y301197D01*
X45592Y301326D01*
X45919Y301485D01*
X45985Y301528D01*
X46044Y301581D01*
X46094Y301643D01*
X46133Y301712D01*
X46161Y301786D01*
X46177Y301863D01*
X46181Y301942D01*
X46173Y302021D01*
X46152Y302097D01*
X46120Y302170D01*
X46077Y302236D01*
X46024Y302295D01*
X45962Y302344D01*
X45893Y302384D01*
X45819Y302412D01*
X45742Y302428D01*
X45663Y302432D01*
X45584Y302424D01*
X45507Y302403D01*
X45436Y302370D01*
X45193Y302247D01*
X44938Y302150D01*
X44676Y302077D01*
X44408Y302028D01*
X44136Y302003D01*
X43864D01*
X43592Y302028D01*
X43324Y302077D01*
X43062Y302150D01*
X42807Y302247D01*
X42563Y302367D01*
X42491Y302400D01*
X42415Y302421D01*
X42337Y302429D01*
X42284Y302427D01*
Y307570D01*
X42337Y307568D01*
X42416Y307576D01*
X42493Y307597D01*
X42564Y307630D01*
X42807Y307753D01*
X43062Y307850D01*
X43324Y307923D01*
X43592Y307972D01*
X43864Y307997D01*
X44136D01*
X44408Y307972D01*
X44676Y307923D01*
X44938Y307850D01*
X45193Y307753D01*
X45437Y307633D01*
X45509Y307600D01*
X45584Y307579D01*
X45663Y307571D01*
X45741Y307575D01*
X45818Y307591D01*
X45892Y307619D01*
X45960Y307658D01*
X46021Y307707D01*
X46074Y307766D01*
X46117Y307832D01*
X46149Y307904D01*
X46170Y307980D01*
X46178Y308058D01*
X46174Y308136D01*
X46158Y308213D01*
X46130Y308287D01*
X46091Y308355D01*
X46042Y308416D01*
X45983Y308469D01*
X45917Y308511D01*
X45592Y308674D01*
X45252Y308803D01*
X44902Y308901D01*
X44544Y308967D01*
X44182Y309000D01*
X43818D01*
X43456Y308967D01*
X43098Y308901D01*
X42748Y308803D01*
X42408Y308674D01*
X42284Y308613D01*
Y352000D01*
G37*
G36*
X40716D02*X42284D01*
Y308613D01*
X42081Y308515D01*
X42015Y308472D01*
X41956Y308419D01*
X41906Y308357D01*
X41867Y308288D01*
X41839Y308214D01*
X41823Y308137D01*
X41819Y308058D01*
X41827Y307979D01*
X41848Y307903D01*
X41880Y307830D01*
X41923Y307764D01*
X41976Y307705D01*
X42038Y307656D01*
X42107Y307616D01*
X42181Y307588D01*
X42258Y307572D01*
X42284Y307570D01*
Y302427D01*
X42259Y302425D01*
X42182Y302409D01*
X42108Y302381D01*
X42040Y302342D01*
X41979Y302293D01*
X41926Y302234D01*
X41883Y302168D01*
X41851Y302096D01*
X41830Y302020D01*
X41822Y301942D01*
X41826Y301864D01*
X41842Y301787D01*
X41870Y301713D01*
X41909Y301645D01*
X41958Y301584D01*
X42017Y301531D01*
X42083Y301489D01*
X42284Y301388D01*
Y194135D01*
X42214Y194161D01*
X42137Y194177D01*
X42058Y194181D01*
X41979Y194173D01*
X41903Y194152D01*
X41830Y194120D01*
X41764Y194077D01*
X41705Y194024D01*
X41656Y193962D01*
X41616Y193893D01*
X41588Y193819D01*
X41572Y193742D01*
X41568Y193663D01*
X41576Y193584D01*
X41597Y193507D01*
X41630Y193436D01*
X41753Y193193D01*
X41850Y192938D01*
X41923Y192676D01*
X41972Y192408D01*
X41997Y192136D01*
Y191864D01*
X41972Y191592D01*
X41923Y191324D01*
X41850Y191062D01*
X41753Y190807D01*
X41633Y190563D01*
X41600Y190491D01*
X41579Y190416D01*
X41571Y190337D01*
X41575Y190259D01*
X41591Y190182D01*
X41619Y190108D01*
X41658Y190040D01*
X41707Y189979D01*
X41766Y189926D01*
X41832Y189883D01*
X41904Y189851D01*
X41980Y189830D01*
X42058Y189822D01*
X42136Y189826D01*
X42213Y189842D01*
X42284Y189869D01*
Y83405D01*
X40716Y81838D01*
Y188387D01*
X40919Y188485D01*
X40985Y188528D01*
X41044Y188581D01*
X41094Y188643D01*
X41133Y188712D01*
X41161Y188786D01*
X41177Y188863D01*
X41181Y188942D01*
X41173Y189021D01*
X41152Y189097D01*
X41120Y189170D01*
X41077Y189236D01*
X41024Y189295D01*
X40962Y189344D01*
X40893Y189384D01*
X40819Y189412D01*
X40742Y189428D01*
X40716Y189430D01*
Y190545D01*
X40826Y190673D01*
X41011Y190975D01*
X41146Y191303D01*
X41229Y191647D01*
X41250Y192000D01*
Y192378D01*
X41229Y192731D01*
X41146Y193075D01*
X41011Y193403D01*
X40826Y193705D01*
X40716Y193833D01*
Y194573D01*
X40741Y194575D01*
X40818Y194591D01*
X40892Y194619D01*
X40960Y194658D01*
X41021Y194707D01*
X41074Y194766D01*
X41117Y194832D01*
X41149Y194904D01*
X41170Y194980D01*
X41178Y195058D01*
X41174Y195136D01*
X41158Y195213D01*
X41130Y195287D01*
X41091Y195355D01*
X41042Y195416D01*
X40983Y195469D01*
X40917Y195511D01*
X40716Y195612D01*
Y302865D01*
X40786Y302839D01*
X40863Y302823D01*
X40942Y302819D01*
X41021Y302827D01*
X41097Y302848D01*
X41170Y302880D01*
X41236Y302923D01*
X41295Y302976D01*
X41344Y303038D01*
X41384Y303107D01*
X41412Y303181D01*
X41428Y303258D01*
X41432Y303337D01*
X41424Y303416D01*
X41403Y303493D01*
X41370Y303564D01*
X41247Y303807D01*
X41150Y304062D01*
X41077Y304324D01*
X41028Y304592D01*
X41003Y304864D01*
Y305136D01*
X41028Y305408D01*
X41077Y305676D01*
X41150Y305938D01*
X41247Y306193D01*
X41367Y306437D01*
X41400Y306509D01*
X41421Y306585D01*
X41429Y306663D01*
X41425Y306741D01*
X41409Y306818D01*
X41381Y306892D01*
X41342Y306960D01*
X41293Y307021D01*
X41234Y307074D01*
X41168Y307117D01*
X41096Y307149D01*
X41020Y307170D01*
X40942Y307178D01*
X40864Y307174D01*
X40787Y307158D01*
X40716Y307131D01*
Y352000D01*
G37*
G36*
Y193833D02*X40596Y193974D01*
X40327Y194204D01*
X40025Y194389D01*
X39697Y194524D01*
X39353Y194607D01*
X39000Y194635D01*
Y194997D01*
X39136D01*
X39408Y194972D01*
X39676Y194923D01*
X39938Y194850D01*
X40193Y194753D01*
X40437Y194633D01*
X40509Y194600D01*
X40584Y194579D01*
X40663Y194571D01*
X40716Y194573D01*
Y193833D01*
G37*
G36*
Y189430D02*X40663Y189432D01*
X40584Y189424D01*
X40507Y189403D01*
X40436Y189370D01*
X40193Y189247D01*
X39938Y189150D01*
X39676Y189077D01*
X39408Y189028D01*
X39136Y189003D01*
X39000D01*
Y189743D01*
X39353Y189771D01*
X39697Y189854D01*
X40025Y189989D01*
X40327Y190174D01*
X40596Y190404D01*
X40716Y190545D01*
Y189430D01*
G37*
G36*
Y81838D02*X39000Y80121D01*
Y188000D01*
X39182D01*
X39544Y188033D01*
X39902Y188099D01*
X40252Y188197D01*
X40592Y188326D01*
X40716Y188387D01*
Y81838D01*
G37*
G36*
X39000Y352000D02*X40716D01*
Y307131D01*
X40713Y307130D01*
X40645Y307091D01*
X40584Y307042D01*
X40531Y306983D01*
X40489Y306917D01*
X40326Y306592D01*
X40197Y306252D01*
X40099Y305902D01*
X40033Y305544D01*
X40000Y305182D01*
Y304818D01*
X40033Y304456D01*
X40099Y304098D01*
X40197Y303748D01*
X40326Y303408D01*
X40485Y303081D01*
X40528Y303015D01*
X40581Y302956D01*
X40643Y302906D01*
X40712Y302867D01*
X40716Y302865D01*
Y195612D01*
X40592Y195674D01*
X40252Y195803D01*
X39902Y195901D01*
X39544Y195967D01*
X39182Y196000D01*
X39000D01*
Y352000D01*
G37*
G36*
X35716D02*X39000D01*
Y196000D01*
X38818D01*
X38456Y195967D01*
X38098Y195901D01*
X37748Y195803D01*
X37408Y195674D01*
X37081Y195515D01*
X37015Y195472D01*
X36956Y195419D01*
X36906Y195357D01*
X36867Y195288D01*
X36839Y195214D01*
X36823Y195137D01*
X36819Y195058D01*
X36827Y194979D01*
X36848Y194903D01*
X36880Y194830D01*
X36923Y194764D01*
X36976Y194705D01*
X37038Y194656D01*
X37107Y194616D01*
X37181Y194588D01*
X37258Y194572D01*
X37337Y194568D01*
X37416Y194576D01*
X37493Y194597D01*
X37564Y194630D01*
X37807Y194753D01*
X38062Y194850D01*
X38324Y194923D01*
X38592Y194972D01*
X38864Y194997D01*
X39000D01*
Y194635D01*
X38647Y194607D01*
X38303Y194524D01*
X37975Y194389D01*
X37673Y194204D01*
X37404Y193974D01*
X37174Y193705D01*
X36989Y193403D01*
X36854Y193075D01*
X36771Y192731D01*
X36750Y192378D01*
Y192000D01*
X36771Y191647D01*
X36854Y191303D01*
X36989Y190975D01*
X37174Y190673D01*
X37404Y190404D01*
X37673Y190174D01*
X37975Y189989D01*
X38303Y189854D01*
X38647Y189771D01*
X39000Y189743D01*
Y189003D01*
X38864D01*
X38592Y189028D01*
X38324Y189077D01*
X38062Y189150D01*
X37807Y189247D01*
X37563Y189367D01*
X37491Y189400D01*
X37415Y189421D01*
X37337Y189429D01*
X37259Y189425D01*
X37182Y189409D01*
X37108Y189381D01*
X37040Y189342D01*
X36979Y189293D01*
X36926Y189234D01*
X36883Y189168D01*
X36851Y189096D01*
X36830Y189020D01*
X36822Y188942D01*
X36826Y188864D01*
X36842Y188787D01*
X36870Y188713D01*
X36909Y188645D01*
X36958Y188584D01*
X37017Y188531D01*
X37083Y188489D01*
X37408Y188326D01*
X37748Y188197D01*
X38098Y188099D01*
X38456Y188033D01*
X38818Y188000D01*
X39000D01*
Y80121D01*
X35716Y76838D01*
Y189865D01*
X35786Y189839D01*
X35863Y189823D01*
X35942Y189819D01*
X36021Y189827D01*
X36097Y189848D01*
X36170Y189880D01*
X36236Y189923D01*
X36295Y189976D01*
X36344Y190038D01*
X36384Y190107D01*
X36412Y190181D01*
X36428Y190258D01*
X36432Y190337D01*
X36424Y190416D01*
X36403Y190493D01*
X36370Y190564D01*
X36247Y190807D01*
X36150Y191062D01*
X36077Y191324D01*
X36028Y191592D01*
X36003Y191864D01*
Y192136D01*
X36028Y192408D01*
X36077Y192676D01*
X36150Y192938D01*
X36247Y193193D01*
X36367Y193437D01*
X36400Y193509D01*
X36421Y193585D01*
X36429Y193663D01*
X36425Y193741D01*
X36409Y193818D01*
X36381Y193892D01*
X36342Y193960D01*
X36293Y194021D01*
X36234Y194074D01*
X36168Y194117D01*
X36096Y194149D01*
X36020Y194170D01*
X35942Y194178D01*
X35864Y194174D01*
X35787Y194158D01*
X35716Y194131D01*
Y352000D01*
G37*
G36*
X29994D02*X35716D01*
Y194131D01*
X35713Y194130D01*
X35645Y194091D01*
X35584Y194042D01*
X35531Y193983D01*
X35489Y193917D01*
X35326Y193592D01*
X35197Y193252D01*
X35099Y192902D01*
X35033Y192544D01*
X35000Y192182D01*
Y191818D01*
X35033Y191456D01*
X35099Y191098D01*
X35197Y190748D01*
X35326Y190408D01*
X35485Y190081D01*
X35528Y190015D01*
X35581Y189956D01*
X35643Y189906D01*
X35712Y189867D01*
X35716Y189865D01*
Y76838D01*
X33379Y74500D01*
X29994D01*
Y197366D01*
X30000Y197366D01*
X30628Y197415D01*
X31240Y197562D01*
X31822Y197803D01*
X32358Y198132D01*
X32837Y198541D01*
X33246Y199020D01*
X33575Y199556D01*
X33816Y200138D01*
X33963Y200750D01*
X34000Y201378D01*
X33963Y202006D01*
X33816Y202618D01*
X33575Y203200D01*
X33246Y203736D01*
X32837Y204215D01*
X32358Y204624D01*
X31822Y204953D01*
X31240Y205194D01*
X30628Y205341D01*
X30000Y205390D01*
X29994Y205390D01*
Y220988D01*
X30000Y220988D01*
X30628Y221037D01*
X31240Y221184D01*
X31822Y221425D01*
X32358Y221754D01*
X32837Y222163D01*
X33246Y222642D01*
X33575Y223178D01*
X33816Y223760D01*
X33963Y224372D01*
X34000Y225000D01*
X33963Y225628D01*
X33816Y226240D01*
X33575Y226822D01*
X33246Y227358D01*
X32837Y227837D01*
X32358Y228246D01*
X31822Y228575D01*
X31240Y228816D01*
X30628Y228963D01*
X30000Y229012D01*
X29994Y229012D01*
Y352000D01*
G37*
G36*
Y74500D02*X26130D01*
X26110Y74533D01*
X25844Y74844D01*
X25533Y75110D01*
X25184Y75324D01*
X24806Y75480D01*
X24724Y75500D01*
X24806Y75520D01*
X25184Y75676D01*
X25533Y75890D01*
X25844Y76156D01*
X26110Y76467D01*
X26324Y76816D01*
X26480Y77194D01*
X26576Y77592D01*
X26600Y78000D01*
X26576Y78408D01*
X26480Y78806D01*
X26324Y79184D01*
X26110Y79533D01*
X25844Y79844D01*
X25533Y80110D01*
X25184Y80324D01*
X24806Y80480D01*
X24724Y80500D01*
X24806Y80520D01*
X25184Y80676D01*
X25533Y80890D01*
X25844Y81156D01*
X26110Y81467D01*
X26324Y81816D01*
X26480Y82194D01*
X26576Y82592D01*
X26600Y83000D01*
X26576Y83408D01*
X26480Y83806D01*
X26324Y84184D01*
X26110Y84533D01*
X25844Y84844D01*
X25533Y85110D01*
X25184Y85324D01*
X24806Y85480D01*
X24408Y85576D01*
X24000Y85608D01*
X23592Y85576D01*
X23194Y85480D01*
X22816Y85324D01*
X22467Y85110D01*
X22156Y84844D01*
X21890Y84533D01*
X21676Y84184D01*
X21520Y83806D01*
X21500Y83724D01*
X21480Y83806D01*
X21324Y84184D01*
X21110Y84533D01*
X20844Y84844D01*
X20533Y85110D01*
X20184Y85324D01*
X19806Y85480D01*
X19408Y85576D01*
X19000Y85608D01*
X18592Y85576D01*
X18194Y85480D01*
X17816Y85324D01*
X17696Y85250D01*
X16932D01*
X14250Y87932D01*
Y210068D01*
X26786Y222604D01*
X27163Y222163D01*
X27642Y221754D01*
X28178Y221425D01*
X28760Y221184D01*
X29372Y221037D01*
X29994Y220988D01*
Y205390D01*
X29372Y205341D01*
X28760Y205194D01*
X28178Y204953D01*
X27642Y204624D01*
X27163Y204215D01*
X26754Y203736D01*
X26425Y203200D01*
X26184Y202618D01*
X26037Y202006D01*
X25988Y201378D01*
X26037Y200750D01*
X26184Y200138D01*
X26425Y199556D01*
X26754Y199020D01*
X27163Y198541D01*
X27642Y198132D01*
X28178Y197803D01*
X28760Y197562D01*
X29372Y197415D01*
X29994Y197366D01*
Y74500D01*
G37*
G36*
X10002Y352000D02*X29994D01*
Y229012D01*
X29372Y228963D01*
X28760Y228816D01*
X28178Y228575D01*
X27642Y228246D01*
X27163Y227837D01*
X26754Y227358D01*
X26688Y227250D01*
X26088D01*
X26000Y227257D01*
X25647Y227229D01*
X25303Y227146D01*
X24975Y227011D01*
X24673Y226826D01*
X24673Y226826D01*
X24404Y226596D01*
X24347Y226529D01*
X10471Y212653D01*
X10404Y212596D01*
X10174Y212327D01*
X10002Y212045D01*
Y352000D01*
G37*
G36*
X6716D02*X10002D01*
Y212045D01*
X9989Y212025D01*
X9854Y211697D01*
X9771Y211353D01*
X9771Y211353D01*
X9743Y211000D01*
X9750Y210912D01*
Y87088D01*
X9743Y87000D01*
X9771Y86647D01*
Y86647D01*
X9854Y86303D01*
X9989Y85975D01*
X10002Y85955D01*
Y80045D01*
X9989Y80025D01*
X9854Y79697D01*
X9771Y79353D01*
X9771Y79353D01*
X9743Y79000D01*
X9750Y78912D01*
Y26088D01*
X9743Y26000D01*
X9771Y25647D01*
Y25647D01*
X9854Y25303D01*
X9989Y24975D01*
X10002Y24955D01*
Y17000D01*
X9818D01*
X9456Y16967D01*
X9098Y16901D01*
X8748Y16803D01*
X8408Y16674D01*
X8081Y16515D01*
X8015Y16472D01*
X7956Y16419D01*
X7906Y16357D01*
X7867Y16288D01*
X7839Y16214D01*
X7823Y16137D01*
X7819Y16058D01*
X7827Y15979D01*
X7848Y15903D01*
X7880Y15830D01*
X7923Y15764D01*
X7976Y15705D01*
X8038Y15656D01*
X8107Y15616D01*
X8181Y15588D01*
X8258Y15572D01*
X8337Y15568D01*
X8416Y15576D01*
X8493Y15597D01*
X8564Y15630D01*
X8807Y15753D01*
X9062Y15850D01*
X9324Y15923D01*
X9592Y15972D01*
X9864Y15997D01*
X10002D01*
Y10003D01*
X9864D01*
X9592Y10028D01*
X9324Y10077D01*
X9062Y10150D01*
X8807Y10247D01*
X8563Y10367D01*
X8491Y10400D01*
X8415Y10421D01*
X8337Y10429D01*
X8259Y10425D01*
X8182Y10409D01*
X8108Y10381D01*
X8040Y10342D01*
X7979Y10293D01*
X7926Y10234D01*
X7883Y10168D01*
X7851Y10096D01*
X7830Y10020D01*
X7822Y9942D01*
X7826Y9864D01*
X7842Y9787D01*
X7870Y9713D01*
X7909Y9645D01*
X7958Y9584D01*
X8017Y9531D01*
X8083Y9489D01*
X8408Y9326D01*
X8748Y9197D01*
X9098Y9099D01*
X9456Y9033D01*
X9818Y9000D01*
X10002D01*
Y7000D01*
X6716D01*
Y10865D01*
X6786Y10839D01*
X6863Y10823D01*
X6942Y10819D01*
X7021Y10827D01*
X7097Y10848D01*
X7170Y10880D01*
X7236Y10923D01*
X7295Y10976D01*
X7344Y11038D01*
X7384Y11107D01*
X7412Y11181D01*
X7428Y11258D01*
X7432Y11337D01*
X7424Y11416D01*
X7403Y11493D01*
X7370Y11564D01*
X7247Y11807D01*
X7150Y12062D01*
X7077Y12324D01*
X7028Y12592D01*
X7003Y12864D01*
Y13136D01*
X7028Y13408D01*
X7077Y13676D01*
X7150Y13938D01*
X7247Y14193D01*
X7367Y14437D01*
X7400Y14509D01*
X7421Y14585D01*
X7429Y14663D01*
X7425Y14741D01*
X7409Y14818D01*
X7381Y14892D01*
X7342Y14960D01*
X7293Y15021D01*
X7234Y15074D01*
X7168Y15117D01*
X7096Y15149D01*
X7020Y15170D01*
X6942Y15178D01*
X6864Y15174D01*
X6787Y15158D01*
X6716Y15131D01*
Y352000D01*
G37*
G36*
X5000Y7000D02*Y352000D01*
X6716D01*
Y15131D01*
X6713Y15130D01*
X6645Y15091D01*
X6584Y15042D01*
X6531Y14983D01*
X6489Y14917D01*
X6326Y14592D01*
X6197Y14252D01*
X6099Y13902D01*
X6033Y13544D01*
X6000Y13182D01*
Y12818D01*
X6033Y12456D01*
X6099Y12098D01*
X6197Y11748D01*
X6326Y11408D01*
X6485Y11081D01*
X6528Y11015D01*
X6581Y10956D01*
X6643Y10906D01*
X6712Y10867D01*
X6716Y10865D01*
Y7000D01*
X5000D01*
G37*
G54D26*X97000Y74000D02*X72000D01*
G54D29*X218000Y231000D03*
X162000D03*
G54D28*G36*
X205250Y257750D02*Y252250D01*
X210750D01*
Y257750D01*
X205250D01*
G37*
G36*
X149250D02*Y252250D01*
X154750D01*
Y257750D01*
X149250D01*
G37*
G54D30*X152000Y295000D03*
G54D31*X123000Y298000D03*
X113000D03*
G54D32*X130500Y318000D03*
G54D31*X113000Y228000D03*
Y238000D03*
Y248000D03*
Y258000D03*
Y268000D03*
Y278000D03*
Y288000D03*
X123000Y228000D03*
Y238000D03*
Y248000D03*
Y258000D03*
Y268000D03*
Y278000D03*
Y288000D03*
G54D30*X208000Y295000D03*
G54D31*X303000Y298000D03*
X313000D03*
G54D32*X295500Y318000D03*
G54D31*X303000Y228000D03*
X313000D03*
X303000Y238000D03*
X313000D03*
X303000Y248000D03*
Y258000D03*
Y268000D03*
Y278000D03*
Y288000D03*
X313000D03*
Y278000D03*
Y268000D03*
Y258000D03*
Y248000D03*
X123000Y78000D03*
X313000D03*
X303000D03*
X313000Y88000D03*
G54D32*X308000Y58000D03*
G54D33*X162000Y107000D03*
G54D34*X97000Y54000D03*
Y64000D03*
Y74000D03*
Y84000D03*
Y94000D03*
Y104000D03*
Y114000D03*
Y124000D03*
G54D31*X113000Y78000D03*
Y88000D03*
X123000D03*
G54D32*X118000Y58000D03*
G54D31*X113000Y98000D03*
Y108000D03*
Y118000D03*
X123000Y98000D03*
G54D28*G36*
X147500Y168500D02*Y159500D01*
X156500D01*
Y168500D01*
X147500D01*
G37*
G54D35*X162000Y164000D03*
X172000D03*
G54D28*G36*
X159500Y149500D02*Y144500D01*
X164500D01*
Y149500D01*
X159500D01*
G37*
G54D31*X123000Y108000D03*
Y118000D03*
Y128000D03*
X113000D03*
Y138000D03*
Y148000D03*
X123000Y138000D03*
Y148000D03*
X313000Y158000D03*
Y148000D03*
Y138000D03*
Y128000D03*
Y118000D03*
Y98000D03*
Y108000D03*
G54D34*X67000Y25000D03*
X77000D03*
X57000D03*
X97000D03*
X87000D03*
X47000D03*
X37000D03*
X27000D03*
G54D36*X19000Y63000D03*
X24000D03*
X19000Y68000D03*
X24000D03*
X19000Y73000D03*
X24000D03*
X19000Y78000D03*
Y83000D03*
X24000D03*
Y78000D03*
G54D34*X48504Y213189D03*
X30000Y225000D03*
Y201378D03*
G54D28*G36*
X203500Y168500D02*Y159500D01*
X212500D01*
Y168500D01*
X203500D01*
G37*
G54D35*X218000Y164000D03*
X228000D03*
G54D28*G36*
X215500Y149500D02*Y144500D01*
X220500D01*
Y149500D01*
X215500D01*
G37*
G54D33*X218000Y107000D03*
G54D31*X113000Y158000D03*
X123000D03*
X113000Y168000D03*
X123000D03*
Y178000D03*
X113000D03*
Y188000D03*
Y198000D03*
Y208000D03*
Y218000D03*
X123000Y188000D03*
Y198000D03*
Y208000D03*
Y218000D03*
X303000Y88000D03*
Y98000D03*
Y108000D03*
Y118000D03*
Y128000D03*
Y138000D03*
Y148000D03*
Y158000D03*
Y168000D03*
Y178000D03*
Y188000D03*
Y198000D03*
Y208000D03*
Y218000D03*
X313000D03*
Y208000D03*
Y198000D03*
Y188000D03*
Y178000D03*
Y168000D03*
G54D34*X180000Y156000D03*
X236000D03*
X39000Y192000D03*
X72000Y74000D03*
X132000Y103000D03*
Y113000D03*
G54D37*X81000Y138000D03*
G54D34*X95000Y165000D03*
G54D37*X63000Y345000D03*
G54D34*X44000Y305000D03*
G54D37*X58000Y335000D03*
G54D34*X77000Y305000D03*
G54D37*X98000Y203000D03*
X81000D03*
G54D34*X95000Y193000D03*
X45000Y67000D03*
G54D37*X57000Y52000D03*
G54D34*X21000Y34000D03*
X10000Y13000D03*
G54D38*G54D39*G54D38*G54D39*G54D38*G54D39*G54D38*G54D39*G54D38*G54D39*G54D38*M02*
