G04 start of page 3 for group 1 idx 1 *
G04 Title: Motor Controller, ground *
G04 Creator: pcb 4.0.2 *
G04 CreationDate: Wed Aug 19 04:53:54 2020 UTC *
G04 For: kevin *
G04 Format: Gerber/RS-274X *
G04 PCB-Dimensions (mil): 3300.00 3900.00 *
G04 PCB-Coordinate-Origin: lower left *
%MOIN*%
%FSLAX25Y25*%
%LNBOTTOM*%
%ADD42C,0.0300*%
%ADD41C,0.1300*%
%ADD40C,0.1250*%
%ADD39C,0.0410*%
%ADD38C,0.0200*%
%ADD37C,0.0350*%
%ADD36C,0.0360*%
%ADD35C,0.0600*%
%ADD34C,0.0550*%
%ADD33C,0.1500*%
%ADD32C,0.1530*%
%ADD31C,0.0690*%
%ADD30C,0.0900*%
%ADD29C,0.0001*%
%ADD28C,0.0250*%
%ADD27C,0.0100*%
G54D27*X226000Y105000D02*Y340000D01*
X234000Y117000D02*Y340000D01*
X293000Y198000D02*X278000Y183000D01*
G54D28*X250000Y139000D02*X306000Y195000D01*
G54D27*X243000Y155000D02*X257000D01*
X298000Y196000D01*
X253000Y178000D02*X248000Y173000D01*
X298000Y196000D02*Y220000D01*
G54D28*X306000Y195000D02*Y215000D01*
G54D27*X293000Y225000D02*Y198000D01*
X230000Y111000D02*Y354000D01*
G54D28*X242000Y139000D02*X250000D01*
G54D27*X242000Y89000D02*X226000Y105000D01*
X242000Y99000D02*X230000Y111000D01*
X242000Y109000D02*X234000Y117000D01*
G54D28*X59000Y110000D02*X67000Y118000D01*
X172000D01*
G54D27*X222000Y344000D02*X226000Y340000D01*
X238000Y344000D02*X234000Y340000D01*
X260000Y348000D02*Y210000D01*
X253000Y220000D02*Y178000D01*
X222000Y374000D02*Y344000D01*
X254000Y338000D02*Y369000D01*
X238000Y359000D02*Y344000D01*
G54D28*X283000Y348622D02*X308378D01*
X315000Y342000D02*Y38000D01*
X293000Y16000D01*
X287000D01*
X273000Y30000D01*
X283000Y325000D02*X291000Y317000D01*
X150500Y111000D02*X94500D01*
X308378Y348622D02*X315000Y342000D01*
X104500Y168000D02*Y167500D01*
X160500Y168000D02*Y167500D01*
X150000Y111000D02*X157000D01*
X273000Y30000D02*X267000D01*
X234000Y29000D02*X188000D01*
X184000Y33000D01*
X267000Y30000D02*X253000Y16000D01*
X247000D01*
X234000Y29000D01*
X184000Y33000D02*Y84000D01*
X157000Y111000D01*
X30000Y98000D02*X81000D01*
X94000Y111000D02*X81000Y98000D01*
G54D29*G36*
X309994Y343824D02*X312750Y341068D01*
Y213312D01*
X312642Y213246D01*
X312163Y212837D01*
X311754Y212358D01*
X311425Y211822D01*
X311184Y211240D01*
X311037Y210628D01*
X310988Y210000D01*
X311037Y209372D01*
X311184Y208760D01*
X311425Y208178D01*
X311754Y207642D01*
X312163Y207163D01*
X312642Y206754D01*
X312750Y206688D01*
Y38932D01*
X309994Y36176D01*
Y343824D01*
G37*
G36*
Y380000D02*X320000D01*
Y10000D01*
X309994D01*
Y18988D01*
X310000Y18988D01*
X310628Y19037D01*
X311240Y19184D01*
X311822Y19425D01*
X312358Y19754D01*
X312837Y20163D01*
X313246Y20642D01*
X313575Y21178D01*
X313816Y21760D01*
X313963Y22372D01*
X314000Y23000D01*
X313963Y23628D01*
X313816Y24240D01*
X313575Y24822D01*
X313246Y25358D01*
X312837Y25837D01*
X312358Y26246D01*
X311822Y26575D01*
X311240Y26816D01*
X310628Y26963D01*
X310000Y27012D01*
X309994Y27012D01*
Y29812D01*
X316529Y36347D01*
X316596Y36404D01*
X316826Y36673D01*
X316826Y36673D01*
X317011Y36975D01*
X317146Y37303D01*
X317229Y37647D01*
X317257Y38000D01*
X317250Y38088D01*
Y206688D01*
X317358Y206754D01*
X317837Y207163D01*
X318246Y207642D01*
X318575Y208178D01*
X318816Y208760D01*
X318963Y209372D01*
X319000Y210000D01*
X318963Y210628D01*
X318816Y211240D01*
X318575Y211822D01*
X318246Y212358D01*
X317837Y212837D01*
X317358Y213246D01*
X317250Y213312D01*
Y341912D01*
X317257Y342000D01*
X317229Y342353D01*
X317146Y342697D01*
X317107Y342793D01*
X317011Y343025D01*
X316896Y343212D01*
X316826Y343327D01*
X316826Y343327D01*
X316596Y343596D01*
X316529Y343653D01*
X310031Y350151D01*
X309994Y350195D01*
Y380000D01*
G37*
G36*
Y10000D02*X269994D01*
Y18988D01*
X270000Y18988D01*
X270628Y19037D01*
X271240Y19184D01*
X271822Y19425D01*
X272358Y19754D01*
X272837Y20163D01*
X273246Y20642D01*
X273575Y21178D01*
X273816Y21760D01*
X273963Y22372D01*
X274000Y23000D01*
X273963Y23628D01*
X273816Y24240D01*
X273575Y24822D01*
X273246Y25358D01*
X272837Y25837D01*
X272358Y26246D01*
X271822Y26575D01*
X271240Y26816D01*
X270628Y26963D01*
X270000Y27012D01*
X269994Y27012D01*
Y27750D01*
X272068D01*
X276067Y23751D01*
X276037Y23628D01*
X275988Y23000D01*
X276037Y22372D01*
X276184Y21760D01*
X276425Y21178D01*
X276754Y20642D01*
X277163Y20163D01*
X277642Y19754D01*
X278178Y19425D01*
X278760Y19184D01*
X279372Y19037D01*
X280000Y18988D01*
X280628Y19037D01*
X280751Y19067D01*
X285347Y14471D01*
X285404Y14404D01*
X285673Y14174D01*
X285673Y14174D01*
X285861Y14059D01*
X285975Y13989D01*
X286303Y13854D01*
X286647Y13771D01*
X286647D01*
X287000Y13743D01*
X287088Y13750D01*
X292912D01*
X293000Y13743D01*
X293353Y13771D01*
X293353Y13771D01*
X293697Y13854D01*
X294025Y13989D01*
X294327Y14174D01*
X294596Y14404D01*
X294653Y14471D01*
X299249Y19067D01*
X299372Y19037D01*
X300000Y18988D01*
X300628Y19037D01*
X301240Y19184D01*
X301822Y19425D01*
X302358Y19754D01*
X302837Y20163D01*
X303246Y20642D01*
X303575Y21178D01*
X303816Y21760D01*
X303963Y22372D01*
X304000Y23000D01*
X303963Y23628D01*
X303933Y23751D01*
X309994Y29812D01*
Y27012D01*
X309372Y26963D01*
X308760Y26816D01*
X308178Y26575D01*
X307642Y26246D01*
X307163Y25837D01*
X306754Y25358D01*
X306425Y24822D01*
X306184Y24240D01*
X306037Y23628D01*
X305988Y23000D01*
X306037Y22372D01*
X306184Y21760D01*
X306425Y21178D01*
X306754Y20642D01*
X307163Y20163D01*
X307642Y19754D01*
X308178Y19425D01*
X308760Y19184D01*
X309372Y19037D01*
X309994Y18988D01*
Y10000D01*
G37*
G36*
X301495Y346372D02*X307446D01*
X309994Y343824D01*
Y36176D01*
X301495Y27677D01*
Y187313D01*
X307529Y193347D01*
X307596Y193404D01*
X307826Y193673D01*
X307826Y193673D01*
X308011Y193975D01*
X308146Y194303D01*
X308229Y194647D01*
X308257Y195000D01*
X308250Y195088D01*
Y213323D01*
X308272Y213349D01*
X308503Y213725D01*
X308671Y214132D01*
X308774Y214561D01*
X308800Y215000D01*
X308774Y215439D01*
X308671Y215868D01*
X308503Y216275D01*
X308272Y216651D01*
X307986Y216986D01*
X307651Y217272D01*
X307275Y217503D01*
X306868Y217671D01*
X306439Y217774D01*
X306000Y217809D01*
X305561Y217774D01*
X305132Y217671D01*
X304725Y217503D01*
X304349Y217272D01*
X304014Y216986D01*
X303728Y216651D01*
X303497Y216275D01*
X303329Y215868D01*
X303226Y215439D01*
X303191Y215000D01*
X303226Y214561D01*
X303329Y214132D01*
X303497Y213725D01*
X303728Y213349D01*
X303750Y213323D01*
Y195932D01*
X301495Y193677D01*
Y330793D01*
X301504Y330793D01*
X302445Y330867D01*
X303364Y331087D01*
X304236Y331448D01*
X305042Y331942D01*
X305760Y332555D01*
X306373Y333273D01*
X306866Y334079D01*
X307228Y334951D01*
X307448Y335870D01*
X307504Y336811D01*
X307448Y337753D01*
X307228Y338671D01*
X306866Y339543D01*
X306373Y340349D01*
X305760Y341067D01*
X305042Y341680D01*
X304236Y342174D01*
X303364Y342535D01*
X302445Y342755D01*
X301504Y342830D01*
X301495Y342829D01*
Y346372D01*
G37*
G36*
Y27677D02*X300751Y26933D01*
X300628Y26963D01*
X300000Y27012D01*
X299372Y26963D01*
X298760Y26816D01*
X298178Y26575D01*
X297642Y26246D01*
X297163Y25837D01*
X296754Y25358D01*
X296425Y24822D01*
X296184Y24240D01*
X296037Y23628D01*
X295988Y23000D01*
X296037Y22372D01*
X296067Y22249D01*
X294284Y20466D01*
Y180102D01*
X301495Y187313D01*
Y27677D01*
G37*
G36*
X294284Y346372D02*X301495D01*
Y342829D01*
X300562Y342755D01*
X299644Y342535D01*
X298772Y342174D01*
X297966Y341680D01*
X297248Y341067D01*
X296635Y340349D01*
X296141Y339543D01*
X295780Y338671D01*
X295560Y337753D01*
X295485Y336811D01*
X295560Y335870D01*
X295780Y334951D01*
X296141Y334079D01*
X296635Y333273D01*
X297248Y332555D01*
X297966Y331942D01*
X298772Y331448D01*
X299644Y331087D01*
X300562Y330867D01*
X301495Y330793D01*
Y193677D01*
X294284Y186466D01*
Y190162D01*
X299019Y194898D01*
X299064Y194936D01*
X299217Y195115D01*
X299217Y195116D01*
X299341Y195317D01*
X299431Y195535D01*
X299486Y195765D01*
X299505Y196000D01*
X299500Y196059D01*
Y217635D01*
X299651Y217728D01*
X299986Y218014D01*
X300272Y218349D01*
X300503Y218725D01*
X300671Y219132D01*
X300774Y219561D01*
X300800Y220000D01*
X300774Y220439D01*
X300671Y220868D01*
X300503Y221275D01*
X300272Y221651D01*
X299986Y221986D01*
X299651Y222272D01*
X299275Y222503D01*
X298868Y222671D01*
X298439Y222774D01*
X298000Y222809D01*
X297561Y222774D01*
X297132Y222671D01*
X296725Y222503D01*
X296349Y222272D01*
X296014Y221986D01*
X295728Y221651D01*
X295497Y221275D01*
X295329Y220868D01*
X295226Y220439D01*
X295191Y220000D01*
X295226Y219561D01*
X295329Y219132D01*
X295497Y218725D01*
X295728Y218349D01*
X296014Y218014D01*
X296349Y217728D01*
X296500Y217635D01*
Y196621D01*
X294284Y194405D01*
Y197224D01*
X294341Y197317D01*
X294431Y197535D01*
X294486Y197765D01*
X294505Y198000D01*
X294500Y198059D01*
Y222635D01*
X294651Y222728D01*
X294986Y223014D01*
X295272Y223349D01*
X295503Y223725D01*
X295671Y224132D01*
X295774Y224561D01*
X295800Y225000D01*
X295774Y225439D01*
X295671Y225868D01*
X295503Y226275D01*
X295272Y226651D01*
X294986Y226986D01*
X294651Y227272D01*
X294284Y227497D01*
Y314869D01*
X294287Y314870D01*
X294355Y314909D01*
X294416Y314958D01*
X294469Y315017D01*
X294511Y315083D01*
X294674Y315408D01*
X294803Y315748D01*
X294901Y316098D01*
X294967Y316456D01*
X295000Y316818D01*
Y317182D01*
X294967Y317544D01*
X294901Y317902D01*
X294803Y318252D01*
X294674Y318592D01*
X294515Y318919D01*
X294472Y318985D01*
X294419Y319044D01*
X294357Y319094D01*
X294288Y319133D01*
X294284Y319135D01*
Y346372D01*
G37*
G36*
Y194405D02*X289994Y190115D01*
Y192873D01*
X294019Y196898D01*
X294064Y196936D01*
X294217Y197115D01*
X294217Y197116D01*
X294284Y197224D01*
Y194405D01*
G37*
G36*
Y186466D02*X289994Y182176D01*
Y185873D01*
X294284Y190162D01*
Y186466D01*
G37*
G36*
Y20466D02*X292068Y18250D01*
X289994D01*
Y18988D01*
X290000Y18988D01*
X290628Y19037D01*
X291240Y19184D01*
X291822Y19425D01*
X292358Y19754D01*
X292837Y20163D01*
X293246Y20642D01*
X293575Y21178D01*
X293816Y21760D01*
X293963Y22372D01*
X294000Y23000D01*
X293963Y23628D01*
X293816Y24240D01*
X293575Y24822D01*
X293246Y25358D01*
X292837Y25837D01*
X292358Y26246D01*
X291822Y26575D01*
X291240Y26816D01*
X290628Y26963D01*
X290000Y27012D01*
X289994Y27012D01*
Y175812D01*
X294284Y180102D01*
Y20466D01*
G37*
G36*
X289994Y346372D02*X294284D01*
Y319135D01*
X294214Y319161D01*
X294137Y319177D01*
X294058Y319181D01*
X293979Y319173D01*
X293903Y319152D01*
X293830Y319120D01*
X293764Y319077D01*
X293705Y319024D01*
X293656Y318962D01*
X293616Y318893D01*
X293588Y318819D01*
X293572Y318742D01*
X293568Y318663D01*
X293576Y318584D01*
X293597Y318507D01*
X293630Y318436D01*
X293753Y318193D01*
X293850Y317938D01*
X293923Y317676D01*
X293972Y317408D01*
X293997Y317136D01*
Y316864D01*
X293972Y316592D01*
X293923Y316324D01*
X293850Y316062D01*
X293753Y315807D01*
X293633Y315563D01*
X293600Y315491D01*
X293579Y315416D01*
X293571Y315337D01*
X293575Y315259D01*
X293591Y315182D01*
X293619Y315108D01*
X293658Y315040D01*
X293707Y314979D01*
X293766Y314926D01*
X293832Y314883D01*
X293904Y314851D01*
X293980Y314830D01*
X294058Y314822D01*
X294136Y314826D01*
X294213Y314842D01*
X294284Y314869D01*
Y227497D01*
X294275Y227503D01*
X293868Y227671D01*
X293439Y227774D01*
X293000Y227809D01*
X292561Y227774D01*
X292132Y227671D01*
X291725Y227503D01*
X291349Y227272D01*
X291014Y226986D01*
X290728Y226651D01*
X290497Y226275D01*
X290329Y225868D01*
X290226Y225439D01*
X290191Y225000D01*
X290226Y224561D01*
X290329Y224132D01*
X290497Y223725D01*
X290728Y223349D01*
X291014Y223014D01*
X291349Y222728D01*
X291500Y222635D01*
Y198621D01*
X289994Y197115D01*
Y313128D01*
X290098Y313099D01*
X290456Y313033D01*
X290818Y313000D01*
X291182D01*
X291544Y313033D01*
X291902Y313099D01*
X292252Y313197D01*
X292592Y313326D01*
X292919Y313485D01*
X292985Y313528D01*
X293044Y313581D01*
X293094Y313643D01*
X293133Y313712D01*
X293161Y313786D01*
X293177Y313863D01*
X293181Y313942D01*
X293173Y314021D01*
X293152Y314097D01*
X293120Y314170D01*
X293077Y314236D01*
X293024Y314295D01*
X292962Y314344D01*
X292893Y314384D01*
X292819Y314412D01*
X292742Y314428D01*
X292663Y314432D01*
X292584Y314424D01*
X292507Y314403D01*
X292436Y314370D01*
X292193Y314247D01*
X291938Y314150D01*
X291676Y314077D01*
X291408Y314028D01*
X291136Y314003D01*
X290864D01*
X290592Y314028D01*
X290324Y314077D01*
X290062Y314150D01*
X289994Y314176D01*
Y314981D01*
X290303Y314854D01*
X290647Y314771D01*
X291000Y314743D01*
X291353Y314771D01*
X291697Y314854D01*
X292025Y314989D01*
X292327Y315174D01*
X292596Y315404D01*
X292826Y315673D01*
X293011Y315975D01*
X293146Y316303D01*
X293229Y316647D01*
X293257Y317000D01*
X293229Y317353D01*
X293146Y317697D01*
X293011Y318025D01*
X292826Y318327D01*
X292591Y318591D01*
X291190Y319992D01*
X291408Y319972D01*
X291676Y319923D01*
X291938Y319850D01*
X292193Y319753D01*
X292437Y319633D01*
X292509Y319600D01*
X292584Y319579D01*
X292663Y319571D01*
X292741Y319575D01*
X292818Y319591D01*
X292892Y319619D01*
X292960Y319658D01*
X293021Y319707D01*
X293074Y319766D01*
X293117Y319832D01*
X293149Y319904D01*
X293170Y319980D01*
X293178Y320058D01*
X293174Y320136D01*
X293158Y320213D01*
X293130Y320287D01*
X293091Y320355D01*
X293042Y320416D01*
X292983Y320469D01*
X292917Y320511D01*
X292592Y320674D01*
X292252Y320803D01*
X291902Y320901D01*
X291544Y320967D01*
X291182Y321000D01*
X290818D01*
X290456Y320967D01*
X290252Y320930D01*
X289994Y321188D01*
Y346372D01*
G37*
G36*
Y380000D02*X309994D01*
Y350195D01*
X309974Y350218D01*
X309705Y350448D01*
X309705Y350448D01*
X309590Y350518D01*
X309403Y350633D01*
X309171Y350729D01*
X309075Y350769D01*
X308731Y350851D01*
X308378Y350879D01*
X308290Y350872D01*
X289994D01*
Y380000D01*
G37*
G36*
Y182176D02*X269994Y162176D01*
Y165873D01*
X289994Y185873D01*
Y182176D01*
G37*
G36*
Y18250D02*X287932D01*
X283933Y22249D01*
X283963Y22372D01*
X284000Y23000D01*
X283963Y23628D01*
X283816Y24240D01*
X283575Y24822D01*
X283246Y25358D01*
X282837Y25837D01*
X282358Y26246D01*
X281822Y26575D01*
X281240Y26816D01*
X280628Y26963D01*
X280000Y27012D01*
X279372Y26963D01*
X279249Y26933D01*
X274653Y31529D01*
X274596Y31596D01*
X274327Y31826D01*
X274327Y31826D01*
X274212Y31896D01*
X274025Y32011D01*
X273793Y32107D01*
X273697Y32146D01*
X273353Y32229D01*
X273000Y32257D01*
X272912Y32250D01*
X269994D01*
Y155812D01*
X289994Y175812D01*
Y27012D01*
X289372Y26963D01*
X288760Y26816D01*
X288178Y26575D01*
X287642Y26246D01*
X287163Y25837D01*
X286754Y25358D01*
X286425Y24822D01*
X286184Y24240D01*
X286037Y23628D01*
X285988Y23000D01*
X286037Y22372D01*
X286184Y21760D01*
X286425Y21178D01*
X286754Y20642D01*
X287163Y20163D01*
X287642Y19754D01*
X288178Y19425D01*
X288760Y19184D01*
X289372Y19037D01*
X289994Y18988D01*
Y18250D01*
G37*
G36*
X269994Y380000D02*X289994D01*
Y350872D01*
X288562D01*
X288363Y351354D01*
X287869Y352160D01*
X287256Y352878D01*
X286538Y353491D01*
X285732Y353985D01*
X284860Y354346D01*
X283942Y354566D01*
X283000Y354641D01*
X282058Y354566D01*
X281140Y354346D01*
X280268Y353985D01*
X279462Y353491D01*
X278744Y352878D01*
X278131Y352160D01*
X277637Y351354D01*
X277276Y350482D01*
X277056Y349564D01*
X276981Y348622D01*
X277056Y347681D01*
X277276Y346762D01*
X277637Y345890D01*
X278131Y345084D01*
X278744Y344366D01*
X279462Y343753D01*
X280268Y343260D01*
X281140Y342898D01*
X282058Y342678D01*
X283000Y342604D01*
X283942Y342678D01*
X284860Y342898D01*
X285732Y343260D01*
X286538Y343753D01*
X287256Y344366D01*
X287869Y345084D01*
X288363Y345890D01*
X288562Y346372D01*
X289994D01*
Y321188D01*
X288524Y322658D01*
X288724Y323140D01*
X288944Y324058D01*
X289000Y325000D01*
X288944Y325942D01*
X288724Y326860D01*
X288363Y327732D01*
X287869Y328538D01*
X287256Y329256D01*
X286538Y329869D01*
X285732Y330363D01*
X284860Y330724D01*
X283942Y330944D01*
X283000Y331019D01*
X282058Y330944D01*
X281140Y330724D01*
X280268Y330363D01*
X279462Y329869D01*
X278744Y329256D01*
X278131Y328538D01*
X277637Y327732D01*
X277276Y326860D01*
X277056Y325942D01*
X276981Y325000D01*
X277056Y324058D01*
X277276Y323140D01*
X277637Y322268D01*
X278131Y321462D01*
X278744Y320744D01*
X279462Y320131D01*
X280268Y319637D01*
X281140Y319276D01*
X282058Y319056D01*
X283000Y318981D01*
X283942Y319056D01*
X284860Y319276D01*
X285342Y319476D01*
X287070Y317748D01*
X287033Y317544D01*
X287000Y317182D01*
Y316818D01*
X287033Y316456D01*
X287099Y316098D01*
X287197Y315748D01*
X287326Y315408D01*
X287485Y315081D01*
X287528Y315015D01*
X287581Y314956D01*
X287643Y314906D01*
X287712Y314867D01*
X287786Y314839D01*
X287863Y314823D01*
X287942Y314819D01*
X288021Y314827D01*
X288097Y314848D01*
X288170Y314880D01*
X288236Y314923D01*
X288295Y314976D01*
X288344Y315038D01*
X288384Y315107D01*
X288412Y315181D01*
X288428Y315258D01*
X288432Y315337D01*
X288424Y315416D01*
X288403Y315493D01*
X288370Y315564D01*
X288247Y315807D01*
X288150Y316062D01*
X288077Y316324D01*
X288028Y316592D01*
X288008Y316810D01*
X289409Y315409D01*
X289673Y315174D01*
X289975Y314989D01*
X289994Y314981D01*
Y314176D01*
X289807Y314247D01*
X289563Y314367D01*
X289491Y314400D01*
X289415Y314421D01*
X289337Y314429D01*
X289259Y314425D01*
X289182Y314409D01*
X289108Y314381D01*
X289040Y314342D01*
X288979Y314293D01*
X288926Y314234D01*
X288883Y314168D01*
X288851Y314096D01*
X288830Y314020D01*
X288822Y313942D01*
X288826Y313864D01*
X288842Y313787D01*
X288870Y313713D01*
X288909Y313645D01*
X288958Y313584D01*
X289017Y313531D01*
X289083Y313489D01*
X289408Y313326D01*
X289748Y313197D01*
X289994Y313128D01*
Y197115D01*
X278611Y185733D01*
X278439Y185774D01*
X278000Y185809D01*
X277561Y185774D01*
X277132Y185671D01*
X276725Y185503D01*
X276349Y185272D01*
X276014Y184986D01*
X275728Y184651D01*
X275497Y184275D01*
X275329Y183868D01*
X275226Y183439D01*
X275191Y183000D01*
X275226Y182561D01*
X275329Y182132D01*
X275497Y181725D01*
X275728Y181349D01*
X276014Y181014D01*
X276349Y180728D01*
X276725Y180497D01*
X277132Y180329D01*
X277561Y180226D01*
X278000Y180191D01*
X278439Y180226D01*
X278868Y180329D01*
X279275Y180497D01*
X279651Y180728D01*
X279986Y181014D01*
X280272Y181349D01*
X280503Y181725D01*
X280671Y182132D01*
X280774Y182561D01*
X280800Y183000D01*
X280774Y183439D01*
X280733Y183611D01*
X289994Y192873D01*
Y190115D01*
X269994Y170115D01*
Y380000D01*
G37*
G36*
Y162176D02*X253996Y146178D01*
Y153500D01*
X256941D01*
X257000Y153495D01*
X257235Y153514D01*
X257235Y153514D01*
X257465Y153569D01*
X257683Y153659D01*
X257884Y153783D01*
X258064Y153936D01*
X258102Y153981D01*
X269994Y165873D01*
Y162176D01*
G37*
G36*
Y32250D02*X268284D01*
Y116869D01*
X268287Y116870D01*
X268355Y116909D01*
X268416Y116958D01*
X268469Y117017D01*
X268511Y117083D01*
X268674Y117408D01*
X268803Y117748D01*
X268901Y118098D01*
X268967Y118456D01*
X269000Y118818D01*
Y119182D01*
X268967Y119544D01*
X268901Y119902D01*
X268803Y120252D01*
X268674Y120592D01*
X268515Y120919D01*
X268472Y120985D01*
X268419Y121044D01*
X268357Y121094D01*
X268288Y121133D01*
X268284Y121135D01*
Y154102D01*
X269994Y155812D01*
Y32250D01*
G37*
G36*
X268284D02*X267088D01*
X267000Y32257D01*
X266647Y32229D01*
X266303Y32146D01*
X265975Y32011D01*
X265673Y31826D01*
X265673Y31826D01*
X265404Y31596D01*
X265347Y31529D01*
X265002Y31184D01*
Y115000D01*
X265182D01*
X265544Y115033D01*
X265902Y115099D01*
X266252Y115197D01*
X266592Y115326D01*
X266919Y115485D01*
X266985Y115528D01*
X267044Y115581D01*
X267094Y115643D01*
X267133Y115712D01*
X267161Y115786D01*
X267177Y115863D01*
X267181Y115942D01*
X267173Y116021D01*
X267152Y116097D01*
X267120Y116170D01*
X267077Y116236D01*
X267024Y116295D01*
X266962Y116344D01*
X266893Y116384D01*
X266819Y116412D01*
X266742Y116428D01*
X266663Y116432D01*
X266584Y116424D01*
X266507Y116403D01*
X266436Y116370D01*
X266193Y116247D01*
X265938Y116150D01*
X265676Y116077D01*
X265408Y116028D01*
X265136Y116003D01*
X265002D01*
Y116750D01*
X265353Y116771D01*
X265697Y116854D01*
X266025Y116989D01*
X266327Y117174D01*
X266596Y117404D01*
X266826Y117673D01*
X267011Y117975D01*
X267146Y118303D01*
X267229Y118647D01*
X267257Y119000D01*
X267229Y119353D01*
X267146Y119697D01*
X267011Y120025D01*
X266826Y120327D01*
X266596Y120596D01*
X266327Y120826D01*
X266025Y121011D01*
X265697Y121146D01*
X265353Y121229D01*
X265002Y121250D01*
Y121997D01*
X265136D01*
X265408Y121972D01*
X265676Y121923D01*
X265938Y121850D01*
X266193Y121753D01*
X266437Y121633D01*
X266509Y121600D01*
X266584Y121579D01*
X266663Y121571D01*
X266741Y121575D01*
X266818Y121591D01*
X266892Y121619D01*
X266960Y121658D01*
X267021Y121707D01*
X267074Y121766D01*
X267117Y121832D01*
X267149Y121904D01*
X267170Y121980D01*
X267178Y122058D01*
X267174Y122136D01*
X267158Y122213D01*
X267130Y122287D01*
X267091Y122355D01*
X267042Y122416D01*
X266983Y122469D01*
X266917Y122511D01*
X266592Y122674D01*
X266252Y122803D01*
X265902Y122901D01*
X265544Y122967D01*
X265182Y123000D01*
X265002D01*
Y150820D01*
X268284Y154102D01*
Y121135D01*
X268214Y121161D01*
X268137Y121177D01*
X268058Y121181D01*
X267979Y121173D01*
X267903Y121152D01*
X267830Y121120D01*
X267764Y121077D01*
X267705Y121024D01*
X267656Y120962D01*
X267616Y120893D01*
X267588Y120819D01*
X267572Y120742D01*
X267568Y120663D01*
X267576Y120584D01*
X267597Y120507D01*
X267630Y120436D01*
X267753Y120193D01*
X267850Y119938D01*
X267923Y119676D01*
X267972Y119408D01*
X267997Y119136D01*
Y118864D01*
X267972Y118592D01*
X267923Y118324D01*
X267850Y118062D01*
X267753Y117807D01*
X267633Y117563D01*
X267600Y117491D01*
X267579Y117416D01*
X267571Y117337D01*
X267575Y117259D01*
X267591Y117182D01*
X267619Y117108D01*
X267658Y117040D01*
X267707Y116979D01*
X267766Y116926D01*
X267832Y116883D01*
X267904Y116851D01*
X267980Y116830D01*
X268058Y116822D01*
X268136Y116826D01*
X268213Y116842D01*
X268284Y116869D01*
Y32250D01*
G37*
G36*
X265002Y121250D02*X265000Y121250D01*
X253996D01*
Y139814D01*
X265002Y150820D01*
Y123000D01*
X264818D01*
X264456Y122967D01*
X264098Y122901D01*
X263748Y122803D01*
X263408Y122674D01*
X263081Y122515D01*
X263015Y122472D01*
X262956Y122419D01*
X262906Y122357D01*
X262867Y122288D01*
X262839Y122214D01*
X262823Y122137D01*
X262819Y122058D01*
X262827Y121979D01*
X262848Y121903D01*
X262880Y121830D01*
X262923Y121764D01*
X262976Y121705D01*
X263038Y121656D01*
X263107Y121616D01*
X263181Y121588D01*
X263258Y121572D01*
X263337Y121568D01*
X263416Y121576D01*
X263493Y121597D01*
X263564Y121630D01*
X263807Y121753D01*
X264062Y121850D01*
X264324Y121923D01*
X264592Y121972D01*
X264864Y121997D01*
X265002D01*
Y121250D01*
G37*
G36*
Y31184D02*X260751Y26933D01*
X260628Y26963D01*
X260000Y27012D01*
X259372Y26963D01*
X258760Y26816D01*
X258178Y26575D01*
X257642Y26246D01*
X257163Y25837D01*
X256754Y25358D01*
X256425Y24822D01*
X256184Y24240D01*
X256037Y23628D01*
X255988Y23000D01*
X256037Y22372D01*
X256067Y22249D01*
X253996Y20178D01*
Y22927D01*
X254000Y23000D01*
X253996Y23073D01*
Y116750D01*
X265000D01*
X265002Y116750D01*
Y116003D01*
X264864D01*
X264592Y116028D01*
X264324Y116077D01*
X264062Y116150D01*
X263807Y116247D01*
X263563Y116367D01*
X263491Y116400D01*
X263415Y116421D01*
X263337Y116429D01*
X263259Y116425D01*
X263182Y116409D01*
X263108Y116381D01*
X263040Y116342D01*
X262979Y116293D01*
X262926Y116234D01*
X262883Y116168D01*
X262851Y116096D01*
X262830Y116020D01*
X262822Y115942D01*
X262826Y115864D01*
X262842Y115787D01*
X262870Y115713D01*
X262909Y115645D01*
X262958Y115584D01*
X263017Y115531D01*
X263083Y115489D01*
X263408Y115326D01*
X263748Y115197D01*
X264098Y115099D01*
X264456Y115033D01*
X264818Y115000D01*
X265002D01*
Y31184D01*
G37*
G36*
X269994Y10000D02*X253996D01*
Y13977D01*
X254025Y13989D01*
X254327Y14174D01*
X254596Y14404D01*
X254653Y14471D01*
X259249Y19067D01*
X259372Y19037D01*
X260000Y18988D01*
X260628Y19037D01*
X261240Y19184D01*
X261822Y19425D01*
X262358Y19754D01*
X262837Y20163D01*
X263246Y20642D01*
X263575Y21178D01*
X263816Y21760D01*
X263963Y22372D01*
X264000Y23000D01*
X263963Y23628D01*
X263933Y23751D01*
X267932Y27750D01*
X269994D01*
Y27012D01*
X269372Y26963D01*
X268760Y26816D01*
X268178Y26575D01*
X267642Y26246D01*
X267163Y25837D01*
X266754Y25358D01*
X266425Y24822D01*
X266184Y24240D01*
X266037Y23628D01*
X265988Y23000D01*
X266037Y22372D01*
X266184Y21760D01*
X266425Y21178D01*
X266754Y20642D01*
X267163Y20163D01*
X267642Y19754D01*
X268178Y19425D01*
X268760Y19184D01*
X269372Y19037D01*
X269994Y18988D01*
Y10000D01*
G37*
G36*
X259996Y380000D02*X269994D01*
Y170115D01*
X259996Y160117D01*
Y207192D01*
X260000Y207191D01*
X260439Y207226D01*
X260868Y207329D01*
X261275Y207497D01*
X261651Y207728D01*
X261986Y208014D01*
X262272Y208349D01*
X262503Y208725D01*
X262671Y209132D01*
X262774Y209561D01*
X262800Y210000D01*
X262774Y210439D01*
X262671Y210868D01*
X262503Y211275D01*
X262272Y211651D01*
X261986Y211986D01*
X261651Y212272D01*
X261500Y212365D01*
Y345635D01*
X261651Y345728D01*
X261986Y346014D01*
X262272Y346349D01*
X262503Y346725D01*
X262671Y347132D01*
X262774Y347561D01*
X262800Y348000D01*
X262774Y348439D01*
X262671Y348868D01*
X262503Y349275D01*
X262272Y349651D01*
X261986Y349986D01*
X261651Y350272D01*
X261275Y350503D01*
X260868Y350671D01*
X260439Y350774D01*
X260000Y350809D01*
X259996Y350808D01*
Y380000D01*
G37*
G36*
X253996D02*X259996D01*
Y350808D01*
X259561Y350774D01*
X259132Y350671D01*
X258725Y350503D01*
X258349Y350272D01*
X258014Y349986D01*
X257728Y349651D01*
X257497Y349275D01*
X257329Y348868D01*
X257226Y348439D01*
X257191Y348000D01*
X257226Y347561D01*
X257329Y347132D01*
X257497Y346725D01*
X257728Y346349D01*
X258014Y346014D01*
X258349Y345728D01*
X258500Y345635D01*
Y212365D01*
X258349Y212272D01*
X258014Y211986D01*
X257728Y211651D01*
X257497Y211275D01*
X257329Y210868D01*
X257226Y210439D01*
X257191Y210000D01*
X257226Y209561D01*
X257329Y209132D01*
X257497Y208725D01*
X257728Y208349D01*
X258014Y208014D01*
X258349Y207728D01*
X258725Y207497D01*
X259132Y207329D01*
X259561Y207226D01*
X259996Y207192D01*
Y160117D01*
X256379Y156500D01*
X253996D01*
Y176874D01*
X254019Y176898D01*
X254064Y176936D01*
X254217Y177115D01*
X254217Y177116D01*
X254341Y177317D01*
X254431Y177535D01*
X254486Y177765D01*
X254505Y178000D01*
X254500Y178059D01*
Y217635D01*
X254651Y217728D01*
X254986Y218014D01*
X255272Y218349D01*
X255503Y218725D01*
X255671Y219132D01*
X255774Y219561D01*
X255800Y220000D01*
X255774Y220439D01*
X255671Y220868D01*
X255503Y221275D01*
X255272Y221651D01*
X254986Y221986D01*
X254651Y222272D01*
X254275Y222503D01*
X253996Y222618D01*
Y335192D01*
X254000Y335191D01*
X254439Y335226D01*
X254868Y335329D01*
X255275Y335497D01*
X255651Y335728D01*
X255986Y336014D01*
X256272Y336349D01*
X256503Y336725D01*
X256671Y337132D01*
X256774Y337561D01*
X256800Y338000D01*
X256774Y338439D01*
X256671Y338868D01*
X256503Y339275D01*
X256272Y339651D01*
X255986Y339986D01*
X255651Y340272D01*
X255500Y340365D01*
Y366635D01*
X255651Y366728D01*
X255986Y367014D01*
X256272Y367349D01*
X256503Y367725D01*
X256671Y368132D01*
X256774Y368561D01*
X256800Y369000D01*
X256774Y369439D01*
X256671Y369868D01*
X256503Y370275D01*
X256272Y370651D01*
X255986Y370986D01*
X255651Y371272D01*
X255275Y371503D01*
X254868Y371671D01*
X254439Y371774D01*
X254000Y371809D01*
X253996Y371808D01*
Y380000D01*
G37*
G36*
Y10000D02*X236596D01*
Y20900D01*
X236754Y20642D01*
X237163Y20163D01*
X237642Y19754D01*
X238178Y19425D01*
X238760Y19184D01*
X239372Y19037D01*
X240000Y18988D01*
X240628Y19037D01*
X240751Y19067D01*
X245347Y14471D01*
X245404Y14404D01*
X245673Y14174D01*
X245673Y14174D01*
X245861Y14059D01*
X245975Y13989D01*
X246303Y13854D01*
X246647Y13771D01*
X246647D01*
X247000Y13743D01*
X247088Y13750D01*
X252912D01*
X253000Y13743D01*
X253353Y13771D01*
X253353Y13771D01*
X253697Y13854D01*
X253996Y13977D01*
Y10000D01*
G37*
G36*
X241994Y114988D02*X242000Y114988D01*
X242628Y115037D01*
X243240Y115184D01*
X243822Y115425D01*
X244358Y115754D01*
X244837Y116163D01*
X245246Y116642D01*
X245312Y116750D01*
X253996D01*
Y23073D01*
X253963Y23628D01*
X253816Y24240D01*
X253575Y24822D01*
X253246Y25358D01*
X252837Y25837D01*
X252358Y26246D01*
X251822Y26575D01*
X251240Y26816D01*
X250628Y26963D01*
X250000Y27012D01*
X249372Y26963D01*
X248760Y26816D01*
X248178Y26575D01*
X247642Y26246D01*
X247163Y25837D01*
X246754Y25358D01*
X246425Y24822D01*
X246184Y24240D01*
X246037Y23628D01*
X245988Y23000D01*
X246037Y22372D01*
X246184Y21760D01*
X246425Y21178D01*
X246754Y20642D01*
X247163Y20163D01*
X247642Y19754D01*
X248178Y19425D01*
X248760Y19184D01*
X249372Y19037D01*
X250000Y18988D01*
X250628Y19037D01*
X251240Y19184D01*
X251822Y19425D01*
X252358Y19754D01*
X252837Y20163D01*
X253246Y20642D01*
X253575Y21178D01*
X253816Y21760D01*
X253963Y22372D01*
X253996Y22927D01*
Y20178D01*
X252068Y18250D01*
X247932D01*
X243933Y22249D01*
X243963Y22372D01*
X244000Y23000D01*
X243963Y23628D01*
X243816Y24240D01*
X243575Y24822D01*
X243246Y25358D01*
X242837Y25837D01*
X242358Y26246D01*
X241994Y26469D01*
Y64988D01*
X242000Y64988D01*
X242628Y65037D01*
X243240Y65184D01*
X243822Y65425D01*
X244358Y65754D01*
X244837Y66163D01*
X245246Y66642D01*
X245575Y67178D01*
X245816Y67760D01*
X245963Y68372D01*
X246000Y69000D01*
X245963Y69628D01*
X245816Y70240D01*
X245575Y70822D01*
X245246Y71358D01*
X244837Y71837D01*
X244358Y72246D01*
X243822Y72575D01*
X243240Y72816D01*
X242628Y72963D01*
X242000Y73012D01*
X241994Y73012D01*
Y74988D01*
X242000Y74988D01*
X242628Y75037D01*
X243240Y75184D01*
X243822Y75425D01*
X244358Y75754D01*
X244837Y76163D01*
X245246Y76642D01*
X245575Y77178D01*
X245816Y77760D01*
X245963Y78372D01*
X246000Y79000D01*
X245963Y79628D01*
X245816Y80240D01*
X245575Y80822D01*
X245246Y81358D01*
X244837Y81837D01*
X244358Y82246D01*
X243822Y82575D01*
X243240Y82816D01*
X242628Y82963D01*
X242000Y83012D01*
X241994Y83012D01*
Y84988D01*
X242000Y84988D01*
X242628Y85037D01*
X243240Y85184D01*
X243822Y85425D01*
X244358Y85754D01*
X244837Y86163D01*
X245246Y86642D01*
X245575Y87178D01*
X245816Y87760D01*
X245963Y88372D01*
X246000Y89000D01*
X245963Y89628D01*
X245816Y90240D01*
X245575Y90822D01*
X245246Y91358D01*
X244837Y91837D01*
X244358Y92246D01*
X243822Y92575D01*
X243240Y92816D01*
X242628Y92963D01*
X242000Y93012D01*
X241994Y93012D01*
Y94988D01*
X242000Y94988D01*
X242628Y95037D01*
X243240Y95184D01*
X243822Y95425D01*
X244358Y95754D01*
X244837Y96163D01*
X245246Y96642D01*
X245575Y97178D01*
X245816Y97760D01*
X245963Y98372D01*
X246000Y99000D01*
X245963Y99628D01*
X245816Y100240D01*
X245575Y100822D01*
X245246Y101358D01*
X244837Y101837D01*
X244358Y102246D01*
X243822Y102575D01*
X243240Y102816D01*
X242628Y102963D01*
X242000Y103012D01*
X241994Y103012D01*
Y104988D01*
X242000Y104988D01*
X242628Y105037D01*
X243240Y105184D01*
X243822Y105425D01*
X244358Y105754D01*
X244837Y106163D01*
X245246Y106642D01*
X245575Y107178D01*
X245816Y107760D01*
X245963Y108372D01*
X246000Y109000D01*
X245963Y109628D01*
X245816Y110240D01*
X245575Y110822D01*
X245246Y111358D01*
X244837Y111837D01*
X244358Y112246D01*
X243822Y112575D01*
X243240Y112816D01*
X242628Y112963D01*
X242000Y113012D01*
X241994Y113012D01*
Y114988D01*
G37*
G36*
Y134988D02*X242000Y134988D01*
X242628Y135037D01*
X243240Y135184D01*
X243822Y135425D01*
X244358Y135754D01*
X244837Y136163D01*
X245246Y136642D01*
X245312Y136750D01*
X249912D01*
X250000Y136743D01*
X250353Y136771D01*
X250353Y136771D01*
X250697Y136854D01*
X251025Y136989D01*
X251327Y137174D01*
X251596Y137404D01*
X251653Y137471D01*
X253996Y139814D01*
Y121250D01*
X245312D01*
X245246Y121358D01*
X244837Y121837D01*
X244358Y122246D01*
X243822Y122575D01*
X243240Y122816D01*
X242628Y122963D01*
X242000Y123012D01*
X241994Y123012D01*
Y124988D01*
X242000Y124988D01*
X242628Y125037D01*
X243240Y125184D01*
X243822Y125425D01*
X244358Y125754D01*
X244837Y126163D01*
X245246Y126642D01*
X245575Y127178D01*
X245816Y127760D01*
X245963Y128372D01*
X246000Y129000D01*
X245963Y129628D01*
X245816Y130240D01*
X245575Y130822D01*
X245246Y131358D01*
X244837Y131837D01*
X244358Y132246D01*
X243822Y132575D01*
X243240Y132816D01*
X242628Y132963D01*
X242000Y133012D01*
X241994Y133012D01*
Y134988D01*
G37*
G36*
Y152386D02*X242132Y152329D01*
X242561Y152226D01*
X243000Y152191D01*
X243439Y152226D01*
X243868Y152329D01*
X244275Y152497D01*
X244651Y152728D01*
X244986Y153014D01*
X245272Y153349D01*
X245365Y153500D01*
X253996D01*
Y146178D01*
X249068Y141250D01*
X245312D01*
X245246Y141358D01*
X244837Y141837D01*
X244358Y142246D01*
X243822Y142575D01*
X243240Y142816D01*
X242628Y142963D01*
X242000Y143012D01*
X241994Y143012D01*
Y152386D01*
G37*
G36*
X247284Y170292D02*X247561Y170226D01*
X248000Y170191D01*
X248439Y170226D01*
X248868Y170329D01*
X249275Y170497D01*
X249651Y170728D01*
X249986Y171014D01*
X250272Y171349D01*
X250503Y171725D01*
X250671Y172132D01*
X250774Y172561D01*
X250800Y173000D01*
X250774Y173439D01*
X250733Y173611D01*
X253996Y176874D01*
Y156500D01*
X247284D01*
Y170292D01*
G37*
G36*
Y380000D02*X253996D01*
Y371808D01*
X253561Y371774D01*
X253132Y371671D01*
X252725Y371503D01*
X252349Y371272D01*
X252014Y370986D01*
X251728Y370651D01*
X251497Y370275D01*
X251329Y369868D01*
X251226Y369439D01*
X251191Y369000D01*
X251226Y368561D01*
X251329Y368132D01*
X251497Y367725D01*
X251728Y367349D01*
X252014Y367014D01*
X252349Y366728D01*
X252500Y366635D01*
Y340365D01*
X252495Y340362D01*
X252349Y340272D01*
X252014Y339986D01*
X251728Y339651D01*
X251497Y339275D01*
X251329Y338868D01*
X251226Y338439D01*
X251191Y338000D01*
X251226Y337561D01*
X251329Y337132D01*
X251497Y336725D01*
X251728Y336349D01*
X252014Y336014D01*
X252349Y335728D01*
X252725Y335497D01*
X253132Y335329D01*
X253561Y335226D01*
X253996Y335192D01*
Y222618D01*
X253868Y222671D01*
X253439Y222774D01*
X253000Y222809D01*
X252561Y222774D01*
X252132Y222671D01*
X251725Y222503D01*
X251349Y222272D01*
X251014Y221986D01*
X250728Y221651D01*
X250497Y221275D01*
X250329Y220868D01*
X250226Y220439D01*
X250191Y220000D01*
X250226Y219561D01*
X250329Y219132D01*
X250497Y218725D01*
X250728Y218349D01*
X251014Y218014D01*
X251349Y217728D01*
X251500Y217635D01*
Y178621D01*
X248611Y175733D01*
X248439Y175774D01*
X248000Y175809D01*
X247561Y175774D01*
X247284Y175708D01*
Y212869D01*
X247287Y212870D01*
X247355Y212909D01*
X247416Y212958D01*
X247469Y213017D01*
X247511Y213083D01*
X247674Y213408D01*
X247803Y213748D01*
X247901Y214098D01*
X247967Y214456D01*
X248000Y214818D01*
Y215182D01*
X247967Y215544D01*
X247901Y215902D01*
X247803Y216252D01*
X247674Y216592D01*
X247515Y216919D01*
X247472Y216985D01*
X247419Y217044D01*
X247357Y217094D01*
X247288Y217133D01*
X247284Y217135D01*
Y380000D01*
G37*
G36*
X241994D02*X247284D01*
Y217135D01*
X247214Y217161D01*
X247137Y217177D01*
X247058Y217181D01*
X246979Y217173D01*
X246903Y217152D01*
X246830Y217120D01*
X246764Y217077D01*
X246705Y217024D01*
X246656Y216962D01*
X246616Y216893D01*
X246588Y216819D01*
X246572Y216742D01*
X246568Y216663D01*
X246576Y216584D01*
X246597Y216507D01*
X246630Y216436D01*
X246753Y216193D01*
X246850Y215938D01*
X246923Y215676D01*
X246972Y215408D01*
X246997Y215136D01*
Y214864D01*
X246972Y214592D01*
X246923Y214324D01*
X246850Y214062D01*
X246753Y213807D01*
X246633Y213563D01*
X246600Y213491D01*
X246579Y213416D01*
X246571Y213337D01*
X246575Y213259D01*
X246591Y213182D01*
X246619Y213108D01*
X246658Y213040D01*
X246707Y212979D01*
X246766Y212926D01*
X246832Y212883D01*
X246904Y212851D01*
X246980Y212830D01*
X247058Y212822D01*
X247136Y212826D01*
X247213Y212842D01*
X247284Y212869D01*
Y175708D01*
X247132Y175671D01*
X246725Y175503D01*
X246349Y175272D01*
X246014Y174986D01*
X245728Y174651D01*
X245497Y174275D01*
X245329Y173868D01*
X245226Y173439D01*
X245191Y173000D01*
X245226Y172561D01*
X245329Y172132D01*
X245497Y171725D01*
X245728Y171349D01*
X246014Y171014D01*
X246349Y170728D01*
X246725Y170497D01*
X247132Y170329D01*
X247284Y170292D01*
Y156500D01*
X245365D01*
X245272Y156651D01*
X244986Y156986D01*
X244651Y157272D01*
X244275Y157503D01*
X243868Y157671D01*
X243439Y157774D01*
X243000Y157809D01*
X242561Y157774D01*
X242132Y157671D01*
X241994Y157614D01*
Y211551D01*
X242017Y211531D01*
X242083Y211489D01*
X242408Y211326D01*
X242748Y211197D01*
X243098Y211099D01*
X243456Y211033D01*
X243818Y211000D01*
X244182D01*
X244544Y211033D01*
X244902Y211099D01*
X245252Y211197D01*
X245592Y211326D01*
X245919Y211485D01*
X245985Y211528D01*
X246044Y211581D01*
X246094Y211643D01*
X246133Y211712D01*
X246161Y211786D01*
X246177Y211863D01*
X246181Y211942D01*
X246173Y212021D01*
X246152Y212097D01*
X246120Y212170D01*
X246077Y212236D01*
X246024Y212295D01*
X245962Y212344D01*
X245893Y212384D01*
X245819Y212412D01*
X245742Y212428D01*
X245663Y212432D01*
X245584Y212424D01*
X245507Y212403D01*
X245436Y212370D01*
X245193Y212247D01*
X244938Y212150D01*
X244676Y212077D01*
X244408Y212028D01*
X244136Y212003D01*
X243864D01*
X243592Y212028D01*
X243324Y212077D01*
X243062Y212150D01*
X242807Y212247D01*
X242563Y212367D01*
X242491Y212400D01*
X242415Y212421D01*
X242337Y212429D01*
X242259Y212425D01*
X242182Y212409D01*
X242108Y212381D01*
X242040Y212342D01*
X241994Y212305D01*
Y217691D01*
X242038Y217656D01*
X242107Y217616D01*
X242181Y217588D01*
X242258Y217572D01*
X242337Y217568D01*
X242416Y217576D01*
X242493Y217597D01*
X242564Y217630D01*
X242807Y217753D01*
X243062Y217850D01*
X243324Y217923D01*
X243592Y217972D01*
X243864Y217997D01*
X244136D01*
X244408Y217972D01*
X244676Y217923D01*
X244938Y217850D01*
X245193Y217753D01*
X245437Y217633D01*
X245509Y217600D01*
X245584Y217579D01*
X245663Y217571D01*
X245741Y217575D01*
X245818Y217591D01*
X245892Y217619D01*
X245960Y217658D01*
X246021Y217707D01*
X246074Y217766D01*
X246117Y217832D01*
X246149Y217904D01*
X246170Y217980D01*
X246178Y218058D01*
X246174Y218136D01*
X246158Y218213D01*
X246130Y218287D01*
X246091Y218355D01*
X246042Y218416D01*
X245983Y218469D01*
X245917Y218511D01*
X245592Y218674D01*
X245252Y218803D01*
X244902Y218901D01*
X244544Y218967D01*
X244182Y219000D01*
X243818D01*
X243456Y218967D01*
X243098Y218901D01*
X242748Y218803D01*
X242408Y218674D01*
X242081Y218515D01*
X242015Y218472D01*
X241994Y218453D01*
Y380000D01*
G37*
G36*
Y103012D02*X241372Y102963D01*
X240760Y102816D01*
X240439Y102683D01*
X236596Y106526D01*
Y112283D01*
X238317Y110561D01*
X238184Y110240D01*
X238037Y109628D01*
X237988Y109000D01*
X238037Y108372D01*
X238184Y107760D01*
X238425Y107178D01*
X238754Y106642D01*
X239163Y106163D01*
X239642Y105754D01*
X240178Y105425D01*
X240760Y105184D01*
X241372Y105037D01*
X241994Y104988D01*
Y103012D01*
G37*
G36*
Y93012D02*X241372Y92963D01*
X240760Y92816D01*
X240439Y92683D01*
X236596Y96526D01*
Y102283D01*
X238317Y100561D01*
X238184Y100240D01*
X238037Y99628D01*
X237988Y99000D01*
X238037Y98372D01*
X238184Y97760D01*
X238425Y97178D01*
X238754Y96642D01*
X239163Y96163D01*
X239642Y95754D01*
X240178Y95425D01*
X240760Y95184D01*
X241372Y95037D01*
X241994Y94988D01*
Y93012D01*
G37*
G36*
Y26469D02*X241822Y26575D01*
X241240Y26816D01*
X240628Y26963D01*
X240000Y27012D01*
X239372Y26963D01*
X239249Y26933D01*
X236596Y29586D01*
Y92283D01*
X238317Y90561D01*
X238184Y90240D01*
X238037Y89628D01*
X237988Y89000D01*
X238037Y88372D01*
X238184Y87760D01*
X238425Y87178D01*
X238754Y86642D01*
X239163Y86163D01*
X239642Y85754D01*
X240178Y85425D01*
X240760Y85184D01*
X241372Y85037D01*
X241994Y84988D01*
Y83012D01*
X241372Y82963D01*
X240760Y82816D01*
X240178Y82575D01*
X239642Y82246D01*
X239163Y81837D01*
X238754Y81358D01*
X238425Y80822D01*
X238184Y80240D01*
X238037Y79628D01*
X237988Y79000D01*
X238037Y78372D01*
X238184Y77760D01*
X238425Y77178D01*
X238754Y76642D01*
X239163Y76163D01*
X239642Y75754D01*
X240178Y75425D01*
X240760Y75184D01*
X241372Y75037D01*
X241994Y74988D01*
Y73012D01*
X241372Y72963D01*
X240760Y72816D01*
X240178Y72575D01*
X239642Y72246D01*
X239163Y71837D01*
X238754Y71358D01*
X238425Y70822D01*
X238184Y70240D01*
X238037Y69628D01*
X237988Y69000D01*
X238037Y68372D01*
X238184Y67760D01*
X238425Y67178D01*
X238754Y66642D01*
X239163Y66163D01*
X239642Y65754D01*
X240178Y65425D01*
X240760Y65184D01*
X241372Y65037D01*
X241994Y64988D01*
Y26469D01*
G37*
G36*
X240716Y115202D02*X240760Y115184D01*
X241372Y115037D01*
X241994Y114988D01*
Y113012D01*
X241372Y112963D01*
X240760Y112816D01*
X240716Y112798D01*
Y115202D01*
G37*
G36*
Y125202D02*X240760Y125184D01*
X241372Y125037D01*
X241994Y124988D01*
Y123012D01*
X241372Y122963D01*
X240760Y122816D01*
X240716Y122798D01*
Y125202D01*
G37*
G36*
Y135202D02*X240760Y135184D01*
X241372Y135037D01*
X241994Y134988D01*
Y133012D01*
X241372Y132963D01*
X240760Y132816D01*
X240716Y132798D01*
Y135202D01*
G37*
G36*
Y153368D02*X240728Y153349D01*
X241014Y153014D01*
X241349Y152728D01*
X241725Y152497D01*
X241994Y152386D01*
Y143012D01*
X241372Y142963D01*
X240760Y142816D01*
X240716Y142798D01*
Y153368D01*
G37*
G36*
Y380000D02*X241994D01*
Y218453D01*
X241956Y218419D01*
X241906Y218357D01*
X241867Y218288D01*
X241839Y218214D01*
X241823Y218137D01*
X241819Y218058D01*
X241827Y217979D01*
X241848Y217903D01*
X241880Y217830D01*
X241923Y217764D01*
X241976Y217705D01*
X241994Y217691D01*
Y212305D01*
X241979Y212293D01*
X241926Y212234D01*
X241883Y212168D01*
X241851Y212096D01*
X241830Y212020D01*
X241822Y211942D01*
X241826Y211864D01*
X241842Y211787D01*
X241870Y211713D01*
X241909Y211645D01*
X241958Y211584D01*
X241994Y211551D01*
Y157614D01*
X241725Y157503D01*
X241349Y157272D01*
X241014Y156986D01*
X240728Y156651D01*
X240716Y156632D01*
Y212865D01*
X240786Y212839D01*
X240863Y212823D01*
X240942Y212819D01*
X241021Y212827D01*
X241097Y212848D01*
X241170Y212880D01*
X241236Y212923D01*
X241295Y212976D01*
X241344Y213038D01*
X241384Y213107D01*
X241412Y213181D01*
X241428Y213258D01*
X241432Y213337D01*
X241424Y213416D01*
X241403Y213493D01*
X241370Y213564D01*
X241247Y213807D01*
X241150Y214062D01*
X241077Y214324D01*
X241028Y214592D01*
X241003Y214864D01*
Y215136D01*
X241028Y215408D01*
X241077Y215676D01*
X241150Y215938D01*
X241247Y216193D01*
X241367Y216437D01*
X241400Y216509D01*
X241421Y216585D01*
X241429Y216663D01*
X241425Y216741D01*
X241409Y216818D01*
X241381Y216892D01*
X241342Y216960D01*
X241293Y217021D01*
X241234Y217074D01*
X241168Y217117D01*
X241096Y217149D01*
X241020Y217170D01*
X240942Y217178D01*
X240864Y217174D01*
X240787Y217158D01*
X240716Y217131D01*
Y358320D01*
X240774Y358561D01*
X240800Y359000D01*
X240774Y359439D01*
X240716Y359680D01*
Y380000D01*
G37*
G36*
Y156632D02*X240497Y156275D01*
X240329Y155868D01*
X240226Y155439D01*
X240191Y155000D01*
X240226Y154561D01*
X240329Y154132D01*
X240497Y153725D01*
X240716Y153368D01*
Y142798D01*
X240178Y142575D01*
X239642Y142246D01*
X239163Y141837D01*
X238754Y141358D01*
X238425Y140822D01*
X238184Y140240D01*
X238037Y139628D01*
X237988Y139000D01*
X238037Y138372D01*
X238184Y137760D01*
X238425Y137178D01*
X238754Y136642D01*
X239163Y136163D01*
X239642Y135754D01*
X240178Y135425D01*
X240716Y135202D01*
Y132798D01*
X240178Y132575D01*
X239642Y132246D01*
X239163Y131837D01*
X238754Y131358D01*
X238425Y130822D01*
X238184Y130240D01*
X238037Y129628D01*
X237988Y129000D01*
X238037Y128372D01*
X238184Y127760D01*
X238425Y127178D01*
X238754Y126642D01*
X239163Y126163D01*
X239642Y125754D01*
X240178Y125425D01*
X240716Y125202D01*
Y122798D01*
X240178Y122575D01*
X239642Y122246D01*
X239163Y121837D01*
X238754Y121358D01*
X238425Y120822D01*
X238184Y120240D01*
X238037Y119628D01*
X237988Y119000D01*
X238037Y118372D01*
X238184Y117760D01*
X238425Y117178D01*
X238754Y116642D01*
X239163Y116163D01*
X239642Y115754D01*
X240178Y115425D01*
X240716Y115202D01*
Y112798D01*
X240439Y112683D01*
X236596Y116526D01*
Y340474D01*
X239019Y342898D01*
X239064Y342936D01*
X239217Y343115D01*
X239217Y343116D01*
X239341Y343317D01*
X239431Y343535D01*
X239486Y343765D01*
X239505Y344000D01*
X239500Y344059D01*
Y356635D01*
X239651Y356728D01*
X239986Y357014D01*
X240272Y357349D01*
X240503Y357725D01*
X240671Y358132D01*
X240716Y358320D01*
Y217131D01*
X240713Y217130D01*
X240645Y217091D01*
X240584Y217042D01*
X240531Y216983D01*
X240489Y216917D01*
X240326Y216592D01*
X240197Y216252D01*
X240099Y215902D01*
X240033Y215544D01*
X240000Y215182D01*
Y214818D01*
X240033Y214456D01*
X240099Y214098D01*
X240197Y213748D01*
X240326Y213408D01*
X240485Y213081D01*
X240528Y213015D01*
X240581Y212956D01*
X240643Y212906D01*
X240712Y212867D01*
X240716Y212865D01*
Y156632D01*
G37*
G36*
X236596Y380000D02*X240716D01*
Y359680D01*
X240671Y359868D01*
X240503Y360275D01*
X240272Y360651D01*
X239986Y360986D01*
X239651Y361272D01*
X239275Y361503D01*
X238868Y361671D01*
X238439Y361774D01*
X238000Y361809D01*
X237561Y361774D01*
X237132Y361671D01*
X236725Y361503D01*
X236596Y361423D01*
Y380000D01*
G37*
G36*
Y116526D02*X235500Y117621D01*
Y339379D01*
X236596Y340474D01*
Y116526D01*
G37*
G36*
X29993Y93537D02*X30000Y93536D01*
X30698Y93591D01*
X31379Y93755D01*
X32026Y94023D01*
X32624Y94389D01*
X33156Y94844D01*
X33611Y95376D01*
X33840Y95750D01*
X80912D01*
X81000Y95743D01*
X81353Y95771D01*
X81353Y95771D01*
X81697Y95854D01*
X82025Y95989D01*
X82327Y96174D01*
X82596Y96404D01*
X82653Y96471D01*
X93144Y106962D01*
X93183Y106946D01*
X93833Y106789D01*
X94500Y106737D01*
X95167Y106789D01*
X95817Y106946D01*
X96435Y107202D01*
X97006Y107551D01*
X97514Y107986D01*
X97949Y108494D01*
X98106Y108750D01*
X146894D01*
X147051Y108494D01*
X147486Y107986D01*
X147994Y107551D01*
X148565Y107202D01*
X149183Y106946D01*
X149833Y106789D01*
X150500Y106737D01*
X151167Y106789D01*
X151817Y106946D01*
X152435Y107202D01*
X153006Y107551D01*
X153514Y107986D01*
X153949Y108494D01*
X154106Y108750D01*
X156068D01*
X181750Y83068D01*
Y33088D01*
X181743Y33000D01*
X181771Y32647D01*
Y32647D01*
X181854Y32303D01*
X181989Y31975D01*
X182059Y31861D01*
X182174Y31673D01*
X182174Y31673D01*
X182404Y31404D01*
X182471Y31347D01*
X186347Y27471D01*
X186404Y27404D01*
X186673Y27174D01*
X186673Y27174D01*
X186861Y27059D01*
X186975Y26989D01*
X187303Y26854D01*
X187647Y26771D01*
X187647D01*
X188000Y26743D01*
X188088Y26750D01*
X233068D01*
X236067Y23751D01*
X236037Y23628D01*
X235988Y23000D01*
X236037Y22372D01*
X236184Y21760D01*
X236425Y21178D01*
X236596Y20900D01*
Y10000D01*
X179000D01*
Y83000D01*
X29993D01*
Y83537D01*
X30000Y83536D01*
X30698Y83591D01*
X31379Y83755D01*
X32026Y84023D01*
X32624Y84389D01*
X33156Y84844D01*
X33611Y85376D01*
X33977Y85974D01*
X34245Y86621D01*
X34409Y87302D01*
X34450Y88000D01*
X34409Y88698D01*
X34245Y89379D01*
X33977Y90026D01*
X33611Y90624D01*
X33156Y91156D01*
X32624Y91611D01*
X32026Y91977D01*
X31379Y92245D01*
X30698Y92409D01*
X30000Y92464D01*
X29993Y92463D01*
Y93537D01*
G37*
G36*
X209993Y319514D02*X210083Y319011D01*
X210143Y318338D01*
Y317662D01*
X210083Y316989D01*
X209993Y316486D01*
Y319514D01*
G37*
G36*
X222283Y60339D02*X222287Y60328D01*
X222464Y59676D01*
X222583Y59011D01*
X222643Y58338D01*
Y57662D01*
X222583Y56989D01*
X222464Y56324D01*
X222287Y55672D01*
X222283Y55661D01*
Y60339D01*
G37*
G36*
Y341596D02*X224500Y339379D01*
Y105059D01*
X224495Y105000D01*
X224514Y104765D01*
X224569Y104535D01*
X224659Y104317D01*
X224783Y104116D01*
X224936Y103936D01*
X224981Y103898D01*
X236596Y92283D01*
Y29586D01*
X235653Y30529D01*
X235596Y30596D01*
X235327Y30826D01*
X235327Y30826D01*
X235212Y30896D01*
X235025Y31011D01*
X234793Y31107D01*
X234697Y31146D01*
X234353Y31229D01*
X234000Y31257D01*
X233912Y31250D01*
X222283D01*
Y53320D01*
X222656Y53956D01*
X222983Y54647D01*
X223248Y55365D01*
X223448Y56103D01*
X223582Y56856D01*
X223650Y57618D01*
Y58382D01*
X223582Y59144D01*
X223448Y59897D01*
X223248Y60635D01*
X222983Y61353D01*
X222656Y62044D01*
X222283Y62680D01*
Y74180D01*
X222624Y74389D01*
X223156Y74844D01*
X223611Y75376D01*
X223977Y75974D01*
X224245Y76621D01*
X224409Y77302D01*
X224450Y78000D01*
X224409Y78698D01*
X224245Y79379D01*
X223977Y80026D01*
X223611Y80624D01*
X223156Y81156D01*
X222624Y81611D01*
X222283Y81820D01*
Y84180D01*
X222624Y84389D01*
X223156Y84844D01*
X223611Y85376D01*
X223977Y85974D01*
X224245Y86621D01*
X224409Y87302D01*
X224450Y88000D01*
X224409Y88698D01*
X224245Y89379D01*
X223977Y90026D01*
X223611Y90624D01*
X223156Y91156D01*
X222624Y91611D01*
X222283Y91820D01*
Y94180D01*
X222624Y94389D01*
X223156Y94844D01*
X223611Y95376D01*
X223977Y95974D01*
X224245Y96621D01*
X224409Y97302D01*
X224450Y98000D01*
X224409Y98698D01*
X224245Y99379D01*
X223977Y100026D01*
X223611Y100624D01*
X223156Y101156D01*
X222624Y101611D01*
X222283Y101820D01*
Y104180D01*
X222624Y104389D01*
X223156Y104844D01*
X223611Y105376D01*
X223977Y105974D01*
X224245Y106621D01*
X224409Y107302D01*
X224450Y108000D01*
X224409Y108698D01*
X224245Y109379D01*
X223977Y110026D01*
X223611Y110624D01*
X223156Y111156D01*
X222624Y111611D01*
X222283Y111820D01*
Y114180D01*
X222624Y114389D01*
X223156Y114844D01*
X223611Y115376D01*
X223977Y115974D01*
X224245Y116621D01*
X224409Y117302D01*
X224450Y118000D01*
X224409Y118698D01*
X224245Y119379D01*
X223977Y120026D01*
X223611Y120624D01*
X223156Y121156D01*
X222624Y121611D01*
X222283Y121820D01*
Y124180D01*
X222624Y124389D01*
X223156Y124844D01*
X223611Y125376D01*
X223977Y125974D01*
X224245Y126621D01*
X224409Y127302D01*
X224450Y128000D01*
X224409Y128698D01*
X224245Y129379D01*
X223977Y130026D01*
X223611Y130624D01*
X223156Y131156D01*
X222624Y131611D01*
X222283Y131820D01*
Y134180D01*
X222624Y134389D01*
X223156Y134844D01*
X223611Y135376D01*
X223977Y135974D01*
X224245Y136621D01*
X224409Y137302D01*
X224450Y138000D01*
X224409Y138698D01*
X224245Y139379D01*
X223977Y140026D01*
X223611Y140624D01*
X223156Y141156D01*
X222624Y141611D01*
X222283Y141820D01*
Y144180D01*
X222624Y144389D01*
X223156Y144844D01*
X223611Y145376D01*
X223977Y145974D01*
X224245Y146621D01*
X224409Y147302D01*
X224450Y148000D01*
X224409Y148698D01*
X224245Y149379D01*
X223977Y150026D01*
X223611Y150624D01*
X223156Y151156D01*
X222624Y151611D01*
X222283Y151820D01*
Y154180D01*
X222624Y154389D01*
X223156Y154844D01*
X223611Y155376D01*
X223977Y155974D01*
X224245Y156621D01*
X224409Y157302D01*
X224450Y158000D01*
X224409Y158698D01*
X224245Y159379D01*
X223977Y160026D01*
X223611Y160624D01*
X223156Y161156D01*
X222624Y161611D01*
X222283Y161820D01*
Y164180D01*
X222624Y164389D01*
X223156Y164844D01*
X223611Y165376D01*
X223977Y165974D01*
X224245Y166621D01*
X224409Y167302D01*
X224450Y168000D01*
X224409Y168698D01*
X224245Y169379D01*
X223977Y170026D01*
X223611Y170624D01*
X223156Y171156D01*
X222624Y171611D01*
X222283Y171820D01*
Y174180D01*
X222624Y174389D01*
X223156Y174844D01*
X223611Y175376D01*
X223977Y175974D01*
X224245Y176621D01*
X224409Y177302D01*
X224450Y178000D01*
X224409Y178698D01*
X224245Y179379D01*
X223977Y180026D01*
X223611Y180624D01*
X223156Y181156D01*
X222624Y181611D01*
X222283Y181820D01*
Y184180D01*
X222624Y184389D01*
X223156Y184844D01*
X223611Y185376D01*
X223977Y185974D01*
X224245Y186621D01*
X224409Y187302D01*
X224450Y188000D01*
X224409Y188698D01*
X224245Y189379D01*
X223977Y190026D01*
X223611Y190624D01*
X223156Y191156D01*
X222624Y191611D01*
X222283Y191820D01*
Y194180D01*
X222624Y194389D01*
X223156Y194844D01*
X223611Y195376D01*
X223977Y195974D01*
X224245Y196621D01*
X224409Y197302D01*
X224450Y198000D01*
X224409Y198698D01*
X224245Y199379D01*
X223977Y200026D01*
X223611Y200624D01*
X223156Y201156D01*
X222624Y201611D01*
X222283Y201820D01*
Y204180D01*
X222624Y204389D01*
X223156Y204844D01*
X223611Y205376D01*
X223977Y205974D01*
X224245Y206621D01*
X224409Y207302D01*
X224450Y208000D01*
X224409Y208698D01*
X224245Y209379D01*
X223977Y210026D01*
X223611Y210624D01*
X223156Y211156D01*
X222624Y211611D01*
X222283Y211820D01*
Y214180D01*
X222624Y214389D01*
X223156Y214844D01*
X223611Y215376D01*
X223977Y215974D01*
X224245Y216621D01*
X224409Y217302D01*
X224450Y218000D01*
X224409Y218698D01*
X224245Y219379D01*
X223977Y220026D01*
X223611Y220624D01*
X223156Y221156D01*
X222624Y221611D01*
X222283Y221820D01*
Y224180D01*
X222624Y224389D01*
X223156Y224844D01*
X223611Y225376D01*
X223977Y225974D01*
X224245Y226621D01*
X224409Y227302D01*
X224450Y228000D01*
X224409Y228698D01*
X224245Y229379D01*
X223977Y230026D01*
X223611Y230624D01*
X223156Y231156D01*
X222624Y231611D01*
X222283Y231820D01*
Y234180D01*
X222624Y234389D01*
X223156Y234844D01*
X223611Y235376D01*
X223977Y235974D01*
X224245Y236621D01*
X224409Y237302D01*
X224450Y238000D01*
X224409Y238698D01*
X224245Y239379D01*
X223977Y240026D01*
X223611Y240624D01*
X223156Y241156D01*
X222624Y241611D01*
X222283Y241820D01*
Y244180D01*
X222624Y244389D01*
X223156Y244844D01*
X223611Y245376D01*
X223977Y245974D01*
X224245Y246621D01*
X224409Y247302D01*
X224450Y248000D01*
X224409Y248698D01*
X224245Y249379D01*
X223977Y250026D01*
X223611Y250624D01*
X223156Y251156D01*
X222624Y251611D01*
X222283Y251820D01*
Y254180D01*
X222624Y254389D01*
X223156Y254844D01*
X223611Y255376D01*
X223977Y255974D01*
X224245Y256621D01*
X224409Y257302D01*
X224450Y258000D01*
X224409Y258698D01*
X224245Y259379D01*
X223977Y260026D01*
X223611Y260624D01*
X223156Y261156D01*
X222624Y261611D01*
X222283Y261820D01*
Y264180D01*
X222624Y264389D01*
X223156Y264844D01*
X223611Y265376D01*
X223977Y265974D01*
X224245Y266621D01*
X224409Y267302D01*
X224450Y268000D01*
X224409Y268698D01*
X224245Y269379D01*
X223977Y270026D01*
X223611Y270624D01*
X223156Y271156D01*
X222624Y271611D01*
X222283Y271820D01*
Y274180D01*
X222624Y274389D01*
X223156Y274844D01*
X223611Y275376D01*
X223977Y275974D01*
X224245Y276621D01*
X224409Y277302D01*
X224450Y278000D01*
X224409Y278698D01*
X224245Y279379D01*
X223977Y280026D01*
X223611Y280624D01*
X223156Y281156D01*
X222624Y281611D01*
X222283Y281820D01*
Y284180D01*
X222624Y284389D01*
X223156Y284844D01*
X223611Y285376D01*
X223977Y285974D01*
X224245Y286621D01*
X224409Y287302D01*
X224450Y288000D01*
X224409Y288698D01*
X224245Y289379D01*
X223977Y290026D01*
X223611Y290624D01*
X223156Y291156D01*
X222624Y291611D01*
X222283Y291820D01*
Y294180D01*
X222624Y294389D01*
X223156Y294844D01*
X223611Y295376D01*
X223977Y295974D01*
X224245Y296621D01*
X224409Y297302D01*
X224450Y298000D01*
X224409Y298698D01*
X224245Y299379D01*
X223977Y300026D01*
X223611Y300624D01*
X223156Y301156D01*
X222624Y301611D01*
X222283Y301820D01*
Y341596D01*
G37*
G36*
Y291820D02*X222026Y291977D01*
X221379Y292245D01*
X220698Y292409D01*
X220000Y292464D01*
X219993Y292463D01*
Y293537D01*
X220000Y293536D01*
X220698Y293591D01*
X221379Y293755D01*
X222026Y294023D01*
X222283Y294180D01*
Y291820D01*
G37*
G36*
Y281820D02*X222026Y281977D01*
X221379Y282245D01*
X220698Y282409D01*
X220000Y282464D01*
X219993Y282463D01*
Y283537D01*
X220000Y283536D01*
X220698Y283591D01*
X221379Y283755D01*
X222026Y284023D01*
X222283Y284180D01*
Y281820D01*
G37*
G36*
Y271820D02*X222026Y271977D01*
X221379Y272245D01*
X220698Y272409D01*
X220000Y272464D01*
X219993Y272463D01*
Y273537D01*
X220000Y273536D01*
X220698Y273591D01*
X221379Y273755D01*
X222026Y274023D01*
X222283Y274180D01*
Y271820D01*
G37*
G36*
Y261820D02*X222026Y261977D01*
X221379Y262245D01*
X220698Y262409D01*
X220000Y262464D01*
X219993Y262463D01*
Y263537D01*
X220000Y263536D01*
X220698Y263591D01*
X221379Y263755D01*
X222026Y264023D01*
X222283Y264180D01*
Y261820D01*
G37*
G36*
Y251820D02*X222026Y251977D01*
X221379Y252245D01*
X220698Y252409D01*
X220000Y252464D01*
X219993Y252463D01*
Y253537D01*
X220000Y253536D01*
X220698Y253591D01*
X221379Y253755D01*
X222026Y254023D01*
X222283Y254180D01*
Y251820D01*
G37*
G36*
Y241820D02*X222026Y241977D01*
X221379Y242245D01*
X220698Y242409D01*
X220000Y242464D01*
X219993Y242463D01*
Y243537D01*
X220000Y243536D01*
X220698Y243591D01*
X221379Y243755D01*
X222026Y244023D01*
X222283Y244180D01*
Y241820D01*
G37*
G36*
Y231820D02*X222026Y231977D01*
X221379Y232245D01*
X220698Y232409D01*
X220000Y232464D01*
X219993Y232463D01*
Y233537D01*
X220000Y233536D01*
X220698Y233591D01*
X221379Y233755D01*
X222026Y234023D01*
X222283Y234180D01*
Y231820D01*
G37*
G36*
Y221820D02*X222026Y221977D01*
X221379Y222245D01*
X220698Y222409D01*
X220000Y222464D01*
X219993Y222463D01*
Y223537D01*
X220000Y223536D01*
X220698Y223591D01*
X221379Y223755D01*
X222026Y224023D01*
X222283Y224180D01*
Y221820D01*
G37*
G36*
Y211820D02*X222026Y211977D01*
X221379Y212245D01*
X220698Y212409D01*
X220000Y212464D01*
X219993Y212463D01*
Y213537D01*
X220000Y213536D01*
X220698Y213591D01*
X221379Y213755D01*
X222026Y214023D01*
X222283Y214180D01*
Y211820D01*
G37*
G36*
Y201820D02*X222026Y201977D01*
X221379Y202245D01*
X220698Y202409D01*
X220000Y202464D01*
X219993Y202463D01*
Y203537D01*
X220000Y203536D01*
X220698Y203591D01*
X221379Y203755D01*
X222026Y204023D01*
X222283Y204180D01*
Y201820D01*
G37*
G36*
Y191820D02*X222026Y191977D01*
X221379Y192245D01*
X220698Y192409D01*
X220000Y192464D01*
X219993Y192463D01*
Y193537D01*
X220000Y193536D01*
X220698Y193591D01*
X221379Y193755D01*
X222026Y194023D01*
X222283Y194180D01*
Y191820D01*
G37*
G36*
Y181820D02*X222026Y181977D01*
X221379Y182245D01*
X220698Y182409D01*
X220000Y182464D01*
X219993Y182463D01*
Y183537D01*
X220000Y183536D01*
X220698Y183591D01*
X221379Y183755D01*
X222026Y184023D01*
X222283Y184180D01*
Y181820D01*
G37*
G36*
Y171820D02*X222026Y171977D01*
X221379Y172245D01*
X220698Y172409D01*
X220000Y172464D01*
X219993Y172463D01*
Y173537D01*
X220000Y173536D01*
X220698Y173591D01*
X221379Y173755D01*
X222026Y174023D01*
X222283Y174180D01*
Y171820D01*
G37*
G36*
Y161820D02*X222026Y161977D01*
X221379Y162245D01*
X220698Y162409D01*
X220000Y162464D01*
X219993Y162463D01*
Y163537D01*
X220000Y163536D01*
X220698Y163591D01*
X221379Y163755D01*
X222026Y164023D01*
X222283Y164180D01*
Y161820D01*
G37*
G36*
Y151820D02*X222026Y151977D01*
X221379Y152245D01*
X220698Y152409D01*
X220000Y152464D01*
X219993Y152463D01*
Y153537D01*
X220000Y153536D01*
X220698Y153591D01*
X221379Y153755D01*
X222026Y154023D01*
X222283Y154180D01*
Y151820D01*
G37*
G36*
Y141820D02*X222026Y141977D01*
X221379Y142245D01*
X220698Y142409D01*
X220000Y142464D01*
X219993Y142463D01*
Y143537D01*
X220000Y143536D01*
X220698Y143591D01*
X221379Y143755D01*
X222026Y144023D01*
X222283Y144180D01*
Y141820D01*
G37*
G36*
Y131820D02*X222026Y131977D01*
X221379Y132245D01*
X220698Y132409D01*
X220000Y132464D01*
X219993Y132463D01*
Y133537D01*
X220000Y133536D01*
X220698Y133591D01*
X221379Y133755D01*
X222026Y134023D01*
X222283Y134180D01*
Y131820D01*
G37*
G36*
Y121820D02*X222026Y121977D01*
X221379Y122245D01*
X220698Y122409D01*
X220000Y122464D01*
X219993Y122463D01*
Y123537D01*
X220000Y123536D01*
X220698Y123591D01*
X221379Y123755D01*
X222026Y124023D01*
X222283Y124180D01*
Y121820D01*
G37*
G36*
Y111820D02*X222026Y111977D01*
X221379Y112245D01*
X220698Y112409D01*
X220000Y112464D01*
X219993Y112463D01*
Y113537D01*
X220000Y113536D01*
X220698Y113591D01*
X221379Y113755D01*
X222026Y114023D01*
X222283Y114180D01*
Y111820D01*
G37*
G36*
Y101820D02*X222026Y101977D01*
X221379Y102245D01*
X220698Y102409D01*
X220000Y102464D01*
X219993Y102463D01*
Y103537D01*
X220000Y103536D01*
X220698Y103591D01*
X221379Y103755D01*
X222026Y104023D01*
X222283Y104180D01*
Y101820D01*
G37*
G36*
Y91820D02*X222026Y91977D01*
X221379Y92245D01*
X220698Y92409D01*
X220000Y92464D01*
X219993Y92463D01*
Y93537D01*
X220000Y93536D01*
X220698Y93591D01*
X221379Y93755D01*
X222026Y94023D01*
X222283Y94180D01*
Y91820D01*
G37*
G36*
Y81820D02*X222026Y81977D01*
X221379Y82245D01*
X220698Y82409D01*
X220000Y82464D01*
X219993Y82463D01*
Y83537D01*
X220000Y83536D01*
X220698Y83591D01*
X221379Y83755D01*
X222026Y84023D01*
X222283Y84180D01*
Y81820D01*
G37*
G36*
Y31250D02*X219993D01*
Y50937D01*
X220327Y51174D01*
X220386Y51228D01*
X220436Y51290D01*
X220475Y51360D01*
X220503Y51435D01*
X220519Y51513D01*
X220523Y51593D01*
X220514Y51672D01*
X220493Y51749D01*
X220460Y51822D01*
X220416Y51888D01*
X220362Y51947D01*
X220299Y51997D01*
X220230Y52036D01*
X220155Y52064D01*
X220077Y52080D01*
X219997Y52084D01*
X219993Y52083D01*
Y63924D01*
X219997Y63924D01*
X220076Y63927D01*
X220153Y63943D01*
X220226Y63970D01*
X220295Y64009D01*
X220356Y64058D01*
X220410Y64116D01*
X220453Y64182D01*
X220486Y64254D01*
X220507Y64329D01*
X220515Y64408D01*
X220512Y64486D01*
X220496Y64563D01*
X220469Y64637D01*
X220430Y64706D01*
X220381Y64767D01*
X220322Y64819D01*
X219993Y65059D01*
Y73537D01*
X220000Y73536D01*
X220698Y73591D01*
X221379Y73755D01*
X222026Y74023D01*
X222283Y74180D01*
Y62680D01*
X222269Y62704D01*
X221826Y63327D01*
X221772Y63386D01*
X221710Y63436D01*
X221640Y63475D01*
X221565Y63504D01*
X221487Y63519D01*
X221407Y63523D01*
X221328Y63514D01*
X221251Y63493D01*
X221178Y63460D01*
X221112Y63416D01*
X221053Y63362D01*
X221003Y63299D01*
X220964Y63230D01*
X220936Y63155D01*
X220920Y63077D01*
X220916Y62997D01*
X220925Y62917D01*
X220947Y62840D01*
X220980Y62768D01*
X221025Y62702D01*
X221423Y62156D01*
X221764Y61573D01*
X222053Y60962D01*
X222283Y60339D01*
Y55661D01*
X222053Y55038D01*
X221764Y54427D01*
X221423Y53844D01*
X221031Y53293D01*
X220986Y53229D01*
X220954Y53157D01*
X220933Y53081D01*
X220924Y53003D01*
X220927Y52924D01*
X220943Y52847D01*
X220970Y52774D01*
X221009Y52705D01*
X221058Y52643D01*
X221116Y52590D01*
X221182Y52547D01*
X221254Y52514D01*
X221329Y52493D01*
X221408Y52485D01*
X221486Y52488D01*
X221563Y52504D01*
X221637Y52531D01*
X221706Y52570D01*
X221767Y52619D01*
X221819Y52678D01*
X222269Y53296D01*
X222283Y53320D01*
Y31250D01*
G37*
G36*
X219993Y372038D02*X220014Y372014D01*
X220349Y371728D01*
X220500Y371635D01*
Y344059D01*
X220495Y344000D01*
X220514Y343765D01*
X220569Y343535D01*
X220659Y343317D01*
X220783Y343116D01*
X220936Y342936D01*
X220981Y342898D01*
X222283Y341596D01*
Y301820D01*
X222026Y301977D01*
X221379Y302245D01*
X220698Y302409D01*
X220000Y302464D01*
X219993Y302463D01*
Y372038D01*
G37*
G36*
Y380000D02*X236596D01*
Y361423D01*
X236349Y361272D01*
X236014Y360986D01*
X235728Y360651D01*
X235497Y360275D01*
X235329Y359868D01*
X235226Y359439D01*
X235191Y359000D01*
X235226Y358561D01*
X235329Y358132D01*
X235497Y357725D01*
X235728Y357349D01*
X236014Y357014D01*
X236349Y356728D01*
X236500Y356635D01*
Y344621D01*
X232981Y341102D01*
X232936Y341064D01*
X232783Y340884D01*
X232659Y340683D01*
X232569Y340465D01*
X232514Y340235D01*
X232514Y340235D01*
X232495Y340000D01*
X232500Y339941D01*
Y117059D01*
X232495Y117000D01*
X232514Y116765D01*
X232569Y116535D01*
X232659Y116317D01*
X232783Y116116D01*
X232936Y115936D01*
X232981Y115898D01*
X236596Y112283D01*
Y106526D01*
X231500Y111621D01*
Y351635D01*
X231651Y351728D01*
X231986Y352014D01*
X232272Y352349D01*
X232503Y352725D01*
X232671Y353132D01*
X232774Y353561D01*
X232800Y354000D01*
X232774Y354439D01*
X232671Y354868D01*
X232503Y355275D01*
X232272Y355651D01*
X231986Y355986D01*
X231651Y356272D01*
X231275Y356503D01*
X230868Y356671D01*
X230439Y356774D01*
X230000Y356809D01*
X229561Y356774D01*
X229132Y356671D01*
X228725Y356503D01*
X228349Y356272D01*
X228014Y355986D01*
X227728Y355651D01*
X227497Y355275D01*
X227329Y354868D01*
X227226Y354439D01*
X227191Y354000D01*
X227226Y353561D01*
X227329Y353132D01*
X227497Y352725D01*
X227728Y352349D01*
X228014Y352014D01*
X228349Y351728D01*
X228500Y351635D01*
Y111059D01*
X228495Y111000D01*
X228514Y110765D01*
X228569Y110535D01*
X228659Y110317D01*
X228783Y110116D01*
X228936Y109936D01*
X228981Y109898D01*
X236596Y102283D01*
Y96526D01*
X227500Y105621D01*
Y339941D01*
X227505Y340000D01*
X227486Y340235D01*
X227431Y340465D01*
X227341Y340683D01*
X227217Y340884D01*
X227064Y341064D01*
X227019Y341102D01*
X223500Y344621D01*
Y371635D01*
X223651Y371728D01*
X223986Y372014D01*
X224272Y372349D01*
X224503Y372725D01*
X224671Y373132D01*
X224774Y373561D01*
X224800Y374000D01*
X224774Y374439D01*
X224671Y374868D01*
X224503Y375275D01*
X224272Y375651D01*
X223986Y375986D01*
X223651Y376272D01*
X223275Y376503D01*
X222868Y376671D01*
X222439Y376774D01*
X222000Y376809D01*
X221561Y376774D01*
X221132Y376671D01*
X220725Y376503D01*
X220349Y376272D01*
X220014Y375986D01*
X219993Y375962D01*
Y380000D01*
G37*
G36*
Y52083D02*X219917Y52075D01*
X219840Y52053D01*
X219768Y52020D01*
X219702Y51975D01*
X219156Y51577D01*
X218573Y51236D01*
X217962Y50947D01*
X217328Y50713D01*
X216676Y50536D01*
X216011Y50417D01*
X215338Y50357D01*
X214662D01*
X213989Y50417D01*
X213324Y50536D01*
X212672Y50713D01*
X212038Y50947D01*
X211427Y51236D01*
X210844Y51577D01*
X210293Y51969D01*
X210229Y52014D01*
X210157Y52046D01*
X210081Y52067D01*
X210003Y52076D01*
X209993Y52076D01*
Y63917D01*
X210003Y63916D01*
X210083Y63925D01*
X210160Y63947D01*
X210232Y63980D01*
X210298Y64025D01*
X210844Y64423D01*
X211427Y64764D01*
X212038Y65053D01*
X212672Y65287D01*
X213324Y65464D01*
X213989Y65583D01*
X214662Y65643D01*
X215338D01*
X216011Y65583D01*
X216676Y65464D01*
X217328Y65287D01*
X217962Y65053D01*
X218573Y64764D01*
X219156Y64423D01*
X219707Y64031D01*
X219771Y63986D01*
X219843Y63954D01*
X219919Y63933D01*
X219993Y63924D01*
Y52083D01*
G37*
G36*
Y31250D02*X209993D01*
Y50951D01*
X210296Y50731D01*
X210956Y50344D01*
X211647Y50017D01*
X212365Y49752D01*
X213103Y49552D01*
X213856Y49418D01*
X214618Y49350D01*
X215382D01*
X216144Y49418D01*
X216897Y49552D01*
X217635Y49752D01*
X218353Y50017D01*
X219044Y50344D01*
X219704Y50731D01*
X219993Y50937D01*
Y31250D01*
G37*
G36*
X209993Y380000D02*X219993D01*
Y375962D01*
X219728Y375651D01*
X219497Y375275D01*
X219329Y374868D01*
X219226Y374439D01*
X219191Y374000D01*
X219226Y373561D01*
X219329Y373132D01*
X219497Y372725D01*
X219728Y372349D01*
X219993Y372038D01*
Y302463D01*
X219302Y302409D01*
X218621Y302245D01*
X217974Y301977D01*
X217376Y301611D01*
X216844Y301156D01*
X216389Y300624D01*
X216023Y300026D01*
X215755Y299379D01*
X215591Y298698D01*
X215536Y298000D01*
X215591Y297302D01*
X215755Y296621D01*
X216023Y295974D01*
X216389Y295376D01*
X216844Y294844D01*
X217376Y294389D01*
X217974Y294023D01*
X218621Y293755D01*
X219302Y293591D01*
X219993Y293537D01*
Y292463D01*
X219302Y292409D01*
X218621Y292245D01*
X217974Y291977D01*
X217376Y291611D01*
X216844Y291156D01*
X216389Y290624D01*
X216023Y290026D01*
X215755Y289379D01*
X215591Y288698D01*
X215536Y288000D01*
X215591Y287302D01*
X215755Y286621D01*
X216023Y285974D01*
X216389Y285376D01*
X216844Y284844D01*
X217376Y284389D01*
X217974Y284023D01*
X218621Y283755D01*
X219302Y283591D01*
X219993Y283537D01*
Y282463D01*
X219302Y282409D01*
X218621Y282245D01*
X217974Y281977D01*
X217376Y281611D01*
X216844Y281156D01*
X216389Y280624D01*
X216023Y280026D01*
X215755Y279379D01*
X215591Y278698D01*
X215536Y278000D01*
X215591Y277302D01*
X215755Y276621D01*
X216023Y275974D01*
X216389Y275376D01*
X216844Y274844D01*
X217376Y274389D01*
X217974Y274023D01*
X218621Y273755D01*
X219302Y273591D01*
X219993Y273537D01*
Y272463D01*
X219302Y272409D01*
X218621Y272245D01*
X217974Y271977D01*
X217376Y271611D01*
X216844Y271156D01*
X216389Y270624D01*
X216023Y270026D01*
X215755Y269379D01*
X215591Y268698D01*
X215536Y268000D01*
X215591Y267302D01*
X215755Y266621D01*
X216023Y265974D01*
X216389Y265376D01*
X216844Y264844D01*
X217376Y264389D01*
X217974Y264023D01*
X218621Y263755D01*
X219302Y263591D01*
X219993Y263537D01*
Y262463D01*
X219302Y262409D01*
X218621Y262245D01*
X217974Y261977D01*
X217376Y261611D01*
X216844Y261156D01*
X216389Y260624D01*
X216023Y260026D01*
X215755Y259379D01*
X215591Y258698D01*
X215536Y258000D01*
X215591Y257302D01*
X215755Y256621D01*
X216023Y255974D01*
X216389Y255376D01*
X216844Y254844D01*
X217376Y254389D01*
X217974Y254023D01*
X218621Y253755D01*
X219302Y253591D01*
X219993Y253537D01*
Y252463D01*
X219302Y252409D01*
X218621Y252245D01*
X217974Y251977D01*
X217376Y251611D01*
X216844Y251156D01*
X216389Y250624D01*
X216023Y250026D01*
X215755Y249379D01*
X215591Y248698D01*
X215536Y248000D01*
X215591Y247302D01*
X215755Y246621D01*
X216023Y245974D01*
X216389Y245376D01*
X216844Y244844D01*
X217376Y244389D01*
X217974Y244023D01*
X218621Y243755D01*
X219302Y243591D01*
X219993Y243537D01*
Y242463D01*
X219302Y242409D01*
X218621Y242245D01*
X217974Y241977D01*
X217376Y241611D01*
X216844Y241156D01*
X216389Y240624D01*
X216023Y240026D01*
X215755Y239379D01*
X215591Y238698D01*
X215536Y238000D01*
X215591Y237302D01*
X215755Y236621D01*
X216023Y235974D01*
X216389Y235376D01*
X216844Y234844D01*
X217376Y234389D01*
X217974Y234023D01*
X218621Y233755D01*
X219302Y233591D01*
X219993Y233537D01*
Y232463D01*
X219302Y232409D01*
X218621Y232245D01*
X217974Y231977D01*
X217376Y231611D01*
X216844Y231156D01*
X216389Y230624D01*
X216023Y230026D01*
X215755Y229379D01*
X215591Y228698D01*
X215536Y228000D01*
X215591Y227302D01*
X215755Y226621D01*
X216023Y225974D01*
X216389Y225376D01*
X216844Y224844D01*
X217376Y224389D01*
X217974Y224023D01*
X218621Y223755D01*
X219302Y223591D01*
X219993Y223537D01*
Y222463D01*
X219302Y222409D01*
X218621Y222245D01*
X217974Y221977D01*
X217376Y221611D01*
X216844Y221156D01*
X216389Y220624D01*
X216023Y220026D01*
X215755Y219379D01*
X215591Y218698D01*
X215536Y218000D01*
X215591Y217302D01*
X215755Y216621D01*
X216023Y215974D01*
X216389Y215376D01*
X216844Y214844D01*
X217376Y214389D01*
X217974Y214023D01*
X218621Y213755D01*
X219302Y213591D01*
X219993Y213537D01*
Y212463D01*
X219302Y212409D01*
X218621Y212245D01*
X217974Y211977D01*
X217376Y211611D01*
X216844Y211156D01*
X216389Y210624D01*
X216023Y210026D01*
X215755Y209379D01*
X215591Y208698D01*
X215536Y208000D01*
X215591Y207302D01*
X215755Y206621D01*
X216023Y205974D01*
X216389Y205376D01*
X216844Y204844D01*
X217376Y204389D01*
X217974Y204023D01*
X218621Y203755D01*
X219302Y203591D01*
X219993Y203537D01*
Y202463D01*
X219302Y202409D01*
X218621Y202245D01*
X217974Y201977D01*
X217376Y201611D01*
X216844Y201156D01*
X216389Y200624D01*
X216023Y200026D01*
X215755Y199379D01*
X215591Y198698D01*
X215536Y198000D01*
X215591Y197302D01*
X215755Y196621D01*
X216023Y195974D01*
X216389Y195376D01*
X216844Y194844D01*
X217376Y194389D01*
X217974Y194023D01*
X218621Y193755D01*
X219302Y193591D01*
X219993Y193537D01*
Y192463D01*
X219302Y192409D01*
X218621Y192245D01*
X217974Y191977D01*
X217376Y191611D01*
X216844Y191156D01*
X216389Y190624D01*
X216023Y190026D01*
X215755Y189379D01*
X215591Y188698D01*
X215536Y188000D01*
X215591Y187302D01*
X215755Y186621D01*
X216023Y185974D01*
X216389Y185376D01*
X216844Y184844D01*
X217376Y184389D01*
X217974Y184023D01*
X218621Y183755D01*
X219302Y183591D01*
X219993Y183537D01*
Y182463D01*
X219302Y182409D01*
X218621Y182245D01*
X217974Y181977D01*
X217376Y181611D01*
X216844Y181156D01*
X216389Y180624D01*
X216023Y180026D01*
X215755Y179379D01*
X215591Y178698D01*
X215536Y178000D01*
X215591Y177302D01*
X215755Y176621D01*
X216023Y175974D01*
X216389Y175376D01*
X216844Y174844D01*
X217376Y174389D01*
X217974Y174023D01*
X218621Y173755D01*
X219302Y173591D01*
X219993Y173537D01*
Y172463D01*
X219302Y172409D01*
X218621Y172245D01*
X217974Y171977D01*
X217376Y171611D01*
X216844Y171156D01*
X216389Y170624D01*
X216023Y170026D01*
X215755Y169379D01*
X215591Y168698D01*
X215536Y168000D01*
X215591Y167302D01*
X215755Y166621D01*
X216023Y165974D01*
X216389Y165376D01*
X216844Y164844D01*
X217376Y164389D01*
X217974Y164023D01*
X218621Y163755D01*
X219302Y163591D01*
X219993Y163537D01*
Y162463D01*
X219302Y162409D01*
X218621Y162245D01*
X217974Y161977D01*
X217376Y161611D01*
X216844Y161156D01*
X216389Y160624D01*
X216023Y160026D01*
X215755Y159379D01*
X215591Y158698D01*
X215536Y158000D01*
X215591Y157302D01*
X215755Y156621D01*
X216023Y155974D01*
X216389Y155376D01*
X216844Y154844D01*
X217376Y154389D01*
X217974Y154023D01*
X218621Y153755D01*
X219302Y153591D01*
X219993Y153537D01*
Y152463D01*
X219302Y152409D01*
X218621Y152245D01*
X217974Y151977D01*
X217376Y151611D01*
X216844Y151156D01*
X216389Y150624D01*
X216023Y150026D01*
X215755Y149379D01*
X215591Y148698D01*
X215536Y148000D01*
X215591Y147302D01*
X215755Y146621D01*
X216023Y145974D01*
X216389Y145376D01*
X216844Y144844D01*
X217376Y144389D01*
X217974Y144023D01*
X218621Y143755D01*
X219302Y143591D01*
X219993Y143537D01*
Y142463D01*
X219302Y142409D01*
X218621Y142245D01*
X217974Y141977D01*
X217376Y141611D01*
X216844Y141156D01*
X216389Y140624D01*
X216023Y140026D01*
X215755Y139379D01*
X215591Y138698D01*
X215536Y138000D01*
X215591Y137302D01*
X215755Y136621D01*
X216023Y135974D01*
X216389Y135376D01*
X216844Y134844D01*
X217376Y134389D01*
X217974Y134023D01*
X218621Y133755D01*
X219302Y133591D01*
X219993Y133537D01*
Y132463D01*
X219302Y132409D01*
X218621Y132245D01*
X217974Y131977D01*
X217376Y131611D01*
X216844Y131156D01*
X216389Y130624D01*
X216023Y130026D01*
X215755Y129379D01*
X215591Y128698D01*
X215536Y128000D01*
X215591Y127302D01*
X215755Y126621D01*
X216023Y125974D01*
X216389Y125376D01*
X216844Y124844D01*
X217376Y124389D01*
X217974Y124023D01*
X218621Y123755D01*
X219302Y123591D01*
X219993Y123537D01*
Y122463D01*
X219302Y122409D01*
X218621Y122245D01*
X217974Y121977D01*
X217376Y121611D01*
X216844Y121156D01*
X216389Y120624D01*
X216023Y120026D01*
X215755Y119379D01*
X215591Y118698D01*
X215536Y118000D01*
X215591Y117302D01*
X215755Y116621D01*
X216023Y115974D01*
X216389Y115376D01*
X216844Y114844D01*
X217376Y114389D01*
X217974Y114023D01*
X218621Y113755D01*
X219302Y113591D01*
X219993Y113537D01*
Y112463D01*
X219302Y112409D01*
X218621Y112245D01*
X217974Y111977D01*
X217376Y111611D01*
X216844Y111156D01*
X216389Y110624D01*
X216023Y110026D01*
X215755Y109379D01*
X215591Y108698D01*
X215536Y108000D01*
X215591Y107302D01*
X215755Y106621D01*
X216023Y105974D01*
X216389Y105376D01*
X216844Y104844D01*
X217376Y104389D01*
X217974Y104023D01*
X218621Y103755D01*
X219302Y103591D01*
X219993Y103537D01*
Y102463D01*
X219302Y102409D01*
X218621Y102245D01*
X217974Y101977D01*
X217376Y101611D01*
X216844Y101156D01*
X216389Y100624D01*
X216023Y100026D01*
X215755Y99379D01*
X215591Y98698D01*
X215536Y98000D01*
X215591Y97302D01*
X215755Y96621D01*
X216023Y95974D01*
X216389Y95376D01*
X216844Y94844D01*
X217376Y94389D01*
X217974Y94023D01*
X218621Y93755D01*
X219302Y93591D01*
X219993Y93537D01*
Y92463D01*
X219302Y92409D01*
X218621Y92245D01*
X217974Y91977D01*
X217376Y91611D01*
X216844Y91156D01*
X216389Y90624D01*
X216023Y90026D01*
X215755Y89379D01*
X215591Y88698D01*
X215536Y88000D01*
X215591Y87302D01*
X215755Y86621D01*
X216023Y85974D01*
X216389Y85376D01*
X216844Y84844D01*
X217376Y84389D01*
X217974Y84023D01*
X218621Y83755D01*
X219302Y83591D01*
X219993Y83537D01*
Y82463D01*
X219302Y82409D01*
X218621Y82245D01*
X217974Y81977D01*
X217376Y81611D01*
X216844Y81156D01*
X216389Y80624D01*
X216023Y80026D01*
X215755Y79379D01*
X215591Y78698D01*
X215536Y78000D01*
X215591Y77302D01*
X215755Y76621D01*
X216023Y75974D01*
X216389Y75376D01*
X216844Y74844D01*
X217376Y74389D01*
X217974Y74023D01*
X218621Y73755D01*
X219302Y73591D01*
X219993Y73537D01*
Y65059D01*
X219704Y65269D01*
X219044Y65656D01*
X218353Y65983D01*
X217635Y66248D01*
X216897Y66448D01*
X216144Y66583D01*
X215382Y66650D01*
X214618D01*
X213856Y66583D01*
X213103Y66448D01*
X212365Y66248D01*
X211647Y65983D01*
X210956Y65656D01*
X210296Y65269D01*
X209993Y65054D01*
Y73537D01*
X210000Y73536D01*
X210698Y73591D01*
X211379Y73755D01*
X212026Y74023D01*
X212624Y74389D01*
X213156Y74844D01*
X213611Y75376D01*
X213977Y75974D01*
X214245Y76621D01*
X214409Y77302D01*
X214450Y78000D01*
X214409Y78698D01*
X214245Y79379D01*
X213977Y80026D01*
X213611Y80624D01*
X213156Y81156D01*
X212624Y81611D01*
X212026Y81977D01*
X211379Y82245D01*
X210698Y82409D01*
X210000Y82464D01*
X209993Y82463D01*
Y83537D01*
X210000Y83536D01*
X210698Y83591D01*
X211379Y83755D01*
X212026Y84023D01*
X212624Y84389D01*
X213156Y84844D01*
X213611Y85376D01*
X213977Y85974D01*
X214245Y86621D01*
X214409Y87302D01*
X214450Y88000D01*
X214409Y88698D01*
X214245Y89379D01*
X213977Y90026D01*
X213611Y90624D01*
X213156Y91156D01*
X212624Y91611D01*
X212026Y91977D01*
X211379Y92245D01*
X210698Y92409D01*
X210000Y92464D01*
X209993Y92463D01*
Y93537D01*
X210000Y93536D01*
X210698Y93591D01*
X211379Y93755D01*
X212026Y94023D01*
X212624Y94389D01*
X213156Y94844D01*
X213611Y95376D01*
X213977Y95974D01*
X214245Y96621D01*
X214409Y97302D01*
X214450Y98000D01*
X214409Y98698D01*
X214245Y99379D01*
X213977Y100026D01*
X213611Y100624D01*
X213156Y101156D01*
X212624Y101611D01*
X212026Y101977D01*
X211379Y102245D01*
X210698Y102409D01*
X210000Y102464D01*
X209993Y102463D01*
Y103537D01*
X210000Y103536D01*
X210698Y103591D01*
X211379Y103755D01*
X212026Y104023D01*
X212624Y104389D01*
X213156Y104844D01*
X213611Y105376D01*
X213977Y105974D01*
X214245Y106621D01*
X214409Y107302D01*
X214450Y108000D01*
X214409Y108698D01*
X214245Y109379D01*
X213977Y110026D01*
X213611Y110624D01*
X213156Y111156D01*
X212624Y111611D01*
X212026Y111977D01*
X211379Y112245D01*
X210698Y112409D01*
X210000Y112464D01*
X209993Y112463D01*
Y113537D01*
X210000Y113536D01*
X210698Y113591D01*
X211379Y113755D01*
X212026Y114023D01*
X212624Y114389D01*
X213156Y114844D01*
X213611Y115376D01*
X213977Y115974D01*
X214245Y116621D01*
X214409Y117302D01*
X214450Y118000D01*
X214409Y118698D01*
X214245Y119379D01*
X213977Y120026D01*
X213611Y120624D01*
X213156Y121156D01*
X212624Y121611D01*
X212026Y121977D01*
X211379Y122245D01*
X210698Y122409D01*
X210000Y122464D01*
X209993Y122463D01*
Y123537D01*
X210000Y123536D01*
X210698Y123591D01*
X211379Y123755D01*
X212026Y124023D01*
X212624Y124389D01*
X213156Y124844D01*
X213611Y125376D01*
X213977Y125974D01*
X214245Y126621D01*
X214409Y127302D01*
X214450Y128000D01*
X214409Y128698D01*
X214245Y129379D01*
X213977Y130026D01*
X213611Y130624D01*
X213156Y131156D01*
X212624Y131611D01*
X212026Y131977D01*
X211379Y132245D01*
X210698Y132409D01*
X210000Y132464D01*
X209993Y132463D01*
Y133537D01*
X210000Y133536D01*
X210698Y133591D01*
X211379Y133755D01*
X212026Y134023D01*
X212624Y134389D01*
X213156Y134844D01*
X213611Y135376D01*
X213977Y135974D01*
X214245Y136621D01*
X214409Y137302D01*
X214450Y138000D01*
X214409Y138698D01*
X214245Y139379D01*
X213977Y140026D01*
X213611Y140624D01*
X213156Y141156D01*
X212624Y141611D01*
X212026Y141977D01*
X211379Y142245D01*
X210698Y142409D01*
X210000Y142464D01*
X209993Y142463D01*
Y143537D01*
X210000Y143536D01*
X210698Y143591D01*
X211379Y143755D01*
X212026Y144023D01*
X212624Y144389D01*
X213156Y144844D01*
X213611Y145376D01*
X213977Y145974D01*
X214245Y146621D01*
X214409Y147302D01*
X214450Y148000D01*
X214409Y148698D01*
X214245Y149379D01*
X213977Y150026D01*
X213611Y150624D01*
X213156Y151156D01*
X212624Y151611D01*
X212026Y151977D01*
X211379Y152245D01*
X210698Y152409D01*
X210000Y152464D01*
X209993Y152463D01*
Y153537D01*
X210000Y153536D01*
X210698Y153591D01*
X211379Y153755D01*
X212026Y154023D01*
X212624Y154389D01*
X213156Y154844D01*
X213611Y155376D01*
X213977Y155974D01*
X214245Y156621D01*
X214409Y157302D01*
X214450Y158000D01*
X214409Y158698D01*
X214245Y159379D01*
X213977Y160026D01*
X213611Y160624D01*
X213156Y161156D01*
X212624Y161611D01*
X212026Y161977D01*
X211379Y162245D01*
X210698Y162409D01*
X210000Y162464D01*
X209993Y162463D01*
Y163537D01*
X210000Y163536D01*
X210698Y163591D01*
X211379Y163755D01*
X212026Y164023D01*
X212624Y164389D01*
X213156Y164844D01*
X213611Y165376D01*
X213977Y165974D01*
X214245Y166621D01*
X214409Y167302D01*
X214450Y168000D01*
X214409Y168698D01*
X214245Y169379D01*
X213977Y170026D01*
X213611Y170624D01*
X213156Y171156D01*
X212624Y171611D01*
X212026Y171977D01*
X211379Y172245D01*
X210698Y172409D01*
X210000Y172464D01*
X209993Y172463D01*
Y173537D01*
X210000Y173536D01*
X210698Y173591D01*
X211379Y173755D01*
X212026Y174023D01*
X212624Y174389D01*
X213156Y174844D01*
X213611Y175376D01*
X213977Y175974D01*
X214245Y176621D01*
X214409Y177302D01*
X214450Y178000D01*
X214409Y178698D01*
X214245Y179379D01*
X213977Y180026D01*
X213611Y180624D01*
X213156Y181156D01*
X212624Y181611D01*
X212026Y181977D01*
X211379Y182245D01*
X210698Y182409D01*
X210000Y182464D01*
X209993Y182463D01*
Y183537D01*
X210000Y183536D01*
X210698Y183591D01*
X211379Y183755D01*
X212026Y184023D01*
X212624Y184389D01*
X213156Y184844D01*
X213611Y185376D01*
X213977Y185974D01*
X214245Y186621D01*
X214409Y187302D01*
X214450Y188000D01*
X214409Y188698D01*
X214245Y189379D01*
X213977Y190026D01*
X213611Y190624D01*
X213156Y191156D01*
X212624Y191611D01*
X212026Y191977D01*
X211379Y192245D01*
X210698Y192409D01*
X210000Y192464D01*
X209993Y192463D01*
Y193537D01*
X210000Y193536D01*
X210698Y193591D01*
X211379Y193755D01*
X212026Y194023D01*
X212624Y194389D01*
X213156Y194844D01*
X213611Y195376D01*
X213977Y195974D01*
X214245Y196621D01*
X214409Y197302D01*
X214450Y198000D01*
X214409Y198698D01*
X214245Y199379D01*
X213977Y200026D01*
X213611Y200624D01*
X213156Y201156D01*
X212624Y201611D01*
X212026Y201977D01*
X211379Y202245D01*
X210698Y202409D01*
X210000Y202464D01*
X209993Y202463D01*
Y203537D01*
X210000Y203536D01*
X210698Y203591D01*
X211379Y203755D01*
X212026Y204023D01*
X212624Y204389D01*
X213156Y204844D01*
X213611Y205376D01*
X213977Y205974D01*
X214245Y206621D01*
X214409Y207302D01*
X214450Y208000D01*
X214409Y208698D01*
X214245Y209379D01*
X213977Y210026D01*
X213611Y210624D01*
X213156Y211156D01*
X212624Y211611D01*
X212026Y211977D01*
X211379Y212245D01*
X210698Y212409D01*
X210000Y212464D01*
X209993Y212463D01*
Y213537D01*
X210000Y213536D01*
X210698Y213591D01*
X211379Y213755D01*
X212026Y214023D01*
X212624Y214389D01*
X213156Y214844D01*
X213611Y215376D01*
X213977Y215974D01*
X214245Y216621D01*
X214409Y217302D01*
X214450Y218000D01*
X214409Y218698D01*
X214245Y219379D01*
X213977Y220026D01*
X213611Y220624D01*
X213156Y221156D01*
X212624Y221611D01*
X212026Y221977D01*
X211379Y222245D01*
X210698Y222409D01*
X210000Y222464D01*
X209993Y222463D01*
Y223537D01*
X210000Y223536D01*
X210698Y223591D01*
X211379Y223755D01*
X212026Y224023D01*
X212624Y224389D01*
X213156Y224844D01*
X213611Y225376D01*
X213977Y225974D01*
X214245Y226621D01*
X214409Y227302D01*
X214450Y228000D01*
X214409Y228698D01*
X214245Y229379D01*
X213977Y230026D01*
X213611Y230624D01*
X213156Y231156D01*
X212624Y231611D01*
X212026Y231977D01*
X211379Y232245D01*
X210698Y232409D01*
X210000Y232464D01*
X209993Y232463D01*
Y233537D01*
X210000Y233536D01*
X210698Y233591D01*
X211379Y233755D01*
X212026Y234023D01*
X212624Y234389D01*
X213156Y234844D01*
X213611Y235376D01*
X213977Y235974D01*
X214245Y236621D01*
X214409Y237302D01*
X214450Y238000D01*
X214409Y238698D01*
X214245Y239379D01*
X213977Y240026D01*
X213611Y240624D01*
X213156Y241156D01*
X212624Y241611D01*
X212026Y241977D01*
X211379Y242245D01*
X210698Y242409D01*
X210000Y242464D01*
X209993Y242463D01*
Y243537D01*
X210000Y243536D01*
X210698Y243591D01*
X211379Y243755D01*
X212026Y244023D01*
X212624Y244389D01*
X213156Y244844D01*
X213611Y245376D01*
X213977Y245974D01*
X214245Y246621D01*
X214409Y247302D01*
X214450Y248000D01*
X214409Y248698D01*
X214245Y249379D01*
X213977Y250026D01*
X213611Y250624D01*
X213156Y251156D01*
X212624Y251611D01*
X212026Y251977D01*
X211379Y252245D01*
X210698Y252409D01*
X210000Y252464D01*
X209993Y252463D01*
Y253537D01*
X210000Y253536D01*
X210698Y253591D01*
X211379Y253755D01*
X212026Y254023D01*
X212624Y254389D01*
X213156Y254844D01*
X213611Y255376D01*
X213977Y255974D01*
X214245Y256621D01*
X214409Y257302D01*
X214450Y258000D01*
X214409Y258698D01*
X214245Y259379D01*
X213977Y260026D01*
X213611Y260624D01*
X213156Y261156D01*
X212624Y261611D01*
X212026Y261977D01*
X211379Y262245D01*
X210698Y262409D01*
X210000Y262464D01*
X209993Y262463D01*
Y263537D01*
X210000Y263536D01*
X210698Y263591D01*
X211379Y263755D01*
X212026Y264023D01*
X212624Y264389D01*
X213156Y264844D01*
X213611Y265376D01*
X213977Y265974D01*
X214245Y266621D01*
X214409Y267302D01*
X214450Y268000D01*
X214409Y268698D01*
X214245Y269379D01*
X213977Y270026D01*
X213611Y270624D01*
X213156Y271156D01*
X212624Y271611D01*
X212026Y271977D01*
X211379Y272245D01*
X210698Y272409D01*
X210000Y272464D01*
X209993Y272463D01*
Y273537D01*
X210000Y273536D01*
X210698Y273591D01*
X211379Y273755D01*
X212026Y274023D01*
X212624Y274389D01*
X213156Y274844D01*
X213611Y275376D01*
X213977Y275974D01*
X214245Y276621D01*
X214409Y277302D01*
X214450Y278000D01*
X214409Y278698D01*
X214245Y279379D01*
X213977Y280026D01*
X213611Y280624D01*
X213156Y281156D01*
X212624Y281611D01*
X212026Y281977D01*
X211379Y282245D01*
X210698Y282409D01*
X210000Y282464D01*
X209993Y282463D01*
Y283537D01*
X210000Y283536D01*
X210698Y283591D01*
X211379Y283755D01*
X212026Y284023D01*
X212624Y284389D01*
X213156Y284844D01*
X213611Y285376D01*
X213977Y285974D01*
X214245Y286621D01*
X214409Y287302D01*
X214450Y288000D01*
X214409Y288698D01*
X214245Y289379D01*
X213977Y290026D01*
X213611Y290624D01*
X213156Y291156D01*
X212624Y291611D01*
X212026Y291977D01*
X211379Y292245D01*
X210698Y292409D01*
X210000Y292464D01*
X209993Y292463D01*
Y293537D01*
X210000Y293536D01*
X210698Y293591D01*
X211379Y293755D01*
X212026Y294023D01*
X212624Y294389D01*
X213156Y294844D01*
X213611Y295376D01*
X213977Y295974D01*
X214245Y296621D01*
X214409Y297302D01*
X214450Y298000D01*
X214409Y298698D01*
X214245Y299379D01*
X213977Y300026D01*
X213611Y300624D01*
X213156Y301156D01*
X212624Y301611D01*
X212026Y301977D01*
X211379Y302245D01*
X210698Y302409D01*
X210000Y302464D01*
X209993Y302463D01*
Y313678D01*
X210156Y313956D01*
X210483Y314647D01*
X210748Y315365D01*
X210948Y316103D01*
X211082Y316856D01*
X211150Y317618D01*
Y318382D01*
X211082Y319144D01*
X210948Y319897D01*
X210748Y320635D01*
X210483Y321353D01*
X210156Y322044D01*
X209993Y322322D01*
Y380000D01*
G37*
G36*
X207717Y74180D02*X207974Y74023D01*
X208621Y73755D01*
X209302Y73591D01*
X209993Y73537D01*
Y65054D01*
X209673Y64826D01*
X209614Y64772D01*
X209564Y64710D01*
X209525Y64640D01*
X209496Y64565D01*
X209481Y64487D01*
X209477Y64407D01*
X209486Y64328D01*
X209507Y64251D01*
X209540Y64178D01*
X209584Y64112D01*
X209638Y64053D01*
X209701Y64003D01*
X209770Y63964D01*
X209845Y63936D01*
X209923Y63920D01*
X209993Y63917D01*
Y52076D01*
X209924Y52073D01*
X209847Y52057D01*
X209774Y52030D01*
X209705Y51991D01*
X209643Y51942D01*
X209590Y51884D01*
X209547Y51818D01*
X209514Y51746D01*
X209493Y51671D01*
X209484Y51592D01*
X209488Y51514D01*
X209504Y51437D01*
X209531Y51363D01*
X209570Y51294D01*
X209619Y51233D01*
X209678Y51181D01*
X209993Y50951D01*
Y31250D01*
X207717D01*
Y53320D01*
X207731Y53296D01*
X208174Y52673D01*
X208228Y52614D01*
X208290Y52564D01*
X208360Y52525D01*
X208435Y52497D01*
X208513Y52481D01*
X208593Y52477D01*
X208672Y52486D01*
X208749Y52507D01*
X208822Y52540D01*
X208888Y52584D01*
X208947Y52638D01*
X208997Y52701D01*
X209036Y52770D01*
X209064Y52845D01*
X209080Y52923D01*
X209084Y53003D01*
X209075Y53083D01*
X209053Y53160D01*
X209020Y53232D01*
X208975Y53298D01*
X208577Y53844D01*
X208236Y54427D01*
X207947Y55038D01*
X207717Y55661D01*
Y60339D01*
X207947Y60962D01*
X208236Y61573D01*
X208577Y62156D01*
X208969Y62707D01*
X209014Y62771D01*
X209046Y62843D01*
X209067Y62919D01*
X209076Y62997D01*
X209073Y63076D01*
X209057Y63153D01*
X209030Y63226D01*
X208991Y63295D01*
X208942Y63357D01*
X208884Y63410D01*
X208818Y63453D01*
X208746Y63486D01*
X208671Y63507D01*
X208592Y63516D01*
X208514Y63512D01*
X208437Y63496D01*
X208363Y63469D01*
X208294Y63430D01*
X208233Y63381D01*
X208181Y63322D01*
X207731Y62704D01*
X207717Y62680D01*
Y74180D01*
G37*
G36*
Y84180D02*X207974Y84023D01*
X208621Y83755D01*
X209302Y83591D01*
X209993Y83537D01*
Y82463D01*
X209302Y82409D01*
X208621Y82245D01*
X207974Y81977D01*
X207717Y81820D01*
Y84180D01*
G37*
G36*
Y94180D02*X207974Y94023D01*
X208621Y93755D01*
X209302Y93591D01*
X209993Y93537D01*
Y92463D01*
X209302Y92409D01*
X208621Y92245D01*
X207974Y91977D01*
X207717Y91820D01*
Y94180D01*
G37*
G36*
Y104180D02*X207974Y104023D01*
X208621Y103755D01*
X209302Y103591D01*
X209993Y103537D01*
Y102463D01*
X209302Y102409D01*
X208621Y102245D01*
X207974Y101977D01*
X207717Y101820D01*
Y104180D01*
G37*
G36*
Y114180D02*X207974Y114023D01*
X208621Y113755D01*
X209302Y113591D01*
X209993Y113537D01*
Y112463D01*
X209302Y112409D01*
X208621Y112245D01*
X207974Y111977D01*
X207717Y111820D01*
Y114180D01*
G37*
G36*
Y124180D02*X207974Y124023D01*
X208621Y123755D01*
X209302Y123591D01*
X209993Y123537D01*
Y122463D01*
X209302Y122409D01*
X208621Y122245D01*
X207974Y121977D01*
X207717Y121820D01*
Y124180D01*
G37*
G36*
Y134180D02*X207974Y134023D01*
X208621Y133755D01*
X209302Y133591D01*
X209993Y133537D01*
Y132463D01*
X209302Y132409D01*
X208621Y132245D01*
X207974Y131977D01*
X207717Y131820D01*
Y134180D01*
G37*
G36*
Y144180D02*X207974Y144023D01*
X208621Y143755D01*
X209302Y143591D01*
X209993Y143537D01*
Y142463D01*
X209302Y142409D01*
X208621Y142245D01*
X207974Y141977D01*
X207717Y141820D01*
Y144180D01*
G37*
G36*
Y154180D02*X207974Y154023D01*
X208621Y153755D01*
X209302Y153591D01*
X209993Y153537D01*
Y152463D01*
X209302Y152409D01*
X208621Y152245D01*
X207974Y151977D01*
X207717Y151820D01*
Y154180D01*
G37*
G36*
Y164180D02*X207974Y164023D01*
X208621Y163755D01*
X209302Y163591D01*
X209993Y163537D01*
Y162463D01*
X209302Y162409D01*
X208621Y162245D01*
X207974Y161977D01*
X207717Y161820D01*
Y164180D01*
G37*
G36*
Y174180D02*X207974Y174023D01*
X208621Y173755D01*
X209302Y173591D01*
X209993Y173537D01*
Y172463D01*
X209302Y172409D01*
X208621Y172245D01*
X207974Y171977D01*
X207717Y171820D01*
Y174180D01*
G37*
G36*
Y184180D02*X207974Y184023D01*
X208621Y183755D01*
X209302Y183591D01*
X209993Y183537D01*
Y182463D01*
X209302Y182409D01*
X208621Y182245D01*
X207974Y181977D01*
X207717Y181820D01*
Y184180D01*
G37*
G36*
Y194180D02*X207974Y194023D01*
X208621Y193755D01*
X209302Y193591D01*
X209993Y193537D01*
Y192463D01*
X209302Y192409D01*
X208621Y192245D01*
X207974Y191977D01*
X207717Y191820D01*
Y194180D01*
G37*
G36*
Y204180D02*X207974Y204023D01*
X208621Y203755D01*
X209302Y203591D01*
X209993Y203537D01*
Y202463D01*
X209302Y202409D01*
X208621Y202245D01*
X207974Y201977D01*
X207717Y201820D01*
Y204180D01*
G37*
G36*
Y214180D02*X207974Y214023D01*
X208621Y213755D01*
X209302Y213591D01*
X209993Y213537D01*
Y212463D01*
X209302Y212409D01*
X208621Y212245D01*
X207974Y211977D01*
X207717Y211820D01*
Y214180D01*
G37*
G36*
Y224180D02*X207974Y224023D01*
X208621Y223755D01*
X209302Y223591D01*
X209993Y223537D01*
Y222463D01*
X209302Y222409D01*
X208621Y222245D01*
X207974Y221977D01*
X207717Y221820D01*
Y224180D01*
G37*
G36*
Y234180D02*X207974Y234023D01*
X208621Y233755D01*
X209302Y233591D01*
X209993Y233537D01*
Y232463D01*
X209302Y232409D01*
X208621Y232245D01*
X207974Y231977D01*
X207717Y231820D01*
Y234180D01*
G37*
G36*
Y244180D02*X207974Y244023D01*
X208621Y243755D01*
X209302Y243591D01*
X209993Y243537D01*
Y242463D01*
X209302Y242409D01*
X208621Y242245D01*
X207974Y241977D01*
X207717Y241820D01*
Y244180D01*
G37*
G36*
Y254180D02*X207974Y254023D01*
X208621Y253755D01*
X209302Y253591D01*
X209993Y253537D01*
Y252463D01*
X209302Y252409D01*
X208621Y252245D01*
X207974Y251977D01*
X207717Y251820D01*
Y254180D01*
G37*
G36*
Y264180D02*X207974Y264023D01*
X208621Y263755D01*
X209302Y263591D01*
X209993Y263537D01*
Y262463D01*
X209302Y262409D01*
X208621Y262245D01*
X207974Y261977D01*
X207717Y261820D01*
Y264180D01*
G37*
G36*
Y274180D02*X207974Y274023D01*
X208621Y273755D01*
X209302Y273591D01*
X209993Y273537D01*
Y272463D01*
X209302Y272409D01*
X208621Y272245D01*
X207974Y271977D01*
X207717Y271820D01*
Y274180D01*
G37*
G36*
Y284180D02*X207974Y284023D01*
X208621Y283755D01*
X209302Y283591D01*
X209993Y283537D01*
Y282463D01*
X209302Y282409D01*
X208621Y282245D01*
X207974Y281977D01*
X207717Y281820D01*
Y284180D01*
G37*
G36*
Y294180D02*X207974Y294023D01*
X208621Y293755D01*
X209302Y293591D01*
X209993Y293537D01*
Y292463D01*
X209302Y292409D01*
X208621Y292245D01*
X207974Y291977D01*
X207717Y291820D01*
Y294180D01*
G37*
G36*
Y380000D02*X209993D01*
Y322322D01*
X209769Y322704D01*
X209326Y323327D01*
X209272Y323386D01*
X209210Y323436D01*
X209140Y323475D01*
X209065Y323504D01*
X208987Y323519D01*
X208907Y323523D01*
X208828Y323514D01*
X208751Y323493D01*
X208678Y323460D01*
X208612Y323416D01*
X208553Y323362D01*
X208503Y323299D01*
X208464Y323230D01*
X208436Y323155D01*
X208420Y323077D01*
X208416Y322997D01*
X208425Y322917D01*
X208447Y322840D01*
X208480Y322768D01*
X208525Y322702D01*
X208923Y322156D01*
X209264Y321573D01*
X209553Y320962D01*
X209787Y320328D01*
X209964Y319676D01*
X209993Y319514D01*
Y316486D01*
X209964Y316324D01*
X209787Y315672D01*
X209553Y315038D01*
X209264Y314427D01*
X208923Y313844D01*
X208531Y313293D01*
X208486Y313229D01*
X208454Y313157D01*
X208433Y313081D01*
X208424Y313003D01*
X208427Y312924D01*
X208443Y312847D01*
X208470Y312774D01*
X208509Y312705D01*
X208558Y312644D01*
X208616Y312590D01*
X208682Y312547D01*
X208754Y312514D01*
X208829Y312493D01*
X208908Y312485D01*
X208986Y312488D01*
X209063Y312504D01*
X209137Y312531D01*
X209206Y312570D01*
X209267Y312619D01*
X209319Y312678D01*
X209769Y313296D01*
X209993Y313678D01*
Y302463D01*
X209302Y302409D01*
X208621Y302245D01*
X207974Y301977D01*
X207717Y301820D01*
Y311096D01*
X207827Y311174D01*
X207886Y311228D01*
X207936Y311290D01*
X207975Y311360D01*
X208003Y311435D01*
X208019Y311513D01*
X208023Y311593D01*
X208014Y311672D01*
X207993Y311749D01*
X207960Y311822D01*
X207916Y311888D01*
X207862Y311947D01*
X207799Y311997D01*
X207730Y312036D01*
X207717Y312041D01*
Y323967D01*
X207726Y323970D01*
X207795Y324009D01*
X207856Y324058D01*
X207910Y324116D01*
X207953Y324182D01*
X207986Y324254D01*
X208007Y324329D01*
X208015Y324408D01*
X208012Y324486D01*
X207996Y324563D01*
X207969Y324637D01*
X207930Y324706D01*
X207881Y324767D01*
X207822Y324819D01*
X207717Y324896D01*
Y380000D01*
G37*
G36*
Y55661D02*X207713Y55672D01*
X207536Y56324D01*
X207417Y56989D01*
X207357Y57662D01*
Y58338D01*
X207417Y59011D01*
X207536Y59676D01*
X207713Y60328D01*
X207717Y60339D01*
Y55661D01*
G37*
G36*
X204284Y309532D02*X204397Y309552D01*
X205135Y309752D01*
X205853Y310017D01*
X206544Y310344D01*
X207204Y310731D01*
X207717Y311096D01*
Y301820D01*
X207376Y301611D01*
X206844Y301156D01*
X206389Y300624D01*
X206023Y300026D01*
X205755Y299379D01*
X205591Y298698D01*
X205536Y298000D01*
X205591Y297302D01*
X205755Y296621D01*
X206023Y295974D01*
X206389Y295376D01*
X206844Y294844D01*
X207376Y294389D01*
X207717Y294180D01*
Y291820D01*
X207376Y291611D01*
X206844Y291156D01*
X206389Y290624D01*
X206023Y290026D01*
X205755Y289379D01*
X205591Y288698D01*
X205536Y288000D01*
X205591Y287302D01*
X205755Y286621D01*
X206023Y285974D01*
X206389Y285376D01*
X206844Y284844D01*
X207376Y284389D01*
X207717Y284180D01*
Y281820D01*
X207376Y281611D01*
X206844Y281156D01*
X206389Y280624D01*
X206023Y280026D01*
X205755Y279379D01*
X205591Y278698D01*
X205536Y278000D01*
X205591Y277302D01*
X205755Y276621D01*
X206023Y275974D01*
X206389Y275376D01*
X206844Y274844D01*
X207376Y274389D01*
X207717Y274180D01*
Y271820D01*
X207376Y271611D01*
X206844Y271156D01*
X206389Y270624D01*
X206023Y270026D01*
X205755Y269379D01*
X205591Y268698D01*
X205536Y268000D01*
X205591Y267302D01*
X205755Y266621D01*
X206023Y265974D01*
X206389Y265376D01*
X206844Y264844D01*
X207376Y264389D01*
X207717Y264180D01*
Y261820D01*
X207376Y261611D01*
X206844Y261156D01*
X206389Y260624D01*
X206023Y260026D01*
X205755Y259379D01*
X205591Y258698D01*
X205536Y258000D01*
X205591Y257302D01*
X205755Y256621D01*
X206023Y255974D01*
X206389Y255376D01*
X206844Y254844D01*
X207376Y254389D01*
X207717Y254180D01*
Y251820D01*
X207376Y251611D01*
X206844Y251156D01*
X206389Y250624D01*
X206023Y250026D01*
X205755Y249379D01*
X205591Y248698D01*
X205536Y248000D01*
X205591Y247302D01*
X205755Y246621D01*
X206023Y245974D01*
X206389Y245376D01*
X206844Y244844D01*
X207376Y244389D01*
X207717Y244180D01*
Y241820D01*
X207376Y241611D01*
X206844Y241156D01*
X206389Y240624D01*
X206023Y240026D01*
X205755Y239379D01*
X205591Y238698D01*
X205536Y238000D01*
X205591Y237302D01*
X205755Y236621D01*
X206023Y235974D01*
X206389Y235376D01*
X206844Y234844D01*
X207376Y234389D01*
X207717Y234180D01*
Y231820D01*
X207376Y231611D01*
X206844Y231156D01*
X206389Y230624D01*
X206023Y230026D01*
X205755Y229379D01*
X205591Y228698D01*
X205536Y228000D01*
X205591Y227302D01*
X205755Y226621D01*
X206023Y225974D01*
X206389Y225376D01*
X206844Y224844D01*
X207376Y224389D01*
X207717Y224180D01*
Y221820D01*
X207376Y221611D01*
X206844Y221156D01*
X206389Y220624D01*
X206023Y220026D01*
X205755Y219379D01*
X205591Y218698D01*
X205536Y218000D01*
X205591Y217302D01*
X205755Y216621D01*
X206023Y215974D01*
X206389Y215376D01*
X206844Y214844D01*
X207376Y214389D01*
X207717Y214180D01*
Y211820D01*
X207376Y211611D01*
X206844Y211156D01*
X206389Y210624D01*
X206023Y210026D01*
X205755Y209379D01*
X205591Y208698D01*
X205536Y208000D01*
X205591Y207302D01*
X205755Y206621D01*
X206023Y205974D01*
X206389Y205376D01*
X206844Y204844D01*
X207376Y204389D01*
X207717Y204180D01*
Y201820D01*
X207376Y201611D01*
X206844Y201156D01*
X206389Y200624D01*
X206023Y200026D01*
X205755Y199379D01*
X205591Y198698D01*
X205536Y198000D01*
X205591Y197302D01*
X205755Y196621D01*
X206023Y195974D01*
X206389Y195376D01*
X206844Y194844D01*
X207376Y194389D01*
X207717Y194180D01*
Y191820D01*
X207376Y191611D01*
X206844Y191156D01*
X206389Y190624D01*
X206023Y190026D01*
X205755Y189379D01*
X205591Y188698D01*
X205536Y188000D01*
X205591Y187302D01*
X205755Y186621D01*
X206023Y185974D01*
X206389Y185376D01*
X206844Y184844D01*
X207376Y184389D01*
X207717Y184180D01*
Y181820D01*
X207376Y181611D01*
X206844Y181156D01*
X206389Y180624D01*
X206023Y180026D01*
X205755Y179379D01*
X205591Y178698D01*
X205536Y178000D01*
X205591Y177302D01*
X205755Y176621D01*
X206023Y175974D01*
X206389Y175376D01*
X206844Y174844D01*
X207376Y174389D01*
X207717Y174180D01*
Y171820D01*
X207376Y171611D01*
X206844Y171156D01*
X206389Y170624D01*
X206023Y170026D01*
X205755Y169379D01*
X205591Y168698D01*
X205536Y168000D01*
X205591Y167302D01*
X205755Y166621D01*
X206023Y165974D01*
X206389Y165376D01*
X206844Y164844D01*
X207376Y164389D01*
X207717Y164180D01*
Y161820D01*
X207376Y161611D01*
X206844Y161156D01*
X206389Y160624D01*
X206023Y160026D01*
X205755Y159379D01*
X205591Y158698D01*
X205536Y158000D01*
X205591Y157302D01*
X205755Y156621D01*
X206023Y155974D01*
X206389Y155376D01*
X206844Y154844D01*
X207376Y154389D01*
X207717Y154180D01*
Y151820D01*
X207376Y151611D01*
X206844Y151156D01*
X206389Y150624D01*
X206023Y150026D01*
X205755Y149379D01*
X205591Y148698D01*
X205536Y148000D01*
X205591Y147302D01*
X205755Y146621D01*
X206023Y145974D01*
X206389Y145376D01*
X206844Y144844D01*
X207376Y144389D01*
X207717Y144180D01*
Y141820D01*
X207376Y141611D01*
X206844Y141156D01*
X206389Y140624D01*
X206023Y140026D01*
X205755Y139379D01*
X205591Y138698D01*
X205536Y138000D01*
X205591Y137302D01*
X205755Y136621D01*
X206023Y135974D01*
X206389Y135376D01*
X206844Y134844D01*
X207376Y134389D01*
X207717Y134180D01*
Y131820D01*
X207376Y131611D01*
X206844Y131156D01*
X206389Y130624D01*
X206023Y130026D01*
X205755Y129379D01*
X205591Y128698D01*
X205536Y128000D01*
X205591Y127302D01*
X205755Y126621D01*
X206023Y125974D01*
X206389Y125376D01*
X206844Y124844D01*
X207376Y124389D01*
X207717Y124180D01*
Y121820D01*
X207376Y121611D01*
X206844Y121156D01*
X206389Y120624D01*
X206023Y120026D01*
X205755Y119379D01*
X205591Y118698D01*
X205536Y118000D01*
X205591Y117302D01*
X205755Y116621D01*
X206023Y115974D01*
X206389Y115376D01*
X206844Y114844D01*
X207376Y114389D01*
X207717Y114180D01*
Y111820D01*
X207376Y111611D01*
X206844Y111156D01*
X206389Y110624D01*
X206023Y110026D01*
X205755Y109379D01*
X205591Y108698D01*
X205536Y108000D01*
X205591Y107302D01*
X205755Y106621D01*
X206023Y105974D01*
X206389Y105376D01*
X206844Y104844D01*
X207376Y104389D01*
X207717Y104180D01*
Y101820D01*
X207376Y101611D01*
X206844Y101156D01*
X206389Y100624D01*
X206023Y100026D01*
X205755Y99379D01*
X205591Y98698D01*
X205536Y98000D01*
X205591Y97302D01*
X205755Y96621D01*
X206023Y95974D01*
X206389Y95376D01*
X206844Y94844D01*
X207376Y94389D01*
X207717Y94180D01*
Y91820D01*
X207376Y91611D01*
X206844Y91156D01*
X206389Y90624D01*
X206023Y90026D01*
X205755Y89379D01*
X205591Y88698D01*
X205536Y88000D01*
X205591Y87302D01*
X205755Y86621D01*
X206023Y85974D01*
X206389Y85376D01*
X206844Y84844D01*
X207376Y84389D01*
X207717Y84180D01*
Y81820D01*
X207376Y81611D01*
X206844Y81156D01*
X206389Y80624D01*
X206023Y80026D01*
X205755Y79379D01*
X205591Y78698D01*
X205536Y78000D01*
X205591Y77302D01*
X205755Y76621D01*
X206023Y75974D01*
X206389Y75376D01*
X206844Y74844D01*
X207376Y74389D01*
X207717Y74180D01*
Y62680D01*
X207344Y62044D01*
X207017Y61353D01*
X206752Y60635D01*
X206552Y59897D01*
X206417Y59144D01*
X206350Y58382D01*
Y57618D01*
X206417Y56856D01*
X206552Y56103D01*
X206752Y55365D01*
X207017Y54647D01*
X207344Y53956D01*
X207717Y53320D01*
Y31250D01*
X204284D01*
Y85869D01*
X204287Y85870D01*
X204355Y85909D01*
X204416Y85958D01*
X204469Y86017D01*
X204511Y86083D01*
X204674Y86408D01*
X204803Y86748D01*
X204901Y87098D01*
X204967Y87456D01*
X205000Y87818D01*
Y88182D01*
X204967Y88544D01*
X204901Y88902D01*
X204803Y89252D01*
X204674Y89592D01*
X204515Y89919D01*
X204472Y89985D01*
X204419Y90044D01*
X204357Y90094D01*
X204288Y90133D01*
X204284Y90135D01*
Y309532D01*
G37*
G36*
X201002Y309481D02*X201356Y309418D01*
X202118Y309350D01*
X202882D01*
X203644Y309418D01*
X204284Y309532D01*
Y90135D01*
X204214Y90161D01*
X204137Y90177D01*
X204058Y90181D01*
X203979Y90173D01*
X203903Y90152D01*
X203830Y90120D01*
X203764Y90077D01*
X203705Y90024D01*
X203656Y89962D01*
X203616Y89893D01*
X203588Y89819D01*
X203572Y89742D01*
X203568Y89663D01*
X203576Y89584D01*
X203597Y89507D01*
X203630Y89436D01*
X203753Y89193D01*
X203850Y88938D01*
X203923Y88676D01*
X203972Y88408D01*
X203997Y88136D01*
Y87864D01*
X203972Y87592D01*
X203923Y87324D01*
X203850Y87062D01*
X203753Y86807D01*
X203633Y86563D01*
X203600Y86491D01*
X203579Y86416D01*
X203571Y86337D01*
X203575Y86259D01*
X203591Y86182D01*
X203619Y86108D01*
X203658Y86040D01*
X203707Y85979D01*
X203766Y85926D01*
X203832Y85883D01*
X203904Y85851D01*
X203980Y85830D01*
X204058Y85822D01*
X204136Y85826D01*
X204213Y85842D01*
X204284Y85869D01*
Y31250D01*
X201002D01*
Y84000D01*
X201182D01*
X201544Y84033D01*
X201902Y84099D01*
X202252Y84197D01*
X202592Y84326D01*
X202919Y84485D01*
X202985Y84528D01*
X203044Y84581D01*
X203094Y84643D01*
X203133Y84712D01*
X203161Y84786D01*
X203177Y84863D01*
X203181Y84942D01*
X203173Y85021D01*
X203152Y85097D01*
X203120Y85170D01*
X203077Y85236D01*
X203024Y85295D01*
X202962Y85344D01*
X202893Y85384D01*
X202819Y85412D01*
X202742Y85428D01*
X202663Y85432D01*
X202584Y85424D01*
X202507Y85403D01*
X202436Y85370D01*
X202193Y85247D01*
X201938Y85150D01*
X201676Y85077D01*
X201408Y85028D01*
X201136Y85003D01*
X201002D01*
Y90997D01*
X201136D01*
X201408Y90972D01*
X201676Y90923D01*
X201938Y90850D01*
X202193Y90753D01*
X202437Y90633D01*
X202509Y90600D01*
X202584Y90579D01*
X202663Y90571D01*
X202741Y90575D01*
X202818Y90591D01*
X202892Y90619D01*
X202960Y90658D01*
X203021Y90707D01*
X203074Y90766D01*
X203117Y90832D01*
X203149Y90904D01*
X203170Y90980D01*
X203178Y91058D01*
X203174Y91136D01*
X203158Y91213D01*
X203130Y91287D01*
X203091Y91355D01*
X203042Y91416D01*
X202983Y91469D01*
X202917Y91511D01*
X202592Y91674D01*
X202252Y91803D01*
X201902Y91901D01*
X201544Y91967D01*
X201182Y92000D01*
X201002D01*
Y309481D01*
G37*
G36*
Y325496D02*X201489Y325583D01*
X202162Y325643D01*
X202838D01*
X203511Y325583D01*
X204176Y325464D01*
X204828Y325287D01*
X205462Y325053D01*
X206073Y324764D01*
X206656Y324423D01*
X207207Y324031D01*
X207271Y323986D01*
X207343Y323954D01*
X207419Y323933D01*
X207497Y323924D01*
X207576Y323927D01*
X207653Y323943D01*
X207717Y323967D01*
Y312041D01*
X207655Y312064D01*
X207577Y312080D01*
X207497Y312084D01*
X207417Y312075D01*
X207340Y312053D01*
X207268Y312020D01*
X207202Y311975D01*
X206656Y311577D01*
X206073Y311236D01*
X205462Y310947D01*
X204828Y310713D01*
X204176Y310536D01*
X203511Y310417D01*
X202838Y310357D01*
X202162D01*
X201489Y310417D01*
X201002Y310504D01*
Y325496D01*
G37*
G36*
Y380000D02*X207717D01*
Y324896D01*
X207204Y325269D01*
X206544Y325656D01*
X205853Y325983D01*
X205135Y326248D01*
X204397Y326448D01*
X203644Y326583D01*
X202882Y326650D01*
X202118D01*
X201356Y326583D01*
X201002Y326519D01*
Y380000D01*
G37*
G36*
X197716Y310789D02*X197796Y310731D01*
X198456Y310344D01*
X199147Y310017D01*
X199865Y309752D01*
X200603Y309552D01*
X201002Y309481D01*
Y92000D01*
X200818D01*
X200456Y91967D01*
X200098Y91901D01*
X199748Y91803D01*
X199408Y91674D01*
X199081Y91515D01*
X199015Y91472D01*
X198956Y91419D01*
X198906Y91357D01*
X198867Y91288D01*
X198839Y91214D01*
X198823Y91137D01*
X198819Y91058D01*
X198827Y90979D01*
X198848Y90903D01*
X198880Y90830D01*
X198923Y90764D01*
X198976Y90705D01*
X199038Y90656D01*
X199107Y90616D01*
X199181Y90588D01*
X199258Y90572D01*
X199337Y90568D01*
X199416Y90576D01*
X199493Y90597D01*
X199564Y90630D01*
X199807Y90753D01*
X200062Y90850D01*
X200324Y90923D01*
X200592Y90972D01*
X200864Y90997D01*
X201002D01*
Y85003D01*
X200864D01*
X200592Y85028D01*
X200324Y85077D01*
X200062Y85150D01*
X199807Y85247D01*
X199563Y85367D01*
X199491Y85400D01*
X199415Y85421D01*
X199337Y85429D01*
X199259Y85425D01*
X199182Y85409D01*
X199108Y85381D01*
X199040Y85342D01*
X198979Y85293D01*
X198926Y85234D01*
X198883Y85168D01*
X198851Y85096D01*
X198830Y85020D01*
X198822Y84942D01*
X198826Y84864D01*
X198842Y84787D01*
X198870Y84713D01*
X198909Y84645D01*
X198958Y84584D01*
X199017Y84531D01*
X199083Y84489D01*
X199408Y84326D01*
X199748Y84197D01*
X200098Y84099D01*
X200456Y84033D01*
X200818Y84000D01*
X201002D01*
Y31250D01*
X197716D01*
Y85865D01*
X197786Y85839D01*
X197863Y85823D01*
X197942Y85819D01*
X198021Y85827D01*
X198097Y85848D01*
X198170Y85880D01*
X198236Y85923D01*
X198295Y85976D01*
X198344Y86038D01*
X198384Y86107D01*
X198412Y86181D01*
X198428Y86258D01*
X198432Y86337D01*
X198424Y86416D01*
X198403Y86493D01*
X198370Y86564D01*
X198247Y86807D01*
X198150Y87062D01*
X198077Y87324D01*
X198028Y87592D01*
X198003Y87864D01*
Y88136D01*
X198028Y88408D01*
X198077Y88676D01*
X198150Y88938D01*
X198247Y89193D01*
X198367Y89437D01*
X198400Y89509D01*
X198421Y89585D01*
X198429Y89663D01*
X198425Y89741D01*
X198409Y89818D01*
X198381Y89892D01*
X198342Y89960D01*
X198293Y90021D01*
X198234Y90074D01*
X198168Y90117D01*
X198096Y90149D01*
X198020Y90170D01*
X197942Y90178D01*
X197864Y90174D01*
X197787Y90158D01*
X197716Y90131D01*
Y310789D01*
G37*
G36*
Y323972D02*X197732Y323980D01*
X197798Y324025D01*
X198344Y324423D01*
X198927Y324764D01*
X199538Y325053D01*
X200172Y325287D01*
X200824Y325464D01*
X201002Y325496D01*
Y310504D01*
X200824Y310536D01*
X200172Y310713D01*
X199538Y310947D01*
X198927Y311236D01*
X198344Y311577D01*
X197793Y311969D01*
X197729Y312014D01*
X197716Y312020D01*
Y323972D01*
G37*
G36*
Y380000D02*X201002D01*
Y326519D01*
X200603Y326448D01*
X199865Y326248D01*
X199147Y325983D01*
X198456Y325656D01*
X197796Y325269D01*
X197716Y325212D01*
Y380000D01*
G37*
G36*
X195217D02*X197716D01*
Y325212D01*
X197173Y324826D01*
X197114Y324772D01*
X197064Y324710D01*
X197025Y324640D01*
X196996Y324565D01*
X196981Y324487D01*
X196977Y324407D01*
X196986Y324328D01*
X197007Y324251D01*
X197040Y324178D01*
X197084Y324112D01*
X197138Y324053D01*
X197201Y324003D01*
X197270Y323964D01*
X197345Y323936D01*
X197423Y323920D01*
X197503Y323916D01*
X197583Y323925D01*
X197660Y323947D01*
X197716Y323972D01*
Y312020D01*
X197657Y312046D01*
X197581Y312067D01*
X197503Y312076D01*
X197424Y312073D01*
X197347Y312057D01*
X197274Y312030D01*
X197205Y311991D01*
X197143Y311942D01*
X197090Y311884D01*
X197047Y311818D01*
X197014Y311746D01*
X196993Y311671D01*
X196984Y311592D01*
X196988Y311514D01*
X197004Y311437D01*
X197031Y311363D01*
X197070Y311294D01*
X197119Y311233D01*
X197178Y311181D01*
X197716Y310789D01*
Y90131D01*
X197713Y90130D01*
X197645Y90091D01*
X197584Y90042D01*
X197531Y89983D01*
X197489Y89917D01*
X197326Y89592D01*
X197197Y89252D01*
X197099Y88902D01*
X197033Y88544D01*
X197000Y88182D01*
Y87818D01*
X197033Y87456D01*
X197099Y87098D01*
X197197Y86748D01*
X197326Y86408D01*
X197485Y86081D01*
X197528Y86015D01*
X197581Y85956D01*
X197643Y85906D01*
X197712Y85867D01*
X197716Y85865D01*
Y31250D01*
X195217D01*
Y313320D01*
X195231Y313296D01*
X195674Y312673D01*
X195728Y312614D01*
X195790Y312564D01*
X195860Y312525D01*
X195935Y312497D01*
X196013Y312481D01*
X196093Y312477D01*
X196172Y312486D01*
X196249Y312507D01*
X196322Y312540D01*
X196388Y312584D01*
X196447Y312638D01*
X196497Y312701D01*
X196536Y312770D01*
X196564Y312845D01*
X196580Y312923D01*
X196584Y313003D01*
X196575Y313083D01*
X196553Y313160D01*
X196520Y313232D01*
X196475Y313298D01*
X196077Y313844D01*
X195736Y314427D01*
X195447Y315038D01*
X195217Y315661D01*
Y320339D01*
X195447Y320962D01*
X195736Y321573D01*
X196077Y322156D01*
X196469Y322707D01*
X196514Y322771D01*
X196546Y322843D01*
X196567Y322919D01*
X196576Y322997D01*
X196573Y323076D01*
X196557Y323153D01*
X196530Y323226D01*
X196491Y323295D01*
X196442Y323357D01*
X196384Y323410D01*
X196318Y323453D01*
X196246Y323486D01*
X196171Y323507D01*
X196092Y323516D01*
X196014Y323512D01*
X195937Y323496D01*
X195863Y323469D01*
X195794Y323430D01*
X195733Y323381D01*
X195681Y323322D01*
X195231Y322704D01*
X195217Y322680D01*
Y380000D01*
G37*
G36*
Y315661D02*X195213Y315672D01*
X195036Y316324D01*
X194917Y316989D01*
X194857Y317662D01*
Y318338D01*
X194917Y319011D01*
X195036Y319676D01*
X195213Y320328D01*
X195217Y320339D01*
Y315661D01*
G37*
G36*
X172284Y380000D02*X195217D01*
Y322680D01*
X194844Y322044D01*
X194517Y321353D01*
X194252Y320635D01*
X194052Y319897D01*
X193917Y319144D01*
X193850Y318382D01*
Y317618D01*
X193917Y316856D01*
X194052Y316103D01*
X194252Y315365D01*
X194517Y314647D01*
X194844Y313956D01*
X195217Y313320D01*
Y31250D01*
X188932D01*
X186250Y33932D01*
Y83912D01*
X186257Y84000D01*
X186229Y84353D01*
X186146Y84697D01*
X186107Y84793D01*
X186011Y85025D01*
X185896Y85212D01*
X185826Y85327D01*
X185826Y85327D01*
X185596Y85596D01*
X185529Y85653D01*
X172284Y98898D01*
Y114010D01*
X172628Y114037D01*
X173240Y114184D01*
X173822Y114425D01*
X174358Y114754D01*
X174837Y115163D01*
X175246Y115642D01*
X175575Y116178D01*
X175816Y116760D01*
X175963Y117372D01*
X176000Y118000D01*
X175963Y118628D01*
X175816Y119240D01*
X175575Y119822D01*
X175246Y120358D01*
X174837Y120837D01*
X174358Y121246D01*
X173822Y121575D01*
X173240Y121816D01*
X172628Y121963D01*
X172284Y121990D01*
Y156869D01*
X172287Y156870D01*
X172355Y156909D01*
X172416Y156958D01*
X172469Y157017D01*
X172511Y157083D01*
X172674Y157408D01*
X172803Y157748D01*
X172901Y158098D01*
X172967Y158456D01*
X173000Y158818D01*
Y159182D01*
X172967Y159544D01*
X172901Y159902D01*
X172803Y160252D01*
X172674Y160592D01*
X172515Y160919D01*
X172472Y160985D01*
X172419Y161044D01*
X172357Y161094D01*
X172288Y161133D01*
X172284Y161135D01*
Y380000D01*
G37*
G36*
Y98898D02*X169002Y102180D01*
Y115352D01*
X169163Y115163D01*
X169642Y114754D01*
X170178Y114425D01*
X170760Y114184D01*
X171372Y114037D01*
X172000Y113988D01*
X172284Y114010D01*
Y98898D01*
G37*
G36*
X169002Y380000D02*X172284D01*
Y161135D01*
X172214Y161161D01*
X172137Y161177D01*
X172058Y161181D01*
X171979Y161173D01*
X171903Y161152D01*
X171830Y161120D01*
X171764Y161077D01*
X171705Y161024D01*
X171656Y160962D01*
X171616Y160893D01*
X171588Y160819D01*
X171572Y160742D01*
X171568Y160663D01*
X171576Y160584D01*
X171597Y160507D01*
X171630Y160436D01*
X171753Y160193D01*
X171850Y159938D01*
X171923Y159676D01*
X171972Y159408D01*
X171997Y159136D01*
Y158864D01*
X171972Y158592D01*
X171923Y158324D01*
X171850Y158062D01*
X171753Y157807D01*
X171633Y157563D01*
X171600Y157491D01*
X171579Y157416D01*
X171571Y157337D01*
X171575Y157259D01*
X171591Y157182D01*
X171619Y157108D01*
X171658Y157040D01*
X171707Y156979D01*
X171766Y156926D01*
X171832Y156883D01*
X171904Y156851D01*
X171980Y156830D01*
X172058Y156822D01*
X172136Y156826D01*
X172213Y156842D01*
X172284Y156869D01*
Y121990D01*
X172000Y122012D01*
X171372Y121963D01*
X170760Y121816D01*
X170178Y121575D01*
X169642Y121246D01*
X169163Y120837D01*
X169002Y120648D01*
Y155000D01*
X169182D01*
X169544Y155033D01*
X169902Y155099D01*
X170252Y155197D01*
X170592Y155326D01*
X170919Y155485D01*
X170985Y155528D01*
X171044Y155581D01*
X171094Y155643D01*
X171133Y155712D01*
X171161Y155786D01*
X171177Y155863D01*
X171181Y155942D01*
X171173Y156021D01*
X171152Y156097D01*
X171120Y156170D01*
X171077Y156236D01*
X171024Y156295D01*
X170962Y156344D01*
X170893Y156384D01*
X170819Y156412D01*
X170742Y156428D01*
X170663Y156432D01*
X170584Y156424D01*
X170507Y156403D01*
X170436Y156370D01*
X170193Y156247D01*
X169938Y156150D01*
X169676Y156077D01*
X169408Y156028D01*
X169136Y156003D01*
X169002D01*
Y161997D01*
X169136D01*
X169408Y161972D01*
X169676Y161923D01*
X169938Y161850D01*
X170193Y161753D01*
X170437Y161633D01*
X170509Y161600D01*
X170584Y161579D01*
X170663Y161571D01*
X170741Y161575D01*
X170818Y161591D01*
X170892Y161619D01*
X170960Y161658D01*
X171021Y161707D01*
X171074Y161766D01*
X171117Y161832D01*
X171149Y161904D01*
X171170Y161980D01*
X171178Y162058D01*
X171174Y162136D01*
X171158Y162213D01*
X171130Y162287D01*
X171091Y162355D01*
X171042Y162416D01*
X170983Y162469D01*
X170917Y162511D01*
X170592Y162674D01*
X170252Y162803D01*
X169902Y162901D01*
X169544Y162967D01*
X169182Y163000D01*
X169002D01*
Y380000D01*
G37*
G36*
Y102180D02*X158653Y112529D01*
X158596Y112596D01*
X158327Y112826D01*
X158327Y112826D01*
X158212Y112896D01*
X158025Y113011D01*
X157793Y113107D01*
X157697Y113146D01*
X157353Y113229D01*
X157000Y113257D01*
X156912Y113250D01*
X154106D01*
X153949Y113506D01*
X153514Y114014D01*
X153006Y114449D01*
X152435Y114798D01*
X151817Y115054D01*
X151167Y115211D01*
X150500Y115263D01*
X149833Y115211D01*
X149183Y115054D01*
X148565Y114798D01*
X147994Y114449D01*
X147486Y114014D01*
X147051Y113506D01*
X146894Y113250D01*
X115494D01*
Y115750D01*
X168688D01*
X168754Y115642D01*
X169002Y115352D01*
Y102180D01*
G37*
G36*
X165716Y380000D02*X169002D01*
Y163000D01*
X168818D01*
X168456Y162967D01*
X168098Y162901D01*
X167748Y162803D01*
X167408Y162674D01*
X167081Y162515D01*
X167015Y162472D01*
X166956Y162419D01*
X166906Y162357D01*
X166867Y162288D01*
X166839Y162214D01*
X166823Y162137D01*
X166819Y162058D01*
X166827Y161979D01*
X166848Y161903D01*
X166880Y161830D01*
X166923Y161764D01*
X166976Y161705D01*
X167038Y161656D01*
X167107Y161616D01*
X167181Y161588D01*
X167258Y161572D01*
X167337Y161568D01*
X167416Y161576D01*
X167493Y161597D01*
X167564Y161630D01*
X167807Y161753D01*
X168062Y161850D01*
X168324Y161923D01*
X168592Y161972D01*
X168864Y161997D01*
X169002D01*
Y156003D01*
X168864D01*
X168592Y156028D01*
X168324Y156077D01*
X168062Y156150D01*
X167807Y156247D01*
X167563Y156367D01*
X167491Y156400D01*
X167415Y156421D01*
X167337Y156429D01*
X167259Y156425D01*
X167182Y156409D01*
X167108Y156381D01*
X167040Y156342D01*
X166979Y156293D01*
X166926Y156234D01*
X166883Y156168D01*
X166851Y156096D01*
X166830Y156020D01*
X166822Y155942D01*
X166826Y155864D01*
X166842Y155787D01*
X166870Y155713D01*
X166909Y155645D01*
X166958Y155584D01*
X167017Y155531D01*
X167083Y155489D01*
X167408Y155326D01*
X167748Y155197D01*
X168098Y155099D01*
X168456Y155033D01*
X168818Y155000D01*
X169002D01*
Y120648D01*
X168754Y120358D01*
X168688Y120250D01*
X165716D01*
Y156865D01*
X165786Y156839D01*
X165863Y156823D01*
X165942Y156819D01*
X166021Y156827D01*
X166097Y156848D01*
X166170Y156880D01*
X166236Y156923D01*
X166295Y156976D01*
X166344Y157038D01*
X166384Y157107D01*
X166412Y157181D01*
X166428Y157258D01*
X166432Y157337D01*
X166424Y157416D01*
X166403Y157493D01*
X166370Y157564D01*
X166247Y157807D01*
X166150Y158062D01*
X166077Y158324D01*
X166028Y158592D01*
X166003Y158864D01*
Y159136D01*
X166028Y159408D01*
X166077Y159676D01*
X166150Y159938D01*
X166247Y160193D01*
X166367Y160437D01*
X166400Y160509D01*
X166421Y160585D01*
X166429Y160663D01*
X166425Y160741D01*
X166409Y160818D01*
X166381Y160892D01*
X166342Y160960D01*
X166293Y161021D01*
X166234Y161074D01*
X166168Y161117D01*
X166096Y161149D01*
X166020Y161170D01*
X165942Y161178D01*
X165864Y161174D01*
X165787Y161158D01*
X165716Y161131D01*
Y380000D01*
G37*
G36*
X158016D02*X165716D01*
Y161131D01*
X165713Y161130D01*
X165645Y161091D01*
X165584Y161042D01*
X165531Y160983D01*
X165489Y160917D01*
X165326Y160592D01*
X165197Y160252D01*
X165099Y159902D01*
X165033Y159544D01*
X165000Y159182D01*
Y158818D01*
X165033Y158456D01*
X165099Y158098D01*
X165197Y157748D01*
X165326Y157408D01*
X165485Y157081D01*
X165528Y157015D01*
X165581Y156956D01*
X165643Y156906D01*
X165712Y156867D01*
X165716Y156865D01*
Y120250D01*
X158016D01*
Y164861D01*
X158142Y164754D01*
X158678Y164425D01*
X159260Y164184D01*
X159872Y164037D01*
X160500Y163988D01*
X161128Y164037D01*
X161740Y164184D01*
X162322Y164425D01*
X162858Y164754D01*
X163337Y165163D01*
X163746Y165642D01*
X164075Y166178D01*
X164316Y166760D01*
X164463Y167372D01*
X164500Y168000D01*
X164463Y168628D01*
X164316Y169240D01*
X164075Y169822D01*
X163746Y170358D01*
X163337Y170837D01*
X162858Y171246D01*
X162322Y171575D01*
X161740Y171816D01*
X161128Y171963D01*
X160500Y172012D01*
X159872Y171963D01*
X159260Y171816D01*
X158678Y171575D01*
X158142Y171246D01*
X158016Y171139D01*
Y230058D01*
X158360Y230596D01*
X158734Y231344D01*
X159038Y232123D01*
X159268Y232927D01*
X159422Y233749D01*
X159500Y234582D01*
Y235418D01*
X159422Y236251D01*
X159268Y237073D01*
X159038Y237877D01*
X158734Y238656D01*
X158360Y239404D01*
X158016Y239956D01*
Y380000D01*
G37*
G36*
X150504D02*X158016D01*
Y239956D01*
X157918Y240114D01*
X157843Y240207D01*
X157754Y240287D01*
X157654Y240351D01*
X157545Y240400D01*
X157430Y240431D01*
X157311Y240443D01*
X157192Y240436D01*
X157075Y240411D01*
X156964Y240369D01*
X156861Y240309D01*
X156768Y240233D01*
X156688Y240145D01*
X156624Y240045D01*
X156575Y239935D01*
X156544Y239820D01*
X156532Y239701D01*
X156539Y239582D01*
X156564Y239466D01*
X156606Y239354D01*
X156668Y239252D01*
X157043Y238666D01*
X157355Y238044D01*
X157607Y237395D01*
X157799Y236726D01*
X157927Y236041D01*
X157992Y235348D01*
Y234652D01*
X157927Y233959D01*
X157799Y233275D01*
X157607Y232605D01*
X157355Y231956D01*
X157043Y231334D01*
X156675Y230743D01*
X156614Y230642D01*
X156571Y230532D01*
X156547Y230417D01*
X156540Y230299D01*
X156552Y230181D01*
X156583Y230067D01*
X156631Y229959D01*
X156695Y229860D01*
X156774Y229772D01*
X156865Y229698D01*
X156967Y229639D01*
X157078Y229596D01*
X157193Y229572D01*
X157311Y229565D01*
X157428Y229577D01*
X157542Y229608D01*
X157650Y229656D01*
X157749Y229720D01*
X157837Y229799D01*
X157910Y229892D01*
X158016Y230058D01*
Y171139D01*
X157663Y170837D01*
X157254Y170358D01*
X156925Y169822D01*
X156684Y169240D01*
X156537Y168628D01*
X156488Y168000D01*
X156537Y167372D01*
X156684Y166760D01*
X156925Y166178D01*
X157254Y165642D01*
X157663Y165163D01*
X158016Y164861D01*
Y120250D01*
X150504D01*
Y146757D01*
X153485Y146764D01*
X153715Y146819D01*
X153933Y146909D01*
X154134Y147033D01*
X154314Y147186D01*
X154467Y147366D01*
X154591Y147567D01*
X154681Y147785D01*
X154736Y148015D01*
X154750Y148250D01*
X154736Y153985D01*
X154681Y154215D01*
X154591Y154433D01*
X154467Y154634D01*
X154314Y154814D01*
X154134Y154967D01*
X153933Y155091D01*
X153715Y155181D01*
X153485Y155236D01*
X153250Y155250D01*
X150504Y155243D01*
Y163988D01*
X151128Y164037D01*
X151740Y164184D01*
X152322Y164425D01*
X152858Y164754D01*
X153337Y165163D01*
X153746Y165642D01*
X154075Y166178D01*
X154316Y166760D01*
X154463Y167372D01*
X154500Y168000D01*
X154463Y168628D01*
X154316Y169240D01*
X154075Y169822D01*
X153746Y170358D01*
X153337Y170837D01*
X152858Y171246D01*
X152322Y171575D01*
X151740Y171816D01*
X151128Y171963D01*
X150504Y172012D01*
Y226000D01*
X150918D01*
X151751Y226078D01*
X152573Y226232D01*
X153377Y226462D01*
X154156Y226766D01*
X154904Y227140D01*
X155614Y227582D01*
X155707Y227657D01*
X155787Y227746D01*
X155851Y227846D01*
X155900Y227955D01*
X155931Y228070D01*
X155943Y228189D01*
X155936Y228308D01*
X155911Y228425D01*
X155869Y228536D01*
X155809Y228639D01*
X155733Y228732D01*
X155645Y228812D01*
X155545Y228876D01*
X155435Y228925D01*
X155320Y228956D01*
X155201Y228968D01*
X155082Y228961D01*
X154966Y228936D01*
X154854Y228894D01*
X154752Y228832D01*
X154166Y228457D01*
X153544Y228145D01*
X152895Y227893D01*
X152225Y227701D01*
X151541Y227573D01*
X150848Y227508D01*
X150504D01*
Y242492D01*
X150848D01*
X151541Y242427D01*
X152225Y242299D01*
X152895Y242107D01*
X153544Y241855D01*
X154166Y241543D01*
X154757Y241175D01*
X154858Y241114D01*
X154968Y241071D01*
X155083Y241047D01*
X155201Y241040D01*
X155319Y241052D01*
X155433Y241083D01*
X155541Y241131D01*
X155640Y241195D01*
X155728Y241274D01*
X155802Y241365D01*
X155861Y241467D01*
X155904Y241578D01*
X155928Y241693D01*
X155935Y241811D01*
X155923Y241928D01*
X155892Y242042D01*
X155844Y242150D01*
X155780Y242249D01*
X155701Y242337D01*
X155608Y242410D01*
X154904Y242860D01*
X154156Y243234D01*
X153377Y243538D01*
X152573Y243768D01*
X151751Y243922D01*
X150918Y244000D01*
X150504D01*
Y380000D01*
G37*
G36*
X142984D02*X150504D01*
Y244000D01*
X150082D01*
X149249Y243922D01*
X148427Y243768D01*
X147623Y243538D01*
X146844Y243234D01*
X146096Y242860D01*
X145386Y242418D01*
X145293Y242343D01*
X145213Y242254D01*
X145149Y242154D01*
X145100Y242045D01*
X145069Y241930D01*
X145057Y241811D01*
X145064Y241692D01*
X145089Y241575D01*
X145131Y241464D01*
X145191Y241361D01*
X145267Y241268D01*
X145355Y241188D01*
X145455Y241124D01*
X145565Y241075D01*
X145680Y241044D01*
X145799Y241032D01*
X145918Y241039D01*
X146034Y241064D01*
X146146Y241106D01*
X146248Y241168D01*
X146834Y241543D01*
X147456Y241855D01*
X148105Y242107D01*
X148774Y242299D01*
X149459Y242427D01*
X150152Y242492D01*
X150504D01*
Y227508D01*
X150152D01*
X149459Y227573D01*
X148774Y227701D01*
X148105Y227893D01*
X147456Y228145D01*
X146834Y228457D01*
X146243Y228825D01*
X146142Y228886D01*
X146032Y228929D01*
X145917Y228953D01*
X145799Y228960D01*
X145681Y228948D01*
X145567Y228917D01*
X145459Y228869D01*
X145360Y228805D01*
X145272Y228726D01*
X145198Y228635D01*
X145139Y228533D01*
X145096Y228422D01*
X145072Y228307D01*
X145065Y228189D01*
X145077Y228072D01*
X145108Y227958D01*
X145156Y227850D01*
X145220Y227751D01*
X145299Y227663D01*
X145392Y227590D01*
X146096Y227140D01*
X146844Y226766D01*
X147623Y226462D01*
X148427Y226232D01*
X149249Y226078D01*
X150082Y226000D01*
X150504D01*
Y172012D01*
X150500Y172012D01*
X149872Y171963D01*
X149260Y171816D01*
X148678Y171575D01*
X148142Y171246D01*
X147663Y170837D01*
X147254Y170358D01*
X146925Y169822D01*
X146684Y169240D01*
X146537Y168628D01*
X146488Y168000D01*
X146537Y167372D01*
X146684Y166760D01*
X146925Y166178D01*
X147254Y165642D01*
X147663Y165163D01*
X148142Y164754D01*
X148678Y164425D01*
X149260Y164184D01*
X149872Y164037D01*
X150500Y163988D01*
X150504Y163988D01*
Y155243D01*
X147515Y155236D01*
X147285Y155181D01*
X147067Y155091D01*
X146866Y154967D01*
X146686Y154814D01*
X146533Y154634D01*
X146409Y154433D01*
X146319Y154215D01*
X146264Y153985D01*
X146250Y153750D01*
X146264Y148015D01*
X146319Y147785D01*
X146409Y147567D01*
X146533Y147366D01*
X146686Y147186D01*
X146866Y147033D01*
X147067Y146909D01*
X147285Y146819D01*
X147515Y146764D01*
X147750Y146750D01*
X150504Y146757D01*
Y120250D01*
X142984D01*
Y164008D01*
X143657Y164009D01*
X143810Y164046D01*
X143955Y164106D01*
X144090Y164188D01*
X144209Y164291D01*
X144312Y164410D01*
X144394Y164545D01*
X144454Y164690D01*
X144491Y164843D01*
X144500Y165000D01*
X144491Y171157D01*
X144454Y171310D01*
X144394Y171455D01*
X144312Y171590D01*
X144209Y171709D01*
X144090Y171812D01*
X143955Y171894D01*
X143810Y171954D01*
X143657Y171991D01*
X143500Y172000D01*
X142984Y171999D01*
Y230044D01*
X143082Y229886D01*
X143157Y229793D01*
X143246Y229713D01*
X143346Y229649D01*
X143455Y229600D01*
X143570Y229569D01*
X143689Y229557D01*
X143808Y229564D01*
X143925Y229589D01*
X144036Y229631D01*
X144139Y229691D01*
X144232Y229767D01*
X144312Y229855D01*
X144376Y229955D01*
X144425Y230065D01*
X144456Y230180D01*
X144468Y230299D01*
X144461Y230418D01*
X144436Y230534D01*
X144394Y230646D01*
X144332Y230748D01*
X143957Y231334D01*
X143645Y231956D01*
X143393Y232605D01*
X143201Y233275D01*
X143073Y233959D01*
X143008Y234652D01*
Y235348D01*
X143073Y236041D01*
X143201Y236726D01*
X143393Y237395D01*
X143645Y238044D01*
X143957Y238666D01*
X144325Y239257D01*
X144386Y239358D01*
X144429Y239468D01*
X144453Y239583D01*
X144460Y239701D01*
X144448Y239819D01*
X144417Y239933D01*
X144369Y240041D01*
X144305Y240140D01*
X144226Y240228D01*
X144135Y240302D01*
X144033Y240361D01*
X143922Y240404D01*
X143807Y240428D01*
X143689Y240435D01*
X143572Y240423D01*
X143458Y240392D01*
X143350Y240344D01*
X143251Y240280D01*
X143163Y240201D01*
X143090Y240108D01*
X142984Y239942D01*
Y254763D01*
X143485Y254764D01*
X143715Y254819D01*
X143933Y254909D01*
X144134Y255033D01*
X144314Y255186D01*
X144467Y255366D01*
X144591Y255567D01*
X144681Y255785D01*
X144736Y256015D01*
X144750Y256250D01*
X144736Y261985D01*
X144681Y262215D01*
X144591Y262433D01*
X144467Y262634D01*
X144314Y262814D01*
X144134Y262967D01*
X143933Y263091D01*
X143715Y263181D01*
X143485Y263236D01*
X143250Y263250D01*
X142984Y263249D01*
Y295538D01*
X143006Y295551D01*
X143514Y295986D01*
X143949Y296494D01*
X144298Y297065D01*
X144554Y297683D01*
X144711Y298333D01*
X144750Y299000D01*
X144711Y299667D01*
X144554Y300317D01*
X144298Y300935D01*
X143949Y301506D01*
X143514Y302014D01*
X143006Y302449D01*
X142984Y302462D01*
Y380000D01*
G37*
G36*
X116284D02*X142984D01*
Y302462D01*
X142435Y302798D01*
X141817Y303054D01*
X141167Y303211D01*
X140500Y303263D01*
X139833Y303211D01*
X139183Y303054D01*
X138565Y302798D01*
X137994Y302449D01*
X137486Y302014D01*
X137051Y301506D01*
X136702Y300935D01*
X136446Y300317D01*
X136289Y299667D01*
X136237Y299000D01*
X136289Y298333D01*
X136446Y297683D01*
X136702Y297065D01*
X137051Y296494D01*
X137486Y295986D01*
X137994Y295551D01*
X138565Y295202D01*
X139183Y294946D01*
X139833Y294789D01*
X140500Y294737D01*
X141167Y294789D01*
X141817Y294946D01*
X142435Y295202D01*
X142984Y295538D01*
Y263249D01*
X137515Y263236D01*
X137285Y263181D01*
X137067Y263091D01*
X136866Y262967D01*
X136686Y262814D01*
X136533Y262634D01*
X136409Y262433D01*
X136319Y262215D01*
X136264Y261985D01*
X136250Y261750D01*
X136264Y256015D01*
X136319Y255785D01*
X136409Y255567D01*
X136533Y255366D01*
X136686Y255186D01*
X136866Y255033D01*
X137067Y254909D01*
X137285Y254819D01*
X137515Y254764D01*
X137750Y254750D01*
X142984Y254763D01*
Y239942D01*
X142640Y239404D01*
X142266Y238656D01*
X141962Y237877D01*
X141732Y237073D01*
X141578Y236251D01*
X141500Y235418D01*
Y234582D01*
X141578Y233749D01*
X141732Y232927D01*
X141962Y232123D01*
X142266Y231344D01*
X142640Y230596D01*
X142984Y230044D01*
Y171999D01*
X137343Y171991D01*
X137190Y171954D01*
X137045Y171894D01*
X136910Y171812D01*
X136791Y171709D01*
X136688Y171590D01*
X136606Y171455D01*
X136546Y171310D01*
X136509Y171157D01*
X136500Y171000D01*
X136509Y164843D01*
X136546Y164690D01*
X136606Y164545D01*
X136688Y164410D01*
X136791Y164291D01*
X136910Y164188D01*
X137045Y164106D01*
X137190Y164046D01*
X137343Y164009D01*
X137500Y164000D01*
X142984Y164008D01*
Y120250D01*
X116284D01*
Y156869D01*
X116287Y156870D01*
X116355Y156909D01*
X116416Y156958D01*
X116469Y157017D01*
X116511Y157083D01*
X116674Y157408D01*
X116803Y157748D01*
X116901Y158098D01*
X116967Y158456D01*
X117000Y158818D01*
Y159182D01*
X116967Y159544D01*
X116901Y159902D01*
X116803Y160252D01*
X116674Y160592D01*
X116515Y160919D01*
X116472Y160985D01*
X116419Y161044D01*
X116357Y161094D01*
X116288Y161133D01*
X116284Y161135D01*
Y380000D01*
G37*
G36*
X115494D02*X116284D01*
Y161135D01*
X116214Y161161D01*
X116137Y161177D01*
X116058Y161181D01*
X115979Y161173D01*
X115903Y161152D01*
X115830Y161120D01*
X115764Y161077D01*
X115705Y161024D01*
X115656Y160962D01*
X115616Y160893D01*
X115588Y160819D01*
X115572Y160742D01*
X115568Y160663D01*
X115576Y160584D01*
X115597Y160507D01*
X115630Y160436D01*
X115753Y160193D01*
X115850Y159938D01*
X115923Y159676D01*
X115972Y159408D01*
X115997Y159136D01*
Y158864D01*
X115972Y158592D01*
X115923Y158324D01*
X115850Y158062D01*
X115753Y157807D01*
X115633Y157563D01*
X115600Y157491D01*
X115579Y157416D01*
X115571Y157337D01*
X115575Y157259D01*
X115591Y157182D01*
X115619Y157108D01*
X115658Y157040D01*
X115707Y156979D01*
X115766Y156926D01*
X115832Y156883D01*
X115904Y156851D01*
X115980Y156830D01*
X116058Y156822D01*
X116136Y156826D01*
X116213Y156842D01*
X116284Y156869D01*
Y120250D01*
X115494D01*
Y380000D01*
G37*
G36*
X113002Y115750D02*X115494D01*
Y113250D01*
X113002D01*
Y115750D01*
G37*
G36*
Y380000D02*X115494D01*
Y120250D01*
X113002D01*
Y155000D01*
X113182D01*
X113544Y155033D01*
X113902Y155099D01*
X114252Y155197D01*
X114592Y155326D01*
X114919Y155485D01*
X114985Y155528D01*
X115044Y155581D01*
X115094Y155643D01*
X115133Y155712D01*
X115161Y155786D01*
X115177Y155863D01*
X115181Y155942D01*
X115173Y156021D01*
X115152Y156097D01*
X115120Y156170D01*
X115077Y156236D01*
X115024Y156295D01*
X114962Y156344D01*
X114893Y156384D01*
X114819Y156412D01*
X114742Y156428D01*
X114663Y156432D01*
X114584Y156424D01*
X114507Y156403D01*
X114436Y156370D01*
X114193Y156247D01*
X113938Y156150D01*
X113676Y156077D01*
X113408Y156028D01*
X113136Y156003D01*
X113002D01*
Y161997D01*
X113136D01*
X113408Y161972D01*
X113676Y161923D01*
X113938Y161850D01*
X114193Y161753D01*
X114437Y161633D01*
X114509Y161600D01*
X114584Y161579D01*
X114663Y161571D01*
X114741Y161575D01*
X114818Y161591D01*
X114892Y161619D01*
X114960Y161658D01*
X115021Y161707D01*
X115074Y161766D01*
X115117Y161832D01*
X115149Y161904D01*
X115170Y161980D01*
X115178Y162058D01*
X115174Y162136D01*
X115158Y162213D01*
X115130Y162287D01*
X115091Y162355D01*
X115042Y162416D01*
X114983Y162469D01*
X114917Y162511D01*
X114592Y162674D01*
X114252Y162803D01*
X113902Y162901D01*
X113544Y162967D01*
X113182Y163000D01*
X113002D01*
Y380000D01*
G37*
G36*
X109716Y115750D02*X113002D01*
Y113250D01*
X109716D01*
Y115750D01*
G37*
G36*
Y380000D02*X113002D01*
Y163000D01*
X112818D01*
X112456Y162967D01*
X112098Y162901D01*
X111748Y162803D01*
X111408Y162674D01*
X111081Y162515D01*
X111015Y162472D01*
X110956Y162419D01*
X110906Y162357D01*
X110867Y162288D01*
X110839Y162214D01*
X110823Y162137D01*
X110819Y162058D01*
X110827Y161979D01*
X110848Y161903D01*
X110880Y161830D01*
X110923Y161764D01*
X110976Y161705D01*
X111038Y161656D01*
X111107Y161616D01*
X111181Y161588D01*
X111258Y161572D01*
X111337Y161568D01*
X111416Y161576D01*
X111493Y161597D01*
X111564Y161630D01*
X111807Y161753D01*
X112062Y161850D01*
X112324Y161923D01*
X112592Y161972D01*
X112864Y161997D01*
X113002D01*
Y156003D01*
X112864D01*
X112592Y156028D01*
X112324Y156077D01*
X112062Y156150D01*
X111807Y156247D01*
X111563Y156367D01*
X111491Y156400D01*
X111415Y156421D01*
X111337Y156429D01*
X111259Y156425D01*
X111182Y156409D01*
X111108Y156381D01*
X111040Y156342D01*
X110979Y156293D01*
X110926Y156234D01*
X110883Y156168D01*
X110851Y156096D01*
X110830Y156020D01*
X110822Y155942D01*
X110826Y155864D01*
X110842Y155787D01*
X110870Y155713D01*
X110909Y155645D01*
X110958Y155584D01*
X111017Y155531D01*
X111083Y155489D01*
X111408Y155326D01*
X111748Y155197D01*
X112098Y155099D01*
X112456Y155033D01*
X112818Y155000D01*
X113002D01*
Y120250D01*
X109716D01*
Y156865D01*
X109786Y156839D01*
X109863Y156823D01*
X109942Y156819D01*
X110021Y156827D01*
X110097Y156848D01*
X110170Y156880D01*
X110236Y156923D01*
X110295Y156976D01*
X110344Y157038D01*
X110384Y157107D01*
X110412Y157181D01*
X110428Y157258D01*
X110432Y157337D01*
X110424Y157416D01*
X110403Y157493D01*
X110370Y157564D01*
X110247Y157807D01*
X110150Y158062D01*
X110077Y158324D01*
X110028Y158592D01*
X110003Y158864D01*
Y159136D01*
X110028Y159408D01*
X110077Y159676D01*
X110150Y159938D01*
X110247Y160193D01*
X110367Y160437D01*
X110400Y160509D01*
X110421Y160585D01*
X110429Y160663D01*
X110425Y160741D01*
X110409Y160818D01*
X110381Y160892D01*
X110342Y160960D01*
X110293Y161021D01*
X110234Y161074D01*
X110168Y161117D01*
X110096Y161149D01*
X110020Y161170D01*
X109942Y161178D01*
X109864Y161174D01*
X109787Y161158D01*
X109716Y161131D01*
Y380000D01*
G37*
G36*
X94504Y115750D02*X109716D01*
Y113250D01*
X98106D01*
X97949Y113506D01*
X97514Y114014D01*
X97006Y114449D01*
X96435Y114798D01*
X95817Y115054D01*
X95167Y115211D01*
X94504Y115263D01*
Y115750D01*
G37*
G36*
X102016Y380000D02*X109716D01*
Y161131D01*
X109713Y161130D01*
X109645Y161091D01*
X109584Y161042D01*
X109531Y160983D01*
X109489Y160917D01*
X109326Y160592D01*
X109197Y160252D01*
X109099Y159902D01*
X109033Y159544D01*
X109000Y159182D01*
Y158818D01*
X109033Y158456D01*
X109099Y158098D01*
X109197Y157748D01*
X109326Y157408D01*
X109485Y157081D01*
X109528Y157015D01*
X109581Y156956D01*
X109643Y156906D01*
X109712Y156867D01*
X109716Y156865D01*
Y120250D01*
X102016D01*
Y164861D01*
X102142Y164754D01*
X102678Y164425D01*
X103260Y164184D01*
X103872Y164037D01*
X104500Y163988D01*
X105128Y164037D01*
X105740Y164184D01*
X106322Y164425D01*
X106858Y164754D01*
X107337Y165163D01*
X107746Y165642D01*
X108075Y166178D01*
X108316Y166760D01*
X108463Y167372D01*
X108500Y168000D01*
X108463Y168628D01*
X108316Y169240D01*
X108075Y169822D01*
X107746Y170358D01*
X107337Y170837D01*
X106858Y171246D01*
X106322Y171575D01*
X105740Y171816D01*
X105128Y171963D01*
X104500Y172012D01*
X103872Y171963D01*
X103260Y171816D01*
X102678Y171575D01*
X102142Y171246D01*
X102016Y171139D01*
Y230058D01*
X102360Y230596D01*
X102734Y231344D01*
X103038Y232123D01*
X103268Y232927D01*
X103422Y233749D01*
X103500Y234582D01*
Y235418D01*
X103422Y236251D01*
X103268Y237073D01*
X103038Y237877D01*
X102734Y238656D01*
X102360Y239404D01*
X102016Y239956D01*
Y380000D01*
G37*
G36*
X94504D02*X102016D01*
Y239956D01*
X101918Y240114D01*
X101843Y240207D01*
X101754Y240287D01*
X101654Y240351D01*
X101545Y240400D01*
X101430Y240431D01*
X101311Y240443D01*
X101192Y240436D01*
X101075Y240411D01*
X100964Y240369D01*
X100861Y240309D01*
X100768Y240233D01*
X100688Y240145D01*
X100624Y240045D01*
X100575Y239935D01*
X100544Y239820D01*
X100532Y239701D01*
X100539Y239582D01*
X100564Y239466D01*
X100606Y239354D01*
X100668Y239252D01*
X101043Y238666D01*
X101355Y238044D01*
X101607Y237395D01*
X101799Y236726D01*
X101927Y236041D01*
X101992Y235348D01*
Y234652D01*
X101927Y233959D01*
X101799Y233275D01*
X101607Y232605D01*
X101355Y231956D01*
X101043Y231334D01*
X100675Y230743D01*
X100614Y230642D01*
X100571Y230532D01*
X100547Y230417D01*
X100540Y230299D01*
X100552Y230181D01*
X100583Y230067D01*
X100631Y229959D01*
X100695Y229860D01*
X100774Y229772D01*
X100865Y229698D01*
X100967Y229639D01*
X101078Y229596D01*
X101193Y229572D01*
X101311Y229565D01*
X101428Y229577D01*
X101542Y229608D01*
X101650Y229656D01*
X101749Y229720D01*
X101837Y229799D01*
X101910Y229892D01*
X102016Y230058D01*
Y171139D01*
X101663Y170837D01*
X101254Y170358D01*
X100925Y169822D01*
X100684Y169240D01*
X100537Y168628D01*
X100488Y168000D01*
X100537Y167372D01*
X100684Y166760D01*
X100925Y166178D01*
X101254Y165642D01*
X101663Y165163D01*
X102016Y164861D01*
Y120250D01*
X94504D01*
Y146757D01*
X97485Y146764D01*
X97715Y146819D01*
X97933Y146909D01*
X98134Y147033D01*
X98314Y147186D01*
X98467Y147366D01*
X98591Y147567D01*
X98681Y147785D01*
X98736Y148015D01*
X98750Y148250D01*
X98736Y153985D01*
X98681Y154215D01*
X98591Y154433D01*
X98467Y154634D01*
X98314Y154814D01*
X98134Y154967D01*
X97933Y155091D01*
X97715Y155181D01*
X97485Y155236D01*
X97250Y155250D01*
X94504Y155243D01*
Y163988D01*
X95128Y164037D01*
X95740Y164184D01*
X96322Y164425D01*
X96858Y164754D01*
X97337Y165163D01*
X97746Y165642D01*
X98075Y166178D01*
X98316Y166760D01*
X98463Y167372D01*
X98500Y168000D01*
X98463Y168628D01*
X98316Y169240D01*
X98075Y169822D01*
X97746Y170358D01*
X97337Y170837D01*
X96858Y171246D01*
X96322Y171575D01*
X95740Y171816D01*
X95128Y171963D01*
X94504Y172012D01*
Y226000D01*
X94918D01*
X95751Y226078D01*
X96573Y226232D01*
X97377Y226462D01*
X98156Y226766D01*
X98904Y227140D01*
X99614Y227582D01*
X99707Y227657D01*
X99787Y227746D01*
X99851Y227846D01*
X99900Y227955D01*
X99931Y228070D01*
X99943Y228189D01*
X99936Y228308D01*
X99911Y228425D01*
X99869Y228536D01*
X99809Y228639D01*
X99733Y228732D01*
X99645Y228812D01*
X99545Y228876D01*
X99435Y228925D01*
X99320Y228956D01*
X99201Y228968D01*
X99082Y228961D01*
X98966Y228936D01*
X98854Y228894D01*
X98752Y228832D01*
X98166Y228457D01*
X97544Y228145D01*
X96895Y227893D01*
X96225Y227701D01*
X95541Y227573D01*
X94848Y227508D01*
X94504D01*
Y242492D01*
X94848D01*
X95541Y242427D01*
X96225Y242299D01*
X96895Y242107D01*
X97544Y241855D01*
X98166Y241543D01*
X98757Y241175D01*
X98858Y241114D01*
X98968Y241071D01*
X99083Y241047D01*
X99201Y241040D01*
X99319Y241052D01*
X99433Y241083D01*
X99541Y241131D01*
X99640Y241195D01*
X99728Y241274D01*
X99802Y241365D01*
X99861Y241467D01*
X99904Y241578D01*
X99928Y241693D01*
X99935Y241811D01*
X99923Y241928D01*
X99892Y242042D01*
X99844Y242150D01*
X99780Y242249D01*
X99701Y242337D01*
X99608Y242410D01*
X98904Y242860D01*
X98156Y243234D01*
X97377Y243538D01*
X96573Y243768D01*
X95751Y243922D01*
X94918Y244000D01*
X94504D01*
Y380000D01*
G37*
G36*
X86984Y115750D02*X94504D01*
Y115263D01*
X94500Y115263D01*
X93833Y115211D01*
X93183Y115054D01*
X92565Y114798D01*
X91994Y114449D01*
X91486Y114014D01*
X91051Y113506D01*
X90702Y112935D01*
X90446Y112317D01*
X90289Y111667D01*
X90237Y111000D01*
X90279Y110461D01*
X86984Y107166D01*
Y115750D01*
G37*
G36*
Y380000D02*X94504D01*
Y244000D01*
X94082D01*
X93249Y243922D01*
X92427Y243768D01*
X91623Y243538D01*
X90844Y243234D01*
X90096Y242860D01*
X89386Y242418D01*
X89293Y242343D01*
X89213Y242254D01*
X89149Y242154D01*
X89100Y242045D01*
X89069Y241930D01*
X89057Y241811D01*
X89064Y241692D01*
X89089Y241575D01*
X89131Y241464D01*
X89191Y241361D01*
X89267Y241268D01*
X89355Y241188D01*
X89455Y241124D01*
X89565Y241075D01*
X89680Y241044D01*
X89799Y241032D01*
X89918Y241039D01*
X90034Y241064D01*
X90146Y241106D01*
X90248Y241168D01*
X90834Y241543D01*
X91456Y241855D01*
X92105Y242107D01*
X92774Y242299D01*
X93459Y242427D01*
X94152Y242492D01*
X94504D01*
Y227508D01*
X94152D01*
X93459Y227573D01*
X92774Y227701D01*
X92105Y227893D01*
X91456Y228145D01*
X90834Y228457D01*
X90243Y228825D01*
X90142Y228886D01*
X90032Y228929D01*
X89917Y228953D01*
X89799Y228960D01*
X89681Y228948D01*
X89567Y228917D01*
X89459Y228869D01*
X89360Y228805D01*
X89272Y228726D01*
X89198Y228635D01*
X89139Y228533D01*
X89096Y228422D01*
X89072Y228307D01*
X89065Y228189D01*
X89077Y228072D01*
X89108Y227958D01*
X89156Y227850D01*
X89220Y227751D01*
X89299Y227663D01*
X89392Y227590D01*
X90096Y227140D01*
X90844Y226766D01*
X91623Y226462D01*
X92427Y226232D01*
X93249Y226078D01*
X94082Y226000D01*
X94504D01*
Y172012D01*
X94500Y172012D01*
X93872Y171963D01*
X93260Y171816D01*
X92678Y171575D01*
X92142Y171246D01*
X91663Y170837D01*
X91254Y170358D01*
X90925Y169822D01*
X90684Y169240D01*
X90537Y168628D01*
X90488Y168000D01*
X90537Y167372D01*
X90684Y166760D01*
X90925Y166178D01*
X91254Y165642D01*
X91663Y165163D01*
X92142Y164754D01*
X92678Y164425D01*
X93260Y164184D01*
X93872Y164037D01*
X94500Y163988D01*
X94504Y163988D01*
Y155243D01*
X91515Y155236D01*
X91285Y155181D01*
X91067Y155091D01*
X90866Y154967D01*
X90686Y154814D01*
X90533Y154634D01*
X90409Y154433D01*
X90319Y154215D01*
X90264Y153985D01*
X90250Y153750D01*
X90264Y148015D01*
X90319Y147785D01*
X90409Y147567D01*
X90533Y147366D01*
X90686Y147186D01*
X90866Y147033D01*
X91067Y146909D01*
X91285Y146819D01*
X91515Y146764D01*
X91750Y146750D01*
X94504Y146757D01*
Y120250D01*
X86984D01*
Y164008D01*
X87657Y164009D01*
X87810Y164046D01*
X87955Y164106D01*
X88090Y164188D01*
X88209Y164291D01*
X88312Y164410D01*
X88394Y164545D01*
X88454Y164690D01*
X88491Y164843D01*
X88500Y165000D01*
X88491Y171157D01*
X88454Y171310D01*
X88394Y171455D01*
X88312Y171590D01*
X88209Y171709D01*
X88090Y171812D01*
X87955Y171894D01*
X87810Y171954D01*
X87657Y171991D01*
X87500Y172000D01*
X86984Y171999D01*
Y230044D01*
X87082Y229886D01*
X87157Y229793D01*
X87246Y229713D01*
X87346Y229649D01*
X87455Y229600D01*
X87570Y229569D01*
X87689Y229557D01*
X87808Y229564D01*
X87925Y229589D01*
X88036Y229631D01*
X88139Y229691D01*
X88232Y229767D01*
X88312Y229855D01*
X88376Y229955D01*
X88425Y230065D01*
X88456Y230180D01*
X88468Y230299D01*
X88461Y230418D01*
X88436Y230534D01*
X88394Y230646D01*
X88332Y230748D01*
X87957Y231334D01*
X87645Y231956D01*
X87393Y232605D01*
X87201Y233275D01*
X87073Y233959D01*
X87008Y234652D01*
Y235348D01*
X87073Y236041D01*
X87201Y236726D01*
X87393Y237395D01*
X87645Y238044D01*
X87957Y238666D01*
X88325Y239257D01*
X88386Y239358D01*
X88429Y239468D01*
X88453Y239583D01*
X88460Y239701D01*
X88448Y239819D01*
X88417Y239933D01*
X88369Y240041D01*
X88305Y240140D01*
X88226Y240228D01*
X88135Y240302D01*
X88033Y240361D01*
X87922Y240404D01*
X87807Y240428D01*
X87689Y240435D01*
X87572Y240423D01*
X87458Y240392D01*
X87350Y240344D01*
X87251Y240280D01*
X87163Y240201D01*
X87090Y240108D01*
X86984Y239942D01*
Y254763D01*
X87485Y254764D01*
X87715Y254819D01*
X87933Y254909D01*
X88134Y255033D01*
X88314Y255186D01*
X88467Y255366D01*
X88591Y255567D01*
X88681Y255785D01*
X88736Y256015D01*
X88750Y256250D01*
X88736Y261985D01*
X88681Y262215D01*
X88591Y262433D01*
X88467Y262634D01*
X88314Y262814D01*
X88134Y262967D01*
X87933Y263091D01*
X87715Y263181D01*
X87485Y263236D01*
X87250Y263250D01*
X86984Y263249D01*
Y295538D01*
X87006Y295551D01*
X87514Y295986D01*
X87949Y296494D01*
X88298Y297065D01*
X88554Y297683D01*
X88711Y298333D01*
X88750Y299000D01*
X88711Y299667D01*
X88554Y300317D01*
X88298Y300935D01*
X87949Y301506D01*
X87514Y302014D01*
X87006Y302449D01*
X86984Y302462D01*
Y380000D01*
G37*
G36*
X44783Y320339D02*X44787Y320328D01*
X44964Y319676D01*
X45083Y319011D01*
X45143Y318338D01*
Y317662D01*
X45083Y316989D01*
X44964Y316324D01*
X44787Y315672D01*
X44783Y315661D01*
Y320339D01*
G37*
G36*
Y380000D02*X86984D01*
Y302462D01*
X86435Y302798D01*
X85817Y303054D01*
X85167Y303211D01*
X84500Y303263D01*
X83833Y303211D01*
X83183Y303054D01*
X82565Y302798D01*
X81994Y302449D01*
X81486Y302014D01*
X81051Y301506D01*
X80702Y300935D01*
X80446Y300317D01*
X80289Y299667D01*
X80237Y299000D01*
X80289Y298333D01*
X80446Y297683D01*
X80702Y297065D01*
X81051Y296494D01*
X81486Y295986D01*
X81994Y295551D01*
X82565Y295202D01*
X83183Y294946D01*
X83833Y294789D01*
X84500Y294737D01*
X85167Y294789D01*
X85817Y294946D01*
X86435Y295202D01*
X86984Y295538D01*
Y263249D01*
X81515Y263236D01*
X81285Y263181D01*
X81067Y263091D01*
X80866Y262967D01*
X80686Y262814D01*
X80533Y262634D01*
X80409Y262433D01*
X80319Y262215D01*
X80264Y261985D01*
X80250Y261750D01*
X80264Y256015D01*
X80319Y255785D01*
X80409Y255567D01*
X80533Y255366D01*
X80686Y255186D01*
X80866Y255033D01*
X81067Y254909D01*
X81285Y254819D01*
X81515Y254764D01*
X81750Y254750D01*
X86984Y254763D01*
Y239942D01*
X86640Y239404D01*
X86266Y238656D01*
X85962Y237877D01*
X85732Y237073D01*
X85578Y236251D01*
X85500Y235418D01*
Y234582D01*
X85578Y233749D01*
X85732Y232927D01*
X85962Y232123D01*
X86266Y231344D01*
X86640Y230596D01*
X86984Y230044D01*
Y171999D01*
X81343Y171991D01*
X81190Y171954D01*
X81045Y171894D01*
X80910Y171812D01*
X80791Y171709D01*
X80688Y171590D01*
X80606Y171455D01*
X80546Y171310D01*
X80509Y171157D01*
X80500Y171000D01*
X80509Y164843D01*
X80546Y164690D01*
X80606Y164545D01*
X80688Y164410D01*
X80791Y164291D01*
X80910Y164188D01*
X81045Y164106D01*
X81190Y164046D01*
X81343Y164009D01*
X81500Y164000D01*
X86984Y164008D01*
Y120250D01*
X67088D01*
X67000Y120257D01*
X66647Y120229D01*
X66303Y120146D01*
X65975Y120011D01*
X65673Y119826D01*
X65673Y119826D01*
X65404Y119596D01*
X65347Y119529D01*
X59751Y113933D01*
X59628Y113963D01*
X59000Y114012D01*
X58372Y113963D01*
X57760Y113816D01*
X57178Y113575D01*
X56642Y113246D01*
X56163Y112837D01*
X55754Y112358D01*
X55425Y111822D01*
X55184Y111240D01*
X55037Y110628D01*
X54988Y110000D01*
X55037Y109372D01*
X55184Y108760D01*
X55425Y108178D01*
X55754Y107642D01*
X56163Y107163D01*
X56642Y106754D01*
X57178Y106425D01*
X57760Y106184D01*
X58372Y106037D01*
X59000Y105988D01*
X59628Y106037D01*
X60240Y106184D01*
X60822Y106425D01*
X61358Y106754D01*
X61837Y107163D01*
X62246Y107642D01*
X62575Y108178D01*
X62816Y108760D01*
X62963Y109372D01*
X63000Y110000D01*
X62963Y110628D01*
X62933Y110751D01*
X67932Y115750D01*
X86984D01*
Y107166D01*
X80068Y100250D01*
X44783D01*
Y313320D01*
X45156Y313956D01*
X45483Y314647D01*
X45748Y315365D01*
X45948Y316103D01*
X46082Y316856D01*
X46150Y317618D01*
Y318382D01*
X46082Y319144D01*
X45948Y319897D01*
X45748Y320635D01*
X45483Y321353D01*
X45156Y322044D01*
X44783Y322680D01*
Y380000D01*
G37*
G36*
X37504D02*X44783D01*
Y322680D01*
X44769Y322704D01*
X44326Y323327D01*
X44272Y323386D01*
X44210Y323436D01*
X44140Y323475D01*
X44065Y323504D01*
X43987Y323519D01*
X43907Y323523D01*
X43828Y323514D01*
X43751Y323493D01*
X43678Y323460D01*
X43612Y323416D01*
X43553Y323362D01*
X43503Y323299D01*
X43464Y323230D01*
X43436Y323155D01*
X43420Y323077D01*
X43416Y322997D01*
X43425Y322917D01*
X43447Y322840D01*
X43480Y322768D01*
X43525Y322702D01*
X43923Y322156D01*
X44264Y321573D01*
X44553Y320962D01*
X44783Y320339D01*
Y315661D01*
X44553Y315038D01*
X44264Y314427D01*
X43923Y313844D01*
X43531Y313293D01*
X43486Y313229D01*
X43454Y313157D01*
X43433Y313081D01*
X43424Y313003D01*
X43427Y312924D01*
X43443Y312847D01*
X43470Y312774D01*
X43509Y312705D01*
X43558Y312644D01*
X43616Y312590D01*
X43682Y312547D01*
X43754Y312514D01*
X43829Y312493D01*
X43908Y312485D01*
X43986Y312488D01*
X44063Y312504D01*
X44137Y312531D01*
X44206Y312570D01*
X44267Y312619D01*
X44319Y312678D01*
X44769Y313296D01*
X44783Y313320D01*
Y100250D01*
X37504D01*
Y309350D01*
X37882D01*
X38644Y309418D01*
X39397Y309552D01*
X40135Y309752D01*
X40853Y310017D01*
X41544Y310344D01*
X42204Y310731D01*
X42827Y311174D01*
X42886Y311228D01*
X42936Y311290D01*
X42975Y311360D01*
X43003Y311435D01*
X43019Y311513D01*
X43023Y311593D01*
X43014Y311672D01*
X42993Y311749D01*
X42960Y311822D01*
X42916Y311888D01*
X42862Y311947D01*
X42799Y311997D01*
X42730Y312036D01*
X42655Y312064D01*
X42577Y312080D01*
X42497Y312084D01*
X42417Y312075D01*
X42340Y312053D01*
X42268Y312020D01*
X42202Y311975D01*
X41656Y311577D01*
X41073Y311236D01*
X40462Y310947D01*
X39828Y310713D01*
X39176Y310536D01*
X38511Y310417D01*
X37838Y310357D01*
X37504D01*
Y325643D01*
X37838D01*
X38511Y325583D01*
X39176Y325464D01*
X39828Y325287D01*
X40462Y325053D01*
X41073Y324764D01*
X41656Y324423D01*
X42207Y324031D01*
X42271Y323986D01*
X42343Y323954D01*
X42419Y323933D01*
X42497Y323924D01*
X42576Y323927D01*
X42653Y323943D01*
X42726Y323970D01*
X42795Y324009D01*
X42856Y324058D01*
X42910Y324116D01*
X42953Y324182D01*
X42986Y324254D01*
X43007Y324329D01*
X43015Y324408D01*
X43012Y324486D01*
X42996Y324563D01*
X42969Y324637D01*
X42930Y324706D01*
X42881Y324767D01*
X42822Y324819D01*
X42204Y325269D01*
X41544Y325656D01*
X40853Y325983D01*
X40135Y326248D01*
X39397Y326448D01*
X38644Y326583D01*
X37882Y326650D01*
X37504D01*
Y380000D01*
G37*
G36*
X29993D02*X37504D01*
Y326650D01*
X37118D01*
X36356Y326583D01*
X35603Y326448D01*
X34865Y326248D01*
X34147Y325983D01*
X33456Y325656D01*
X32796Y325269D01*
X32173Y324826D01*
X32114Y324772D01*
X32064Y324710D01*
X32025Y324640D01*
X31996Y324565D01*
X31981Y324487D01*
X31977Y324407D01*
X31986Y324328D01*
X32007Y324251D01*
X32040Y324178D01*
X32084Y324112D01*
X32138Y324053D01*
X32201Y324003D01*
X32270Y323964D01*
X32345Y323936D01*
X32423Y323920D01*
X32503Y323916D01*
X32583Y323925D01*
X32660Y323947D01*
X32732Y323980D01*
X32798Y324025D01*
X33344Y324423D01*
X33927Y324764D01*
X34538Y325053D01*
X35172Y325287D01*
X35824Y325464D01*
X36489Y325583D01*
X37162Y325643D01*
X37504D01*
Y310357D01*
X37162D01*
X36489Y310417D01*
X35824Y310536D01*
X35172Y310713D01*
X34538Y310947D01*
X33927Y311236D01*
X33344Y311577D01*
X32793Y311969D01*
X32729Y312014D01*
X32657Y312046D01*
X32581Y312067D01*
X32503Y312076D01*
X32424Y312073D01*
X32347Y312057D01*
X32274Y312030D01*
X32205Y311991D01*
X32143Y311942D01*
X32090Y311884D01*
X32047Y311818D01*
X32014Y311746D01*
X31993Y311671D01*
X31985Y311592D01*
X31988Y311514D01*
X32004Y311437D01*
X32031Y311363D01*
X32070Y311294D01*
X32119Y311233D01*
X32178Y311181D01*
X32796Y310731D01*
X33456Y310344D01*
X34147Y310017D01*
X34865Y309752D01*
X35603Y309552D01*
X36356Y309418D01*
X37118Y309350D01*
X37504D01*
Y100250D01*
X33840D01*
X33611Y100624D01*
X33156Y101156D01*
X32624Y101611D01*
X32026Y101977D01*
X31379Y102245D01*
X30698Y102409D01*
X30000Y102464D01*
X29993Y102463D01*
Y103537D01*
X30000Y103536D01*
X30698Y103591D01*
X31379Y103755D01*
X32026Y104023D01*
X32624Y104389D01*
X33156Y104844D01*
X33611Y105376D01*
X33977Y105974D01*
X34245Y106621D01*
X34409Y107302D01*
X34450Y108000D01*
X34409Y108698D01*
X34245Y109379D01*
X33977Y110026D01*
X33611Y110624D01*
X33156Y111156D01*
X32624Y111611D01*
X32026Y111977D01*
X31379Y112245D01*
X30698Y112409D01*
X30000Y112464D01*
X29993Y112463D01*
Y113537D01*
X30000Y113536D01*
X30698Y113591D01*
X31379Y113755D01*
X32026Y114023D01*
X32624Y114389D01*
X33156Y114844D01*
X33611Y115376D01*
X33977Y115974D01*
X34245Y116621D01*
X34409Y117302D01*
X34450Y118000D01*
X34409Y118698D01*
X34245Y119379D01*
X33977Y120026D01*
X33611Y120624D01*
X33156Y121156D01*
X32624Y121611D01*
X32026Y121977D01*
X31379Y122245D01*
X30698Y122409D01*
X30000Y122464D01*
X29993Y122463D01*
Y123537D01*
X30000Y123536D01*
X30698Y123591D01*
X31379Y123755D01*
X32026Y124023D01*
X32624Y124389D01*
X33156Y124844D01*
X33611Y125376D01*
X33977Y125974D01*
X34245Y126621D01*
X34409Y127302D01*
X34450Y128000D01*
X34409Y128698D01*
X34245Y129379D01*
X33977Y130026D01*
X33611Y130624D01*
X33156Y131156D01*
X32624Y131611D01*
X32026Y131977D01*
X31379Y132245D01*
X30698Y132409D01*
X30000Y132464D01*
X29993Y132463D01*
Y133537D01*
X30000Y133536D01*
X30698Y133591D01*
X31379Y133755D01*
X32026Y134023D01*
X32624Y134389D01*
X33156Y134844D01*
X33611Y135376D01*
X33977Y135974D01*
X34245Y136621D01*
X34409Y137302D01*
X34450Y138000D01*
X34409Y138698D01*
X34245Y139379D01*
X33977Y140026D01*
X33611Y140624D01*
X33156Y141156D01*
X32624Y141611D01*
X32026Y141977D01*
X31379Y142245D01*
X30698Y142409D01*
X30000Y142464D01*
X29993Y142463D01*
Y143537D01*
X30000Y143536D01*
X30698Y143591D01*
X31379Y143755D01*
X32026Y144023D01*
X32624Y144389D01*
X33156Y144844D01*
X33611Y145376D01*
X33977Y145974D01*
X34245Y146621D01*
X34409Y147302D01*
X34450Y148000D01*
X34409Y148698D01*
X34245Y149379D01*
X33977Y150026D01*
X33611Y150624D01*
X33156Y151156D01*
X32624Y151611D01*
X32026Y151977D01*
X31379Y152245D01*
X30698Y152409D01*
X30000Y152464D01*
X29993Y152463D01*
Y153537D01*
X30000Y153536D01*
X30698Y153591D01*
X31379Y153755D01*
X32026Y154023D01*
X32624Y154389D01*
X33156Y154844D01*
X33611Y155376D01*
X33977Y155974D01*
X34245Y156621D01*
X34409Y157302D01*
X34450Y158000D01*
X34409Y158698D01*
X34245Y159379D01*
X33977Y160026D01*
X33611Y160624D01*
X33156Y161156D01*
X32624Y161611D01*
X32026Y161977D01*
X31379Y162245D01*
X30698Y162409D01*
X30000Y162464D01*
X29993Y162463D01*
Y163537D01*
X30000Y163536D01*
X30698Y163591D01*
X31379Y163755D01*
X32026Y164023D01*
X32624Y164389D01*
X33156Y164844D01*
X33611Y165376D01*
X33977Y165974D01*
X34245Y166621D01*
X34409Y167302D01*
X34450Y168000D01*
X34409Y168698D01*
X34245Y169379D01*
X33977Y170026D01*
X33611Y170624D01*
X33156Y171156D01*
X32624Y171611D01*
X32026Y171977D01*
X31379Y172245D01*
X30698Y172409D01*
X30000Y172464D01*
X29993Y172463D01*
Y173537D01*
X30000Y173536D01*
X30698Y173591D01*
X31379Y173755D01*
X32026Y174023D01*
X32624Y174389D01*
X33156Y174844D01*
X33611Y175376D01*
X33977Y175974D01*
X34245Y176621D01*
X34409Y177302D01*
X34450Y178000D01*
X34409Y178698D01*
X34245Y179379D01*
X33977Y180026D01*
X33611Y180624D01*
X33156Y181156D01*
X32624Y181611D01*
X32026Y181977D01*
X31379Y182245D01*
X30698Y182409D01*
X30000Y182464D01*
X29993Y182463D01*
Y183537D01*
X30000Y183536D01*
X30698Y183591D01*
X31379Y183755D01*
X32026Y184023D01*
X32624Y184389D01*
X33156Y184844D01*
X33611Y185376D01*
X33977Y185974D01*
X34245Y186621D01*
X34409Y187302D01*
X34450Y188000D01*
X34409Y188698D01*
X34245Y189379D01*
X33977Y190026D01*
X33611Y190624D01*
X33156Y191156D01*
X32624Y191611D01*
X32026Y191977D01*
X31379Y192245D01*
X30698Y192409D01*
X30000Y192464D01*
X29993Y192463D01*
Y193537D01*
X30000Y193536D01*
X30698Y193591D01*
X31379Y193755D01*
X32026Y194023D01*
X32624Y194389D01*
X33156Y194844D01*
X33611Y195376D01*
X33977Y195974D01*
X34245Y196621D01*
X34409Y197302D01*
X34450Y198000D01*
X34409Y198698D01*
X34245Y199379D01*
X33977Y200026D01*
X33611Y200624D01*
X33156Y201156D01*
X32624Y201611D01*
X32026Y201977D01*
X31379Y202245D01*
X30698Y202409D01*
X30000Y202464D01*
X29993Y202463D01*
Y203537D01*
X30000Y203536D01*
X30698Y203591D01*
X31379Y203755D01*
X32026Y204023D01*
X32624Y204389D01*
X33156Y204844D01*
X33611Y205376D01*
X33977Y205974D01*
X34245Y206621D01*
X34409Y207302D01*
X34450Y208000D01*
X34409Y208698D01*
X34245Y209379D01*
X33977Y210026D01*
X33611Y210624D01*
X33156Y211156D01*
X32624Y211611D01*
X32026Y211977D01*
X31379Y212245D01*
X30698Y212409D01*
X30000Y212464D01*
X29993Y212463D01*
Y213537D01*
X30000Y213536D01*
X30698Y213591D01*
X31379Y213755D01*
X32026Y214023D01*
X32624Y214389D01*
X33156Y214844D01*
X33611Y215376D01*
X33977Y215974D01*
X34245Y216621D01*
X34409Y217302D01*
X34450Y218000D01*
X34409Y218698D01*
X34245Y219379D01*
X33977Y220026D01*
X33611Y220624D01*
X33156Y221156D01*
X32624Y221611D01*
X32026Y221977D01*
X31379Y222245D01*
X30698Y222409D01*
X30000Y222464D01*
X29993Y222463D01*
Y223537D01*
X30000Y223536D01*
X30698Y223591D01*
X31379Y223755D01*
X32026Y224023D01*
X32624Y224389D01*
X33156Y224844D01*
X33611Y225376D01*
X33977Y225974D01*
X34245Y226621D01*
X34409Y227302D01*
X34450Y228000D01*
X34409Y228698D01*
X34245Y229379D01*
X33977Y230026D01*
X33611Y230624D01*
X33156Y231156D01*
X32624Y231611D01*
X32026Y231977D01*
X31379Y232245D01*
X30698Y232409D01*
X30000Y232464D01*
X29993Y232463D01*
Y233537D01*
X30000Y233536D01*
X30698Y233591D01*
X31379Y233755D01*
X32026Y234023D01*
X32624Y234389D01*
X33156Y234844D01*
X33611Y235376D01*
X33977Y235974D01*
X34245Y236621D01*
X34409Y237302D01*
X34450Y238000D01*
X34409Y238698D01*
X34245Y239379D01*
X33977Y240026D01*
X33611Y240624D01*
X33156Y241156D01*
X32624Y241611D01*
X32026Y241977D01*
X31379Y242245D01*
X30698Y242409D01*
X30000Y242464D01*
X29993Y242463D01*
Y243537D01*
X30000Y243536D01*
X30698Y243591D01*
X31379Y243755D01*
X32026Y244023D01*
X32624Y244389D01*
X33156Y244844D01*
X33611Y245376D01*
X33977Y245974D01*
X34245Y246621D01*
X34409Y247302D01*
X34450Y248000D01*
X34409Y248698D01*
X34245Y249379D01*
X33977Y250026D01*
X33611Y250624D01*
X33156Y251156D01*
X32624Y251611D01*
X32026Y251977D01*
X31379Y252245D01*
X30698Y252409D01*
X30000Y252464D01*
X29993Y252463D01*
Y253537D01*
X30000Y253536D01*
X30698Y253591D01*
X31379Y253755D01*
X32026Y254023D01*
X32624Y254389D01*
X33156Y254844D01*
X33611Y255376D01*
X33977Y255974D01*
X34245Y256621D01*
X34409Y257302D01*
X34450Y258000D01*
X34409Y258698D01*
X34245Y259379D01*
X33977Y260026D01*
X33611Y260624D01*
X33156Y261156D01*
X32624Y261611D01*
X32026Y261977D01*
X31379Y262245D01*
X30698Y262409D01*
X30000Y262464D01*
X29993Y262463D01*
Y263537D01*
X30000Y263536D01*
X30698Y263591D01*
X31379Y263755D01*
X32026Y264023D01*
X32624Y264389D01*
X33156Y264844D01*
X33611Y265376D01*
X33977Y265974D01*
X34245Y266621D01*
X34409Y267302D01*
X34450Y268000D01*
X34409Y268698D01*
X34245Y269379D01*
X33977Y270026D01*
X33611Y270624D01*
X33156Y271156D01*
X32624Y271611D01*
X32026Y271977D01*
X31379Y272245D01*
X30698Y272409D01*
X30000Y272464D01*
X29993Y272463D01*
Y273537D01*
X30000Y273536D01*
X30698Y273591D01*
X31379Y273755D01*
X32026Y274023D01*
X32624Y274389D01*
X33156Y274844D01*
X33611Y275376D01*
X33977Y275974D01*
X34245Y276621D01*
X34409Y277302D01*
X34450Y278000D01*
X34409Y278698D01*
X34245Y279379D01*
X33977Y280026D01*
X33611Y280624D01*
X33156Y281156D01*
X32624Y281611D01*
X32026Y281977D01*
X31379Y282245D01*
X30698Y282409D01*
X30000Y282464D01*
X29993Y282463D01*
Y283537D01*
X30000Y283536D01*
X30698Y283591D01*
X31379Y283755D01*
X32026Y284023D01*
X32624Y284389D01*
X33156Y284844D01*
X33611Y285376D01*
X33977Y285974D01*
X34245Y286621D01*
X34409Y287302D01*
X34450Y288000D01*
X34409Y288698D01*
X34245Y289379D01*
X33977Y290026D01*
X33611Y290624D01*
X33156Y291156D01*
X32624Y291611D01*
X32026Y291977D01*
X31379Y292245D01*
X30698Y292409D01*
X30000Y292464D01*
X29993Y292463D01*
Y293537D01*
X30000Y293536D01*
X30698Y293591D01*
X31379Y293755D01*
X32026Y294023D01*
X32624Y294389D01*
X33156Y294844D01*
X33611Y295376D01*
X33977Y295974D01*
X34245Y296621D01*
X34409Y297302D01*
X34450Y298000D01*
X34409Y298698D01*
X34245Y299379D01*
X33977Y300026D01*
X33611Y300624D01*
X33156Y301156D01*
X32624Y301611D01*
X32026Y301977D01*
X31379Y302245D01*
X30698Y302409D01*
X30000Y302464D01*
X29993Y302463D01*
Y313702D01*
X30231Y313296D01*
X30674Y312673D01*
X30728Y312614D01*
X30790Y312564D01*
X30860Y312525D01*
X30935Y312497D01*
X31013Y312481D01*
X31093Y312477D01*
X31172Y312486D01*
X31249Y312507D01*
X31322Y312540D01*
X31388Y312584D01*
X31447Y312638D01*
X31497Y312701D01*
X31536Y312770D01*
X31564Y312845D01*
X31580Y312923D01*
X31584Y313003D01*
X31575Y313083D01*
X31553Y313160D01*
X31520Y313232D01*
X31475Y313298D01*
X31077Y313844D01*
X30736Y314427D01*
X30447Y315038D01*
X30213Y315672D01*
X30036Y316324D01*
X29993Y316563D01*
Y319437D01*
X30036Y319676D01*
X30213Y320328D01*
X30447Y320962D01*
X30736Y321573D01*
X31077Y322156D01*
X31469Y322707D01*
X31514Y322771D01*
X31546Y322843D01*
X31567Y322919D01*
X31576Y322997D01*
X31573Y323076D01*
X31557Y323153D01*
X31530Y323226D01*
X31491Y323295D01*
X31442Y323357D01*
X31384Y323410D01*
X31318Y323453D01*
X31246Y323486D01*
X31171Y323507D01*
X31092Y323516D01*
X31014Y323512D01*
X30937Y323496D01*
X30863Y323469D01*
X30794Y323430D01*
X30733Y323381D01*
X30681Y323322D01*
X30231Y322704D01*
X29993Y322299D01*
Y380000D01*
G37*
G36*
Y316563D02*X29917Y316989D01*
X29857Y317662D01*
Y318338D01*
X29917Y319011D01*
X29993Y319437D01*
Y316563D01*
G37*
G36*
X19993Y380000D02*X29993D01*
Y322299D01*
X29844Y322044D01*
X29517Y321353D01*
X29252Y320635D01*
X29052Y319897D01*
X28917Y319144D01*
X28850Y318382D01*
Y317618D01*
X28917Y316856D01*
X29052Y316103D01*
X29252Y315365D01*
X29517Y314647D01*
X29844Y313956D01*
X29993Y313702D01*
Y302463D01*
X29302Y302409D01*
X28621Y302245D01*
X27974Y301977D01*
X27376Y301611D01*
X26844Y301156D01*
X26389Y300624D01*
X26023Y300026D01*
X25755Y299379D01*
X25591Y298698D01*
X25536Y298000D01*
X25591Y297302D01*
X25755Y296621D01*
X26023Y295974D01*
X26389Y295376D01*
X26844Y294844D01*
X27376Y294389D01*
X27974Y294023D01*
X28621Y293755D01*
X29302Y293591D01*
X29993Y293537D01*
Y292463D01*
X29302Y292409D01*
X28621Y292245D01*
X27974Y291977D01*
X27376Y291611D01*
X26844Y291156D01*
X26389Y290624D01*
X26023Y290026D01*
X25755Y289379D01*
X25591Y288698D01*
X25536Y288000D01*
X25591Y287302D01*
X25755Y286621D01*
X26023Y285974D01*
X26389Y285376D01*
X26844Y284844D01*
X27376Y284389D01*
X27974Y284023D01*
X28621Y283755D01*
X29302Y283591D01*
X29993Y283537D01*
Y282463D01*
X29302Y282409D01*
X28621Y282245D01*
X27974Y281977D01*
X27376Y281611D01*
X26844Y281156D01*
X26389Y280624D01*
X26023Y280026D01*
X25755Y279379D01*
X25591Y278698D01*
X25536Y278000D01*
X25591Y277302D01*
X25755Y276621D01*
X26023Y275974D01*
X26389Y275376D01*
X26844Y274844D01*
X27376Y274389D01*
X27974Y274023D01*
X28621Y273755D01*
X29302Y273591D01*
X29993Y273537D01*
Y272463D01*
X29302Y272409D01*
X28621Y272245D01*
X27974Y271977D01*
X27376Y271611D01*
X26844Y271156D01*
X26389Y270624D01*
X26023Y270026D01*
X25755Y269379D01*
X25591Y268698D01*
X25536Y268000D01*
X25591Y267302D01*
X25755Y266621D01*
X26023Y265974D01*
X26389Y265376D01*
X26844Y264844D01*
X27376Y264389D01*
X27974Y264023D01*
X28621Y263755D01*
X29302Y263591D01*
X29993Y263537D01*
Y262463D01*
X29302Y262409D01*
X28621Y262245D01*
X27974Y261977D01*
X27376Y261611D01*
X26844Y261156D01*
X26389Y260624D01*
X26023Y260026D01*
X25755Y259379D01*
X25591Y258698D01*
X25536Y258000D01*
X25591Y257302D01*
X25755Y256621D01*
X26023Y255974D01*
X26389Y255376D01*
X26844Y254844D01*
X27376Y254389D01*
X27974Y254023D01*
X28621Y253755D01*
X29302Y253591D01*
X29993Y253537D01*
Y252463D01*
X29302Y252409D01*
X28621Y252245D01*
X27974Y251977D01*
X27376Y251611D01*
X26844Y251156D01*
X26389Y250624D01*
X26023Y250026D01*
X25755Y249379D01*
X25591Y248698D01*
X25536Y248000D01*
X25591Y247302D01*
X25755Y246621D01*
X26023Y245974D01*
X26389Y245376D01*
X26844Y244844D01*
X27376Y244389D01*
X27974Y244023D01*
X28621Y243755D01*
X29302Y243591D01*
X29993Y243537D01*
Y242463D01*
X29302Y242409D01*
X28621Y242245D01*
X27974Y241977D01*
X27376Y241611D01*
X26844Y241156D01*
X26389Y240624D01*
X26023Y240026D01*
X25755Y239379D01*
X25591Y238698D01*
X25536Y238000D01*
X25591Y237302D01*
X25755Y236621D01*
X26023Y235974D01*
X26389Y235376D01*
X26844Y234844D01*
X27376Y234389D01*
X27974Y234023D01*
X28621Y233755D01*
X29302Y233591D01*
X29993Y233537D01*
Y232463D01*
X29302Y232409D01*
X28621Y232245D01*
X27974Y231977D01*
X27376Y231611D01*
X26844Y231156D01*
X26389Y230624D01*
X26023Y230026D01*
X25755Y229379D01*
X25591Y228698D01*
X25536Y228000D01*
X25591Y227302D01*
X25755Y226621D01*
X26023Y225974D01*
X26389Y225376D01*
X26844Y224844D01*
X27376Y224389D01*
X27974Y224023D01*
X28621Y223755D01*
X29302Y223591D01*
X29993Y223537D01*
Y222463D01*
X29302Y222409D01*
X28621Y222245D01*
X27974Y221977D01*
X27376Y221611D01*
X26844Y221156D01*
X26389Y220624D01*
X26023Y220026D01*
X25755Y219379D01*
X25591Y218698D01*
X25536Y218000D01*
X25591Y217302D01*
X25755Y216621D01*
X26023Y215974D01*
X26389Y215376D01*
X26844Y214844D01*
X27376Y214389D01*
X27974Y214023D01*
X28621Y213755D01*
X29302Y213591D01*
X29993Y213537D01*
Y212463D01*
X29302Y212409D01*
X28621Y212245D01*
X27974Y211977D01*
X27376Y211611D01*
X26844Y211156D01*
X26389Y210624D01*
X26023Y210026D01*
X25755Y209379D01*
X25591Y208698D01*
X25536Y208000D01*
X25591Y207302D01*
X25755Y206621D01*
X26023Y205974D01*
X26389Y205376D01*
X26844Y204844D01*
X27376Y204389D01*
X27974Y204023D01*
X28621Y203755D01*
X29302Y203591D01*
X29993Y203537D01*
Y202463D01*
X29302Y202409D01*
X28621Y202245D01*
X27974Y201977D01*
X27376Y201611D01*
X26844Y201156D01*
X26389Y200624D01*
X26023Y200026D01*
X25755Y199379D01*
X25591Y198698D01*
X25536Y198000D01*
X25591Y197302D01*
X25755Y196621D01*
X26023Y195974D01*
X26389Y195376D01*
X26844Y194844D01*
X27376Y194389D01*
X27974Y194023D01*
X28621Y193755D01*
X29302Y193591D01*
X29993Y193537D01*
Y192463D01*
X29302Y192409D01*
X28621Y192245D01*
X27974Y191977D01*
X27376Y191611D01*
X26844Y191156D01*
X26389Y190624D01*
X26023Y190026D01*
X25755Y189379D01*
X25591Y188698D01*
X25536Y188000D01*
X25591Y187302D01*
X25755Y186621D01*
X26023Y185974D01*
X26389Y185376D01*
X26844Y184844D01*
X27376Y184389D01*
X27974Y184023D01*
X28621Y183755D01*
X29302Y183591D01*
X29993Y183537D01*
Y182463D01*
X29302Y182409D01*
X28621Y182245D01*
X27974Y181977D01*
X27376Y181611D01*
X26844Y181156D01*
X26389Y180624D01*
X26023Y180026D01*
X25755Y179379D01*
X25591Y178698D01*
X25536Y178000D01*
X25591Y177302D01*
X25755Y176621D01*
X26023Y175974D01*
X26389Y175376D01*
X26844Y174844D01*
X27376Y174389D01*
X27974Y174023D01*
X28621Y173755D01*
X29302Y173591D01*
X29993Y173537D01*
Y172463D01*
X29302Y172409D01*
X28621Y172245D01*
X27974Y171977D01*
X27376Y171611D01*
X26844Y171156D01*
X26389Y170624D01*
X26023Y170026D01*
X25755Y169379D01*
X25591Y168698D01*
X25536Y168000D01*
X25591Y167302D01*
X25755Y166621D01*
X26023Y165974D01*
X26389Y165376D01*
X26844Y164844D01*
X27376Y164389D01*
X27974Y164023D01*
X28621Y163755D01*
X29302Y163591D01*
X29993Y163537D01*
Y162463D01*
X29302Y162409D01*
X28621Y162245D01*
X27974Y161977D01*
X27376Y161611D01*
X26844Y161156D01*
X26389Y160624D01*
X26023Y160026D01*
X25755Y159379D01*
X25591Y158698D01*
X25536Y158000D01*
X25591Y157302D01*
X25755Y156621D01*
X26023Y155974D01*
X26389Y155376D01*
X26844Y154844D01*
X27376Y154389D01*
X27974Y154023D01*
X28621Y153755D01*
X29302Y153591D01*
X29993Y153537D01*
Y152463D01*
X29302Y152409D01*
X28621Y152245D01*
X27974Y151977D01*
X27376Y151611D01*
X26844Y151156D01*
X26389Y150624D01*
X26023Y150026D01*
X25755Y149379D01*
X25591Y148698D01*
X25536Y148000D01*
X25591Y147302D01*
X25755Y146621D01*
X26023Y145974D01*
X26389Y145376D01*
X26844Y144844D01*
X27376Y144389D01*
X27974Y144023D01*
X28621Y143755D01*
X29302Y143591D01*
X29993Y143537D01*
Y142463D01*
X29302Y142409D01*
X28621Y142245D01*
X27974Y141977D01*
X27376Y141611D01*
X26844Y141156D01*
X26389Y140624D01*
X26023Y140026D01*
X25755Y139379D01*
X25591Y138698D01*
X25536Y138000D01*
X25591Y137302D01*
X25755Y136621D01*
X26023Y135974D01*
X26389Y135376D01*
X26844Y134844D01*
X27376Y134389D01*
X27974Y134023D01*
X28621Y133755D01*
X29302Y133591D01*
X29993Y133537D01*
Y132463D01*
X29302Y132409D01*
X28621Y132245D01*
X27974Y131977D01*
X27376Y131611D01*
X26844Y131156D01*
X26389Y130624D01*
X26023Y130026D01*
X25755Y129379D01*
X25591Y128698D01*
X25536Y128000D01*
X25591Y127302D01*
X25755Y126621D01*
X26023Y125974D01*
X26389Y125376D01*
X26844Y124844D01*
X27376Y124389D01*
X27974Y124023D01*
X28621Y123755D01*
X29302Y123591D01*
X29993Y123537D01*
Y122463D01*
X29302Y122409D01*
X28621Y122245D01*
X27974Y121977D01*
X27376Y121611D01*
X26844Y121156D01*
X26389Y120624D01*
X26023Y120026D01*
X25755Y119379D01*
X25591Y118698D01*
X25536Y118000D01*
X25591Y117302D01*
X25755Y116621D01*
X26023Y115974D01*
X26389Y115376D01*
X26844Y114844D01*
X27376Y114389D01*
X27974Y114023D01*
X28621Y113755D01*
X29302Y113591D01*
X29993Y113537D01*
Y112463D01*
X29302Y112409D01*
X28621Y112245D01*
X27974Y111977D01*
X27376Y111611D01*
X26844Y111156D01*
X26389Y110624D01*
X26023Y110026D01*
X25755Y109379D01*
X25591Y108698D01*
X25536Y108000D01*
X25591Y107302D01*
X25755Y106621D01*
X26023Y105974D01*
X26389Y105376D01*
X26844Y104844D01*
X27376Y104389D01*
X27974Y104023D01*
X28621Y103755D01*
X29302Y103591D01*
X29993Y103537D01*
Y102463D01*
X29302Y102409D01*
X28621Y102245D01*
X27974Y101977D01*
X27376Y101611D01*
X26844Y101156D01*
X26389Y100624D01*
X26023Y100026D01*
X25755Y99379D01*
X25591Y98698D01*
X25536Y98000D01*
X25591Y97302D01*
X25755Y96621D01*
X26023Y95974D01*
X26389Y95376D01*
X26844Y94844D01*
X27376Y94389D01*
X27974Y94023D01*
X28621Y93755D01*
X29302Y93591D01*
X29993Y93537D01*
Y92463D01*
X29302Y92409D01*
X28621Y92245D01*
X27974Y91977D01*
X27376Y91611D01*
X26844Y91156D01*
X26389Y90624D01*
X26023Y90026D01*
X25755Y89379D01*
X25591Y88698D01*
X25536Y88000D01*
X25591Y87302D01*
X25755Y86621D01*
X26023Y85974D01*
X26389Y85376D01*
X26844Y84844D01*
X27376Y84389D01*
X27974Y84023D01*
X28621Y83755D01*
X29302Y83591D01*
X29993Y83537D01*
Y83000D01*
X19993D01*
Y83537D01*
X20000Y83536D01*
X20698Y83591D01*
X21379Y83755D01*
X22026Y84023D01*
X22624Y84389D01*
X23156Y84844D01*
X23611Y85376D01*
X23977Y85974D01*
X24245Y86621D01*
X24409Y87302D01*
X24450Y88000D01*
X24409Y88698D01*
X24245Y89379D01*
X23977Y90026D01*
X23611Y90624D01*
X23156Y91156D01*
X22624Y91611D01*
X22026Y91977D01*
X21379Y92245D01*
X20698Y92409D01*
X20000Y92464D01*
X19993Y92463D01*
Y93537D01*
X20000Y93536D01*
X20698Y93591D01*
X21379Y93755D01*
X22026Y94023D01*
X22624Y94389D01*
X23156Y94844D01*
X23611Y95376D01*
X23977Y95974D01*
X24245Y96621D01*
X24409Y97302D01*
X24450Y98000D01*
X24409Y98698D01*
X24245Y99379D01*
X23977Y100026D01*
X23611Y100624D01*
X23156Y101156D01*
X22624Y101611D01*
X22026Y101977D01*
X21379Y102245D01*
X20698Y102409D01*
X20000Y102464D01*
X19993Y102463D01*
Y103537D01*
X20000Y103536D01*
X20698Y103591D01*
X21379Y103755D01*
X22026Y104023D01*
X22624Y104389D01*
X23156Y104844D01*
X23611Y105376D01*
X23977Y105974D01*
X24245Y106621D01*
X24409Y107302D01*
X24450Y108000D01*
X24409Y108698D01*
X24245Y109379D01*
X23977Y110026D01*
X23611Y110624D01*
X23156Y111156D01*
X22624Y111611D01*
X22026Y111977D01*
X21379Y112245D01*
X20698Y112409D01*
X20000Y112464D01*
X19993Y112463D01*
Y113537D01*
X20000Y113536D01*
X20698Y113591D01*
X21379Y113755D01*
X22026Y114023D01*
X22624Y114389D01*
X23156Y114844D01*
X23611Y115376D01*
X23977Y115974D01*
X24245Y116621D01*
X24409Y117302D01*
X24450Y118000D01*
X24409Y118698D01*
X24245Y119379D01*
X23977Y120026D01*
X23611Y120624D01*
X23156Y121156D01*
X22624Y121611D01*
X22026Y121977D01*
X21379Y122245D01*
X20698Y122409D01*
X20000Y122464D01*
X19993Y122463D01*
Y123537D01*
X20000Y123536D01*
X20698Y123591D01*
X21379Y123755D01*
X22026Y124023D01*
X22624Y124389D01*
X23156Y124844D01*
X23611Y125376D01*
X23977Y125974D01*
X24245Y126621D01*
X24409Y127302D01*
X24450Y128000D01*
X24409Y128698D01*
X24245Y129379D01*
X23977Y130026D01*
X23611Y130624D01*
X23156Y131156D01*
X22624Y131611D01*
X22026Y131977D01*
X21379Y132245D01*
X20698Y132409D01*
X20000Y132464D01*
X19993Y132463D01*
Y133537D01*
X20000Y133536D01*
X20698Y133591D01*
X21379Y133755D01*
X22026Y134023D01*
X22624Y134389D01*
X23156Y134844D01*
X23611Y135376D01*
X23977Y135974D01*
X24245Y136621D01*
X24409Y137302D01*
X24450Y138000D01*
X24409Y138698D01*
X24245Y139379D01*
X23977Y140026D01*
X23611Y140624D01*
X23156Y141156D01*
X22624Y141611D01*
X22026Y141977D01*
X21379Y142245D01*
X20698Y142409D01*
X20000Y142464D01*
X19993Y142463D01*
Y143537D01*
X20000Y143536D01*
X20698Y143591D01*
X21379Y143755D01*
X22026Y144023D01*
X22624Y144389D01*
X23156Y144844D01*
X23611Y145376D01*
X23977Y145974D01*
X24245Y146621D01*
X24409Y147302D01*
X24450Y148000D01*
X24409Y148698D01*
X24245Y149379D01*
X23977Y150026D01*
X23611Y150624D01*
X23156Y151156D01*
X22624Y151611D01*
X22026Y151977D01*
X21379Y152245D01*
X20698Y152409D01*
X20000Y152464D01*
X19993Y152463D01*
Y153537D01*
X20000Y153536D01*
X20698Y153591D01*
X21379Y153755D01*
X22026Y154023D01*
X22624Y154389D01*
X23156Y154844D01*
X23611Y155376D01*
X23977Y155974D01*
X24245Y156621D01*
X24409Y157302D01*
X24450Y158000D01*
X24409Y158698D01*
X24245Y159379D01*
X23977Y160026D01*
X23611Y160624D01*
X23156Y161156D01*
X22624Y161611D01*
X22026Y161977D01*
X21379Y162245D01*
X20698Y162409D01*
X20000Y162464D01*
X19993Y162463D01*
Y163537D01*
X20000Y163536D01*
X20698Y163591D01*
X21379Y163755D01*
X22026Y164023D01*
X22624Y164389D01*
X23156Y164844D01*
X23611Y165376D01*
X23977Y165974D01*
X24245Y166621D01*
X24409Y167302D01*
X24450Y168000D01*
X24409Y168698D01*
X24245Y169379D01*
X23977Y170026D01*
X23611Y170624D01*
X23156Y171156D01*
X22624Y171611D01*
X22026Y171977D01*
X21379Y172245D01*
X20698Y172409D01*
X20000Y172464D01*
X19993Y172463D01*
Y173537D01*
X20000Y173536D01*
X20698Y173591D01*
X21379Y173755D01*
X22026Y174023D01*
X22624Y174389D01*
X23156Y174844D01*
X23611Y175376D01*
X23977Y175974D01*
X24245Y176621D01*
X24409Y177302D01*
X24450Y178000D01*
X24409Y178698D01*
X24245Y179379D01*
X23977Y180026D01*
X23611Y180624D01*
X23156Y181156D01*
X22624Y181611D01*
X22026Y181977D01*
X21379Y182245D01*
X20698Y182409D01*
X20000Y182464D01*
X19993Y182463D01*
Y183537D01*
X20000Y183536D01*
X20698Y183591D01*
X21379Y183755D01*
X22026Y184023D01*
X22624Y184389D01*
X23156Y184844D01*
X23611Y185376D01*
X23977Y185974D01*
X24245Y186621D01*
X24409Y187302D01*
X24450Y188000D01*
X24409Y188698D01*
X24245Y189379D01*
X23977Y190026D01*
X23611Y190624D01*
X23156Y191156D01*
X22624Y191611D01*
X22026Y191977D01*
X21379Y192245D01*
X20698Y192409D01*
X20000Y192464D01*
X19993Y192463D01*
Y193537D01*
X20000Y193536D01*
X20698Y193591D01*
X21379Y193755D01*
X22026Y194023D01*
X22624Y194389D01*
X23156Y194844D01*
X23611Y195376D01*
X23977Y195974D01*
X24245Y196621D01*
X24409Y197302D01*
X24450Y198000D01*
X24409Y198698D01*
X24245Y199379D01*
X23977Y200026D01*
X23611Y200624D01*
X23156Y201156D01*
X22624Y201611D01*
X22026Y201977D01*
X21379Y202245D01*
X20698Y202409D01*
X20000Y202464D01*
X19993Y202463D01*
Y203537D01*
X20000Y203536D01*
X20698Y203591D01*
X21379Y203755D01*
X22026Y204023D01*
X22624Y204389D01*
X23156Y204844D01*
X23611Y205376D01*
X23977Y205974D01*
X24245Y206621D01*
X24409Y207302D01*
X24450Y208000D01*
X24409Y208698D01*
X24245Y209379D01*
X23977Y210026D01*
X23611Y210624D01*
X23156Y211156D01*
X22624Y211611D01*
X22026Y211977D01*
X21379Y212245D01*
X20698Y212409D01*
X20000Y212464D01*
X19993Y212463D01*
Y213537D01*
X20000Y213536D01*
X20698Y213591D01*
X21379Y213755D01*
X22026Y214023D01*
X22624Y214389D01*
X23156Y214844D01*
X23611Y215376D01*
X23977Y215974D01*
X24245Y216621D01*
X24409Y217302D01*
X24450Y218000D01*
X24409Y218698D01*
X24245Y219379D01*
X23977Y220026D01*
X23611Y220624D01*
X23156Y221156D01*
X22624Y221611D01*
X22026Y221977D01*
X21379Y222245D01*
X20698Y222409D01*
X20000Y222464D01*
X19993Y222463D01*
Y223537D01*
X20000Y223536D01*
X20698Y223591D01*
X21379Y223755D01*
X22026Y224023D01*
X22624Y224389D01*
X23156Y224844D01*
X23611Y225376D01*
X23977Y225974D01*
X24245Y226621D01*
X24409Y227302D01*
X24450Y228000D01*
X24409Y228698D01*
X24245Y229379D01*
X23977Y230026D01*
X23611Y230624D01*
X23156Y231156D01*
X22624Y231611D01*
X22026Y231977D01*
X21379Y232245D01*
X20698Y232409D01*
X20000Y232464D01*
X19993Y232463D01*
Y233537D01*
X20000Y233536D01*
X20698Y233591D01*
X21379Y233755D01*
X22026Y234023D01*
X22624Y234389D01*
X23156Y234844D01*
X23611Y235376D01*
X23977Y235974D01*
X24245Y236621D01*
X24409Y237302D01*
X24450Y238000D01*
X24409Y238698D01*
X24245Y239379D01*
X23977Y240026D01*
X23611Y240624D01*
X23156Y241156D01*
X22624Y241611D01*
X22026Y241977D01*
X21379Y242245D01*
X20698Y242409D01*
X20000Y242464D01*
X19993Y242463D01*
Y243537D01*
X20000Y243536D01*
X20698Y243591D01*
X21379Y243755D01*
X22026Y244023D01*
X22624Y244389D01*
X23156Y244844D01*
X23611Y245376D01*
X23977Y245974D01*
X24245Y246621D01*
X24409Y247302D01*
X24450Y248000D01*
X24409Y248698D01*
X24245Y249379D01*
X23977Y250026D01*
X23611Y250624D01*
X23156Y251156D01*
X22624Y251611D01*
X22026Y251977D01*
X21379Y252245D01*
X20698Y252409D01*
X20000Y252464D01*
X19993Y252463D01*
Y253537D01*
X20000Y253536D01*
X20698Y253591D01*
X21379Y253755D01*
X22026Y254023D01*
X22624Y254389D01*
X23156Y254844D01*
X23611Y255376D01*
X23977Y255974D01*
X24245Y256621D01*
X24409Y257302D01*
X24450Y258000D01*
X24409Y258698D01*
X24245Y259379D01*
X23977Y260026D01*
X23611Y260624D01*
X23156Y261156D01*
X22624Y261611D01*
X22026Y261977D01*
X21379Y262245D01*
X20698Y262409D01*
X20000Y262464D01*
X19993Y262463D01*
Y263537D01*
X20000Y263536D01*
X20698Y263591D01*
X21379Y263755D01*
X22026Y264023D01*
X22624Y264389D01*
X23156Y264844D01*
X23611Y265376D01*
X23977Y265974D01*
X24245Y266621D01*
X24409Y267302D01*
X24450Y268000D01*
X24409Y268698D01*
X24245Y269379D01*
X23977Y270026D01*
X23611Y270624D01*
X23156Y271156D01*
X22624Y271611D01*
X22026Y271977D01*
X21379Y272245D01*
X20698Y272409D01*
X20000Y272464D01*
X19993Y272463D01*
Y273537D01*
X20000Y273536D01*
X20698Y273591D01*
X21379Y273755D01*
X22026Y274023D01*
X22624Y274389D01*
X23156Y274844D01*
X23611Y275376D01*
X23977Y275974D01*
X24245Y276621D01*
X24409Y277302D01*
X24450Y278000D01*
X24409Y278698D01*
X24245Y279379D01*
X23977Y280026D01*
X23611Y280624D01*
X23156Y281156D01*
X22624Y281611D01*
X22026Y281977D01*
X21379Y282245D01*
X20698Y282409D01*
X20000Y282464D01*
X19993Y282463D01*
Y283537D01*
X20000Y283536D01*
X20698Y283591D01*
X21379Y283755D01*
X22026Y284023D01*
X22624Y284389D01*
X23156Y284844D01*
X23611Y285376D01*
X23977Y285974D01*
X24245Y286621D01*
X24409Y287302D01*
X24450Y288000D01*
X24409Y288698D01*
X24245Y289379D01*
X23977Y290026D01*
X23611Y290624D01*
X23156Y291156D01*
X22624Y291611D01*
X22026Y291977D01*
X21379Y292245D01*
X20698Y292409D01*
X20000Y292464D01*
X19993Y292463D01*
Y293537D01*
X20000Y293536D01*
X20698Y293591D01*
X21379Y293755D01*
X22026Y294023D01*
X22624Y294389D01*
X23156Y294844D01*
X23611Y295376D01*
X23977Y295974D01*
X24245Y296621D01*
X24409Y297302D01*
X24450Y298000D01*
X24409Y298698D01*
X24245Y299379D01*
X23977Y300026D01*
X23611Y300624D01*
X23156Y301156D01*
X22624Y301611D01*
X22026Y301977D01*
X21379Y302245D01*
X20698Y302409D01*
X20000Y302464D01*
X19993Y302463D01*
Y380000D01*
G37*
G36*
X10000D02*X19993D01*
Y302463D01*
X19302Y302409D01*
X18621Y302245D01*
X17974Y301977D01*
X17376Y301611D01*
X16844Y301156D01*
X16389Y300624D01*
X16023Y300026D01*
X15755Y299379D01*
X15591Y298698D01*
X15536Y298000D01*
X15591Y297302D01*
X15755Y296621D01*
X16023Y295974D01*
X16389Y295376D01*
X16844Y294844D01*
X17376Y294389D01*
X17974Y294023D01*
X18621Y293755D01*
X19302Y293591D01*
X19993Y293537D01*
Y292463D01*
X19302Y292409D01*
X18621Y292245D01*
X17974Y291977D01*
X17376Y291611D01*
X16844Y291156D01*
X16389Y290624D01*
X16023Y290026D01*
X15755Y289379D01*
X15591Y288698D01*
X15536Y288000D01*
X15591Y287302D01*
X15755Y286621D01*
X16023Y285974D01*
X16389Y285376D01*
X16844Y284844D01*
X17376Y284389D01*
X17974Y284023D01*
X18621Y283755D01*
X19302Y283591D01*
X19993Y283537D01*
Y282463D01*
X19302Y282409D01*
X18621Y282245D01*
X17974Y281977D01*
X17376Y281611D01*
X16844Y281156D01*
X16389Y280624D01*
X16023Y280026D01*
X15755Y279379D01*
X15591Y278698D01*
X15536Y278000D01*
X15591Y277302D01*
X15755Y276621D01*
X16023Y275974D01*
X16389Y275376D01*
X16844Y274844D01*
X17376Y274389D01*
X17974Y274023D01*
X18621Y273755D01*
X19302Y273591D01*
X19993Y273537D01*
Y272463D01*
X19302Y272409D01*
X18621Y272245D01*
X17974Y271977D01*
X17376Y271611D01*
X16844Y271156D01*
X16389Y270624D01*
X16023Y270026D01*
X15755Y269379D01*
X15591Y268698D01*
X15536Y268000D01*
X15591Y267302D01*
X15755Y266621D01*
X16023Y265974D01*
X16389Y265376D01*
X16844Y264844D01*
X17376Y264389D01*
X17974Y264023D01*
X18621Y263755D01*
X19302Y263591D01*
X19993Y263537D01*
Y262463D01*
X19302Y262409D01*
X18621Y262245D01*
X17974Y261977D01*
X17376Y261611D01*
X16844Y261156D01*
X16389Y260624D01*
X16023Y260026D01*
X15755Y259379D01*
X15591Y258698D01*
X15536Y258000D01*
X15591Y257302D01*
X15755Y256621D01*
X16023Y255974D01*
X16389Y255376D01*
X16844Y254844D01*
X17376Y254389D01*
X17974Y254023D01*
X18621Y253755D01*
X19302Y253591D01*
X19993Y253537D01*
Y252463D01*
X19302Y252409D01*
X18621Y252245D01*
X17974Y251977D01*
X17376Y251611D01*
X16844Y251156D01*
X16389Y250624D01*
X16023Y250026D01*
X15755Y249379D01*
X15591Y248698D01*
X15536Y248000D01*
X15591Y247302D01*
X15755Y246621D01*
X16023Y245974D01*
X16389Y245376D01*
X16844Y244844D01*
X17376Y244389D01*
X17974Y244023D01*
X18621Y243755D01*
X19302Y243591D01*
X19993Y243537D01*
Y242463D01*
X19302Y242409D01*
X18621Y242245D01*
X17974Y241977D01*
X17376Y241611D01*
X16844Y241156D01*
X16389Y240624D01*
X16023Y240026D01*
X15755Y239379D01*
X15591Y238698D01*
X15536Y238000D01*
X15591Y237302D01*
X15755Y236621D01*
X16023Y235974D01*
X16389Y235376D01*
X16844Y234844D01*
X17376Y234389D01*
X17974Y234023D01*
X18621Y233755D01*
X19302Y233591D01*
X19993Y233537D01*
Y232463D01*
X19302Y232409D01*
X18621Y232245D01*
X17974Y231977D01*
X17376Y231611D01*
X16844Y231156D01*
X16389Y230624D01*
X16023Y230026D01*
X15755Y229379D01*
X15591Y228698D01*
X15536Y228000D01*
X15591Y227302D01*
X15755Y226621D01*
X16023Y225974D01*
X16389Y225376D01*
X16844Y224844D01*
X17376Y224389D01*
X17974Y224023D01*
X18621Y223755D01*
X19302Y223591D01*
X19993Y223537D01*
Y222463D01*
X19302Y222409D01*
X18621Y222245D01*
X17974Y221977D01*
X17376Y221611D01*
X16844Y221156D01*
X16389Y220624D01*
X16023Y220026D01*
X15755Y219379D01*
X15591Y218698D01*
X15536Y218000D01*
X15591Y217302D01*
X15755Y216621D01*
X16023Y215974D01*
X16389Y215376D01*
X16844Y214844D01*
X17376Y214389D01*
X17974Y214023D01*
X18621Y213755D01*
X19302Y213591D01*
X19993Y213537D01*
Y212463D01*
X19302Y212409D01*
X18621Y212245D01*
X17974Y211977D01*
X17376Y211611D01*
X16844Y211156D01*
X16389Y210624D01*
X16023Y210026D01*
X15755Y209379D01*
X15591Y208698D01*
X15536Y208000D01*
X15591Y207302D01*
X15755Y206621D01*
X16023Y205974D01*
X16389Y205376D01*
X16844Y204844D01*
X17376Y204389D01*
X17974Y204023D01*
X18621Y203755D01*
X19302Y203591D01*
X19993Y203537D01*
Y202463D01*
X19302Y202409D01*
X18621Y202245D01*
X17974Y201977D01*
X17376Y201611D01*
X16844Y201156D01*
X16389Y200624D01*
X16023Y200026D01*
X15755Y199379D01*
X15591Y198698D01*
X15536Y198000D01*
X15591Y197302D01*
X15755Y196621D01*
X16023Y195974D01*
X16389Y195376D01*
X16844Y194844D01*
X17376Y194389D01*
X17974Y194023D01*
X18621Y193755D01*
X19302Y193591D01*
X19993Y193537D01*
Y192463D01*
X19302Y192409D01*
X18621Y192245D01*
X17974Y191977D01*
X17376Y191611D01*
X16844Y191156D01*
X16389Y190624D01*
X16023Y190026D01*
X15755Y189379D01*
X15591Y188698D01*
X15536Y188000D01*
X15591Y187302D01*
X15755Y186621D01*
X16023Y185974D01*
X16389Y185376D01*
X16844Y184844D01*
X17376Y184389D01*
X17974Y184023D01*
X18621Y183755D01*
X19302Y183591D01*
X19993Y183537D01*
Y182463D01*
X19302Y182409D01*
X18621Y182245D01*
X17974Y181977D01*
X17376Y181611D01*
X16844Y181156D01*
X16389Y180624D01*
X16023Y180026D01*
X15755Y179379D01*
X15591Y178698D01*
X15536Y178000D01*
X15591Y177302D01*
X15755Y176621D01*
X16023Y175974D01*
X16389Y175376D01*
X16844Y174844D01*
X17376Y174389D01*
X17974Y174023D01*
X18621Y173755D01*
X19302Y173591D01*
X19993Y173537D01*
Y172463D01*
X19302Y172409D01*
X18621Y172245D01*
X17974Y171977D01*
X17376Y171611D01*
X16844Y171156D01*
X16389Y170624D01*
X16023Y170026D01*
X15755Y169379D01*
X15591Y168698D01*
X15536Y168000D01*
X15591Y167302D01*
X15755Y166621D01*
X16023Y165974D01*
X16389Y165376D01*
X16844Y164844D01*
X17376Y164389D01*
X17974Y164023D01*
X18621Y163755D01*
X19302Y163591D01*
X19993Y163537D01*
Y162463D01*
X19302Y162409D01*
X18621Y162245D01*
X17974Y161977D01*
X17376Y161611D01*
X16844Y161156D01*
X16389Y160624D01*
X16023Y160026D01*
X15755Y159379D01*
X15591Y158698D01*
X15536Y158000D01*
X15591Y157302D01*
X15755Y156621D01*
X16023Y155974D01*
X16389Y155376D01*
X16844Y154844D01*
X17376Y154389D01*
X17974Y154023D01*
X18621Y153755D01*
X19302Y153591D01*
X19993Y153537D01*
Y152463D01*
X19302Y152409D01*
X18621Y152245D01*
X17974Y151977D01*
X17376Y151611D01*
X16844Y151156D01*
X16389Y150624D01*
X16023Y150026D01*
X15755Y149379D01*
X15591Y148698D01*
X15536Y148000D01*
X15591Y147302D01*
X15755Y146621D01*
X16023Y145974D01*
X16389Y145376D01*
X16844Y144844D01*
X17376Y144389D01*
X17974Y144023D01*
X18621Y143755D01*
X19302Y143591D01*
X19993Y143537D01*
Y142463D01*
X19302Y142409D01*
X18621Y142245D01*
X17974Y141977D01*
X17376Y141611D01*
X16844Y141156D01*
X16389Y140624D01*
X16023Y140026D01*
X15755Y139379D01*
X15591Y138698D01*
X15536Y138000D01*
X15591Y137302D01*
X15755Y136621D01*
X16023Y135974D01*
X16389Y135376D01*
X16844Y134844D01*
X17376Y134389D01*
X17974Y134023D01*
X18621Y133755D01*
X19302Y133591D01*
X19993Y133537D01*
Y132463D01*
X19302Y132409D01*
X18621Y132245D01*
X17974Y131977D01*
X17376Y131611D01*
X16844Y131156D01*
X16389Y130624D01*
X16023Y130026D01*
X15755Y129379D01*
X15591Y128698D01*
X15536Y128000D01*
X15591Y127302D01*
X15755Y126621D01*
X16023Y125974D01*
X16389Y125376D01*
X16844Y124844D01*
X17376Y124389D01*
X17974Y124023D01*
X18621Y123755D01*
X19302Y123591D01*
X19993Y123537D01*
Y122463D01*
X19302Y122409D01*
X18621Y122245D01*
X17974Y121977D01*
X17376Y121611D01*
X16844Y121156D01*
X16389Y120624D01*
X16023Y120026D01*
X15755Y119379D01*
X15591Y118698D01*
X15536Y118000D01*
X15591Y117302D01*
X15755Y116621D01*
X16023Y115974D01*
X16389Y115376D01*
X16844Y114844D01*
X17376Y114389D01*
X17974Y114023D01*
X18621Y113755D01*
X19302Y113591D01*
X19993Y113537D01*
Y112463D01*
X19302Y112409D01*
X18621Y112245D01*
X17974Y111977D01*
X17376Y111611D01*
X16844Y111156D01*
X16389Y110624D01*
X16023Y110026D01*
X15755Y109379D01*
X15591Y108698D01*
X15536Y108000D01*
X15591Y107302D01*
X15755Y106621D01*
X16023Y105974D01*
X16389Y105376D01*
X16844Y104844D01*
X17376Y104389D01*
X17974Y104023D01*
X18621Y103755D01*
X19302Y103591D01*
X19993Y103537D01*
Y102463D01*
X19302Y102409D01*
X18621Y102245D01*
X17974Y101977D01*
X17376Y101611D01*
X16844Y101156D01*
X16389Y100624D01*
X16023Y100026D01*
X15755Y99379D01*
X15591Y98698D01*
X15536Y98000D01*
X15591Y97302D01*
X15755Y96621D01*
X16023Y95974D01*
X16389Y95376D01*
X16844Y94844D01*
X17376Y94389D01*
X17974Y94023D01*
X18621Y93755D01*
X19302Y93591D01*
X19993Y93537D01*
Y92463D01*
X19302Y92409D01*
X18621Y92245D01*
X17974Y91977D01*
X17376Y91611D01*
X16844Y91156D01*
X16389Y90624D01*
X16023Y90026D01*
X15755Y89379D01*
X15591Y88698D01*
X15536Y88000D01*
X15591Y87302D01*
X15755Y86621D01*
X16023Y85974D01*
X16389Y85376D01*
X16844Y84844D01*
X17376Y84389D01*
X17974Y84023D01*
X18621Y83755D01*
X19302Y83591D01*
X19993Y83537D01*
Y83000D01*
X10000D01*
Y380000D01*
G37*
G54D28*X242000Y119000D02*X265000D01*
G54D30*X301504Y336811D03*
X283000Y348622D03*
Y325000D03*
G54D31*X210000Y298000D03*
G54D32*X202500Y318000D03*
G54D31*X220000Y298000D03*
Y288000D03*
Y278000D03*
Y268000D03*
Y258000D03*
Y248000D03*
Y238000D03*
G54D33*X150500Y235000D03*
X94500D03*
G54D29*G36*
X137750Y261750D02*Y256250D01*
X143250D01*
Y261750D01*
X137750D01*
G37*
G54D34*X140500Y299000D03*
G54D29*G36*
X81750Y261750D02*Y256250D01*
X87250D01*
Y261750D01*
X81750D01*
G37*
G54D34*X84500Y299000D03*
G54D31*X30000Y298000D03*
Y268000D03*
Y278000D03*
Y288000D03*
X20000Y298000D03*
Y288000D03*
Y248000D03*
Y258000D03*
Y268000D03*
Y278000D03*
X30000Y248000D03*
Y258000D03*
G54D32*X37500Y318000D03*
G54D31*X20000Y178000D03*
X30000D03*
Y188000D03*
X20000D03*
Y198000D03*
Y208000D03*
Y218000D03*
Y228000D03*
Y238000D03*
X30000Y198000D03*
Y208000D03*
Y218000D03*
Y228000D03*
Y238000D03*
X210000Y178000D03*
X220000D03*
X210000Y188000D03*
X220000D03*
X210000Y198000D03*
X220000D03*
X210000Y208000D03*
X220000Y218000D03*
Y228000D03*
Y208000D03*
X210000Y218000D03*
Y228000D03*
Y238000D03*
Y248000D03*
Y258000D03*
Y268000D03*
Y278000D03*
Y288000D03*
G54D29*G36*
X137500Y171000D02*Y165000D01*
X143500D01*
Y171000D01*
X137500D01*
G37*
G36*
X81500D02*Y165000D01*
X87500D01*
Y171000D01*
X81500D01*
G37*
G54D35*X94500Y168000D03*
X104500D03*
X150500D03*
G54D29*G36*
X147750Y153750D02*Y148250D01*
X153250D01*
Y153750D01*
X147750D01*
G37*
G36*
X91750D02*Y148250D01*
X97250D01*
Y153750D01*
X91750D01*
G37*
G54D34*X150500Y111000D03*
X94500D03*
G54D35*X160500Y168000D03*
G54D31*X30000Y78000D03*
X20000D03*
X30000Y88000D03*
G54D32*X25000Y58000D03*
G54D31*X20000Y118000D03*
Y128000D03*
Y138000D03*
Y148000D03*
Y158000D03*
Y168000D03*
Y88000D03*
Y98000D03*
Y108000D03*
X30000Y98000D03*
Y108000D03*
Y118000D03*
Y128000D03*
Y138000D03*
Y148000D03*
Y158000D03*
Y168000D03*
G54D35*X270000Y23000D03*
X260000D03*
X250000D03*
X280000D03*
X310000D03*
X300000D03*
X290000D03*
X240000D03*
X242000Y139000D03*
G54D31*X210000Y128000D03*
Y138000D03*
Y148000D03*
Y158000D03*
Y168000D03*
X220000D03*
Y158000D03*
Y148000D03*
G54D35*X242000Y119000D03*
Y109000D03*
Y99000D03*
Y89000D03*
Y79000D03*
Y69000D03*
G54D31*X220000Y78000D03*
Y88000D03*
X210000D03*
X220000Y108000D03*
G54D32*X215000Y58000D03*
G54D31*X210000Y78000D03*
G54D35*X242000Y129000D03*
G54D31*X210000Y98000D03*
Y108000D03*
Y118000D03*
X220000Y138000D03*
Y128000D03*
Y118000D03*
Y98000D03*
G54D35*X265000Y119000D03*
G54D36*X278000Y183000D03*
G54D35*X244000Y215000D03*
G54D36*X248000Y173000D03*
X243000Y155000D03*
X253000Y220000D03*
X260000Y348000D03*
X254000Y338000D03*
X238000Y359000D03*
X230000Y354000D03*
G54D35*X315000Y210000D03*
X291000Y317000D03*
G54D36*X298000Y220000D03*
X260000Y210000D03*
X293000Y225000D03*
X306000Y215000D03*
X222000Y374000D03*
X254000Y369000D03*
G54D35*X169000Y159000D03*
X113000D03*
X172000Y118000D03*
X59000Y110000D03*
X201000Y88000D03*
G54D37*G54D38*G54D37*G54D38*G54D37*G54D38*G54D37*G54D35*G54D39*G54D40*G54D39*G54D41*G54D42*G54D39*G54D40*G54D39*G54D37*G54D42*G54D37*G54D39*G54D40*G54D39*G54D37*G54D39*G54D37*G54D39*G54D40*G54D39*G54D37*G54D39*M02*
