G04 start of page 10 for group -3984 idx -3984 *
G04 Title: (unknown), fab *
G04 Creator: pcb 4.0.2 *
G04 CreationDate: Sun Aug  9 18:55:02 2020 UTC *
G04 For: kevin *
G04 Format: Gerber/RS-274X *
G04 PCB-Dimensions (mil): 3300.00 3550.00 *
G04 PCB-Coordinate-Origin: lower left *
%MOIN*%
%FSLAX25Y25*%
%LNFAB*%
%ADD77C,0.0100*%
%ADD76C,0.0075*%
%ADD75C,0.0060*%
%ADD74C,0.0080*%
G54D74*X215600Y233400D02*X220400Y228600D01*
X215600D02*X220400Y233400D01*
X216400Y232600D02*X219600D01*
X216400D02*Y229400D01*
X219600D01*
Y232600D02*Y229400D01*
X159600Y233400D02*X164400Y228600D01*
X159600D02*X164400Y233400D01*
X160400Y232600D02*X163600D01*
X160400D02*Y229400D01*
X163600D01*
Y232600D02*Y229400D01*
X12600Y368650D02*X17400Y363850D01*
X12600D02*X17400Y368650D01*
X13400Y367850D02*X16600D01*
X13400D02*Y364650D01*
X16600D01*
Y367850D02*Y364650D01*
G54D75*X135000Y368500D02*X136500Y365500D01*
X138000Y368500D01*
X136500Y365500D02*Y362500D01*
X139800Y365800D02*X142050D01*
X139800Y362500D02*X142800D01*
X139800Y368500D02*Y362500D01*
Y368500D02*X142800D01*
X147600D02*X148350Y367750D01*
X145350Y368500D02*X147600D01*
X144600Y367750D02*X145350Y368500D01*
X144600Y367750D02*Y366250D01*
X145350Y365500D01*
X147600D01*
X148350Y364750D01*
Y363250D01*
X147600Y362500D02*X148350Y363250D01*
X145350Y362500D02*X147600D01*
X144600Y363250D02*X145350Y362500D01*
X98000Y367750D02*X98750Y368500D01*
X101000D01*
X101750Y367750D01*
Y366250D01*
X98000Y362500D02*X101750Y366250D01*
X98000Y362500D02*X101750D01*
X45000Y363250D02*X45750Y362500D01*
X45000Y367750D02*Y363250D01*
Y367750D02*X45750Y368500D01*
X47250D01*
X48000Y367750D01*
Y363250D01*
X47250Y362500D02*X48000Y363250D01*
X45750Y362500D02*X47250D01*
X45000Y364000D02*X48000Y367000D01*
X49800Y362500D02*X50550D01*
X52350Y367300D02*X53550Y368500D01*
Y362500D01*
X52350D02*X54600D01*
X56400Y367750D02*X57150Y368500D01*
X58650D01*
X59400Y367750D01*
X58650Y362500D02*X59400Y363250D01*
X57150Y362500D02*X58650D01*
X56400Y363250D02*X57150Y362500D01*
Y365800D02*X58650D01*
X59400Y367750D02*Y366550D01*
Y365050D02*Y363250D01*
Y365050D02*X58650Y365800D01*
X59400Y366550D02*X58650Y365800D01*
X61200Y363250D02*X61950Y362500D01*
X61200Y367750D02*Y363250D01*
Y367750D02*X61950Y368500D01*
X63450D01*
X64200Y367750D01*
Y363250D01*
X63450Y362500D02*X64200Y363250D01*
X61950Y362500D02*X63450D01*
X61200Y364000D02*X64200Y367000D01*
X118000Y61200D02*Y54800D01*
X114800Y58000D02*X121200D01*
X116400Y59600D02*X119600D01*
X116400D02*Y56400D01*
X119600D01*
Y59600D02*Y56400D01*
X308000Y61200D02*Y54800D01*
X304800Y58000D02*X311200D01*
X306400Y59600D02*X309600D01*
X306400D02*Y56400D01*
X309600D01*
Y59600D02*Y56400D01*
X295500Y321200D02*Y314800D01*
X292300Y318000D02*X298700D01*
X293900Y319600D02*X297100D01*
X293900D02*Y316400D01*
X297100D01*
Y319600D02*Y316400D01*
X130500Y321200D02*Y314800D01*
X127300Y318000D02*X133700D01*
X128900Y319600D02*X132100D01*
X128900D02*Y316400D01*
X132100D01*
Y319600D02*Y316400D01*
X15000Y384450D02*Y378050D01*
X11800Y381250D02*X18200D01*
X13400Y382850D02*X16600D01*
X13400D02*Y379650D01*
X16600D01*
Y382850D02*Y379650D01*
X135000Y383500D02*X136500Y380500D01*
X138000Y383500D01*
X136500Y380500D02*Y377500D01*
X139800Y380800D02*X142050D01*
X139800Y377500D02*X142800D01*
X139800Y383500D02*Y377500D01*
Y383500D02*X142800D01*
X147600D02*X148350Y382750D01*
X145350Y383500D02*X147600D01*
X144600Y382750D02*X145350Y383500D01*
X144600Y382750D02*Y381250D01*
X145350Y380500D01*
X147600D01*
X148350Y379750D01*
Y378250D01*
X147600Y377500D02*X148350Y378250D01*
X145350Y377500D02*X147600D01*
X144600Y378250D02*X145350Y377500D01*
X98000Y379750D02*X101000Y383500D01*
X98000Y379750D02*X101750D01*
X101000Y383500D02*Y377500D01*
X45000Y378250D02*X45750Y377500D01*
X45000Y382750D02*Y378250D01*
Y382750D02*X45750Y383500D01*
X47250D01*
X48000Y382750D01*
Y378250D01*
X47250Y377500D02*X48000Y378250D01*
X45750Y377500D02*X47250D01*
X45000Y379000D02*X48000Y382000D01*
X49800Y377500D02*X50550D01*
X52350Y382300D02*X53550Y383500D01*
Y377500D01*
X52350D02*X54600D01*
X56400Y382750D02*X57150Y383500D01*
X59400D01*
X60150Y382750D01*
Y381250D01*
X56400Y377500D02*X60150Y381250D01*
X56400Y377500D02*X60150D01*
X61950Y383500D02*X64950D01*
X61950D02*Y380500D01*
X62700Y381250D01*
X64200D01*
X64950Y380500D01*
Y378250D01*
X64200Y377500D02*X64950Y378250D01*
X62700Y377500D02*X64200D01*
X61950Y378250D02*X62700Y377500D01*
X208000Y164000D02*Y160800D01*
Y164000D02*X210773Y165600D01*
X208000Y164000D02*X205227Y165600D01*
X206400Y164000D02*G75*G03X209600Y164000I1600J0D01*G01*
G75*G03X206400Y164000I-1600J0D01*G01*
X218000D02*Y160800D01*
Y164000D02*X220773Y165600D01*
X218000Y164000D02*X215227Y165600D01*
X216400Y164000D02*G75*G03X219600Y164000I1600J0D01*G01*
G75*G03X216400Y164000I-1600J0D01*G01*
X228000D02*Y160800D01*
Y164000D02*X230773Y165600D01*
X228000Y164000D02*X225227Y165600D01*
X226400Y164000D02*G75*G03X229600Y164000I1600J0D01*G01*
G75*G03X226400Y164000I-1600J0D01*G01*
X152000D02*Y160800D01*
Y164000D02*X154773Y165600D01*
X152000Y164000D02*X149227Y165600D01*
X150400Y164000D02*G75*G03X153600Y164000I1600J0D01*G01*
G75*G03X150400Y164000I-1600J0D01*G01*
X162000D02*Y160800D01*
Y164000D02*X164773Y165600D01*
X162000Y164000D02*X159227Y165600D01*
X160400Y164000D02*G75*G03X163600Y164000I1600J0D01*G01*
G75*G03X160400Y164000I-1600J0D01*G01*
X172000D02*Y160800D01*
Y164000D02*X174773Y165600D01*
X172000Y164000D02*X169227Y165600D01*
X170400Y164000D02*G75*G03X173600Y164000I1600J0D01*G01*
G75*G03X170400Y164000I-1600J0D01*G01*
X15000Y396250D02*Y393050D01*
Y396250D02*X17773Y397850D01*
X15000Y396250D02*X12227Y397850D01*
X13400Y396250D02*G75*G03X16600Y396250I1600J0D01*G01*
G75*G03X13400Y396250I-1600J0D01*G01*
X135000Y398500D02*X136500Y395500D01*
X138000Y398500D01*
X136500Y395500D02*Y392500D01*
X139800Y395800D02*X142050D01*
X139800Y392500D02*X142800D01*
X139800Y398500D02*Y392500D01*
Y398500D02*X142800D01*
X147600D02*X148350Y397750D01*
X145350Y398500D02*X147600D01*
X144600Y397750D02*X145350Y398500D01*
X144600Y397750D02*Y396250D01*
X145350Y395500D01*
X147600D01*
X148350Y394750D01*
Y393250D01*
X147600Y392500D02*X148350Y393250D01*
X145350Y392500D02*X147600D01*
X144600Y393250D02*X145350Y392500D01*
X100250Y398500D02*X101000Y397750D01*
X98750Y398500D02*X100250D01*
X98000Y397750D02*X98750Y398500D01*
X98000Y397750D02*Y393250D01*
X98750Y392500D01*
X100250Y395800D02*X101000Y395050D01*
X98000Y395800D02*X100250D01*
X98750Y392500D02*X100250D01*
X101000Y393250D01*
Y395050D02*Y393250D01*
X45000D02*X45750Y392500D01*
X45000Y397750D02*Y393250D01*
Y397750D02*X45750Y398500D01*
X47250D01*
X48000Y397750D01*
Y393250D01*
X47250Y392500D02*X48000Y393250D01*
X45750Y392500D02*X47250D01*
X45000Y394000D02*X48000Y397000D01*
X49800Y392500D02*X50550D01*
X52350Y393250D02*X53100Y392500D01*
X52350Y397750D02*Y393250D01*
Y397750D02*X53100Y398500D01*
X54600D01*
X55350Y397750D01*
Y393250D01*
X54600Y392500D02*X55350Y393250D01*
X53100Y392500D02*X54600D01*
X52350Y394000D02*X55350Y397000D01*
X59400Y398500D02*X60150Y397750D01*
X57900Y398500D02*X59400D01*
X57150Y397750D02*X57900Y398500D01*
X57150Y397750D02*Y393250D01*
X57900Y392500D01*
X59400Y395800D02*X60150Y395050D01*
X57150Y395800D02*X59400D01*
X57900Y392500D02*X59400D01*
X60150Y393250D01*
Y395050D02*Y393250D01*
X61950D02*X62700Y392500D01*
X61950Y397750D02*Y393250D01*
Y397750D02*X62700Y398500D01*
X64200D01*
X64950Y397750D01*
Y393250D01*
X64200Y392500D02*X64950Y393250D01*
X62700Y392500D02*X64200D01*
X61950Y394000D02*X64950Y397000D01*
X121400Y79600D02*X124600D01*
X121400D02*Y76400D01*
X124600D01*
Y79600D02*Y76400D01*
X111400Y79600D02*X114600D01*
X111400D02*Y76400D01*
X114600D01*
Y79600D02*Y76400D01*
X311400Y79600D02*X314600D01*
X311400D02*Y76400D01*
X314600D01*
Y79600D02*Y76400D01*
X301400Y299600D02*X304600D01*
X301400D02*Y296400D01*
X304600D01*
Y299600D02*Y296400D01*
X311400Y299600D02*X314600D01*
X311400D02*Y296400D01*
X314600D01*
Y299600D02*Y296400D01*
X121400Y299600D02*X124600D01*
X121400D02*Y296400D01*
X124600D01*
Y299600D02*Y296400D01*
X111400Y299600D02*X114600D01*
X111400D02*Y296400D01*
X114600D01*
Y299600D02*Y296400D01*
X111400Y89600D02*X114600D01*
X111400D02*Y86400D01*
X114600D01*
Y89600D02*Y86400D01*
X111400Y99600D02*X114600D01*
X111400D02*Y96400D01*
X114600D01*
Y99600D02*Y96400D01*
X111400Y109600D02*X114600D01*
X111400D02*Y106400D01*
X114600D01*
Y109600D02*Y106400D01*
X111400Y119600D02*X114600D01*
X111400D02*Y116400D01*
X114600D01*
Y119600D02*Y116400D01*
X111400Y129600D02*X114600D01*
X111400D02*Y126400D01*
X114600D01*
Y129600D02*Y126400D01*
X111400Y139600D02*X114600D01*
X111400D02*Y136400D01*
X114600D01*
Y139600D02*Y136400D01*
X111400Y149600D02*X114600D01*
X111400D02*Y146400D01*
X114600D01*
Y149600D02*Y146400D01*
X111400Y159600D02*X114600D01*
X111400D02*Y156400D01*
X114600D01*
Y159600D02*Y156400D01*
X111400Y169600D02*X114600D01*
X111400D02*Y166400D01*
X114600D01*
Y169600D02*Y166400D01*
X111400Y179600D02*X114600D01*
X111400D02*Y176400D01*
X114600D01*
Y179600D02*Y176400D01*
X111400Y189600D02*X114600D01*
X111400D02*Y186400D01*
X114600D01*
Y189600D02*Y186400D01*
X111400Y199600D02*X114600D01*
X111400D02*Y196400D01*
X114600D01*
Y199600D02*Y196400D01*
X111400Y209600D02*X114600D01*
X111400D02*Y206400D01*
X114600D01*
Y209600D02*Y206400D01*
X111400Y219600D02*X114600D01*
X111400D02*Y216400D01*
X114600D01*
Y219600D02*Y216400D01*
X111400Y229600D02*X114600D01*
X111400D02*Y226400D01*
X114600D01*
Y229600D02*Y226400D01*
X111400Y239600D02*X114600D01*
X111400D02*Y236400D01*
X114600D01*
Y239600D02*Y236400D01*
X111400Y249600D02*X114600D01*
X111400D02*Y246400D01*
X114600D01*
Y249600D02*Y246400D01*
X111400Y259600D02*X114600D01*
X111400D02*Y256400D01*
X114600D01*
Y259600D02*Y256400D01*
X111400Y269600D02*X114600D01*
X111400D02*Y266400D01*
X114600D01*
Y269600D02*Y266400D01*
X111400Y279600D02*X114600D01*
X111400D02*Y276400D01*
X114600D01*
Y279600D02*Y276400D01*
X111400Y289600D02*X114600D01*
X111400D02*Y286400D01*
X114600D01*
Y289600D02*Y286400D01*
X121400Y89600D02*X124600D01*
X121400D02*Y86400D01*
X124600D01*
Y89600D02*Y86400D01*
X121400Y99600D02*X124600D01*
X121400D02*Y96400D01*
X124600D01*
Y99600D02*Y96400D01*
X121400Y109600D02*X124600D01*
X121400D02*Y106400D01*
X124600D01*
Y109600D02*Y106400D01*
X121400Y119600D02*X124600D01*
X121400D02*Y116400D01*
X124600D01*
Y119600D02*Y116400D01*
X121400Y129600D02*X124600D01*
X121400D02*Y126400D01*
X124600D01*
Y129600D02*Y126400D01*
X121400Y139600D02*X124600D01*
X121400D02*Y136400D01*
X124600D01*
Y139600D02*Y136400D01*
X121400Y149600D02*X124600D01*
X121400D02*Y146400D01*
X124600D01*
Y149600D02*Y146400D01*
X121400Y159600D02*X124600D01*
X121400D02*Y156400D01*
X124600D01*
Y159600D02*Y156400D01*
X121400Y169600D02*X124600D01*
X121400D02*Y166400D01*
X124600D01*
Y169600D02*Y166400D01*
X121400Y179600D02*X124600D01*
X121400D02*Y176400D01*
X124600D01*
Y179600D02*Y176400D01*
X121400Y189600D02*X124600D01*
X121400D02*Y186400D01*
X124600D01*
Y189600D02*Y186400D01*
X121400Y199600D02*X124600D01*
X121400D02*Y196400D01*
X124600D01*
Y199600D02*Y196400D01*
X121400Y209600D02*X124600D01*
X121400D02*Y206400D01*
X124600D01*
Y209600D02*Y206400D01*
X121400Y219600D02*X124600D01*
X121400D02*Y216400D01*
X124600D01*
Y219600D02*Y216400D01*
X121400Y229600D02*X124600D01*
X121400D02*Y226400D01*
X124600D01*
Y229600D02*Y226400D01*
X121400Y239600D02*X124600D01*
X121400D02*Y236400D01*
X124600D01*
Y239600D02*Y236400D01*
X121400Y249600D02*X124600D01*
X121400D02*Y246400D01*
X124600D01*
Y249600D02*Y246400D01*
X121400Y259600D02*X124600D01*
X121400D02*Y256400D01*
X124600D01*
Y259600D02*Y256400D01*
X121400Y269600D02*X124600D01*
X121400D02*Y266400D01*
X124600D01*
Y269600D02*Y266400D01*
X121400Y279600D02*X124600D01*
X121400D02*Y276400D01*
X124600D01*
Y279600D02*Y276400D01*
X121400Y289600D02*X124600D01*
X121400D02*Y286400D01*
X124600D01*
Y289600D02*Y286400D01*
X301400Y89600D02*X304600D01*
X301400D02*Y86400D01*
X304600D01*
Y89600D02*Y86400D01*
X301400Y99600D02*X304600D01*
X301400D02*Y96400D01*
X304600D01*
Y99600D02*Y96400D01*
X301400Y109600D02*X304600D01*
X301400D02*Y106400D01*
X304600D01*
Y109600D02*Y106400D01*
X301400Y119600D02*X304600D01*
X301400D02*Y116400D01*
X304600D01*
Y119600D02*Y116400D01*
X301400Y129600D02*X304600D01*
X301400D02*Y126400D01*
X304600D01*
Y129600D02*Y126400D01*
X301400Y139600D02*X304600D01*
X301400D02*Y136400D01*
X304600D01*
Y139600D02*Y136400D01*
X301400Y149600D02*X304600D01*
X301400D02*Y146400D01*
X304600D01*
Y149600D02*Y146400D01*
X301400Y159600D02*X304600D01*
X301400D02*Y156400D01*
X304600D01*
Y159600D02*Y156400D01*
X301400Y169600D02*X304600D01*
X301400D02*Y166400D01*
X304600D01*
Y169600D02*Y166400D01*
X301400Y179600D02*X304600D01*
X301400D02*Y176400D01*
X304600D01*
Y179600D02*Y176400D01*
X301400Y189600D02*X304600D01*
X301400D02*Y186400D01*
X304600D01*
Y189600D02*Y186400D01*
X301400Y199600D02*X304600D01*
X301400D02*Y196400D01*
X304600D01*
Y199600D02*Y196400D01*
X301400Y209600D02*X304600D01*
X301400D02*Y206400D01*
X304600D01*
Y209600D02*Y206400D01*
X301400Y219600D02*X304600D01*
X301400D02*Y216400D01*
X304600D01*
Y219600D02*Y216400D01*
X301400Y229600D02*X304600D01*
X301400D02*Y226400D01*
X304600D01*
Y229600D02*Y226400D01*
X301400Y239600D02*X304600D01*
X301400D02*Y236400D01*
X304600D01*
Y239600D02*Y236400D01*
X301400Y249600D02*X304600D01*
X301400D02*Y246400D01*
X304600D01*
Y249600D02*Y246400D01*
X301400Y259600D02*X304600D01*
X301400D02*Y256400D01*
X304600D01*
Y259600D02*Y256400D01*
X301400Y269600D02*X304600D01*
X301400D02*Y266400D01*
X304600D01*
Y269600D02*Y266400D01*
X301400Y279600D02*X304600D01*
X301400D02*Y276400D01*
X304600D01*
Y279600D02*Y276400D01*
X301400Y289600D02*X304600D01*
X301400D02*Y286400D01*
X304600D01*
Y289600D02*Y286400D01*
X311400Y289600D02*X314600D01*
X311400D02*Y286400D01*
X314600D01*
Y289600D02*Y286400D01*
X311400Y279600D02*X314600D01*
X311400D02*Y276400D01*
X314600D01*
Y279600D02*Y276400D01*
X311400Y269600D02*X314600D01*
X311400D02*Y266400D01*
X314600D01*
Y269600D02*Y266400D01*
X311400Y259600D02*X314600D01*
X311400D02*Y256400D01*
X314600D01*
Y259600D02*Y256400D01*
X311400Y249600D02*X314600D01*
X311400D02*Y246400D01*
X314600D01*
Y249600D02*Y246400D01*
X311400Y239600D02*X314600D01*
X311400D02*Y236400D01*
X314600D01*
Y239600D02*Y236400D01*
X311400Y219600D02*X314600D01*
X311400D02*Y216400D01*
X314600D01*
Y219600D02*Y216400D01*
X311400Y229600D02*X314600D01*
X311400D02*Y226400D01*
X314600D01*
Y229600D02*Y226400D01*
X311400Y209600D02*X314600D01*
X311400D02*Y206400D01*
X314600D01*
Y209600D02*Y206400D01*
X311400Y199600D02*X314600D01*
X311400D02*Y196400D01*
X314600D01*
Y199600D02*Y196400D01*
X311400Y189600D02*X314600D01*
X311400D02*Y186400D01*
X314600D01*
Y189600D02*Y186400D01*
X311400Y179600D02*X314600D01*
X311400D02*Y176400D01*
X314600D01*
Y179600D02*Y176400D01*
X311400Y169600D02*X314600D01*
X311400D02*Y166400D01*
X314600D01*
Y169600D02*Y166400D01*
X311400Y159600D02*X314600D01*
X311400D02*Y156400D01*
X314600D01*
Y159600D02*Y156400D01*
X311400Y149600D02*X314600D01*
X311400D02*Y146400D01*
X314600D01*
Y149600D02*Y146400D01*
X311400Y139600D02*X314600D01*
X311400D02*Y136400D01*
X314600D01*
Y139600D02*Y136400D01*
X311400Y129600D02*X314600D01*
X311400D02*Y126400D01*
X314600D01*
Y129600D02*Y126400D01*
X311400Y119600D02*X314600D01*
X311400D02*Y116400D01*
X314600D01*
Y119600D02*Y116400D01*
X311400Y99600D02*X314600D01*
X311400D02*Y96400D01*
X314600D01*
Y99600D02*Y96400D01*
X311400Y109600D02*X314600D01*
X311400D02*Y106400D01*
X314600D01*
Y109600D02*Y106400D01*
X311400Y89600D02*X314600D01*
X311400D02*Y86400D01*
X314600D01*
Y89600D02*Y86400D01*
X301400Y79600D02*X304600D01*
X301400D02*Y76400D01*
X304600D01*
Y79600D02*Y76400D01*
X13400Y412850D02*X16600D01*
X13400D02*Y409650D01*
X16600D01*
Y412850D02*Y409650D01*
X135000Y413500D02*X136500Y410500D01*
X138000Y413500D01*
X136500Y410500D02*Y407500D01*
X139800Y410800D02*X142050D01*
X139800Y407500D02*X142800D01*
X139800Y413500D02*Y407500D01*
Y413500D02*X142800D01*
X147600D02*X148350Y412750D01*
X145350Y413500D02*X147600D01*
X144600Y412750D02*X145350Y413500D01*
X144600Y412750D02*Y411250D01*
X145350Y410500D01*
X147600D01*
X148350Y409750D01*
Y408250D01*
X147600Y407500D02*X148350Y408250D01*
X145350Y407500D02*X147600D01*
X144600Y408250D02*X145350Y407500D01*
X98750D02*X101000Y410500D01*
Y412750D02*Y410500D01*
X100250Y413500D02*X101000Y412750D01*
X98750Y413500D02*X100250D01*
X98000Y412750D02*X98750Y413500D01*
X98000Y412750D02*Y411250D01*
X98750Y410500D01*
X101000D01*
X102800Y412750D02*X103550Y413500D01*
X105800D01*
X106550Y412750D01*
Y411250D01*
X102800Y407500D02*X106550Y411250D01*
X102800Y407500D02*X106550D01*
X45000Y408250D02*X45750Y407500D01*
X45000Y412750D02*Y408250D01*
Y412750D02*X45750Y413500D01*
X47250D01*
X48000Y412750D01*
Y408250D01*
X47250Y407500D02*X48000Y408250D01*
X45750Y407500D02*X47250D01*
X45000Y409000D02*X48000Y412000D01*
X49800Y407500D02*X50550D01*
X52350Y408250D02*X53100Y407500D01*
X52350Y412750D02*Y408250D01*
Y412750D02*X53100Y413500D01*
X54600D01*
X55350Y412750D01*
Y408250D01*
X54600Y407500D02*X55350Y408250D01*
X53100Y407500D02*X54600D01*
X52350Y409000D02*X55350Y412000D01*
X57150Y409750D02*X60150Y413500D01*
X57150Y409750D02*X60900D01*
X60150Y413500D02*Y407500D01*
X62700Y412300D02*X63900Y413500D01*
Y407500D01*
X62700D02*X64950D01*
X96200Y54000D02*G75*G03X97800Y54000I800J0D01*G01*
G75*G03X96200Y54000I-800J0D01*G01*
Y64000D02*G75*G03X97800Y64000I800J0D01*G01*
G75*G03X96200Y64000I-800J0D01*G01*
Y74000D02*G75*G03X97800Y74000I800J0D01*G01*
G75*G03X96200Y74000I-800J0D01*G01*
Y84000D02*G75*G03X97800Y84000I800J0D01*G01*
G75*G03X96200Y84000I-800J0D01*G01*
Y94000D02*G75*G03X97800Y94000I800J0D01*G01*
G75*G03X96200Y94000I-800J0D01*G01*
Y104000D02*G75*G03X97800Y104000I800J0D01*G01*
G75*G03X96200Y104000I-800J0D01*G01*
Y114000D02*G75*G03X97800Y114000I800J0D01*G01*
G75*G03X96200Y114000I-800J0D01*G01*
Y124000D02*G75*G03X97800Y124000I800J0D01*G01*
G75*G03X96200Y124000I-800J0D01*G01*
X66200Y25000D02*G75*G03X67800Y25000I800J0D01*G01*
G75*G03X66200Y25000I-800J0D01*G01*
X96200D02*G75*G03X97800Y25000I800J0D01*G01*
G75*G03X96200Y25000I-800J0D01*G01*
X86200D02*G75*G03X87800Y25000I800J0D01*G01*
G75*G03X86200Y25000I-800J0D01*G01*
X76200D02*G75*G03X77800Y25000I800J0D01*G01*
G75*G03X76200Y25000I-800J0D01*G01*
X56200D02*G75*G03X57800Y25000I800J0D01*G01*
G75*G03X56200Y25000I-800J0D01*G01*
X46200D02*G75*G03X47800Y25000I800J0D01*G01*
G75*G03X46200Y25000I-800J0D01*G01*
X36200D02*G75*G03X37800Y25000I800J0D01*G01*
G75*G03X36200Y25000I-800J0D01*G01*
X26200D02*G75*G03X27800Y25000I800J0D01*G01*
G75*G03X26200Y25000I-800J0D01*G01*
X47704Y213189D02*G75*G03X49304Y213189I800J0D01*G01*
G75*G03X47704Y213189I-800J0D01*G01*
X29200Y225000D02*G75*G03X30800Y225000I800J0D01*G01*
G75*G03X29200Y225000I-800J0D01*G01*
Y201378D02*G75*G03X30800Y201378I800J0D01*G01*
G75*G03X29200Y201378I-800J0D01*G01*
X38200Y192000D02*G75*G03X39800Y192000I800J0D01*G01*
G75*G03X38200Y192000I-800J0D01*G01*
X179200Y156000D02*G75*G03X180800Y156000I800J0D01*G01*
G75*G03X179200Y156000I-800J0D01*G01*
X235200D02*G75*G03X236800Y156000I800J0D01*G01*
G75*G03X235200Y156000I-800J0D01*G01*
X71200Y74000D02*G75*G03X72800Y74000I800J0D01*G01*
G75*G03X71200Y74000I-800J0D01*G01*
X131200Y103000D02*G75*G03X132800Y103000I800J0D01*G01*
G75*G03X131200Y103000I-800J0D01*G01*
Y113000D02*G75*G03X132800Y113000I800J0D01*G01*
G75*G03X131200Y113000I-800J0D01*G01*
X43200Y305000D02*G75*G03X44800Y305000I800J0D01*G01*
G75*G03X43200Y305000I-800J0D01*G01*
X76200D02*G75*G03X77800Y305000I800J0D01*G01*
G75*G03X76200Y305000I-800J0D01*G01*
X44200Y67000D02*G75*G03X45800Y67000I800J0D01*G01*
G75*G03X44200Y67000I-800J0D01*G01*
X20200Y34000D02*G75*G03X21800Y34000I800J0D01*G01*
G75*G03X20200Y34000I-800J0D01*G01*
X9200Y13000D02*G75*G03X10800Y13000I800J0D01*G01*
G75*G03X9200Y13000I-800J0D01*G01*
X94200Y193000D02*G75*G03X95800Y193000I800J0D01*G01*
G75*G03X94200Y193000I-800J0D01*G01*
Y165000D02*G75*G03X95800Y165000I800J0D01*G01*
G75*G03X94200Y165000I-800J0D01*G01*
X14200Y426250D02*G75*G03X15800Y426250I800J0D01*G01*
G75*G03X14200Y426250I-800J0D01*G01*
X135000Y428500D02*X136500Y425500D01*
X138000Y428500D01*
X136500Y425500D02*Y422500D01*
X139800Y425800D02*X142050D01*
X139800Y422500D02*X142800D01*
X139800Y428500D02*Y422500D01*
Y428500D02*X142800D01*
X147600D02*X148350Y427750D01*
X145350Y428500D02*X147600D01*
X144600Y427750D02*X145350Y428500D01*
X144600Y427750D02*Y426250D01*
X145350Y425500D01*
X147600D01*
X148350Y424750D01*
Y423250D01*
X147600Y422500D02*X148350Y423250D01*
X145350Y422500D02*X147600D01*
X144600Y423250D02*X145350Y422500D01*
X98000Y427750D02*X98750Y428500D01*
X100250D01*
X101000Y427750D01*
X100250Y422500D02*X101000Y423250D01*
X98750Y422500D02*X100250D01*
X98000Y423250D02*X98750Y422500D01*
Y425800D02*X100250D01*
X101000Y427750D02*Y426550D01*
Y425050D02*Y423250D01*
Y425050D02*X100250Y425800D01*
X101000Y426550D02*X100250Y425800D01*
X102800Y427750D02*X103550Y428500D01*
X105800D01*
X106550Y427750D01*
Y426250D01*
X102800Y422500D02*X106550Y426250D01*
X102800Y422500D02*X106550D01*
X45000Y423250D02*X45750Y422500D01*
X45000Y427750D02*Y423250D01*
Y427750D02*X45750Y428500D01*
X47250D01*
X48000Y427750D01*
Y423250D01*
X47250Y422500D02*X48000Y423250D01*
X45750Y422500D02*X47250D01*
X45000Y424000D02*X48000Y427000D01*
X49800Y422500D02*X50550D01*
X52350Y423250D02*X53100Y422500D01*
X52350Y427750D02*Y423250D01*
Y427750D02*X53100Y428500D01*
X54600D01*
X55350Y427750D01*
Y423250D01*
X54600Y422500D02*X55350Y423250D01*
X53100Y422500D02*X54600D01*
X52350Y424000D02*X55350Y427000D01*
X57150Y427750D02*X57900Y428500D01*
X59400D01*
X60150Y427750D01*
X59400Y422500D02*X60150Y423250D01*
X57900Y422500D02*X59400D01*
X57150Y423250D02*X57900Y422500D01*
Y425800D02*X59400D01*
X60150Y427750D02*Y426550D01*
Y425050D02*Y423250D01*
Y425050D02*X59400Y425800D01*
X60150Y426550D02*X59400Y425800D01*
X61950Y428500D02*X64950D01*
X61950D02*Y425500D01*
X62700Y426250D01*
X64200D01*
X64950Y425500D01*
Y423250D01*
X64200Y422500D02*X64950Y423250D01*
X62700Y422500D02*X64200D01*
X61950Y423250D02*X62700Y422500D01*
X150800Y256200D02*X153200Y253800D01*
X150800D02*X153200Y256200D01*
X150800Y296200D02*X153200Y293800D01*
X150800D02*X153200Y296200D01*
X206800Y256200D02*X209200Y253800D01*
X206800D02*X209200Y256200D01*
X206800Y296200D02*X209200Y293800D01*
X206800D02*X209200Y296200D01*
X13800Y442450D02*X16200Y440050D01*
X13800D02*X16200Y442450D01*
X135000Y443500D02*X136500Y440500D01*
X138000Y443500D01*
X136500Y440500D02*Y437500D01*
X139800Y440800D02*X142050D01*
X139800Y437500D02*X142800D01*
X139800Y443500D02*Y437500D01*
Y443500D02*X142800D01*
X147600D02*X148350Y442750D01*
X145350Y443500D02*X147600D01*
X144600Y442750D02*X145350Y443500D01*
X144600Y442750D02*Y441250D01*
X145350Y440500D01*
X147600D01*
X148350Y439750D01*
Y438250D01*
X147600Y437500D02*X148350Y438250D01*
X145350Y437500D02*X147600D01*
X144600Y438250D02*X145350Y437500D01*
X98000Y439750D02*X101000Y443500D01*
X98000Y439750D02*X101750D01*
X101000Y443500D02*Y437500D01*
X45000Y438250D02*X45750Y437500D01*
X45000Y442750D02*Y438250D01*
Y442750D02*X45750Y443500D01*
X47250D01*
X48000Y442750D01*
Y438250D01*
X47250Y437500D02*X48000Y438250D01*
X45750Y437500D02*X47250D01*
X45000Y439000D02*X48000Y442000D01*
X49800Y437500D02*X50550D01*
X52350Y438250D02*X53100Y437500D01*
X52350Y442750D02*Y438250D01*
Y442750D02*X53100Y443500D01*
X54600D01*
X55350Y442750D01*
Y438250D01*
X54600Y437500D02*X55350Y438250D01*
X53100Y437500D02*X54600D01*
X52350Y439000D02*X55350Y442000D01*
X57150Y442750D02*X57900Y443500D01*
X59400D01*
X60150Y442750D01*
X59400Y437500D02*X60150Y438250D01*
X57900Y437500D02*X59400D01*
X57150Y438250D02*X57900Y437500D01*
Y440800D02*X59400D01*
X60150Y442750D02*Y441550D01*
Y440050D02*Y438250D01*
Y440050D02*X59400Y440800D01*
X60150Y441550D02*X59400Y440800D01*
X61950Y438250D02*X62700Y437500D01*
X61950Y442750D02*Y438250D01*
Y442750D02*X62700Y443500D01*
X64200D01*
X64950Y442750D01*
Y438250D01*
X64200Y437500D02*X64950Y438250D01*
X62700Y437500D02*X64200D01*
X61950Y439000D02*X64950Y442000D01*
X218000Y148600D02*Y145400D01*
X216400Y147000D02*X219600D01*
X218000Y108600D02*Y105400D01*
X216400Y107000D02*X219600D01*
X162000Y148600D02*Y145400D01*
X160400Y147000D02*X163600D01*
X162000Y108600D02*Y105400D01*
X160400Y107000D02*X163600D01*
X58000Y336600D02*Y333400D01*
X56400Y335000D02*X59600D01*
X63000Y346600D02*Y343400D01*
X61400Y345000D02*X64600D01*
X98000Y204600D02*Y201400D01*
X96400Y203000D02*X99600D01*
X81000Y204600D02*Y201400D01*
X79400Y203000D02*X82600D01*
X81000Y139600D02*Y136400D01*
X79400Y138000D02*X82600D01*
X57000Y53600D02*Y50400D01*
X55400Y52000D02*X58600D01*
X15000Y457850D02*Y454650D01*
X13400Y456250D02*X16600D01*
X135000Y458500D02*X136500Y455500D01*
X138000Y458500D01*
X136500Y455500D02*Y452500D01*
X139800Y455800D02*X142050D01*
X139800Y452500D02*X142800D01*
X139800Y458500D02*Y452500D01*
Y458500D02*X142800D01*
X147600D02*X148350Y457750D01*
X145350Y458500D02*X147600D01*
X144600Y457750D02*X145350Y458500D01*
X144600Y457750D02*Y456250D01*
X145350Y455500D01*
X147600D01*
X148350Y454750D01*
Y453250D01*
X147600Y452500D02*X148350Y453250D01*
X145350Y452500D02*X147600D01*
X144600Y453250D02*X145350Y452500D01*
X98000Y457300D02*X99200Y458500D01*
Y452500D01*
X98000D02*X100250D01*
X102050Y453250D02*X102800Y452500D01*
X102050Y457750D02*Y453250D01*
Y457750D02*X102800Y458500D01*
X104300D01*
X105050Y457750D01*
Y453250D01*
X104300Y452500D02*X105050Y453250D01*
X102800Y452500D02*X104300D01*
X102050Y454000D02*X105050Y457000D01*
X45000Y453250D02*X45750Y452500D01*
X45000Y457750D02*Y453250D01*
Y457750D02*X45750Y458500D01*
X47250D01*
X48000Y457750D01*
Y453250D01*
X47250Y452500D02*X48000Y453250D01*
X45750Y452500D02*X47250D01*
X45000Y454000D02*X48000Y457000D01*
X49800Y452500D02*X50550D01*
X52350Y453250D02*X53100Y452500D01*
X52350Y457750D02*Y453250D01*
Y457750D02*X53100Y458500D01*
X54600D01*
X55350Y457750D01*
Y453250D01*
X54600Y452500D02*X55350Y453250D01*
X53100Y452500D02*X54600D01*
X52350Y454000D02*X55350Y457000D01*
X57150Y457750D02*X57900Y458500D01*
X60150D01*
X60900Y457750D01*
Y456250D01*
X57150Y452500D02*X60900Y456250D01*
X57150Y452500D02*X60900D01*
X62700Y453250D02*X63450Y452500D01*
X62700Y457750D02*Y453250D01*
Y457750D02*X63450Y458500D01*
X64950D01*
X65700Y457750D01*
Y453250D01*
X64950Y452500D02*X65700Y453250D01*
X63450Y452500D02*X64950D01*
X62700Y454000D02*X65700Y457000D01*
X19000Y63000D02*Y61400D01*
Y63000D02*X20387Y63800D01*
X19000Y63000D02*X17613Y63800D01*
X19000Y68000D02*Y66400D01*
Y68000D02*X20387Y68800D01*
X19000Y68000D02*X17613Y68800D01*
X19000Y73000D02*Y71400D01*
Y73000D02*X20387Y73800D01*
X19000Y73000D02*X17613Y73800D01*
X19000Y78000D02*Y76400D01*
Y78000D02*X20387Y78800D01*
X19000Y78000D02*X17613Y78800D01*
X19000Y83000D02*Y81400D01*
Y83000D02*X20387Y83800D01*
X19000Y83000D02*X17613Y83800D01*
X24000Y83000D02*Y81400D01*
Y83000D02*X25387Y83800D01*
X24000Y83000D02*X22613Y83800D01*
X24000Y78000D02*Y76400D01*
Y78000D02*X25387Y78800D01*
X24000Y78000D02*X22613Y78800D01*
X24000Y73000D02*Y71400D01*
Y73000D02*X25387Y73800D01*
X24000Y73000D02*X22613Y73800D01*
X24000Y68000D02*Y66400D01*
Y68000D02*X25387Y68800D01*
X24000Y68000D02*X22613Y68800D01*
X24000Y63000D02*Y61400D01*
Y63000D02*X25387Y63800D01*
X24000Y63000D02*X22613Y63800D01*
X15000Y471250D02*Y469650D01*
Y471250D02*X16387Y472050D01*
X15000Y471250D02*X13613Y472050D01*
X135000Y473500D02*X136500Y470500D01*
X138000Y473500D01*
X136500Y470500D02*Y467500D01*
X139800Y470800D02*X142050D01*
X139800Y467500D02*X142800D01*
X139800Y473500D02*Y467500D01*
Y473500D02*X142800D01*
X147600D02*X148350Y472750D01*
X145350Y473500D02*X147600D01*
X144600Y472750D02*X145350Y473500D01*
X144600Y472750D02*Y471250D01*
X145350Y470500D01*
X147600D01*
X148350Y469750D01*
Y468250D01*
X147600Y467500D02*X148350Y468250D01*
X145350Y467500D02*X147600D01*
X144600Y468250D02*X145350Y467500D01*
X98000Y472300D02*X99200Y473500D01*
Y467500D01*
X98000D02*X100250D01*
X102050Y468250D02*X102800Y467500D01*
X102050Y472750D02*Y468250D01*
Y472750D02*X102800Y473500D01*
X104300D01*
X105050Y472750D01*
Y468250D01*
X104300Y467500D02*X105050Y468250D01*
X102800Y467500D02*X104300D01*
X102050Y469000D02*X105050Y472000D01*
X45000Y468250D02*X45750Y467500D01*
X45000Y472750D02*Y468250D01*
Y472750D02*X45750Y473500D01*
X47250D01*
X48000Y472750D01*
Y468250D01*
X47250Y467500D02*X48000Y468250D01*
X45750Y467500D02*X47250D01*
X45000Y469000D02*X48000Y472000D01*
X49800Y467500D02*X50550D01*
X52350Y468250D02*X53100Y467500D01*
X52350Y472750D02*Y468250D01*
Y472750D02*X53100Y473500D01*
X54600D01*
X55350Y472750D01*
Y468250D01*
X54600Y467500D02*X55350Y468250D01*
X53100Y467500D02*X54600D01*
X52350Y469000D02*X55350Y472000D01*
X57150Y472300D02*X58350Y473500D01*
Y467500D01*
X57150D02*X59400D01*
X61950D02*X64950Y473500D01*
X61200D02*X64950D01*
X3000Y488500D02*X3750Y487750D01*
X750Y488500D02*X3000D01*
X0Y487750D02*X750Y488500D01*
X0Y487750D02*Y486250D01*
X750Y485500D01*
X3000D01*
X3750Y484750D01*
Y483250D01*
X3000Y482500D02*X3750Y483250D01*
X750Y482500D02*X3000D01*
X0Y483250D02*X750Y482500D01*
X5550Y485500D02*Y483250D01*
X6300Y482500D01*
X8550Y485500D02*Y481000D01*
X7800Y480250D02*X8550Y481000D01*
X6300Y480250D02*X7800D01*
X5550Y481000D02*X6300Y480250D01*
Y482500D02*X7800D01*
X8550Y483250D01*
X11100Y484750D02*Y482500D01*
Y484750D02*X11850Y485500D01*
X12600D01*
X13350Y484750D01*
Y482500D01*
Y484750D02*X14100Y485500D01*
X14850D01*
X15600Y484750D01*
Y482500D01*
X10350Y485500D02*X11100Y484750D01*
X17400Y488500D02*Y482500D01*
Y483250D02*X18150Y482500D01*
X19650D01*
X20400Y483250D01*
Y484750D02*Y483250D01*
X19650Y485500D02*X20400Y484750D01*
X18150Y485500D02*X19650D01*
X17400Y484750D02*X18150Y485500D01*
X22200Y484750D02*Y483250D01*
Y484750D02*X22950Y485500D01*
X24450D01*
X25200Y484750D01*
Y483250D01*
X24450Y482500D02*X25200Y483250D01*
X22950Y482500D02*X24450D01*
X22200Y483250D02*X22950Y482500D01*
X27000Y488500D02*Y483250D01*
X27750Y482500D01*
X0Y479250D02*X29250D01*
X41750Y488500D02*Y482500D01*
X43700Y488500D02*X44750Y487450D01*
Y483550D01*
X43700Y482500D02*X44750Y483550D01*
X41000Y482500D02*X43700D01*
X41000Y488500D02*X43700D01*
G54D76*X46550Y487000D02*Y486850D01*
G54D75*Y484750D02*Y482500D01*
X50300Y485500D02*X51050Y484750D01*
X48800Y485500D02*X50300D01*
X48050Y484750D02*X48800Y485500D01*
X48050Y484750D02*Y483250D01*
X48800Y482500D01*
X51050Y485500D02*Y483250D01*
X51800Y482500D01*
X48800D02*X50300D01*
X51050Y483250D01*
X54350Y484750D02*Y482500D01*
Y484750D02*X55100Y485500D01*
X55850D01*
X56600Y484750D01*
Y482500D01*
Y484750D02*X57350Y485500D01*
X58100D01*
X58850Y484750D01*
Y482500D01*
X53600Y485500D02*X54350Y484750D01*
X60650Y482500D02*X61400D01*
X65900Y483250D02*X66650Y482500D01*
X65900Y487750D02*X66650Y488500D01*
X65900Y487750D02*Y483250D01*
X68450Y488500D02*X69950D01*
X69200D02*Y482500D01*
X68450D02*X69950D01*
X72500Y484750D02*Y482500D01*
Y484750D02*X73250Y485500D01*
X74000D01*
X74750Y484750D01*
Y482500D01*
X71750Y485500D02*X72500Y484750D01*
X77300Y485500D02*X79550D01*
X76550Y484750D02*X77300Y485500D01*
X76550Y484750D02*Y483250D01*
X77300Y482500D01*
X79550D01*
X81350Y488500D02*Y482500D01*
Y484750D02*X82100Y485500D01*
X83600D01*
X84350Y484750D01*
Y482500D01*
X86150Y488500D02*X86900Y487750D01*
Y483250D01*
X86150Y482500D02*X86900Y483250D01*
X41000Y479250D02*X88700D01*
X96050Y482500D02*X98000D01*
X95000Y483550D02*X96050Y482500D01*
X95000Y487450D02*Y483550D01*
Y487450D02*X96050Y488500D01*
X98000D01*
X99800Y484750D02*Y483250D01*
Y484750D02*X100550Y485500D01*
X102050D01*
X102800Y484750D01*
Y483250D01*
X102050Y482500D02*X102800Y483250D01*
X100550Y482500D02*X102050D01*
X99800Y483250D02*X100550Y482500D01*
X104600Y485500D02*Y483250D01*
X105350Y482500D01*
X106850D01*
X107600Y483250D01*
Y485500D02*Y483250D01*
X110150Y484750D02*Y482500D01*
Y484750D02*X110900Y485500D01*
X111650D01*
X112400Y484750D01*
Y482500D01*
X109400Y485500D02*X110150Y484750D01*
X114950Y488500D02*Y483250D01*
X115700Y482500D01*
X114200Y486250D02*X115700D01*
X95000Y479250D02*X117200D01*
X130750Y488500D02*Y482500D01*
X130000Y488500D02*X133000D01*
X133750Y487750D01*
Y486250D01*
X133000Y485500D02*X133750Y486250D01*
X130750Y485500D02*X133000D01*
X135550Y488500D02*Y483250D01*
X136300Y482500D01*
X140050Y485500D02*X140800Y484750D01*
X138550Y485500D02*X140050D01*
X137800Y484750D02*X138550Y485500D01*
X137800Y484750D02*Y483250D01*
X138550Y482500D01*
X140800Y485500D02*Y483250D01*
X141550Y482500D01*
X138550D02*X140050D01*
X140800Y483250D01*
X144100Y488500D02*Y483250D01*
X144850Y482500D01*
X143350Y486250D02*X144850D01*
X147100Y482500D02*X149350D01*
X146350Y483250D02*X147100Y482500D01*
X146350Y484750D02*Y483250D01*
Y484750D02*X147100Y485500D01*
X148600D01*
X149350Y484750D01*
X146350Y484000D02*X149350D01*
Y484750D02*Y484000D01*
X154150Y488500D02*Y482500D01*
X153400D02*X154150Y483250D01*
X151900Y482500D02*X153400D01*
X151150Y483250D02*X151900Y482500D01*
X151150Y484750D02*Y483250D01*
Y484750D02*X151900Y485500D01*
X153400D01*
X154150Y484750D01*
X157450Y485500D02*Y484750D01*
Y483250D02*Y482500D01*
X155950Y487750D02*Y487000D01*
Y487750D02*X156700Y488500D01*
X158200D01*
X158950Y487750D01*
Y487000D01*
X157450Y485500D02*X158950Y487000D01*
X130000Y479250D02*X160750D01*
X0Y503500D02*X3000D01*
X1500D02*Y497500D01*
X4800Y503500D02*Y497500D01*
Y499750D02*X5550Y500500D01*
X7050D01*
X7800Y499750D01*
Y497500D01*
X10350D02*X12600D01*
X9600Y498250D02*X10350Y497500D01*
X9600Y499750D02*Y498250D01*
Y499750D02*X10350Y500500D01*
X11850D01*
X12600Y499750D01*
X9600Y499000D02*X12600D01*
Y499750D02*Y499000D01*
X15150Y499750D02*Y497500D01*
Y499750D02*X15900Y500500D01*
X17400D01*
X14400D02*X15150Y499750D01*
X19950Y497500D02*X22200D01*
X19200Y498250D02*X19950Y497500D01*
X19200Y499750D02*Y498250D01*
Y499750D02*X19950Y500500D01*
X21450D01*
X22200Y499750D01*
X19200Y499000D02*X22200D01*
Y499750D02*Y499000D01*
X28950Y500500D02*X29700Y499750D01*
X27450Y500500D02*X28950D01*
X26700Y499750D02*X27450Y500500D01*
X26700Y499750D02*Y498250D01*
X27450Y497500D01*
X29700Y500500D02*Y498250D01*
X30450Y497500D01*
X27450D02*X28950D01*
X29700Y498250D01*
X33000Y499750D02*Y497500D01*
Y499750D02*X33750Y500500D01*
X35250D01*
X32250D02*X33000Y499750D01*
X37800Y497500D02*X40050D01*
X37050Y498250D02*X37800Y497500D01*
X37050Y499750D02*Y498250D01*
Y499750D02*X37800Y500500D01*
X39300D01*
X40050Y499750D01*
X37050Y499000D02*X40050D01*
Y499750D02*Y499000D01*
X44550Y498250D02*X45300Y497500D01*
X44550Y499450D02*Y498250D01*
Y499450D02*X45600Y500500D01*
X46500D01*
X47550Y499450D01*
Y498250D01*
X46800Y497500D02*X47550Y498250D01*
X45300Y497500D02*X46800D01*
X44550Y501550D02*X45600Y500500D01*
X44550Y502750D02*Y501550D01*
Y502750D02*X45300Y503500D01*
X46800D01*
X47550Y502750D01*
Y501550D01*
X46500Y500500D02*X47550Y501550D01*
X55050Y503500D02*Y497500D01*
X54300D02*X55050Y498250D01*
X52800Y497500D02*X54300D01*
X52050Y498250D02*X52800Y497500D01*
X52050Y499750D02*Y498250D01*
Y499750D02*X52800Y500500D01*
X54300D01*
X55050Y499750D01*
G54D76*X56850Y502000D02*Y501850D01*
G54D75*Y499750D02*Y497500D01*
X59100Y502750D02*Y497500D01*
Y502750D02*X59850Y503500D01*
X60600D01*
X58350Y500500D02*X59850D01*
X62850Y502750D02*Y497500D01*
Y502750D02*X63600Y503500D01*
X64350D01*
X62100Y500500D02*X63600D01*
X66600Y497500D02*X68850D01*
X65850Y498250D02*X66600Y497500D01*
X65850Y499750D02*Y498250D01*
Y499750D02*X66600Y500500D01*
X68100D01*
X68850Y499750D01*
X65850Y499000D02*X68850D01*
Y499750D02*Y499000D01*
X71400Y499750D02*Y497500D01*
Y499750D02*X72150Y500500D01*
X73650D01*
X70650D02*X71400Y499750D01*
X76200Y497500D02*X78450D01*
X75450Y498250D02*X76200Y497500D01*
X75450Y499750D02*Y498250D01*
Y499750D02*X76200Y500500D01*
X77700D01*
X78450Y499750D01*
X75450Y499000D02*X78450D01*
Y499750D02*Y499000D01*
X81000Y499750D02*Y497500D01*
Y499750D02*X81750Y500500D01*
X82500D01*
X83250Y499750D01*
Y497500D01*
X80250Y500500D02*X81000Y499750D01*
X85800Y503500D02*Y498250D01*
X86550Y497500D01*
X85050Y501250D02*X86550D01*
X93750Y503500D02*Y497500D01*
X93000D02*X93750Y498250D01*
X91500Y497500D02*X93000D01*
X90750Y498250D02*X91500Y497500D01*
X90750Y499750D02*Y498250D01*
Y499750D02*X91500Y500500D01*
X93000D01*
X93750Y499750D01*
X96300D02*Y497500D01*
Y499750D02*X97050Y500500D01*
X98550D01*
X95550D02*X96300Y499750D01*
G54D76*X100350Y502000D02*Y501850D01*
G54D75*Y499750D02*Y497500D01*
X101850Y503500D02*Y498250D01*
X102600Y497500D01*
X104100Y503500D02*Y498250D01*
X104850Y497500D01*
X109800D02*X112050D01*
X112800Y498250D01*
X112050Y499000D02*X112800Y498250D01*
X109800Y499000D02*X112050D01*
X109050Y499750D02*X109800Y499000D01*
X109050Y499750D02*X109800Y500500D01*
X112050D01*
X112800Y499750D01*
X109050Y498250D02*X109800Y497500D01*
G54D76*X114600Y502000D02*Y501850D01*
G54D75*Y499750D02*Y497500D01*
X116100Y500500D02*X119100D01*
X116100Y497500D02*X119100Y500500D01*
X116100Y497500D02*X119100D01*
X121650D02*X123900D01*
X120900Y498250D02*X121650Y497500D01*
X120900Y499750D02*Y498250D01*
Y499750D02*X121650Y500500D01*
X123150D01*
X123900Y499750D01*
X120900Y499000D02*X123900D01*
Y499750D02*Y499000D01*
X126450Y497500D02*X128700D01*
X129450Y498250D01*
X128700Y499000D02*X129450Y498250D01*
X126450Y499000D02*X128700D01*
X125700Y499750D02*X126450Y499000D01*
X125700Y499750D02*X126450Y500500D01*
X128700D01*
X129450Y499750D01*
X125700Y498250D02*X126450Y497500D01*
X133950Y500500D02*Y498250D01*
X134700Y497500D01*
X136200D01*
X136950Y498250D01*
Y500500D02*Y498250D01*
X139500Y497500D02*X141750D01*
X142500Y498250D01*
X141750Y499000D02*X142500Y498250D01*
X139500Y499000D02*X141750D01*
X138750Y499750D02*X139500Y499000D01*
X138750Y499750D02*X139500Y500500D01*
X141750D01*
X142500Y499750D01*
X138750Y498250D02*X139500Y497500D01*
X145050D02*X147300D01*
X144300Y498250D02*X145050Y497500D01*
X144300Y499750D02*Y498250D01*
Y499750D02*X145050Y500500D01*
X146550D01*
X147300Y499750D01*
X144300Y499000D02*X147300D01*
Y499750D02*Y499000D01*
X152100Y503500D02*Y497500D01*
X151350D02*X152100Y498250D01*
X149850Y497500D02*X151350D01*
X149100Y498250D02*X149850Y497500D01*
X149100Y499750D02*Y498250D01*
Y499750D02*X149850Y500500D01*
X151350D01*
X152100Y499750D01*
G54D76*X156600Y502000D02*Y501850D01*
G54D75*Y499750D02*Y497500D01*
X158850Y499750D02*Y497500D01*
Y499750D02*X159600Y500500D01*
X160350D01*
X161100Y499750D01*
Y497500D01*
X158100Y500500D02*X158850Y499750D01*
X166350Y503500D02*Y498250D01*
X167100Y497500D01*
X165600Y501250D02*X167100D01*
X168600Y503500D02*Y497500D01*
Y499750D02*X169350Y500500D01*
X170850D01*
X171600Y499750D01*
Y497500D01*
G54D76*X173400Y502000D02*Y501850D01*
G54D75*Y499750D02*Y497500D01*
X175650D02*X177900D01*
X178650Y498250D01*
X177900Y499000D02*X178650Y498250D01*
X175650Y499000D02*X177900D01*
X174900Y499750D02*X175650Y499000D01*
X174900Y499750D02*X175650Y500500D01*
X177900D01*
X178650Y499750D01*
X174900Y498250D02*X175650Y497500D01*
X183150Y503500D02*Y498250D01*
X183900Y497500D01*
X187650Y500500D02*X188400Y499750D01*
X186150Y500500D02*X187650D01*
X185400Y499750D02*X186150Y500500D01*
X185400Y499750D02*Y498250D01*
X186150Y497500D01*
X188400Y500500D02*Y498250D01*
X189150Y497500D01*
X186150D02*X187650D01*
X188400Y498250D01*
X190950Y500500D02*Y498250D01*
X191700Y497500D01*
X193950Y500500D02*Y496000D01*
X193200Y495250D02*X193950Y496000D01*
X191700Y495250D02*X193200D01*
X190950Y496000D02*X191700Y495250D01*
Y497500D02*X193200D01*
X193950Y498250D01*
X195750Y499750D02*Y498250D01*
Y499750D02*X196500Y500500D01*
X198000D01*
X198750Y499750D01*
Y498250D01*
X198000Y497500D02*X198750Y498250D01*
X196500Y497500D02*X198000D01*
X195750Y498250D02*X196500Y497500D01*
X200550Y500500D02*Y498250D01*
X201300Y497500D01*
X202800D01*
X203550Y498250D01*
Y500500D02*Y498250D01*
X206100Y503500D02*Y498250D01*
X206850Y497500D01*
X205350Y501250D02*X206850D01*
X208350Y496000D02*X209850Y497500D01*
X214350Y502300D02*X215550Y503500D01*
Y497500D01*
X214350D02*X216600D01*
X220650Y503500D02*X221400Y502750D01*
X219150Y503500D02*X220650D01*
X218400Y502750D02*X219150Y503500D01*
X218400Y502750D02*Y498250D01*
X219150Y497500D01*
X220650Y500800D02*X221400Y500050D01*
X218400Y500800D02*X220650D01*
X219150Y497500D02*X220650D01*
X221400Y498250D01*
Y500050D02*Y498250D01*
X223200D02*X223950Y497500D01*
X223200Y502750D02*Y498250D01*
Y502750D02*X223950Y503500D01*
X225450D01*
X226200Y502750D01*
Y498250D01*
X225450Y497500D02*X226200Y498250D01*
X223950Y497500D02*X225450D01*
X223200Y499000D02*X226200Y502000D01*
X230700Y503500D02*Y497500D01*
Y499750D02*X231450Y500500D01*
X232950D01*
X233700Y499750D01*
Y497500D01*
X235500Y499750D02*Y498250D01*
Y499750D02*X236250Y500500D01*
X237750D01*
X238500Y499750D01*
Y498250D01*
X237750Y497500D02*X238500Y498250D01*
X236250Y497500D02*X237750D01*
X235500Y498250D02*X236250Y497500D01*
X240300Y503500D02*Y498250D01*
X241050Y497500D01*
X243300D02*X245550D01*
X242550Y498250D02*X243300Y497500D01*
X242550Y499750D02*Y498250D01*
Y499750D02*X243300Y500500D01*
X244800D01*
X245550Y499750D01*
X242550Y499000D02*X245550D01*
Y499750D02*Y499000D01*
X248100Y497500D02*X250350D01*
X251100Y498250D01*
X250350Y499000D02*X251100Y498250D01*
X248100Y499000D02*X250350D01*
X247350Y499750D02*X248100Y499000D01*
X247350Y499750D02*X248100Y500500D01*
X250350D01*
X251100Y499750D01*
X247350Y498250D02*X248100Y497500D01*
X256350Y503500D02*Y498250D01*
X257100Y497500D01*
X255600Y501250D02*X257100D01*
X258600Y499750D02*Y498250D01*
Y499750D02*X259350Y500500D01*
X260850D01*
X261600Y499750D01*
Y498250D01*
X260850Y497500D02*X261600Y498250D01*
X259350Y497500D02*X260850D01*
X258600Y498250D02*X259350Y497500D01*
X264150Y503500D02*Y498250D01*
X264900Y497500D01*
X263400Y501250D02*X264900D01*
X268650Y500500D02*X269400Y499750D01*
X267150Y500500D02*X268650D01*
X266400Y499750D02*X267150Y500500D01*
X266400Y499750D02*Y498250D01*
X267150Y497500D01*
X269400Y500500D02*Y498250D01*
X270150Y497500D01*
X267150D02*X268650D01*
X269400Y498250D01*
X271950Y503500D02*Y498250D01*
X272700Y497500D01*
G54D77*X0Y355000D02*Y0D01*
X330000D02*Y355000D01*
X0D01*
X330000Y0D02*X296000D01*
X0D02*X165000D01*
X296000D02*Y73000D01*
X165000D01*
Y0D01*
G54D75*X78675Y-9500D02*X81675D01*
X82425Y-8750D01*
Y-6950D02*Y-8750D01*
X81675Y-6200D02*X82425Y-6950D01*
X79425Y-6200D02*X81675D01*
X79425Y-3500D02*Y-9500D01*
X78675Y-3500D02*X81675D01*
X82425Y-4250D01*
Y-5450D01*
X81675Y-6200D02*X82425Y-5450D01*
X84225Y-7250D02*Y-8750D01*
Y-7250D02*X84975Y-6500D01*
X86475D01*
X87225Y-7250D01*
Y-8750D01*
X86475Y-9500D02*X87225Y-8750D01*
X84975Y-9500D02*X86475D01*
X84225Y-8750D02*X84975Y-9500D01*
X91275Y-6500D02*X92025Y-7250D01*
X89775Y-6500D02*X91275D01*
X89025Y-7250D02*X89775Y-6500D01*
X89025Y-7250D02*Y-8750D01*
X89775Y-9500D01*
X92025Y-6500D02*Y-8750D01*
X92775Y-9500D01*
X89775D02*X91275D01*
X92025Y-8750D01*
X95325Y-7250D02*Y-9500D01*
Y-7250D02*X96075Y-6500D01*
X97575D01*
X94575D02*X95325Y-7250D01*
X102375Y-3500D02*Y-9500D01*
X101625D02*X102375Y-8750D01*
X100125Y-9500D02*X101625D01*
X99375Y-8750D02*X100125Y-9500D01*
X99375Y-7250D02*Y-8750D01*
Y-7250D02*X100125Y-6500D01*
X101625D01*
X102375Y-7250D01*
X106875D02*Y-8750D01*
Y-7250D02*X107625Y-6500D01*
X109125D01*
X109875Y-7250D01*
Y-8750D01*
X109125Y-9500D02*X109875Y-8750D01*
X107625Y-9500D02*X109125D01*
X106875Y-8750D02*X107625Y-9500D01*
X111675Y-6500D02*Y-8750D01*
X112425Y-9500D01*
X113925D01*
X114675Y-8750D01*
Y-6500D02*Y-8750D01*
X117225Y-3500D02*Y-8750D01*
X117975Y-9500D01*
X116475Y-5750D02*X117975D01*
X119475Y-3500D02*Y-8750D01*
X120225Y-9500D01*
G54D76*X121725Y-5000D02*Y-5150D01*
G54D75*Y-7250D02*Y-9500D01*
X123975Y-7250D02*Y-9500D01*
Y-7250D02*X124725Y-6500D01*
X125475D01*
X126225Y-7250D01*
Y-9500D01*
X123225Y-6500D02*X123975Y-7250D01*
X128775Y-9500D02*X131025D01*
X128025Y-8750D02*X128775Y-9500D01*
X128025Y-7250D02*Y-8750D01*
Y-7250D02*X128775Y-6500D01*
X130275D01*
X131025Y-7250D01*
X128025Y-8000D02*X131025D01*
Y-7250D02*Y-8000D01*
G54D76*X135525Y-5000D02*Y-5150D01*
G54D75*Y-7250D02*Y-9500D01*
X137775D02*X140025D01*
X140775Y-8750D01*
X140025Y-8000D02*X140775Y-8750D01*
X137775Y-8000D02*X140025D01*
X137025Y-7250D02*X137775Y-8000D01*
X137025Y-7250D02*X137775Y-6500D01*
X140025D01*
X140775Y-7250D01*
X137025Y-8750D02*X137775Y-9500D01*
X146025Y-3500D02*Y-8750D01*
X146775Y-9500D01*
X145275Y-5750D02*X146775D01*
X148275Y-3500D02*Y-9500D01*
Y-7250D02*X149025Y-6500D01*
X150525D01*
X151275Y-7250D01*
Y-9500D01*
X153825D02*X156075D01*
X153075Y-8750D02*X153825Y-9500D01*
X153075Y-7250D02*Y-8750D01*
Y-7250D02*X153825Y-6500D01*
X155325D01*
X156075Y-7250D01*
X153075Y-8000D02*X156075D01*
Y-7250D02*Y-8000D01*
X161325Y-6500D02*X163575D01*
X160575Y-7250D02*X161325Y-6500D01*
X160575Y-7250D02*Y-8750D01*
X161325Y-9500D01*
X163575D01*
X166125D02*X168375D01*
X165375Y-8750D02*X166125Y-9500D01*
X165375Y-7250D02*Y-8750D01*
Y-7250D02*X166125Y-6500D01*
X167625D01*
X168375Y-7250D01*
X165375Y-8000D02*X168375D01*
Y-7250D02*Y-8000D01*
X170925Y-7250D02*Y-9500D01*
Y-7250D02*X171675Y-6500D01*
X172425D01*
X173175Y-7250D01*
Y-9500D01*
X170175Y-6500D02*X170925Y-7250D01*
X175725Y-3500D02*Y-8750D01*
X176475Y-9500D01*
X174975Y-5750D02*X176475D01*
X178725Y-9500D02*X180975D01*
X177975Y-8750D02*X178725Y-9500D01*
X177975Y-7250D02*Y-8750D01*
Y-7250D02*X178725Y-6500D01*
X180225D01*
X180975Y-7250D01*
X177975Y-8000D02*X180975D01*
Y-7250D02*Y-8000D01*
X183525Y-7250D02*Y-9500D01*
Y-7250D02*X184275Y-6500D01*
X185775D01*
X182775D02*X183525Y-7250D01*
X187575Y-3500D02*Y-8750D01*
X188325Y-9500D01*
G54D76*X189825Y-5000D02*Y-5150D01*
G54D75*Y-7250D02*Y-9500D01*
X192075Y-7250D02*Y-9500D01*
Y-7250D02*X192825Y-6500D01*
X193575D01*
X194325Y-7250D01*
Y-9500D01*
X191325Y-6500D02*X192075Y-7250D01*
X196875Y-9500D02*X199125D01*
X196125Y-8750D02*X196875Y-9500D01*
X196125Y-7250D02*Y-8750D01*
Y-7250D02*X196875Y-6500D01*
X198375D01*
X199125Y-7250D01*
X196125Y-8000D02*X199125D01*
Y-7250D02*Y-8000D01*
X203625Y-7250D02*Y-8750D01*
Y-7250D02*X204375Y-6500D01*
X205875D01*
X206625Y-7250D01*
Y-8750D01*
X205875Y-9500D02*X206625Y-8750D01*
X204375Y-9500D02*X205875D01*
X203625Y-8750D02*X204375Y-9500D01*
X209175Y-4250D02*Y-9500D01*
Y-4250D02*X209925Y-3500D01*
X210675D01*
X208425Y-6500D02*X209925D01*
X215625Y-3500D02*Y-8750D01*
X216375Y-9500D01*
X214875Y-5750D02*X216375D01*
X217875Y-3500D02*Y-9500D01*
Y-7250D02*X218625Y-6500D01*
X220125D01*
X220875Y-7250D01*
Y-9500D01*
G54D76*X222675Y-5000D02*Y-5150D01*
G54D75*Y-7250D02*Y-9500D01*
X224925D02*X227175D01*
X227925Y-8750D01*
X227175Y-8000D02*X227925Y-8750D01*
X224925Y-8000D02*X227175D01*
X224175Y-7250D02*X224925Y-8000D01*
X224175Y-7250D02*X224925Y-6500D01*
X227175D01*
X227925Y-7250D01*
X224175Y-8750D02*X224925Y-9500D01*
X233175Y-7250D02*Y-11750D01*
X232425Y-6500D02*X233175Y-7250D01*
X233925Y-6500D01*
X235425D01*
X236175Y-7250D01*
Y-8750D01*
X235425Y-9500D02*X236175Y-8750D01*
X233925Y-9500D02*X235425D01*
X233175Y-8750D02*X233925Y-9500D01*
X240225Y-6500D02*X240975Y-7250D01*
X238725Y-6500D02*X240225D01*
X237975Y-7250D02*X238725Y-6500D01*
X237975Y-7250D02*Y-8750D01*
X238725Y-9500D01*
X240975Y-6500D02*Y-8750D01*
X241725Y-9500D01*
X238725D02*X240225D01*
X240975Y-8750D01*
X244275Y-3500D02*Y-8750D01*
X245025Y-9500D01*
X243525Y-5750D02*X245025D01*
X246525Y-3500D02*Y-9500D01*
Y-7250D02*X247275Y-6500D01*
X248775D01*
X249525Y-7250D01*
Y-9500D01*
X200750Y383500D02*Y377500D01*
X202700Y383500D02*X203750Y382450D01*
Y378550D01*
X202700Y377500D02*X203750Y378550D01*
X200000Y377500D02*X202700D01*
X200000Y383500D02*X202700D01*
X207800Y380500D02*X208550Y379750D01*
X206300Y380500D02*X207800D01*
X205550Y379750D02*X206300Y380500D01*
X205550Y379750D02*Y378250D01*
X206300Y377500D01*
X208550Y380500D02*Y378250D01*
X209300Y377500D01*
X206300D02*X207800D01*
X208550Y378250D01*
X211850Y383500D02*Y378250D01*
X212600Y377500D01*
X211100Y381250D02*X212600D01*
X214850Y377500D02*X217100D01*
X214100Y378250D02*X214850Y377500D01*
X214100Y379750D02*Y378250D01*
Y379750D02*X214850Y380500D01*
X216350D01*
X217100Y379750D01*
X214100Y379000D02*X217100D01*
Y379750D02*Y379000D01*
X218900Y381250D02*X219650D01*
X218900Y379750D02*X219650D01*
X227150Y383500D02*X227900Y382750D01*
X224900Y383500D02*X227150D01*
X224150Y382750D02*X224900Y383500D01*
X224150Y382750D02*Y381250D01*
X224900Y380500D01*
X227150D01*
X227900Y379750D01*
Y378250D01*
X227150Y377500D02*X227900Y378250D01*
X224900Y377500D02*X227150D01*
X224150Y378250D02*X224900Y377500D01*
X229700Y380500D02*Y378250D01*
X230450Y377500D01*
X231950D01*
X232700Y378250D01*
Y380500D02*Y378250D01*
X235250Y379750D02*Y377500D01*
Y379750D02*X236000Y380500D01*
X236750D01*
X237500Y379750D01*
Y377500D01*
X234500Y380500D02*X235250Y379750D01*
X242000Y382000D02*Y377500D01*
Y382000D02*X243050Y383500D01*
X244700D01*
X245750Y382000D01*
Y377500D01*
X242000Y380500D02*X245750D01*
X247550D02*Y378250D01*
X248300Y377500D01*
X249800D01*
X250550Y378250D01*
Y380500D02*Y378250D01*
X254600Y380500D02*X255350Y379750D01*
X253100Y380500D02*X254600D01*
X252350Y379750D02*X253100Y380500D01*
X252350Y379750D02*Y378250D01*
X253100Y377500D01*
X254600D01*
X255350Y378250D01*
X252350Y376000D02*X253100Y375250D01*
X254600D01*
X255350Y376000D01*
Y380500D02*Y376000D01*
X263300Y377500D02*X265550Y380500D01*
Y382750D02*Y380500D01*
X264800Y383500D02*X265550Y382750D01*
X263300Y383500D02*X264800D01*
X262550Y382750D02*X263300Y383500D01*
X262550Y382750D02*Y381250D01*
X263300Y380500D01*
X265550D01*
X270050Y382300D02*X271250Y383500D01*
Y377500D01*
X270050D02*X272300D01*
X274100Y378250D02*X274850Y377500D01*
X274100Y379450D02*Y378250D01*
Y379450D02*X275150Y380500D01*
X276050D01*
X277100Y379450D01*
Y378250D01*
X276350Y377500D02*X277100Y378250D01*
X274850Y377500D02*X276350D01*
X274100Y381550D02*X275150Y380500D01*
X274100Y382750D02*Y381550D01*
Y382750D02*X274850Y383500D01*
X276350D01*
X277100Y382750D01*
Y381550D01*
X276050Y380500D02*X277100Y381550D01*
X278900Y381250D02*X279650D01*
X278900Y379750D02*X279650D01*
X281450Y383500D02*X284450D01*
X281450D02*Y380500D01*
X282200Y381250D01*
X283700D01*
X284450Y380500D01*
Y378250D01*
X283700Y377500D02*X284450Y378250D01*
X282200Y377500D02*X283700D01*
X281450Y378250D02*X282200Y377500D01*
X286250Y383500D02*X289250D01*
X286250D02*Y380500D01*
X287000Y381250D01*
X288500D01*
X289250Y380500D01*
Y378250D01*
X288500Y377500D02*X289250Y378250D01*
X287000Y377500D02*X288500D01*
X286250Y378250D02*X287000Y377500D01*
X291050Y381250D02*X291800D01*
X291050Y379750D02*X291800D01*
X293600Y378250D02*X294350Y377500D01*
X293600Y382750D02*Y378250D01*
Y382750D02*X294350Y383500D01*
X295850D01*
X296600Y382750D01*
Y378250D01*
X295850Y377500D02*X296600Y378250D01*
X294350Y377500D02*X295850D01*
X293600Y379000D02*X296600Y382000D01*
X298400Y382750D02*X299150Y383500D01*
X301400D01*
X302150Y382750D01*
Y381250D01*
X298400Y377500D02*X302150Y381250D01*
X298400Y377500D02*X302150D01*
X306650Y382750D02*X307400Y383500D01*
X309650D01*
X310400Y382750D01*
Y381250D01*
X306650Y377500D02*X310400Y381250D01*
X306650Y377500D02*X310400D01*
X312200Y378250D02*X312950Y377500D01*
X312200Y382750D02*Y378250D01*
Y382750D02*X312950Y383500D01*
X314450D01*
X315200Y382750D01*
Y378250D01*
X314450Y377500D02*X315200Y378250D01*
X312950Y377500D02*X314450D01*
X312200Y379000D02*X315200Y382000D01*
X317000Y382750D02*X317750Y383500D01*
X320000D01*
X320750Y382750D01*
Y381250D01*
X317000Y377500D02*X320750Y381250D01*
X317000Y377500D02*X320750D01*
X322550Y378250D02*X323300Y377500D01*
X322550Y382750D02*Y378250D01*
Y382750D02*X323300Y383500D01*
X324800D01*
X325550Y382750D01*
Y378250D01*
X324800Y377500D02*X325550Y378250D01*
X323300Y377500D02*X324800D01*
X322550Y379000D02*X325550Y382000D01*
X330050Y383500D02*Y378250D01*
X330800Y377500D01*
X332300D01*
X333050Y378250D01*
Y383500D02*Y378250D01*
X334850Y383500D02*X337850D01*
X336350D02*Y377500D01*
X340700D02*X342650D01*
X339650Y378550D02*X340700Y377500D01*
X339650Y382450D02*Y378550D01*
Y382450D02*X340700Y383500D01*
X342650D01*
X200000Y397000D02*Y392500D01*
Y397000D02*X201050Y398500D01*
X202700D01*
X203750Y397000D01*
Y392500D01*
X200000Y395500D02*X203750D01*
X205550D02*Y393250D01*
X206300Y392500D01*
X207800D01*
X208550Y393250D01*
Y395500D02*Y393250D01*
X211100Y398500D02*Y393250D01*
X211850Y392500D01*
X210350Y396250D02*X211850D01*
X213350Y398500D02*Y392500D01*
Y394750D02*X214100Y395500D01*
X215600D01*
X216350Y394750D01*
Y392500D01*
X218150Y394750D02*Y393250D01*
Y394750D02*X218900Y395500D01*
X220400D01*
X221150Y394750D01*
Y393250D01*
X220400Y392500D02*X221150Y393250D01*
X218900Y392500D02*X220400D01*
X218150Y393250D02*X218900Y392500D01*
X223700Y394750D02*Y392500D01*
Y394750D02*X224450Y395500D01*
X225950D01*
X222950D02*X223700Y394750D01*
X227750Y396250D02*X228500D01*
X227750Y394750D02*X228500D01*
X233000Y398500D02*Y392500D01*
Y395500D02*X236000Y398500D01*
X233000Y395500D02*X236000Y392500D01*
X238550D02*X240800D01*
X237800Y393250D02*X238550Y392500D01*
X237800Y394750D02*Y393250D01*
Y394750D02*X238550Y395500D01*
X240050D01*
X240800Y394750D01*
X237800Y394000D02*X240800D01*
Y394750D02*Y394000D01*
X242600Y395500D02*X244100Y392500D01*
X245600Y395500D02*X244100Y392500D01*
G54D76*X247400Y397000D02*Y396850D01*
G54D75*Y394750D02*Y392500D01*
X249650Y394750D02*Y392500D01*
Y394750D02*X250400Y395500D01*
X251150D01*
X251900Y394750D01*
Y392500D01*
X248900Y395500D02*X249650Y394750D01*
X257450Y398500D02*X258650D01*
Y393250D01*
X257900Y392500D02*X258650Y393250D01*
X257150Y392500D02*X257900D01*
X256400Y393250D02*X257150Y392500D01*
X256400Y394000D02*Y393250D01*
X260450Y394750D02*Y393250D01*
Y394750D02*X261200Y395500D01*
X262700D01*
X263450Y394750D01*
Y393250D01*
X262700Y392500D02*X263450Y393250D01*
X261200Y392500D02*X262700D01*
X260450Y393250D02*X261200Y392500D01*
X265250Y398500D02*Y392500D01*
Y394750D02*X266000Y395500D01*
X267500D01*
X268250Y394750D01*
Y392500D01*
X270800Y394750D02*Y392500D01*
Y394750D02*X271550Y395500D01*
X272300D01*
X273050Y394750D01*
Y392500D01*
X270050Y395500D02*X270800Y394750D01*
X275600Y392500D02*X277850D01*
X278600Y393250D01*
X277850Y394000D02*X278600Y393250D01*
X275600Y394000D02*X277850D01*
X274850Y394750D02*X275600Y394000D01*
X274850Y394750D02*X275600Y395500D01*
X277850D01*
X278600Y394750D01*
X274850Y393250D02*X275600Y392500D01*
X280400Y394750D02*Y393250D01*
Y394750D02*X281150Y395500D01*
X282650D01*
X283400Y394750D01*
Y393250D01*
X282650Y392500D02*X283400Y393250D01*
X281150Y392500D02*X282650D01*
X280400Y393250D02*X281150Y392500D01*
X285950Y394750D02*Y392500D01*
Y394750D02*X286700Y395500D01*
X287450D01*
X288200Y394750D01*
Y392500D01*
X285200Y395500D02*X285950Y394750D01*
X200000Y413500D02*X203000D01*
X201500D02*Y407500D01*
G54D76*X204800Y412000D02*Y411850D01*
G54D75*Y409750D02*Y407500D01*
X207050Y413500D02*Y408250D01*
X207800Y407500D01*
X206300Y411250D02*X207800D01*
X209300Y413500D02*Y408250D01*
X210050Y407500D01*
X212300D02*X214550D01*
X211550Y408250D02*X212300Y407500D01*
X211550Y409750D02*Y408250D01*
Y409750D02*X212300Y410500D01*
X213800D01*
X214550Y409750D01*
X211550Y409000D02*X214550D01*
Y409750D02*Y409000D01*
X216350Y411250D02*X217100D01*
X216350Y409750D02*X217100D01*
X221600Y408250D02*X222350Y407500D01*
X221600Y412750D02*X222350Y413500D01*
X221600Y412750D02*Y408250D01*
X224150Y410500D02*Y408250D01*
X224900Y407500D01*
X226400D01*
X227150Y408250D01*
Y410500D02*Y408250D01*
X229700Y409750D02*Y407500D01*
Y409750D02*X230450Y410500D01*
X231200D01*
X231950Y409750D01*
Y407500D01*
X228950Y410500D02*X229700Y409750D01*
X233750Y413500D02*Y407500D01*
Y409750D02*X236000Y407500D01*
X233750Y409750D02*X235250Y411250D01*
X238550Y409750D02*Y407500D01*
Y409750D02*X239300Y410500D01*
X240050D01*
X240800Y409750D01*
Y407500D01*
X237800Y410500D02*X238550Y409750D01*
X242600D02*Y408250D01*
Y409750D02*X243350Y410500D01*
X244850D01*
X245600Y409750D01*
Y408250D01*
X244850Y407500D02*X245600Y408250D01*
X243350Y407500D02*X244850D01*
X242600Y408250D02*X243350Y407500D01*
X247400Y410500D02*Y408250D01*
X248150Y407500D01*
X248900D01*
X249650Y408250D01*
Y410500D02*Y408250D01*
X250400Y407500D01*
X251150D01*
X251900Y408250D01*
Y410500D02*Y408250D01*
X254450Y409750D02*Y407500D01*
Y409750D02*X255200Y410500D01*
X255950D01*
X256700Y409750D01*
Y407500D01*
X253700Y410500D02*X254450Y409750D01*
X258500Y413500D02*X259250Y412750D01*
Y408250D01*
X258500Y407500D02*X259250Y408250D01*
X263750Y410500D02*X266750D01*
X271250Y413500D02*Y407500D01*
Y413500D02*X274250D01*
X271250Y410800D02*X273500D01*
X278300Y410500D02*X279050Y409750D01*
X276800Y410500D02*X278300D01*
X276050Y409750D02*X276800Y410500D01*
X276050Y409750D02*Y408250D01*
X276800Y407500D01*
X279050Y410500D02*Y408250D01*
X279800Y407500D01*
X276800D02*X278300D01*
X279050Y408250D01*
X281600Y413500D02*Y407500D01*
Y408250D02*X282350Y407500D01*
X283850D01*
X284600Y408250D01*
Y409750D02*Y408250D01*
X283850Y410500D02*X284600Y409750D01*
X282350Y410500D02*X283850D01*
X281600Y409750D02*X282350Y410500D01*
X287150Y409750D02*Y407500D01*
Y409750D02*X287900Y410500D01*
X289400D01*
X286400D02*X287150Y409750D01*
G54D76*X291200Y412000D02*Y411850D01*
G54D75*Y409750D02*Y407500D01*
X293450Y410500D02*X295700D01*
X292700Y409750D02*X293450Y410500D01*
X292700Y409750D02*Y408250D01*
X293450Y407500D01*
X295700D01*
X299750Y410500D02*X300500Y409750D01*
X298250Y410500D02*X299750D01*
X297500Y409750D02*X298250Y410500D01*
X297500Y409750D02*Y408250D01*
X298250Y407500D01*
X300500Y410500D02*Y408250D01*
X301250Y407500D01*
X298250D02*X299750D01*
X300500Y408250D01*
X303800Y413500D02*Y408250D01*
X304550Y407500D01*
X303050Y411250D02*X304550D01*
G54D76*X306050Y412000D02*Y411850D01*
G54D75*Y409750D02*Y407500D01*
X307550Y409750D02*Y408250D01*
Y409750D02*X308300Y410500D01*
X309800D01*
X310550Y409750D01*
Y408250D01*
X309800Y407500D02*X310550Y408250D01*
X308300Y407500D02*X309800D01*
X307550Y408250D02*X308300Y407500D01*
X313100Y409750D02*Y407500D01*
Y409750D02*X313850Y410500D01*
X314600D01*
X315350Y409750D01*
Y407500D01*
X312350Y410500D02*X313100Y409750D01*
X320600Y413500D02*Y407500D01*
X322550Y413500D02*X323600Y412450D01*
Y408550D01*
X322550Y407500D02*X323600Y408550D01*
X319850Y407500D02*X322550D01*
X319850Y413500D02*X322550D01*
X326150Y409750D02*Y407500D01*
Y409750D02*X326900Y410500D01*
X328400D01*
X325400D02*X326150Y409750D01*
X332450Y410500D02*X333200Y409750D01*
X330950Y410500D02*X332450D01*
X330200Y409750D02*X330950Y410500D01*
X330200Y409750D02*Y408250D01*
X330950Y407500D01*
X333200Y410500D02*Y408250D01*
X333950Y407500D01*
X330950D02*X332450D01*
X333200Y408250D01*
X335750Y410500D02*Y408250D01*
X336500Y407500D01*
X337250D01*
X338000Y408250D01*
Y410500D02*Y408250D01*
X338750Y407500D01*
X339500D01*
X340250Y408250D01*
Y410500D02*Y408250D01*
G54D76*X342050Y412000D02*Y411850D01*
G54D75*Y409750D02*Y407500D01*
X344300Y409750D02*Y407500D01*
Y409750D02*X345050Y410500D01*
X345800D01*
X346550Y409750D01*
Y407500D01*
X343550Y410500D02*X344300Y409750D01*
X350600Y410500D02*X351350Y409750D01*
X349100Y410500D02*X350600D01*
X348350Y409750D02*X349100Y410500D01*
X348350Y409750D02*Y408250D01*
X349100Y407500D01*
X350600D01*
X351350Y408250D01*
X348350Y406000D02*X349100Y405250D01*
X350600D01*
X351350Y406000D01*
Y410500D02*Y406000D01*
M02*
