M48
INCH
T48C0.017
T47C0.060
T46C0.035
T45C0.020
T44C0.125
T43C0.041
T42C0.030
T41C0.130
%
T48
X001900Y008300
X001900Y007800
X001900Y007300
X001900Y006800
X001900Y006300
X002400Y008300
X002400Y007800
X002400Y007300
X002400Y006800
X002400Y006300
T45
X005700Y005200
X005800Y033500
X006300Y034500
X008100Y020300
X008100Y013800
X009800Y020300
X016200Y014700
X016200Y010700
X021800Y014700
X021800Y010700
T42
X015200Y029500
X015200Y025500
X020800Y029500
X020800Y025500
T46
X001000Y001300
X002100Y003400
X002700Y002500
X003000Y022500
X003000Y020138
X003700Y002500
X003900Y019200
X004400Y030500
X004500Y006700
X004700Y002500
X004850Y021319
X005700Y002500
X006700Y002500
X007200Y007400
X007700Y030500
X007700Y002500
X008700Y002500
X009500Y019300
X009500Y016500
X009700Y012400
X009700Y011400
X009700Y010400
X009700Y009400
X009700Y008400
X009700Y007400
X009700Y006400
X009700Y005400
X009700Y002500
X013200Y011300
X013200Y010300
X018000Y015600
X023600Y015600
T43
X011300Y029800
X011300Y028800
X011300Y027800
X011300Y026800
X011300Y025800
X011300Y024800
X011300Y023800
X011300Y022800
X011300Y021800
X011300Y020800
X011300Y019800
X011300Y018800
X011300Y017800
X011300Y016800
X011300Y015800
X011300Y014800
X011300Y013800
X011300Y012800
X011300Y011800
X011300Y010800
X011300Y009800
X011300Y008800
X011300Y007800
X012300Y029800
X012300Y028800
X012300Y027800
X012300Y026800
X012300Y025800
X012300Y024800
X012300Y023800
X012300Y022800
X012300Y021800
X012300Y020800
X012300Y019800
X012300Y018800
X012300Y017800
X012300Y016800
X012300Y015800
X012300Y014800
X012300Y013800
X012300Y012800
X012300Y011800
X012300Y010800
X012300Y009800
X012300Y008800
X012300Y007800
X030300Y029800
X030300Y028800
X030300Y027800
X030300Y026800
X030300Y025800
X030300Y024800
X030300Y023800
X030300Y022800
X030300Y021800
X030300Y020800
X030300Y019800
X030300Y018800
X030300Y017800
X030300Y016800
X030300Y015800
X030300Y014800
X030300Y013800
X030300Y012800
X030300Y011800
X030300Y010800
X030300Y009800
X030300Y008800
X030300Y007800
X031300Y029800
X031300Y028800
X031300Y027800
X031300Y026800
X031300Y025800
X031300Y024800
X031300Y023800
X031300Y022800
X031300Y021800
X031300Y020800
X031300Y019800
X031300Y018800
X031300Y017800
X031300Y016800
X031300Y015800
X031300Y014800
X031300Y013800
X031300Y012800
X031300Y011800
X031300Y010800
X031300Y009800
X031300Y008800
X031300Y007800
T47
X015200Y016400
X016200Y016400
X017200Y016400
X020800Y016400
X021800Y016400
X022800Y016400
T44
X011800Y005800
X013050Y031800
X029550Y031800
X030800Y005800
T41
X016200Y023100
X021800Y023100
M30
