G04 start of page 10 for group -4015 idx -4015 *
G04 Title: Motor Controller, toppaste *
G04 Creator: pcb 4.0.2 *
G04 CreationDate: Wed Aug 19 04:53:54 2020 UTC *
G04 For: kevin *
G04 Format: Gerber/RS-274X *
G04 PCB-Dimensions (mil): 3300.00 3900.00 *
G04 PCB-Coordinate-Origin: lower left *
%MOIN*%
%FSLAX25Y25*%
%LNTOPPASTE*%
%ADD72C,0.0001*%
G54D72*G36*
X278500Y211500D02*Y208500D01*
X287000D01*
Y211500D01*
X278500D01*
G37*
G36*
X265000D02*Y208500D01*
X273500D01*
Y211500D01*
X265000D01*
G37*
G36*
X278500Y216500D02*Y213500D01*
X287000D01*
Y216500D01*
X278500D01*
G37*
G36*
X265000D02*Y213500D01*
X273500D01*
Y216500D01*
X265000D01*
G37*
G36*
X278500Y221500D02*Y218500D01*
X287000D01*
Y221500D01*
X278500D01*
G37*
G36*
X265000D02*Y218500D01*
X273500D01*
Y221500D01*
X265000D01*
G37*
G36*
X278500Y226500D02*Y223500D01*
X287000D01*
Y226500D01*
X278500D01*
G37*
G36*
X265000D02*Y223500D01*
X273500D01*
Y226500D01*
X265000D01*
G37*
G36*
X278500Y231500D02*Y228500D01*
X287000D01*
Y231500D01*
X278500D01*
G37*
G36*
X265000D02*Y228500D01*
X273500D01*
Y231500D01*
X265000D01*
G37*
M02*
