M48
INCH
T48C0.125
T47C0.060
T46C0.035
T45C0.041
T44C0.130
T43C0.020
T42C0.030
%
T43
X005000Y026000
X005000Y021750
X005000Y017500
X005000Y013250
X009000Y026000
X009000Y021750
X009000Y017500
X009000Y013250
T42
X005000Y024000
X005000Y019750
X005000Y015500
X005000Y011250
X009000Y024000
X009000Y019750
X009000Y015500
X009000Y011250
T46
X004250Y012500
X006500Y010250
X007750Y011500
X008000Y009000
X008000Y007000
X008000Y004000
X009000Y009000
X009000Y007000
X009000Y004000
X010000Y009000
X010000Y007000
X010000Y004000
X011000Y009000
X011000Y007000
X011000Y004000
X012000Y009000
X012000Y007000
X012000Y004000
X013000Y009000
X013000Y007000
X013000Y004000
X014000Y009000
X014000Y007000
X014000Y004000
X014250Y025000
X014250Y020750
X014250Y012250
X015000Y009000
X015000Y007000
X015000Y004000
X016750Y007500
X017400Y031569
X018250Y008250
X019250Y032750
X019250Y030388
T45
X002000Y028000
X002000Y027000
X002000Y026000
X002000Y025000
X002000Y024000
X002000Y023000
X002000Y022000
X002000Y021000
X002000Y020000
X002000Y019000
X002000Y018000
X002000Y017000
X002000Y016000
X002000Y015000
X002000Y014000
X002000Y013000
X002000Y012000
X002000Y011000
X002000Y010000
X002000Y009000
X002000Y008000
X002000Y007000
X002000Y006000
X003000Y028000
X003000Y027000
X003000Y026000
X003000Y025000
X003000Y024000
X003000Y023000
X003000Y022000
X003000Y021000
X003000Y020000
X003000Y019000
X003000Y018000
X003000Y017000
X003000Y016000
X003000Y015000
X003000Y014000
X003000Y013000
X003000Y012000
X003000Y011000
X003000Y010000
X003000Y009000
X003000Y008000
X003000Y007000
X003000Y006000
X021000Y028000
X021000Y027000
X021000Y026000
X021000Y025000
X021000Y024000
X021000Y023000
X021000Y022000
X021000Y021000
X021000Y020000
X021000Y019000
X021000Y018000
X021000Y017000
X021000Y016000
X021000Y015000
X021000Y014000
X021000Y013000
X021000Y012000
X021000Y011000
X021000Y010000
X021000Y009000
X021000Y008000
X021000Y007000
X021000Y006000
X022000Y028000
X022000Y027000
X022000Y026000
X022000Y025000
X022000Y024000
X022000Y023000
X022000Y022000
X022000Y021000
X022000Y020000
X022000Y019000
X022000Y018000
X022000Y017000
X022000Y016000
X022000Y015000
X022000Y014000
X022000Y013000
X022000Y012000
X022000Y011000
X022000Y010000
X022000Y009000
X022000Y008000
X022000Y007000
X022000Y006000
T47
X019000Y026000
X019000Y025000
X019000Y024000
X019000Y021750
X019000Y020750
X019000Y019750
X019000Y017500
X019000Y016500
X019000Y015500
X019000Y013250
X019000Y012250
X019000Y011250
T48
X002500Y030000
X003750Y004000
X020250Y004000
X021500Y030000
T44
X012300Y025000
X012300Y020750
X012300Y016500
X012300Y012250
M30
