G04 start of page 3 for group 1 idx 1 *
G04 Title: (unknown), bottom *
G04 Creator: pcb 4.0.2 *
G04 CreationDate: Fri Mar 27 01:18:50 2020 UTC *
G04 For: kevin *
G04 Format: Gerber/RS-274X *
G04 PCB-Dimensions (mil): 6000.00 5000.00 *
G04 PCB-Coordinate-Origin: lower left *
%MOIN*%
%FSLAX25Y25*%
%LNBOTTOM*%
%ADD40C,0.1250*%
%ADD39C,0.0410*%
%ADD38C,0.1300*%
%ADD37C,0.0200*%
%ADD36C,0.0300*%
%ADD35C,0.0350*%
%ADD34C,0.1530*%
%ADD33C,0.0800*%
%ADD32C,0.0600*%
%ADD31C,0.0690*%
%ADD30C,0.1500*%
%ADD29C,0.0500*%
%ADD28C,0.0550*%
%ADD27C,0.0001*%
%ADD26C,0.0110*%
G54D26*X57500Y210000D02*Y182500D01*
Y167500D02*Y140000D01*
Y117500D02*Y92500D01*
Y182500D02*X50000Y175000D01*
X57500Y167500D01*
Y140000D02*X50000Y132500D01*
Y125000D01*
X57500Y117500D01*
X37500Y242500D02*Y130000D01*
X42500Y125000D01*
X50000Y260000D02*X57500Y252500D01*
Y225000D01*
X50000Y217500D01*
X20000Y260000D02*X25000Y265000D01*
X40000D01*
X45000Y260000D01*
X50000D01*
Y217500D02*X57500Y210000D01*
X182500Y265000D02*X55000D01*
X182500D02*X192500Y275000D01*
Y303878D02*Y275000D01*
X50000Y260000D02*X55000Y265000D01*
X20000Y250000D02*X25000Y245000D01*
X35000D01*
X37500Y242500D01*
X87500Y62500D02*X92500D01*
X100000Y70000D01*
X107500Y62500D01*
X57500Y92500D02*X87500Y62500D01*
X107500D02*X112500D01*
X120000Y70000D01*
X127500Y62500D01*
X132500D01*
X140000Y70000D01*
X87500Y62500D02*Y47500D01*
X80000Y40000D01*
X87500Y47500D02*X92500D01*
X100000Y40000D01*
X107500Y47500D01*
X112500D02*X120000Y40000D01*
X127500Y47500D01*
X132500D01*
X140000Y40000D01*
X107500Y47500D02*X112500D01*
X192500Y327500D02*X197500Y322500D01*
X170000Y270000D02*X180000Y280000D01*
Y315000D01*
X190000Y260000D02*X197500Y267500D01*
X190000Y217500D02*X192500D01*
X197500Y222500D01*
X190000Y260000D02*X197500Y252500D01*
Y222500D01*
Y267500D02*Y322500D01*
X180000Y315000D02*X192500Y327500D01*
X52500Y270000D02*X170000D01*
X25000Y285000D02*X37500D01*
X52500Y270000D01*
X20000Y280000D02*X25000Y285000D01*
X197500Y167500D02*X190000Y175000D01*
X197500Y182500D01*
Y210000D01*
Y140000D02*Y167500D01*
Y210000D02*X190000Y217500D01*
X117500Y97500D02*X110000Y90000D01*
X102500Y97500D01*
X87500D01*
X80000Y90000D01*
X117500Y97500D02*X190000D01*
X197500Y105000D01*
Y125000D01*
X190000Y132500D01*
X197500Y140000D01*
X90000Y112500D02*X190000D01*
Y155000D02*X90000D01*
X190000Y122500D02*X142500D01*
X132500Y132500D01*
X190000Y165000D02*X142500D01*
X132500Y175000D01*
Y132500D02*X90000D01*
X167500Y75000D02*X115000D01*
X100000Y90000D02*X115000Y75000D01*
X137500Y82500D02*X130000Y90000D01*
X182500Y82500D02*X137500D01*
X65000Y102500D02*X77500Y115000D01*
X190000Y197500D02*X90000D01*
X190000Y207500D02*X142500D01*
X132500Y217500D01*
X90000D01*
X190000Y240000D02*X90000D01*
X190000Y250000D02*X142500D01*
X132500Y260000D01*
X90000D01*
X132500Y175000D02*X90000D01*
G54D27*G36*
X87250Y242750D02*Y237250D01*
X92750D01*
Y242750D01*
X87250D01*
G37*
G54D28*X50000Y240000D03*
G54D27*G36*
X87500Y262500D02*Y257500D01*
X92500D01*
Y262500D01*
X87500D01*
G37*
G54D29*X50000Y260000D03*
G54D27*G36*
X87250Y200250D02*Y194750D01*
X92750D01*
Y200250D01*
X87250D01*
G37*
G36*
X87500Y177500D02*Y172500D01*
X92500D01*
Y177500D01*
X87500D01*
G37*
G36*
X87250Y157750D02*Y152250D01*
X92750D01*
Y157750D01*
X87250D01*
G37*
G36*
X87500Y220000D02*Y215000D01*
X92500D01*
Y220000D01*
X87500D01*
G37*
G54D30*X123000Y165000D03*
Y207500D03*
G54D31*X30000Y280000D03*
X20000D03*
Y270000D03*
Y260000D03*
Y250000D03*
Y240000D03*
Y230000D03*
Y220000D03*
X30000Y270000D03*
Y260000D03*
Y250000D03*
Y240000D03*
Y230000D03*
Y220000D03*
G54D28*X50000Y197500D03*
G54D29*Y175000D03*
G54D28*Y155000D03*
G54D29*Y217500D03*
G54D31*X20000Y210000D03*
X30000D03*
Y200000D03*
Y190000D03*
Y180000D03*
X20000Y200000D03*
Y190000D03*
Y180000D03*
Y170000D03*
Y160000D03*
Y150000D03*
Y140000D03*
X30000Y170000D03*
Y160000D03*
Y150000D03*
Y140000D03*
G54D32*X150000Y90000D03*
G54D27*G36*
X186000Y159000D02*Y151000D01*
X194000D01*
Y159000D01*
X186000D01*
G37*
G54D33*X190000Y165000D03*
G54D27*G36*
X186000Y116500D02*Y108500D01*
X194000D01*
Y116500D01*
X186000D01*
G37*
G54D33*X190000Y122500D03*
Y132500D03*
G54D27*G36*
X87500Y135000D02*Y130000D01*
X92500D01*
Y135000D01*
X87500D01*
G37*
G36*
X87250Y115250D02*Y109750D01*
X92750D01*
Y115250D01*
X87250D01*
G37*
G54D29*X50000Y132500D03*
G54D28*Y112500D03*
G54D30*X123000Y122500D03*
G54D31*X20000Y130000D03*
X30000D03*
Y120000D03*
Y110000D03*
Y100000D03*
X20000Y120000D03*
Y110000D03*
Y100000D03*
G54D27*G36*
X186000Y244000D02*Y236000D01*
X194000D01*
Y244000D01*
X186000D01*
G37*
G54D33*X190000Y250000D03*
Y260000D03*
G54D30*X123000Y250000D03*
G54D32*X173996Y315689D03*
X192500Y303878D03*
Y327500D03*
G54D31*X210000Y270000D03*
G54D34*X25000Y300000D03*
X215000D03*
G54D31*X210000Y280000D03*
G54D32*X80000Y90000D03*
X90000D03*
X100000D03*
X120000Y40000D03*
X130000D03*
X110000D03*
X100000D03*
X90000D03*
X80000D03*
X110000Y70000D03*
X100000D03*
X90000D03*
X80000D03*
G54D31*X30000Y60000D03*
Y70000D03*
G54D34*X37500Y40000D03*
G54D31*X20000Y60000D03*
Y70000D03*
Y90000D03*
Y80000D03*
X30000Y90000D03*
Y80000D03*
G54D32*X110000Y90000D03*
X120000D03*
X130000D03*
X140000D03*
X150000Y40000D03*
Y70000D03*
X140000Y40000D03*
X120000Y70000D03*
X140000D03*
X130000D03*
G54D31*X210000Y60000D03*
Y90000D03*
Y80000D03*
Y70000D03*
G54D34*X202500Y40000D03*
G54D31*X220000Y60000D03*
Y70000D03*
Y80000D03*
Y90000D03*
G54D33*X190000Y175000D03*
G54D27*G36*
X186000Y201500D02*Y193500D01*
X194000D01*
Y201500D01*
X186000D01*
G37*
G54D33*X190000Y207500D03*
Y217500D03*
G54D31*X220000Y280000D03*
Y260000D03*
Y250000D03*
Y270000D03*
X210000Y260000D03*
Y250000D03*
Y240000D03*
Y230000D03*
Y220000D03*
Y210000D03*
Y200000D03*
X220000Y180000D03*
Y190000D03*
Y200000D03*
Y210000D03*
Y220000D03*
Y230000D03*
Y240000D03*
X210000Y190000D03*
Y180000D03*
Y170000D03*
Y160000D03*
X220000Y140000D03*
Y150000D03*
Y160000D03*
Y170000D03*
X210000Y150000D03*
Y140000D03*
Y130000D03*
Y120000D03*
Y110000D03*
X220000D03*
X210000Y100000D03*
X220000D03*
Y120000D03*
Y130000D03*
G54D32*X142500Y122500D03*
Y207500D03*
X42500Y125000D03*
X142500Y250000D03*
X77500Y115000D03*
X182500Y82500D03*
X167500Y75000D03*
X65000Y102500D03*
G54D35*G54D36*G54D37*G54D36*G54D37*G54D36*G54D37*G54D38*G54D39*G54D36*G54D37*G54D36*G54D37*G54D39*G54D35*G54D32*G54D37*G54D36*G54D37*G54D36*G54D38*G54D39*G54D32*G54D38*G54D35*G54D39*G54D40*G54D39*G54D35*G54D39*G54D40*G54D39*G54D35*G54D39*G54D40*G54D39*G54D32*G54D39*M02*
