G04 start of page 9 for group -3984 idx -3984 *
G04 Title: (unknown), fab *
G04 Creator: pcb 4.0.2 *
G04 CreationDate: Fri Mar 27 01:18:50 2020 UTC *
G04 For: kevin *
G04 Format: Gerber/RS-274X *
G04 PCB-Dimensions (mil): 6000.00 5000.00 *
G04 PCB-Coordinate-Origin: lower left *
%MOIN*%
%FSLAX25Y25*%
%LNFAB*%
%ADD73C,0.0100*%
%ADD72C,0.0075*%
%ADD71C,0.0060*%
%ADD70C,0.0080*%
G54D70*X123000Y253200D02*Y246800D01*
X119800Y250000D02*X126200D01*
X121400Y251600D02*X124600D01*
X121400D02*Y248400D01*
X124600D01*
Y251600D02*Y248400D01*
X123000Y168200D02*Y161800D01*
X119800Y165000D02*X126200D01*
X121400Y166600D02*X124600D01*
X121400D02*Y163400D01*
X124600D01*
Y166600D02*Y163400D01*
X123000Y125700D02*Y119300D01*
X119800Y122500D02*X126200D01*
X121400Y124100D02*X124600D01*
X121400D02*Y120900D01*
X124600D01*
Y124100D02*Y120900D01*
X123000Y210700D02*Y204300D01*
X119800Y207500D02*X126200D01*
X121400Y209100D02*X124600D01*
X121400D02*Y205900D01*
X124600D01*
Y209100D02*Y205900D01*
X15000Y514450D02*Y508050D01*
X11800Y511250D02*X18200D01*
X13400Y512850D02*X16600D01*
X13400D02*Y509650D01*
X16600D01*
Y512850D02*Y509650D01*
G54D71*X135000Y513500D02*X136500Y510500D01*
X138000Y513500D01*
X136500Y510500D02*Y507500D01*
X139800Y510800D02*X142050D01*
X139800Y507500D02*X142800D01*
X139800Y513500D02*Y507500D01*
Y513500D02*X142800D01*
X147600D02*X148350Y512750D01*
X145350Y513500D02*X147600D01*
X144600Y512750D02*X145350Y513500D01*
X144600Y512750D02*Y511250D01*
X145350Y510500D01*
X147600D01*
X148350Y509750D01*
Y508250D01*
X147600Y507500D02*X148350Y508250D01*
X145350Y507500D02*X147600D01*
X144600Y508250D02*X145350Y507500D01*
X98000Y509750D02*X101000Y513500D01*
X98000Y509750D02*X101750D01*
X101000Y513500D02*Y507500D01*
X45000Y508250D02*X45750Y507500D01*
X45000Y512750D02*Y508250D01*
Y512750D02*X45750Y513500D01*
X47250D01*
X48000Y512750D01*
Y508250D01*
X47250Y507500D02*X48000Y508250D01*
X45750Y507500D02*X47250D01*
X45000Y509000D02*X48000Y512000D01*
X49800Y507500D02*X50550D01*
X52350Y512300D02*X53550Y513500D01*
Y507500D01*
X52350D02*X54600D01*
X56400Y512750D02*X57150Y513500D01*
X58650D01*
X59400Y512750D01*
X58650Y507500D02*X59400Y508250D01*
X57150Y507500D02*X58650D01*
X56400Y508250D02*X57150Y507500D01*
Y510800D02*X58650D01*
X59400Y512750D02*Y511550D01*
Y510050D02*Y508250D01*
Y510050D02*X58650Y510800D01*
X59400Y511550D02*X58650Y510800D01*
X61200Y508250D02*X61950Y507500D01*
X61200Y512750D02*Y508250D01*
Y512750D02*X61950Y513500D01*
X63450D01*
X64200Y512750D01*
Y508250D01*
X63450Y507500D02*X64200Y508250D01*
X61950Y507500D02*X63450D01*
X61200Y509000D02*X64200Y512000D01*
X25000Y300000D02*Y296800D01*
Y300000D02*X27773Y301600D01*
X25000Y300000D02*X22227Y301600D01*
X23400Y300000D02*G75*G03X26600Y300000I1600J0D01*G01*
G75*G03X23400Y300000I-1600J0D01*G01*
X215000D02*Y296800D01*
Y300000D02*X217773Y301600D01*
X215000Y300000D02*X212227Y301600D01*
X213400Y300000D02*G75*G03X216600Y300000I1600J0D01*G01*
G75*G03X213400Y300000I-1600J0D01*G01*
X202500Y40000D02*Y36800D01*
Y40000D02*X205273Y41600D01*
X202500Y40000D02*X199727Y41600D01*
X200900Y40000D02*G75*G03X204100Y40000I1600J0D01*G01*
G75*G03X200900Y40000I-1600J0D01*G01*
X37500D02*Y36800D01*
Y40000D02*X40273Y41600D01*
X37500Y40000D02*X34727Y41600D01*
X35900Y40000D02*G75*G03X39100Y40000I1600J0D01*G01*
G75*G03X35900Y40000I-1600J0D01*G01*
X15000Y526250D02*Y523050D01*
Y526250D02*X17773Y527850D01*
X15000Y526250D02*X12227Y527850D01*
X13400Y526250D02*G75*G03X16600Y526250I1600J0D01*G01*
G75*G03X13400Y526250I-1600J0D01*G01*
X135000Y528500D02*X136500Y525500D01*
X138000Y528500D01*
X136500Y525500D02*Y522500D01*
X139800Y525800D02*X142050D01*
X139800Y522500D02*X142800D01*
X139800Y528500D02*Y522500D01*
Y528500D02*X142800D01*
X147600D02*X148350Y527750D01*
X145350Y528500D02*X147600D01*
X144600Y527750D02*X145350Y528500D01*
X144600Y527750D02*Y526250D01*
X145350Y525500D01*
X147600D01*
X148350Y524750D01*
Y523250D01*
X147600Y522500D02*X148350Y523250D01*
X145350Y522500D02*X147600D01*
X144600Y523250D02*X145350Y522500D01*
X98000Y524750D02*X101000Y528500D01*
X98000Y524750D02*X101750D01*
X101000Y528500D02*Y522500D01*
X45000Y523250D02*X45750Y522500D01*
X45000Y527750D02*Y523250D01*
Y527750D02*X45750Y528500D01*
X47250D01*
X48000Y527750D01*
Y523250D01*
X47250Y522500D02*X48000Y523250D01*
X45750Y522500D02*X47250D01*
X45000Y524000D02*X48000Y527000D01*
X49800Y522500D02*X50550D01*
X52350Y527300D02*X53550Y528500D01*
Y522500D01*
X52350D02*X54600D01*
X56400Y527750D02*X57150Y528500D01*
X59400D01*
X60150Y527750D01*
Y526250D01*
X56400Y522500D02*X60150Y526250D01*
X56400Y522500D02*X60150D01*
X61950Y528500D02*X64950D01*
X61950D02*Y525500D01*
X62700Y526250D01*
X64200D01*
X64950Y525500D01*
Y523250D01*
X64200Y522500D02*X64950Y523250D01*
X62700Y522500D02*X64200D01*
X61950Y523250D02*X62700Y522500D01*
X188400Y241600D02*X191600D01*
X188400D02*Y238400D01*
X191600D01*
Y241600D02*Y238400D01*
X188400Y251600D02*X191600D01*
X188400D02*Y248400D01*
X191600D01*
Y251600D02*Y248400D01*
X188400Y261600D02*X191600D01*
X188400D02*Y258400D01*
X191600D01*
Y261600D02*Y258400D01*
X188400Y156600D02*X191600D01*
X188400D02*Y153400D01*
X191600D01*
Y156600D02*Y153400D01*
X188400Y166600D02*X191600D01*
X188400D02*Y163400D01*
X191600D01*
Y166600D02*Y163400D01*
X188400Y176600D02*X191600D01*
X188400D02*Y173400D01*
X191600D01*
Y176600D02*Y173400D01*
X188400Y114100D02*X191600D01*
X188400D02*Y110900D01*
X191600D01*
Y114100D02*Y110900D01*
X188400Y124100D02*X191600D01*
X188400D02*Y120900D01*
X191600D01*
Y124100D02*Y120900D01*
X188400Y134100D02*X191600D01*
X188400D02*Y130900D01*
X191600D01*
Y134100D02*Y130900D01*
X188400Y199100D02*X191600D01*
X188400D02*Y195900D01*
X191600D01*
Y199100D02*Y195900D01*
X188400Y209100D02*X191600D01*
X188400D02*Y205900D01*
X191600D01*
Y209100D02*Y205900D01*
X188400Y219100D02*X191600D01*
X188400D02*Y215900D01*
X191600D01*
Y219100D02*Y215900D01*
X13400Y542850D02*X16600D01*
X13400D02*Y539650D01*
X16600D01*
Y542850D02*Y539650D01*
X135000Y543500D02*X136500Y540500D01*
X138000Y543500D01*
X136500Y540500D02*Y537500D01*
X139800Y540800D02*X142050D01*
X139800Y537500D02*X142800D01*
X139800Y543500D02*Y537500D01*
Y543500D02*X142800D01*
X147600D02*X148350Y542750D01*
X145350Y543500D02*X147600D01*
X144600Y542750D02*X145350Y543500D01*
X144600Y542750D02*Y541250D01*
X145350Y540500D01*
X147600D01*
X148350Y539750D01*
Y538250D01*
X147600Y537500D02*X148350Y538250D01*
X145350Y537500D02*X147600D01*
X144600Y538250D02*X145350Y537500D01*
X98000Y542300D02*X99200Y543500D01*
Y537500D01*
X98000D02*X100250D01*
X102050Y542750D02*X102800Y543500D01*
X105050D01*
X105800Y542750D01*
Y541250D01*
X102050Y537500D02*X105800Y541250D01*
X102050Y537500D02*X105800D01*
X45000Y538250D02*X45750Y537500D01*
X45000Y542750D02*Y538250D01*
Y542750D02*X45750Y543500D01*
X47250D01*
X48000Y542750D01*
Y538250D01*
X47250Y537500D02*X48000Y538250D01*
X45750Y537500D02*X47250D01*
X45000Y539000D02*X48000Y542000D01*
X49800Y537500D02*X50550D01*
X52350Y538250D02*X53100Y537500D01*
X52350Y542750D02*Y538250D01*
Y542750D02*X53100Y543500D01*
X54600D01*
X55350Y542750D01*
Y538250D01*
X54600Y537500D02*X55350Y538250D01*
X53100Y537500D02*X54600D01*
X52350Y539000D02*X55350Y542000D01*
X59400Y543500D02*X60150Y542750D01*
X57900Y543500D02*X59400D01*
X57150Y542750D02*X57900Y543500D01*
X57150Y542750D02*Y538250D01*
X57900Y537500D01*
X59400Y540800D02*X60150Y540050D01*
X57150Y540800D02*X59400D01*
X57900Y537500D02*X59400D01*
X60150Y538250D01*
Y540050D02*Y538250D01*
X61950D02*X62700Y537500D01*
X61950Y542750D02*Y538250D01*
Y542750D02*X62700Y543500D01*
X64200D01*
X64950Y542750D01*
Y538250D01*
X64200Y537500D02*X64950Y538250D01*
X62700Y537500D02*X64200D01*
X61950Y539000D02*X64950Y542000D01*
X29200Y280000D02*G75*G03X30800Y280000I800J0D01*G01*
G75*G03X29200Y280000I-800J0D01*G01*
X19200D02*G75*G03X20800Y280000I800J0D01*G01*
G75*G03X19200Y280000I-800J0D01*G01*
X219200D02*G75*G03X220800Y280000I800J0D01*G01*
G75*G03X219200Y280000I-800J0D01*G01*
X209200Y60000D02*G75*G03X210800Y60000I800J0D01*G01*
G75*G03X209200Y60000I-800J0D01*G01*
X219200D02*G75*G03X220800Y60000I800J0D01*G01*
G75*G03X219200Y60000I-800J0D01*G01*
X29200D02*G75*G03X30800Y60000I800J0D01*G01*
G75*G03X29200Y60000I-800J0D01*G01*
X19200D02*G75*G03X20800Y60000I800J0D01*G01*
G75*G03X19200Y60000I-800J0D01*G01*
Y270000D02*G75*G03X20800Y270000I800J0D01*G01*
G75*G03X19200Y270000I-800J0D01*G01*
Y260000D02*G75*G03X20800Y260000I800J0D01*G01*
G75*G03X19200Y260000I-800J0D01*G01*
Y250000D02*G75*G03X20800Y250000I800J0D01*G01*
G75*G03X19200Y250000I-800J0D01*G01*
Y240000D02*G75*G03X20800Y240000I800J0D01*G01*
G75*G03X19200Y240000I-800J0D01*G01*
Y230000D02*G75*G03X20800Y230000I800J0D01*G01*
G75*G03X19200Y230000I-800J0D01*G01*
Y220000D02*G75*G03X20800Y220000I800J0D01*G01*
G75*G03X19200Y220000I-800J0D01*G01*
Y210000D02*G75*G03X20800Y210000I800J0D01*G01*
G75*G03X19200Y210000I-800J0D01*G01*
Y200000D02*G75*G03X20800Y200000I800J0D01*G01*
G75*G03X19200Y200000I-800J0D01*G01*
Y190000D02*G75*G03X20800Y190000I800J0D01*G01*
G75*G03X19200Y190000I-800J0D01*G01*
Y180000D02*G75*G03X20800Y180000I800J0D01*G01*
G75*G03X19200Y180000I-800J0D01*G01*
Y170000D02*G75*G03X20800Y170000I800J0D01*G01*
G75*G03X19200Y170000I-800J0D01*G01*
Y160000D02*G75*G03X20800Y160000I800J0D01*G01*
G75*G03X19200Y160000I-800J0D01*G01*
Y150000D02*G75*G03X20800Y150000I800J0D01*G01*
G75*G03X19200Y150000I-800J0D01*G01*
Y140000D02*G75*G03X20800Y140000I800J0D01*G01*
G75*G03X19200Y140000I-800J0D01*G01*
Y130000D02*G75*G03X20800Y130000I800J0D01*G01*
G75*G03X19200Y130000I-800J0D01*G01*
Y120000D02*G75*G03X20800Y120000I800J0D01*G01*
G75*G03X19200Y120000I-800J0D01*G01*
Y110000D02*G75*G03X20800Y110000I800J0D01*G01*
G75*G03X19200Y110000I-800J0D01*G01*
Y100000D02*G75*G03X20800Y100000I800J0D01*G01*
G75*G03X19200Y100000I-800J0D01*G01*
Y90000D02*G75*G03X20800Y90000I800J0D01*G01*
G75*G03X19200Y90000I-800J0D01*G01*
Y80000D02*G75*G03X20800Y80000I800J0D01*G01*
G75*G03X19200Y80000I-800J0D01*G01*
Y70000D02*G75*G03X20800Y70000I800J0D01*G01*
G75*G03X19200Y70000I-800J0D01*G01*
X29200Y270000D02*G75*G03X30800Y270000I800J0D01*G01*
G75*G03X29200Y270000I-800J0D01*G01*
Y260000D02*G75*G03X30800Y260000I800J0D01*G01*
G75*G03X29200Y260000I-800J0D01*G01*
Y250000D02*G75*G03X30800Y250000I800J0D01*G01*
G75*G03X29200Y250000I-800J0D01*G01*
Y240000D02*G75*G03X30800Y240000I800J0D01*G01*
G75*G03X29200Y240000I-800J0D01*G01*
Y230000D02*G75*G03X30800Y230000I800J0D01*G01*
G75*G03X29200Y230000I-800J0D01*G01*
Y220000D02*G75*G03X30800Y220000I800J0D01*G01*
G75*G03X29200Y220000I-800J0D01*G01*
Y210000D02*G75*G03X30800Y210000I800J0D01*G01*
G75*G03X29200Y210000I-800J0D01*G01*
Y200000D02*G75*G03X30800Y200000I800J0D01*G01*
G75*G03X29200Y200000I-800J0D01*G01*
Y190000D02*G75*G03X30800Y190000I800J0D01*G01*
G75*G03X29200Y190000I-800J0D01*G01*
Y180000D02*G75*G03X30800Y180000I800J0D01*G01*
G75*G03X29200Y180000I-800J0D01*G01*
Y170000D02*G75*G03X30800Y170000I800J0D01*G01*
G75*G03X29200Y170000I-800J0D01*G01*
Y160000D02*G75*G03X30800Y160000I800J0D01*G01*
G75*G03X29200Y160000I-800J0D01*G01*
Y150000D02*G75*G03X30800Y150000I800J0D01*G01*
G75*G03X29200Y150000I-800J0D01*G01*
Y140000D02*G75*G03X30800Y140000I800J0D01*G01*
G75*G03X29200Y140000I-800J0D01*G01*
Y130000D02*G75*G03X30800Y130000I800J0D01*G01*
G75*G03X29200Y130000I-800J0D01*G01*
Y120000D02*G75*G03X30800Y120000I800J0D01*G01*
G75*G03X29200Y120000I-800J0D01*G01*
Y110000D02*G75*G03X30800Y110000I800J0D01*G01*
G75*G03X29200Y110000I-800J0D01*G01*
Y100000D02*G75*G03X30800Y100000I800J0D01*G01*
G75*G03X29200Y100000I-800J0D01*G01*
Y90000D02*G75*G03X30800Y90000I800J0D01*G01*
G75*G03X29200Y90000I-800J0D01*G01*
Y80000D02*G75*G03X30800Y80000I800J0D01*G01*
G75*G03X29200Y80000I-800J0D01*G01*
Y70000D02*G75*G03X30800Y70000I800J0D01*G01*
G75*G03X29200Y70000I-800J0D01*G01*
X209200Y270000D02*G75*G03X210800Y270000I800J0D01*G01*
G75*G03X209200Y270000I-800J0D01*G01*
Y260000D02*G75*G03X210800Y260000I800J0D01*G01*
G75*G03X209200Y260000I-800J0D01*G01*
Y250000D02*G75*G03X210800Y250000I800J0D01*G01*
G75*G03X209200Y250000I-800J0D01*G01*
Y240000D02*G75*G03X210800Y240000I800J0D01*G01*
G75*G03X209200Y240000I-800J0D01*G01*
Y230000D02*G75*G03X210800Y230000I800J0D01*G01*
G75*G03X209200Y230000I-800J0D01*G01*
Y220000D02*G75*G03X210800Y220000I800J0D01*G01*
G75*G03X209200Y220000I-800J0D01*G01*
Y210000D02*G75*G03X210800Y210000I800J0D01*G01*
G75*G03X209200Y210000I-800J0D01*G01*
Y200000D02*G75*G03X210800Y200000I800J0D01*G01*
G75*G03X209200Y200000I-800J0D01*G01*
Y190000D02*G75*G03X210800Y190000I800J0D01*G01*
G75*G03X209200Y190000I-800J0D01*G01*
Y180000D02*G75*G03X210800Y180000I800J0D01*G01*
G75*G03X209200Y180000I-800J0D01*G01*
Y170000D02*G75*G03X210800Y170000I800J0D01*G01*
G75*G03X209200Y170000I-800J0D01*G01*
Y160000D02*G75*G03X210800Y160000I800J0D01*G01*
G75*G03X209200Y160000I-800J0D01*G01*
Y150000D02*G75*G03X210800Y150000I800J0D01*G01*
G75*G03X209200Y150000I-800J0D01*G01*
Y140000D02*G75*G03X210800Y140000I800J0D01*G01*
G75*G03X209200Y140000I-800J0D01*G01*
Y130000D02*G75*G03X210800Y130000I800J0D01*G01*
G75*G03X209200Y130000I-800J0D01*G01*
Y120000D02*G75*G03X210800Y120000I800J0D01*G01*
G75*G03X209200Y120000I-800J0D01*G01*
Y110000D02*G75*G03X210800Y110000I800J0D01*G01*
G75*G03X209200Y110000I-800J0D01*G01*
Y100000D02*G75*G03X210800Y100000I800J0D01*G01*
G75*G03X209200Y100000I-800J0D01*G01*
Y90000D02*G75*G03X210800Y90000I800J0D01*G01*
G75*G03X209200Y90000I-800J0D01*G01*
Y80000D02*G75*G03X210800Y80000I800J0D01*G01*
G75*G03X209200Y80000I-800J0D01*G01*
Y70000D02*G75*G03X210800Y70000I800J0D01*G01*
G75*G03X209200Y70000I-800J0D01*G01*
X219200D02*G75*G03X220800Y70000I800J0D01*G01*
G75*G03X219200Y70000I-800J0D01*G01*
Y80000D02*G75*G03X220800Y80000I800J0D01*G01*
G75*G03X219200Y80000I-800J0D01*G01*
Y90000D02*G75*G03X220800Y90000I800J0D01*G01*
G75*G03X219200Y90000I-800J0D01*G01*
Y100000D02*G75*G03X220800Y100000I800J0D01*G01*
G75*G03X219200Y100000I-800J0D01*G01*
Y110000D02*G75*G03X220800Y110000I800J0D01*G01*
G75*G03X219200Y110000I-800J0D01*G01*
Y120000D02*G75*G03X220800Y120000I800J0D01*G01*
G75*G03X219200Y120000I-800J0D01*G01*
Y140000D02*G75*G03X220800Y140000I800J0D01*G01*
G75*G03X219200Y140000I-800J0D01*G01*
Y130000D02*G75*G03X220800Y130000I800J0D01*G01*
G75*G03X219200Y130000I-800J0D01*G01*
Y150000D02*G75*G03X220800Y150000I800J0D01*G01*
G75*G03X219200Y150000I-800J0D01*G01*
Y160000D02*G75*G03X220800Y160000I800J0D01*G01*
G75*G03X219200Y160000I-800J0D01*G01*
Y170000D02*G75*G03X220800Y170000I800J0D01*G01*
G75*G03X219200Y170000I-800J0D01*G01*
Y180000D02*G75*G03X220800Y180000I800J0D01*G01*
G75*G03X219200Y180000I-800J0D01*G01*
Y190000D02*G75*G03X220800Y190000I800J0D01*G01*
G75*G03X219200Y190000I-800J0D01*G01*
Y200000D02*G75*G03X220800Y200000I800J0D01*G01*
G75*G03X219200Y200000I-800J0D01*G01*
Y210000D02*G75*G03X220800Y210000I800J0D01*G01*
G75*G03X219200Y210000I-800J0D01*G01*
Y220000D02*G75*G03X220800Y220000I800J0D01*G01*
G75*G03X219200Y220000I-800J0D01*G01*
Y230000D02*G75*G03X220800Y230000I800J0D01*G01*
G75*G03X219200Y230000I-800J0D01*G01*
Y240000D02*G75*G03X220800Y240000I800J0D01*G01*
G75*G03X219200Y240000I-800J0D01*G01*
Y260000D02*G75*G03X220800Y260000I800J0D01*G01*
G75*G03X219200Y260000I-800J0D01*G01*
Y250000D02*G75*G03X220800Y250000I800J0D01*G01*
G75*G03X219200Y250000I-800J0D01*G01*
Y270000D02*G75*G03X220800Y270000I800J0D01*G01*
G75*G03X219200Y270000I-800J0D01*G01*
X209200Y280000D02*G75*G03X210800Y280000I800J0D01*G01*
G75*G03X209200Y280000I-800J0D01*G01*
X14200Y556250D02*G75*G03X15800Y556250I800J0D01*G01*
G75*G03X14200Y556250I-800J0D01*G01*
X135000Y558500D02*X136500Y555500D01*
X138000Y558500D01*
X136500Y555500D02*Y552500D01*
X139800Y555800D02*X142050D01*
X139800Y552500D02*X142800D01*
X139800Y558500D02*Y552500D01*
Y558500D02*X142800D01*
X147600D02*X148350Y557750D01*
X145350Y558500D02*X147600D01*
X144600Y557750D02*X145350Y558500D01*
X144600Y557750D02*Y556250D01*
X145350Y555500D01*
X147600D01*
X148350Y554750D01*
Y553250D01*
X147600Y552500D02*X148350Y553250D01*
X145350Y552500D02*X147600D01*
X144600Y553250D02*X145350Y552500D01*
X98750D02*X101000Y555500D01*
Y557750D02*Y555500D01*
X100250Y558500D02*X101000Y557750D01*
X98750Y558500D02*X100250D01*
X98000Y557750D02*X98750Y558500D01*
X98000Y557750D02*Y556250D01*
X98750Y555500D01*
X101000D01*
X102800Y557750D02*X103550Y558500D01*
X105800D01*
X106550Y557750D01*
Y556250D01*
X102800Y552500D02*X106550Y556250D01*
X102800Y552500D02*X106550D01*
X45000Y553250D02*X45750Y552500D01*
X45000Y557750D02*Y553250D01*
Y557750D02*X45750Y558500D01*
X47250D01*
X48000Y557750D01*
Y553250D01*
X47250Y552500D02*X48000Y553250D01*
X45750Y552500D02*X47250D01*
X45000Y554000D02*X48000Y557000D01*
X49800Y552500D02*X50550D01*
X52350Y553250D02*X53100Y552500D01*
X52350Y557750D02*Y553250D01*
Y557750D02*X53100Y558500D01*
X54600D01*
X55350Y557750D01*
Y553250D01*
X54600Y552500D02*X55350Y553250D01*
X53100Y552500D02*X54600D01*
X52350Y554000D02*X55350Y557000D01*
X57150Y554750D02*X60150Y558500D01*
X57150Y554750D02*X60900D01*
X60150Y558500D02*Y552500D01*
X62700Y557300D02*X63900Y558500D01*
Y552500D01*
X62700D02*X64950D01*
X78800Y91200D02*X81200Y88800D01*
X78800D02*X81200Y91200D01*
X88800D02*X91200Y88800D01*
X88800D02*X91200Y91200D01*
X98800D02*X101200Y88800D01*
X98800D02*X101200Y91200D01*
X108800D02*X111200Y88800D01*
X108800D02*X111200Y91200D01*
X118800D02*X121200Y88800D01*
X118800D02*X121200Y91200D01*
X128800D02*X131200Y88800D01*
X128800D02*X131200Y91200D01*
X138800D02*X141200Y88800D01*
X138800D02*X141200Y91200D01*
X148800D02*X151200Y88800D01*
X148800D02*X151200Y91200D01*
X118800Y41200D02*X121200Y38800D01*
X118800D02*X121200Y41200D01*
X148800D02*X151200Y38800D01*
X148800D02*X151200Y41200D01*
X138800D02*X141200Y38800D01*
X138800D02*X141200Y41200D01*
X128800D02*X131200Y38800D01*
X128800D02*X131200Y41200D01*
X108800D02*X111200Y38800D01*
X108800D02*X111200Y41200D01*
X98800D02*X101200Y38800D01*
X98800D02*X101200Y41200D01*
X88800D02*X91200Y38800D01*
X88800D02*X91200Y41200D01*
X78800D02*X81200Y38800D01*
X78800D02*X81200Y41200D01*
X172796Y316889D02*X175196Y314489D01*
X172796D02*X175196Y316889D01*
X191300Y305078D02*X193700Y302678D01*
X191300D02*X193700Y305078D01*
X191300Y328700D02*X193700Y326300D01*
X191300D02*X193700Y328700D01*
X118800Y71200D02*X121200Y68800D01*
X118800D02*X121200Y71200D01*
X148800D02*X151200Y68800D01*
X148800D02*X151200Y71200D01*
X138800D02*X141200Y68800D01*
X138800D02*X141200Y71200D01*
X128800D02*X131200Y68800D01*
X128800D02*X131200Y71200D01*
X108800D02*X111200Y68800D01*
X108800D02*X111200Y71200D01*
X98800D02*X101200Y68800D01*
X98800D02*X101200Y71200D01*
X88800D02*X91200Y68800D01*
X88800D02*X91200Y71200D01*
X78800D02*X81200Y68800D01*
X78800D02*X81200Y71200D01*
X181300Y83700D02*X183700Y81300D01*
X181300D02*X183700Y83700D01*
X166300Y76200D02*X168700Y73800D01*
X166300D02*X168700Y76200D01*
X141300Y123700D02*X143700Y121300D01*
X141300D02*X143700Y123700D01*
X141300Y208700D02*X143700Y206300D01*
X141300D02*X143700Y208700D01*
X41300Y126200D02*X43700Y123800D01*
X41300D02*X43700Y126200D01*
X141300Y251200D02*X143700Y248800D01*
X141300D02*X143700Y251200D01*
X76300Y116200D02*X78700Y113800D01*
X76300D02*X78700Y116200D01*
X63800Y103700D02*X66200Y101300D01*
X63800D02*X66200Y103700D01*
X13800Y572450D02*X16200Y570050D01*
X13800D02*X16200Y572450D01*
X135000Y573500D02*X136500Y570500D01*
X138000Y573500D01*
X136500Y570500D02*Y567500D01*
X139800Y570800D02*X142050D01*
X139800Y567500D02*X142800D01*
X139800Y573500D02*Y567500D01*
Y573500D02*X142800D01*
X147600D02*X148350Y572750D01*
X145350Y573500D02*X147600D01*
X144600Y572750D02*X145350Y573500D01*
X144600Y572750D02*Y571250D01*
X145350Y570500D01*
X147600D01*
X148350Y569750D01*
Y568250D01*
X147600Y567500D02*X148350Y568250D01*
X145350Y567500D02*X147600D01*
X144600Y568250D02*X145350Y567500D01*
X98000Y572750D02*X98750Y573500D01*
X100250D01*
X101000Y572750D01*
X100250Y567500D02*X101000Y568250D01*
X98750Y567500D02*X100250D01*
X98000Y568250D02*X98750Y567500D01*
Y570800D02*X100250D01*
X101000Y572750D02*Y571550D01*
Y570050D02*Y568250D01*
Y570050D02*X100250Y570800D01*
X101000Y571550D02*X100250Y570800D01*
X102800Y573500D02*X105800D01*
X102800D02*Y570500D01*
X103550Y571250D01*
X105050D01*
X105800Y570500D01*
Y568250D01*
X105050Y567500D02*X105800Y568250D01*
X103550Y567500D02*X105050D01*
X102800Y568250D02*X103550Y567500D01*
X45000Y568250D02*X45750Y567500D01*
X45000Y572750D02*Y568250D01*
Y572750D02*X45750Y573500D01*
X47250D01*
X48000Y572750D01*
Y568250D01*
X47250Y567500D02*X48000Y568250D01*
X45750Y567500D02*X47250D01*
X45000Y569000D02*X48000Y572000D01*
X49800Y567500D02*X50550D01*
X52350Y568250D02*X53100Y567500D01*
X52350Y572750D02*Y568250D01*
Y572750D02*X53100Y573500D01*
X54600D01*
X55350Y572750D01*
Y568250D01*
X54600Y567500D02*X55350Y568250D01*
X53100Y567500D02*X54600D01*
X52350Y569000D02*X55350Y572000D01*
X57150Y572750D02*X57900Y573500D01*
X59400D01*
X60150Y572750D01*
X59400Y567500D02*X60150Y568250D01*
X57900Y567500D02*X59400D01*
X57150Y568250D02*X57900Y567500D01*
Y570800D02*X59400D01*
X60150Y572750D02*Y571550D01*
Y570050D02*Y568250D01*
Y570050D02*X59400Y570800D01*
X60150Y571550D02*X59400Y570800D01*
X61950Y573500D02*X64950D01*
X61950D02*Y570500D01*
X62700Y571250D01*
X64200D01*
X64950Y570500D01*
Y568250D01*
X64200Y567500D02*X64950Y568250D01*
X62700Y567500D02*X64200D01*
X61950Y568250D02*X62700Y567500D01*
X90000Y241600D02*Y238400D01*
X88400Y240000D02*X91600D01*
X50000Y241600D02*Y238400D01*
X48400Y240000D02*X51600D01*
X90000Y199100D02*Y195900D01*
X88400Y197500D02*X91600D01*
X50000Y199100D02*Y195900D01*
X48400Y197500D02*X51600D01*
X90000Y114100D02*Y110900D01*
X88400Y112500D02*X91600D01*
X50000Y114100D02*Y110900D01*
X48400Y112500D02*X51600D01*
X90000Y156600D02*Y153400D01*
X88400Y155000D02*X91600D01*
X50000Y156600D02*Y153400D01*
X48400Y155000D02*X51600D01*
X15000Y587850D02*Y584650D01*
X13400Y586250D02*X16600D01*
X135000Y588500D02*X136500Y585500D01*
X138000Y588500D01*
X136500Y585500D02*Y582500D01*
X139800Y585800D02*X142050D01*
X139800Y582500D02*X142800D01*
X139800Y588500D02*Y582500D01*
Y588500D02*X142800D01*
X147600D02*X148350Y587750D01*
X145350Y588500D02*X147600D01*
X144600Y587750D02*X145350Y588500D01*
X144600Y587750D02*Y586250D01*
X145350Y585500D01*
X147600D01*
X148350Y584750D01*
Y583250D01*
X147600Y582500D02*X148350Y583250D01*
X145350Y582500D02*X147600D01*
X144600Y583250D02*X145350Y582500D01*
X98000Y583250D02*X98750Y582500D01*
X98000Y584450D02*Y583250D01*
Y584450D02*X99050Y585500D01*
X99950D01*
X101000Y584450D01*
Y583250D01*
X100250Y582500D02*X101000Y583250D01*
X98750Y582500D02*X100250D01*
X98000Y586550D02*X99050Y585500D01*
X98000Y587750D02*Y586550D01*
Y587750D02*X98750Y588500D01*
X100250D01*
X101000Y587750D01*
Y586550D01*
X99950Y585500D02*X101000Y586550D01*
X45000Y583250D02*X45750Y582500D01*
X45000Y587750D02*Y583250D01*
Y587750D02*X45750Y588500D01*
X47250D01*
X48000Y587750D01*
Y583250D01*
X47250Y582500D02*X48000Y583250D01*
X45750Y582500D02*X47250D01*
X45000Y584000D02*X48000Y587000D01*
X49800Y582500D02*X50550D01*
X52350Y583250D02*X53100Y582500D01*
X52350Y587750D02*Y583250D01*
Y587750D02*X53100Y588500D01*
X54600D01*
X55350Y587750D01*
Y583250D01*
X54600Y582500D02*X55350Y583250D01*
X53100Y582500D02*X54600D01*
X52350Y584000D02*X55350Y587000D01*
X57150Y587750D02*X57900Y588500D01*
X59400D01*
X60150Y587750D01*
X59400Y582500D02*X60150Y583250D01*
X57900Y582500D02*X59400D01*
X57150Y583250D02*X57900Y582500D01*
Y585800D02*X59400D01*
X60150Y587750D02*Y586550D01*
Y585050D02*Y583250D01*
Y585050D02*X59400Y585800D01*
X60150Y586550D02*X59400Y585800D01*
X61950Y583250D02*X62700Y582500D01*
X61950Y587750D02*Y583250D01*
Y587750D02*X62700Y588500D01*
X64200D01*
X64950Y587750D01*
Y583250D01*
X64200Y582500D02*X64950Y583250D01*
X62700Y582500D02*X64200D01*
X61950Y584000D02*X64950Y587000D01*
X90000Y260000D02*Y258400D01*
Y260000D02*X91387Y260800D01*
X90000Y260000D02*X88613Y260800D01*
X50000Y260000D02*Y258400D01*
Y260000D02*X51387Y260800D01*
X50000Y260000D02*X48613Y260800D01*
X90000Y132500D02*Y130900D01*
Y132500D02*X91387Y133300D01*
X90000Y132500D02*X88613Y133300D01*
X50000Y132500D02*Y130900D01*
Y132500D02*X51387Y133300D01*
X50000Y132500D02*X48613Y133300D01*
X90000Y175000D02*Y173400D01*
Y175000D02*X91387Y175800D01*
X90000Y175000D02*X88613Y175800D01*
X50000Y175000D02*Y173400D01*
Y175000D02*X51387Y175800D01*
X50000Y175000D02*X48613Y175800D01*
X90000Y217500D02*Y215900D01*
Y217500D02*X91387Y218300D01*
X90000Y217500D02*X88613Y218300D01*
X50000Y217500D02*Y215900D01*
Y217500D02*X51387Y218300D01*
X50000Y217500D02*X48613Y218300D01*
X15000Y601250D02*Y599650D01*
Y601250D02*X16387Y602050D01*
X15000Y601250D02*X13613Y602050D01*
X135000Y603500D02*X136500Y600500D01*
X138000Y603500D01*
X136500Y600500D02*Y597500D01*
X139800Y600800D02*X142050D01*
X139800Y597500D02*X142800D01*
X139800Y603500D02*Y597500D01*
Y603500D02*X142800D01*
X147600D02*X148350Y602750D01*
X145350Y603500D02*X147600D01*
X144600Y602750D02*X145350Y603500D01*
X144600Y602750D02*Y601250D01*
X145350Y600500D01*
X147600D01*
X148350Y599750D01*
Y598250D01*
X147600Y597500D02*X148350Y598250D01*
X145350Y597500D02*X147600D01*
X144600Y598250D02*X145350Y597500D01*
X98000Y598250D02*X98750Y597500D01*
X98000Y599450D02*Y598250D01*
Y599450D02*X99050Y600500D01*
X99950D01*
X101000Y599450D01*
Y598250D01*
X100250Y597500D02*X101000Y598250D01*
X98750Y597500D02*X100250D01*
X98000Y601550D02*X99050Y600500D01*
X98000Y602750D02*Y601550D01*
Y602750D02*X98750Y603500D01*
X100250D01*
X101000Y602750D01*
Y601550D01*
X99950Y600500D02*X101000Y601550D01*
X45000Y598250D02*X45750Y597500D01*
X45000Y602750D02*Y598250D01*
Y602750D02*X45750Y603500D01*
X47250D01*
X48000Y602750D01*
Y598250D01*
X47250Y597500D02*X48000Y598250D01*
X45750Y597500D02*X47250D01*
X45000Y599000D02*X48000Y602000D01*
X49800Y597500D02*X50550D01*
X52350Y598250D02*X53100Y597500D01*
X52350Y602750D02*Y598250D01*
Y602750D02*X53100Y603500D01*
X54600D01*
X55350Y602750D01*
Y598250D01*
X54600Y597500D02*X55350Y598250D01*
X53100Y597500D02*X54600D01*
X52350Y599000D02*X55350Y602000D01*
X57150Y602750D02*X57900Y603500D01*
X60150D01*
X60900Y602750D01*
Y601250D01*
X57150Y597500D02*X60900Y601250D01*
X57150Y597500D02*X60900D01*
X62700Y598250D02*X63450Y597500D01*
X62700Y602750D02*Y598250D01*
Y602750D02*X63450Y603500D01*
X64950D01*
X65700Y602750D01*
Y598250D01*
X64950Y597500D02*X65700Y598250D01*
X63450Y597500D02*X64950D01*
X62700Y599000D02*X65700Y602000D01*
X3000Y618500D02*X3750Y617750D01*
X750Y618500D02*X3000D01*
X0Y617750D02*X750Y618500D01*
X0Y617750D02*Y616250D01*
X750Y615500D01*
X3000D01*
X3750Y614750D01*
Y613250D01*
X3000Y612500D02*X3750Y613250D01*
X750Y612500D02*X3000D01*
X0Y613250D02*X750Y612500D01*
X5550Y615500D02*Y613250D01*
X6300Y612500D01*
X8550Y615500D02*Y611000D01*
X7800Y610250D02*X8550Y611000D01*
X6300Y610250D02*X7800D01*
X5550Y611000D02*X6300Y610250D01*
Y612500D02*X7800D01*
X8550Y613250D01*
X11100Y614750D02*Y612500D01*
Y614750D02*X11850Y615500D01*
X12600D01*
X13350Y614750D01*
Y612500D01*
Y614750D02*X14100Y615500D01*
X14850D01*
X15600Y614750D01*
Y612500D01*
X10350Y615500D02*X11100Y614750D01*
X17400Y618500D02*Y612500D01*
Y613250D02*X18150Y612500D01*
X19650D01*
X20400Y613250D01*
Y614750D02*Y613250D01*
X19650Y615500D02*X20400Y614750D01*
X18150Y615500D02*X19650D01*
X17400Y614750D02*X18150Y615500D01*
X22200Y614750D02*Y613250D01*
Y614750D02*X22950Y615500D01*
X24450D01*
X25200Y614750D01*
Y613250D01*
X24450Y612500D02*X25200Y613250D01*
X22950Y612500D02*X24450D01*
X22200Y613250D02*X22950Y612500D01*
X27000Y618500D02*Y613250D01*
X27750Y612500D01*
X0Y609250D02*X29250D01*
X41750Y618500D02*Y612500D01*
X43700Y618500D02*X44750Y617450D01*
Y613550D01*
X43700Y612500D02*X44750Y613550D01*
X41000Y612500D02*X43700D01*
X41000Y618500D02*X43700D01*
G54D72*X46550Y617000D02*Y616850D01*
G54D71*Y614750D02*Y612500D01*
X50300Y615500D02*X51050Y614750D01*
X48800Y615500D02*X50300D01*
X48050Y614750D02*X48800Y615500D01*
X48050Y614750D02*Y613250D01*
X48800Y612500D01*
X51050Y615500D02*Y613250D01*
X51800Y612500D01*
X48800D02*X50300D01*
X51050Y613250D01*
X54350Y614750D02*Y612500D01*
Y614750D02*X55100Y615500D01*
X55850D01*
X56600Y614750D01*
Y612500D01*
Y614750D02*X57350Y615500D01*
X58100D01*
X58850Y614750D01*
Y612500D01*
X53600Y615500D02*X54350Y614750D01*
X60650Y612500D02*X61400D01*
X65900Y613250D02*X66650Y612500D01*
X65900Y617750D02*X66650Y618500D01*
X65900Y617750D02*Y613250D01*
X68450Y618500D02*X69950D01*
X69200D02*Y612500D01*
X68450D02*X69950D01*
X72500Y614750D02*Y612500D01*
Y614750D02*X73250Y615500D01*
X74000D01*
X74750Y614750D01*
Y612500D01*
X71750Y615500D02*X72500Y614750D01*
X77300Y615500D02*X79550D01*
X76550Y614750D02*X77300Y615500D01*
X76550Y614750D02*Y613250D01*
X77300Y612500D01*
X79550D01*
X81350Y618500D02*Y612500D01*
Y614750D02*X82100Y615500D01*
X83600D01*
X84350Y614750D01*
Y612500D01*
X86150Y618500D02*X86900Y617750D01*
Y613250D01*
X86150Y612500D02*X86900Y613250D01*
X41000Y609250D02*X88700D01*
X96050Y612500D02*X98000D01*
X95000Y613550D02*X96050Y612500D01*
X95000Y617450D02*Y613550D01*
Y617450D02*X96050Y618500D01*
X98000D01*
X99800Y614750D02*Y613250D01*
Y614750D02*X100550Y615500D01*
X102050D01*
X102800Y614750D01*
Y613250D01*
X102050Y612500D02*X102800Y613250D01*
X100550Y612500D02*X102050D01*
X99800Y613250D02*X100550Y612500D01*
X104600Y615500D02*Y613250D01*
X105350Y612500D01*
X106850D01*
X107600Y613250D01*
Y615500D02*Y613250D01*
X110150Y614750D02*Y612500D01*
Y614750D02*X110900Y615500D01*
X111650D01*
X112400Y614750D01*
Y612500D01*
X109400Y615500D02*X110150Y614750D01*
X114950Y618500D02*Y613250D01*
X115700Y612500D01*
X114200Y616250D02*X115700D01*
X95000Y609250D02*X117200D01*
X130750Y618500D02*Y612500D01*
X130000Y618500D02*X133000D01*
X133750Y617750D01*
Y616250D01*
X133000Y615500D02*X133750Y616250D01*
X130750Y615500D02*X133000D01*
X135550Y618500D02*Y613250D01*
X136300Y612500D01*
X140050Y615500D02*X140800Y614750D01*
X138550Y615500D02*X140050D01*
X137800Y614750D02*X138550Y615500D01*
X137800Y614750D02*Y613250D01*
X138550Y612500D01*
X140800Y615500D02*Y613250D01*
X141550Y612500D01*
X138550D02*X140050D01*
X140800Y613250D01*
X144100Y618500D02*Y613250D01*
X144850Y612500D01*
X143350Y616250D02*X144850D01*
X147100Y612500D02*X149350D01*
X146350Y613250D02*X147100Y612500D01*
X146350Y614750D02*Y613250D01*
Y614750D02*X147100Y615500D01*
X148600D01*
X149350Y614750D01*
X146350Y614000D02*X149350D01*
Y614750D02*Y614000D01*
X154150Y618500D02*Y612500D01*
X153400D02*X154150Y613250D01*
X151900Y612500D02*X153400D01*
X151150Y613250D02*X151900Y612500D01*
X151150Y614750D02*Y613250D01*
Y614750D02*X151900Y615500D01*
X153400D01*
X154150Y614750D01*
X157450Y615500D02*Y614750D01*
Y613250D02*Y612500D01*
X155950Y617750D02*Y617000D01*
Y617750D02*X156700Y618500D01*
X158200D01*
X158950Y617750D01*
Y617000D01*
X157450Y615500D02*X158950Y617000D01*
X130000Y609250D02*X160750D01*
X0Y633500D02*X3000D01*
X1500D02*Y627500D01*
X4800Y633500D02*Y627500D01*
Y629750D02*X5550Y630500D01*
X7050D01*
X7800Y629750D01*
Y627500D01*
X10350D02*X12600D01*
X9600Y628250D02*X10350Y627500D01*
X9600Y629750D02*Y628250D01*
Y629750D02*X10350Y630500D01*
X11850D01*
X12600Y629750D01*
X9600Y629000D02*X12600D01*
Y629750D02*Y629000D01*
X15150Y629750D02*Y627500D01*
Y629750D02*X15900Y630500D01*
X17400D01*
X14400D02*X15150Y629750D01*
X19950Y627500D02*X22200D01*
X19200Y628250D02*X19950Y627500D01*
X19200Y629750D02*Y628250D01*
Y629750D02*X19950Y630500D01*
X21450D01*
X22200Y629750D01*
X19200Y629000D02*X22200D01*
Y629750D02*Y629000D01*
X28950Y630500D02*X29700Y629750D01*
X27450Y630500D02*X28950D01*
X26700Y629750D02*X27450Y630500D01*
X26700Y629750D02*Y628250D01*
X27450Y627500D01*
X29700Y630500D02*Y628250D01*
X30450Y627500D01*
X27450D02*X28950D01*
X29700Y628250D01*
X33000Y629750D02*Y627500D01*
Y629750D02*X33750Y630500D01*
X35250D01*
X32250D02*X33000Y629750D01*
X37800Y627500D02*X40050D01*
X37050Y628250D02*X37800Y627500D01*
X37050Y629750D02*Y628250D01*
Y629750D02*X37800Y630500D01*
X39300D01*
X40050Y629750D01*
X37050Y629000D02*X40050D01*
Y629750D02*Y629000D01*
X45300Y627500D02*X48300Y633500D01*
X44550D02*X48300D01*
X55800D02*Y627500D01*
X55050D02*X55800Y628250D01*
X53550Y627500D02*X55050D01*
X52800Y628250D02*X53550Y627500D01*
X52800Y629750D02*Y628250D01*
Y629750D02*X53550Y630500D01*
X55050D01*
X55800Y629750D01*
G54D72*X57600Y632000D02*Y631850D01*
G54D71*Y629750D02*Y627500D01*
X59850Y632750D02*Y627500D01*
Y632750D02*X60600Y633500D01*
X61350D01*
X59100Y630500D02*X60600D01*
X63600Y632750D02*Y627500D01*
Y632750D02*X64350Y633500D01*
X65100D01*
X62850Y630500D02*X64350D01*
X67350Y627500D02*X69600D01*
X66600Y628250D02*X67350Y627500D01*
X66600Y629750D02*Y628250D01*
Y629750D02*X67350Y630500D01*
X68850D01*
X69600Y629750D01*
X66600Y629000D02*X69600D01*
Y629750D02*Y629000D01*
X72150Y629750D02*Y627500D01*
Y629750D02*X72900Y630500D01*
X74400D01*
X71400D02*X72150Y629750D01*
X76950Y627500D02*X79200D01*
X76200Y628250D02*X76950Y627500D01*
X76200Y629750D02*Y628250D01*
Y629750D02*X76950Y630500D01*
X78450D01*
X79200Y629750D01*
X76200Y629000D02*X79200D01*
Y629750D02*Y629000D01*
X81750Y629750D02*Y627500D01*
Y629750D02*X82500Y630500D01*
X83250D01*
X84000Y629750D01*
Y627500D01*
X81000Y630500D02*X81750Y629750D01*
X86550Y633500D02*Y628250D01*
X87300Y627500D01*
X85800Y631250D02*X87300D01*
X94500Y633500D02*Y627500D01*
X93750D02*X94500Y628250D01*
X92250Y627500D02*X93750D01*
X91500Y628250D02*X92250Y627500D01*
X91500Y629750D02*Y628250D01*
Y629750D02*X92250Y630500D01*
X93750D01*
X94500Y629750D01*
X97050D02*Y627500D01*
Y629750D02*X97800Y630500D01*
X99300D01*
X96300D02*X97050Y629750D01*
G54D72*X101100Y632000D02*Y631850D01*
G54D71*Y629750D02*Y627500D01*
X102600Y633500D02*Y628250D01*
X103350Y627500D01*
X104850Y633500D02*Y628250D01*
X105600Y627500D01*
X110550D02*X112800D01*
X113550Y628250D01*
X112800Y629000D02*X113550Y628250D01*
X110550Y629000D02*X112800D01*
X109800Y629750D02*X110550Y629000D01*
X109800Y629750D02*X110550Y630500D01*
X112800D01*
X113550Y629750D01*
X109800Y628250D02*X110550Y627500D01*
G54D72*X115350Y632000D02*Y631850D01*
G54D71*Y629750D02*Y627500D01*
X116850Y630500D02*X119850D01*
X116850Y627500D02*X119850Y630500D01*
X116850Y627500D02*X119850D01*
X122400D02*X124650D01*
X121650Y628250D02*X122400Y627500D01*
X121650Y629750D02*Y628250D01*
Y629750D02*X122400Y630500D01*
X123900D01*
X124650Y629750D01*
X121650Y629000D02*X124650D01*
Y629750D02*Y629000D01*
X127200Y627500D02*X129450D01*
X130200Y628250D01*
X129450Y629000D02*X130200Y628250D01*
X127200Y629000D02*X129450D01*
X126450Y629750D02*X127200Y629000D01*
X126450Y629750D02*X127200Y630500D01*
X129450D01*
X130200Y629750D01*
X126450Y628250D02*X127200Y627500D01*
X134700Y630500D02*Y628250D01*
X135450Y627500D01*
X136950D01*
X137700Y628250D01*
Y630500D02*Y628250D01*
X140250Y627500D02*X142500D01*
X143250Y628250D01*
X142500Y629000D02*X143250Y628250D01*
X140250Y629000D02*X142500D01*
X139500Y629750D02*X140250Y629000D01*
X139500Y629750D02*X140250Y630500D01*
X142500D01*
X143250Y629750D01*
X139500Y628250D02*X140250Y627500D01*
X145800D02*X148050D01*
X145050Y628250D02*X145800Y627500D01*
X145050Y629750D02*Y628250D01*
Y629750D02*X145800Y630500D01*
X147300D01*
X148050Y629750D01*
X145050Y629000D02*X148050D01*
Y629750D02*Y629000D01*
X152850Y633500D02*Y627500D01*
X152100D02*X152850Y628250D01*
X150600Y627500D02*X152100D01*
X149850Y628250D02*X150600Y627500D01*
X149850Y629750D02*Y628250D01*
Y629750D02*X150600Y630500D01*
X152100D01*
X152850Y629750D01*
G54D72*X157350Y632000D02*Y631850D01*
G54D71*Y629750D02*Y627500D01*
X159600Y629750D02*Y627500D01*
Y629750D02*X160350Y630500D01*
X161100D01*
X161850Y629750D01*
Y627500D01*
X158850Y630500D02*X159600Y629750D01*
X167100Y633500D02*Y628250D01*
X167850Y627500D01*
X166350Y631250D02*X167850D01*
X169350Y633500D02*Y627500D01*
Y629750D02*X170100Y630500D01*
X171600D01*
X172350Y629750D01*
Y627500D01*
G54D72*X174150Y632000D02*Y631850D01*
G54D71*Y629750D02*Y627500D01*
X176400D02*X178650D01*
X179400Y628250D01*
X178650Y629000D02*X179400Y628250D01*
X176400Y629000D02*X178650D01*
X175650Y629750D02*X176400Y629000D01*
X175650Y629750D02*X176400Y630500D01*
X178650D01*
X179400Y629750D01*
X175650Y628250D02*X176400Y627500D01*
X183900Y633500D02*Y628250D01*
X184650Y627500D01*
X188400Y630500D02*X189150Y629750D01*
X186900Y630500D02*X188400D01*
X186150Y629750D02*X186900Y630500D01*
X186150Y629750D02*Y628250D01*
X186900Y627500D01*
X189150Y630500D02*Y628250D01*
X189900Y627500D01*
X186900D02*X188400D01*
X189150Y628250D01*
X191700Y630500D02*Y628250D01*
X192450Y627500D01*
X194700Y630500D02*Y626000D01*
X193950Y625250D02*X194700Y626000D01*
X192450Y625250D02*X193950D01*
X191700Y626000D02*X192450Y625250D01*
Y627500D02*X193950D01*
X194700Y628250D01*
X196500Y629750D02*Y628250D01*
Y629750D02*X197250Y630500D01*
X198750D01*
X199500Y629750D01*
Y628250D01*
X198750Y627500D02*X199500Y628250D01*
X197250Y627500D02*X198750D01*
X196500Y628250D02*X197250Y627500D01*
X201300Y630500D02*Y628250D01*
X202050Y627500D01*
X203550D01*
X204300Y628250D01*
Y630500D02*Y628250D01*
X206850Y633500D02*Y628250D01*
X207600Y627500D01*
X206100Y631250D02*X207600D01*
X209100Y626000D02*X210600Y627500D01*
X215100Y632300D02*X216300Y633500D01*
Y627500D01*
X215100D02*X217350D01*
X221400Y633500D02*X222150Y632750D01*
X219900Y633500D02*X221400D01*
X219150Y632750D02*X219900Y633500D01*
X219150Y632750D02*Y628250D01*
X219900Y627500D01*
X221400Y630800D02*X222150Y630050D01*
X219150Y630800D02*X221400D01*
X219900Y627500D02*X221400D01*
X222150Y628250D01*
Y630050D02*Y628250D01*
X223950Y632750D02*X224700Y633500D01*
X226200D01*
X226950Y632750D01*
X226200Y627500D02*X226950Y628250D01*
X224700Y627500D02*X226200D01*
X223950Y628250D02*X224700Y627500D01*
Y630800D02*X226200D01*
X226950Y632750D02*Y631550D01*
Y630050D02*Y628250D01*
Y630050D02*X226200Y630800D01*
X226950Y631550D02*X226200Y630800D01*
X231450Y633500D02*Y627500D01*
Y629750D02*X232200Y630500D01*
X233700D01*
X234450Y629750D01*
Y627500D01*
X236250Y629750D02*Y628250D01*
Y629750D02*X237000Y630500D01*
X238500D01*
X239250Y629750D01*
Y628250D01*
X238500Y627500D02*X239250Y628250D01*
X237000Y627500D02*X238500D01*
X236250Y628250D02*X237000Y627500D01*
X241050Y633500D02*Y628250D01*
X241800Y627500D01*
X244050D02*X246300D01*
X243300Y628250D02*X244050Y627500D01*
X243300Y629750D02*Y628250D01*
Y629750D02*X244050Y630500D01*
X245550D01*
X246300Y629750D01*
X243300Y629000D02*X246300D01*
Y629750D02*Y629000D01*
X248850Y627500D02*X251100D01*
X251850Y628250D01*
X251100Y629000D02*X251850Y628250D01*
X248850Y629000D02*X251100D01*
X248100Y629750D02*X248850Y629000D01*
X248100Y629750D02*X248850Y630500D01*
X251100D01*
X251850Y629750D01*
X248100Y628250D02*X248850Y627500D01*
X257100Y633500D02*Y628250D01*
X257850Y627500D01*
X256350Y631250D02*X257850D01*
X259350Y629750D02*Y628250D01*
Y629750D02*X260100Y630500D01*
X261600D01*
X262350Y629750D01*
Y628250D01*
X261600Y627500D02*X262350Y628250D01*
X260100Y627500D02*X261600D01*
X259350Y628250D02*X260100Y627500D01*
X264900Y633500D02*Y628250D01*
X265650Y627500D01*
X264150Y631250D02*X265650D01*
X269400Y630500D02*X270150Y629750D01*
X267900Y630500D02*X269400D01*
X267150Y629750D02*X267900Y630500D01*
X267150Y629750D02*Y628250D01*
X267900Y627500D01*
X270150Y630500D02*Y628250D01*
X270900Y627500D01*
X267900D02*X269400D01*
X270150Y628250D01*
X272700Y633500D02*Y628250D01*
X273450Y627500D01*
G54D73*X27500Y357500D02*Y327500D01*
X12500D01*
Y67500D01*
X62500Y17500D02*X177500D01*
X227500Y67500D02*Y357500D01*
X167500D01*
Y275000D01*
X95000D01*
Y357500D01*
X27500D02*X95000D01*
X177500Y17500D02*G75*G03X227500Y67500I0J50000D01*G01*
X62500Y17500D02*G75*G02X12500Y67500I0J50000D01*G01*
G54D71*X213675Y-9500D02*X216675D01*
X217425Y-8750D01*
Y-6950D02*Y-8750D01*
X216675Y-6200D02*X217425Y-6950D01*
X214425Y-6200D02*X216675D01*
X214425Y-3500D02*Y-9500D01*
X213675Y-3500D02*X216675D01*
X217425Y-4250D01*
Y-5450D01*
X216675Y-6200D02*X217425Y-5450D01*
X219225Y-7250D02*Y-8750D01*
Y-7250D02*X219975Y-6500D01*
X221475D01*
X222225Y-7250D01*
Y-8750D01*
X221475Y-9500D02*X222225Y-8750D01*
X219975Y-9500D02*X221475D01*
X219225Y-8750D02*X219975Y-9500D01*
X226275Y-6500D02*X227025Y-7250D01*
X224775Y-6500D02*X226275D01*
X224025Y-7250D02*X224775Y-6500D01*
X224025Y-7250D02*Y-8750D01*
X224775Y-9500D01*
X227025Y-6500D02*Y-8750D01*
X227775Y-9500D01*
X224775D02*X226275D01*
X227025Y-8750D01*
X230325Y-7250D02*Y-9500D01*
Y-7250D02*X231075Y-6500D01*
X232575D01*
X229575D02*X230325Y-7250D01*
X237375Y-3500D02*Y-9500D01*
X236625D02*X237375Y-8750D01*
X235125Y-9500D02*X236625D01*
X234375Y-8750D02*X235125Y-9500D01*
X234375Y-7250D02*Y-8750D01*
Y-7250D02*X235125Y-6500D01*
X236625D01*
X237375Y-7250D01*
X241875D02*Y-8750D01*
Y-7250D02*X242625Y-6500D01*
X244125D01*
X244875Y-7250D01*
Y-8750D01*
X244125Y-9500D02*X244875Y-8750D01*
X242625Y-9500D02*X244125D01*
X241875Y-8750D02*X242625Y-9500D01*
X246675Y-6500D02*Y-8750D01*
X247425Y-9500D01*
X248925D01*
X249675Y-8750D01*
Y-6500D02*Y-8750D01*
X252225Y-3500D02*Y-8750D01*
X252975Y-9500D01*
X251475Y-5750D02*X252975D01*
X254475Y-3500D02*Y-8750D01*
X255225Y-9500D01*
G54D72*X256725Y-5000D02*Y-5150D01*
G54D71*Y-7250D02*Y-9500D01*
X258975Y-7250D02*Y-9500D01*
Y-7250D02*X259725Y-6500D01*
X260475D01*
X261225Y-7250D01*
Y-9500D01*
X258225Y-6500D02*X258975Y-7250D01*
X263775Y-9500D02*X266025D01*
X263025Y-8750D02*X263775Y-9500D01*
X263025Y-7250D02*Y-8750D01*
Y-7250D02*X263775Y-6500D01*
X265275D01*
X266025Y-7250D01*
X263025Y-8000D02*X266025D01*
Y-7250D02*Y-8000D01*
G54D72*X270525Y-5000D02*Y-5150D01*
G54D71*Y-7250D02*Y-9500D01*
X272775D02*X275025D01*
X275775Y-8750D01*
X275025Y-8000D02*X275775Y-8750D01*
X272775Y-8000D02*X275025D01*
X272025Y-7250D02*X272775Y-8000D01*
X272025Y-7250D02*X272775Y-6500D01*
X275025D01*
X275775Y-7250D01*
X272025Y-8750D02*X272775Y-9500D01*
X281025Y-3500D02*Y-8750D01*
X281775Y-9500D01*
X280275Y-5750D02*X281775D01*
X283275Y-3500D02*Y-9500D01*
Y-7250D02*X284025Y-6500D01*
X285525D01*
X286275Y-7250D01*
Y-9500D01*
X288825D02*X291075D01*
X288075Y-8750D02*X288825Y-9500D01*
X288075Y-7250D02*Y-8750D01*
Y-7250D02*X288825Y-6500D01*
X290325D01*
X291075Y-7250D01*
X288075Y-8000D02*X291075D01*
Y-7250D02*Y-8000D01*
X296325Y-6500D02*X298575D01*
X295575Y-7250D02*X296325Y-6500D01*
X295575Y-7250D02*Y-8750D01*
X296325Y-9500D01*
X298575D01*
X301125D02*X303375D01*
X300375Y-8750D02*X301125Y-9500D01*
X300375Y-7250D02*Y-8750D01*
Y-7250D02*X301125Y-6500D01*
X302625D01*
X303375Y-7250D01*
X300375Y-8000D02*X303375D01*
Y-7250D02*Y-8000D01*
X305925Y-7250D02*Y-9500D01*
Y-7250D02*X306675Y-6500D01*
X307425D01*
X308175Y-7250D01*
Y-9500D01*
X305175Y-6500D02*X305925Y-7250D01*
X310725Y-3500D02*Y-8750D01*
X311475Y-9500D01*
X309975Y-5750D02*X311475D01*
X313725Y-9500D02*X315975D01*
X312975Y-8750D02*X313725Y-9500D01*
X312975Y-7250D02*Y-8750D01*
Y-7250D02*X313725Y-6500D01*
X315225D01*
X315975Y-7250D01*
X312975Y-8000D02*X315975D01*
Y-7250D02*Y-8000D01*
X318525Y-7250D02*Y-9500D01*
Y-7250D02*X319275Y-6500D01*
X320775D01*
X317775D02*X318525Y-7250D01*
X322575Y-3500D02*Y-8750D01*
X323325Y-9500D01*
G54D72*X324825Y-5000D02*Y-5150D01*
G54D71*Y-7250D02*Y-9500D01*
X327075Y-7250D02*Y-9500D01*
Y-7250D02*X327825Y-6500D01*
X328575D01*
X329325Y-7250D01*
Y-9500D01*
X326325Y-6500D02*X327075Y-7250D01*
X331875Y-9500D02*X334125D01*
X331125Y-8750D02*X331875Y-9500D01*
X331125Y-7250D02*Y-8750D01*
Y-7250D02*X331875Y-6500D01*
X333375D01*
X334125Y-7250D01*
X331125Y-8000D02*X334125D01*
Y-7250D02*Y-8000D01*
X338625Y-7250D02*Y-8750D01*
Y-7250D02*X339375Y-6500D01*
X340875D01*
X341625Y-7250D01*
Y-8750D01*
X340875Y-9500D02*X341625Y-8750D01*
X339375Y-9500D02*X340875D01*
X338625Y-8750D02*X339375Y-9500D01*
X344175Y-4250D02*Y-9500D01*
Y-4250D02*X344925Y-3500D01*
X345675D01*
X343425Y-6500D02*X344925D01*
X350625Y-3500D02*Y-8750D01*
X351375Y-9500D01*
X349875Y-5750D02*X351375D01*
X352875Y-3500D02*Y-9500D01*
Y-7250D02*X353625Y-6500D01*
X355125D01*
X355875Y-7250D01*
Y-9500D01*
G54D72*X357675Y-5000D02*Y-5150D01*
G54D71*Y-7250D02*Y-9500D01*
X359925D02*X362175D01*
X362925Y-8750D01*
X362175Y-8000D02*X362925Y-8750D01*
X359925Y-8000D02*X362175D01*
X359175Y-7250D02*X359925Y-8000D01*
X359175Y-7250D02*X359925Y-6500D01*
X362175D01*
X362925Y-7250D01*
X359175Y-8750D02*X359925Y-9500D01*
X368175Y-7250D02*Y-11750D01*
X367425Y-6500D02*X368175Y-7250D01*
X368925Y-6500D01*
X370425D01*
X371175Y-7250D01*
Y-8750D01*
X370425Y-9500D02*X371175Y-8750D01*
X368925Y-9500D02*X370425D01*
X368175Y-8750D02*X368925Y-9500D01*
X375225Y-6500D02*X375975Y-7250D01*
X373725Y-6500D02*X375225D01*
X372975Y-7250D02*X373725Y-6500D01*
X372975Y-7250D02*Y-8750D01*
X373725Y-9500D01*
X375975Y-6500D02*Y-8750D01*
X376725Y-9500D01*
X373725D02*X375225D01*
X375975Y-8750D01*
X379275Y-3500D02*Y-8750D01*
X380025Y-9500D01*
X378525Y-5750D02*X380025D01*
X381525Y-3500D02*Y-9500D01*
Y-7250D02*X382275Y-6500D01*
X383775D01*
X384525Y-7250D01*
Y-9500D01*
X200750Y528500D02*Y522500D01*
X202700Y528500D02*X203750Y527450D01*
Y523550D01*
X202700Y522500D02*X203750Y523550D01*
X200000Y522500D02*X202700D01*
X200000Y528500D02*X202700D01*
X207800Y525500D02*X208550Y524750D01*
X206300Y525500D02*X207800D01*
X205550Y524750D02*X206300Y525500D01*
X205550Y524750D02*Y523250D01*
X206300Y522500D01*
X208550Y525500D02*Y523250D01*
X209300Y522500D01*
X206300D02*X207800D01*
X208550Y523250D01*
X211850Y528500D02*Y523250D01*
X212600Y522500D01*
X211100Y526250D02*X212600D01*
X214850Y522500D02*X217100D01*
X214100Y523250D02*X214850Y522500D01*
X214100Y524750D02*Y523250D01*
Y524750D02*X214850Y525500D01*
X216350D01*
X217100Y524750D01*
X214100Y524000D02*X217100D01*
Y524750D02*Y524000D01*
X218900Y526250D02*X219650D01*
X218900Y524750D02*X219650D01*
X224150Y528500D02*Y522500D01*
Y528500D02*X227150D01*
X224150Y525800D02*X226400D01*
X229700Y524750D02*Y522500D01*
Y524750D02*X230450Y525500D01*
X231950D01*
X228950D02*X229700Y524750D01*
G54D72*X233750Y527000D02*Y526850D01*
G54D71*Y524750D02*Y522500D01*
X237950Y528500D02*Y522500D01*
Y528500D02*X240200Y525500D01*
X242450Y528500D01*
Y522500D01*
X246500Y525500D02*X247250Y524750D01*
X245000Y525500D02*X246500D01*
X244250Y524750D02*X245000Y525500D01*
X244250Y524750D02*Y523250D01*
X245000Y522500D01*
X247250Y525500D02*Y523250D01*
X248000Y522500D01*
X245000D02*X246500D01*
X247250Y523250D01*
X250550Y524750D02*Y522500D01*
Y524750D02*X251300Y525500D01*
X252800D01*
X249800D02*X250550Y524750D01*
X257300Y527750D02*X258050Y528500D01*
X260300D01*
X261050Y527750D01*
Y526250D01*
X257300Y522500D02*X261050Y526250D01*
X257300Y522500D02*X261050D01*
X263600D02*X266600Y528500D01*
X262850D02*X266600D01*
X271100Y523250D02*X271850Y522500D01*
X271100Y527750D02*Y523250D01*
Y527750D02*X271850Y528500D01*
X273350D01*
X274100Y527750D01*
Y523250D01*
X273350Y522500D02*X274100Y523250D01*
X271850Y522500D02*X273350D01*
X271100Y524000D02*X274100Y527000D01*
X275900Y527300D02*X277100Y528500D01*
Y522500D01*
X275900D02*X278150D01*
X279950Y526250D02*X280700D01*
X279950Y524750D02*X280700D01*
X282500Y527300D02*X283700Y528500D01*
Y522500D01*
X282500D02*X284750D01*
X286550Y523250D02*X287300Y522500D01*
X286550Y524450D02*Y523250D01*
Y524450D02*X287600Y525500D01*
X288500D01*
X289550Y524450D01*
Y523250D01*
X288800Y522500D02*X289550Y523250D01*
X287300Y522500D02*X288800D01*
X286550Y526550D02*X287600Y525500D01*
X286550Y527750D02*Y526550D01*
Y527750D02*X287300Y528500D01*
X288800D01*
X289550Y527750D01*
Y526550D01*
X288500Y525500D02*X289550Y526550D01*
X291350Y526250D02*X292100D01*
X291350Y524750D02*X292100D01*
X293900Y528500D02*X296900D01*
X293900D02*Y525500D01*
X294650Y526250D01*
X296150D01*
X296900Y525500D01*
Y523250D01*
X296150Y522500D02*X296900Y523250D01*
X294650Y522500D02*X296150D01*
X293900Y523250D02*X294650Y522500D01*
X298700Y523250D02*X299450Y522500D01*
X298700Y527750D02*Y523250D01*
Y527750D02*X299450Y528500D01*
X300950D01*
X301700Y527750D01*
Y523250D01*
X300950Y522500D02*X301700Y523250D01*
X299450Y522500D02*X300950D01*
X298700Y524000D02*X301700Y527000D01*
X306200Y527750D02*X306950Y528500D01*
X309200D01*
X309950Y527750D01*
Y526250D01*
X306200Y522500D02*X309950Y526250D01*
X306200Y522500D02*X309950D01*
X311750Y523250D02*X312500Y522500D01*
X311750Y527750D02*Y523250D01*
Y527750D02*X312500Y528500D01*
X314000D01*
X314750Y527750D01*
Y523250D01*
X314000Y522500D02*X314750Y523250D01*
X312500Y522500D02*X314000D01*
X311750Y524000D02*X314750Y527000D01*
X316550Y527750D02*X317300Y528500D01*
X319550D01*
X320300Y527750D01*
Y526250D01*
X316550Y522500D02*X320300Y526250D01*
X316550Y522500D02*X320300D01*
X322100Y523250D02*X322850Y522500D01*
X322100Y527750D02*Y523250D01*
Y527750D02*X322850Y528500D01*
X324350D01*
X325100Y527750D01*
Y523250D01*
X324350Y522500D02*X325100Y523250D01*
X322850Y522500D02*X324350D01*
X322100Y524000D02*X325100Y527000D01*
X329600Y528500D02*Y523250D01*
X330350Y522500D01*
X331850D01*
X332600Y523250D01*
Y528500D02*Y523250D01*
X334400Y528500D02*X337400D01*
X335900D02*Y522500D01*
X340250D02*X342200D01*
X339200Y523550D02*X340250Y522500D01*
X339200Y527450D02*Y523550D01*
Y527450D02*X340250Y528500D01*
X342200D01*
X200000Y542000D02*Y537500D01*
Y542000D02*X201050Y543500D01*
X202700D01*
X203750Y542000D01*
Y537500D01*
X200000Y540500D02*X203750D01*
X205550D02*Y538250D01*
X206300Y537500D01*
X207800D01*
X208550Y538250D01*
Y540500D02*Y538250D01*
X211100Y543500D02*Y538250D01*
X211850Y537500D01*
X210350Y541250D02*X211850D01*
X213350Y543500D02*Y537500D01*
Y539750D02*X214100Y540500D01*
X215600D01*
X216350Y539750D01*
Y537500D01*
X218150Y539750D02*Y538250D01*
Y539750D02*X218900Y540500D01*
X220400D01*
X221150Y539750D01*
Y538250D01*
X220400Y537500D02*X221150Y538250D01*
X218900Y537500D02*X220400D01*
X218150Y538250D02*X218900Y537500D01*
X223700Y539750D02*Y537500D01*
Y539750D02*X224450Y540500D01*
X225950D01*
X222950D02*X223700Y539750D01*
X227750Y541250D02*X228500D01*
X227750Y539750D02*X228500D01*
X233000Y543500D02*Y537500D01*
Y540500D02*X236000Y543500D01*
X233000Y540500D02*X236000Y537500D01*
X238550D02*X240800D01*
X237800Y538250D02*X238550Y537500D01*
X237800Y539750D02*Y538250D01*
Y539750D02*X238550Y540500D01*
X240050D01*
X240800Y539750D01*
X237800Y539000D02*X240800D01*
Y539750D02*Y539000D01*
X242600Y540500D02*X244100Y537500D01*
X245600Y540500D02*X244100Y537500D01*
G54D72*X247400Y542000D02*Y541850D01*
G54D71*Y539750D02*Y537500D01*
X249650Y539750D02*Y537500D01*
Y539750D02*X250400Y540500D01*
X251150D01*
X251900Y539750D01*
Y537500D01*
X248900Y540500D02*X249650Y539750D01*
X257450Y543500D02*X258650D01*
Y538250D01*
X257900Y537500D02*X258650Y538250D01*
X257150Y537500D02*X257900D01*
X256400Y538250D02*X257150Y537500D01*
X256400Y539000D02*Y538250D01*
X260450Y539750D02*Y538250D01*
Y539750D02*X261200Y540500D01*
X262700D01*
X263450Y539750D01*
Y538250D01*
X262700Y537500D02*X263450Y538250D01*
X261200Y537500D02*X262700D01*
X260450Y538250D02*X261200Y537500D01*
X265250Y543500D02*Y537500D01*
Y539750D02*X266000Y540500D01*
X267500D01*
X268250Y539750D01*
Y537500D01*
X270800Y539750D02*Y537500D01*
Y539750D02*X271550Y540500D01*
X272300D01*
X273050Y539750D01*
Y537500D01*
X270050Y540500D02*X270800Y539750D01*
X275600Y537500D02*X277850D01*
X278600Y538250D01*
X277850Y539000D02*X278600Y538250D01*
X275600Y539000D02*X277850D01*
X274850Y539750D02*X275600Y539000D01*
X274850Y539750D02*X275600Y540500D01*
X277850D01*
X278600Y539750D01*
X274850Y538250D02*X275600Y537500D01*
X280400Y539750D02*Y538250D01*
Y539750D02*X281150Y540500D01*
X282650D01*
X283400Y539750D01*
Y538250D01*
X282650Y537500D02*X283400Y538250D01*
X281150Y537500D02*X282650D01*
X280400Y538250D02*X281150Y537500D01*
X285950Y539750D02*Y537500D01*
Y539750D02*X286700Y540500D01*
X287450D01*
X288200Y539750D01*
Y537500D01*
X285200Y540500D02*X285950Y539750D01*
X200000Y558500D02*X203000D01*
X201500D02*Y552500D01*
G54D72*X204800Y557000D02*Y556850D01*
G54D71*Y554750D02*Y552500D01*
X207050Y558500D02*Y553250D01*
X207800Y552500D01*
X206300Y556250D02*X207800D01*
X209300Y558500D02*Y553250D01*
X210050Y552500D01*
X212300D02*X214550D01*
X211550Y553250D02*X212300Y552500D01*
X211550Y554750D02*Y553250D01*
Y554750D02*X212300Y555500D01*
X213800D01*
X214550Y554750D01*
X211550Y554000D02*X214550D01*
Y554750D02*Y554000D01*
X216350Y556250D02*X217100D01*
X216350Y554750D02*X217100D01*
X221600Y553250D02*X222350Y552500D01*
X221600Y557750D02*X222350Y558500D01*
X221600Y557750D02*Y553250D01*
X224150Y555500D02*Y553250D01*
X224900Y552500D01*
X226400D01*
X227150Y553250D01*
Y555500D02*Y553250D01*
X229700Y554750D02*Y552500D01*
Y554750D02*X230450Y555500D01*
X231200D01*
X231950Y554750D01*
Y552500D01*
X228950Y555500D02*X229700Y554750D01*
X233750Y558500D02*Y552500D01*
Y554750D02*X236000Y552500D01*
X233750Y554750D02*X235250Y556250D01*
X238550Y554750D02*Y552500D01*
Y554750D02*X239300Y555500D01*
X240050D01*
X240800Y554750D01*
Y552500D01*
X237800Y555500D02*X238550Y554750D01*
X242600D02*Y553250D01*
Y554750D02*X243350Y555500D01*
X244850D01*
X245600Y554750D01*
Y553250D01*
X244850Y552500D02*X245600Y553250D01*
X243350Y552500D02*X244850D01*
X242600Y553250D02*X243350Y552500D01*
X247400Y555500D02*Y553250D01*
X248150Y552500D01*
X248900D01*
X249650Y553250D01*
Y555500D02*Y553250D01*
X250400Y552500D01*
X251150D01*
X251900Y553250D01*
Y555500D02*Y553250D01*
X254450Y554750D02*Y552500D01*
Y554750D02*X255200Y555500D01*
X255950D01*
X256700Y554750D01*
Y552500D01*
X253700Y555500D02*X254450Y554750D01*
X258500Y558500D02*X259250Y557750D01*
Y553250D01*
X258500Y552500D02*X259250Y553250D01*
X263750Y555500D02*X266750D01*
X271250Y558500D02*Y552500D01*
Y558500D02*X274250D01*
X271250Y555800D02*X273500D01*
X278300Y555500D02*X279050Y554750D01*
X276800Y555500D02*X278300D01*
X276050Y554750D02*X276800Y555500D01*
X276050Y554750D02*Y553250D01*
X276800Y552500D01*
X279050Y555500D02*Y553250D01*
X279800Y552500D01*
X276800D02*X278300D01*
X279050Y553250D01*
X281600Y558500D02*Y552500D01*
Y553250D02*X282350Y552500D01*
X283850D01*
X284600Y553250D01*
Y554750D02*Y553250D01*
X283850Y555500D02*X284600Y554750D01*
X282350Y555500D02*X283850D01*
X281600Y554750D02*X282350Y555500D01*
X287150Y554750D02*Y552500D01*
Y554750D02*X287900Y555500D01*
X289400D01*
X286400D02*X287150Y554750D01*
G54D72*X291200Y557000D02*Y556850D01*
G54D71*Y554750D02*Y552500D01*
X293450Y555500D02*X295700D01*
X292700Y554750D02*X293450Y555500D01*
X292700Y554750D02*Y553250D01*
X293450Y552500D01*
X295700D01*
X299750Y555500D02*X300500Y554750D01*
X298250Y555500D02*X299750D01*
X297500Y554750D02*X298250Y555500D01*
X297500Y554750D02*Y553250D01*
X298250Y552500D01*
X300500Y555500D02*Y553250D01*
X301250Y552500D01*
X298250D02*X299750D01*
X300500Y553250D01*
X303800Y558500D02*Y553250D01*
X304550Y552500D01*
X303050Y556250D02*X304550D01*
G54D72*X306050Y557000D02*Y556850D01*
G54D71*Y554750D02*Y552500D01*
X307550Y554750D02*Y553250D01*
Y554750D02*X308300Y555500D01*
X309800D01*
X310550Y554750D01*
Y553250D01*
X309800Y552500D02*X310550Y553250D01*
X308300Y552500D02*X309800D01*
X307550Y553250D02*X308300Y552500D01*
X313100Y554750D02*Y552500D01*
Y554750D02*X313850Y555500D01*
X314600D01*
X315350Y554750D01*
Y552500D01*
X312350Y555500D02*X313100Y554750D01*
X320600Y558500D02*Y552500D01*
X322550Y558500D02*X323600Y557450D01*
Y553550D01*
X322550Y552500D02*X323600Y553550D01*
X319850Y552500D02*X322550D01*
X319850Y558500D02*X322550D01*
X326150Y554750D02*Y552500D01*
Y554750D02*X326900Y555500D01*
X328400D01*
X325400D02*X326150Y554750D01*
X332450Y555500D02*X333200Y554750D01*
X330950Y555500D02*X332450D01*
X330200Y554750D02*X330950Y555500D01*
X330200Y554750D02*Y553250D01*
X330950Y552500D01*
X333200Y555500D02*Y553250D01*
X333950Y552500D01*
X330950D02*X332450D01*
X333200Y553250D01*
X335750Y555500D02*Y553250D01*
X336500Y552500D01*
X337250D01*
X338000Y553250D01*
Y555500D02*Y553250D01*
X338750Y552500D01*
X339500D01*
X340250Y553250D01*
Y555500D02*Y553250D01*
G54D72*X342050Y557000D02*Y556850D01*
G54D71*Y554750D02*Y552500D01*
X344300Y554750D02*Y552500D01*
Y554750D02*X345050Y555500D01*
X345800D01*
X346550Y554750D01*
Y552500D01*
X343550Y555500D02*X344300Y554750D01*
X350600Y555500D02*X351350Y554750D01*
X349100Y555500D02*X350600D01*
X348350Y554750D02*X349100Y555500D01*
X348350Y554750D02*Y553250D01*
X349100Y552500D01*
X350600D01*
X351350Y553250D01*
X348350Y551000D02*X349100Y550250D01*
X350600D01*
X351350Y551000D01*
Y555500D02*Y551000D01*
M02*
