G04 start of page 2 for group 0 idx 0 *
G04 Title: (unknown), top *
G04 Creator: pcb 4.0.2 *
G04 CreationDate: Fri Mar 27 01:18:50 2020 UTC *
G04 For: kevin *
G04 Format: Gerber/RS-274X *
G04 PCB-Dimensions (mil): 6000.00 5000.00 *
G04 PCB-Coordinate-Origin: lower left *
%MOIN*%
%FSLAX25Y25*%
%LNTOP*%
%ADD25C,0.1250*%
%ADD24C,0.0410*%
%ADD23C,0.1300*%
%ADD22C,0.0200*%
%ADD21C,0.0300*%
%ADD20C,0.0350*%
%ADD19C,0.1530*%
%ADD18C,0.0800*%
%ADD17C,0.0600*%
%ADD16C,0.0690*%
%ADD15C,0.1500*%
%ADD14C,0.0500*%
%ADD13C,0.0550*%
%ADD12C,0.0001*%
%ADD11C,0.0110*%
G54D11*X210000Y190000D02*X202500Y182500D01*
Y102500D01*
X210000Y220000D02*X197500Y207500D01*
Y105000D01*
X142500Y77500D02*X150000Y70000D01*
X202500Y102500D02*X182500Y82500D01*
X197500Y105000D02*X167500Y75000D01*
X150000Y70000D02*X157500Y77500D01*
Y95000D01*
X162500Y52500D02*Y187500D01*
X157500Y95000D02*X142500Y110000D01*
X110000Y70000D02*X102500Y77500D01*
X97500D01*
X130000Y70000D02*X137500Y77500D01*
X90000Y70000D02*X65000Y95000D01*
Y102500D01*
X90000Y40000D02*X97500Y47500D01*
X102500D01*
X110000Y40000D01*
X97500Y77500D02*X90000Y70000D01*
X137500Y77500D02*X142500D01*
X125000Y50000D02*Y107500D01*
X150000Y40000D02*X142500Y47500D01*
X137500D02*X130000Y40000D01*
X110000D02*X117500Y47500D01*
X122500D01*
X142500D02*X137500D01*
X122500D02*X125000Y50000D01*
X150000Y40000D02*X162500Y52500D01*
Y187500D02*X142500Y207500D01*
X132500Y115000D02*Y240000D01*
X142500Y250000D01*
Y110000D02*Y122500D01*
X90000Y90000D02*X97500Y97500D01*
X112500D01*
X120000Y90000D01*
X125000Y107500D02*X132500Y115000D01*
X90000Y90000D02*X55000Y125000D01*
X50000Y240000D02*X42500Y232500D01*
Y205000D02*X50000Y197500D01*
X42500Y232500D02*Y222500D01*
X30000Y210000D02*X42500Y222500D01*
X30000Y220000D02*X25000Y215000D01*
Y207500D01*
X27500Y205000D01*
X42500D01*
X20000Y140000D02*X25000Y145000D01*
X20000Y130000D02*X25000Y125000D01*
X32500D01*
X45000Y112500D01*
X50000D01*
X25000Y145000D02*X40000D01*
X50000Y155000D01*
X90000Y175000D02*X77500Y162500D01*
X55000Y125000D02*X42500D01*
X77500Y162500D02*Y115000D01*
G54D12*G36*
X87250Y242750D02*Y237250D01*
X92750D01*
Y242750D01*
X87250D01*
G37*
G54D13*X50000Y240000D03*
G54D12*G36*
X87500Y262500D02*Y257500D01*
X92500D01*
Y262500D01*
X87500D01*
G37*
G54D14*X50000Y260000D03*
G54D12*G36*
X87250Y200250D02*Y194750D01*
X92750D01*
Y200250D01*
X87250D01*
G37*
G36*
X87500Y177500D02*Y172500D01*
X92500D01*
Y177500D01*
X87500D01*
G37*
G36*
X87250Y157750D02*Y152250D01*
X92750D01*
Y157750D01*
X87250D01*
G37*
G36*
X87500Y220000D02*Y215000D01*
X92500D01*
Y220000D01*
X87500D01*
G37*
G54D15*X123000Y165000D03*
Y207500D03*
G54D16*X30000Y280000D03*
X20000D03*
Y270000D03*
Y260000D03*
Y250000D03*
Y240000D03*
Y230000D03*
Y220000D03*
X30000Y270000D03*
Y260000D03*
Y250000D03*
Y240000D03*
Y230000D03*
Y220000D03*
G54D13*X50000Y197500D03*
G54D14*Y175000D03*
G54D13*Y155000D03*
G54D14*Y217500D03*
G54D16*X20000Y210000D03*
X30000D03*
Y200000D03*
Y190000D03*
Y180000D03*
X20000Y200000D03*
Y190000D03*
Y180000D03*
Y170000D03*
Y160000D03*
Y150000D03*
Y140000D03*
X30000Y170000D03*
Y160000D03*
Y150000D03*
Y140000D03*
G54D17*X150000Y90000D03*
G54D12*G36*
X186000Y159000D02*Y151000D01*
X194000D01*
Y159000D01*
X186000D01*
G37*
G54D18*X190000Y165000D03*
G54D12*G36*
X186000Y116500D02*Y108500D01*
X194000D01*
Y116500D01*
X186000D01*
G37*
G54D18*X190000Y122500D03*
Y132500D03*
G54D12*G36*
X87500Y135000D02*Y130000D01*
X92500D01*
Y135000D01*
X87500D01*
G37*
G36*
X87250Y115250D02*Y109750D01*
X92750D01*
Y115250D01*
X87250D01*
G37*
G54D14*X50000Y132500D03*
G54D13*Y112500D03*
G54D15*X123000Y122500D03*
G54D16*X20000Y130000D03*
X30000D03*
Y120000D03*
Y110000D03*
Y100000D03*
X20000Y120000D03*
Y110000D03*
Y100000D03*
G54D12*G36*
X186000Y244000D02*Y236000D01*
X194000D01*
Y244000D01*
X186000D01*
G37*
G54D18*X190000Y250000D03*
Y260000D03*
G54D15*X123000Y250000D03*
G54D17*X173996Y315689D03*
X192500Y303878D03*
Y327500D03*
G54D16*X210000Y270000D03*
G54D19*X25000Y300000D03*
X215000D03*
G54D16*X210000Y280000D03*
G54D17*X80000Y90000D03*
X90000D03*
X100000D03*
X120000Y40000D03*
X130000D03*
X110000D03*
X100000D03*
X90000D03*
X80000D03*
X110000Y70000D03*
X100000D03*
X90000D03*
X80000D03*
G54D16*X30000Y60000D03*
Y70000D03*
G54D19*X37500Y40000D03*
G54D16*X20000Y60000D03*
Y70000D03*
Y90000D03*
Y80000D03*
X30000Y90000D03*
Y80000D03*
G54D17*X110000Y90000D03*
X120000D03*
X130000D03*
X140000D03*
X150000Y40000D03*
Y70000D03*
X140000Y40000D03*
X120000Y70000D03*
X140000D03*
X130000D03*
G54D16*X210000Y60000D03*
Y90000D03*
Y80000D03*
Y70000D03*
G54D19*X202500Y40000D03*
G54D16*X220000Y60000D03*
Y70000D03*
Y80000D03*
Y90000D03*
G54D18*X190000Y175000D03*
G54D12*G36*
X186000Y201500D02*Y193500D01*
X194000D01*
Y201500D01*
X186000D01*
G37*
G54D18*X190000Y207500D03*
Y217500D03*
G54D16*X220000Y280000D03*
Y260000D03*
Y250000D03*
Y270000D03*
X210000Y260000D03*
Y250000D03*
Y240000D03*
Y230000D03*
Y220000D03*
Y210000D03*
Y200000D03*
X220000Y180000D03*
Y190000D03*
Y200000D03*
Y210000D03*
Y220000D03*
Y230000D03*
Y240000D03*
X210000Y190000D03*
Y180000D03*
Y170000D03*
Y160000D03*
X220000Y140000D03*
Y150000D03*
Y160000D03*
Y170000D03*
X210000Y150000D03*
Y140000D03*
Y130000D03*
Y120000D03*
Y110000D03*
X220000D03*
X210000Y100000D03*
X220000D03*
Y120000D03*
Y130000D03*
G54D17*X142500Y122500D03*
Y207500D03*
X42500Y125000D03*
X142500Y250000D03*
X77500Y115000D03*
X182500Y82500D03*
X167500Y75000D03*
X65000Y102500D03*
G54D20*G54D21*G54D22*G54D21*G54D22*G54D21*G54D22*G54D23*G54D24*G54D21*G54D22*G54D21*G54D22*G54D24*G54D20*G54D17*G54D22*G54D21*G54D22*G54D21*G54D23*G54D24*G54D17*G54D23*G54D20*G54D24*G54D25*G54D24*G54D20*G54D24*G54D25*G54D24*G54D20*G54D24*G54D25*G54D24*G54D17*G54D24*M02*
