G04 start of page 8 for group -4079 idx -4079 *
G04 Title: (unknown), topsilk *
G04 Creator: pcb 4.0.2 *
G04 CreationDate: Fri Mar 27 01:18:50 2020 UTC *
G04 For: kevin *
G04 Format: Gerber/RS-274X *
G04 PCB-Dimensions (mil): 6000.00 5000.00 *
G04 PCB-Coordinate-Origin: lower left *
%MOIN*%
%FSLAX25Y25*%
%LNTOPSILK*%
%ADD69C,0.0060*%
%ADD68C,0.0200*%
%ADD67C,0.0300*%
%ADD66C,0.0100*%
%ADD65C,0.0250*%
G54D65*X209429Y352697D02*X175571D01*
X209429Y354665D02*X175571D01*
X209429Y356634D02*X175965D01*
G54D66*X210217Y300728D02*X174783D01*
X210217Y357815D02*Y300728D01*
X174783Y357815D02*X210217D01*
X174783D02*Y300728D01*
G54D67*X172000Y240000D02*X190000D01*
X172000Y250000D02*X190000D01*
X172000Y260000D02*X190000D01*
G54D68*X172000Y270000D02*Y230000D01*
X134500Y270000D02*X172000D01*
X134500D02*Y230000D01*
X172000D01*
X134500Y270000D02*Y230000D01*
X122000Y270000D02*X134500D01*
X122000D02*Y268500D01*
X115000D02*X122000D01*
X115000Y270000D02*Y268500D01*
X111000Y270000D02*X115000D01*
X111000D02*Y230000D01*
X115000D01*
Y231500D02*Y230000D01*
Y231500D02*X122000D01*
Y230000D01*
X134500D01*
G54D66*X76700Y260000D02*X90000D01*
X50000D02*X63300D01*
X76700D02*X63300Y253400D01*
Y266600D02*Y253400D01*
Y266600D02*X76700Y260000D01*
Y266600D02*Y253400D01*
X75000Y95000D02*Y85000D01*
X155000D01*
Y95000D01*
X75000D01*
X76024Y52362D02*X75984Y52402D01*
X76024Y27598D02*Y52362D01*
X75157Y27677D02*X75236Y27598D01*
X75157Y52402D02*Y27677D01*
G54D69*X79528Y50079D02*X78346Y48898D01*
X80315Y50079D02*X79528D01*
X80315Y44961D02*Y50079D01*
X77953Y44961D02*X82283D01*
G54D66*X155748Y52402D02*X74252D01*
X155748Y27598D02*Y52402D01*
X74252Y27598D02*X155748D01*
X74252D02*Y52402D01*
X76700Y132500D02*X90000D01*
X50000D02*X63300D01*
X76700D02*X63300Y125900D01*
Y139100D02*Y125900D01*
Y139100D02*X76700Y132500D01*
Y139100D02*Y125900D01*
X76024Y82362D02*X75984Y82402D01*
X76024Y57598D02*Y82362D01*
X75157Y57677D02*X75236Y57598D01*
X75157Y82402D02*Y57677D01*
G54D69*X79528Y80079D02*X78346Y78898D01*
X80315Y80079D02*X79528D01*
X80315Y74961D02*Y80079D01*
X77953Y74961D02*X82283D01*
G54D66*X155748Y82402D02*X74252D01*
X155748Y57598D02*Y82402D01*
X74252Y57598D02*X155748D01*
X74252D02*Y82402D01*
X80000Y112500D02*X90000D01*
X50000D02*X60000D01*
Y109200D02*X80000D01*
X60000Y115800D02*Y109200D01*
Y115800D02*X80000D01*
Y109200D01*
X76700Y175000D02*X90000D01*
X50000D02*X63300D01*
X76700D02*X63300Y168400D01*
Y181600D02*Y168400D01*
Y181600D02*X76700Y175000D01*
Y181600D02*Y168400D01*
X80000Y155000D02*X90000D01*
X50000D02*X60000D01*
Y151700D02*X80000D01*
X60000Y158300D02*Y151700D01*
Y158300D02*X80000D01*
Y151700D01*
G54D67*X172000Y155000D02*X190000D01*
X172000Y165000D02*X190000D01*
X172000Y175000D02*X190000D01*
G54D68*X172000Y185000D02*Y145000D01*
X134500Y185000D02*X172000D01*
X134500D02*Y145000D01*
X172000D01*
X134500Y185000D02*Y145000D01*
X122000Y185000D02*X134500D01*
X122000D02*Y183500D01*
X115000D02*X122000D01*
X115000Y185000D02*Y183500D01*
X111000Y185000D02*X115000D01*
X111000D02*Y145000D01*
X115000D01*
Y146500D02*Y145000D01*
Y146500D02*X122000D01*
Y145000D01*
X134500D01*
G54D67*X172000Y112500D02*X190000D01*
X172000Y122500D02*X190000D01*
X172000Y132500D02*X190000D01*
G54D68*X172000Y142500D02*Y102500D01*
X134500Y142500D02*X172000D01*
X134500D02*Y102500D01*
X172000D01*
X134500Y142500D02*Y102500D01*
X122000Y142500D02*X134500D01*
X122000D02*Y141000D01*
X115000D02*X122000D01*
X115000Y142500D02*Y141000D01*
X111000Y142500D02*X115000D01*
X111000D02*Y102500D01*
X115000D01*
Y104000D02*Y102500D01*
Y104000D02*X122000D01*
Y102500D01*
X134500D01*
G54D66*X80000Y240000D02*X90000D01*
X50000D02*X60000D01*
Y236700D02*X80000D01*
X60000Y243300D02*Y236700D01*
Y243300D02*X80000D01*
Y236700D01*
Y197500D02*X90000D01*
X50000D02*X60000D01*
Y194200D02*X80000D01*
X60000Y200800D02*Y194200D01*
Y200800D02*X80000D01*
Y194200D01*
X76700Y217500D02*X90000D01*
X50000D02*X63300D01*
X76700D02*X63300Y210900D01*
Y224100D02*Y210900D01*
Y224100D02*X76700Y217500D01*
Y224100D02*Y210900D01*
G54D67*X172000Y197500D02*X190000D01*
X172000Y207500D02*X190000D01*
X172000Y217500D02*X190000D01*
G54D68*X172000Y227500D02*Y187500D01*
X134500Y227500D02*X172000D01*
X134500D02*Y187500D01*
X172000D01*
X134500Y227500D02*Y187500D01*
X122000Y227500D02*X134500D01*
X122000D02*Y226000D01*
X115000D02*X122000D01*
X115000Y227500D02*Y226000D01*
X111000Y227500D02*X115000D01*
X111000D02*Y187500D01*
X115000D01*
Y189000D02*Y187500D01*
Y189000D02*X122000D01*
Y187500D01*
X134500D01*
G54D69*X48500Y352000D02*X51000Y349500D01*
Y352000D02*X48500D01*
X51000Y354500D02*Y352000D01*
X48500Y354500D02*X51000D01*
X48500D02*Y349500D01*
X45500Y354500D02*X47500D01*
X45500Y352000D02*X47500D01*
X45500Y349500D02*X47500D01*
X45500Y354500D02*Y349500D01*
X44500D02*Y354500D01*
X41500Y349500D02*X44500D01*
X43000D02*Y351000D01*
X41500Y354500D02*Y349500D01*
X40500Y354500D02*X38500D01*
X40500Y349500D02*Y354500D01*
X38500Y349500D02*X40500D01*
X38500Y354500D02*Y349500D01*
X37500Y352500D02*X35000D01*
X37500Y354500D02*Y352500D01*
X35000Y354500D02*X37500D01*
X35000D02*Y349500D01*
X215500Y51000D02*X218000D01*
X215500Y53000D02*X218000D01*
Y48500D01*
X215500D02*X218000D01*
X215500Y53000D02*Y48500D01*
X212000Y51500D02*X214500D01*
Y53000D02*Y51500D01*
X212000Y53000D02*X214500D01*
X212000D02*Y48500D01*
X22000Y51000D02*X24500D01*
X28000Y53000D02*Y48500D01*
X25500Y51000D02*X28000D01*
X25500Y53000D02*X28000D01*
X25500D02*Y51000D01*
X24500Y53000D02*Y51000D01*
X22000Y53000D02*X24500D01*
X22000D02*Y48500D01*
X210000Y290000D02*X209000Y289000D01*
X210000Y290000D02*Y286500D01*
X209000D02*X211000D01*
X219000D02*X221000D01*
Y288500D02*X219000Y286500D01*
X221000Y289500D02*Y288500D01*
X220500Y290000D02*X221000Y289500D01*
X219500Y290000D02*X220500D01*
X219000Y289500D02*X219500Y290000D01*
X20000D02*X19000Y289000D01*
X20000Y290000D02*Y286500D01*
X19000D02*X21000D01*
X29000D02*X31000D01*
Y288500D02*X29000Y286500D01*
X31000Y289500D02*Y288500D01*
X30500Y290000D02*X31000Y289500D01*
X29500Y290000D02*X30500D01*
X29000Y289500D02*X29500Y290000D01*
X32500Y357000D02*Y307000D01*
X62500Y357500D02*Y307000D01*
X32500D02*X62500D01*
G54D66*Y17500D02*X177500D01*
X167000Y335000D02*X227500D01*
X95000Y357500D02*Y274000D01*
X27500Y357500D02*X95000D01*
X227500Y335000D02*Y65000D01*
X12500Y325500D02*Y65000D01*
G54D69*X116500Y273000D02*Y269500D01*
X115500Y273000D02*X117500D01*
X112500D02*X114500D01*
X112500Y271500D02*X114500D01*
X112500Y269500D02*X114500D01*
X112500Y273000D02*Y269500D01*
X111500D02*Y273000D01*
Y271000D02*Y269500D01*
X109500Y273000D02*X111500Y271000D01*
X109500Y269500D02*Y273000D01*
X107000Y271000D02*X108500Y269500D01*
Y271000D02*X107000D01*
X108500Y273000D02*Y271000D01*
X107000Y273000D02*X108500D01*
X107000D02*Y269500D01*
X104500Y273000D02*X106000D01*
X104500Y271500D02*X106000D01*
X104500Y269500D02*X106000D01*
X104500Y273000D02*Y269500D01*
X103500Y273000D02*Y269500D01*
X102000Y271500D02*X103500D01*
X102000Y273000D02*Y269500D01*
X100000Y273000D02*Y269500D01*
X99000Y273000D02*X101000D01*
X96000D02*X98000D01*
X96000Y271500D02*X98000D01*
X96000Y269500D02*X98000D01*
X96000Y273000D02*Y269500D01*
G54D66*X95000Y274000D02*X167000D01*
Y335000D02*Y274000D01*
X12500Y325500D02*X27500D01*
Y357500D01*
X12500Y67500D02*G75*G03X62500Y17500I50000J0D01*G01*
X177500D02*G75*G03X227500Y67500I0J50000D01*G01*
X176712Y297981D02*X177512D01*
Y294481D01*
X177012Y293981D02*X177512Y294481D01*
X176512Y293981D02*X177012D01*
X176012Y294481D02*X176512Y293981D01*
X176012Y294981D02*Y294481D01*
X178712Y297181D02*X179512Y297981D01*
Y293981D01*
X178712D02*X180212D01*
X15000Y324000D02*Y320500D01*
X15500Y320000D01*
X16500D01*
X17000Y320500D01*
Y324000D02*Y320500D01*
X18200Y323200D02*X19000Y324000D01*
Y320000D01*
X18200D02*X19700D01*
X103065Y265926D02*Y262926D01*
Y265926D02*X103565Y266426D01*
X104565D01*
X105065Y265926D01*
Y263426D01*
X104065Y262426D02*X105065Y263426D01*
X103565Y262426D02*X104065D01*
X103065Y262926D02*X103565Y262426D01*
X104065Y263926D02*X105065Y262426D01*
X106265Y265626D02*X107065Y266426D01*
Y262426D01*
X106265D02*X107765D01*
X53395Y238375D02*X55395D01*
X55895Y237875D01*
Y236875D01*
X55395Y236375D02*X55895Y236875D01*
X53895Y236375D02*X55395D01*
X53895Y238375D02*Y234375D01*
X54695Y236375D02*X55895Y234375D01*
X57095Y237575D02*X57895Y238375D01*
Y234375D01*
X57095D02*X58595D01*
X56654Y258498D02*Y254498D01*
X57954Y258498D02*X58654Y257798D01*
Y255198D01*
X57954Y254498D02*X58654Y255198D01*
X56154Y254498D02*X57954D01*
X56154Y258498D02*X57954D01*
X59854Y257698D02*X60654Y258498D01*
Y254498D01*
X59854D02*X61354D01*
X52788Y194833D02*X54788D01*
X55288Y194333D01*
Y193333D01*
X54788Y192833D02*X55288Y193333D01*
X53288Y192833D02*X54788D01*
X53288Y194833D02*Y190833D01*
X54088Y192833D02*X55288Y190833D01*
X56488Y194333D02*X56988Y194833D01*
X58488D01*
X58988Y194333D01*
Y193333D01*
X56488Y190833D02*X58988Y193333D01*
X56488Y190833D02*X58988D01*
X56205Y215928D02*Y211928D01*
X57505Y215928D02*X58205Y215228D01*
Y212628D01*
X57505Y211928D02*X58205Y212628D01*
X55705Y211928D02*X57505D01*
X55705Y215928D02*X57505D01*
X59405Y215428D02*X59905Y215928D01*
X61405D01*
X61905Y215428D01*
Y214428D01*
X59405Y211928D02*X61905Y214428D01*
X59405Y211928D02*X61905D01*
X102065Y226042D02*Y223042D01*
Y226042D02*X102565Y226542D01*
X103565D01*
X104065Y226042D01*
Y223542D01*
X103065Y222542D02*X104065Y223542D01*
X102565Y222542D02*X103065D01*
X102065Y223042D02*X102565Y222542D01*
X103065Y224042D02*X104065Y222542D01*
X105265Y226042D02*X105765Y226542D01*
X107265D01*
X107765Y226042D01*
Y225042D01*
X105265Y222542D02*X107765Y225042D01*
X105265Y222542D02*X107765D01*
X77072Y101144D02*X77872D01*
Y97644D01*
X77372Y97144D02*X77872Y97644D01*
X76872Y97144D02*X77372D01*
X76372Y97644D02*X76872Y97144D01*
X76372Y98144D02*Y97644D01*
X79072Y100644D02*X79572Y101144D01*
X81072D01*
X81572Y100644D01*
Y99644D01*
X79072Y97144D02*X81572Y99644D01*
X79072Y97144D02*X81572D01*
X66315Y51204D02*Y47204D01*
Y51204D02*X67815Y49204D01*
X69315Y51204D01*
Y47204D01*
X70515Y50404D02*X71315Y51204D01*
Y47204D01*
X70515D02*X72015D01*
X55500Y130558D02*Y126558D01*
X56800Y130558D02*X57500Y129858D01*
Y127258D01*
X56800Y126558D02*X57500Y127258D01*
X55000Y126558D02*X56800D01*
X55000Y130558D02*X56800D01*
X58700Y128058D02*X60700Y130558D01*
X58700Y128058D02*X61200D01*
X60700Y130558D02*Y126558D01*
X65486Y81144D02*Y77144D01*
Y81144D02*X66986Y79144D01*
X68486Y81144D01*
Y77144D01*
X69686Y80644D02*X70186Y81144D01*
X71686D01*
X72186Y80644D01*
Y79644D01*
X69686Y77144D02*X72186Y79644D01*
X69686Y77144D02*X72186D01*
X52654Y110244D02*X54654D01*
X55154Y109744D01*
Y108744D01*
X54654Y108244D02*X55154Y108744D01*
X53154Y108244D02*X54654D01*
X53154Y110244D02*Y106244D01*
X53954Y108244D02*X55154Y106244D01*
X56354Y107744D02*X58354Y110244D01*
X56354Y107744D02*X58854D01*
X58354Y110244D02*Y106244D01*
X55844Y173360D02*Y169360D01*
X57144Y173360D02*X57844Y172660D01*
Y170060D01*
X57144Y169360D02*X57844Y170060D01*
X55344Y169360D02*X57144D01*
X55344Y173360D02*X57144D01*
X59044Y172860D02*X59544Y173360D01*
X60544D01*
X61044Y172860D01*
X60544Y169360D02*X61044Y169860D01*
X59544Y169360D02*X60544D01*
X59044Y169860D02*X59544Y169360D01*
Y171560D02*X60544D01*
X61044Y172860D02*Y172060D01*
Y171060D02*Y169860D01*
Y171060D02*X60544Y171560D01*
X61044Y172060D02*X60544Y171560D01*
X52637Y153135D02*X54637D01*
X55137Y152635D01*
Y151635D01*
X54637Y151135D02*X55137Y151635D01*
X53137Y151135D02*X54637D01*
X53137Y153135D02*Y149135D01*
X53937Y151135D02*X55137Y149135D01*
X56337Y152635D02*X56837Y153135D01*
X57837D01*
X58337Y152635D01*
X57837Y149135D02*X58337Y149635D01*
X56837Y149135D02*X57837D01*
X56337Y149635D02*X56837Y149135D01*
Y151335D02*X57837D01*
X58337Y152635D02*Y151835D01*
Y150835D02*Y149635D01*
Y150835D02*X57837Y151335D01*
X58337Y151835D02*X57837Y151335D01*
X102644Y183542D02*Y180542D01*
Y183542D02*X103144Y184042D01*
X104144D01*
X104644Y183542D01*
Y181042D01*
X103644Y180042D02*X104644Y181042D01*
X103144Y180042D02*X103644D01*
X102644Y180542D02*X103144Y180042D01*
X103644Y181542D02*X104644Y180042D01*
X105844Y183542D02*X106344Y184042D01*
X107344D01*
X107844Y183542D01*
X107344Y180042D02*X107844Y180542D01*
X106344Y180042D02*X107344D01*
X105844Y180542D02*X106344Y180042D01*
Y182242D02*X107344D01*
X107844Y183542D02*Y182742D01*
Y181742D02*Y180542D01*
Y181742D02*X107344Y182242D01*
X107844Y182742D02*X107344Y182242D01*
X102210Y140463D02*Y137463D01*
Y140463D02*X102710Y140963D01*
X103710D01*
X104210Y140463D01*
Y137963D01*
X103210Y136963D02*X104210Y137963D01*
X102710Y136963D02*X103210D01*
X102210Y137463D02*X102710Y136963D01*
X103210Y138463D02*X104210Y136963D01*
X105410Y138463D02*X107410Y140963D01*
X105410Y138463D02*X107910D01*
X107410Y140963D02*Y136963D01*
M02*
