G04 start of page 6 for group -4063 idx -4063 *
G04 Title: (unknown), componentmask *
G04 Creator: pcb 4.0.2 *
G04 CreationDate: Fri Mar 27 01:18:50 2020 UTC *
G04 For: kevin *
G04 Format: Gerber/RS-274X *
G04 PCB-Dimensions (mil): 6000.00 5000.00 *
G04 PCB-Coordinate-Origin: lower left *
%MOIN*%
%FSLAX25Y25*%
%LNTOPMASK*%
%ADD56C,0.1590*%
%ADD55C,0.0860*%
%ADD54C,0.0660*%
%ADD53C,0.0750*%
%ADD52C,0.1560*%
%ADD51C,0.0560*%
%ADD50C,0.0610*%
%ADD49C,0.0001*%
G54D49*G36*
X86950Y243050D02*Y236950D01*
X93050D01*
Y243050D01*
X86950D01*
G37*
G54D50*X50000Y240000D03*
G54D49*G36*
X87200Y262800D02*Y257200D01*
X92800D01*
Y262800D01*
X87200D01*
G37*
G54D51*X50000Y260000D03*
G54D49*G36*
X86950Y200550D02*Y194450D01*
X93050D01*
Y200550D01*
X86950D01*
G37*
G36*
X87200Y177800D02*Y172200D01*
X92800D01*
Y177800D01*
X87200D01*
G37*
G36*
X86950Y158050D02*Y151950D01*
X93050D01*
Y158050D01*
X86950D01*
G37*
G36*
X87200Y220300D02*Y214700D01*
X92800D01*
Y220300D01*
X87200D01*
G37*
G54D52*X123000Y165000D03*
Y207500D03*
G54D53*X30000Y280000D03*
X20000D03*
Y270000D03*
Y260000D03*
Y250000D03*
Y240000D03*
Y230000D03*
Y220000D03*
X30000Y270000D03*
Y260000D03*
Y250000D03*
Y240000D03*
Y230000D03*
Y220000D03*
G54D50*X50000Y197500D03*
G54D51*Y175000D03*
G54D50*Y155000D03*
G54D51*Y217500D03*
G54D53*X20000Y210000D03*
X30000D03*
Y200000D03*
Y190000D03*
Y180000D03*
X20000Y200000D03*
Y190000D03*
Y180000D03*
Y170000D03*
Y160000D03*
Y150000D03*
Y140000D03*
X30000Y170000D03*
Y160000D03*
Y150000D03*
Y140000D03*
G54D54*X150000Y90000D03*
G54D49*G36*
X185700Y159300D02*Y150700D01*
X194300D01*
Y159300D01*
X185700D01*
G37*
G54D55*X190000Y165000D03*
G54D49*G36*
X185700Y116800D02*Y108200D01*
X194300D01*
Y116800D01*
X185700D01*
G37*
G54D55*X190000Y122500D03*
Y132500D03*
G54D49*G36*
X87200Y135300D02*Y129700D01*
X92800D01*
Y135300D01*
X87200D01*
G37*
G36*
X86950Y115550D02*Y109450D01*
X93050D01*
Y115550D01*
X86950D01*
G37*
G54D51*X50000Y132500D03*
G54D50*Y112500D03*
G54D52*X123000Y122500D03*
G54D53*X20000Y130000D03*
X30000D03*
Y120000D03*
Y110000D03*
Y100000D03*
X20000Y120000D03*
Y110000D03*
Y100000D03*
G54D49*G36*
X185700Y244300D02*Y235700D01*
X194300D01*
Y244300D01*
X185700D01*
G37*
G54D55*X190000Y250000D03*
Y260000D03*
G54D52*X123000Y250000D03*
G54D54*X173996Y315689D03*
X192500Y303878D03*
Y327500D03*
G54D53*X210000Y270000D03*
G54D56*X25000Y300000D03*
X215000D03*
G54D53*X210000Y280000D03*
G54D54*X80000Y90000D03*
X90000D03*
X100000D03*
X120000Y40000D03*
X130000D03*
X110000D03*
X100000D03*
X90000D03*
X80000D03*
X110000Y70000D03*
X100000D03*
X90000D03*
X80000D03*
G54D53*X30000Y60000D03*
Y70000D03*
G54D56*X37500Y40000D03*
G54D53*X20000Y60000D03*
Y70000D03*
Y90000D03*
Y80000D03*
X30000Y90000D03*
Y80000D03*
G54D54*X110000Y90000D03*
X120000D03*
X130000D03*
X140000D03*
X150000Y40000D03*
Y70000D03*
X140000Y40000D03*
X120000Y70000D03*
X140000D03*
X130000D03*
G54D53*X210000Y60000D03*
Y90000D03*
Y80000D03*
Y70000D03*
G54D56*X202500Y40000D03*
G54D53*X220000Y60000D03*
Y70000D03*
Y80000D03*
Y90000D03*
G54D55*X190000Y175000D03*
G54D49*G36*
X185700Y201800D02*Y193200D01*
X194300D01*
Y201800D01*
X185700D01*
G37*
G54D55*X190000Y207500D03*
Y217500D03*
G54D53*X220000Y280000D03*
Y260000D03*
Y250000D03*
Y270000D03*
X210000Y260000D03*
Y250000D03*
Y240000D03*
Y230000D03*
Y220000D03*
Y210000D03*
Y200000D03*
X220000Y180000D03*
Y190000D03*
Y200000D03*
Y210000D03*
Y220000D03*
Y230000D03*
Y240000D03*
X210000Y190000D03*
Y180000D03*
Y170000D03*
Y160000D03*
X220000Y140000D03*
Y150000D03*
Y160000D03*
Y170000D03*
X210000Y150000D03*
Y140000D03*
Y130000D03*
Y120000D03*
Y110000D03*
X220000D03*
X210000Y100000D03*
X220000D03*
Y120000D03*
Y130000D03*
M02*
