G04 start of page 6 for group -4063 idx -4063 *
G04 Title: Motor Controller, componentmask *
G04 Creator: pcb 4.2.2 *
G04 CreationDate: Mon Feb 22 05:04:53 2021 UTC *
G04 For: kevin *
G04 Format: Gerber/RS-274X *
G04 PCB-Dimensions (mil): 4750.00 5800.00 *
G04 PCB-Coordinate-Origin: lower left *
%MOIN*%
%FSLAX25Y25*%
%LNTOPMASK*%
%ADD60C,0.1060*%
%ADD59C,0.0810*%
%ADD58C,0.1520*%
%ADD57C,0.0960*%
%ADD56C,0.0610*%
%ADD55C,0.0660*%
%ADD54C,0.0750*%
%ADD53C,0.0001*%
%ADD52C,0.1590*%
G54D52*X220000Y520000D03*
G54D53*G36*
X221250Y503750D02*Y496250D01*
X228750D01*
Y503750D01*
X221250D01*
G37*
G54D54*X215000Y500000D03*
Y490000D03*
X225000D03*
X215000Y480000D03*
Y470000D03*
X225000Y480000D03*
Y470000D03*
G54D53*G36*
X31250Y503750D02*Y496250D01*
X38750D01*
Y503750D01*
X31250D01*
G37*
G54D54*X215000Y370000D03*
X35000D03*
X215000Y360000D03*
X35000D03*
X25000D03*
Y370000D03*
X215000Y460000D03*
Y450000D03*
Y440000D03*
Y430000D03*
Y420000D03*
X225000Y460000D03*
Y450000D03*
Y440000D03*
Y430000D03*
Y420000D03*
Y410000D03*
Y400000D03*
Y390000D03*
Y380000D03*
Y370000D03*
Y360000D03*
X215000Y410000D03*
Y400000D03*
Y390000D03*
Y380000D03*
G54D55*X300000Y440000D03*
G54D53*G36*
X275700Y433300D02*Y426700D01*
X282300D01*
Y433300D01*
X275700D01*
G37*
G54D55*X279000Y440000D03*
G54D53*G36*
X253700Y433300D02*Y426700D01*
X260300D01*
Y433300D01*
X253700D01*
G37*
G54D55*X257000Y440000D03*
X300000Y430000D03*
Y420000D03*
Y410000D03*
Y400000D03*
Y390000D03*
Y380000D03*
Y370000D03*
G54D53*G36*
X360950Y413050D02*Y406950D01*
X367050D01*
Y413050D01*
X360950D01*
G37*
G36*
Y403050D02*Y396950D01*
X367050D01*
Y403050D01*
X360950D01*
G37*
G54D56*X404000Y410000D03*
Y400000D03*
G54D52*X30000Y520000D03*
G54D54*X25000Y500000D03*
X35000Y450000D03*
X25000D03*
X35000Y490000D03*
Y480000D03*
X25000D03*
Y490000D03*
X35000Y470000D03*
Y460000D03*
X25000D03*
Y470000D03*
G54D52*X42500Y260000D03*
G54D54*X35000Y280000D03*
Y350000D03*
Y340000D03*
Y330000D03*
Y320000D03*
Y310000D03*
Y300000D03*
X25000D03*
Y310000D03*
X35000Y290000D03*
X25000Y280000D03*
Y290000D03*
Y320000D03*
Y330000D03*
Y340000D03*
Y350000D03*
X35000Y440000D03*
X25000D03*
X35000Y430000D03*
X25000D03*
X35000Y420000D03*
Y410000D03*
Y400000D03*
X25000D03*
Y410000D03*
X35000Y390000D03*
Y380000D03*
X25000D03*
Y390000D03*
Y420000D03*
G54D52*X207500Y260000D03*
G54D54*X215000Y280000D03*
G54D57*X393504Y201189D03*
X375000Y213000D03*
Y189378D03*
G54D54*X215000Y350000D03*
Y340000D03*
Y330000D03*
Y320000D03*
Y310000D03*
Y300000D03*
Y290000D03*
X225000Y280000D03*
Y290000D03*
Y350000D03*
Y340000D03*
Y330000D03*
Y320000D03*
Y310000D03*
Y300000D03*
G54D58*X196000Y35500D03*
Y180500D03*
X51000Y35500D03*
Y180500D03*
G54D59*X116000Y213000D03*
X106000D03*
X96000D03*
X86000D03*
X76000D03*
X66000D03*
G54D60*X174000D03*
X154000D03*
X134000D03*
M02*
