G04 start of page 8 for group -4079 idx -4079 *
G04 Title: Motor Controller, topsilk *
G04 Creator: pcb 4.2.2 *
G04 CreationDate: Sun Nov 29 09:20:44 2020 UTC *
G04 For: kevin *
G04 Format: Gerber/RS-274X *
G04 PCB-Dimensions (mil): 3300.00 3900.00 *
G04 PCB-Coordinate-Origin: lower left *
%MOIN*%
%FSLAX25Y25*%
%LNTOPSILK*%
%ADD68C,0.0200*%
%ADD67C,0.0300*%
%ADD66C,0.0250*%
%ADD65C,0.0060*%
%ADD64C,0.0100*%
G54D64*X320000Y0D02*Y390000D01*
X10000D02*Y0D01*
X234000Y259000D02*X318000D01*
Y171000D02*X234000D01*
X318000Y258000D02*Y171000D01*
X234000D02*Y259000D01*
G54D65*X251000Y200200D02*X252500D01*
X251000Y198000D02*X253000D01*
X251000Y202000D02*Y198000D01*
Y202000D02*X253000D01*
X254200Y201500D02*Y198500D01*
Y201500D02*X254700Y202000D01*
X255700D01*
X256200Y201500D01*
Y198500D01*
X255700Y198000D02*X256200Y198500D01*
X254700Y198000D02*X255700D01*
X254200Y198500D02*X254700Y198000D01*
X258100D02*X259400D01*
X257400Y198700D02*X258100Y198000D01*
X257400Y201300D02*Y198700D01*
Y201300D02*X258100Y202000D01*
X259400D01*
X251000Y192000D02*X253000D01*
X253500Y191500D01*
Y190500D01*
X253000Y190000D02*X253500Y190500D01*
X251500Y190000D02*X253000D01*
X251500Y192000D02*Y188000D01*
X252300Y190000D02*X253500Y188000D01*
X256700Y192000D02*X257200Y191500D01*
X255200Y192000D02*X256700D01*
X254700Y191500D02*X255200Y192000D01*
X254700Y191500D02*Y190500D01*
X255200Y190000D01*
X256700D01*
X257200Y189500D01*
Y188500D01*
X256700Y188000D02*X257200Y188500D01*
X255200Y188000D02*X256700D01*
X254700Y188500D02*X255200Y188000D01*
X258400Y192000D02*X260400D01*
X259400D02*Y188000D01*
X253000Y212000D02*X253500Y211500D01*
X251500Y212000D02*X253000D01*
X251000Y211500D02*X251500Y212000D01*
X251000Y211500D02*Y210500D01*
X251500Y210000D01*
X253000D01*
X253500Y209500D01*
Y208500D01*
X253000Y208000D02*X253500Y208500D01*
X251500Y208000D02*X253000D01*
X251000Y208500D02*X251500Y208000D01*
X255200Y212000D02*Y208000D01*
X256500Y212000D02*X257200Y211300D01*
Y208700D01*
X256500Y208000D02*X257200Y208700D01*
X254700Y208000D02*X256500D01*
X254700Y212000D02*X256500D01*
X258400Y211000D02*Y208000D01*
Y211000D02*X259100Y212000D01*
X260200D01*
X260900Y211000D01*
Y208000D01*
X258400Y210000D02*X260900D01*
X251000Y241500D02*X251500Y242000D01*
X252500D01*
X253000Y241500D01*
X252500Y238000D02*X253000Y238500D01*
X251500Y238000D02*X252500D01*
X251000Y238500D02*X251500Y238000D01*
Y240200D02*X252500D01*
X253000Y241500D02*Y240700D01*
Y239700D02*Y238500D01*
Y239700D02*X252500Y240200D01*
X253000Y240700D02*X252500Y240200D01*
X254200Y242000D02*X255200Y238000D01*
X256200Y242000D01*
X257400Y239500D02*Y238500D01*
Y239500D02*X257900Y240000D01*
X258900D01*
X259400Y239500D01*
Y238500D01*
X258900Y238000D02*X259400Y238500D01*
X257900Y238000D02*X258900D01*
X257400Y238500D02*X257900Y238000D01*
X253000Y232000D02*X253500Y231500D01*
X251500Y232000D02*X253000D01*
X251000Y231500D02*X251500Y232000D01*
X251000Y231500D02*Y228500D01*
X251500Y228000D01*
X253000D01*
X253500Y228500D01*
Y229500D02*Y228500D01*
X253000Y230000D02*X253500Y229500D01*
X252000Y230000D02*X253000D01*
X254700Y232000D02*Y228000D01*
Y232000D02*X257200Y228000D01*
Y232000D02*Y228000D01*
X258900Y232000D02*Y228000D01*
X260200Y232000D02*X260900Y231300D01*
Y228700D01*
X260200Y228000D02*X260900Y228700D01*
X258400Y228000D02*X260200D01*
X258400Y232000D02*X260200D01*
X253000Y222000D02*X253500Y221500D01*
X251500Y222000D02*X253000D01*
X251000Y221500D02*X251500Y222000D01*
X251000Y221500D02*Y220500D01*
X251500Y220000D01*
X253000D01*
X253500Y219500D01*
Y218500D01*
X253000Y218000D02*X253500Y218500D01*
X251500Y218000D02*X253000D01*
X251000Y218500D02*X251500Y218000D01*
X255400D02*X256700D01*
X254700Y218700D02*X255400Y218000D01*
X254700Y221300D02*Y218700D01*
Y221300D02*X255400Y222000D01*
X256700D01*
X257900D02*Y218000D01*
X259900D01*
X251000Y252000D02*X252000Y248000D01*
X253000Y252000D01*
X254200D02*X255200D01*
X254700D02*Y248000D01*
X254200D02*X255200D01*
X256400Y252000D02*Y248000D01*
Y252000D02*X258900Y248000D01*
Y252000D02*Y248000D01*
G54D64*X235024Y36362D02*X234984Y36402D01*
X235024Y11598D02*Y36362D01*
X234157Y11677D02*X234236Y11598D01*
X234157Y36402D02*Y11677D01*
G54D65*X238528Y34079D02*X237346Y32898D01*
X239315Y34079D02*X238528D01*
X239315Y28961D02*Y34079D01*
X236953Y28961D02*X241283D01*
G54D64*X314748Y36402D02*X233252D01*
X314748Y11598D02*Y36402D01*
X233252Y11598D02*X314748D01*
X233252D02*Y36402D01*
G54D66*X133071Y-13197D02*X166929D01*
X133071Y-15165D02*X166929D01*
X133071Y-17134D02*X166535D01*
G54D64*X132283Y38772D02*X167717D01*
X132283D02*Y-18315D01*
X167717D01*
Y38772D02*Y-18315D01*
X314000Y50000D02*G75*G03X314000Y50000I-10000J0D01*G01*
X254000D02*G75*G03X254000Y50000I-10000J0D01*G01*
X293000Y58000D02*G75*G03X293000Y58000I0J10000D01*G01*
X233000D02*G75*G03X233000Y58000I0J10000D01*G01*
X254000Y78000D02*G75*G03X254000Y78000I0J-10000D01*G01*
X314000D02*G75*G03X314000Y78000I0J-10000D01*G01*
X291000Y235000D02*G75*G03X291000Y235000I0J10000D01*G01*
X270000D02*G75*G03X270000Y235000I0J10000D01*G01*
Y210000D02*X280000D01*
X300000D02*X310000D01*
X280000Y213300D02*X300000D01*
Y206700D01*
X280000D01*
Y213300D01*
X270000Y219700D02*X280000D01*
X300000D02*X310000D01*
X280000Y223000D02*X300000D01*
Y216400D01*
X280000D01*
Y223000D01*
X85000Y270000D02*Y260000D01*
Y300000D02*Y290000D01*
X81700D02*Y270000D01*
Y290000D02*X88300D01*
Y270000D01*
X81700D02*X88300D01*
X140000D02*Y260000D01*
Y300000D02*Y290000D01*
X136700D02*Y270000D01*
Y290000D02*X143300D01*
Y270000D01*
X136700D02*X143300D01*
X67500Y47500D02*X182500D01*
X232500Y388000D02*Y95000D01*
G54D65*X214000Y316500D02*X216000D01*
Y318500D02*X214000Y316500D01*
X216000Y319500D02*Y318500D01*
X215500Y320000D02*X216000Y319500D01*
X214500Y320000D02*X215500D01*
X214000Y319500D02*X214500Y320000D01*
X35000D02*Y316500D01*
X34000D02*X36000D01*
X24000D02*X26000D01*
Y318500D02*X24000Y316500D01*
X26000Y319500D02*Y318500D01*
X25500Y320000D02*X26000Y319500D01*
X24500Y320000D02*X25500D01*
X24000Y319500D02*X24500Y320000D01*
X225000D02*X224000Y319000D01*
X225000Y320000D02*Y316500D01*
X224000D02*X226000D01*
X217500Y80000D02*X220000D01*
X223500Y82000D02*Y77500D01*
X221000Y80000D02*X223500D01*
X221000Y82000D02*X223500D01*
X221000D02*Y80000D01*
X220000Y82000D02*Y80000D01*
X217500Y82000D02*Y77500D01*
Y82000D02*X220000D01*
X31000Y79500D02*X33500D01*
X31000Y81500D02*X33500D01*
Y77000D01*
X31000D02*X33500D01*
X31000Y81500D02*Y77000D01*
X27500Y80000D02*X30000D01*
Y81500D02*Y80000D01*
X27500Y81500D02*X30000D01*
X27500D02*Y77000D01*
G54D64*X17500Y387500D02*Y95000D01*
Y387500D02*X76000D01*
X207000Y388000D02*X232500D01*
G54D65*X35000Y320000D02*X34000Y319000D01*
G54D64*X76000Y323000D02*X207000D01*
X76000Y387500D02*Y323000D01*
X207000Y388000D02*Y323000D01*
X76000Y321000D02*Y315000D01*
X80000D01*
Y321000D02*Y315000D01*
X82000Y321000D02*X86000D01*
X82000D02*Y318000D01*
X86000D01*
Y315000D01*
X82000D02*X86000D01*
X88000Y321000D02*Y315000D01*
X91000D01*
X92000Y316000D01*
Y320000D02*Y316000D01*
Y320000D02*X91000Y321000D01*
X88000D02*X91000D01*
X88000Y318000D02*X92000D01*
X17500Y97500D02*G75*G03X67500Y47500I50000J0D01*G01*
X182500D02*G75*G03X232500Y97500I0J50000D01*G01*
X102000Y270000D02*Y260000D01*
Y300000D02*Y290000D01*
X98700D02*Y270000D01*
Y290000D02*X105300D01*
Y270000D01*
X98700D02*X105300D01*
G54D67*X85000Y168000D02*Y186000D01*
X95000Y168000D02*Y186000D01*
X105000Y168000D02*Y186000D01*
G54D68*X75000D02*X115000D01*
Y223500D01*
X75000D01*
Y186000D01*
Y223500D02*X115000D01*
Y236000D01*
X113500D01*
Y243000D01*
X115000D01*
Y247000D01*
X75000D01*
Y243000D01*
X76500D01*
Y236000D01*
X75000D01*
Y223500D01*
G54D64*X150000Y150000D02*Y136700D01*
Y123300D02*Y110000D01*
Y136700D02*X156600Y123300D01*
X143400D02*X156600D01*
X143400D02*X150000Y136700D01*
X143400D02*X156600D01*
X95000Y150000D02*Y136700D01*
Y123300D02*Y110000D01*
Y136700D02*X101600Y123300D01*
X88400D02*X101600D01*
X88400D02*X95000Y136700D01*
X88400D02*X101600D01*
G54D67*X140000Y168000D02*Y186000D01*
X150000Y168000D02*Y186000D01*
X160000Y168000D02*Y186000D01*
G54D68*X130000D02*X170000D01*
Y223500D01*
X130000D01*
Y186000D01*
Y223500D02*X170000D01*
Y236000D01*
X168500D01*
Y243000D01*
X170000D01*
Y247000D01*
X130000D01*
Y243000D01*
X131500D01*
Y236000D01*
X130000D01*
Y223500D01*
G54D64*X238000Y255000D02*X248000D01*
X238000D02*Y175000D01*
X248000D01*
Y255000D02*Y175000D01*
X157000Y270000D02*Y260000D01*
Y300000D02*Y290000D01*
X153700D02*Y270000D01*
Y290000D02*X160300D01*
Y270000D01*
X153700D02*X160300D01*
X26000Y44000D02*X76000D01*
X26000D02*Y24000D01*
X76000D01*
Y44000D02*Y24000D01*
X66000Y44000D02*Y34000D01*
X76000D01*
G54D65*X77959Y220036D02*Y217036D01*
Y220036D02*X78459Y220536D01*
X79459D01*
X79959Y220036D01*
Y217536D01*
X78959Y216536D02*X79959Y217536D01*
X78459Y216536D02*X78959D01*
X77959Y217036D02*X78459Y216536D01*
X78959Y218036D02*X79959Y216536D01*
X81159Y219736D02*X81959Y220536D01*
Y216536D01*
X81159D02*X82659D01*
X133128Y219927D02*Y216927D01*
Y219927D02*X133628Y220427D01*
X134628D01*
X135128Y219927D01*
Y217427D01*
X134128Y216427D02*X135128Y217427D01*
X133628Y216427D02*X134128D01*
X133128Y216927D02*X133628Y216427D01*
X134128Y217927D02*X135128Y216427D01*
X136328Y219927D02*X136828Y220427D01*
X138328D01*
X138828Y219927D01*
Y218927D01*
X136328Y216427D02*X138828Y218927D01*
X136328Y216427D02*X138828D01*
X141808Y143552D02*Y139552D01*
X143108Y143552D02*X143808Y142852D01*
Y140252D01*
X143108Y139552D02*X143808Y140252D01*
X141308Y139552D02*X143108D01*
X141308Y143552D02*X143108D01*
X145008Y143052D02*X145508Y143552D01*
X147008D01*
X147508Y143052D01*
Y142052D01*
X145008Y139552D02*X147508Y142052D01*
X145008Y139552D02*X147508D01*
X87766Y143399D02*Y139399D01*
X89066Y143399D02*X89766Y142699D01*
Y140099D01*
X89066Y139399D02*X89766Y140099D01*
X87266Y139399D02*X89066D01*
X87266Y143399D02*X89066D01*
X90966Y142599D02*X91766Y143399D01*
Y139399D01*
X90966D02*X92466D01*
X237384Y17706D02*Y13706D01*
Y17706D02*X238884Y15706D01*
X240384Y17706D01*
Y13706D01*
X241584Y16906D02*X242384Y17706D01*
Y13706D01*
X241584D02*X243084D01*
X234577Y265714D02*Y262214D01*
X235077Y261714D01*
X236077D01*
X236577Y262214D01*
Y265714D02*Y262214D01*
X237777Y265214D02*X238277Y265714D01*
X239777D01*
X240277Y265214D01*
Y264214D01*
X237777Y261714D02*X240277Y264214D01*
X237777Y261714D02*X240277D01*
X313700Y40000D02*X315000D01*
X313000Y40700D02*X313700Y40000D01*
X313000Y43300D02*Y40700D01*
Y43300D02*X313700Y44000D01*
X315000D01*
X316700Y40000D02*X318700Y44000D01*
X316200D02*X318700D01*
X253700Y40000D02*X255000D01*
X253000Y40700D02*X253700Y40000D01*
X253000Y43300D02*Y40700D01*
Y43300D02*X253700Y44000D01*
X255000D01*
X256200Y41500D02*X258200Y44000D01*
X256200Y41500D02*X258700D01*
X258200Y44000D02*Y40000D01*
X134574Y44962D02*X135374D01*
Y41462D01*
X134874Y40962D02*X135374Y41462D01*
X134374Y40962D02*X134874D01*
X133874Y41462D02*X134374Y40962D01*
X133874Y41962D02*Y41462D01*
X136574Y44162D02*X137374Y44962D01*
Y40962D01*
X136574D02*X138074D01*
X282700Y77000D02*X284000D01*
X282000Y77700D02*X282700Y77000D01*
X282000Y80300D02*Y77700D01*
Y80300D02*X282700Y81000D01*
X284000D01*
X286700D02*X287200Y80500D01*
X285700Y81000D02*X286700D01*
X285200Y80500D02*X285700Y81000D01*
X285200Y80500D02*Y77500D01*
X285700Y77000D01*
X286700Y79200D02*X287200Y78700D01*
X285200Y79200D02*X286700D01*
X285700Y77000D02*X286700D01*
X287200Y77500D01*
Y78700D02*Y77500D01*
X260700Y77000D02*X262000D01*
X260000Y77700D02*X260700Y77000D01*
X260000Y80300D02*Y77700D01*
Y80300D02*X260700Y81000D01*
X262000D01*
X263200D02*X265200D01*
X263200D02*Y79000D01*
X263700Y79500D01*
X264700D01*
X265200Y79000D01*
Y77500D01*
X264700Y77000D02*X265200Y77500D01*
X263700Y77000D02*X264700D01*
X263200Y77500D02*X263700Y77000D01*
X224700Y53000D02*X226000D01*
X224000Y53700D02*X224700Y53000D01*
X224000Y56300D02*Y53700D01*
Y56300D02*X224700Y57000D01*
X226000D01*
X227200Y56500D02*X227700Y57000D01*
X228700D01*
X229200Y56500D01*
X228700Y53000D02*X229200Y53500D01*
X227700Y53000D02*X228700D01*
X227200Y53500D02*X227700Y53000D01*
Y55200D02*X228700D01*
X229200Y56500D02*Y55700D01*
Y54700D02*Y53500D01*
Y54700D02*X228700Y55200D01*
X229200Y55700D02*X228700Y55200D01*
X321700Y77000D02*X323000D01*
X321000Y77700D02*X321700Y77000D01*
X321000Y80300D02*Y77700D01*
Y80300D02*X321700Y81000D01*
X323000D01*
X324200Y77500D02*X324700Y77000D01*
X324200Y78300D02*Y77500D01*
Y78300D02*X324900Y79000D01*
X325500D01*
X326200Y78300D01*
Y77500D01*
X325700Y77000D02*X326200Y77500D01*
X324700Y77000D02*X325700D01*
X324200Y79700D02*X324900Y79000D01*
X324200Y80500D02*Y79700D01*
Y80500D02*X324700Y81000D01*
X325700D01*
X326200Y80500D01*
Y79700D01*
X325500Y79000D02*X326200Y79700D01*
X298700Y233000D02*X300000D01*
X298000Y233700D02*X298700Y233000D01*
X298000Y236300D02*Y233700D01*
Y236300D02*X298700Y237000D01*
X300000D01*
X301200Y236200D02*X302000Y237000D01*
Y233000D01*
X301200D02*X302700D01*
X277700D02*X279000D01*
X277000Y233700D02*X277700Y233000D01*
X277000Y236300D02*Y233700D01*
Y236300D02*X277700Y237000D01*
X279000D01*
X280200Y236500D02*X280700Y237000D01*
X282200D01*
X282700Y236500D01*
Y235500D01*
X280200Y233000D02*X282700Y235500D01*
X280200Y233000D02*X282700D01*
X282000Y212300D02*X284000D01*
X284500Y211800D01*
Y210800D01*
X284000Y210300D02*X284500Y210800D01*
X282500Y210300D02*X284000D01*
X282500Y212300D02*Y208300D01*
X283300Y210300D02*X284500Y208300D01*
X285700Y212300D02*X287700D01*
X285700D02*Y210300D01*
X286200Y210800D01*
X287200D01*
X287700Y210300D01*
Y208800D01*
X287200Y208300D02*X287700Y208800D01*
X286200Y208300D02*X287200D01*
X285700Y208800D02*X286200Y208300D01*
X282000Y221300D02*X284000D01*
X284500Y220800D01*
Y219800D01*
X284000Y219300D02*X284500Y219800D01*
X282500Y219300D02*X284000D01*
X282500Y221300D02*Y217300D01*
X283300Y219300D02*X284500Y217300D01*
X287200Y221300D02*X287700Y220800D01*
X286200Y221300D02*X287200D01*
X285700Y220800D02*X286200Y221300D01*
X285700Y220800D02*Y217800D01*
X286200Y217300D01*
X287200Y219500D02*X287700Y219000D01*
X285700Y219500D02*X287200D01*
X286200Y217300D02*X287200D01*
X287700Y217800D01*
Y219000D02*Y217800D01*
X27700Y46000D02*X29000D01*
X27000Y46700D02*X27700Y46000D01*
X27000Y49300D02*Y46700D01*
Y49300D02*X27700Y50000D01*
X29000D01*
X30200Y49500D02*Y46500D01*
Y49500D02*X30700Y50000D01*
X31700D01*
X32200Y49500D01*
Y46500D01*
X31700Y46000D02*X32200Y46500D01*
X30700Y46000D02*X31700D01*
X30200Y46500D02*X30700Y46000D01*
X33400Y50000D02*Y46000D01*
Y50000D02*X35900Y46000D01*
Y50000D02*Y46000D01*
X37100Y50000D02*Y46000D01*
Y50000D02*X39600Y46000D01*
Y50000D02*Y46000D01*
X40800Y49200D02*X41600Y50000D01*
Y46000D01*
X40800D02*X42300D01*
X20000Y385000D02*Y381500D01*
X20500Y381000D01*
X21500D01*
X22000Y381500D01*
Y385000D02*Y381500D01*
X23200Y384200D02*X24000Y385000D01*
Y381000D01*
X23200D02*X24700D01*
X74769Y288590D02*X76769D01*
X77269Y288090D01*
Y287090D01*
X76769Y286590D02*X77269Y287090D01*
X75269Y286590D02*X76769D01*
X75269Y288590D02*Y284590D01*
X76069Y286590D02*X77269Y284590D01*
X78469Y287790D02*X79269Y288590D01*
Y284590D01*
X78469D02*X79969D01*
X128723Y288871D02*X130723D01*
X131223Y288371D01*
Y287371D01*
X130723Y286871D02*X131223Y287371D01*
X129223Y286871D02*X130723D01*
X129223Y288871D02*Y284871D01*
X130023Y286871D02*X131223Y284871D01*
X132423Y288371D02*X132923Y288871D01*
X134423D01*
X134923Y288371D01*
Y287371D01*
X132423Y284871D02*X134923Y287371D01*
X132423Y284871D02*X134923D01*
X161700Y289000D02*X163700D01*
X164200Y288500D01*
Y287500D01*
X163700Y287000D02*X164200Y287500D01*
X162200Y287000D02*X163700D01*
X162200Y289000D02*Y285000D01*
X163000Y287000D02*X164200Y285000D01*
X165400Y286500D02*X167400Y289000D01*
X165400Y286500D02*X167900D01*
X167400Y289000D02*Y285000D01*
X107700Y289000D02*X109700D01*
X110200Y288500D01*
Y287500D01*
X109700Y287000D02*X110200Y287500D01*
X108200Y287000D02*X109700D01*
X108200Y289000D02*Y285000D01*
X109000Y287000D02*X110200Y285000D01*
X111400Y288500D02*X111900Y289000D01*
X112900D01*
X113400Y288500D01*
X112900Y285000D02*X113400Y285500D01*
X111900Y285000D02*X112900D01*
X111400Y285500D02*X111900Y285000D01*
Y287200D02*X112900D01*
X113400Y288500D02*Y287700D01*
Y286700D02*Y285500D01*
Y286700D02*X112900Y287200D01*
X113400Y287700D02*X112900Y287200D01*
M02*
