M48
INCH
T51C0.100
T50C0.120
T49C0.060
T48C0.030
T47C0.035
T46C0.041
T45C0.125
%
T48
X025700Y044000
X025700Y043000
X027900Y044000
X027900Y043000
X036400Y041000
X036400Y040000
X040400Y041000
X040400Y040000
T47
X011600Y035500
X011600Y024700
X015400Y018400
X024400Y043000
X024500Y050000
X024500Y049000
X024500Y047000
X030000Y044000
X030000Y043000
X030000Y042000
X030000Y041000
X030000Y040000
X030000Y039000
X030000Y038000
X030000Y037000
X035000Y018900
T46
X002500Y050000
X002500Y049000
X002500Y048000
X002500Y047000
X002500Y046000
X002500Y045000
X002500Y044000
X002500Y043000
X002500Y042000
X002500Y041000
X002500Y040000
X002500Y039000
X002500Y038000
X002500Y037000
X002500Y036000
X002500Y035000
X002500Y034000
X002500Y033000
X002500Y032000
X002500Y031000
X002500Y030000
X002500Y029000
X002500Y028000
X003500Y050000
X003500Y049000
X003500Y048000
X003500Y047000
X003500Y046000
X003500Y045000
X003500Y044000
X003500Y043000
X003500Y042000
X003500Y041000
X003500Y040000
X003500Y039000
X003500Y038000
X003500Y037000
X003500Y036000
X003500Y035000
X003500Y034000
X003500Y033000
X003500Y032000
X003500Y031000
X003500Y030000
X003500Y029000
X003500Y028000
X006600Y021300
X007600Y021300
X008600Y021300
X009600Y021300
X010600Y021300
X011600Y021300
X013400Y021300
X015400Y021300
X017400Y021300
X021500Y050000
X021500Y049000
X021500Y048000
X021500Y047000
X021500Y046000
X021500Y045000
X021500Y044000
X021500Y043000
X021500Y042000
X021500Y041000
X021500Y040000
X021500Y039000
X021500Y038000
X021500Y037000
X021500Y036000
X021500Y035000
X021500Y034000
X021500Y033000
X021500Y032000
X021500Y031000
X021500Y030000
X021500Y029000
X021500Y028000
X022500Y050000
X022500Y049000
X022500Y048000
X022500Y047000
X022500Y046000
X022500Y045000
X022500Y044000
X022500Y043000
X022500Y042000
X022500Y041000
X022500Y040000
X022500Y039000
X022500Y038000
X022500Y037000
X022500Y036000
X022500Y035000
X022500Y034000
X022500Y033000
X022500Y032000
X022500Y031000
X022500Y030000
X022500Y029000
X022500Y028000
T49
X037500Y021300
X037500Y018938
X039350Y020119
T51
X034400Y043500
X034400Y038500
T50
X005100Y018050
X005100Y003550
X019600Y018050
X019600Y003550
T45
X003000Y052000
X004250Y026000
X020750Y026000
X022000Y052000
M30
