G04 start of page 8 for group -4079 idx -4079 *
G04 Title: Motor Controller, topsilk *
G04 Creator: pcb 4.2.2 *
G04 CreationDate: Mon Feb 22 05:04:53 2021 UTC *
G04 For: kevin *
G04 Format: Gerber/RS-274X *
G04 PCB-Dimensions (mil): 4750.00 5800.00 *
G04 PCB-Coordinate-Origin: lower left *
%MOIN*%
%FSLAX25Y25*%
%LNTOPSILK*%
%ADD72C,0.0250*%
%ADD71C,0.0060*%
%ADD70C,0.0100*%
G54D70*X465000Y0D02*Y580000D01*
X10000D02*Y0D01*
X291000Y375000D02*Y445000D01*
X354000Y375000D02*X291000D01*
X354000Y445000D02*Y375000D01*
X291000Y445000D02*X354000D01*
X259000Y450000D02*X255000D01*
Y422000D02*X259000D01*
X257000Y448000D02*Y452000D01*
G54D71*X307000Y390200D02*X308500D01*
X307000Y388000D02*X309000D01*
X307000Y392000D02*Y388000D01*
Y392000D02*X309000D01*
X310200Y391500D02*Y388500D01*
Y391500D02*X310700Y392000D01*
X311700D01*
X312200Y391500D01*
Y388500D01*
X311700Y388000D02*X312200Y388500D01*
X310700Y388000D02*X311700D01*
X310200Y388500D02*X310700Y388000D01*
X314100D02*X315400D01*
X313400Y388700D02*X314100Y388000D01*
X313400Y391300D02*Y388700D01*
Y391300D02*X314100Y392000D01*
X315400D01*
X307000Y382000D02*X309000D01*
X309500Y381500D01*
Y380500D01*
X309000Y380000D02*X309500Y380500D01*
X307500Y380000D02*X309000D01*
X307500Y382000D02*Y378000D01*
X308300Y380000D02*X309500Y378000D01*
X312700Y382000D02*X313200Y381500D01*
X311200Y382000D02*X312700D01*
X310700Y381500D02*X311200Y382000D01*
X310700Y381500D02*Y380500D01*
X311200Y380000D01*
X312700D01*
X313200Y379500D01*
Y378500D01*
X312700Y378000D02*X313200Y378500D01*
X311200Y378000D02*X312700D01*
X310700Y378500D02*X311200Y378000D01*
X314400Y382000D02*X316400D01*
X315400D02*Y378000D01*
X309000Y402000D02*X309500Y401500D01*
X307500Y402000D02*X309000D01*
X307000Y401500D02*X307500Y402000D01*
X307000Y401500D02*Y400500D01*
X307500Y400000D01*
X309000D01*
X309500Y399500D01*
Y398500D01*
X309000Y398000D02*X309500Y398500D01*
X307500Y398000D02*X309000D01*
X307000Y398500D02*X307500Y398000D01*
X311200Y402000D02*Y398000D01*
X312500Y402000D02*X313200Y401300D01*
Y398700D01*
X312500Y398000D02*X313200Y398700D01*
X310700Y398000D02*X312500D01*
X310700Y402000D02*X312500D01*
X314400Y401000D02*Y398000D01*
Y401000D02*X315100Y402000D01*
X316200D01*
X316900Y401000D01*
Y398000D01*
X314400Y400000D02*X316900D01*
X307000Y431500D02*X307500Y432000D01*
X308500D01*
X309000Y431500D01*
X308500Y428000D02*X309000Y428500D01*
X307500Y428000D02*X308500D01*
X307000Y428500D02*X307500Y428000D01*
Y430200D02*X308500D01*
X309000Y431500D02*Y430700D01*
Y429700D02*Y428500D01*
Y429700D02*X308500Y430200D01*
X309000Y430700D02*X308500Y430200D01*
X310200Y432000D02*X311200Y428000D01*
X312200Y432000D01*
X313400Y429500D02*Y428500D01*
Y429500D02*X313900Y430000D01*
X314900D01*
X315400Y429500D01*
Y428500D01*
X314900Y428000D02*X315400Y428500D01*
X313900Y428000D02*X314900D01*
X313400Y428500D02*X313900Y428000D01*
X309000Y422000D02*X309500Y421500D01*
X307500Y422000D02*X309000D01*
X307000Y421500D02*X307500Y422000D01*
X307000Y421500D02*Y418500D01*
X307500Y418000D01*
X309000D01*
X309500Y418500D01*
Y419500D02*Y418500D01*
X309000Y420000D02*X309500Y419500D01*
X308000Y420000D02*X309000D01*
X310700Y422000D02*Y418000D01*
Y422000D02*X313200Y418000D01*
Y422000D02*Y418000D01*
X314900Y422000D02*Y418000D01*
X316200Y422000D02*X316900Y421300D01*
Y418700D01*
X316200Y418000D02*X316900Y418700D01*
X314400Y418000D02*X316200D01*
X314400Y422000D02*X316200D01*
X309000Y412000D02*X309500Y411500D01*
X307500Y412000D02*X309000D01*
X307000Y411500D02*X307500Y412000D01*
X307000Y411500D02*Y410500D01*
X307500Y410000D01*
X309000D01*
X309500Y409500D01*
Y408500D01*
X309000Y408000D02*X309500Y408500D01*
X307500Y408000D02*X309000D01*
X307000Y408500D02*X307500Y408000D01*
X311400D02*X312700D01*
X310700Y408700D02*X311400Y408000D01*
X310700Y411300D02*Y408700D01*
Y411300D02*X311400Y412000D01*
X312700D01*
X313900D02*Y408000D01*
X315900D01*
X307000Y442000D02*X308000Y438000D01*
X309000Y442000D01*
X310200D02*X311200D01*
X310700D02*Y438000D01*
X310200D02*X311200D01*
X312400Y442000D02*Y438000D01*
Y442000D02*X314900Y438000D01*
Y442000D02*Y438000D01*
G54D72*X358071Y164181D02*X391929D01*
X358071Y162213D02*X391929D01*
X358071Y160244D02*X391535D01*
G54D70*X357283Y216150D02*X392717D01*
X357283D02*Y159063D01*
X392717D01*
Y216150D02*Y159063D01*
X295000Y445000D02*X305000D01*
X295000D02*Y365000D01*
X305000D01*
Y445000D02*Y365000D01*
X364000Y410000D02*X374000D01*
X394000D02*X404000D01*
X374000Y413300D02*X394000D01*
Y406700D01*
X374000D01*
Y413300D01*
X279000Y425000D02*G75*G03X279000Y425000I0J10000D01*G01*
X364000Y400000D02*X374000D01*
X394000D02*X404000D01*
X374000Y403300D02*X394000D01*
Y396700D01*
X374000D01*
Y403300D01*
X67500Y237500D02*X182500D01*
X232500Y578000D02*Y285000D01*
G54D71*X214000Y506500D02*X216000D01*
Y508500D02*X214000Y506500D01*
X216000Y509500D02*Y508500D01*
X215500Y510000D02*X216000Y509500D01*
X214500Y510000D02*X215500D01*
X214000Y509500D02*X214500Y510000D01*
X35000D02*Y506500D01*
X34000D02*X36000D01*
X24000D02*X26000D01*
Y508500D02*X24000Y506500D01*
X26000Y509500D02*Y508500D01*
X25500Y510000D02*X26000Y509500D01*
X24500Y510000D02*X25500D01*
X24000Y509500D02*X24500Y510000D01*
X225000D02*X224000Y509000D01*
X225000Y510000D02*Y506500D01*
X224000D02*X226000D01*
X217500Y270000D02*X220000D01*
X223500Y272000D02*Y267500D01*
X221000Y270000D02*X223500D01*
X221000Y272000D02*X223500D01*
X221000D02*Y270000D01*
X220000Y272000D02*Y270000D01*
X217500Y272000D02*Y267500D01*
Y272000D02*X220000D01*
X31000Y269500D02*X33500D01*
X31000Y271500D02*X33500D01*
Y267000D01*
X31000D02*X33500D01*
X31000Y271500D02*Y267000D01*
X27500Y270000D02*X30000D01*
Y271500D02*Y270000D01*
X27500Y271500D02*X30000D01*
X27500D02*Y267000D01*
G54D70*X17500Y577500D02*Y285000D01*
Y577500D02*X76000D01*
X207000Y578000D02*X232500D01*
G54D71*X35000Y510000D02*X34000Y509000D01*
G54D70*X76000Y513000D02*X207000D01*
X76000Y577500D02*Y513000D01*
X207000Y578000D02*Y513000D01*
X76000Y511000D02*Y505000D01*
X80000D01*
Y511000D02*Y505000D01*
X82000Y511000D02*X86000D01*
X82000D02*Y508000D01*
X86000D01*
Y505000D01*
X82000D02*X86000D01*
X88000Y511000D02*Y505000D01*
X91000D01*
X92000Y506000D01*
Y510000D02*Y506000D01*
Y510000D02*X91000Y511000D01*
X88000D02*X91000D01*
X88000Y508000D02*X92000D01*
X17500Y287500D02*G75*G03X67500Y237500I50000J0D01*G01*
X182500D02*G75*G03X232500Y287500I0J50000D01*G01*
X38500Y193000D02*X208500D01*
X38500Y23000D02*X208500D01*
X184000Y193000D02*Y170500D01*
X125500D02*X184000D01*
X125500Y193000D02*Y170500D01*
X119500Y193000D02*Y170500D01*
X63000D02*X119500D01*
X63000Y193000D02*Y170500D01*
X208500Y220500D02*Y23000D01*
X38500Y220500D02*X208500D01*
X38500D02*Y23000D01*
G54D71*X133000Y199500D02*Y195500D01*
Y199500D02*X132000Y200500D01*
X131000Y199500D01*
Y195500D01*
X135000D02*X137000D01*
Y197500D02*Y195500D01*
X135000Y197500D02*X137000D01*
X135000Y200500D02*Y197500D01*
Y200500D02*X137000D01*
X156000Y195500D02*X158000D01*
X156000Y198000D02*X158000D01*
X156000Y200500D02*Y198000D01*
Y200500D02*X158000D01*
Y195500D01*
X155000Y200500D02*Y195500D01*
X153000Y197500D01*
Y200500D02*Y195500D01*
X151500Y200500D02*Y195500D01*
X150500Y200500D02*X151500D01*
X150500D02*X149500Y199500D01*
Y196500D01*
X150500Y195500D01*
X151500D01*
X177500Y200500D02*Y195500D01*
Y200500D02*X178500D01*
X176500D02*X178500D01*
X177500Y195500D02*X178500Y196500D01*
X172000Y199500D02*Y195500D01*
Y199500D02*X171000Y200500D01*
X170000Y199500D01*
Y195500D01*
X174000D02*X175500D01*
X174000Y198000D02*Y195500D01*
Y198000D02*X175500D01*
Y200500D02*Y198000D01*
X174000Y200500D02*X175500D01*
X106500D02*X108500D01*
X107500D02*Y195500D01*
X106500D02*X108500D01*
X105500Y200500D02*Y195500D01*
X103500Y197500D01*
Y200500D02*Y195500D01*
X96500Y200500D02*X98500D01*
X97500D02*Y195500D01*
X96500D02*X98500D01*
X95500Y200500D02*Y195500D01*
X93500Y197500D01*
Y200500D02*Y195500D01*
X86500Y200500D02*X88500D01*
X87500D02*Y195500D01*
X86500D02*X88500D01*
X85500Y200500D02*Y195500D01*
X83500Y197500D01*
Y200500D02*Y195500D01*
X76500Y200500D02*X78500D01*
X77500D02*Y195500D01*
X76500D02*X78500D01*
X75500Y200500D02*Y195500D01*
X73500Y197500D01*
Y200500D02*Y195500D01*
X118500Y200500D02*Y195500D01*
X116500D02*X118500D01*
X116500Y198000D02*X118500D01*
X116500Y200500D02*X118500D01*
X115500D02*Y195500D01*
X113500Y197500D01*
Y200500D02*Y195500D01*
X68500Y200500D02*Y195500D01*
X66500D02*X68500D01*
X66500Y198000D02*X68500D01*
X66500Y200500D02*X68500D01*
X65500D02*Y195500D01*
X63500Y197500D01*
Y200500D02*Y195500D01*
X117000Y207000D02*Y203000D01*
X116000Y202000D01*
X115000Y203000D01*
Y207000D02*Y203000D01*
Y204000D02*X117000D01*
X67000Y207000D02*Y202000D01*
X66000Y207000D02*X67000D01*
X66000D02*X65000Y206000D01*
Y203000D02*X66000Y202000D01*
X67000D01*
X65500Y204500D02*X67000D01*
X65500D02*X65000Y204000D01*
Y203000D01*
X65500Y204500D02*X65000Y205000D01*
Y206000D02*Y205000D01*
X95000Y202000D02*X97000D01*
X95000Y204500D02*Y202000D01*
Y204500D02*X97000D01*
Y207000D02*Y204500D01*
X95000Y207000D02*X97000D01*
X106000D02*Y202000D01*
Y207000D02*X107000D01*
X105000D02*X107000D01*
X106000Y202000D02*X107000Y203000D01*
X85000Y202000D02*X87000D01*
X85000Y204500D02*X87000D01*
X85000Y207000D02*Y202000D01*
Y207000D02*X87000D01*
X75000Y204500D02*X77000D01*
Y202000D01*
X75500Y207000D02*Y202000D01*
X184000Y158500D02*X208500D01*
X184000D02*Y115500D01*
X208500D01*
X38500D02*X39000Y115000D01*
X63500D01*
X64000Y115500D01*
Y158500D02*Y115500D01*
X38500Y158500D02*X64000D01*
X56500Y135000D02*Y129000D01*
X54000Y126500D01*
X51000Y129500D01*
Y135000D02*Y129500D01*
X48000Y126500D01*
X45500Y129000D01*
Y135000D02*Y129000D01*
X48500Y137000D02*X53500D01*
X48500Y141500D02*Y137000D01*
Y141500D02*X53500D01*
Y146500D02*Y141500D01*
X48500Y146500D02*X53500D01*
X202500Y135000D02*Y129000D01*
X200000Y126500D01*
X197000Y129500D01*
Y135000D02*Y129500D01*
X194000Y126500D01*
X191500Y129000D01*
Y135000D02*Y129000D01*
X197000Y137000D02*X199500Y139500D01*
X197000Y137000D02*X197500Y137500D01*
X194500Y146500D02*X199500D01*
X197000D02*Y137000D01*
X207000Y21500D02*Y14500D01*
X204500Y21500D02*X207000D01*
X200500Y14500D02*X203000D01*
X200500Y17500D02*Y14500D01*
Y17500D02*X203000D01*
Y21500D02*Y17500D01*
X200500Y21500D02*X203000D01*
X199000Y17500D02*Y14500D01*
X196500Y17500D02*X199000D01*
X196500Y14500D02*X199000D01*
X196500Y21500D02*Y14500D01*
X195000Y21500D02*Y14500D01*
X192500Y21500D02*X195000D01*
X192500D02*Y14500D01*
X195000D01*
X192500Y18000D02*X195000D01*
X191000Y21500D02*Y14500D01*
X188000Y17500D01*
Y14500D01*
Y21500D02*Y14500D01*
G54D70*X257000Y425000D02*G75*G03X257000Y425000I0J10000D01*G01*
G54D71*X359574Y222340D02*X360374D01*
Y218840D01*
X359874Y218340D02*X360374Y218840D01*
X359374Y218340D02*X359874D01*
X358874Y218840D02*X359374Y218340D01*
X358874Y219340D02*Y218840D01*
X361574Y221540D02*X362374Y222340D01*
Y218340D01*
X361574D02*X363074D01*
X40000Y227000D02*Y223500D01*
X40500Y223000D01*
X41500D01*
X42000Y223500D01*
Y227000D02*Y223500D01*
X43200Y226500D02*X43700Y227000D01*
X44700D01*
X45200Y226500D01*
X44700Y223000D02*X45200Y223500D01*
X43700Y223000D02*X44700D01*
X43200Y223500D02*X43700Y223000D01*
Y225200D02*X44700D01*
X45200Y226500D02*Y225700D01*
Y224700D02*Y223500D01*
Y224700D02*X44700Y225200D01*
X45200Y225700D02*X44700Y225200D01*
X235000Y577000D02*Y573500D01*
X235500Y573000D01*
X236500D01*
X237000Y573500D01*
Y577000D02*Y573500D01*
X238200Y576200D02*X239000Y577000D01*
Y573000D01*
X238200D02*X239700D01*
X295577Y450714D02*Y447214D01*
X296077Y446714D01*
X297077D01*
X297577Y447214D01*
Y450714D02*Y447214D01*
X298777Y450214D02*X299277Y450714D01*
X300777D01*
X301277Y450214D01*
Y449214D01*
X298777Y446714D02*X301277Y449214D01*
X298777Y446714D02*X301277D01*
X375000Y418600D02*X377000D01*
X377500Y418100D01*
Y417100D01*
X377000Y416600D02*X377500Y417100D01*
X375500Y416600D02*X377000D01*
X375500Y418600D02*Y414600D01*
X376300Y416600D02*X377500Y414600D01*
X380200Y418600D02*X380700Y418100D01*
X379200Y418600D02*X380200D01*
X378700Y418100D02*X379200Y418600D01*
X378700Y418100D02*Y415100D01*
X379200Y414600D01*
X380200Y416800D02*X380700Y416300D01*
X378700Y416800D02*X380200D01*
X379200Y414600D02*X380200D01*
X380700Y415100D01*
Y416300D02*Y415100D01*
X283700Y445000D02*X285000D01*
X283000Y445700D02*X283700Y445000D01*
X283000Y448300D02*Y445700D01*
Y448300D02*X283700Y449000D01*
X285000D01*
X286200Y448500D02*X286700Y449000D01*
X288200D01*
X288700Y448500D01*
Y447500D01*
X286200Y445000D02*X288700Y447500D01*
X286200Y445000D02*X288700D01*
X262700D02*X264000D01*
X262000Y445700D02*X262700Y445000D01*
X262000Y448300D02*Y445700D01*
Y448300D02*X262700Y449000D01*
X264000D01*
X265200Y448200D02*X266000Y449000D01*
Y445000D01*
X265200D02*X266700D01*
X375000Y395300D02*X377000D01*
X377500Y394800D01*
Y393800D01*
X377000Y393300D02*X377500Y393800D01*
X375500Y393300D02*X377000D01*
X375500Y395300D02*Y391300D01*
X376300Y393300D02*X377500Y391300D01*
X378700Y395300D02*X380700D01*
X378700D02*Y393300D01*
X379200Y393800D01*
X380200D01*
X380700Y393300D01*
Y391800D01*
X380200Y391300D02*X380700Y391800D01*
X379200Y391300D02*X380200D01*
X378700Y391800D02*X379200Y391300D01*
M02*
