G04 start of page 2 for group 0 idx 0 *
G04 Title: Motor Controller, top *
G04 Creator: pcb 4.2.2 *
G04 CreationDate: Mon Feb 22 05:04:53 2021 UTC *
G04 For: kevin *
G04 Format: Gerber/RS-274X *
G04 PCB-Dimensions (mil): 4750.00 5800.00 *
G04 PCB-Coordinate-Origin: lower left *
%MOIN*%
%FSLAX25Y25*%
%LNTOP*%
%ADD27C,0.1200*%
%ADD26C,0.0300*%
%ADD25C,0.0410*%
%ADD24C,0.1250*%
%ADD23C,0.0350*%
%ADD22C,0.1150*%
%ADD21C,0.1000*%
%ADD20C,0.0750*%
%ADD19C,0.1460*%
%ADD18C,0.0900*%
%ADD17C,0.0550*%
%ADD16C,0.0600*%
%ADD15C,0.0690*%
%ADD14C,0.0001*%
%ADD13C,0.1530*%
%ADD12C,0.0100*%
%ADD11C,0.0400*%
G54D11*X178000Y440000D02*X215000D01*
X225000Y300000D02*X265000Y340000D01*
Y355000D01*
X215000Y300000D02*X156000D01*
G54D12*X209000Y425000D02*X220000D01*
G54D11*X193000Y430000D02*X215000D01*
X191000D02*X198000D01*
G54D12*X220000Y425000D02*X225000Y430000D01*
X208000Y385000D02*X220000D01*
X225000Y390000D01*
X208000Y365000D02*X220000D01*
X225000Y370000D01*
G54D11*X174000Y213000D02*X375000D01*
X350000Y189000D02*X350378Y189378D01*
X375000D01*
X151000Y230000D02*X320000D01*
X404000Y314000D01*
G54D12*X215000Y410000D02*X220000Y405000D01*
X232000D01*
X237000Y400000D01*
G54D11*X225000Y410000D02*X326700D01*
X327000D02*X364000D01*
X237000Y400000D02*X364000D01*
X265000Y355000D02*X300000Y390000D01*
X244000Y430000D02*X279000D01*
X289000Y420000D01*
X300000D02*X289000D01*
X225000Y490000D02*X245000D01*
X288000Y480000D02*X225000D01*
Y500000D02*X245000D01*
X257000Y440000D02*X300000D01*
X257000D02*X245000Y452000D01*
Y470000D01*
X288000Y480000D02*X324000Y444000D01*
Y428000D01*
X331000Y421000D01*
X355700D01*
X356000D02*X393000D01*
X404000Y410000D02*Y314000D01*
X393000Y421000D02*X404000Y410000D01*
X76000Y213000D02*Y292000D01*
X86000Y213000D02*Y263000D01*
X66000Y328000D02*Y213000D01*
X154000Y184000D02*Y213000D01*
X134000D02*X151000Y230000D01*
X76000Y292000D02*X209000Y425000D01*
X208000Y385000D02*X86000Y263000D01*
X208000Y365000D02*X96000Y253000D01*
X106000Y250000D02*X156000Y300000D01*
X178000Y440000D02*X66000Y328000D01*
X116000Y355000D02*X191000Y430000D01*
X96000Y213000D02*Y253000D01*
X106000Y213000D02*Y250000D01*
X116000Y213000D02*Y247000D01*
G54D13*X220000Y520000D03*
G54D14*G36*
X221550Y503450D02*Y496550D01*
X228450D01*
Y503450D01*
X221550D01*
G37*
G54D15*X215000Y500000D03*
Y490000D03*
X225000D03*
X215000Y480000D03*
Y470000D03*
X225000Y480000D03*
Y470000D03*
G54D14*G36*
X31550Y503450D02*Y496550D01*
X38450D01*
Y503450D01*
X31550D01*
G37*
G54D15*X215000Y370000D03*
X35000D03*
X215000Y360000D03*
X35000D03*
X25000D03*
Y370000D03*
X215000Y460000D03*
Y450000D03*
Y440000D03*
Y430000D03*
Y420000D03*
X225000Y460000D03*
Y450000D03*
Y440000D03*
Y430000D03*
Y420000D03*
Y410000D03*
Y400000D03*
Y390000D03*
Y380000D03*
Y370000D03*
Y360000D03*
X215000Y410000D03*
Y400000D03*
Y390000D03*
Y380000D03*
G54D16*X300000Y440000D03*
G54D14*G36*
X276000Y433000D02*Y427000D01*
X282000D01*
Y433000D01*
X276000D01*
G37*
G54D16*X279000Y440000D03*
G54D14*G36*
X254000Y433000D02*Y427000D01*
X260000D01*
Y433000D01*
X254000D01*
G37*
G54D16*X257000Y440000D03*
X300000Y430000D03*
Y420000D03*
Y410000D03*
Y400000D03*
Y390000D03*
Y380000D03*
Y370000D03*
G54D14*G36*
X361250Y412750D02*Y407250D01*
X366750D01*
Y412750D01*
X361250D01*
G37*
G36*
Y402750D02*Y397250D01*
X366750D01*
Y402750D01*
X361250D01*
G37*
G54D17*X404000Y410000D03*
Y400000D03*
G54D13*X30000Y520000D03*
G54D15*X25000Y500000D03*
X35000Y450000D03*
X25000D03*
X35000Y490000D03*
Y480000D03*
X25000D03*
Y490000D03*
X35000Y470000D03*
Y460000D03*
X25000D03*
Y470000D03*
G54D13*X42500Y260000D03*
G54D15*X35000Y280000D03*
Y350000D03*
Y340000D03*
Y330000D03*
Y320000D03*
Y310000D03*
Y300000D03*
X25000D03*
Y310000D03*
X35000Y290000D03*
X25000Y280000D03*
Y290000D03*
Y320000D03*
Y330000D03*
Y340000D03*
Y350000D03*
X35000Y440000D03*
X25000D03*
X35000Y430000D03*
X25000D03*
X35000Y420000D03*
Y410000D03*
Y400000D03*
X25000D03*
Y410000D03*
X35000Y390000D03*
Y380000D03*
X25000D03*
Y390000D03*
Y420000D03*
G54D13*X207500Y260000D03*
G54D15*X215000Y280000D03*
G54D18*X393504Y201189D03*
X375000Y213000D03*
Y189378D03*
G54D15*X215000Y350000D03*
Y340000D03*
Y330000D03*
Y320000D03*
Y310000D03*
Y300000D03*
Y290000D03*
X225000Y280000D03*
Y290000D03*
Y350000D03*
Y340000D03*
Y330000D03*
Y320000D03*
Y310000D03*
Y300000D03*
G54D19*X196000Y35500D03*
Y180500D03*
X51000Y35500D03*
Y180500D03*
G54D20*X116000Y213000D03*
X106000D03*
X96000D03*
X86000D03*
X76000D03*
X66000D03*
G54D21*X174000D03*
X154000D03*
X134000D03*
G54D16*X350000Y189000D03*
X154000Y184000D03*
X245000Y500000D03*
G54D22*X344000Y385000D03*
G54D16*X244000Y430000D03*
X245000Y490000D03*
Y470000D03*
G54D22*X344000Y435000D03*
G54D16*X116000Y247000D03*
Y355000D03*
G54D23*G54D21*G54D23*G54D21*G54D23*G54D24*G54D25*G54D23*G54D26*G54D23*G54D26*G54D24*G54D25*G54D24*G54D25*G54D24*G54D25*G54D16*G54D25*G54D27*G54D25*M02*
