G04 start of page 9 for group -3984 idx -3984 *
G04 Title: Motor Controller, fab *
G04 Creator: pcb 4.2.2 *
G04 CreationDate: Sun Nov 29 09:20:44 2020 UTC *
G04 For: kevin *
G04 Format: Gerber/RS-274X *
G04 PCB-Dimensions (mil): 3300.00 3900.00 *
G04 PCB-Coordinate-Origin: lower left *
%MOIN*%
%FSLAX25Y25*%
%LNFAB*%
%ADD72C,0.0100*%
%ADD71C,0.0075*%
%ADD70C,0.0060*%
%ADD69C,0.0080*%
G54D69*X95000Y238200D02*Y231800D01*
X91800Y235000D02*X98200D01*
X93400Y236600D02*X96600D01*
X93400D02*Y233400D01*
X96600D01*
Y236600D02*Y233400D01*
X150000Y238200D02*Y231800D01*
X146800Y235000D02*X153200D01*
X148400Y236600D02*X151600D01*
X148400D02*Y233400D01*
X151600D01*
Y236600D02*Y233400D01*
X15000Y404450D02*Y398050D01*
X11800Y401250D02*X18200D01*
X13400Y402850D02*X16600D01*
X13400D02*Y399650D01*
X16600D01*
Y402850D02*Y399650D01*
G54D70*X135000Y403500D02*X136500Y400500D01*
X138000Y403500D01*
X136500Y400500D02*Y397500D01*
X139800Y400800D02*X142050D01*
X139800Y397500D02*X142800D01*
X139800Y403500D02*Y397500D01*
Y403500D02*X142800D01*
X147600D02*X148350Y402750D01*
X145350Y403500D02*X147600D01*
X144600Y402750D02*X145350Y403500D01*
X144600Y402750D02*Y401250D01*
X145350Y400500D01*
X147600D01*
X148350Y399750D01*
Y398250D01*
X147600Y397500D02*X148350Y398250D01*
X145350Y397500D02*X147600D01*
X144600Y398250D02*X145350Y397500D01*
X98000Y402750D02*X98750Y403500D01*
X101000D01*
X101750Y402750D01*
Y401250D01*
X98000Y397500D02*X101750Y401250D01*
X98000Y397500D02*X101750D01*
X45000Y398250D02*X45750Y397500D01*
X45000Y402750D02*Y398250D01*
Y402750D02*X45750Y403500D01*
X47250D01*
X48000Y402750D01*
Y398250D01*
X47250Y397500D02*X48000Y398250D01*
X45750Y397500D02*X47250D01*
X45000Y399000D02*X48000Y402000D01*
X49800Y397500D02*X50550D01*
X52350Y402300D02*X53550Y403500D01*
Y397500D01*
X52350D02*X54600D01*
X56400Y402750D02*X57150Y403500D01*
X58650D01*
X59400Y402750D01*
X58650Y397500D02*X59400Y398250D01*
X57150Y397500D02*X58650D01*
X56400Y398250D02*X57150Y397500D01*
Y400800D02*X58650D01*
X59400Y402750D02*Y401550D01*
Y400050D02*Y398250D01*
Y400050D02*X58650Y400800D01*
X59400Y401550D02*X58650Y400800D01*
X61200Y398250D02*X61950Y397500D01*
X61200Y402750D02*Y398250D01*
Y402750D02*X61950Y403500D01*
X63450D01*
X64200Y402750D01*
Y398250D01*
X63450Y397500D02*X64200Y398250D01*
X61950Y397500D02*X63450D01*
X61200Y399000D02*X64200Y402000D01*
X30000Y330000D02*Y326800D01*
Y330000D02*X32773Y331600D01*
X30000Y330000D02*X27227Y331600D01*
X28400Y330000D02*G75*G03X31600Y330000I1600J0D01*G01*
G75*G03X28400Y330000I-1600J0D01*G01*
X220000D02*Y326800D01*
Y330000D02*X222773Y331600D01*
X220000Y330000D02*X217227Y331600D01*
X218400Y330000D02*G75*G03X221600Y330000I1600J0D01*G01*
G75*G03X218400Y330000I-1600J0D01*G01*
X207500Y70000D02*Y66800D01*
Y70000D02*X210273Y71600D01*
X207500Y70000D02*X204727Y71600D01*
X205900Y70000D02*G75*G03X209100Y70000I1600J0D01*G01*
G75*G03X205900Y70000I-1600J0D01*G01*
X42500D02*Y66800D01*
Y70000D02*X45273Y71600D01*
X42500Y70000D02*X39727Y71600D01*
X40900Y70000D02*G75*G03X44100Y70000I1600J0D01*G01*
G75*G03X40900Y70000I-1600J0D01*G01*
X15000Y416250D02*Y413050D01*
Y416250D02*X17773Y417850D01*
X15000Y416250D02*X12227Y417850D01*
X13400Y416250D02*G75*G03X16600Y416250I1600J0D01*G01*
G75*G03X13400Y416250I-1600J0D01*G01*
X135000Y418500D02*X136500Y415500D01*
X138000Y418500D01*
X136500Y415500D02*Y412500D01*
X139800Y415800D02*X142050D01*
X139800Y412500D02*X142800D01*
X139800Y418500D02*Y412500D01*
Y418500D02*X142800D01*
X147600D02*X148350Y417750D01*
X145350Y418500D02*X147600D01*
X144600Y417750D02*X145350Y418500D01*
X144600Y417750D02*Y416250D01*
X145350Y415500D01*
X147600D01*
X148350Y414750D01*
Y413250D01*
X147600Y412500D02*X148350Y413250D01*
X145350Y412500D02*X147600D01*
X144600Y413250D02*X145350Y412500D01*
X98000Y414750D02*X101000Y418500D01*
X98000Y414750D02*X101750D01*
X101000Y418500D02*Y412500D01*
X45000Y413250D02*X45750Y412500D01*
X45000Y417750D02*Y413250D01*
Y417750D02*X45750Y418500D01*
X47250D01*
X48000Y417750D01*
Y413250D01*
X47250Y412500D02*X48000Y413250D01*
X45750Y412500D02*X47250D01*
X45000Y414000D02*X48000Y417000D01*
X49800Y412500D02*X50550D01*
X52350Y417300D02*X53550Y418500D01*
Y412500D01*
X52350D02*X54600D01*
X56400Y417750D02*X57150Y418500D01*
X59400D01*
X60150Y417750D01*
Y416250D01*
X56400Y412500D02*X60150Y416250D01*
X56400Y412500D02*X60150D01*
X61950Y418500D02*X64950D01*
X61950D02*Y415500D01*
X62700Y416250D01*
X64200D01*
X64950Y415500D01*
Y413250D01*
X64200Y412500D02*X64950Y413250D01*
X62700Y412500D02*X64200D01*
X61950Y413250D02*X62700Y412500D01*
X166904Y25411D02*X170104D01*
X166904D02*Y22211D01*
X170104D01*
Y25411D02*Y22211D01*
X148400Y37222D02*X151600D01*
X148400D02*Y34022D01*
X151600D01*
Y37222D02*Y34022D01*
X148400Y13600D02*X151600D01*
X148400D02*Y10400D01*
X151600D01*
Y13600D02*Y10400D01*
X13400Y432850D02*X16600D01*
X13400D02*Y429650D01*
X16600D01*
Y432850D02*Y429650D01*
X135000Y433500D02*X136500Y430500D01*
X138000Y433500D01*
X136500Y430500D02*Y427500D01*
X139800Y430800D02*X142050D01*
X139800Y427500D02*X142800D01*
X139800Y433500D02*Y427500D01*
Y433500D02*X142800D01*
X147600D02*X148350Y432750D01*
X145350Y433500D02*X147600D01*
X144600Y432750D02*X145350Y433500D01*
X144600Y432750D02*Y431250D01*
X145350Y430500D01*
X147600D01*
X148350Y429750D01*
Y428250D01*
X147600Y427500D02*X148350Y428250D01*
X145350Y427500D02*X147600D01*
X144600Y428250D02*X145350Y427500D01*
X98000Y432750D02*X98750Y433500D01*
X100250D01*
X101000Y432750D01*
X100250Y427500D02*X101000Y428250D01*
X98750Y427500D02*X100250D01*
X98000Y428250D02*X98750Y427500D01*
Y430800D02*X100250D01*
X101000Y432750D02*Y431550D01*
Y430050D02*Y428250D01*
Y430050D02*X100250Y430800D01*
X101000Y431550D02*X100250Y430800D01*
X45000Y428250D02*X45750Y427500D01*
X45000Y432750D02*Y428250D01*
Y432750D02*X45750Y433500D01*
X47250D01*
X48000Y432750D01*
Y428250D01*
X47250Y427500D02*X48000Y428250D01*
X45750Y427500D02*X47250D01*
X45000Y429000D02*X48000Y432000D01*
X49800Y427500D02*X50550D01*
X52350Y428250D02*X53100Y427500D01*
X52350Y432750D02*Y428250D01*
Y432750D02*X53100Y433500D01*
X54600D01*
X55350Y432750D01*
Y428250D01*
X54600Y427500D02*X55350Y428250D01*
X53100Y427500D02*X54600D01*
X52350Y429000D02*X55350Y432000D01*
X59400Y433500D02*X60150Y432750D01*
X57900Y433500D02*X59400D01*
X57150Y432750D02*X57900Y433500D01*
X57150Y432750D02*Y428250D01*
X57900Y427500D01*
X59400Y430800D02*X60150Y430050D01*
X57150Y430800D02*X59400D01*
X57900Y427500D02*X59400D01*
X60150Y428250D01*
Y430050D02*Y428250D01*
X61950D02*X62700Y427500D01*
X61950Y432750D02*Y428250D01*
Y432750D02*X62700Y433500D01*
X64200D01*
X64950Y432750D01*
Y428250D01*
X64200Y427500D02*X64950Y428250D01*
X62700Y427500D02*X64200D01*
X61950Y429000D02*X64950Y432000D01*
X214200Y310000D02*G75*G03X215800Y310000I800J0D01*G01*
G75*G03X214200Y310000I-800J0D01*G01*
Y90000D02*G75*G03X215800Y90000I800J0D01*G01*
G75*G03X214200Y90000I-800J0D01*G01*
Y300000D02*G75*G03X215800Y300000I800J0D01*G01*
G75*G03X214200Y300000I-800J0D01*G01*
Y290000D02*G75*G03X215800Y290000I800J0D01*G01*
G75*G03X214200Y290000I-800J0D01*G01*
Y280000D02*G75*G03X215800Y280000I800J0D01*G01*
G75*G03X214200Y280000I-800J0D01*G01*
Y270000D02*G75*G03X215800Y270000I800J0D01*G01*
G75*G03X214200Y270000I-800J0D01*G01*
Y260000D02*G75*G03X215800Y260000I800J0D01*G01*
G75*G03X214200Y260000I-800J0D01*G01*
Y250000D02*G75*G03X215800Y250000I800J0D01*G01*
G75*G03X214200Y250000I-800J0D01*G01*
Y240000D02*G75*G03X215800Y240000I800J0D01*G01*
G75*G03X214200Y240000I-800J0D01*G01*
Y230000D02*G75*G03X215800Y230000I800J0D01*G01*
G75*G03X214200Y230000I-800J0D01*G01*
Y220000D02*G75*G03X215800Y220000I800J0D01*G01*
G75*G03X214200Y220000I-800J0D01*G01*
Y210000D02*G75*G03X215800Y210000I800J0D01*G01*
G75*G03X214200Y210000I-800J0D01*G01*
Y200000D02*G75*G03X215800Y200000I800J0D01*G01*
G75*G03X214200Y200000I-800J0D01*G01*
Y190000D02*G75*G03X215800Y190000I800J0D01*G01*
G75*G03X214200Y190000I-800J0D01*G01*
Y180000D02*G75*G03X215800Y180000I800J0D01*G01*
G75*G03X214200Y180000I-800J0D01*G01*
Y170000D02*G75*G03X215800Y170000I800J0D01*G01*
G75*G03X214200Y170000I-800J0D01*G01*
Y160000D02*G75*G03X215800Y160000I800J0D01*G01*
G75*G03X214200Y160000I-800J0D01*G01*
Y150000D02*G75*G03X215800Y150000I800J0D01*G01*
G75*G03X214200Y150000I-800J0D01*G01*
Y140000D02*G75*G03X215800Y140000I800J0D01*G01*
G75*G03X214200Y140000I-800J0D01*G01*
Y130000D02*G75*G03X215800Y130000I800J0D01*G01*
G75*G03X214200Y130000I-800J0D01*G01*
Y120000D02*G75*G03X215800Y120000I800J0D01*G01*
G75*G03X214200Y120000I-800J0D01*G01*
Y110000D02*G75*G03X215800Y110000I800J0D01*G01*
G75*G03X214200Y110000I-800J0D01*G01*
Y100000D02*G75*G03X215800Y100000I800J0D01*G01*
G75*G03X214200Y100000I-800J0D01*G01*
X34200Y90000D02*G75*G03X35800Y90000I800J0D01*G01*
G75*G03X34200Y90000I-800J0D01*G01*
Y300000D02*G75*G03X35800Y300000I800J0D01*G01*
G75*G03X34200Y300000I-800J0D01*G01*
Y290000D02*G75*G03X35800Y290000I800J0D01*G01*
G75*G03X34200Y290000I-800J0D01*G01*
Y280000D02*G75*G03X35800Y280000I800J0D01*G01*
G75*G03X34200Y280000I-800J0D01*G01*
Y270000D02*G75*G03X35800Y270000I800J0D01*G01*
G75*G03X34200Y270000I-800J0D01*G01*
Y260000D02*G75*G03X35800Y260000I800J0D01*G01*
G75*G03X34200Y260000I-800J0D01*G01*
Y250000D02*G75*G03X35800Y250000I800J0D01*G01*
G75*G03X34200Y250000I-800J0D01*G01*
Y240000D02*G75*G03X35800Y240000I800J0D01*G01*
G75*G03X34200Y240000I-800J0D01*G01*
Y230000D02*G75*G03X35800Y230000I800J0D01*G01*
G75*G03X34200Y230000I-800J0D01*G01*
Y220000D02*G75*G03X35800Y220000I800J0D01*G01*
G75*G03X34200Y220000I-800J0D01*G01*
Y210000D02*G75*G03X35800Y210000I800J0D01*G01*
G75*G03X34200Y210000I-800J0D01*G01*
Y200000D02*G75*G03X35800Y200000I800J0D01*G01*
G75*G03X34200Y200000I-800J0D01*G01*
Y190000D02*G75*G03X35800Y190000I800J0D01*G01*
G75*G03X34200Y190000I-800J0D01*G01*
Y180000D02*G75*G03X35800Y180000I800J0D01*G01*
G75*G03X34200Y180000I-800J0D01*G01*
Y170000D02*G75*G03X35800Y170000I800J0D01*G01*
G75*G03X34200Y170000I-800J0D01*G01*
Y160000D02*G75*G03X35800Y160000I800J0D01*G01*
G75*G03X34200Y160000I-800J0D01*G01*
Y150000D02*G75*G03X35800Y150000I800J0D01*G01*
G75*G03X34200Y150000I-800J0D01*G01*
Y140000D02*G75*G03X35800Y140000I800J0D01*G01*
G75*G03X34200Y140000I-800J0D01*G01*
Y130000D02*G75*G03X35800Y130000I800J0D01*G01*
G75*G03X34200Y130000I-800J0D01*G01*
Y120000D02*G75*G03X35800Y120000I800J0D01*G01*
G75*G03X34200Y120000I-800J0D01*G01*
Y110000D02*G75*G03X35800Y110000I800J0D01*G01*
G75*G03X34200Y110000I-800J0D01*G01*
Y100000D02*G75*G03X35800Y100000I800J0D01*G01*
G75*G03X34200Y100000I-800J0D01*G01*
X24200Y310000D02*G75*G03X25800Y310000I800J0D01*G01*
G75*G03X24200Y310000I-800J0D01*G01*
Y90000D02*G75*G03X25800Y90000I800J0D01*G01*
G75*G03X24200Y90000I-800J0D01*G01*
Y100000D02*G75*G03X25800Y100000I800J0D01*G01*
G75*G03X24200Y100000I-800J0D01*G01*
Y110000D02*G75*G03X25800Y110000I800J0D01*G01*
G75*G03X24200Y110000I-800J0D01*G01*
Y120000D02*G75*G03X25800Y120000I800J0D01*G01*
G75*G03X24200Y120000I-800J0D01*G01*
Y130000D02*G75*G03X25800Y130000I800J0D01*G01*
G75*G03X24200Y130000I-800J0D01*G01*
Y140000D02*G75*G03X25800Y140000I800J0D01*G01*
G75*G03X24200Y140000I-800J0D01*G01*
Y150000D02*G75*G03X25800Y150000I800J0D01*G01*
G75*G03X24200Y150000I-800J0D01*G01*
Y170000D02*G75*G03X25800Y170000I800J0D01*G01*
G75*G03X24200Y170000I-800J0D01*G01*
Y160000D02*G75*G03X25800Y160000I800J0D01*G01*
G75*G03X24200Y160000I-800J0D01*G01*
Y180000D02*G75*G03X25800Y180000I800J0D01*G01*
G75*G03X24200Y180000I-800J0D01*G01*
Y190000D02*G75*G03X25800Y190000I800J0D01*G01*
G75*G03X24200Y190000I-800J0D01*G01*
Y200000D02*G75*G03X25800Y200000I800J0D01*G01*
G75*G03X24200Y200000I-800J0D01*G01*
Y210000D02*G75*G03X25800Y210000I800J0D01*G01*
G75*G03X24200Y210000I-800J0D01*G01*
Y220000D02*G75*G03X25800Y220000I800J0D01*G01*
G75*G03X24200Y220000I-800J0D01*G01*
Y230000D02*G75*G03X25800Y230000I800J0D01*G01*
G75*G03X24200Y230000I-800J0D01*G01*
Y240000D02*G75*G03X25800Y240000I800J0D01*G01*
G75*G03X24200Y240000I-800J0D01*G01*
Y250000D02*G75*G03X25800Y250000I800J0D01*G01*
G75*G03X24200Y250000I-800J0D01*G01*
Y260000D02*G75*G03X25800Y260000I800J0D01*G01*
G75*G03X24200Y260000I-800J0D01*G01*
Y270000D02*G75*G03X25800Y270000I800J0D01*G01*
G75*G03X24200Y270000I-800J0D01*G01*
Y290000D02*G75*G03X25800Y290000I800J0D01*G01*
G75*G03X24200Y290000I-800J0D01*G01*
Y280000D02*G75*G03X25800Y280000I800J0D01*G01*
G75*G03X24200Y280000I-800J0D01*G01*
Y300000D02*G75*G03X25800Y300000I800J0D01*G01*
G75*G03X24200Y300000I-800J0D01*G01*
X224200Y310000D02*G75*G03X225800Y310000I800J0D01*G01*
G75*G03X224200Y310000I-800J0D01*G01*
Y90000D02*G75*G03X225800Y90000I800J0D01*G01*
G75*G03X224200Y90000I-800J0D01*G01*
Y300000D02*G75*G03X225800Y300000I800J0D01*G01*
G75*G03X224200Y300000I-800J0D01*G01*
Y290000D02*G75*G03X225800Y290000I800J0D01*G01*
G75*G03X224200Y290000I-800J0D01*G01*
Y280000D02*G75*G03X225800Y280000I800J0D01*G01*
G75*G03X224200Y280000I-800J0D01*G01*
Y270000D02*G75*G03X225800Y270000I800J0D01*G01*
G75*G03X224200Y270000I-800J0D01*G01*
Y260000D02*G75*G03X225800Y260000I800J0D01*G01*
G75*G03X224200Y260000I-800J0D01*G01*
Y250000D02*G75*G03X225800Y250000I800J0D01*G01*
G75*G03X224200Y250000I-800J0D01*G01*
Y240000D02*G75*G03X225800Y240000I800J0D01*G01*
G75*G03X224200Y240000I-800J0D01*G01*
Y230000D02*G75*G03X225800Y230000I800J0D01*G01*
G75*G03X224200Y230000I-800J0D01*G01*
Y220000D02*G75*G03X225800Y220000I800J0D01*G01*
G75*G03X224200Y220000I-800J0D01*G01*
Y210000D02*G75*G03X225800Y210000I800J0D01*G01*
G75*G03X224200Y210000I-800J0D01*G01*
Y200000D02*G75*G03X225800Y200000I800J0D01*G01*
G75*G03X224200Y200000I-800J0D01*G01*
Y190000D02*G75*G03X225800Y190000I800J0D01*G01*
G75*G03X224200Y190000I-800J0D01*G01*
Y180000D02*G75*G03X225800Y180000I800J0D01*G01*
G75*G03X224200Y180000I-800J0D01*G01*
Y170000D02*G75*G03X225800Y170000I800J0D01*G01*
G75*G03X224200Y170000I-800J0D01*G01*
Y160000D02*G75*G03X225800Y160000I800J0D01*G01*
G75*G03X224200Y160000I-800J0D01*G01*
Y150000D02*G75*G03X225800Y150000I800J0D01*G01*
G75*G03X224200Y150000I-800J0D01*G01*
Y140000D02*G75*G03X225800Y140000I800J0D01*G01*
G75*G03X224200Y140000I-800J0D01*G01*
Y130000D02*G75*G03X225800Y130000I800J0D01*G01*
G75*G03X224200Y130000I-800J0D01*G01*
Y120000D02*G75*G03X225800Y120000I800J0D01*G01*
G75*G03X224200Y120000I-800J0D01*G01*
Y110000D02*G75*G03X225800Y110000I800J0D01*G01*
G75*G03X224200Y110000I-800J0D01*G01*
Y100000D02*G75*G03X225800Y100000I800J0D01*G01*
G75*G03X224200Y100000I-800J0D01*G01*
X34200Y310000D02*G75*G03X35800Y310000I800J0D01*G01*
G75*G03X34200Y310000I-800J0D01*G01*
X14200Y446250D02*G75*G03X15800Y446250I800J0D01*G01*
G75*G03X14200Y446250I-800J0D01*G01*
X135000Y448500D02*X136500Y445500D01*
X138000Y448500D01*
X136500Y445500D02*Y442500D01*
X139800Y445800D02*X142050D01*
X139800Y442500D02*X142800D01*
X139800Y448500D02*Y442500D01*
Y448500D02*X142800D01*
X147600D02*X148350Y447750D01*
X145350Y448500D02*X147600D01*
X144600Y447750D02*X145350Y448500D01*
X144600Y447750D02*Y446250D01*
X145350Y445500D01*
X147600D01*
X148350Y444750D01*
Y443250D01*
X147600Y442500D02*X148350Y443250D01*
X145350Y442500D02*X147600D01*
X144600Y443250D02*X145350Y442500D01*
X98750D02*X101000Y445500D01*
Y447750D02*Y445500D01*
X100250Y448500D02*X101000Y447750D01*
X98750Y448500D02*X100250D01*
X98000Y447750D02*X98750Y448500D01*
X98000Y447750D02*Y446250D01*
X98750Y445500D01*
X101000D01*
X102800Y447750D02*X103550Y448500D01*
X105800D01*
X106550Y447750D01*
Y446250D01*
X102800Y442500D02*X106550Y446250D01*
X102800Y442500D02*X106550D01*
X45000Y443250D02*X45750Y442500D01*
X45000Y447750D02*Y443250D01*
Y447750D02*X45750Y448500D01*
X47250D01*
X48000Y447750D01*
Y443250D01*
X47250Y442500D02*X48000Y443250D01*
X45750Y442500D02*X47250D01*
X45000Y444000D02*X48000Y447000D01*
X49800Y442500D02*X50550D01*
X52350Y443250D02*X53100Y442500D01*
X52350Y447750D02*Y443250D01*
Y447750D02*X53100Y448500D01*
X54600D01*
X55350Y447750D01*
Y443250D01*
X54600Y442500D02*X55350Y443250D01*
X53100Y442500D02*X54600D01*
X52350Y444000D02*X55350Y447000D01*
X57150Y444750D02*X60150Y448500D01*
X57150Y444750D02*X60900D01*
X60150Y448500D02*Y442500D01*
X62700Y447300D02*X63900Y448500D01*
Y442500D01*
X62700D02*X64950D01*
X69800Y40200D02*X72200Y37800D01*
X69800D02*X72200Y40200D01*
X59800D02*X62200Y37800D01*
X59800D02*X62200Y40200D01*
X49800D02*X52200Y37800D01*
X49800D02*X52200Y40200D01*
X39800D02*X42200Y37800D01*
X39800D02*X42200Y40200D01*
X29800D02*X32200Y37800D01*
X29800D02*X32200Y40200D01*
X29800Y30200D02*X32200Y27800D01*
X29800D02*X32200Y30200D01*
X39800D02*X42200Y27800D01*
X39800D02*X42200Y30200D01*
X49800D02*X52200Y27800D01*
X49800D02*X52200Y30200D01*
X59800D02*X62200Y27800D01*
X59800D02*X62200Y30200D01*
X69800D02*X72200Y27800D01*
X69800D02*X72200Y30200D01*
X13800Y462450D02*X16200Y460050D01*
X13800D02*X16200Y462450D01*
X135000Y463500D02*X136500Y460500D01*
X138000Y463500D01*
X136500Y460500D02*Y457500D01*
X139800Y460800D02*X142050D01*
X139800Y457500D02*X142800D01*
X139800Y463500D02*Y457500D01*
Y463500D02*X142800D01*
X147600D02*X148350Y462750D01*
X145350Y463500D02*X147600D01*
X144600Y462750D02*X145350Y463500D01*
X144600Y462750D02*Y461250D01*
X145350Y460500D01*
X147600D01*
X148350Y459750D01*
Y458250D01*
X147600Y457500D02*X148350Y458250D01*
X145350Y457500D02*X147600D01*
X144600Y458250D02*X145350Y457500D01*
X98000Y462300D02*X99200Y463500D01*
Y457500D01*
X98000D02*X100250D01*
X102050Y458250D02*X102800Y457500D01*
X102050Y462750D02*Y458250D01*
Y462750D02*X102800Y463500D01*
X104300D01*
X105050Y462750D01*
Y458250D01*
X104300Y457500D02*X105050Y458250D01*
X102800Y457500D02*X104300D01*
X102050Y459000D02*X105050Y462000D01*
X45000Y458250D02*X45750Y457500D01*
X45000Y462750D02*Y458250D01*
Y462750D02*X45750Y463500D01*
X47250D01*
X48000Y462750D01*
Y458250D01*
X47250Y457500D02*X48000Y458250D01*
X45750Y457500D02*X47250D01*
X45000Y459000D02*X48000Y462000D01*
X49800Y457500D02*X50550D01*
X52350Y458250D02*X53100Y457500D01*
X52350Y462750D02*Y458250D01*
Y462750D02*X53100Y463500D01*
X54600D01*
X55350Y462750D01*
Y458250D01*
X54600Y457500D02*X55350Y458250D01*
X53100Y457500D02*X54600D01*
X52350Y459000D02*X55350Y462000D01*
X57150Y462750D02*X57900Y463500D01*
X59400D01*
X60150Y462750D01*
X59400Y457500D02*X60150Y458250D01*
X57900Y457500D02*X59400D01*
X57150Y458250D02*X57900Y457500D01*
Y460800D02*X59400D01*
X60150Y462750D02*Y461550D01*
Y460050D02*Y458250D01*
Y460050D02*X59400Y460800D01*
X60150Y461550D02*X59400Y460800D01*
X61950Y458250D02*X62700Y457500D01*
X61950Y459450D02*Y458250D01*
Y459450D02*X63000Y460500D01*
X63900D01*
X64950Y459450D01*
Y458250D01*
X64200Y457500D02*X64950Y458250D01*
X62700Y457500D02*X64200D01*
X61950Y461550D02*X63000Y460500D01*
X61950Y462750D02*Y461550D01*
Y462750D02*X62700Y463500D01*
X64200D01*
X64950Y462750D01*
Y461550D01*
X63900Y460500D02*X64950Y461550D01*
X85000Y169600D02*Y166400D01*
X83400Y168000D02*X86600D01*
X95000Y169600D02*Y166400D01*
X93400Y168000D02*X96600D01*
X105000Y169600D02*Y166400D01*
X103400Y168000D02*X106600D01*
X140000Y169600D02*Y166400D01*
X138400Y168000D02*X141600D01*
X150000Y169600D02*Y166400D01*
X148400Y168000D02*X151600D01*
X160000Y169600D02*Y166400D01*
X158400Y168000D02*X161600D01*
X279000Y25600D02*Y22400D01*
X277400Y24000D02*X280600D01*
X309000Y25600D02*Y22400D01*
X307400Y24000D02*X310600D01*
X299000Y25600D02*Y22400D01*
X297400Y24000D02*X300600D01*
X289000Y25600D02*Y22400D01*
X287400Y24000D02*X290600D01*
X269000Y25600D02*Y22400D01*
X267400Y24000D02*X270600D01*
X259000Y25600D02*Y22400D01*
X257400Y24000D02*X260600D01*
X249000Y25600D02*Y22400D01*
X247400Y24000D02*X250600D01*
X239000Y25600D02*Y22400D01*
X237400Y24000D02*X240600D01*
X243000Y251600D02*Y248400D01*
X241400Y250000D02*X244600D01*
X243000Y241600D02*Y238400D01*
X241400Y240000D02*X244600D01*
X243000Y231600D02*Y228400D01*
X241400Y230000D02*X244600D01*
X243000Y221600D02*Y218400D01*
X241400Y220000D02*X244600D01*
X243000Y211600D02*Y208400D01*
X241400Y210000D02*X244600D01*
X243000Y201600D02*Y198400D01*
X241400Y200000D02*X244600D01*
X243000Y191600D02*Y188400D01*
X241400Y190000D02*X244600D01*
X243000Y181600D02*Y178400D01*
X241400Y180000D02*X244600D01*
X293000Y84600D02*Y81400D01*
X291400Y83000D02*X294600D01*
X254000Y84600D02*Y81400D01*
X252400Y83000D02*X255600D01*
X314000Y84600D02*Y81400D01*
X312400Y83000D02*X315600D01*
X138000Y18600D02*Y15400D01*
X136400Y17000D02*X139600D01*
X112000Y261600D02*Y258400D01*
X110400Y260000D02*X113600D01*
X166000Y261600D02*Y258400D01*
X164400Y260000D02*X167600D01*
X111000Y163600D02*Y160400D01*
X109400Y162000D02*X112600D01*
X166000Y163600D02*Y160400D01*
X164400Y162000D02*X167600D01*
X237000Y311600D02*Y308400D01*
X235400Y310000D02*X238600D01*
X270000Y234600D02*Y231400D01*
X268400Y233000D02*X271600D01*
X306000Y241600D02*Y238400D01*
X304400Y240000D02*X307600D01*
X280000Y251600D02*Y248400D01*
X278400Y250000D02*X281600D01*
X246000Y296600D02*Y293400D01*
X244400Y295000D02*X247600D01*
X221000Y61600D02*Y58400D01*
X219400Y60000D02*X222600D01*
X51000Y51600D02*Y48400D01*
X49400Y50000D02*X52600D01*
X254000Y264600D02*Y261400D01*
X252400Y263000D02*X255600D01*
X15000Y477850D02*Y474650D01*
X13400Y476250D02*X16600D01*
X135000Y478500D02*X136500Y475500D01*
X138000Y478500D01*
X136500Y475500D02*Y472500D01*
X139800Y475800D02*X142050D01*
X139800Y472500D02*X142800D01*
X139800Y478500D02*Y472500D01*
Y478500D02*X142800D01*
X147600D02*X148350Y477750D01*
X145350Y478500D02*X147600D01*
X144600Y477750D02*X145350Y478500D01*
X144600Y477750D02*Y476250D01*
X145350Y475500D01*
X147600D01*
X148350Y474750D01*
Y473250D01*
X147600Y472500D02*X148350Y473250D01*
X145350Y472500D02*X147600D01*
X144600Y473250D02*X145350Y472500D01*
X98000Y477750D02*X98750Y478500D01*
X100250D01*
X101000Y477750D01*
X100250Y472500D02*X101000Y473250D01*
X98750Y472500D02*X100250D01*
X98000Y473250D02*X98750Y472500D01*
Y475800D02*X100250D01*
X101000Y477750D02*Y476550D01*
Y475050D02*Y473250D01*
Y475050D02*X100250Y475800D01*
X101000Y476550D02*X100250Y475800D01*
X102800Y473250D02*X103550Y472500D01*
X102800Y474450D02*Y473250D01*
Y474450D02*X103850Y475500D01*
X104750D01*
X105800Y474450D01*
Y473250D01*
X105050Y472500D02*X105800Y473250D01*
X103550Y472500D02*X105050D01*
X102800Y476550D02*X103850Y475500D01*
X102800Y477750D02*Y476550D01*
Y477750D02*X103550Y478500D01*
X105050D01*
X105800Y477750D01*
Y476550D01*
X104750Y475500D02*X105800Y476550D01*
X45000Y473250D02*X45750Y472500D01*
X45000Y477750D02*Y473250D01*
Y477750D02*X45750Y478500D01*
X47250D01*
X48000Y477750D01*
Y473250D01*
X47250Y472500D02*X48000Y473250D01*
X45750Y472500D02*X47250D01*
X45000Y474000D02*X48000Y477000D01*
X49800Y472500D02*X50550D01*
X52350Y473250D02*X53100Y472500D01*
X52350Y477750D02*Y473250D01*
Y477750D02*X53100Y478500D01*
X54600D01*
X55350Y477750D01*
Y473250D01*
X54600Y472500D02*X55350Y473250D01*
X53100Y472500D02*X54600D01*
X52350Y474000D02*X55350Y477000D01*
X57150Y477750D02*X57900Y478500D01*
X59400D01*
X60150Y477750D01*
X59400Y472500D02*X60150Y473250D01*
X57900Y472500D02*X59400D01*
X57150Y473250D02*X57900Y472500D01*
Y475800D02*X59400D01*
X60150Y477750D02*Y476550D01*
Y475050D02*Y473250D01*
Y475050D02*X59400Y475800D01*
X60150Y476550D02*X59400Y475800D01*
X61950Y478500D02*X64950D01*
X61950D02*Y475500D01*
X62700Y476250D01*
X64200D01*
X64950Y475500D01*
Y473250D01*
X64200Y472500D02*X64950Y473250D01*
X62700Y472500D02*X64200D01*
X61950Y473250D02*X62700Y472500D01*
X85000Y260000D02*Y258400D01*
Y260000D02*X86387Y260800D01*
X85000Y260000D02*X83613Y260800D01*
X85000Y300000D02*Y298400D01*
Y300000D02*X86387Y300800D01*
X85000Y300000D02*X83613Y300800D01*
X140000Y260000D02*Y258400D01*
Y260000D02*X141387Y260800D01*
X140000Y260000D02*X138613Y260800D01*
X140000Y300000D02*Y298400D01*
Y300000D02*X141387Y300800D01*
X140000Y300000D02*X138613Y300800D01*
X150000Y150000D02*Y148400D01*
Y150000D02*X151387Y150800D01*
X150000Y150000D02*X148613Y150800D01*
X150000Y110000D02*Y108400D01*
Y110000D02*X151387Y110800D01*
X150000Y110000D02*X148613Y110800D01*
X95000Y150000D02*Y148400D01*
Y150000D02*X96387Y150800D01*
X95000Y150000D02*X93613Y150800D01*
X95000Y110000D02*Y108400D01*
Y110000D02*X96387Y110800D01*
X95000Y110000D02*X93613Y110800D01*
X309000Y50000D02*Y48400D01*
Y50000D02*X310387Y50800D01*
X309000Y50000D02*X307613Y50800D01*
X299000Y50000D02*Y48400D01*
Y50000D02*X300387Y50800D01*
X299000Y50000D02*X297613Y50800D01*
X293000Y63000D02*Y61400D01*
Y63000D02*X294387Y63800D01*
X293000Y63000D02*X291613Y63800D01*
X293000Y73000D02*Y71400D01*
Y73000D02*X294387Y73800D01*
X293000Y73000D02*X291613Y73800D01*
X314000Y73000D02*Y71400D01*
Y73000D02*X315387Y73800D01*
X314000Y73000D02*X312613Y73800D01*
X314000Y63000D02*Y61400D01*
Y63000D02*X315387Y63800D01*
X314000Y63000D02*X312613Y63800D01*
X249000Y50000D02*Y48400D01*
Y50000D02*X250387Y50800D01*
X249000Y50000D02*X247613Y50800D01*
X239000Y50000D02*Y48400D01*
Y50000D02*X240387Y50800D01*
X239000Y50000D02*X237613Y50800D01*
X233000Y63000D02*Y61400D01*
Y63000D02*X234387Y63800D01*
X233000Y63000D02*X231613Y63800D01*
X233000Y73000D02*Y71400D01*
Y73000D02*X234387Y73800D01*
X233000Y73000D02*X231613Y73800D01*
X254000Y73000D02*Y71400D01*
Y73000D02*X255387Y73800D01*
X254000Y73000D02*X252613Y73800D01*
X254000Y63000D02*Y61400D01*
Y63000D02*X255387Y63800D01*
X254000Y63000D02*X252613Y63800D01*
X291000Y240000D02*Y238400D01*
Y240000D02*X292387Y240800D01*
X291000Y240000D02*X289613Y240800D01*
X291000Y250000D02*Y248400D01*
Y250000D02*X292387Y250800D01*
X291000Y250000D02*X289613Y250800D01*
X270000Y240000D02*Y238400D01*
Y240000D02*X271387Y240800D01*
X270000Y240000D02*X268613Y240800D01*
X270000Y250000D02*Y248400D01*
Y250000D02*X271387Y250800D01*
X270000Y250000D02*X268613Y250800D01*
X270000Y210000D02*Y208400D01*
Y210000D02*X271387Y210800D01*
X270000Y210000D02*X268613Y210800D01*
X310000Y210000D02*Y208400D01*
Y210000D02*X311387Y210800D01*
X310000Y210000D02*X308613Y210800D01*
X270000Y219700D02*Y218100D01*
Y219700D02*X271387Y220500D01*
X270000Y219700D02*X268613Y220500D01*
X310000Y219700D02*Y218100D01*
Y219700D02*X311387Y220500D01*
X310000Y219700D02*X308613Y220500D01*
X157000Y260000D02*Y258400D01*
Y260000D02*X158387Y260800D01*
X157000Y260000D02*X155613Y260800D01*
X157000Y300000D02*Y298400D01*
Y300000D02*X158387Y300800D01*
X157000Y300000D02*X155613Y300800D01*
X102000Y260000D02*Y258400D01*
Y260000D02*X103387Y260800D01*
X102000Y260000D02*X100613Y260800D01*
X102000Y300000D02*Y298400D01*
Y300000D02*X103387Y300800D01*
X102000Y300000D02*X100613Y300800D01*
X15000Y491250D02*Y489650D01*
Y491250D02*X16387Y492050D01*
X15000Y491250D02*X13613Y492050D01*
X135000Y493500D02*X136500Y490500D01*
X138000Y493500D01*
X136500Y490500D02*Y487500D01*
X139800Y490800D02*X142050D01*
X139800Y487500D02*X142800D01*
X139800Y493500D02*Y487500D01*
Y493500D02*X142800D01*
X147600D02*X148350Y492750D01*
X145350Y493500D02*X147600D01*
X144600Y492750D02*X145350Y493500D01*
X144600Y492750D02*Y491250D01*
X145350Y490500D01*
X147600D01*
X148350Y489750D01*
Y488250D01*
X147600Y487500D02*X148350Y488250D01*
X145350Y487500D02*X147600D01*
X144600Y488250D02*X145350Y487500D01*
X98000Y492750D02*X98750Y493500D01*
X100250D01*
X101000Y492750D01*
X100250Y487500D02*X101000Y488250D01*
X98750Y487500D02*X100250D01*
X98000Y488250D02*X98750Y487500D01*
Y490800D02*X100250D01*
X101000Y492750D02*Y491550D01*
Y490050D02*Y488250D01*
Y490050D02*X100250Y490800D01*
X101000Y491550D02*X100250Y490800D01*
X102800Y492750D02*X103550Y493500D01*
X105800D01*
X106550Y492750D01*
Y491250D01*
X102800Y487500D02*X106550Y491250D01*
X102800Y487500D02*X106550D01*
X45000Y488250D02*X45750Y487500D01*
X45000Y492750D02*Y488250D01*
Y492750D02*X45750Y493500D01*
X47250D01*
X48000Y492750D01*
Y488250D01*
X47250Y487500D02*X48000Y488250D01*
X45750Y487500D02*X47250D01*
X45000Y489000D02*X48000Y492000D01*
X49800Y487500D02*X50550D01*
X52350Y488250D02*X53100Y487500D01*
X52350Y492750D02*Y488250D01*
Y492750D02*X53100Y493500D01*
X54600D01*
X55350Y492750D01*
Y488250D01*
X54600Y487500D02*X55350Y488250D01*
X53100Y487500D02*X54600D01*
X52350Y489000D02*X55350Y492000D01*
X57150Y492750D02*X57900Y493500D01*
X59400D01*
X60150Y492750D01*
X59400Y487500D02*X60150Y488250D01*
X57900Y487500D02*X59400D01*
X57150Y488250D02*X57900Y487500D01*
Y490800D02*X59400D01*
X60150Y492750D02*Y491550D01*
Y490050D02*Y488250D01*
Y490050D02*X59400Y490800D01*
X60150Y491550D02*X59400Y490800D01*
X61950Y488250D02*X62700Y487500D01*
X61950Y492750D02*Y488250D01*
Y492750D02*X62700Y493500D01*
X64200D01*
X64950Y492750D01*
Y488250D01*
X64200Y487500D02*X64950Y488250D01*
X62700Y487500D02*X64200D01*
X61950Y489000D02*X64950Y492000D01*
X3000Y508500D02*X3750Y507750D01*
X750Y508500D02*X3000D01*
X0Y507750D02*X750Y508500D01*
X0Y507750D02*Y506250D01*
X750Y505500D01*
X3000D01*
X3750Y504750D01*
Y503250D01*
X3000Y502500D02*X3750Y503250D01*
X750Y502500D02*X3000D01*
X0Y503250D02*X750Y502500D01*
X5550Y505500D02*Y503250D01*
X6300Y502500D01*
X8550Y505500D02*Y501000D01*
X7800Y500250D02*X8550Y501000D01*
X6300Y500250D02*X7800D01*
X5550Y501000D02*X6300Y500250D01*
Y502500D02*X7800D01*
X8550Y503250D01*
X11100Y504750D02*Y502500D01*
Y504750D02*X11850Y505500D01*
X12600D01*
X13350Y504750D01*
Y502500D01*
Y504750D02*X14100Y505500D01*
X14850D01*
X15600Y504750D01*
Y502500D01*
X10350Y505500D02*X11100Y504750D01*
X17400Y508500D02*Y502500D01*
Y503250D02*X18150Y502500D01*
X19650D01*
X20400Y503250D01*
Y504750D02*Y503250D01*
X19650Y505500D02*X20400Y504750D01*
X18150Y505500D02*X19650D01*
X17400Y504750D02*X18150Y505500D01*
X22200Y504750D02*Y503250D01*
Y504750D02*X22950Y505500D01*
X24450D01*
X25200Y504750D01*
Y503250D01*
X24450Y502500D02*X25200Y503250D01*
X22950Y502500D02*X24450D01*
X22200Y503250D02*X22950Y502500D01*
X27000Y508500D02*Y503250D01*
X27750Y502500D01*
X0Y499250D02*X29250D01*
X41750Y508500D02*Y502500D01*
X43700Y508500D02*X44750Y507450D01*
Y503550D01*
X43700Y502500D02*X44750Y503550D01*
X41000Y502500D02*X43700D01*
X41000Y508500D02*X43700D01*
G54D71*X46550Y507000D02*Y506850D01*
G54D70*Y504750D02*Y502500D01*
X50300Y505500D02*X51050Y504750D01*
X48800Y505500D02*X50300D01*
X48050Y504750D02*X48800Y505500D01*
X48050Y504750D02*Y503250D01*
X48800Y502500D01*
X51050Y505500D02*Y503250D01*
X51800Y502500D01*
X48800D02*X50300D01*
X51050Y503250D01*
X54350Y504750D02*Y502500D01*
Y504750D02*X55100Y505500D01*
X55850D01*
X56600Y504750D01*
Y502500D01*
Y504750D02*X57350Y505500D01*
X58100D01*
X58850Y504750D01*
Y502500D01*
X53600Y505500D02*X54350Y504750D01*
X60650Y502500D02*X61400D01*
X65900Y503250D02*X66650Y502500D01*
X65900Y507750D02*X66650Y508500D01*
X65900Y507750D02*Y503250D01*
X68450Y508500D02*X69950D01*
X69200D02*Y502500D01*
X68450D02*X69950D01*
X72500Y504750D02*Y502500D01*
Y504750D02*X73250Y505500D01*
X74000D01*
X74750Y504750D01*
Y502500D01*
X71750Y505500D02*X72500Y504750D01*
X77300Y505500D02*X79550D01*
X76550Y504750D02*X77300Y505500D01*
X76550Y504750D02*Y503250D01*
X77300Y502500D01*
X79550D01*
X81350Y508500D02*Y502500D01*
Y504750D02*X82100Y505500D01*
X83600D01*
X84350Y504750D01*
Y502500D01*
X86150Y508500D02*X86900Y507750D01*
Y503250D01*
X86150Y502500D02*X86900Y503250D01*
X41000Y499250D02*X88700D01*
X96050Y502500D02*X98000D01*
X95000Y503550D02*X96050Y502500D01*
X95000Y507450D02*Y503550D01*
Y507450D02*X96050Y508500D01*
X98000D01*
X99800Y504750D02*Y503250D01*
Y504750D02*X100550Y505500D01*
X102050D01*
X102800Y504750D01*
Y503250D01*
X102050Y502500D02*X102800Y503250D01*
X100550Y502500D02*X102050D01*
X99800Y503250D02*X100550Y502500D01*
X104600Y505500D02*Y503250D01*
X105350Y502500D01*
X106850D01*
X107600Y503250D01*
Y505500D02*Y503250D01*
X110150Y504750D02*Y502500D01*
Y504750D02*X110900Y505500D01*
X111650D01*
X112400Y504750D01*
Y502500D01*
X109400Y505500D02*X110150Y504750D01*
X114950Y508500D02*Y503250D01*
X115700Y502500D01*
X114200Y506250D02*X115700D01*
X95000Y499250D02*X117200D01*
X130750Y508500D02*Y502500D01*
X130000Y508500D02*X133000D01*
X133750Y507750D01*
Y506250D01*
X133000Y505500D02*X133750Y506250D01*
X130750Y505500D02*X133000D01*
X135550Y508500D02*Y503250D01*
X136300Y502500D01*
X140050Y505500D02*X140800Y504750D01*
X138550Y505500D02*X140050D01*
X137800Y504750D02*X138550Y505500D01*
X137800Y504750D02*Y503250D01*
X138550Y502500D01*
X140800Y505500D02*Y503250D01*
X141550Y502500D01*
X138550D02*X140050D01*
X140800Y503250D01*
X144100Y508500D02*Y503250D01*
X144850Y502500D01*
X143350Y506250D02*X144850D01*
X147100Y502500D02*X149350D01*
X146350Y503250D02*X147100Y502500D01*
X146350Y504750D02*Y503250D01*
Y504750D02*X147100Y505500D01*
X148600D01*
X149350Y504750D01*
X146350Y504000D02*X149350D01*
Y504750D02*Y504000D01*
X154150Y508500D02*Y502500D01*
X153400D02*X154150Y503250D01*
X151900Y502500D02*X153400D01*
X151150Y503250D02*X151900Y502500D01*
X151150Y504750D02*Y503250D01*
Y504750D02*X151900Y505500D01*
X153400D01*
X154150Y504750D01*
X157450Y505500D02*Y504750D01*
Y503250D02*Y502500D01*
X155950Y507750D02*Y507000D01*
Y507750D02*X156700Y508500D01*
X158200D01*
X158950Y507750D01*
Y507000D01*
X157450Y505500D02*X158950Y507000D01*
X130000Y499250D02*X160750D01*
X0Y523500D02*X3000D01*
X1500D02*Y517500D01*
X4800Y523500D02*Y517500D01*
Y519750D02*X5550Y520500D01*
X7050D01*
X7800Y519750D01*
Y517500D01*
X10350D02*X12600D01*
X9600Y518250D02*X10350Y517500D01*
X9600Y519750D02*Y518250D01*
Y519750D02*X10350Y520500D01*
X11850D01*
X12600Y519750D01*
X9600Y519000D02*X12600D01*
Y519750D02*Y519000D01*
X15150Y519750D02*Y517500D01*
Y519750D02*X15900Y520500D01*
X17400D01*
X14400D02*X15150Y519750D01*
X19950Y517500D02*X22200D01*
X19200Y518250D02*X19950Y517500D01*
X19200Y519750D02*Y518250D01*
Y519750D02*X19950Y520500D01*
X21450D01*
X22200Y519750D01*
X19200Y519000D02*X22200D01*
Y519750D02*Y519000D01*
X28950Y520500D02*X29700Y519750D01*
X27450Y520500D02*X28950D01*
X26700Y519750D02*X27450Y520500D01*
X26700Y519750D02*Y518250D01*
X27450Y517500D01*
X29700Y520500D02*Y518250D01*
X30450Y517500D01*
X27450D02*X28950D01*
X29700Y518250D01*
X33000Y519750D02*Y517500D01*
Y519750D02*X33750Y520500D01*
X35250D01*
X32250D02*X33000Y519750D01*
X37800Y517500D02*X40050D01*
X37050Y518250D02*X37800Y517500D01*
X37050Y519750D02*Y518250D01*
Y519750D02*X37800Y520500D01*
X39300D01*
X40050Y519750D01*
X37050Y519000D02*X40050D01*
Y519750D02*Y519000D01*
X45300Y517500D02*X48300Y523500D01*
X44550D02*X48300D01*
X55800D02*Y517500D01*
X55050D02*X55800Y518250D01*
X53550Y517500D02*X55050D01*
X52800Y518250D02*X53550Y517500D01*
X52800Y519750D02*Y518250D01*
Y519750D02*X53550Y520500D01*
X55050D01*
X55800Y519750D01*
G54D71*X57600Y522000D02*Y521850D01*
G54D70*Y519750D02*Y517500D01*
X59850Y522750D02*Y517500D01*
Y522750D02*X60600Y523500D01*
X61350D01*
X59100Y520500D02*X60600D01*
X63600Y522750D02*Y517500D01*
Y522750D02*X64350Y523500D01*
X65100D01*
X62850Y520500D02*X64350D01*
X67350Y517500D02*X69600D01*
X66600Y518250D02*X67350Y517500D01*
X66600Y519750D02*Y518250D01*
Y519750D02*X67350Y520500D01*
X68850D01*
X69600Y519750D01*
X66600Y519000D02*X69600D01*
Y519750D02*Y519000D01*
X72150Y519750D02*Y517500D01*
Y519750D02*X72900Y520500D01*
X74400D01*
X71400D02*X72150Y519750D01*
X76950Y517500D02*X79200D01*
X76200Y518250D02*X76950Y517500D01*
X76200Y519750D02*Y518250D01*
Y519750D02*X76950Y520500D01*
X78450D01*
X79200Y519750D01*
X76200Y519000D02*X79200D01*
Y519750D02*Y519000D01*
X81750Y519750D02*Y517500D01*
Y519750D02*X82500Y520500D01*
X83250D01*
X84000Y519750D01*
Y517500D01*
X81000Y520500D02*X81750Y519750D01*
X86550Y523500D02*Y518250D01*
X87300Y517500D01*
X85800Y521250D02*X87300D01*
X94500Y523500D02*Y517500D01*
X93750D02*X94500Y518250D01*
X92250Y517500D02*X93750D01*
X91500Y518250D02*X92250Y517500D01*
X91500Y519750D02*Y518250D01*
Y519750D02*X92250Y520500D01*
X93750D01*
X94500Y519750D01*
X97050D02*Y517500D01*
Y519750D02*X97800Y520500D01*
X99300D01*
X96300D02*X97050Y519750D01*
G54D71*X101100Y522000D02*Y521850D01*
G54D70*Y519750D02*Y517500D01*
X102600Y523500D02*Y518250D01*
X103350Y517500D01*
X104850Y523500D02*Y518250D01*
X105600Y517500D01*
X110550D02*X112800D01*
X113550Y518250D01*
X112800Y519000D02*X113550Y518250D01*
X110550Y519000D02*X112800D01*
X109800Y519750D02*X110550Y519000D01*
X109800Y519750D02*X110550Y520500D01*
X112800D01*
X113550Y519750D01*
X109800Y518250D02*X110550Y517500D01*
G54D71*X115350Y522000D02*Y521850D01*
G54D70*Y519750D02*Y517500D01*
X116850Y520500D02*X119850D01*
X116850Y517500D02*X119850Y520500D01*
X116850Y517500D02*X119850D01*
X122400D02*X124650D01*
X121650Y518250D02*X122400Y517500D01*
X121650Y519750D02*Y518250D01*
Y519750D02*X122400Y520500D01*
X123900D01*
X124650Y519750D01*
X121650Y519000D02*X124650D01*
Y519750D02*Y519000D01*
X127200Y517500D02*X129450D01*
X130200Y518250D01*
X129450Y519000D02*X130200Y518250D01*
X127200Y519000D02*X129450D01*
X126450Y519750D02*X127200Y519000D01*
X126450Y519750D02*X127200Y520500D01*
X129450D01*
X130200Y519750D01*
X126450Y518250D02*X127200Y517500D01*
X134700Y520500D02*Y518250D01*
X135450Y517500D01*
X136950D01*
X137700Y518250D01*
Y520500D02*Y518250D01*
X140250Y517500D02*X142500D01*
X143250Y518250D01*
X142500Y519000D02*X143250Y518250D01*
X140250Y519000D02*X142500D01*
X139500Y519750D02*X140250Y519000D01*
X139500Y519750D02*X140250Y520500D01*
X142500D01*
X143250Y519750D01*
X139500Y518250D02*X140250Y517500D01*
X145800D02*X148050D01*
X145050Y518250D02*X145800Y517500D01*
X145050Y519750D02*Y518250D01*
Y519750D02*X145800Y520500D01*
X147300D01*
X148050Y519750D01*
X145050Y519000D02*X148050D01*
Y519750D02*Y519000D01*
X152850Y523500D02*Y517500D01*
X152100D02*X152850Y518250D01*
X150600Y517500D02*X152100D01*
X149850Y518250D02*X150600Y517500D01*
X149850Y519750D02*Y518250D01*
Y519750D02*X150600Y520500D01*
X152100D01*
X152850Y519750D01*
G54D71*X157350Y522000D02*Y521850D01*
G54D70*Y519750D02*Y517500D01*
X159600Y519750D02*Y517500D01*
Y519750D02*X160350Y520500D01*
X161100D01*
X161850Y519750D01*
Y517500D01*
X158850Y520500D02*X159600Y519750D01*
X167100Y523500D02*Y518250D01*
X167850Y517500D01*
X166350Y521250D02*X167850D01*
X169350Y523500D02*Y517500D01*
Y519750D02*X170100Y520500D01*
X171600D01*
X172350Y519750D01*
Y517500D01*
G54D71*X174150Y522000D02*Y521850D01*
G54D70*Y519750D02*Y517500D01*
X176400D02*X178650D01*
X179400Y518250D01*
X178650Y519000D02*X179400Y518250D01*
X176400Y519000D02*X178650D01*
X175650Y519750D02*X176400Y519000D01*
X175650Y519750D02*X176400Y520500D01*
X178650D01*
X179400Y519750D01*
X175650Y518250D02*X176400Y517500D01*
X183900Y523500D02*Y518250D01*
X184650Y517500D01*
X188400Y520500D02*X189150Y519750D01*
X186900Y520500D02*X188400D01*
X186150Y519750D02*X186900Y520500D01*
X186150Y519750D02*Y518250D01*
X186900Y517500D01*
X189150Y520500D02*Y518250D01*
X189900Y517500D01*
X186900D02*X188400D01*
X189150Y518250D01*
X191700Y520500D02*Y518250D01*
X192450Y517500D01*
X194700Y520500D02*Y516000D01*
X193950Y515250D02*X194700Y516000D01*
X192450Y515250D02*X193950D01*
X191700Y516000D02*X192450Y515250D01*
Y517500D02*X193950D01*
X194700Y518250D01*
X196500Y519750D02*Y518250D01*
Y519750D02*X197250Y520500D01*
X198750D01*
X199500Y519750D01*
Y518250D01*
X198750Y517500D02*X199500Y518250D01*
X197250Y517500D02*X198750D01*
X196500Y518250D02*X197250Y517500D01*
X201300Y520500D02*Y518250D01*
X202050Y517500D01*
X203550D01*
X204300Y518250D01*
Y520500D02*Y518250D01*
X206850Y523500D02*Y518250D01*
X207600Y517500D01*
X206100Y521250D02*X207600D01*
X209100Y516000D02*X210600Y517500D01*
X215100Y522300D02*X216300Y523500D01*
Y517500D01*
X215100D02*X217350D01*
X219150Y518250D02*X219900Y517500D01*
X219150Y519450D02*Y518250D01*
Y519450D02*X220200Y520500D01*
X221100D01*
X222150Y519450D01*
Y518250D01*
X221400Y517500D02*X222150Y518250D01*
X219900Y517500D02*X221400D01*
X219150Y521550D02*X220200Y520500D01*
X219150Y522750D02*Y521550D01*
Y522750D02*X219900Y523500D01*
X221400D01*
X222150Y522750D01*
Y521550D01*
X221100Y520500D02*X222150Y521550D01*
X223950Y522300D02*X225150Y523500D01*
Y517500D01*
X223950D02*X226200D01*
X230700Y523500D02*Y517500D01*
Y519750D02*X231450Y520500D01*
X232950D01*
X233700Y519750D01*
Y517500D01*
X235500Y519750D02*Y518250D01*
Y519750D02*X236250Y520500D01*
X237750D01*
X238500Y519750D01*
Y518250D01*
X237750Y517500D02*X238500Y518250D01*
X236250Y517500D02*X237750D01*
X235500Y518250D02*X236250Y517500D01*
X240300Y523500D02*Y518250D01*
X241050Y517500D01*
X243300D02*X245550D01*
X242550Y518250D02*X243300Y517500D01*
X242550Y519750D02*Y518250D01*
Y519750D02*X243300Y520500D01*
X244800D01*
X245550Y519750D01*
X242550Y519000D02*X245550D01*
Y519750D02*Y519000D01*
X248100Y517500D02*X250350D01*
X251100Y518250D01*
X250350Y519000D02*X251100Y518250D01*
X248100Y519000D02*X250350D01*
X247350Y519750D02*X248100Y519000D01*
X247350Y519750D02*X248100Y520500D01*
X250350D01*
X251100Y519750D01*
X247350Y518250D02*X248100Y517500D01*
X256350Y523500D02*Y518250D01*
X257100Y517500D01*
X255600Y521250D02*X257100D01*
X258600Y519750D02*Y518250D01*
Y519750D02*X259350Y520500D01*
X260850D01*
X261600Y519750D01*
Y518250D01*
X260850Y517500D02*X261600Y518250D01*
X259350Y517500D02*X260850D01*
X258600Y518250D02*X259350Y517500D01*
X264150Y523500D02*Y518250D01*
X264900Y517500D01*
X263400Y521250D02*X264900D01*
X268650Y520500D02*X269400Y519750D01*
X267150Y520500D02*X268650D01*
X266400Y519750D02*X267150Y520500D01*
X266400Y519750D02*Y518250D01*
X267150Y517500D01*
X269400Y520500D02*Y518250D01*
X270150Y517500D01*
X267150D02*X268650D01*
X269400Y518250D01*
X271950Y523500D02*Y518250D01*
X272700Y517500D01*
G54D72*X0Y390000D02*Y0D01*
X330000D02*Y390000D01*
X207000Y323000D02*Y390000D01*
X0D02*X76000D01*
X207000D02*X330000D01*
Y0D02*X1000D01*
X76000Y390000D02*Y323000D01*
X207000D01*
G54D70*X78675Y-9500D02*X81675D01*
X82425Y-8750D01*
Y-6950D02*Y-8750D01*
X81675Y-6200D02*X82425Y-6950D01*
X79425Y-6200D02*X81675D01*
X79425Y-3500D02*Y-9500D01*
X78675Y-3500D02*X81675D01*
X82425Y-4250D01*
Y-5450D01*
X81675Y-6200D02*X82425Y-5450D01*
X84225Y-7250D02*Y-8750D01*
Y-7250D02*X84975Y-6500D01*
X86475D01*
X87225Y-7250D01*
Y-8750D01*
X86475Y-9500D02*X87225Y-8750D01*
X84975Y-9500D02*X86475D01*
X84225Y-8750D02*X84975Y-9500D01*
X91275Y-6500D02*X92025Y-7250D01*
X89775Y-6500D02*X91275D01*
X89025Y-7250D02*X89775Y-6500D01*
X89025Y-7250D02*Y-8750D01*
X89775Y-9500D01*
X92025Y-6500D02*Y-8750D01*
X92775Y-9500D01*
X89775D02*X91275D01*
X92025Y-8750D01*
X95325Y-7250D02*Y-9500D01*
Y-7250D02*X96075Y-6500D01*
X97575D01*
X94575D02*X95325Y-7250D01*
X102375Y-3500D02*Y-9500D01*
X101625D02*X102375Y-8750D01*
X100125Y-9500D02*X101625D01*
X99375Y-8750D02*X100125Y-9500D01*
X99375Y-7250D02*Y-8750D01*
Y-7250D02*X100125Y-6500D01*
X101625D01*
X102375Y-7250D01*
X106875D02*Y-8750D01*
Y-7250D02*X107625Y-6500D01*
X109125D01*
X109875Y-7250D01*
Y-8750D01*
X109125Y-9500D02*X109875Y-8750D01*
X107625Y-9500D02*X109125D01*
X106875Y-8750D02*X107625Y-9500D01*
X111675Y-6500D02*Y-8750D01*
X112425Y-9500D01*
X113925D01*
X114675Y-8750D01*
Y-6500D02*Y-8750D01*
X117225Y-3500D02*Y-8750D01*
X117975Y-9500D01*
X116475Y-5750D02*X117975D01*
X119475Y-3500D02*Y-8750D01*
X120225Y-9500D01*
G54D71*X121725Y-5000D02*Y-5150D01*
G54D70*Y-7250D02*Y-9500D01*
X123975Y-7250D02*Y-9500D01*
Y-7250D02*X124725Y-6500D01*
X125475D01*
X126225Y-7250D01*
Y-9500D01*
X123225Y-6500D02*X123975Y-7250D01*
X128775Y-9500D02*X131025D01*
X128025Y-8750D02*X128775Y-9500D01*
X128025Y-7250D02*Y-8750D01*
Y-7250D02*X128775Y-6500D01*
X130275D01*
X131025Y-7250D01*
X128025Y-8000D02*X131025D01*
Y-7250D02*Y-8000D01*
G54D71*X135525Y-5000D02*Y-5150D01*
G54D70*Y-7250D02*Y-9500D01*
X137775D02*X140025D01*
X140775Y-8750D01*
X140025Y-8000D02*X140775Y-8750D01*
X137775Y-8000D02*X140025D01*
X137025Y-7250D02*X137775Y-8000D01*
X137025Y-7250D02*X137775Y-6500D01*
X140025D01*
X140775Y-7250D01*
X137025Y-8750D02*X137775Y-9500D01*
X146025Y-3500D02*Y-8750D01*
X146775Y-9500D01*
X145275Y-5750D02*X146775D01*
X148275Y-3500D02*Y-9500D01*
Y-7250D02*X149025Y-6500D01*
X150525D01*
X151275Y-7250D01*
Y-9500D01*
X153825D02*X156075D01*
X153075Y-8750D02*X153825Y-9500D01*
X153075Y-7250D02*Y-8750D01*
Y-7250D02*X153825Y-6500D01*
X155325D01*
X156075Y-7250D01*
X153075Y-8000D02*X156075D01*
Y-7250D02*Y-8000D01*
X161325Y-6500D02*X163575D01*
X160575Y-7250D02*X161325Y-6500D01*
X160575Y-7250D02*Y-8750D01*
X161325Y-9500D01*
X163575D01*
X166125D02*X168375D01*
X165375Y-8750D02*X166125Y-9500D01*
X165375Y-7250D02*Y-8750D01*
Y-7250D02*X166125Y-6500D01*
X167625D01*
X168375Y-7250D01*
X165375Y-8000D02*X168375D01*
Y-7250D02*Y-8000D01*
X170925Y-7250D02*Y-9500D01*
Y-7250D02*X171675Y-6500D01*
X172425D01*
X173175Y-7250D01*
Y-9500D01*
X170175Y-6500D02*X170925Y-7250D01*
X175725Y-3500D02*Y-8750D01*
X176475Y-9500D01*
X174975Y-5750D02*X176475D01*
X178725Y-9500D02*X180975D01*
X177975Y-8750D02*X178725Y-9500D01*
X177975Y-7250D02*Y-8750D01*
Y-7250D02*X178725Y-6500D01*
X180225D01*
X180975Y-7250D01*
X177975Y-8000D02*X180975D01*
Y-7250D02*Y-8000D01*
X183525Y-7250D02*Y-9500D01*
Y-7250D02*X184275Y-6500D01*
X185775D01*
X182775D02*X183525Y-7250D01*
X187575Y-3500D02*Y-8750D01*
X188325Y-9500D01*
G54D71*X189825Y-5000D02*Y-5150D01*
G54D70*Y-7250D02*Y-9500D01*
X192075Y-7250D02*Y-9500D01*
Y-7250D02*X192825Y-6500D01*
X193575D01*
X194325Y-7250D01*
Y-9500D01*
X191325Y-6500D02*X192075Y-7250D01*
X196875Y-9500D02*X199125D01*
X196125Y-8750D02*X196875Y-9500D01*
X196125Y-7250D02*Y-8750D01*
Y-7250D02*X196875Y-6500D01*
X198375D01*
X199125Y-7250D01*
X196125Y-8000D02*X199125D01*
Y-7250D02*Y-8000D01*
X203625Y-7250D02*Y-8750D01*
Y-7250D02*X204375Y-6500D01*
X205875D01*
X206625Y-7250D01*
Y-8750D01*
X205875Y-9500D02*X206625Y-8750D01*
X204375Y-9500D02*X205875D01*
X203625Y-8750D02*X204375Y-9500D01*
X209175Y-4250D02*Y-9500D01*
Y-4250D02*X209925Y-3500D01*
X210675D01*
X208425Y-6500D02*X209925D01*
X215625Y-3500D02*Y-8750D01*
X216375Y-9500D01*
X214875Y-5750D02*X216375D01*
X217875Y-3500D02*Y-9500D01*
Y-7250D02*X218625Y-6500D01*
X220125D01*
X220875Y-7250D01*
Y-9500D01*
G54D71*X222675Y-5000D02*Y-5150D01*
G54D70*Y-7250D02*Y-9500D01*
X224925D02*X227175D01*
X227925Y-8750D01*
X227175Y-8000D02*X227925Y-8750D01*
X224925Y-8000D02*X227175D01*
X224175Y-7250D02*X224925Y-8000D01*
X224175Y-7250D02*X224925Y-6500D01*
X227175D01*
X227925Y-7250D01*
X224175Y-8750D02*X224925Y-9500D01*
X233175Y-7250D02*Y-11750D01*
X232425Y-6500D02*X233175Y-7250D01*
X233925Y-6500D01*
X235425D01*
X236175Y-7250D01*
Y-8750D01*
X235425Y-9500D02*X236175Y-8750D01*
X233925Y-9500D02*X235425D01*
X233175Y-8750D02*X233925Y-9500D01*
X240225Y-6500D02*X240975Y-7250D01*
X238725Y-6500D02*X240225D01*
X237975Y-7250D02*X238725Y-6500D01*
X237975Y-7250D02*Y-8750D01*
X238725Y-9500D01*
X240975Y-6500D02*Y-8750D01*
X241725Y-9500D01*
X238725D02*X240225D01*
X240975Y-8750D01*
X244275Y-3500D02*Y-8750D01*
X245025Y-9500D01*
X243525Y-5750D02*X245025D01*
X246525Y-3500D02*Y-9500D01*
Y-7250D02*X247275Y-6500D01*
X248775D01*
X249525Y-7250D01*
Y-9500D01*
X200750Y418500D02*Y412500D01*
X202700Y418500D02*X203750Y417450D01*
Y413550D01*
X202700Y412500D02*X203750Y413550D01*
X200000Y412500D02*X202700D01*
X200000Y418500D02*X202700D01*
X207800Y415500D02*X208550Y414750D01*
X206300Y415500D02*X207800D01*
X205550Y414750D02*X206300Y415500D01*
X205550Y414750D02*Y413250D01*
X206300Y412500D01*
X208550Y415500D02*Y413250D01*
X209300Y412500D01*
X206300D02*X207800D01*
X208550Y413250D01*
X211850Y418500D02*Y413250D01*
X212600Y412500D01*
X211100Y416250D02*X212600D01*
X214850Y412500D02*X217100D01*
X214100Y413250D02*X214850Y412500D01*
X214100Y414750D02*Y413250D01*
Y414750D02*X214850Y415500D01*
X216350D01*
X217100Y414750D01*
X214100Y414000D02*X217100D01*
Y414750D02*Y414000D01*
X218900Y416250D02*X219650D01*
X218900Y414750D02*X219650D01*
X227150Y418500D02*X227900Y417750D01*
X224900Y418500D02*X227150D01*
X224150Y417750D02*X224900Y418500D01*
X224150Y417750D02*Y416250D01*
X224900Y415500D01*
X227150D01*
X227900Y414750D01*
Y413250D01*
X227150Y412500D02*X227900Y413250D01*
X224900Y412500D02*X227150D01*
X224150Y413250D02*X224900Y412500D01*
X229700Y415500D02*Y413250D01*
X230450Y412500D01*
X231950D01*
X232700Y413250D01*
Y415500D02*Y413250D01*
X235250Y414750D02*Y412500D01*
Y414750D02*X236000Y415500D01*
X236750D01*
X237500Y414750D01*
Y412500D01*
X234500Y415500D02*X235250Y414750D01*
X242000Y418500D02*Y412500D01*
Y418500D02*X245750Y412500D01*
Y418500D02*Y412500D01*
X247550Y414750D02*Y413250D01*
Y414750D02*X248300Y415500D01*
X249800D01*
X250550Y414750D01*
Y413250D01*
X249800Y412500D02*X250550Y413250D01*
X248300Y412500D02*X249800D01*
X247550Y413250D02*X248300Y412500D01*
X252350Y415500D02*X253850Y412500D01*
X255350Y415500D02*X253850Y412500D01*
X259850Y417750D02*X260600Y418500D01*
X262850D01*
X263600Y417750D01*
Y416250D01*
X259850Y412500D02*X263600Y416250D01*
X259850Y412500D02*X263600D01*
X266150D02*X268400Y415500D01*
Y417750D02*Y415500D01*
X267650Y418500D02*X268400Y417750D01*
X266150Y418500D02*X267650D01*
X265400Y417750D02*X266150Y418500D01*
X265400Y417750D02*Y416250D01*
X266150Y415500D01*
X268400D01*
X272900Y413250D02*X273650Y412500D01*
X272900Y417750D02*Y413250D01*
Y417750D02*X273650Y418500D01*
X275150D01*
X275900Y417750D01*
Y413250D01*
X275150Y412500D02*X275900Y413250D01*
X273650Y412500D02*X275150D01*
X272900Y414000D02*X275900Y417000D01*
X278450Y412500D02*X280700Y415500D01*
Y417750D02*Y415500D01*
X279950Y418500D02*X280700Y417750D01*
X278450Y418500D02*X279950D01*
X277700Y417750D02*X278450Y418500D01*
X277700Y417750D02*Y416250D01*
X278450Y415500D01*
X280700D01*
X282500Y416250D02*X283250D01*
X282500Y414750D02*X283250D01*
X285050Y417750D02*X285800Y418500D01*
X288050D01*
X288800Y417750D01*
Y416250D01*
X285050Y412500D02*X288800Y416250D01*
X285050Y412500D02*X288800D01*
X290600Y413250D02*X291350Y412500D01*
X290600Y417750D02*Y413250D01*
Y417750D02*X291350Y418500D01*
X292850D01*
X293600Y417750D01*
Y413250D01*
X292850Y412500D02*X293600Y413250D01*
X291350Y412500D02*X292850D01*
X290600Y414000D02*X293600Y417000D01*
X295400Y416250D02*X296150D01*
X295400Y414750D02*X296150D01*
X297950D02*X300950Y418500D01*
X297950Y414750D02*X301700D01*
X300950Y418500D02*Y412500D01*
X303500Y414750D02*X306500Y418500D01*
X303500Y414750D02*X307250D01*
X306500Y418500D02*Y412500D01*
X311750Y417750D02*X312500Y418500D01*
X314750D01*
X315500Y417750D01*
Y416250D01*
X311750Y412500D02*X315500Y416250D01*
X311750Y412500D02*X315500D01*
X317300Y413250D02*X318050Y412500D01*
X317300Y417750D02*Y413250D01*
Y417750D02*X318050Y418500D01*
X319550D01*
X320300Y417750D01*
Y413250D01*
X319550Y412500D02*X320300Y413250D01*
X318050Y412500D02*X319550D01*
X317300Y414000D02*X320300Y417000D01*
X322100Y417750D02*X322850Y418500D01*
X325100D01*
X325850Y417750D01*
Y416250D01*
X322100Y412500D02*X325850Y416250D01*
X322100Y412500D02*X325850D01*
X327650Y413250D02*X328400Y412500D01*
X327650Y417750D02*Y413250D01*
Y417750D02*X328400Y418500D01*
X329900D01*
X330650Y417750D01*
Y413250D01*
X329900Y412500D02*X330650Y413250D01*
X328400Y412500D02*X329900D01*
X327650Y414000D02*X330650Y417000D01*
X335150Y418500D02*Y413250D01*
X335900Y412500D01*
X337400D01*
X338150Y413250D01*
Y418500D02*Y413250D01*
X339950Y418500D02*X342950D01*
X341450D02*Y412500D01*
X345800D02*X347750D01*
X344750Y413550D02*X345800Y412500D01*
X344750Y417450D02*Y413550D01*
Y417450D02*X345800Y418500D01*
X347750D01*
X200000Y432000D02*Y427500D01*
Y432000D02*X201050Y433500D01*
X202700D01*
X203750Y432000D01*
Y427500D01*
X200000Y430500D02*X203750D01*
X205550D02*Y428250D01*
X206300Y427500D01*
X207800D01*
X208550Y428250D01*
Y430500D02*Y428250D01*
X211100Y433500D02*Y428250D01*
X211850Y427500D01*
X210350Y431250D02*X211850D01*
X213350Y433500D02*Y427500D01*
Y429750D02*X214100Y430500D01*
X215600D01*
X216350Y429750D01*
Y427500D01*
X218150Y429750D02*Y428250D01*
Y429750D02*X218900Y430500D01*
X220400D01*
X221150Y429750D01*
Y428250D01*
X220400Y427500D02*X221150Y428250D01*
X218900Y427500D02*X220400D01*
X218150Y428250D02*X218900Y427500D01*
X223700Y429750D02*Y427500D01*
Y429750D02*X224450Y430500D01*
X225950D01*
X222950D02*X223700Y429750D01*
X227750Y431250D02*X228500D01*
X227750Y429750D02*X228500D01*
X233000Y433500D02*Y427500D01*
Y430500D02*X236000Y433500D01*
X233000Y430500D02*X236000Y427500D01*
X238550D02*X240800D01*
X237800Y428250D02*X238550Y427500D01*
X237800Y429750D02*Y428250D01*
Y429750D02*X238550Y430500D01*
X240050D01*
X240800Y429750D01*
X237800Y429000D02*X240800D01*
Y429750D02*Y429000D01*
X242600Y430500D02*X244100Y427500D01*
X245600Y430500D02*X244100Y427500D01*
G54D71*X247400Y432000D02*Y431850D01*
G54D70*Y429750D02*Y427500D01*
X249650Y429750D02*Y427500D01*
Y429750D02*X250400Y430500D01*
X251150D01*
X251900Y429750D01*
Y427500D01*
X248900Y430500D02*X249650Y429750D01*
X257450Y433500D02*X258650D01*
Y428250D01*
X257900Y427500D02*X258650Y428250D01*
X257150Y427500D02*X257900D01*
X256400Y428250D02*X257150Y427500D01*
X256400Y429000D02*Y428250D01*
X260450Y429750D02*Y428250D01*
Y429750D02*X261200Y430500D01*
X262700D01*
X263450Y429750D01*
Y428250D01*
X262700Y427500D02*X263450Y428250D01*
X261200Y427500D02*X262700D01*
X260450Y428250D02*X261200Y427500D01*
X265250Y433500D02*Y427500D01*
Y429750D02*X266000Y430500D01*
X267500D01*
X268250Y429750D01*
Y427500D01*
X270800Y429750D02*Y427500D01*
Y429750D02*X271550Y430500D01*
X272300D01*
X273050Y429750D01*
Y427500D01*
X270050Y430500D02*X270800Y429750D01*
X275600Y427500D02*X277850D01*
X278600Y428250D01*
X277850Y429000D02*X278600Y428250D01*
X275600Y429000D02*X277850D01*
X274850Y429750D02*X275600Y429000D01*
X274850Y429750D02*X275600Y430500D01*
X277850D01*
X278600Y429750D01*
X274850Y428250D02*X275600Y427500D01*
X280400Y429750D02*Y428250D01*
Y429750D02*X281150Y430500D01*
X282650D01*
X283400Y429750D01*
Y428250D01*
X282650Y427500D02*X283400Y428250D01*
X281150Y427500D02*X282650D01*
X280400Y428250D02*X281150Y427500D01*
X285950Y429750D02*Y427500D01*
Y429750D02*X286700Y430500D01*
X287450D01*
X288200Y429750D01*
Y427500D01*
X285200Y430500D02*X285950Y429750D01*
X200000Y448500D02*X203000D01*
X201500D02*Y442500D01*
G54D71*X204800Y447000D02*Y446850D01*
G54D70*Y444750D02*Y442500D01*
X207050Y448500D02*Y443250D01*
X207800Y442500D01*
X206300Y446250D02*X207800D01*
X209300Y448500D02*Y443250D01*
X210050Y442500D01*
X212300D02*X214550D01*
X211550Y443250D02*X212300Y442500D01*
X211550Y444750D02*Y443250D01*
Y444750D02*X212300Y445500D01*
X213800D01*
X214550Y444750D01*
X211550Y444000D02*X214550D01*
Y444750D02*Y444000D01*
X216350Y446250D02*X217100D01*
X216350Y444750D02*X217100D01*
X221600Y448500D02*Y442500D01*
Y448500D02*X223850Y445500D01*
X226100Y448500D01*
Y442500D01*
X227900Y444750D02*Y443250D01*
Y444750D02*X228650Y445500D01*
X230150D01*
X230900Y444750D01*
Y443250D01*
X230150Y442500D02*X230900Y443250D01*
X228650Y442500D02*X230150D01*
X227900Y443250D02*X228650Y442500D01*
X233450Y448500D02*Y443250D01*
X234200Y442500D01*
X232700Y446250D02*X234200D01*
X235700Y444750D02*Y443250D01*
Y444750D02*X236450Y445500D01*
X237950D01*
X238700Y444750D01*
Y443250D01*
X237950Y442500D02*X238700Y443250D01*
X236450Y442500D02*X237950D01*
X235700Y443250D02*X236450Y442500D01*
X241250Y444750D02*Y442500D01*
Y444750D02*X242000Y445500D01*
X243500D01*
X240500D02*X241250Y444750D01*
X249050Y442500D02*X251000D01*
X248000Y443550D02*X249050Y442500D01*
X248000Y447450D02*Y443550D01*
Y447450D02*X249050Y448500D01*
X251000D01*
X252800Y444750D02*Y443250D01*
Y444750D02*X253550Y445500D01*
X255050D01*
X255800Y444750D01*
Y443250D01*
X255050Y442500D02*X255800Y443250D01*
X253550Y442500D02*X255050D01*
X252800Y443250D02*X253550Y442500D01*
X258350Y444750D02*Y442500D01*
Y444750D02*X259100Y445500D01*
X259850D01*
X260600Y444750D01*
Y442500D01*
X257600Y445500D02*X258350Y444750D01*
X263150Y448500D02*Y443250D01*
X263900Y442500D01*
X262400Y446250D02*X263900D01*
X266150Y444750D02*Y442500D01*
Y444750D02*X266900Y445500D01*
X268400D01*
X265400D02*X266150Y444750D01*
X270200D02*Y443250D01*
Y444750D02*X270950Y445500D01*
X272450D01*
X273200Y444750D01*
Y443250D01*
X272450Y442500D02*X273200Y443250D01*
X270950Y442500D02*X272450D01*
X270200Y443250D02*X270950Y442500D01*
X275000Y448500D02*Y443250D01*
X275750Y442500D01*
X277250Y448500D02*Y443250D01*
X278000Y442500D01*
X280250D02*X282500D01*
X279500Y443250D02*X280250Y442500D01*
X279500Y444750D02*Y443250D01*
Y444750D02*X280250Y445500D01*
X281750D01*
X282500Y444750D01*
X279500Y444000D02*X282500D01*
Y444750D02*Y444000D01*
X285050Y444750D02*Y442500D01*
Y444750D02*X285800Y445500D01*
X287300D01*
X284300D02*X285050Y444750D01*
X291800Y445500D02*X294800D01*
X299300Y448500D02*Y442500D01*
Y448500D02*X302300D01*
X299300Y445800D02*X301550D01*
X306350Y445500D02*X307100Y444750D01*
X304850Y445500D02*X306350D01*
X304100Y444750D02*X304850Y445500D01*
X304100Y444750D02*Y443250D01*
X304850Y442500D01*
X307100Y445500D02*Y443250D01*
X307850Y442500D01*
X304850D02*X306350D01*
X307100Y443250D01*
X309650Y448500D02*Y442500D01*
Y443250D02*X310400Y442500D01*
X311900D01*
X312650Y443250D01*
Y444750D02*Y443250D01*
X311900Y445500D02*X312650Y444750D01*
X310400Y445500D02*X311900D01*
X309650Y444750D02*X310400Y445500D01*
X315200Y444750D02*Y442500D01*
Y444750D02*X315950Y445500D01*
X317450D01*
X314450D02*X315200Y444750D01*
G54D71*X319250Y447000D02*Y446850D01*
G54D70*Y444750D02*Y442500D01*
X321500Y445500D02*X323750D01*
X320750Y444750D02*X321500Y445500D01*
X320750Y444750D02*Y443250D01*
X321500Y442500D01*
X323750D01*
X327800Y445500D02*X328550Y444750D01*
X326300Y445500D02*X327800D01*
X325550Y444750D02*X326300Y445500D01*
X325550Y444750D02*Y443250D01*
X326300Y442500D01*
X328550Y445500D02*Y443250D01*
X329300Y442500D01*
X326300D02*X327800D01*
X328550Y443250D01*
X331850Y448500D02*Y443250D01*
X332600Y442500D01*
X331100Y446250D02*X332600D01*
G54D71*X334100Y447000D02*Y446850D01*
G54D70*Y444750D02*Y442500D01*
X335600Y444750D02*Y443250D01*
Y444750D02*X336350Y445500D01*
X337850D01*
X338600Y444750D01*
Y443250D01*
X337850Y442500D02*X338600Y443250D01*
X336350Y442500D02*X337850D01*
X335600Y443250D02*X336350Y442500D01*
X341150Y444750D02*Y442500D01*
Y444750D02*X341900Y445500D01*
X342650D01*
X343400Y444750D01*
Y442500D01*
X340400Y445500D02*X341150Y444750D01*
X348650Y448500D02*Y442500D01*
X350600Y448500D02*X351650Y447450D01*
Y443550D01*
X350600Y442500D02*X351650Y443550D01*
X347900Y442500D02*X350600D01*
X347900Y448500D02*X350600D01*
X354200Y444750D02*Y442500D01*
Y444750D02*X354950Y445500D01*
X356450D01*
X353450D02*X354200Y444750D01*
X360500Y445500D02*X361250Y444750D01*
X359000Y445500D02*X360500D01*
X358250Y444750D02*X359000Y445500D01*
X358250Y444750D02*Y443250D01*
X359000Y442500D01*
X361250Y445500D02*Y443250D01*
X362000Y442500D01*
X359000D02*X360500D01*
X361250Y443250D01*
X363800Y445500D02*Y443250D01*
X364550Y442500D01*
X365300D01*
X366050Y443250D01*
Y445500D02*Y443250D01*
X366800Y442500D01*
X367550D01*
X368300Y443250D01*
Y445500D02*Y443250D01*
G54D71*X370100Y447000D02*Y446850D01*
G54D70*Y444750D02*Y442500D01*
X372350Y444750D02*Y442500D01*
Y444750D02*X373100Y445500D01*
X373850D01*
X374600Y444750D01*
Y442500D01*
X371600Y445500D02*X372350Y444750D01*
X378650Y445500D02*X379400Y444750D01*
X377150Y445500D02*X378650D01*
X376400Y444750D02*X377150Y445500D01*
X376400Y444750D02*Y443250D01*
X377150Y442500D01*
X378650D01*
X379400Y443250D01*
X376400Y441000D02*X377150Y440250D01*
X378650D01*
X379400Y441000D01*
Y445500D02*Y441000D01*
M02*
