G04 start of page 6 for group -4063 idx -4063 *
G04 Title: Motor Controller, componentmask *
G04 Creator: pcb 4.2.2 *
G04 CreationDate: Sun Nov 29 09:20:44 2020 UTC *
G04 For: kevin *
G04 Format: Gerber/RS-274X *
G04 PCB-Dimensions (mil): 3300.00 3900.00 *
G04 PCB-Coordinate-Origin: lower left *
%MOIN*%
%FSLAX25Y25*%
%LNTOPMASK*%
%ADD56C,0.0960*%
%ADD55C,0.1590*%
%ADD54C,0.0610*%
%ADD53C,0.0750*%
%ADD52C,0.1560*%
%ADD51C,0.0660*%
%ADD50C,0.0001*%
G54D50*G36*
X81700Y171300D02*Y164700D01*
X88300D01*
Y171300D01*
X81700D01*
G37*
G54D51*X95000Y168000D03*
X105000D03*
G54D50*G36*
X136700Y171300D02*Y164700D01*
X143300D01*
Y171300D01*
X136700D01*
G37*
G36*
X91950Y153050D02*Y146950D01*
X98050D01*
Y153050D01*
X91950D01*
G37*
G54D52*X95000Y235000D03*
G54D50*G36*
X81950Y263050D02*Y256950D01*
X88050D01*
Y263050D01*
X81950D01*
G37*
G54D53*X25000Y230000D03*
G54D50*G36*
X98950Y263050D02*Y256950D01*
X105050D01*
Y263050D01*
X98950D01*
G37*
G54D53*X35000Y270000D03*
Y260000D03*
Y250000D03*
Y240000D03*
Y230000D03*
Y220000D03*
Y210000D03*
Y200000D03*
Y190000D03*
Y180000D03*
Y170000D03*
G54D54*X95000Y110000D03*
G54D55*X42500Y70000D03*
G54D53*X35000Y90000D03*
Y100000D03*
X25000Y90000D03*
Y100000D03*
G54D50*G36*
X67700Y42300D02*Y35700D01*
X74300D01*
Y42300D01*
X67700D01*
G37*
G54D51*X71000Y29000D03*
X61000Y39000D03*
Y29000D03*
X51000Y39000D03*
Y29000D03*
X41000Y39000D03*
X31000D03*
Y29000D03*
X41000D03*
G54D53*X35000Y160000D03*
Y150000D03*
X25000D03*
X35000Y140000D03*
Y130000D03*
Y120000D03*
Y110000D03*
X25000D03*
Y120000D03*
Y130000D03*
Y140000D03*
Y170000D03*
Y160000D03*
Y180000D03*
Y190000D03*
Y200000D03*
Y210000D03*
Y220000D03*
G54D54*X85000Y300000D03*
X102000D03*
G54D53*X25000Y310000D03*
G54D50*G36*
X31250Y313750D02*Y306250D01*
X38750D01*
Y313750D01*
X31250D01*
G37*
G54D53*X25000Y240000D03*
Y250000D03*
Y260000D03*
Y270000D03*
G54D55*X30000Y330000D03*
G54D53*X35000Y300000D03*
Y290000D03*
Y280000D03*
X25000Y290000D03*
Y280000D03*
Y300000D03*
G54D52*X150000Y235000D03*
G54D50*G36*
X136950Y263050D02*Y256950D01*
X143050D01*
Y263050D01*
X136950D01*
G37*
G54D54*X140000Y300000D03*
G54D53*X215000Y230000D03*
Y220000D03*
Y210000D03*
Y200000D03*
Y190000D03*
Y180000D03*
G54D50*G36*
X153950Y263050D02*Y256950D01*
X160050D01*
Y263050D01*
X153950D01*
G37*
G54D54*X157000Y300000D03*
G54D55*X220000Y330000D03*
G54D53*X215000Y310000D03*
Y300000D03*
G54D50*G36*
X221250Y313750D02*Y306250D01*
X228750D01*
Y313750D01*
X221250D01*
G37*
G54D53*X225000Y300000D03*
X215000Y290000D03*
Y280000D03*
X225000Y290000D03*
Y280000D03*
X215000Y270000D03*
Y260000D03*
Y250000D03*
Y240000D03*
X225000Y270000D03*
Y260000D03*
Y250000D03*
Y240000D03*
Y230000D03*
Y220000D03*
Y210000D03*
Y200000D03*
G54D50*G36*
X266950Y213050D02*Y206950D01*
X273050D01*
Y213050D01*
X266950D01*
G37*
G54D54*X310000Y210000D03*
G54D53*X225000Y190000D03*
Y180000D03*
G54D50*G36*
X287700Y243300D02*Y236700D01*
X294300D01*
Y243300D01*
X287700D01*
G37*
G54D51*X291000Y250000D03*
X243000D03*
Y240000D03*
G54D50*G36*
X266700Y243300D02*Y236700D01*
X273300D01*
Y243300D01*
X266700D01*
G37*
G54D51*X270000Y250000D03*
X243000Y230000D03*
G54D50*G36*
X266950Y222750D02*Y216650D01*
X273050D01*
Y222750D01*
X266950D01*
G37*
G54D54*X310000Y219700D03*
G54D51*X243000Y220000D03*
Y210000D03*
Y200000D03*
Y190000D03*
Y180000D03*
X150000Y168000D03*
G54D50*G36*
X146950Y153050D02*Y146950D01*
X153050D01*
Y153050D01*
X146950D01*
G37*
G54D54*X150000Y110000D03*
G54D56*Y35622D03*
Y12000D03*
G54D51*X160000Y168000D03*
G54D55*X207500Y70000D03*
G54D56*X168504Y23811D03*
G54D53*X215000Y90000D03*
X225000D03*
X215000Y170000D03*
Y160000D03*
X225000Y170000D03*
Y160000D03*
X215000Y140000D03*
Y130000D03*
Y120000D03*
Y110000D03*
Y100000D03*
X225000D03*
X215000Y150000D03*
X225000D03*
Y140000D03*
Y130000D03*
Y120000D03*
Y110000D03*
G54D51*X279000Y24000D03*
X309000D03*
X299000D03*
X289000D03*
X269000D03*
X259000D03*
X249000D03*
G54D50*G36*
X245700Y53300D02*Y46700D01*
X252300D01*
Y53300D01*
X245700D01*
G37*
G36*
X250700Y76300D02*Y69700D01*
X257300D01*
Y76300D01*
X250700D01*
G37*
G54D51*X254000Y63000D03*
X239000Y24000D03*
Y50000D03*
G54D50*G36*
X229700Y66300D02*Y59700D01*
X236300D01*
Y66300D01*
X229700D01*
G37*
G54D51*X233000Y73000D03*
G54D50*G36*
X305700Y53300D02*Y46700D01*
X312300D01*
Y53300D01*
X305700D01*
G37*
G36*
X310700Y76300D02*Y69700D01*
X317300D01*
Y76300D01*
X310700D01*
G37*
G54D51*X314000Y63000D03*
X299000Y50000D03*
G54D50*G36*
X289700Y66300D02*Y59700D01*
X296300D01*
Y66300D01*
X289700D01*
G37*
G54D51*X293000Y73000D03*
M02*
