G04 start of page 3 for group 1 idx 1 *
G04 Title: Motor Controller, ground *
G04 Creator: pcb 4.2.2 *
G04 CreationDate: Mon Feb 22 05:04:53 2021 UTC *
G04 For: kevin *
G04 Format: Gerber/RS-274X *
G04 PCB-Dimensions (mil): 4750.00 5800.00 *
G04 PCB-Coordinate-Origin: lower left *
%MOIN*%
%FSLAX25Y25*%
%LNBOTTOM*%
%ADD43C,0.1200*%
%ADD42C,0.0300*%
%ADD41C,0.0410*%
%ADD40C,0.1250*%
%ADD39C,0.0350*%
%ADD38C,0.1150*%
%ADD37C,0.1000*%
%ADD36C,0.0750*%
%ADD35C,0.1460*%
%ADD34C,0.0900*%
%ADD33C,0.0550*%
%ADD32C,0.0600*%
%ADD31C,0.0690*%
%ADD30C,0.1530*%
%ADD29C,0.0001*%
%ADD28C,0.0400*%
G54D28*X300000Y380000D02*X225000D01*
X245000Y490000D02*Y470000D01*
X116000Y247000D02*Y355000D01*
G54D29*G36*
X214783Y262339D02*X214787Y262328D01*
X214964Y261676D01*
X215083Y261011D01*
X215143Y260338D01*
Y259662D01*
X215083Y258989D01*
X214964Y258324D01*
X214787Y257672D01*
X214783Y257661D01*
Y262339D01*
G37*
G36*
X403993Y570000D02*X465000D01*
Y10000D01*
X403993D01*
Y395737D01*
X404000Y395737D01*
X404667Y395789D01*
X405317Y395946D01*
X405935Y396202D01*
X406506Y396551D01*
X407014Y396986D01*
X407449Y397494D01*
X407798Y398065D01*
X408054Y398683D01*
X408211Y399333D01*
X408250Y400000D01*
X408211Y400667D01*
X408054Y401317D01*
X407798Y401935D01*
X407449Y402506D01*
X407014Y403014D01*
X406506Y403449D01*
X405935Y403798D01*
X405317Y404054D01*
X404667Y404211D01*
X404000Y404263D01*
X403993Y404263D01*
Y405737D01*
X404000Y405737D01*
X404667Y405789D01*
X405317Y405946D01*
X405935Y406202D01*
X406506Y406551D01*
X407014Y406986D01*
X407449Y407494D01*
X407798Y408065D01*
X408054Y408683D01*
X408211Y409333D01*
X408250Y410000D01*
X408211Y410667D01*
X408054Y411317D01*
X407798Y411935D01*
X407449Y412506D01*
X407014Y413014D01*
X406506Y413449D01*
X405935Y413798D01*
X405317Y414054D01*
X404667Y414211D01*
X404000Y414263D01*
X403993Y414263D01*
Y570000D01*
G37*
G36*
X393495D02*X403993D01*
Y414263D01*
X403333Y414211D01*
X402683Y414054D01*
X402065Y413798D01*
X401494Y413449D01*
X400986Y413014D01*
X400551Y412506D01*
X400202Y411935D01*
X399946Y411317D01*
X399789Y410667D01*
X399737Y410000D01*
X399789Y409333D01*
X399946Y408683D01*
X400202Y408065D01*
X400551Y407494D01*
X400986Y406986D01*
X401494Y406551D01*
X402065Y406202D01*
X402683Y405946D01*
X403333Y405789D01*
X403993Y405737D01*
Y404263D01*
X403333Y404211D01*
X402683Y404054D01*
X402065Y403798D01*
X401494Y403449D01*
X400986Y403014D01*
X400551Y402506D01*
X400202Y401935D01*
X399946Y401317D01*
X399789Y400667D01*
X399737Y400000D01*
X399789Y399333D01*
X399946Y398683D01*
X400202Y398065D01*
X400551Y397494D01*
X400986Y396986D01*
X401494Y396551D01*
X402065Y396202D01*
X402683Y395946D01*
X403333Y395789D01*
X403993Y395737D01*
Y10000D01*
X393495D01*
Y195171D01*
X393504Y195170D01*
X394445Y195245D01*
X395364Y195465D01*
X396236Y195826D01*
X397042Y196320D01*
X397760Y196933D01*
X398373Y197651D01*
X398866Y198457D01*
X399228Y199329D01*
X399448Y200247D01*
X399504Y201189D01*
X399448Y202130D01*
X399228Y203049D01*
X398866Y203921D01*
X398373Y204727D01*
X397760Y205445D01*
X397042Y206058D01*
X396236Y206552D01*
X395364Y206913D01*
X394445Y207133D01*
X393504Y207207D01*
X393495Y207207D01*
Y570000D01*
G37*
G36*
X374991D02*X393495D01*
Y207207D01*
X392562Y207133D01*
X391644Y206913D01*
X390772Y206552D01*
X389966Y206058D01*
X389248Y205445D01*
X388635Y204727D01*
X388141Y203921D01*
X387780Y203049D01*
X387560Y202130D01*
X387485Y201189D01*
X387560Y200247D01*
X387780Y199329D01*
X388141Y198457D01*
X388635Y197651D01*
X389248Y196933D01*
X389966Y196320D01*
X390772Y195826D01*
X391644Y195465D01*
X392562Y195245D01*
X393495Y195171D01*
Y10000D01*
X374991D01*
Y183360D01*
X375000Y183359D01*
X375942Y183434D01*
X376860Y183654D01*
X377732Y184015D01*
X378538Y184509D01*
X379256Y185122D01*
X379869Y185840D01*
X380363Y186646D01*
X380724Y187518D01*
X380944Y188436D01*
X381000Y189378D01*
X380944Y190319D01*
X380724Y191238D01*
X380363Y192110D01*
X379869Y192916D01*
X379256Y193634D01*
X378538Y194247D01*
X377732Y194740D01*
X376860Y195102D01*
X375942Y195322D01*
X375000Y195396D01*
X374991Y195396D01*
Y206982D01*
X375000Y206981D01*
X375942Y207056D01*
X376860Y207276D01*
X377732Y207637D01*
X378538Y208131D01*
X379256Y208744D01*
X379869Y209462D01*
X380363Y210268D01*
X380724Y211140D01*
X380944Y212058D01*
X381000Y213000D01*
X380944Y213942D01*
X380724Y214860D01*
X380363Y215732D01*
X379869Y216538D01*
X379256Y217256D01*
X378538Y217869D01*
X377732Y218363D01*
X376860Y218724D01*
X375942Y218944D01*
X375000Y219019D01*
X374991Y219018D01*
Y570000D01*
G37*
G36*
X364000D02*X374991D01*
Y219018D01*
X374058Y218944D01*
X373140Y218724D01*
X372268Y218363D01*
X371462Y217869D01*
X370744Y217256D01*
X370131Y216538D01*
X369637Y215732D01*
X369276Y214860D01*
X369056Y213942D01*
X368981Y213000D01*
X369056Y212058D01*
X369276Y211140D01*
X369637Y210268D01*
X370131Y209462D01*
X370744Y208744D01*
X371462Y208131D01*
X372268Y207637D01*
X373140Y207276D01*
X374058Y207056D01*
X374991Y206982D01*
Y195396D01*
X374058Y195322D01*
X373140Y195102D01*
X372268Y194740D01*
X371462Y194247D01*
X370744Y193634D01*
X370131Y192916D01*
X369637Y192110D01*
X369276Y191238D01*
X369056Y190319D01*
X368981Y189378D01*
X369056Y188436D01*
X369276Y187518D01*
X369637Y186646D01*
X370131Y185840D01*
X370744Y185122D01*
X371462Y184509D01*
X372268Y184015D01*
X373140Y183654D01*
X374058Y183434D01*
X374991Y183360D01*
Y10000D01*
X364000D01*
Y395757D01*
X366985Y395764D01*
X367215Y395819D01*
X367433Y395909D01*
X367634Y396033D01*
X367814Y396186D01*
X367967Y396366D01*
X368091Y396567D01*
X368181Y396785D01*
X368236Y397015D01*
X368250Y397250D01*
X368236Y402985D01*
X368181Y403215D01*
X368091Y403433D01*
X367967Y403634D01*
X367814Y403814D01*
X367634Y403967D01*
X367433Y404091D01*
X367215Y404181D01*
X366985Y404236D01*
X366750Y404250D01*
X364000Y404243D01*
Y405757D01*
X366985Y405764D01*
X367215Y405819D01*
X367433Y405909D01*
X367634Y406033D01*
X367814Y406186D01*
X367967Y406366D01*
X368091Y406567D01*
X368181Y406785D01*
X368236Y407015D01*
X368250Y407250D01*
X368236Y412985D01*
X368181Y413215D01*
X368091Y413433D01*
X367967Y413634D01*
X367814Y413814D01*
X367634Y413967D01*
X367433Y414091D01*
X367215Y414181D01*
X366985Y414236D01*
X366750Y414250D01*
X364000Y414243D01*
Y570000D01*
G37*
G36*
X353284D02*X364000D01*
Y414243D01*
X361015Y414236D01*
X360785Y414181D01*
X360567Y414091D01*
X360366Y413967D01*
X360186Y413814D01*
X360033Y413634D01*
X359909Y413433D01*
X359819Y413215D01*
X359764Y412985D01*
X359750Y412750D01*
X359764Y407015D01*
X359819Y406785D01*
X359909Y406567D01*
X360033Y406366D01*
X360186Y406186D01*
X360366Y406033D01*
X360567Y405909D01*
X360785Y405819D01*
X361015Y405764D01*
X361250Y405750D01*
X364000Y405757D01*
Y404243D01*
X361015Y404236D01*
X360785Y404181D01*
X360567Y404091D01*
X360366Y403967D01*
X360186Y403814D01*
X360033Y403634D01*
X359909Y403433D01*
X359819Y403215D01*
X359764Y402985D01*
X359750Y402750D01*
X359764Y397015D01*
X359819Y396785D01*
X359909Y396567D01*
X360033Y396366D01*
X360186Y396186D01*
X360366Y396033D01*
X360567Y395909D01*
X360785Y395819D01*
X361015Y395764D01*
X361250Y395750D01*
X364000Y395757D01*
Y10000D01*
X353284D01*
Y186869D01*
X353287Y186870D01*
X353355Y186909D01*
X353416Y186958D01*
X353469Y187017D01*
X353511Y187083D01*
X353674Y187408D01*
X353803Y187748D01*
X353901Y188098D01*
X353967Y188456D01*
X354000Y188818D01*
Y189182D01*
X353967Y189544D01*
X353901Y189902D01*
X353803Y190252D01*
X353674Y190592D01*
X353515Y190919D01*
X353472Y190985D01*
X353419Y191044D01*
X353357Y191094D01*
X353288Y191133D01*
X353284Y191135D01*
Y570000D01*
G37*
G36*
X350002D02*X353284D01*
Y191135D01*
X353214Y191161D01*
X353137Y191177D01*
X353058Y191181D01*
X352979Y191173D01*
X352903Y191152D01*
X352830Y191120D01*
X352764Y191077D01*
X352705Y191024D01*
X352656Y190962D01*
X352616Y190893D01*
X352588Y190819D01*
X352572Y190742D01*
X352568Y190663D01*
X352576Y190584D01*
X352597Y190507D01*
X352630Y190436D01*
X352753Y190193D01*
X352850Y189938D01*
X352923Y189676D01*
X352972Y189408D01*
X352997Y189136D01*
Y188864D01*
X352972Y188592D01*
X352923Y188324D01*
X352850Y188062D01*
X352753Y187807D01*
X352633Y187563D01*
X352600Y187491D01*
X352579Y187416D01*
X352571Y187337D01*
X352575Y187259D01*
X352591Y187182D01*
X352619Y187108D01*
X352658Y187040D01*
X352707Y186979D01*
X352766Y186926D01*
X352832Y186883D01*
X352904Y186851D01*
X352980Y186830D01*
X353058Y186822D01*
X353136Y186826D01*
X353213Y186842D01*
X353284Y186869D01*
Y10000D01*
X350002D01*
Y185000D01*
X350182D01*
X350544Y185033D01*
X350902Y185099D01*
X351252Y185197D01*
X351592Y185326D01*
X351919Y185485D01*
X351985Y185528D01*
X352044Y185581D01*
X352094Y185643D01*
X352133Y185712D01*
X352161Y185786D01*
X352177Y185863D01*
X352181Y185942D01*
X352173Y186021D01*
X352152Y186097D01*
X352120Y186170D01*
X352077Y186236D01*
X352024Y186295D01*
X351962Y186344D01*
X351893Y186384D01*
X351819Y186412D01*
X351742Y186428D01*
X351663Y186432D01*
X351584Y186424D01*
X351507Y186403D01*
X351436Y186370D01*
X351193Y186247D01*
X350938Y186150D01*
X350676Y186077D01*
X350408Y186028D01*
X350136Y186003D01*
X350002D01*
Y191997D01*
X350136D01*
X350408Y191972D01*
X350676Y191923D01*
X350938Y191850D01*
X351193Y191753D01*
X351437Y191633D01*
X351509Y191600D01*
X351584Y191579D01*
X351663Y191571D01*
X351741Y191575D01*
X351818Y191591D01*
X351892Y191619D01*
X351960Y191658D01*
X352021Y191707D01*
X352074Y191766D01*
X352117Y191832D01*
X352149Y191904D01*
X352170Y191980D01*
X352178Y192058D01*
X352174Y192136D01*
X352158Y192213D01*
X352130Y192287D01*
X352091Y192355D01*
X352042Y192416D01*
X351983Y192469D01*
X351917Y192511D01*
X351592Y192674D01*
X351252Y192803D01*
X350902Y192901D01*
X350544Y192967D01*
X350182Y193000D01*
X350002D01*
Y381875D01*
X350033Y381926D01*
X350439Y382908D01*
X350687Y383941D01*
X350750Y385000D01*
X350687Y386059D01*
X350439Y387092D01*
X350033Y388074D01*
X350002Y388125D01*
Y431875D01*
X350033Y431926D01*
X350439Y432908D01*
X350687Y433941D01*
X350750Y435000D01*
X350687Y436059D01*
X350439Y437092D01*
X350033Y438074D01*
X350002Y438125D01*
Y570000D01*
G37*
G36*
X346716Y378819D02*X347074Y378967D01*
X347980Y379522D01*
X348788Y380212D01*
X349478Y381020D01*
X350002Y381875D01*
Y193000D01*
X349818D01*
X349456Y192967D01*
X349098Y192901D01*
X348748Y192803D01*
X348408Y192674D01*
X348081Y192515D01*
X348015Y192472D01*
X347956Y192419D01*
X347906Y192357D01*
X347867Y192288D01*
X347839Y192214D01*
X347823Y192137D01*
X347819Y192058D01*
X347827Y191979D01*
X347848Y191903D01*
X347880Y191830D01*
X347923Y191764D01*
X347976Y191705D01*
X348038Y191656D01*
X348107Y191616D01*
X348181Y191588D01*
X348258Y191572D01*
X348337Y191568D01*
X348416Y191576D01*
X348493Y191597D01*
X348564Y191630D01*
X348807Y191753D01*
X349062Y191850D01*
X349324Y191923D01*
X349592Y191972D01*
X349864Y191997D01*
X350002D01*
Y186003D01*
X349864D01*
X349592Y186028D01*
X349324Y186077D01*
X349062Y186150D01*
X348807Y186247D01*
X348563Y186367D01*
X348491Y186400D01*
X348415Y186421D01*
X348337Y186429D01*
X348259Y186425D01*
X348182Y186409D01*
X348108Y186381D01*
X348040Y186342D01*
X347979Y186293D01*
X347926Y186234D01*
X347883Y186168D01*
X347851Y186096D01*
X347830Y186020D01*
X347822Y185942D01*
X347826Y185864D01*
X347842Y185787D01*
X347870Y185713D01*
X347909Y185645D01*
X347958Y185584D01*
X348017Y185531D01*
X348083Y185489D01*
X348408Y185326D01*
X348748Y185197D01*
X349098Y185099D01*
X349456Y185033D01*
X349818Y185000D01*
X350002D01*
Y10000D01*
X346716D01*
Y186865D01*
X346786Y186839D01*
X346863Y186823D01*
X346942Y186819D01*
X347021Y186827D01*
X347097Y186848D01*
X347170Y186880D01*
X347236Y186923D01*
X347295Y186976D01*
X347344Y187038D01*
X347384Y187107D01*
X347412Y187181D01*
X347428Y187258D01*
X347432Y187337D01*
X347424Y187416D01*
X347403Y187493D01*
X347370Y187564D01*
X347247Y187807D01*
X347150Y188062D01*
X347077Y188324D01*
X347028Y188592D01*
X347003Y188864D01*
Y189136D01*
X347028Y189408D01*
X347077Y189676D01*
X347150Y189938D01*
X347247Y190193D01*
X347367Y190437D01*
X347400Y190509D01*
X347421Y190585D01*
X347429Y190663D01*
X347425Y190741D01*
X347409Y190818D01*
X347381Y190892D01*
X347342Y190960D01*
X347293Y191021D01*
X347234Y191074D01*
X347168Y191117D01*
X347096Y191149D01*
X347020Y191170D01*
X346942Y191178D01*
X346864Y191174D01*
X346787Y191158D01*
X346716Y191131D01*
Y378819D01*
G37*
G36*
Y428819D02*X347074Y428967D01*
X347980Y429522D01*
X348788Y430212D01*
X349478Y431020D01*
X350002Y431875D01*
Y388125D01*
X349478Y388980D01*
X348788Y389788D01*
X347980Y390478D01*
X347074Y391033D01*
X346716Y391181D01*
Y428819D01*
G37*
G36*
Y570000D02*X350002D01*
Y438125D01*
X349478Y438980D01*
X348788Y439788D01*
X347980Y440478D01*
X347074Y441033D01*
X346716Y441181D01*
Y570000D01*
G37*
G36*
X299994D02*X346716D01*
Y441181D01*
X346092Y441439D01*
X345059Y441687D01*
X344000Y441771D01*
X342941Y441687D01*
X341908Y441439D01*
X340926Y441033D01*
X340020Y440478D01*
X339212Y439788D01*
X338522Y438980D01*
X337967Y438074D01*
X337561Y437092D01*
X337313Y436059D01*
X337229Y435000D01*
X337313Y433941D01*
X337561Y432908D01*
X337967Y431926D01*
X338522Y431020D01*
X339212Y430212D01*
X340020Y429522D01*
X340926Y428967D01*
X341908Y428561D01*
X342941Y428313D01*
X344000Y428229D01*
X345059Y428313D01*
X346092Y428561D01*
X346716Y428819D01*
Y391181D01*
X346092Y391439D01*
X345059Y391687D01*
X344000Y391771D01*
X342941Y391687D01*
X341908Y391439D01*
X340926Y391033D01*
X340020Y390478D01*
X339212Y389788D01*
X338522Y388980D01*
X337967Y388074D01*
X337561Y387092D01*
X337313Y386059D01*
X337229Y385000D01*
X337313Y383941D01*
X337561Y382908D01*
X337967Y381926D01*
X338522Y381020D01*
X339212Y380212D01*
X340020Y379522D01*
X340926Y378967D01*
X341908Y378561D01*
X342941Y378313D01*
X344000Y378229D01*
X345059Y378313D01*
X346092Y378561D01*
X346716Y378819D01*
Y191131D01*
X346713Y191130D01*
X346645Y191091D01*
X346584Y191042D01*
X346531Y190983D01*
X346489Y190917D01*
X346326Y190592D01*
X346197Y190252D01*
X346099Y189902D01*
X346033Y189544D01*
X346000Y189182D01*
Y188818D01*
X346033Y188456D01*
X346099Y188098D01*
X346197Y187748D01*
X346326Y187408D01*
X346485Y187081D01*
X346528Y187015D01*
X346581Y186956D01*
X346643Y186906D01*
X346712Y186867D01*
X346716Y186865D01*
Y10000D01*
X299994D01*
Y365988D01*
X300000Y365988D01*
X300628Y366037D01*
X301240Y366184D01*
X301822Y366425D01*
X302358Y366754D01*
X302837Y367163D01*
X303246Y367642D01*
X303575Y368178D01*
X303816Y368760D01*
X303963Y369372D01*
X304000Y370000D01*
X303963Y370628D01*
X303816Y371240D01*
X303575Y371822D01*
X303246Y372358D01*
X302837Y372837D01*
X302358Y373246D01*
X301822Y373575D01*
X301240Y373816D01*
X300628Y373963D01*
X300000Y374012D01*
X299994Y374012D01*
Y375988D01*
X300000Y375988D01*
X300628Y376037D01*
X301240Y376184D01*
X301822Y376425D01*
X302358Y376754D01*
X302837Y377163D01*
X303246Y377642D01*
X303575Y378178D01*
X303816Y378760D01*
X303963Y379372D01*
X304000Y380000D01*
X303963Y380628D01*
X303816Y381240D01*
X303575Y381822D01*
X303246Y382358D01*
X302837Y382837D01*
X302358Y383246D01*
X301822Y383575D01*
X301240Y383816D01*
X300628Y383963D01*
X300000Y384012D01*
X299994Y384012D01*
Y385988D01*
X300000Y385988D01*
X300628Y386037D01*
X301240Y386184D01*
X301822Y386425D01*
X302358Y386754D01*
X302837Y387163D01*
X303246Y387642D01*
X303575Y388178D01*
X303816Y388760D01*
X303963Y389372D01*
X304000Y390000D01*
X303963Y390628D01*
X303816Y391240D01*
X303575Y391822D01*
X303246Y392358D01*
X302837Y392837D01*
X302358Y393246D01*
X301822Y393575D01*
X301240Y393816D01*
X300628Y393963D01*
X300000Y394012D01*
X299994Y394012D01*
Y395988D01*
X300000Y395988D01*
X300628Y396037D01*
X301240Y396184D01*
X301822Y396425D01*
X302358Y396754D01*
X302837Y397163D01*
X303246Y397642D01*
X303575Y398178D01*
X303816Y398760D01*
X303963Y399372D01*
X304000Y400000D01*
X303963Y400628D01*
X303816Y401240D01*
X303575Y401822D01*
X303246Y402358D01*
X302837Y402837D01*
X302358Y403246D01*
X301822Y403575D01*
X301240Y403816D01*
X300628Y403963D01*
X300000Y404012D01*
X299994Y404012D01*
Y405988D01*
X300000Y405988D01*
X300628Y406037D01*
X301240Y406184D01*
X301822Y406425D01*
X302358Y406754D01*
X302837Y407163D01*
X303246Y407642D01*
X303575Y408178D01*
X303816Y408760D01*
X303963Y409372D01*
X304000Y410000D01*
X303963Y410628D01*
X303816Y411240D01*
X303575Y411822D01*
X303246Y412358D01*
X302837Y412837D01*
X302358Y413246D01*
X301822Y413575D01*
X301240Y413816D01*
X300628Y413963D01*
X300000Y414012D01*
X299994Y414012D01*
Y415988D01*
X300000Y415988D01*
X300628Y416037D01*
X301240Y416184D01*
X301822Y416425D01*
X302358Y416754D01*
X302837Y417163D01*
X303246Y417642D01*
X303575Y418178D01*
X303816Y418760D01*
X303963Y419372D01*
X304000Y420000D01*
X303963Y420628D01*
X303816Y421240D01*
X303575Y421822D01*
X303246Y422358D01*
X302837Y422837D01*
X302358Y423246D01*
X301822Y423575D01*
X301240Y423816D01*
X300628Y423963D01*
X300000Y424012D01*
X299994Y424012D01*
Y425988D01*
X300000Y425988D01*
X300628Y426037D01*
X301240Y426184D01*
X301822Y426425D01*
X302358Y426754D01*
X302837Y427163D01*
X303246Y427642D01*
X303575Y428178D01*
X303816Y428760D01*
X303963Y429372D01*
X304000Y430000D01*
X303963Y430628D01*
X303816Y431240D01*
X303575Y431822D01*
X303246Y432358D01*
X302837Y432837D01*
X302358Y433246D01*
X301822Y433575D01*
X301240Y433816D01*
X300628Y433963D01*
X300000Y434012D01*
X299994Y434012D01*
Y435988D01*
X300000Y435988D01*
X300628Y436037D01*
X301240Y436184D01*
X301822Y436425D01*
X302358Y436754D01*
X302837Y437163D01*
X303246Y437642D01*
X303575Y438178D01*
X303816Y438760D01*
X303963Y439372D01*
X304000Y440000D01*
X303963Y440628D01*
X303816Y441240D01*
X303575Y441822D01*
X303246Y442358D01*
X302837Y442837D01*
X302358Y443246D01*
X301822Y443575D01*
X301240Y443816D01*
X300628Y443963D01*
X300000Y444012D01*
X299994Y444012D01*
Y570000D01*
G37*
G36*
Y10000D02*X248284D01*
Y377000D01*
X297354D01*
X297642Y376754D01*
X298178Y376425D01*
X298760Y376184D01*
X299372Y376037D01*
X299994Y375988D01*
Y374012D01*
X299372Y373963D01*
X298760Y373816D01*
X298178Y373575D01*
X297642Y373246D01*
X297163Y372837D01*
X296754Y372358D01*
X296425Y371822D01*
X296184Y371240D01*
X296037Y370628D01*
X295988Y370000D01*
X296037Y369372D01*
X296184Y368760D01*
X296425Y368178D01*
X296754Y367642D01*
X297163Y367163D01*
X297642Y366754D01*
X298178Y366425D01*
X298760Y366184D01*
X299372Y366037D01*
X299994Y365988D01*
Y10000D01*
G37*
G36*
X279000Y570000D02*X299994D01*
Y444012D01*
X299372Y443963D01*
X298760Y443816D01*
X298178Y443575D01*
X297642Y443246D01*
X297163Y442837D01*
X296754Y442358D01*
X296425Y441822D01*
X296184Y441240D01*
X296037Y440628D01*
X295988Y440000D01*
X296037Y439372D01*
X296184Y438760D01*
X296425Y438178D01*
X296754Y437642D01*
X297163Y437163D01*
X297642Y436754D01*
X298178Y436425D01*
X298760Y436184D01*
X299372Y436037D01*
X299994Y435988D01*
Y434012D01*
X299372Y433963D01*
X298760Y433816D01*
X298178Y433575D01*
X297642Y433246D01*
X297163Y432837D01*
X296754Y432358D01*
X296425Y431822D01*
X296184Y431240D01*
X296037Y430628D01*
X295988Y430000D01*
X296037Y429372D01*
X296184Y428760D01*
X296425Y428178D01*
X296754Y427642D01*
X297163Y427163D01*
X297642Y426754D01*
X298178Y426425D01*
X298760Y426184D01*
X299372Y426037D01*
X299994Y425988D01*
Y424012D01*
X299372Y423963D01*
X298760Y423816D01*
X298178Y423575D01*
X297642Y423246D01*
X297163Y422837D01*
X296754Y422358D01*
X296425Y421822D01*
X296184Y421240D01*
X296037Y420628D01*
X295988Y420000D01*
X296037Y419372D01*
X296184Y418760D01*
X296425Y418178D01*
X296754Y417642D01*
X297163Y417163D01*
X297642Y416754D01*
X298178Y416425D01*
X298760Y416184D01*
X299372Y416037D01*
X299994Y415988D01*
Y414012D01*
X299372Y413963D01*
X298760Y413816D01*
X298178Y413575D01*
X297642Y413246D01*
X297163Y412837D01*
X296754Y412358D01*
X296425Y411822D01*
X296184Y411240D01*
X296037Y410628D01*
X295988Y410000D01*
X296037Y409372D01*
X296184Y408760D01*
X296425Y408178D01*
X296754Y407642D01*
X297163Y407163D01*
X297642Y406754D01*
X298178Y406425D01*
X298760Y406184D01*
X299372Y406037D01*
X299994Y405988D01*
Y404012D01*
X299372Y403963D01*
X298760Y403816D01*
X298178Y403575D01*
X297642Y403246D01*
X297163Y402837D01*
X296754Y402358D01*
X296425Y401822D01*
X296184Y401240D01*
X296037Y400628D01*
X295988Y400000D01*
X296037Y399372D01*
X296184Y398760D01*
X296425Y398178D01*
X296754Y397642D01*
X297163Y397163D01*
X297642Y396754D01*
X298178Y396425D01*
X298760Y396184D01*
X299372Y396037D01*
X299994Y395988D01*
Y394012D01*
X299372Y393963D01*
X298760Y393816D01*
X298178Y393575D01*
X297642Y393246D01*
X297163Y392837D01*
X296754Y392358D01*
X296425Y391822D01*
X296184Y391240D01*
X296037Y390628D01*
X295988Y390000D01*
X296037Y389372D01*
X296184Y388760D01*
X296425Y388178D01*
X296754Y387642D01*
X297163Y387163D01*
X297642Y386754D01*
X298178Y386425D01*
X298760Y386184D01*
X299372Y386037D01*
X299994Y385988D01*
Y384012D01*
X299372Y383963D01*
X298760Y383816D01*
X298178Y383575D01*
X297642Y383246D01*
X297354Y383000D01*
X279000D01*
Y425507D01*
X282235Y425514D01*
X282465Y425569D01*
X282683Y425659D01*
X282884Y425783D01*
X283064Y425936D01*
X283217Y426116D01*
X283341Y426317D01*
X283431Y426535D01*
X283486Y426765D01*
X283500Y427000D01*
X283486Y433235D01*
X283431Y433465D01*
X283341Y433683D01*
X283217Y433884D01*
X283064Y434064D01*
X282884Y434217D01*
X282683Y434341D01*
X282465Y434431D01*
X282235Y434486D01*
X282000Y434500D01*
X279000Y434493D01*
Y435486D01*
X279706Y435542D01*
X280395Y435707D01*
X281049Y435978D01*
X281653Y436348D01*
X282192Y436808D01*
X282652Y437347D01*
X283022Y437951D01*
X283293Y438605D01*
X283458Y439294D01*
X283500Y440000D01*
X283458Y440706D01*
X283293Y441395D01*
X283022Y442049D01*
X282652Y442653D01*
X282192Y443192D01*
X281653Y443652D01*
X281049Y444022D01*
X280395Y444293D01*
X279706Y444458D01*
X279000Y444514D01*
Y570000D01*
G37*
G36*
X257000D02*X279000D01*
Y444514D01*
X278294Y444458D01*
X277605Y444293D01*
X276951Y444022D01*
X276347Y443652D01*
X275808Y443192D01*
X275348Y442653D01*
X274978Y442049D01*
X274707Y441395D01*
X274542Y440706D01*
X274486Y440000D01*
X274542Y439294D01*
X274707Y438605D01*
X274978Y437951D01*
X275348Y437347D01*
X275808Y436808D01*
X276347Y436348D01*
X276951Y435978D01*
X277605Y435707D01*
X278294Y435542D01*
X279000Y435486D01*
Y434493D01*
X275765Y434486D01*
X275535Y434431D01*
X275317Y434341D01*
X275116Y434217D01*
X274936Y434064D01*
X274783Y433884D01*
X274659Y433683D01*
X274569Y433465D01*
X274514Y433235D01*
X274500Y433000D01*
X274514Y426765D01*
X274569Y426535D01*
X274659Y426317D01*
X274783Y426116D01*
X274936Y425936D01*
X275116Y425783D01*
X275317Y425659D01*
X275535Y425569D01*
X275765Y425514D01*
X276000Y425500D01*
X279000Y425507D01*
Y383000D01*
X257000D01*
Y425507D01*
X260235Y425514D01*
X260465Y425569D01*
X260683Y425659D01*
X260884Y425783D01*
X261064Y425936D01*
X261217Y426116D01*
X261341Y426317D01*
X261431Y426535D01*
X261486Y426765D01*
X261500Y427000D01*
X261486Y433235D01*
X261431Y433465D01*
X261341Y433683D01*
X261217Y433884D01*
X261064Y434064D01*
X260884Y434217D01*
X260683Y434341D01*
X260465Y434431D01*
X260235Y434486D01*
X260000Y434500D01*
X257000Y434493D01*
Y435486D01*
X257706Y435542D01*
X258395Y435707D01*
X259049Y435978D01*
X259653Y436348D01*
X260192Y436808D01*
X260652Y437347D01*
X261022Y437951D01*
X261293Y438605D01*
X261458Y439294D01*
X261500Y440000D01*
X261458Y440706D01*
X261293Y441395D01*
X261022Y442049D01*
X260652Y442653D01*
X260192Y443192D01*
X259653Y443652D01*
X259049Y444022D01*
X258395Y444293D01*
X257706Y444458D01*
X257000Y444514D01*
Y570000D01*
G37*
G36*
X248284D02*X257000D01*
Y444514D01*
X256294Y444458D01*
X255605Y444293D01*
X254951Y444022D01*
X254347Y443652D01*
X253808Y443192D01*
X253348Y442653D01*
X252978Y442049D01*
X252707Y441395D01*
X252542Y440706D01*
X252486Y440000D01*
X252542Y439294D01*
X252707Y438605D01*
X252978Y437951D01*
X253348Y437347D01*
X253808Y436808D01*
X254347Y436348D01*
X254951Y435978D01*
X255605Y435707D01*
X256294Y435542D01*
X257000Y435486D01*
Y434493D01*
X253765Y434486D01*
X253535Y434431D01*
X253317Y434341D01*
X253116Y434217D01*
X252936Y434064D01*
X252783Y433884D01*
X252659Y433683D01*
X252569Y433465D01*
X252514Y433235D01*
X252500Y433000D01*
X252514Y426765D01*
X252569Y426535D01*
X252659Y426317D01*
X252783Y426116D01*
X252936Y425936D01*
X253116Y425783D01*
X253317Y425659D01*
X253535Y425569D01*
X253765Y425514D01*
X254000Y425500D01*
X257000Y425507D01*
Y383000D01*
X248284D01*
Y467703D01*
X248575Y468178D01*
X248816Y468760D01*
X248963Y469372D01*
X249000Y470000D01*
X248963Y470628D01*
X248816Y471240D01*
X248575Y471822D01*
X248284Y472297D01*
Y487703D01*
X248575Y488178D01*
X248816Y488760D01*
X248963Y489372D01*
X249000Y490000D01*
X248963Y490628D01*
X248816Y491240D01*
X248575Y491822D01*
X248284Y492297D01*
Y497869D01*
X248287Y497870D01*
X248355Y497909D01*
X248416Y497958D01*
X248469Y498017D01*
X248511Y498083D01*
X248674Y498408D01*
X248803Y498748D01*
X248901Y499098D01*
X248967Y499456D01*
X249000Y499818D01*
Y500182D01*
X248967Y500544D01*
X248901Y500902D01*
X248803Y501252D01*
X248674Y501592D01*
X248515Y501919D01*
X248472Y501985D01*
X248419Y502044D01*
X248357Y502094D01*
X248288Y502133D01*
X248284Y502135D01*
Y570000D01*
G37*
G36*
Y472297D02*X248246Y472358D01*
X248000Y472646D01*
Y487354D01*
X248246Y487642D01*
X248284Y487703D01*
Y472297D01*
G37*
G36*
Y383000D02*X247284D01*
Y427869D01*
X247287Y427870D01*
X247355Y427909D01*
X247416Y427958D01*
X247469Y428017D01*
X247511Y428083D01*
X247674Y428408D01*
X247803Y428748D01*
X247901Y429098D01*
X247967Y429456D01*
X248000Y429818D01*
Y430182D01*
X247967Y430544D01*
X247901Y430902D01*
X247803Y431252D01*
X247674Y431592D01*
X247515Y431919D01*
X247472Y431985D01*
X247419Y432044D01*
X247357Y432094D01*
X247288Y432133D01*
X247284Y432135D01*
Y466708D01*
X247358Y466754D01*
X247837Y467163D01*
X248246Y467642D01*
X248284Y467703D01*
Y383000D01*
G37*
G36*
X247284D02*X244994D01*
Y426124D01*
X245252Y426197D01*
X245592Y426326D01*
X245919Y426485D01*
X245985Y426528D01*
X246044Y426581D01*
X246094Y426643D01*
X246133Y426712D01*
X246161Y426786D01*
X246177Y426863D01*
X246181Y426942D01*
X246173Y427021D01*
X246152Y427097D01*
X246120Y427170D01*
X246077Y427236D01*
X246024Y427295D01*
X245962Y427344D01*
X245893Y427384D01*
X245819Y427412D01*
X245742Y427428D01*
X245663Y427432D01*
X245584Y427424D01*
X245507Y427403D01*
X245436Y427370D01*
X245193Y427247D01*
X244994Y427172D01*
Y432828D01*
X245193Y432753D01*
X245437Y432633D01*
X245509Y432600D01*
X245584Y432579D01*
X245663Y432571D01*
X245741Y432575D01*
X245818Y432591D01*
X245892Y432619D01*
X245960Y432658D01*
X246021Y432707D01*
X246074Y432766D01*
X246117Y432832D01*
X246149Y432904D01*
X246170Y432980D01*
X246178Y433058D01*
X246174Y433136D01*
X246158Y433213D01*
X246130Y433287D01*
X246091Y433355D01*
X246042Y433416D01*
X245983Y433469D01*
X245917Y433511D01*
X245592Y433674D01*
X245252Y433803D01*
X244994Y433876D01*
Y465988D01*
X245000Y465988D01*
X245628Y466037D01*
X246240Y466184D01*
X246822Y466425D01*
X247284Y466708D01*
Y432135D01*
X247214Y432161D01*
X247137Y432177D01*
X247058Y432181D01*
X246979Y432173D01*
X246903Y432152D01*
X246830Y432120D01*
X246764Y432077D01*
X246705Y432024D01*
X246656Y431962D01*
X246616Y431893D01*
X246588Y431819D01*
X246572Y431742D01*
X246568Y431663D01*
X246576Y431584D01*
X246597Y431507D01*
X246630Y431436D01*
X246753Y431193D01*
X246850Y430938D01*
X246923Y430676D01*
X246972Y430408D01*
X246997Y430136D01*
Y429864D01*
X246972Y429592D01*
X246923Y429324D01*
X246850Y429062D01*
X246753Y428807D01*
X246633Y428563D01*
X246600Y428491D01*
X246579Y428416D01*
X246571Y428337D01*
X246575Y428259D01*
X246591Y428182D01*
X246619Y428108D01*
X246658Y428040D01*
X246707Y427979D01*
X246766Y427926D01*
X246832Y427883D01*
X246904Y427851D01*
X246980Y427830D01*
X247058Y427822D01*
X247136Y427826D01*
X247213Y427842D01*
X247284Y427869D01*
Y383000D01*
G37*
G36*
X248284Y10000D02*X244994D01*
Y377000D01*
X248284D01*
Y10000D01*
G37*
G36*
X244994Y570000D02*X248284D01*
Y502135D01*
X248214Y502161D01*
X248137Y502177D01*
X248058Y502181D01*
X247979Y502173D01*
X247903Y502152D01*
X247830Y502120D01*
X247764Y502077D01*
X247705Y502024D01*
X247656Y501962D01*
X247616Y501893D01*
X247588Y501819D01*
X247572Y501742D01*
X247568Y501663D01*
X247576Y501584D01*
X247597Y501507D01*
X247630Y501436D01*
X247753Y501193D01*
X247850Y500938D01*
X247923Y500676D01*
X247972Y500408D01*
X247997Y500136D01*
Y499864D01*
X247972Y499592D01*
X247923Y499324D01*
X247850Y499062D01*
X247753Y498807D01*
X247633Y498563D01*
X247600Y498491D01*
X247579Y498416D01*
X247571Y498337D01*
X247575Y498259D01*
X247591Y498182D01*
X247619Y498108D01*
X247658Y498040D01*
X247707Y497979D01*
X247766Y497926D01*
X247832Y497883D01*
X247904Y497851D01*
X247980Y497830D01*
X248058Y497822D01*
X248136Y497826D01*
X248213Y497842D01*
X248284Y497869D01*
Y492297D01*
X248246Y492358D01*
X247837Y492837D01*
X247358Y493246D01*
X246822Y493575D01*
X246240Y493816D01*
X245628Y493963D01*
X245000Y494012D01*
X244994Y494012D01*
Y496000D01*
X245182D01*
X245544Y496033D01*
X245902Y496099D01*
X246252Y496197D01*
X246592Y496326D01*
X246919Y496485D01*
X246985Y496528D01*
X247044Y496581D01*
X247094Y496643D01*
X247133Y496712D01*
X247161Y496786D01*
X247177Y496863D01*
X247181Y496942D01*
X247173Y497021D01*
X247152Y497097D01*
X247120Y497170D01*
X247077Y497236D01*
X247024Y497295D01*
X246962Y497344D01*
X246893Y497384D01*
X246819Y497412D01*
X246742Y497428D01*
X246663Y497432D01*
X246584Y497424D01*
X246507Y497403D01*
X246436Y497370D01*
X246193Y497247D01*
X245938Y497150D01*
X245676Y497077D01*
X245408Y497028D01*
X245136Y497003D01*
X244994D01*
Y502997D01*
X245136D01*
X245408Y502972D01*
X245676Y502923D01*
X245938Y502850D01*
X246193Y502753D01*
X246437Y502633D01*
X246509Y502600D01*
X246584Y502579D01*
X246663Y502571D01*
X246741Y502575D01*
X246818Y502591D01*
X246892Y502619D01*
X246960Y502658D01*
X247021Y502707D01*
X247074Y502766D01*
X247117Y502832D01*
X247149Y502904D01*
X247170Y502980D01*
X247178Y503058D01*
X247174Y503136D01*
X247158Y503213D01*
X247130Y503287D01*
X247091Y503355D01*
X247042Y503416D01*
X246983Y503469D01*
X246917Y503511D01*
X246592Y503674D01*
X246252Y503803D01*
X245902Y503901D01*
X245544Y503967D01*
X245182Y504000D01*
X244994D01*
Y570000D01*
G37*
G36*
Y10000D02*X224993D01*
Y275537D01*
X225000Y275536D01*
X225698Y275591D01*
X226379Y275755D01*
X227026Y276023D01*
X227624Y276389D01*
X228156Y276844D01*
X228611Y277376D01*
X228977Y277974D01*
X229245Y278621D01*
X229409Y279302D01*
X229450Y280000D01*
X229409Y280698D01*
X229245Y281379D01*
X228977Y282026D01*
X228611Y282624D01*
X228156Y283156D01*
X227624Y283611D01*
X227026Y283977D01*
X226379Y284245D01*
X225698Y284409D01*
X225000Y284464D01*
X224993Y284463D01*
Y285537D01*
X225000Y285536D01*
X225698Y285591D01*
X226379Y285755D01*
X227026Y286023D01*
X227624Y286389D01*
X228156Y286844D01*
X228611Y287376D01*
X228977Y287974D01*
X229245Y288621D01*
X229409Y289302D01*
X229450Y290000D01*
X229409Y290698D01*
X229245Y291379D01*
X228977Y292026D01*
X228611Y292624D01*
X228156Y293156D01*
X227624Y293611D01*
X227026Y293977D01*
X226379Y294245D01*
X225698Y294409D01*
X225000Y294464D01*
X224993Y294463D01*
Y295537D01*
X225000Y295536D01*
X225698Y295591D01*
X226379Y295755D01*
X227026Y296023D01*
X227624Y296389D01*
X228156Y296844D01*
X228611Y297376D01*
X228977Y297974D01*
X229245Y298621D01*
X229409Y299302D01*
X229450Y300000D01*
X229409Y300698D01*
X229245Y301379D01*
X228977Y302026D01*
X228611Y302624D01*
X228156Y303156D01*
X227624Y303611D01*
X227026Y303977D01*
X226379Y304245D01*
X225698Y304409D01*
X225000Y304464D01*
X224993Y304463D01*
Y305537D01*
X225000Y305536D01*
X225698Y305591D01*
X226379Y305755D01*
X227026Y306023D01*
X227624Y306389D01*
X228156Y306844D01*
X228611Y307376D01*
X228977Y307974D01*
X229245Y308621D01*
X229409Y309302D01*
X229450Y310000D01*
X229409Y310698D01*
X229245Y311379D01*
X228977Y312026D01*
X228611Y312624D01*
X228156Y313156D01*
X227624Y313611D01*
X227026Y313977D01*
X226379Y314245D01*
X225698Y314409D01*
X225000Y314464D01*
X224993Y314463D01*
Y315537D01*
X225000Y315536D01*
X225698Y315591D01*
X226379Y315755D01*
X227026Y316023D01*
X227624Y316389D01*
X228156Y316844D01*
X228611Y317376D01*
X228977Y317974D01*
X229245Y318621D01*
X229409Y319302D01*
X229450Y320000D01*
X229409Y320698D01*
X229245Y321379D01*
X228977Y322026D01*
X228611Y322624D01*
X228156Y323156D01*
X227624Y323611D01*
X227026Y323977D01*
X226379Y324245D01*
X225698Y324409D01*
X225000Y324464D01*
X224993Y324463D01*
Y325537D01*
X225000Y325536D01*
X225698Y325591D01*
X226379Y325755D01*
X227026Y326023D01*
X227624Y326389D01*
X228156Y326844D01*
X228611Y327376D01*
X228977Y327974D01*
X229245Y328621D01*
X229409Y329302D01*
X229450Y330000D01*
X229409Y330698D01*
X229245Y331379D01*
X228977Y332026D01*
X228611Y332624D01*
X228156Y333156D01*
X227624Y333611D01*
X227026Y333977D01*
X226379Y334245D01*
X225698Y334409D01*
X225000Y334464D01*
X224993Y334463D01*
Y335537D01*
X225000Y335536D01*
X225698Y335591D01*
X226379Y335755D01*
X227026Y336023D01*
X227624Y336389D01*
X228156Y336844D01*
X228611Y337376D01*
X228977Y337974D01*
X229245Y338621D01*
X229409Y339302D01*
X229450Y340000D01*
X229409Y340698D01*
X229245Y341379D01*
X228977Y342026D01*
X228611Y342624D01*
X228156Y343156D01*
X227624Y343611D01*
X227026Y343977D01*
X226379Y344245D01*
X225698Y344409D01*
X225000Y344464D01*
X224993Y344463D01*
Y345537D01*
X225000Y345536D01*
X225698Y345591D01*
X226379Y345755D01*
X227026Y346023D01*
X227624Y346389D01*
X228156Y346844D01*
X228611Y347376D01*
X228977Y347974D01*
X229245Y348621D01*
X229409Y349302D01*
X229450Y350000D01*
X229409Y350698D01*
X229245Y351379D01*
X228977Y352026D01*
X228611Y352624D01*
X228156Y353156D01*
X227624Y353611D01*
X227026Y353977D01*
X226379Y354245D01*
X225698Y354409D01*
X225000Y354464D01*
X224993Y354463D01*
Y355537D01*
X225000Y355536D01*
X225698Y355591D01*
X226379Y355755D01*
X227026Y356023D01*
X227624Y356389D01*
X228156Y356844D01*
X228611Y357376D01*
X228977Y357974D01*
X229245Y358621D01*
X229409Y359302D01*
X229450Y360000D01*
X229409Y360698D01*
X229245Y361379D01*
X228977Y362026D01*
X228611Y362624D01*
X228156Y363156D01*
X227624Y363611D01*
X227026Y363977D01*
X226379Y364245D01*
X225698Y364409D01*
X225000Y364464D01*
X224993Y364463D01*
Y365537D01*
X225000Y365536D01*
X225698Y365591D01*
X226379Y365755D01*
X227026Y366023D01*
X227624Y366389D01*
X228156Y366844D01*
X228611Y367376D01*
X228977Y367974D01*
X229245Y368621D01*
X229409Y369302D01*
X229450Y370000D01*
X229409Y370698D01*
X229245Y371379D01*
X228977Y372026D01*
X228611Y372624D01*
X228156Y373156D01*
X227624Y373611D01*
X227026Y373977D01*
X226379Y374245D01*
X225698Y374409D01*
X225000Y374464D01*
X224993Y374463D01*
Y375537D01*
X225000Y375536D01*
X225698Y375591D01*
X226379Y375755D01*
X227026Y376023D01*
X227624Y376389D01*
X228156Y376844D01*
X228290Y377000D01*
X244994D01*
Y10000D01*
G37*
G36*
X241716Y467703D02*X241754Y467642D01*
X242163Y467163D01*
X242642Y466754D01*
X243178Y466425D01*
X243760Y466184D01*
X244372Y466037D01*
X244994Y465988D01*
Y433876D01*
X244902Y433901D01*
X244544Y433967D01*
X244182Y434000D01*
X243818D01*
X243456Y433967D01*
X243098Y433901D01*
X242748Y433803D01*
X242408Y433674D01*
X242081Y433515D01*
X242015Y433472D01*
X241956Y433419D01*
X241906Y433357D01*
X241867Y433288D01*
X241839Y433214D01*
X241823Y433137D01*
X241819Y433058D01*
X241827Y432979D01*
X241848Y432903D01*
X241880Y432830D01*
X241923Y432764D01*
X241976Y432705D01*
X242038Y432656D01*
X242107Y432616D01*
X242181Y432588D01*
X242258Y432572D01*
X242337Y432568D01*
X242416Y432576D01*
X242493Y432597D01*
X242564Y432630D01*
X242807Y432753D01*
X243062Y432850D01*
X243324Y432923D01*
X243592Y432972D01*
X243864Y432997D01*
X244136D01*
X244408Y432972D01*
X244676Y432923D01*
X244938Y432850D01*
X244994Y432828D01*
Y427172D01*
X244938Y427150D01*
X244676Y427077D01*
X244408Y427028D01*
X244136Y427003D01*
X243864D01*
X243592Y427028D01*
X243324Y427077D01*
X243062Y427150D01*
X242807Y427247D01*
X242563Y427367D01*
X242491Y427400D01*
X242415Y427421D01*
X242337Y427429D01*
X242259Y427425D01*
X242182Y427409D01*
X242108Y427381D01*
X242040Y427342D01*
X241979Y427293D01*
X241926Y427234D01*
X241883Y427168D01*
X241851Y427096D01*
X241830Y427020D01*
X241822Y426942D01*
X241826Y426864D01*
X241842Y426787D01*
X241870Y426713D01*
X241909Y426645D01*
X241958Y426584D01*
X242017Y426531D01*
X242083Y426489D01*
X242408Y426326D01*
X242748Y426197D01*
X243098Y426099D01*
X243456Y426033D01*
X243818Y426000D01*
X244182D01*
X244544Y426033D01*
X244902Y426099D01*
X244994Y426124D01*
Y383000D01*
X241716D01*
Y467703D01*
G37*
G36*
Y487703D02*X241754Y487642D01*
X242000Y487354D01*
Y472646D01*
X241754Y472358D01*
X241716Y472297D01*
Y487703D01*
G37*
G36*
Y570000D02*X244994D01*
Y504000D01*
X244818D01*
X244456Y503967D01*
X244098Y503901D01*
X243748Y503803D01*
X243408Y503674D01*
X243081Y503515D01*
X243015Y503472D01*
X242956Y503419D01*
X242906Y503357D01*
X242867Y503288D01*
X242839Y503214D01*
X242823Y503137D01*
X242819Y503058D01*
X242827Y502979D01*
X242848Y502903D01*
X242880Y502830D01*
X242923Y502764D01*
X242976Y502705D01*
X243038Y502656D01*
X243107Y502616D01*
X243181Y502588D01*
X243258Y502572D01*
X243337Y502568D01*
X243416Y502576D01*
X243493Y502597D01*
X243564Y502630D01*
X243807Y502753D01*
X244062Y502850D01*
X244324Y502923D01*
X244592Y502972D01*
X244864Y502997D01*
X244994D01*
Y497003D01*
X244864D01*
X244592Y497028D01*
X244324Y497077D01*
X244062Y497150D01*
X243807Y497247D01*
X243563Y497367D01*
X243491Y497400D01*
X243415Y497421D01*
X243337Y497429D01*
X243259Y497425D01*
X243182Y497409D01*
X243108Y497381D01*
X243040Y497342D01*
X242979Y497293D01*
X242926Y497234D01*
X242883Y497168D01*
X242851Y497096D01*
X242830Y497020D01*
X242822Y496942D01*
X242826Y496864D01*
X242842Y496787D01*
X242870Y496713D01*
X242909Y496645D01*
X242958Y496584D01*
X243017Y496531D01*
X243083Y496489D01*
X243408Y496326D01*
X243748Y496197D01*
X244098Y496099D01*
X244456Y496033D01*
X244818Y496000D01*
X244994D01*
Y494012D01*
X244372Y493963D01*
X243760Y493816D01*
X243178Y493575D01*
X242642Y493246D01*
X242163Y492837D01*
X241754Y492358D01*
X241716Y492297D01*
Y497865D01*
X241786Y497839D01*
X241863Y497823D01*
X241942Y497819D01*
X242021Y497827D01*
X242097Y497848D01*
X242170Y497880D01*
X242236Y497923D01*
X242295Y497976D01*
X242344Y498038D01*
X242384Y498107D01*
X242412Y498181D01*
X242428Y498258D01*
X242432Y498337D01*
X242424Y498416D01*
X242403Y498493D01*
X242370Y498564D01*
X242247Y498807D01*
X242150Y499062D01*
X242077Y499324D01*
X242028Y499592D01*
X242003Y499864D01*
Y500136D01*
X242028Y500408D01*
X242077Y500676D01*
X242150Y500938D01*
X242247Y501193D01*
X242367Y501437D01*
X242400Y501509D01*
X242421Y501585D01*
X242429Y501663D01*
X242425Y501741D01*
X242409Y501818D01*
X242381Y501892D01*
X242342Y501960D01*
X242293Y502021D01*
X242234Y502074D01*
X242168Y502117D01*
X242096Y502149D01*
X242020Y502170D01*
X241942Y502178D01*
X241864Y502174D01*
X241787Y502158D01*
X241716Y502131D01*
Y570000D01*
G37*
G36*
X240716D02*X241716D01*
Y502131D01*
X241713Y502130D01*
X241645Y502091D01*
X241584Y502042D01*
X241531Y501983D01*
X241489Y501917D01*
X241326Y501592D01*
X241197Y501252D01*
X241099Y500902D01*
X241033Y500544D01*
X241000Y500182D01*
Y499818D01*
X241033Y499456D01*
X241099Y499098D01*
X241197Y498748D01*
X241326Y498408D01*
X241485Y498081D01*
X241528Y498015D01*
X241581Y497956D01*
X241643Y497906D01*
X241712Y497867D01*
X241716Y497865D01*
Y492297D01*
X241425Y491822D01*
X241184Y491240D01*
X241037Y490628D01*
X240988Y490000D01*
X241037Y489372D01*
X241184Y488760D01*
X241425Y488178D01*
X241716Y487703D01*
Y472297D01*
X241425Y471822D01*
X241184Y471240D01*
X241037Y470628D01*
X240988Y470000D01*
X241037Y469372D01*
X241184Y468760D01*
X241425Y468178D01*
X241716Y467703D01*
Y383000D01*
X240716D01*
Y427865D01*
X240786Y427839D01*
X240863Y427823D01*
X240942Y427819D01*
X241021Y427827D01*
X241097Y427848D01*
X241170Y427880D01*
X241236Y427923D01*
X241295Y427976D01*
X241344Y428038D01*
X241384Y428107D01*
X241412Y428181D01*
X241428Y428258D01*
X241432Y428337D01*
X241424Y428416D01*
X241403Y428493D01*
X241370Y428564D01*
X241247Y428807D01*
X241150Y429062D01*
X241077Y429324D01*
X241028Y429592D01*
X241003Y429864D01*
Y430136D01*
X241028Y430408D01*
X241077Y430676D01*
X241150Y430938D01*
X241247Y431193D01*
X241367Y431437D01*
X241400Y431509D01*
X241421Y431585D01*
X241429Y431663D01*
X241425Y431741D01*
X241409Y431818D01*
X241381Y431892D01*
X241342Y431960D01*
X241293Y432021D01*
X241234Y432074D01*
X241168Y432117D01*
X241096Y432149D01*
X241020Y432170D01*
X240942Y432178D01*
X240864Y432174D01*
X240787Y432158D01*
X240716Y432131D01*
Y570000D01*
G37*
G36*
X227283Y522339D02*X227287Y522328D01*
X227464Y521676D01*
X227583Y521011D01*
X227643Y520338D01*
Y519662D01*
X227583Y518989D01*
X227464Y518324D01*
X227287Y517672D01*
X227283Y517661D01*
Y522339D01*
G37*
G36*
Y570000D02*X240716D01*
Y432131D01*
X240713Y432130D01*
X240645Y432091D01*
X240584Y432042D01*
X240531Y431983D01*
X240489Y431917D01*
X240326Y431592D01*
X240197Y431252D01*
X240099Y430902D01*
X240033Y430544D01*
X240000Y430182D01*
Y429818D01*
X240033Y429456D01*
X240099Y429098D01*
X240197Y428748D01*
X240326Y428408D01*
X240485Y428081D01*
X240528Y428015D01*
X240581Y427956D01*
X240643Y427906D01*
X240712Y427867D01*
X240716Y427865D01*
Y383000D01*
X228290D01*
X228156Y383156D01*
X227624Y383611D01*
X227283Y383820D01*
Y386180D01*
X227624Y386389D01*
X228156Y386844D01*
X228611Y387376D01*
X228977Y387974D01*
X229245Y388621D01*
X229409Y389302D01*
X229450Y390000D01*
X229409Y390698D01*
X229245Y391379D01*
X228977Y392026D01*
X228611Y392624D01*
X228156Y393156D01*
X227624Y393611D01*
X227283Y393820D01*
Y396180D01*
X227624Y396389D01*
X228156Y396844D01*
X228611Y397376D01*
X228977Y397974D01*
X229245Y398621D01*
X229409Y399302D01*
X229450Y400000D01*
X229409Y400698D01*
X229245Y401379D01*
X228977Y402026D01*
X228611Y402624D01*
X228156Y403156D01*
X227624Y403611D01*
X227283Y403820D01*
Y406180D01*
X227624Y406389D01*
X228156Y406844D01*
X228611Y407376D01*
X228977Y407974D01*
X229245Y408621D01*
X229409Y409302D01*
X229450Y410000D01*
X229409Y410698D01*
X229245Y411379D01*
X228977Y412026D01*
X228611Y412624D01*
X228156Y413156D01*
X227624Y413611D01*
X227283Y413820D01*
Y416180D01*
X227624Y416389D01*
X228156Y416844D01*
X228611Y417376D01*
X228977Y417974D01*
X229245Y418621D01*
X229409Y419302D01*
X229450Y420000D01*
X229409Y420698D01*
X229245Y421379D01*
X228977Y422026D01*
X228611Y422624D01*
X228156Y423156D01*
X227624Y423611D01*
X227283Y423820D01*
Y426180D01*
X227624Y426389D01*
X228156Y426844D01*
X228611Y427376D01*
X228977Y427974D01*
X229245Y428621D01*
X229409Y429302D01*
X229450Y430000D01*
X229409Y430698D01*
X229245Y431379D01*
X228977Y432026D01*
X228611Y432624D01*
X228156Y433156D01*
X227624Y433611D01*
X227283Y433820D01*
Y436180D01*
X227624Y436389D01*
X228156Y436844D01*
X228611Y437376D01*
X228977Y437974D01*
X229245Y438621D01*
X229409Y439302D01*
X229450Y440000D01*
X229409Y440698D01*
X229245Y441379D01*
X228977Y442026D01*
X228611Y442624D01*
X228156Y443156D01*
X227624Y443611D01*
X227283Y443820D01*
Y446180D01*
X227624Y446389D01*
X228156Y446844D01*
X228611Y447376D01*
X228977Y447974D01*
X229245Y448621D01*
X229409Y449302D01*
X229450Y450000D01*
X229409Y450698D01*
X229245Y451379D01*
X228977Y452026D01*
X228611Y452624D01*
X228156Y453156D01*
X227624Y453611D01*
X227283Y453820D01*
Y456180D01*
X227624Y456389D01*
X228156Y456844D01*
X228611Y457376D01*
X228977Y457974D01*
X229245Y458621D01*
X229409Y459302D01*
X229450Y460000D01*
X229409Y460698D01*
X229245Y461379D01*
X228977Y462026D01*
X228611Y462624D01*
X228156Y463156D01*
X227624Y463611D01*
X227283Y463820D01*
Y466180D01*
X227624Y466389D01*
X228156Y466844D01*
X228611Y467376D01*
X228977Y467974D01*
X229245Y468621D01*
X229409Y469302D01*
X229450Y470000D01*
X229409Y470698D01*
X229245Y471379D01*
X228977Y472026D01*
X228611Y472624D01*
X228156Y473156D01*
X227624Y473611D01*
X227283Y473820D01*
Y476180D01*
X227624Y476389D01*
X228156Y476844D01*
X228611Y477376D01*
X228977Y477974D01*
X229245Y478621D01*
X229409Y479302D01*
X229450Y480000D01*
X229409Y480698D01*
X229245Y481379D01*
X228977Y482026D01*
X228611Y482624D01*
X228156Y483156D01*
X227624Y483611D01*
X227283Y483820D01*
Y486180D01*
X227624Y486389D01*
X228156Y486844D01*
X228611Y487376D01*
X228977Y487974D01*
X229245Y488621D01*
X229409Y489302D01*
X229450Y490000D01*
X229409Y490698D01*
X229245Y491379D01*
X228977Y492026D01*
X228611Y492624D01*
X228156Y493156D01*
X227624Y493611D01*
X227283Y493820D01*
Y495558D01*
X228607Y495559D01*
X228760Y495596D01*
X228905Y495656D01*
X229040Y495738D01*
X229159Y495841D01*
X229262Y495960D01*
X229344Y496095D01*
X229404Y496240D01*
X229441Y496393D01*
X229450Y496550D01*
X229441Y503607D01*
X229404Y503760D01*
X229344Y503905D01*
X229262Y504040D01*
X229159Y504159D01*
X229040Y504262D01*
X228905Y504344D01*
X228760Y504404D01*
X228607Y504441D01*
X228450Y504450D01*
X227283Y504448D01*
Y515320D01*
X227656Y515956D01*
X227983Y516647D01*
X228248Y517365D01*
X228448Y518103D01*
X228582Y518856D01*
X228650Y519618D01*
Y520382D01*
X228582Y521144D01*
X228448Y521897D01*
X228248Y522635D01*
X227983Y523353D01*
X227656Y524044D01*
X227283Y524680D01*
Y570000D01*
G37*
G36*
Y493820D02*X227026Y493977D01*
X226379Y494245D01*
X225698Y494409D01*
X225000Y494464D01*
X224993Y494463D01*
Y495555D01*
X227283Y495558D01*
Y493820D01*
G37*
G36*
Y483820D02*X227026Y483977D01*
X226379Y484245D01*
X225698Y484409D01*
X225000Y484464D01*
X224993Y484463D01*
Y485537D01*
X225000Y485536D01*
X225698Y485591D01*
X226379Y485755D01*
X227026Y486023D01*
X227283Y486180D01*
Y483820D01*
G37*
G36*
Y473820D02*X227026Y473977D01*
X226379Y474245D01*
X225698Y474409D01*
X225000Y474464D01*
X224993Y474463D01*
Y475537D01*
X225000Y475536D01*
X225698Y475591D01*
X226379Y475755D01*
X227026Y476023D01*
X227283Y476180D01*
Y473820D01*
G37*
G36*
Y463820D02*X227026Y463977D01*
X226379Y464245D01*
X225698Y464409D01*
X225000Y464464D01*
X224993Y464463D01*
Y465537D01*
X225000Y465536D01*
X225698Y465591D01*
X226379Y465755D01*
X227026Y466023D01*
X227283Y466180D01*
Y463820D01*
G37*
G36*
Y453820D02*X227026Y453977D01*
X226379Y454245D01*
X225698Y454409D01*
X225000Y454464D01*
X224993Y454463D01*
Y455537D01*
X225000Y455536D01*
X225698Y455591D01*
X226379Y455755D01*
X227026Y456023D01*
X227283Y456180D01*
Y453820D01*
G37*
G36*
Y443820D02*X227026Y443977D01*
X226379Y444245D01*
X225698Y444409D01*
X225000Y444464D01*
X224993Y444463D01*
Y445537D01*
X225000Y445536D01*
X225698Y445591D01*
X226379Y445755D01*
X227026Y446023D01*
X227283Y446180D01*
Y443820D01*
G37*
G36*
Y433820D02*X227026Y433977D01*
X226379Y434245D01*
X225698Y434409D01*
X225000Y434464D01*
X224993Y434463D01*
Y435537D01*
X225000Y435536D01*
X225698Y435591D01*
X226379Y435755D01*
X227026Y436023D01*
X227283Y436180D01*
Y433820D01*
G37*
G36*
Y423820D02*X227026Y423977D01*
X226379Y424245D01*
X225698Y424409D01*
X225000Y424464D01*
X224993Y424463D01*
Y425537D01*
X225000Y425536D01*
X225698Y425591D01*
X226379Y425755D01*
X227026Y426023D01*
X227283Y426180D01*
Y423820D01*
G37*
G36*
Y413820D02*X227026Y413977D01*
X226379Y414245D01*
X225698Y414409D01*
X225000Y414464D01*
X224993Y414463D01*
Y415537D01*
X225000Y415536D01*
X225698Y415591D01*
X226379Y415755D01*
X227026Y416023D01*
X227283Y416180D01*
Y413820D01*
G37*
G36*
Y403820D02*X227026Y403977D01*
X226379Y404245D01*
X225698Y404409D01*
X225000Y404464D01*
X224993Y404463D01*
Y405537D01*
X225000Y405536D01*
X225698Y405591D01*
X226379Y405755D01*
X227026Y406023D01*
X227283Y406180D01*
Y403820D01*
G37*
G36*
Y393820D02*X227026Y393977D01*
X226379Y394245D01*
X225698Y394409D01*
X225000Y394464D01*
X224993Y394463D01*
Y395537D01*
X225000Y395536D01*
X225698Y395591D01*
X226379Y395755D01*
X227026Y396023D01*
X227283Y396180D01*
Y393820D01*
G37*
G36*
Y383820D02*X227026Y383977D01*
X226379Y384245D01*
X225698Y384409D01*
X225000Y384464D01*
X224993Y384463D01*
Y385537D01*
X225000Y385536D01*
X225698Y385591D01*
X226379Y385755D01*
X227026Y386023D01*
X227283Y386180D01*
Y383820D01*
G37*
G36*
X224993Y512937D02*X225327Y513174D01*
X225386Y513228D01*
X225436Y513290D01*
X225475Y513360D01*
X225503Y513435D01*
X225519Y513513D01*
X225523Y513593D01*
X225514Y513672D01*
X225493Y513749D01*
X225460Y513822D01*
X225416Y513888D01*
X225362Y513947D01*
X225299Y513997D01*
X225230Y514036D01*
X225155Y514064D01*
X225077Y514080D01*
X224997Y514084D01*
X224993Y514083D01*
Y525924D01*
X224997Y525924D01*
X225076Y525927D01*
X225153Y525943D01*
X225226Y525970D01*
X225295Y526009D01*
X225356Y526058D01*
X225410Y526116D01*
X225453Y526182D01*
X225486Y526254D01*
X225507Y526329D01*
X225515Y526408D01*
X225512Y526486D01*
X225496Y526563D01*
X225469Y526637D01*
X225430Y526706D01*
X225381Y526767D01*
X225322Y526819D01*
X224993Y527059D01*
Y570000D01*
X227283D01*
Y524680D01*
X227269Y524704D01*
X226826Y525327D01*
X226772Y525386D01*
X226710Y525436D01*
X226640Y525475D01*
X226565Y525504D01*
X226487Y525519D01*
X226407Y525523D01*
X226328Y525514D01*
X226251Y525493D01*
X226178Y525460D01*
X226112Y525416D01*
X226053Y525362D01*
X226003Y525299D01*
X225964Y525230D01*
X225936Y525155D01*
X225920Y525077D01*
X225916Y524997D01*
X225925Y524917D01*
X225947Y524840D01*
X225980Y524768D01*
X226025Y524702D01*
X226423Y524156D01*
X226764Y523573D01*
X227053Y522962D01*
X227283Y522339D01*
Y517661D01*
X227053Y517038D01*
X226764Y516427D01*
X226423Y515844D01*
X226031Y515293D01*
X225986Y515229D01*
X225954Y515157D01*
X225933Y515081D01*
X225924Y515003D01*
X225927Y514924D01*
X225943Y514847D01*
X225970Y514774D01*
X226009Y514705D01*
X226058Y514644D01*
X226116Y514590D01*
X226182Y514547D01*
X226254Y514514D01*
X226329Y514493D01*
X226408Y514485D01*
X226486Y514488D01*
X226563Y514504D01*
X226637Y514531D01*
X226706Y514570D01*
X226767Y514619D01*
X226819Y514678D01*
X227269Y515296D01*
X227283Y515320D01*
Y504448D01*
X224993Y504445D01*
Y512937D01*
G37*
G36*
Y527059D02*X224704Y527269D01*
X224044Y527656D01*
X223353Y527983D01*
X222635Y528248D01*
X221897Y528448D01*
X221144Y528583D01*
X220382Y528650D01*
X219618D01*
X218856Y528583D01*
X218103Y528448D01*
X217365Y528248D01*
X217000Y528113D01*
Y570000D01*
X224993D01*
Y527059D01*
G37*
G36*
Y514083D02*X224917Y514075D01*
X224840Y514053D01*
X224768Y514020D01*
X224702Y513975D01*
X224156Y513577D01*
X223573Y513236D01*
X222962Y512947D01*
X222328Y512713D01*
X221676Y512536D01*
X221011Y512417D01*
X220338Y512357D01*
X219662D01*
X218989Y512417D01*
X218324Y512536D01*
X217672Y512713D01*
X217038Y512947D01*
X217000Y512965D01*
Y527035D01*
X217038Y527053D01*
X217672Y527287D01*
X218324Y527464D01*
X218989Y527583D01*
X219662Y527643D01*
X220338D01*
X221011Y527583D01*
X221676Y527464D01*
X222328Y527287D01*
X222962Y527053D01*
X223573Y526764D01*
X224156Y526423D01*
X224707Y526031D01*
X224771Y525986D01*
X224843Y525954D01*
X224919Y525933D01*
X224993Y525924D01*
Y514083D01*
G37*
G36*
X214783Y495553D02*X215000Y495536D01*
X215698Y495591D01*
X216379Y495755D01*
X217026Y496023D01*
X217624Y496389D01*
X218156Y496844D01*
X218611Y497376D01*
X218977Y497974D01*
X219245Y498621D01*
X219409Y499302D01*
X219450Y500000D01*
X219409Y500698D01*
X219245Y501379D01*
X218977Y502026D01*
X218611Y502624D01*
X218156Y503156D01*
X217624Y503611D01*
X217026Y503977D01*
X217000Y503988D01*
Y511887D01*
X217365Y511752D01*
X218103Y511552D01*
X218856Y511418D01*
X219618Y511350D01*
X220382D01*
X221144Y511418D01*
X221897Y511552D01*
X222635Y511752D01*
X223353Y512017D01*
X224044Y512344D01*
X224704Y512731D01*
X224993Y512937D01*
Y504445D01*
X221393Y504441D01*
X221240Y504404D01*
X221095Y504344D01*
X220960Y504262D01*
X220841Y504159D01*
X220738Y504040D01*
X220656Y503905D01*
X220596Y503760D01*
X220559Y503607D01*
X220550Y503450D01*
X220559Y496393D01*
X220596Y496240D01*
X220656Y496095D01*
X220738Y495960D01*
X220841Y495841D01*
X220960Y495738D01*
X221095Y495656D01*
X221240Y495596D01*
X221393Y495559D01*
X221550Y495550D01*
X224993Y495555D01*
Y494463D01*
X224302Y494409D01*
X223621Y494245D01*
X222974Y493977D01*
X222376Y493611D01*
X221844Y493156D01*
X221389Y492624D01*
X221023Y492026D01*
X220755Y491379D01*
X220591Y490698D01*
X220536Y490000D01*
X220591Y489302D01*
X220755Y488621D01*
X221023Y487974D01*
X221389Y487376D01*
X221844Y486844D01*
X222376Y486389D01*
X222974Y486023D01*
X223621Y485755D01*
X224302Y485591D01*
X224993Y485537D01*
Y484463D01*
X224302Y484409D01*
X223621Y484245D01*
X222974Y483977D01*
X222376Y483611D01*
X221844Y483156D01*
X221389Y482624D01*
X221023Y482026D01*
X220755Y481379D01*
X220591Y480698D01*
X220536Y480000D01*
X220591Y479302D01*
X220755Y478621D01*
X221023Y477974D01*
X221389Y477376D01*
X221844Y476844D01*
X222376Y476389D01*
X222974Y476023D01*
X223621Y475755D01*
X224302Y475591D01*
X224993Y475537D01*
Y474463D01*
X224302Y474409D01*
X223621Y474245D01*
X222974Y473977D01*
X222376Y473611D01*
X221844Y473156D01*
X221389Y472624D01*
X221023Y472026D01*
X220755Y471379D01*
X220591Y470698D01*
X220536Y470000D01*
X220591Y469302D01*
X220755Y468621D01*
X221023Y467974D01*
X221389Y467376D01*
X221844Y466844D01*
X222376Y466389D01*
X222974Y466023D01*
X223621Y465755D01*
X224302Y465591D01*
X224993Y465537D01*
Y464463D01*
X224302Y464409D01*
X223621Y464245D01*
X222974Y463977D01*
X222376Y463611D01*
X221844Y463156D01*
X221389Y462624D01*
X221023Y462026D01*
X220755Y461379D01*
X220591Y460698D01*
X220536Y460000D01*
X220591Y459302D01*
X220755Y458621D01*
X221023Y457974D01*
X221389Y457376D01*
X221844Y456844D01*
X222376Y456389D01*
X222974Y456023D01*
X223621Y455755D01*
X224302Y455591D01*
X224993Y455537D01*
Y454463D01*
X224302Y454409D01*
X223621Y454245D01*
X222974Y453977D01*
X222376Y453611D01*
X221844Y453156D01*
X221389Y452624D01*
X221023Y452026D01*
X220755Y451379D01*
X220591Y450698D01*
X220536Y450000D01*
X220591Y449302D01*
X220755Y448621D01*
X221023Y447974D01*
X221389Y447376D01*
X221844Y446844D01*
X222376Y446389D01*
X222974Y446023D01*
X223621Y445755D01*
X224302Y445591D01*
X224993Y445537D01*
Y444463D01*
X224302Y444409D01*
X223621Y444245D01*
X222974Y443977D01*
X222376Y443611D01*
X221844Y443156D01*
X221389Y442624D01*
X221023Y442026D01*
X220755Y441379D01*
X220591Y440698D01*
X220536Y440000D01*
X220591Y439302D01*
X220755Y438621D01*
X221023Y437974D01*
X221389Y437376D01*
X221844Y436844D01*
X222376Y436389D01*
X222974Y436023D01*
X223621Y435755D01*
X224302Y435591D01*
X224993Y435537D01*
Y434463D01*
X224302Y434409D01*
X223621Y434245D01*
X222974Y433977D01*
X222376Y433611D01*
X221844Y433156D01*
X221389Y432624D01*
X221023Y432026D01*
X220755Y431379D01*
X220591Y430698D01*
X220536Y430000D01*
X220591Y429302D01*
X220755Y428621D01*
X221023Y427974D01*
X221389Y427376D01*
X221844Y426844D01*
X222376Y426389D01*
X222974Y426023D01*
X223621Y425755D01*
X224302Y425591D01*
X224993Y425537D01*
Y424463D01*
X224302Y424409D01*
X223621Y424245D01*
X222974Y423977D01*
X222376Y423611D01*
X221844Y423156D01*
X221389Y422624D01*
X221023Y422026D01*
X220755Y421379D01*
X220591Y420698D01*
X220536Y420000D01*
X220591Y419302D01*
X220755Y418621D01*
X221023Y417974D01*
X221389Y417376D01*
X221844Y416844D01*
X222376Y416389D01*
X222974Y416023D01*
X223621Y415755D01*
X224302Y415591D01*
X224993Y415537D01*
Y414463D01*
X224302Y414409D01*
X223621Y414245D01*
X222974Y413977D01*
X222376Y413611D01*
X221844Y413156D01*
X221389Y412624D01*
X221023Y412026D01*
X220755Y411379D01*
X220591Y410698D01*
X220536Y410000D01*
X220591Y409302D01*
X220755Y408621D01*
X221023Y407974D01*
X221389Y407376D01*
X221844Y406844D01*
X222376Y406389D01*
X222974Y406023D01*
X223621Y405755D01*
X224302Y405591D01*
X224993Y405537D01*
Y404463D01*
X224302Y404409D01*
X223621Y404245D01*
X222974Y403977D01*
X222376Y403611D01*
X221844Y403156D01*
X221389Y402624D01*
X221023Y402026D01*
X220755Y401379D01*
X220591Y400698D01*
X220536Y400000D01*
X220591Y399302D01*
X220755Y398621D01*
X221023Y397974D01*
X221389Y397376D01*
X221844Y396844D01*
X222376Y396389D01*
X222974Y396023D01*
X223621Y395755D01*
X224302Y395591D01*
X224993Y395537D01*
Y394463D01*
X224302Y394409D01*
X223621Y394245D01*
X222974Y393977D01*
X222376Y393611D01*
X221844Y393156D01*
X221389Y392624D01*
X221023Y392026D01*
X220755Y391379D01*
X220591Y390698D01*
X220536Y390000D01*
X220591Y389302D01*
X220755Y388621D01*
X221023Y387974D01*
X221389Y387376D01*
X221844Y386844D01*
X222376Y386389D01*
X222974Y386023D01*
X223621Y385755D01*
X224302Y385591D01*
X224993Y385537D01*
Y384463D01*
X224302Y384409D01*
X223621Y384245D01*
X222974Y383977D01*
X222376Y383611D01*
X221844Y383156D01*
X221389Y382624D01*
X221023Y382026D01*
X220755Y381379D01*
X220591Y380698D01*
X220536Y380000D01*
X220591Y379302D01*
X220755Y378621D01*
X221023Y377974D01*
X221389Y377376D01*
X221844Y376844D01*
X222376Y376389D01*
X222974Y376023D01*
X223621Y375755D01*
X224302Y375591D01*
X224993Y375537D01*
Y374463D01*
X224302Y374409D01*
X223621Y374245D01*
X222974Y373977D01*
X222376Y373611D01*
X221844Y373156D01*
X221389Y372624D01*
X221023Y372026D01*
X220755Y371379D01*
X220591Y370698D01*
X220536Y370000D01*
X220591Y369302D01*
X220755Y368621D01*
X221023Y367974D01*
X221389Y367376D01*
X221844Y366844D01*
X222376Y366389D01*
X222974Y366023D01*
X223621Y365755D01*
X224302Y365591D01*
X224993Y365537D01*
Y364463D01*
X224302Y364409D01*
X223621Y364245D01*
X222974Y363977D01*
X222376Y363611D01*
X221844Y363156D01*
X221389Y362624D01*
X221023Y362026D01*
X220755Y361379D01*
X220591Y360698D01*
X220536Y360000D01*
X220591Y359302D01*
X220755Y358621D01*
X221023Y357974D01*
X221389Y357376D01*
X221844Y356844D01*
X222376Y356389D01*
X222974Y356023D01*
X223621Y355755D01*
X224302Y355591D01*
X224993Y355537D01*
Y354463D01*
X224302Y354409D01*
X223621Y354245D01*
X222974Y353977D01*
X222376Y353611D01*
X221844Y353156D01*
X221389Y352624D01*
X221023Y352026D01*
X220755Y351379D01*
X220591Y350698D01*
X220536Y350000D01*
X220591Y349302D01*
X220755Y348621D01*
X221023Y347974D01*
X221389Y347376D01*
X221844Y346844D01*
X222376Y346389D01*
X222974Y346023D01*
X223621Y345755D01*
X224302Y345591D01*
X224993Y345537D01*
Y344463D01*
X224302Y344409D01*
X223621Y344245D01*
X222974Y343977D01*
X222376Y343611D01*
X221844Y343156D01*
X221389Y342624D01*
X221023Y342026D01*
X220755Y341379D01*
X220591Y340698D01*
X220536Y340000D01*
X220591Y339302D01*
X220755Y338621D01*
X221023Y337974D01*
X221389Y337376D01*
X221844Y336844D01*
X222376Y336389D01*
X222974Y336023D01*
X223621Y335755D01*
X224302Y335591D01*
X224993Y335537D01*
Y334463D01*
X224302Y334409D01*
X223621Y334245D01*
X222974Y333977D01*
X222376Y333611D01*
X221844Y333156D01*
X221389Y332624D01*
X221023Y332026D01*
X220755Y331379D01*
X220591Y330698D01*
X220536Y330000D01*
X220591Y329302D01*
X220755Y328621D01*
X221023Y327974D01*
X221389Y327376D01*
X221844Y326844D01*
X222376Y326389D01*
X222974Y326023D01*
X223621Y325755D01*
X224302Y325591D01*
X224993Y325537D01*
Y324463D01*
X224302Y324409D01*
X223621Y324245D01*
X222974Y323977D01*
X222376Y323611D01*
X221844Y323156D01*
X221389Y322624D01*
X221023Y322026D01*
X220755Y321379D01*
X220591Y320698D01*
X220536Y320000D01*
X220591Y319302D01*
X220755Y318621D01*
X221023Y317974D01*
X221389Y317376D01*
X221844Y316844D01*
X222376Y316389D01*
X222974Y316023D01*
X223621Y315755D01*
X224302Y315591D01*
X224993Y315537D01*
Y314463D01*
X224302Y314409D01*
X223621Y314245D01*
X222974Y313977D01*
X222376Y313611D01*
X221844Y313156D01*
X221389Y312624D01*
X221023Y312026D01*
X220755Y311379D01*
X220591Y310698D01*
X220536Y310000D01*
X220591Y309302D01*
X220755Y308621D01*
X221023Y307974D01*
X221389Y307376D01*
X221844Y306844D01*
X222376Y306389D01*
X222974Y306023D01*
X223621Y305755D01*
X224302Y305591D01*
X224993Y305537D01*
Y304463D01*
X224302Y304409D01*
X223621Y304245D01*
X222974Y303977D01*
X222376Y303611D01*
X221844Y303156D01*
X221389Y302624D01*
X221023Y302026D01*
X220755Y301379D01*
X220591Y300698D01*
X220536Y300000D01*
X220591Y299302D01*
X220755Y298621D01*
X221023Y297974D01*
X221389Y297376D01*
X221844Y296844D01*
X222376Y296389D01*
X222974Y296023D01*
X223621Y295755D01*
X224302Y295591D01*
X224993Y295537D01*
Y294463D01*
X224302Y294409D01*
X223621Y294245D01*
X222974Y293977D01*
X222376Y293611D01*
X221844Y293156D01*
X221389Y292624D01*
X221023Y292026D01*
X220755Y291379D01*
X220591Y290698D01*
X220536Y290000D01*
X220591Y289302D01*
X220755Y288621D01*
X221023Y287974D01*
X221389Y287376D01*
X221844Y286844D01*
X222376Y286389D01*
X222974Y286023D01*
X223621Y285755D01*
X224302Y285591D01*
X224993Y285537D01*
Y284463D01*
X224302Y284409D01*
X223621Y284245D01*
X222974Y283977D01*
X222376Y283611D01*
X221844Y283156D01*
X221389Y282624D01*
X221023Y282026D01*
X220755Y281379D01*
X220591Y280698D01*
X220536Y280000D01*
X220591Y279302D01*
X220755Y278621D01*
X221023Y277974D01*
X221389Y277376D01*
X221844Y276844D01*
X222376Y276389D01*
X222974Y276023D01*
X223621Y275755D01*
X224302Y275591D01*
X224993Y275537D01*
Y10000D01*
X214783D01*
Y255320D01*
X215156Y255956D01*
X215483Y256647D01*
X215748Y257365D01*
X215948Y258103D01*
X216082Y258856D01*
X216150Y259618D01*
Y260382D01*
X216082Y261144D01*
X215948Y261897D01*
X215748Y262635D01*
X215483Y263353D01*
X215156Y264044D01*
X214783Y264680D01*
Y275553D01*
X215000Y275536D01*
X215698Y275591D01*
X216379Y275755D01*
X217026Y276023D01*
X217624Y276389D01*
X218156Y276844D01*
X218611Y277376D01*
X218977Y277974D01*
X219245Y278621D01*
X219409Y279302D01*
X219450Y280000D01*
X219409Y280698D01*
X219245Y281379D01*
X218977Y282026D01*
X218611Y282624D01*
X218156Y283156D01*
X217624Y283611D01*
X217026Y283977D01*
X216379Y284245D01*
X215698Y284409D01*
X215000Y284464D01*
X214783Y284447D01*
Y285553D01*
X215000Y285536D01*
X215698Y285591D01*
X216379Y285755D01*
X217026Y286023D01*
X217624Y286389D01*
X218156Y286844D01*
X218611Y287376D01*
X218977Y287974D01*
X219245Y288621D01*
X219409Y289302D01*
X219450Y290000D01*
X219409Y290698D01*
X219245Y291379D01*
X218977Y292026D01*
X218611Y292624D01*
X218156Y293156D01*
X217624Y293611D01*
X217026Y293977D01*
X216379Y294245D01*
X215698Y294409D01*
X215000Y294464D01*
X214783Y294447D01*
Y295553D01*
X215000Y295536D01*
X215698Y295591D01*
X216379Y295755D01*
X217026Y296023D01*
X217624Y296389D01*
X218156Y296844D01*
X218611Y297376D01*
X218977Y297974D01*
X219245Y298621D01*
X219409Y299302D01*
X219450Y300000D01*
X219409Y300698D01*
X219245Y301379D01*
X218977Y302026D01*
X218611Y302624D01*
X218156Y303156D01*
X217624Y303611D01*
X217026Y303977D01*
X216379Y304245D01*
X215698Y304409D01*
X215000Y304464D01*
X214783Y304447D01*
Y305553D01*
X215000Y305536D01*
X215698Y305591D01*
X216379Y305755D01*
X217026Y306023D01*
X217624Y306389D01*
X218156Y306844D01*
X218611Y307376D01*
X218977Y307974D01*
X219245Y308621D01*
X219409Y309302D01*
X219450Y310000D01*
X219409Y310698D01*
X219245Y311379D01*
X218977Y312026D01*
X218611Y312624D01*
X218156Y313156D01*
X217624Y313611D01*
X217026Y313977D01*
X216379Y314245D01*
X215698Y314409D01*
X215000Y314464D01*
X214783Y314447D01*
Y315553D01*
X215000Y315536D01*
X215698Y315591D01*
X216379Y315755D01*
X217026Y316023D01*
X217624Y316389D01*
X218156Y316844D01*
X218611Y317376D01*
X218977Y317974D01*
X219245Y318621D01*
X219409Y319302D01*
X219450Y320000D01*
X219409Y320698D01*
X219245Y321379D01*
X218977Y322026D01*
X218611Y322624D01*
X218156Y323156D01*
X217624Y323611D01*
X217026Y323977D01*
X216379Y324245D01*
X215698Y324409D01*
X215000Y324464D01*
X214783Y324447D01*
Y325553D01*
X215000Y325536D01*
X215698Y325591D01*
X216379Y325755D01*
X217026Y326023D01*
X217624Y326389D01*
X218156Y326844D01*
X218611Y327376D01*
X218977Y327974D01*
X219245Y328621D01*
X219409Y329302D01*
X219450Y330000D01*
X219409Y330698D01*
X219245Y331379D01*
X218977Y332026D01*
X218611Y332624D01*
X218156Y333156D01*
X217624Y333611D01*
X217026Y333977D01*
X216379Y334245D01*
X215698Y334409D01*
X215000Y334464D01*
X214783Y334447D01*
Y335553D01*
X215000Y335536D01*
X215698Y335591D01*
X216379Y335755D01*
X217026Y336023D01*
X217624Y336389D01*
X218156Y336844D01*
X218611Y337376D01*
X218977Y337974D01*
X219245Y338621D01*
X219409Y339302D01*
X219450Y340000D01*
X219409Y340698D01*
X219245Y341379D01*
X218977Y342026D01*
X218611Y342624D01*
X218156Y343156D01*
X217624Y343611D01*
X217026Y343977D01*
X216379Y344245D01*
X215698Y344409D01*
X215000Y344464D01*
X214783Y344447D01*
Y345553D01*
X215000Y345536D01*
X215698Y345591D01*
X216379Y345755D01*
X217026Y346023D01*
X217624Y346389D01*
X218156Y346844D01*
X218611Y347376D01*
X218977Y347974D01*
X219245Y348621D01*
X219409Y349302D01*
X219450Y350000D01*
X219409Y350698D01*
X219245Y351379D01*
X218977Y352026D01*
X218611Y352624D01*
X218156Y353156D01*
X217624Y353611D01*
X217026Y353977D01*
X216379Y354245D01*
X215698Y354409D01*
X215000Y354464D01*
X214783Y354447D01*
Y355553D01*
X215000Y355536D01*
X215698Y355591D01*
X216379Y355755D01*
X217026Y356023D01*
X217624Y356389D01*
X218156Y356844D01*
X218611Y357376D01*
X218977Y357974D01*
X219245Y358621D01*
X219409Y359302D01*
X219450Y360000D01*
X219409Y360698D01*
X219245Y361379D01*
X218977Y362026D01*
X218611Y362624D01*
X218156Y363156D01*
X217624Y363611D01*
X217026Y363977D01*
X216379Y364245D01*
X215698Y364409D01*
X215000Y364464D01*
X214783Y364447D01*
Y365553D01*
X215000Y365536D01*
X215698Y365591D01*
X216379Y365755D01*
X217026Y366023D01*
X217624Y366389D01*
X218156Y366844D01*
X218611Y367376D01*
X218977Y367974D01*
X219245Y368621D01*
X219409Y369302D01*
X219450Y370000D01*
X219409Y370698D01*
X219245Y371379D01*
X218977Y372026D01*
X218611Y372624D01*
X218156Y373156D01*
X217624Y373611D01*
X217026Y373977D01*
X216379Y374245D01*
X215698Y374409D01*
X215000Y374464D01*
X214783Y374447D01*
Y375553D01*
X215000Y375536D01*
X215698Y375591D01*
X216379Y375755D01*
X217026Y376023D01*
X217624Y376389D01*
X218156Y376844D01*
X218611Y377376D01*
X218977Y377974D01*
X219245Y378621D01*
X219409Y379302D01*
X219450Y380000D01*
X219409Y380698D01*
X219245Y381379D01*
X218977Y382026D01*
X218611Y382624D01*
X218156Y383156D01*
X217624Y383611D01*
X217026Y383977D01*
X216379Y384245D01*
X215698Y384409D01*
X215000Y384464D01*
X214783Y384447D01*
Y385553D01*
X215000Y385536D01*
X215698Y385591D01*
X216379Y385755D01*
X217026Y386023D01*
X217624Y386389D01*
X218156Y386844D01*
X218611Y387376D01*
X218977Y387974D01*
X219245Y388621D01*
X219409Y389302D01*
X219450Y390000D01*
X219409Y390698D01*
X219245Y391379D01*
X218977Y392026D01*
X218611Y392624D01*
X218156Y393156D01*
X217624Y393611D01*
X217026Y393977D01*
X216379Y394245D01*
X215698Y394409D01*
X215000Y394464D01*
X214783Y394447D01*
Y395553D01*
X215000Y395536D01*
X215698Y395591D01*
X216379Y395755D01*
X217026Y396023D01*
X217624Y396389D01*
X218156Y396844D01*
X218611Y397376D01*
X218977Y397974D01*
X219245Y398621D01*
X219409Y399302D01*
X219450Y400000D01*
X219409Y400698D01*
X219245Y401379D01*
X218977Y402026D01*
X218611Y402624D01*
X218156Y403156D01*
X217624Y403611D01*
X217026Y403977D01*
X216379Y404245D01*
X215698Y404409D01*
X215000Y404464D01*
X214783Y404447D01*
Y405553D01*
X215000Y405536D01*
X215698Y405591D01*
X216379Y405755D01*
X217026Y406023D01*
X217624Y406389D01*
X218156Y406844D01*
X218611Y407376D01*
X218977Y407974D01*
X219245Y408621D01*
X219409Y409302D01*
X219450Y410000D01*
X219409Y410698D01*
X219245Y411379D01*
X218977Y412026D01*
X218611Y412624D01*
X218156Y413156D01*
X217624Y413611D01*
X217026Y413977D01*
X216379Y414245D01*
X215698Y414409D01*
X215000Y414464D01*
X214783Y414447D01*
Y415553D01*
X215000Y415536D01*
X215698Y415591D01*
X216379Y415755D01*
X217026Y416023D01*
X217624Y416389D01*
X218156Y416844D01*
X218611Y417376D01*
X218977Y417974D01*
X219245Y418621D01*
X219409Y419302D01*
X219450Y420000D01*
X219409Y420698D01*
X219245Y421379D01*
X218977Y422026D01*
X218611Y422624D01*
X218156Y423156D01*
X217624Y423611D01*
X217026Y423977D01*
X216379Y424245D01*
X215698Y424409D01*
X215000Y424464D01*
X214783Y424447D01*
Y425553D01*
X215000Y425536D01*
X215698Y425591D01*
X216379Y425755D01*
X217026Y426023D01*
X217624Y426389D01*
X218156Y426844D01*
X218611Y427376D01*
X218977Y427974D01*
X219245Y428621D01*
X219409Y429302D01*
X219450Y430000D01*
X219409Y430698D01*
X219245Y431379D01*
X218977Y432026D01*
X218611Y432624D01*
X218156Y433156D01*
X217624Y433611D01*
X217026Y433977D01*
X216379Y434245D01*
X215698Y434409D01*
X215000Y434464D01*
X214783Y434447D01*
Y435553D01*
X215000Y435536D01*
X215698Y435591D01*
X216379Y435755D01*
X217026Y436023D01*
X217624Y436389D01*
X218156Y436844D01*
X218611Y437376D01*
X218977Y437974D01*
X219245Y438621D01*
X219409Y439302D01*
X219450Y440000D01*
X219409Y440698D01*
X219245Y441379D01*
X218977Y442026D01*
X218611Y442624D01*
X218156Y443156D01*
X217624Y443611D01*
X217026Y443977D01*
X216379Y444245D01*
X215698Y444409D01*
X215000Y444464D01*
X214783Y444447D01*
Y445553D01*
X215000Y445536D01*
X215698Y445591D01*
X216379Y445755D01*
X217026Y446023D01*
X217624Y446389D01*
X218156Y446844D01*
X218611Y447376D01*
X218977Y447974D01*
X219245Y448621D01*
X219409Y449302D01*
X219450Y450000D01*
X219409Y450698D01*
X219245Y451379D01*
X218977Y452026D01*
X218611Y452624D01*
X218156Y453156D01*
X217624Y453611D01*
X217026Y453977D01*
X216379Y454245D01*
X215698Y454409D01*
X215000Y454464D01*
X214783Y454447D01*
Y455553D01*
X215000Y455536D01*
X215698Y455591D01*
X216379Y455755D01*
X217026Y456023D01*
X217624Y456389D01*
X218156Y456844D01*
X218611Y457376D01*
X218977Y457974D01*
X219245Y458621D01*
X219409Y459302D01*
X219450Y460000D01*
X219409Y460698D01*
X219245Y461379D01*
X218977Y462026D01*
X218611Y462624D01*
X218156Y463156D01*
X217624Y463611D01*
X217026Y463977D01*
X216379Y464245D01*
X215698Y464409D01*
X215000Y464464D01*
X214783Y464447D01*
Y465553D01*
X215000Y465536D01*
X215698Y465591D01*
X216379Y465755D01*
X217026Y466023D01*
X217624Y466389D01*
X218156Y466844D01*
X218611Y467376D01*
X218977Y467974D01*
X219245Y468621D01*
X219409Y469302D01*
X219450Y470000D01*
X219409Y470698D01*
X219245Y471379D01*
X218977Y472026D01*
X218611Y472624D01*
X218156Y473156D01*
X217624Y473611D01*
X217026Y473977D01*
X216379Y474245D01*
X215698Y474409D01*
X215000Y474464D01*
X214783Y474447D01*
Y475553D01*
X215000Y475536D01*
X215698Y475591D01*
X216379Y475755D01*
X217026Y476023D01*
X217624Y476389D01*
X218156Y476844D01*
X218611Y477376D01*
X218977Y477974D01*
X219245Y478621D01*
X219409Y479302D01*
X219450Y480000D01*
X219409Y480698D01*
X219245Y481379D01*
X218977Y482026D01*
X218611Y482624D01*
X218156Y483156D01*
X217624Y483611D01*
X217026Y483977D01*
X216379Y484245D01*
X215698Y484409D01*
X215000Y484464D01*
X214783Y484447D01*
Y485553D01*
X215000Y485536D01*
X215698Y485591D01*
X216379Y485755D01*
X217026Y486023D01*
X217624Y486389D01*
X218156Y486844D01*
X218611Y487376D01*
X218977Y487974D01*
X219245Y488621D01*
X219409Y489302D01*
X219450Y490000D01*
X219409Y490698D01*
X219245Y491379D01*
X218977Y492026D01*
X218611Y492624D01*
X218156Y493156D01*
X217624Y493611D01*
X217026Y493977D01*
X216379Y494245D01*
X215698Y494409D01*
X215000Y494464D01*
X214783Y494447D01*
Y495553D01*
G37*
G36*
X207504Y503000D02*X211710D01*
X211389Y502624D01*
X211023Y502026D01*
X210755Y501379D01*
X210591Y500698D01*
X210536Y500000D01*
X210591Y499302D01*
X210755Y498621D01*
X211023Y497974D01*
X211389Y497376D01*
X211844Y496844D01*
X212376Y496389D01*
X212974Y496023D01*
X213621Y495755D01*
X214302Y495591D01*
X214783Y495553D01*
Y494447D01*
X214302Y494409D01*
X213621Y494245D01*
X212974Y493977D01*
X212376Y493611D01*
X211844Y493156D01*
X211389Y492624D01*
X211023Y492026D01*
X210755Y491379D01*
X210591Y490698D01*
X210536Y490000D01*
X210591Y489302D01*
X210755Y488621D01*
X211023Y487974D01*
X211389Y487376D01*
X211844Y486844D01*
X212376Y486389D01*
X212974Y486023D01*
X213621Y485755D01*
X214302Y485591D01*
X214783Y485553D01*
Y484447D01*
X214302Y484409D01*
X213621Y484245D01*
X212974Y483977D01*
X212376Y483611D01*
X211844Y483156D01*
X211389Y482624D01*
X211023Y482026D01*
X210755Y481379D01*
X210591Y480698D01*
X210536Y480000D01*
X210591Y479302D01*
X210755Y478621D01*
X211023Y477974D01*
X211389Y477376D01*
X211844Y476844D01*
X212376Y476389D01*
X212974Y476023D01*
X213621Y475755D01*
X214302Y475591D01*
X214783Y475553D01*
Y474447D01*
X214302Y474409D01*
X213621Y474245D01*
X212974Y473977D01*
X212376Y473611D01*
X211844Y473156D01*
X211389Y472624D01*
X211023Y472026D01*
X210755Y471379D01*
X210591Y470698D01*
X210536Y470000D01*
X210591Y469302D01*
X210755Y468621D01*
X211023Y467974D01*
X211389Y467376D01*
X211844Y466844D01*
X212376Y466389D01*
X212974Y466023D01*
X213621Y465755D01*
X214302Y465591D01*
X214783Y465553D01*
Y464447D01*
X214302Y464409D01*
X213621Y464245D01*
X212974Y463977D01*
X212376Y463611D01*
X211844Y463156D01*
X211389Y462624D01*
X211023Y462026D01*
X210755Y461379D01*
X210591Y460698D01*
X210536Y460000D01*
X210591Y459302D01*
X210755Y458621D01*
X211023Y457974D01*
X211389Y457376D01*
X211844Y456844D01*
X212376Y456389D01*
X212974Y456023D01*
X213621Y455755D01*
X214302Y455591D01*
X214783Y455553D01*
Y454447D01*
X214302Y454409D01*
X213621Y454245D01*
X212974Y453977D01*
X212376Y453611D01*
X211844Y453156D01*
X211389Y452624D01*
X211023Y452026D01*
X210755Y451379D01*
X210591Y450698D01*
X210536Y450000D01*
X210591Y449302D01*
X210755Y448621D01*
X211023Y447974D01*
X211389Y447376D01*
X211844Y446844D01*
X212376Y446389D01*
X212974Y446023D01*
X213621Y445755D01*
X214302Y445591D01*
X214783Y445553D01*
Y444447D01*
X214302Y444409D01*
X213621Y444245D01*
X212974Y443977D01*
X212376Y443611D01*
X211844Y443156D01*
X211389Y442624D01*
X211023Y442026D01*
X210755Y441379D01*
X210591Y440698D01*
X210536Y440000D01*
X210591Y439302D01*
X210755Y438621D01*
X211023Y437974D01*
X211389Y437376D01*
X211844Y436844D01*
X212376Y436389D01*
X212974Y436023D01*
X213621Y435755D01*
X214302Y435591D01*
X214783Y435553D01*
Y434447D01*
X214302Y434409D01*
X213621Y434245D01*
X212974Y433977D01*
X212376Y433611D01*
X211844Y433156D01*
X211389Y432624D01*
X211023Y432026D01*
X210755Y431379D01*
X210591Y430698D01*
X210536Y430000D01*
X210591Y429302D01*
X210755Y428621D01*
X211023Y427974D01*
X211389Y427376D01*
X211844Y426844D01*
X212376Y426389D01*
X212974Y426023D01*
X213621Y425755D01*
X214302Y425591D01*
X214783Y425553D01*
Y424447D01*
X214302Y424409D01*
X213621Y424245D01*
X212974Y423977D01*
X212376Y423611D01*
X211844Y423156D01*
X211389Y422624D01*
X211023Y422026D01*
X210755Y421379D01*
X210591Y420698D01*
X210536Y420000D01*
X210591Y419302D01*
X210755Y418621D01*
X211023Y417974D01*
X211389Y417376D01*
X211844Y416844D01*
X212376Y416389D01*
X212974Y416023D01*
X213621Y415755D01*
X214302Y415591D01*
X214783Y415553D01*
Y414447D01*
X214302Y414409D01*
X213621Y414245D01*
X212974Y413977D01*
X212376Y413611D01*
X211844Y413156D01*
X211389Y412624D01*
X211023Y412026D01*
X210755Y411379D01*
X210591Y410698D01*
X210536Y410000D01*
X210591Y409302D01*
X210755Y408621D01*
X211023Y407974D01*
X211389Y407376D01*
X211844Y406844D01*
X212376Y406389D01*
X212974Y406023D01*
X213621Y405755D01*
X214302Y405591D01*
X214783Y405553D01*
Y404447D01*
X214302Y404409D01*
X213621Y404245D01*
X212974Y403977D01*
X212376Y403611D01*
X211844Y403156D01*
X211389Y402624D01*
X211023Y402026D01*
X210755Y401379D01*
X210591Y400698D01*
X210536Y400000D01*
X210591Y399302D01*
X210755Y398621D01*
X211023Y397974D01*
X211389Y397376D01*
X211844Y396844D01*
X212376Y396389D01*
X212974Y396023D01*
X213621Y395755D01*
X214302Y395591D01*
X214783Y395553D01*
Y394447D01*
X214302Y394409D01*
X213621Y394245D01*
X212974Y393977D01*
X212376Y393611D01*
X211844Y393156D01*
X211389Y392624D01*
X211023Y392026D01*
X210755Y391379D01*
X210591Y390698D01*
X210536Y390000D01*
X210591Y389302D01*
X210755Y388621D01*
X211023Y387974D01*
X211389Y387376D01*
X211844Y386844D01*
X212376Y386389D01*
X212974Y386023D01*
X213621Y385755D01*
X214302Y385591D01*
X214783Y385553D01*
Y384447D01*
X214302Y384409D01*
X213621Y384245D01*
X212974Y383977D01*
X212376Y383611D01*
X211844Y383156D01*
X211389Y382624D01*
X211023Y382026D01*
X210755Y381379D01*
X210591Y380698D01*
X210536Y380000D01*
X210591Y379302D01*
X210755Y378621D01*
X211023Y377974D01*
X211389Y377376D01*
X211844Y376844D01*
X212376Y376389D01*
X212974Y376023D01*
X213621Y375755D01*
X214302Y375591D01*
X214783Y375553D01*
Y374447D01*
X214302Y374409D01*
X213621Y374245D01*
X212974Y373977D01*
X212376Y373611D01*
X211844Y373156D01*
X211389Y372624D01*
X211023Y372026D01*
X210755Y371379D01*
X210591Y370698D01*
X210536Y370000D01*
X210591Y369302D01*
X210755Y368621D01*
X211023Y367974D01*
X211389Y367376D01*
X211844Y366844D01*
X212376Y366389D01*
X212974Y366023D01*
X213621Y365755D01*
X214302Y365591D01*
X214783Y365553D01*
Y364447D01*
X214302Y364409D01*
X213621Y364245D01*
X212974Y363977D01*
X212376Y363611D01*
X211844Y363156D01*
X211389Y362624D01*
X211023Y362026D01*
X210755Y361379D01*
X210591Y360698D01*
X210536Y360000D01*
X210591Y359302D01*
X210755Y358621D01*
X211023Y357974D01*
X211389Y357376D01*
X211844Y356844D01*
X212376Y356389D01*
X212974Y356023D01*
X213621Y355755D01*
X214302Y355591D01*
X214783Y355553D01*
Y354447D01*
X214302Y354409D01*
X213621Y354245D01*
X212974Y353977D01*
X212376Y353611D01*
X211844Y353156D01*
X211389Y352624D01*
X211023Y352026D01*
X210755Y351379D01*
X210591Y350698D01*
X210536Y350000D01*
X210591Y349302D01*
X210755Y348621D01*
X211023Y347974D01*
X211389Y347376D01*
X211844Y346844D01*
X212376Y346389D01*
X212974Y346023D01*
X213621Y345755D01*
X214302Y345591D01*
X214783Y345553D01*
Y344447D01*
X214302Y344409D01*
X213621Y344245D01*
X212974Y343977D01*
X212376Y343611D01*
X211844Y343156D01*
X211389Y342624D01*
X211023Y342026D01*
X210755Y341379D01*
X210591Y340698D01*
X210536Y340000D01*
X210591Y339302D01*
X210755Y338621D01*
X211023Y337974D01*
X211389Y337376D01*
X211844Y336844D01*
X212376Y336389D01*
X212974Y336023D01*
X213621Y335755D01*
X214302Y335591D01*
X214783Y335553D01*
Y334447D01*
X214302Y334409D01*
X213621Y334245D01*
X212974Y333977D01*
X212376Y333611D01*
X211844Y333156D01*
X211389Y332624D01*
X211023Y332026D01*
X210755Y331379D01*
X210591Y330698D01*
X210536Y330000D01*
X210591Y329302D01*
X210755Y328621D01*
X211023Y327974D01*
X211389Y327376D01*
X211844Y326844D01*
X212376Y326389D01*
X212974Y326023D01*
X213621Y325755D01*
X214302Y325591D01*
X214783Y325553D01*
Y324447D01*
X214302Y324409D01*
X213621Y324245D01*
X212974Y323977D01*
X212376Y323611D01*
X211844Y323156D01*
X211389Y322624D01*
X211023Y322026D01*
X210755Y321379D01*
X210591Y320698D01*
X210536Y320000D01*
X210591Y319302D01*
X210755Y318621D01*
X211023Y317974D01*
X211389Y317376D01*
X211844Y316844D01*
X212376Y316389D01*
X212974Y316023D01*
X213621Y315755D01*
X214302Y315591D01*
X214783Y315553D01*
Y314447D01*
X214302Y314409D01*
X213621Y314245D01*
X212974Y313977D01*
X212376Y313611D01*
X211844Y313156D01*
X211389Y312624D01*
X211023Y312026D01*
X210755Y311379D01*
X210591Y310698D01*
X210536Y310000D01*
X210591Y309302D01*
X210755Y308621D01*
X211023Y307974D01*
X211389Y307376D01*
X211844Y306844D01*
X212376Y306389D01*
X212974Y306023D01*
X213621Y305755D01*
X214302Y305591D01*
X214783Y305553D01*
Y304447D01*
X214302Y304409D01*
X213621Y304245D01*
X212974Y303977D01*
X212376Y303611D01*
X211844Y303156D01*
X211389Y302624D01*
X211023Y302026D01*
X210755Y301379D01*
X210591Y300698D01*
X210536Y300000D01*
X210591Y299302D01*
X210755Y298621D01*
X211023Y297974D01*
X211389Y297376D01*
X211844Y296844D01*
X212376Y296389D01*
X212974Y296023D01*
X213621Y295755D01*
X214302Y295591D01*
X214783Y295553D01*
Y294447D01*
X214302Y294409D01*
X213621Y294245D01*
X212974Y293977D01*
X212376Y293611D01*
X211844Y293156D01*
X211389Y292624D01*
X211023Y292026D01*
X210755Y291379D01*
X210591Y290698D01*
X210536Y290000D01*
X210591Y289302D01*
X210755Y288621D01*
X211023Y287974D01*
X211389Y287376D01*
X211844Y286844D01*
X212376Y286389D01*
X212974Y286023D01*
X213621Y285755D01*
X214302Y285591D01*
X214783Y285553D01*
Y284447D01*
X214302Y284409D01*
X213621Y284245D01*
X212974Y283977D01*
X212376Y283611D01*
X211844Y283156D01*
X211389Y282624D01*
X211023Y282026D01*
X210755Y281379D01*
X210591Y280698D01*
X210536Y280000D01*
X210591Y279302D01*
X210755Y278621D01*
X211023Y277974D01*
X211389Y277376D01*
X211844Y276844D01*
X212376Y276389D01*
X212974Y276023D01*
X213621Y275755D01*
X214302Y275591D01*
X214783Y275553D01*
Y264680D01*
X214769Y264704D01*
X214326Y265327D01*
X214272Y265386D01*
X214210Y265436D01*
X214140Y265475D01*
X214065Y265504D01*
X213987Y265519D01*
X213907Y265523D01*
X213828Y265514D01*
X213751Y265493D01*
X213678Y265460D01*
X213612Y265416D01*
X213553Y265362D01*
X213503Y265299D01*
X213464Y265230D01*
X213436Y265155D01*
X213420Y265077D01*
X213416Y264997D01*
X213425Y264917D01*
X213447Y264840D01*
X213480Y264768D01*
X213525Y264702D01*
X213923Y264156D01*
X214264Y263573D01*
X214553Y262962D01*
X214783Y262339D01*
Y257661D01*
X214553Y257038D01*
X214264Y256427D01*
X213923Y255844D01*
X213531Y255293D01*
X213486Y255229D01*
X213454Y255157D01*
X213433Y255081D01*
X213424Y255003D01*
X213427Y254924D01*
X213443Y254847D01*
X213470Y254774D01*
X213509Y254705D01*
X213558Y254644D01*
X213616Y254590D01*
X213682Y254547D01*
X213754Y254514D01*
X213829Y254493D01*
X213908Y254485D01*
X213986Y254488D01*
X214063Y254504D01*
X214137Y254531D01*
X214206Y254570D01*
X214267Y254619D01*
X214319Y254678D01*
X214769Y255296D01*
X214783Y255320D01*
Y10000D01*
X207504D01*
Y251350D01*
X207882D01*
X208644Y251418D01*
X209397Y251552D01*
X210135Y251752D01*
X210853Y252017D01*
X211544Y252344D01*
X212204Y252731D01*
X212827Y253174D01*
X212886Y253228D01*
X212936Y253290D01*
X212975Y253360D01*
X213003Y253435D01*
X213019Y253513D01*
X213023Y253593D01*
X213014Y253672D01*
X212993Y253749D01*
X212960Y253822D01*
X212916Y253888D01*
X212862Y253947D01*
X212799Y253997D01*
X212730Y254036D01*
X212655Y254064D01*
X212577Y254080D01*
X212497Y254084D01*
X212417Y254075D01*
X212340Y254053D01*
X212268Y254020D01*
X212202Y253975D01*
X211656Y253577D01*
X211073Y253236D01*
X210462Y252947D01*
X209828Y252713D01*
X209176Y252536D01*
X208511Y252417D01*
X207838Y252357D01*
X207504D01*
Y267643D01*
X207838D01*
X208511Y267583D01*
X209176Y267464D01*
X209828Y267287D01*
X210462Y267053D01*
X211073Y266764D01*
X211656Y266423D01*
X212207Y266031D01*
X212271Y265986D01*
X212343Y265954D01*
X212419Y265933D01*
X212497Y265924D01*
X212576Y265927D01*
X212653Y265943D01*
X212726Y265970D01*
X212795Y266009D01*
X212856Y266058D01*
X212910Y266116D01*
X212953Y266182D01*
X212986Y266254D01*
X213007Y266329D01*
X213015Y266408D01*
X213012Y266486D01*
X212996Y266563D01*
X212969Y266637D01*
X212930Y266706D01*
X212881Y266767D01*
X212822Y266819D01*
X212204Y267269D01*
X211544Y267656D01*
X210853Y267983D01*
X210135Y268248D01*
X209397Y268448D01*
X208644Y268583D01*
X207882Y268650D01*
X207504D01*
Y503000D01*
G37*
G36*
X202983Y182614D02*X203126Y182086D01*
X203237Y181457D01*
X203293Y180820D01*
Y180180D01*
X203237Y179543D01*
X203126Y178914D01*
X202983Y178386D01*
Y182614D01*
G37*
G36*
Y37614D02*X203126Y37086D01*
X203237Y36457D01*
X203293Y35820D01*
Y35180D01*
X203237Y34543D01*
X203126Y33914D01*
X202983Y33386D01*
Y37614D01*
G37*
G36*
Y252621D02*X203456Y252344D01*
X204147Y252017D01*
X204865Y251752D01*
X205603Y251552D01*
X206356Y251418D01*
X207118Y251350D01*
X207504D01*
Y10000D01*
X202983D01*
Y31002D01*
X202996Y31020D01*
X203362Y31649D01*
X203670Y32308D01*
X203920Y32992D01*
X204109Y33695D01*
X204236Y34411D01*
X204300Y35136D01*
Y35864D01*
X204236Y36589D01*
X204109Y37305D01*
X203920Y38008D01*
X203670Y38692D01*
X203362Y39351D01*
X202996Y39980D01*
X202983Y39999D01*
Y176002D01*
X202996Y176020D01*
X203362Y176649D01*
X203670Y177308D01*
X203920Y177992D01*
X204109Y178695D01*
X204236Y179411D01*
X204300Y180136D01*
Y180864D01*
X204236Y181589D01*
X204109Y182305D01*
X203920Y183008D01*
X203670Y183692D01*
X203362Y184351D01*
X202996Y184980D01*
X202983Y184999D01*
Y252621D01*
G37*
G36*
Y266160D02*X203344Y266423D01*
X203927Y266764D01*
X204538Y267053D01*
X205172Y267287D01*
X205824Y267464D01*
X206489Y267583D01*
X207162Y267643D01*
X207504D01*
Y252357D01*
X207162D01*
X206489Y252417D01*
X205824Y252536D01*
X205172Y252713D01*
X204538Y252947D01*
X203927Y253236D01*
X203344Y253577D01*
X202983Y253834D01*
Y266160D01*
G37*
G36*
Y503000D02*X207504D01*
Y268650D01*
X207118D01*
X206356Y268583D01*
X205603Y268448D01*
X204865Y268248D01*
X204147Y267983D01*
X203456Y267656D01*
X202983Y267379D01*
Y503000D01*
G37*
G36*
X200217D02*X202983D01*
Y267379D01*
X202796Y267269D01*
X202173Y266826D01*
X202114Y266772D01*
X202064Y266710D01*
X202025Y266640D01*
X201996Y266565D01*
X201981Y266487D01*
X201977Y266407D01*
X201986Y266328D01*
X202007Y266251D01*
X202040Y266178D01*
X202084Y266112D01*
X202138Y266053D01*
X202201Y266003D01*
X202270Y265964D01*
X202345Y265936D01*
X202423Y265920D01*
X202503Y265916D01*
X202583Y265925D01*
X202660Y265947D01*
X202732Y265980D01*
X202798Y266025D01*
X202983Y266160D01*
Y253834D01*
X202793Y253969D01*
X202729Y254014D01*
X202657Y254046D01*
X202581Y254067D01*
X202503Y254076D01*
X202424Y254073D01*
X202347Y254057D01*
X202274Y254030D01*
X202205Y253991D01*
X202143Y253942D01*
X202090Y253884D01*
X202047Y253818D01*
X202014Y253746D01*
X201993Y253671D01*
X201984Y253592D01*
X201988Y253514D01*
X202004Y253437D01*
X202031Y253363D01*
X202070Y253294D01*
X202119Y253233D01*
X202178Y253181D01*
X202796Y252731D01*
X202983Y252621D01*
Y184999D01*
X202578Y185575D01*
X202524Y185635D01*
X202462Y185685D01*
X202393Y185725D01*
X202318Y185753D01*
X202240Y185769D01*
X202161Y185773D01*
X202081Y185765D01*
X202004Y185744D01*
X201931Y185711D01*
X201865Y185668D01*
X201805Y185614D01*
X201755Y185552D01*
X201716Y185483D01*
X201687Y185408D01*
X201671Y185330D01*
X201667Y185250D01*
X201676Y185171D01*
X201696Y185094D01*
X201729Y185021D01*
X201774Y184955D01*
X202148Y184437D01*
X202469Y183884D01*
X202740Y183304D01*
X202959Y182704D01*
X202983Y182614D01*
Y178386D01*
X202959Y178296D01*
X202740Y177696D01*
X202469Y177116D01*
X202148Y176563D01*
X201779Y176040D01*
X201735Y175976D01*
X201703Y175904D01*
X201682Y175828D01*
X201674Y175749D01*
X201678Y175671D01*
X201694Y175594D01*
X201722Y175520D01*
X201761Y175452D01*
X201811Y175391D01*
X201869Y175338D01*
X201935Y175295D01*
X202007Y175263D01*
X202083Y175242D01*
X202161Y175234D01*
X202239Y175238D01*
X202316Y175254D01*
X202390Y175282D01*
X202458Y175321D01*
X202520Y175370D01*
X202571Y175430D01*
X202983Y176002D01*
Y39999D01*
X202578Y40575D01*
X202524Y40635D01*
X202462Y40685D01*
X202393Y40725D01*
X202318Y40753D01*
X202240Y40769D01*
X202161Y40773D01*
X202081Y40765D01*
X202004Y40744D01*
X201931Y40711D01*
X201865Y40668D01*
X201805Y40614D01*
X201755Y40552D01*
X201716Y40483D01*
X201687Y40408D01*
X201671Y40330D01*
X201667Y40250D01*
X201676Y40171D01*
X201696Y40094D01*
X201729Y40021D01*
X201774Y39955D01*
X202148Y39437D01*
X202469Y38884D01*
X202740Y38304D01*
X202959Y37704D01*
X202983Y37614D01*
Y33386D01*
X202959Y33296D01*
X202740Y32696D01*
X202469Y32116D01*
X202148Y31563D01*
X201779Y31040D01*
X201735Y30976D01*
X201703Y30904D01*
X201682Y30828D01*
X201674Y30749D01*
X201678Y30671D01*
X201694Y30594D01*
X201722Y30520D01*
X201761Y30452D01*
X201811Y30391D01*
X201869Y30338D01*
X201935Y30295D01*
X202007Y30263D01*
X202083Y30242D01*
X202161Y30234D01*
X202239Y30238D01*
X202316Y30254D01*
X202390Y30282D01*
X202458Y30321D01*
X202520Y30370D01*
X202571Y30430D01*
X202983Y31002D01*
Y10000D01*
X200217D01*
Y28351D01*
X200480Y28504D01*
X201075Y28923D01*
X201135Y28976D01*
X201185Y29038D01*
X201225Y29107D01*
X201253Y29182D01*
X201269Y29260D01*
X201273Y29339D01*
X201265Y29419D01*
X201244Y29496D01*
X201211Y29569D01*
X201168Y29635D01*
X201114Y29695D01*
X201052Y29745D01*
X200983Y29784D01*
X200908Y29813D01*
X200830Y29829D01*
X200750Y29833D01*
X200671Y29824D01*
X200594Y29804D01*
X200521Y29771D01*
X200455Y29726D01*
X200217Y29554D01*
Y41450D01*
X200460Y41279D01*
X200524Y41235D01*
X200596Y41203D01*
X200672Y41182D01*
X200751Y41174D01*
X200829Y41178D01*
X200906Y41194D01*
X200980Y41222D01*
X201048Y41261D01*
X201109Y41311D01*
X201162Y41369D01*
X201205Y41435D01*
X201237Y41507D01*
X201258Y41583D01*
X201266Y41661D01*
X201262Y41739D01*
X201246Y41816D01*
X201218Y41890D01*
X201179Y41958D01*
X201130Y42020D01*
X201070Y42071D01*
X200480Y42496D01*
X200217Y42649D01*
Y173351D01*
X200480Y173504D01*
X201075Y173922D01*
X201135Y173976D01*
X201185Y174038D01*
X201225Y174107D01*
X201253Y174182D01*
X201269Y174260D01*
X201273Y174339D01*
X201265Y174419D01*
X201244Y174496D01*
X201211Y174569D01*
X201168Y174635D01*
X201114Y174695D01*
X201052Y174745D01*
X200983Y174784D01*
X200908Y174813D01*
X200830Y174829D01*
X200750Y174833D01*
X200671Y174824D01*
X200594Y174804D01*
X200521Y174771D01*
X200455Y174726D01*
X200217Y174554D01*
Y186450D01*
X200460Y186279D01*
X200524Y186235D01*
X200596Y186203D01*
X200672Y186182D01*
X200751Y186174D01*
X200829Y186178D01*
X200906Y186194D01*
X200980Y186222D01*
X201048Y186261D01*
X201109Y186311D01*
X201162Y186369D01*
X201205Y186435D01*
X201237Y186507D01*
X201258Y186583D01*
X201266Y186661D01*
X201262Y186739D01*
X201246Y186816D01*
X201218Y186890D01*
X201179Y186958D01*
X201130Y187020D01*
X201070Y187071D01*
X200480Y187496D01*
X200217Y187649D01*
Y255320D01*
X200231Y255296D01*
X200674Y254673D01*
X200728Y254614D01*
X200790Y254564D01*
X200860Y254525D01*
X200935Y254497D01*
X201013Y254481D01*
X201093Y254477D01*
X201172Y254486D01*
X201249Y254507D01*
X201322Y254540D01*
X201388Y254584D01*
X201447Y254638D01*
X201497Y254701D01*
X201536Y254770D01*
X201564Y254845D01*
X201580Y254923D01*
X201584Y255003D01*
X201575Y255083D01*
X201553Y255160D01*
X201520Y255232D01*
X201475Y255298D01*
X201077Y255844D01*
X200736Y256427D01*
X200447Y257038D01*
X200217Y257661D01*
Y262339D01*
X200447Y262962D01*
X200736Y263573D01*
X201077Y264156D01*
X201469Y264707D01*
X201514Y264771D01*
X201546Y264843D01*
X201567Y264919D01*
X201576Y264997D01*
X201573Y265076D01*
X201557Y265153D01*
X201530Y265226D01*
X201491Y265295D01*
X201442Y265357D01*
X201384Y265410D01*
X201318Y265453D01*
X201246Y265486D01*
X201171Y265507D01*
X201092Y265516D01*
X201014Y265512D01*
X200937Y265496D01*
X200863Y265469D01*
X200794Y265430D01*
X200733Y265381D01*
X200681Y265322D01*
X200231Y264704D01*
X200217Y264680D01*
Y503000D01*
G37*
G36*
Y257661D02*X200213Y257672D01*
X200036Y258324D01*
X199917Y258989D01*
X199857Y259662D01*
Y260338D01*
X199917Y261011D01*
X200036Y261676D01*
X200213Y262328D01*
X200217Y262339D01*
Y257661D01*
G37*
G36*
X189017Y503000D02*X200217D01*
Y264680D01*
X199844Y264044D01*
X199517Y263353D01*
X199252Y262635D01*
X199052Y261897D01*
X198917Y261144D01*
X198850Y260382D01*
Y259618D01*
X198917Y258856D01*
X199052Y258103D01*
X199252Y257365D01*
X199517Y256647D01*
X199844Y255956D01*
X200217Y255320D01*
Y187649D01*
X199851Y187862D01*
X199192Y188170D01*
X198508Y188420D01*
X197805Y188609D01*
X197089Y188736D01*
X196364Y188800D01*
X195636D01*
X194911Y188736D01*
X194195Y188609D01*
X193492Y188420D01*
X192808Y188170D01*
X192149Y187862D01*
X191520Y187496D01*
X190925Y187078D01*
X190865Y187024D01*
X190815Y186962D01*
X190775Y186893D01*
X190747Y186818D01*
X190731Y186740D01*
X190727Y186661D01*
X190735Y186581D01*
X190756Y186504D01*
X190789Y186431D01*
X190832Y186365D01*
X190886Y186305D01*
X190948Y186255D01*
X191017Y186216D01*
X191092Y186187D01*
X191170Y186171D01*
X191250Y186167D01*
X191329Y186176D01*
X191406Y186196D01*
X191479Y186229D01*
X191545Y186274D01*
X192063Y186648D01*
X192616Y186969D01*
X193196Y187240D01*
X193796Y187459D01*
X194414Y187626D01*
X195043Y187737D01*
X195680Y187793D01*
X196320D01*
X196957Y187737D01*
X197586Y187626D01*
X198204Y187459D01*
X198804Y187240D01*
X199384Y186969D01*
X199937Y186648D01*
X200217Y186450D01*
Y174554D01*
X199937Y174352D01*
X199384Y174031D01*
X198804Y173760D01*
X198204Y173541D01*
X197586Y173374D01*
X196957Y173263D01*
X196320Y173207D01*
X195680D01*
X195043Y173263D01*
X194414Y173374D01*
X193796Y173541D01*
X193196Y173760D01*
X192616Y174031D01*
X192063Y174352D01*
X191540Y174721D01*
X191475Y174765D01*
X191404Y174797D01*
X191328Y174818D01*
X191249Y174826D01*
X191171Y174822D01*
X191094Y174806D01*
X191020Y174778D01*
X190952Y174739D01*
X190891Y174689D01*
X190838Y174631D01*
X190795Y174565D01*
X190763Y174493D01*
X190742Y174417D01*
X190734Y174339D01*
X190738Y174261D01*
X190754Y174184D01*
X190782Y174110D01*
X190821Y174042D01*
X190870Y173980D01*
X190930Y173929D01*
X191520Y173504D01*
X192149Y173138D01*
X192808Y172830D01*
X193492Y172580D01*
X194195Y172391D01*
X194911Y172264D01*
X195636Y172200D01*
X196364D01*
X197089Y172264D01*
X197805Y172391D01*
X198508Y172580D01*
X199192Y172830D01*
X199851Y173138D01*
X200217Y173351D01*
Y42649D01*
X199851Y42862D01*
X199192Y43170D01*
X198508Y43420D01*
X197805Y43609D01*
X197089Y43736D01*
X196364Y43800D01*
X195636D01*
X194911Y43736D01*
X194195Y43609D01*
X193492Y43420D01*
X192808Y43170D01*
X192149Y42862D01*
X191520Y42496D01*
X190925Y42078D01*
X190865Y42024D01*
X190815Y41962D01*
X190775Y41893D01*
X190747Y41818D01*
X190731Y41740D01*
X190727Y41661D01*
X190735Y41581D01*
X190756Y41504D01*
X190789Y41431D01*
X190832Y41365D01*
X190886Y41305D01*
X190948Y41255D01*
X191017Y41216D01*
X191092Y41187D01*
X191170Y41171D01*
X191250Y41167D01*
X191329Y41176D01*
X191406Y41196D01*
X191479Y41229D01*
X191545Y41274D01*
X192063Y41648D01*
X192616Y41969D01*
X193196Y42240D01*
X193796Y42459D01*
X194414Y42626D01*
X195043Y42737D01*
X195680Y42793D01*
X196320D01*
X196957Y42737D01*
X197586Y42626D01*
X198204Y42459D01*
X198804Y42240D01*
X199384Y41969D01*
X199937Y41648D01*
X200217Y41450D01*
Y29554D01*
X199937Y29352D01*
X199384Y29031D01*
X198804Y28760D01*
X198204Y28541D01*
X197586Y28374D01*
X196957Y28263D01*
X196320Y28207D01*
X195680D01*
X195043Y28263D01*
X194414Y28374D01*
X193796Y28541D01*
X193196Y28760D01*
X192616Y29031D01*
X192063Y29352D01*
X191540Y29721D01*
X191475Y29765D01*
X191404Y29797D01*
X191328Y29818D01*
X191249Y29826D01*
X191171Y29822D01*
X191094Y29806D01*
X191020Y29778D01*
X190952Y29739D01*
X190891Y29689D01*
X190838Y29631D01*
X190795Y29565D01*
X190763Y29493D01*
X190742Y29417D01*
X190734Y29339D01*
X190738Y29261D01*
X190754Y29184D01*
X190782Y29110D01*
X190821Y29042D01*
X190870Y28980D01*
X190930Y28929D01*
X191520Y28504D01*
X192149Y28138D01*
X192808Y27830D01*
X193492Y27580D01*
X194195Y27391D01*
X194911Y27264D01*
X195636Y27200D01*
X196364D01*
X197089Y27264D01*
X197805Y27391D01*
X198508Y27580D01*
X199192Y27830D01*
X199851Y28138D01*
X200217Y28351D01*
Y10000D01*
X189017D01*
Y31001D01*
X189422Y30425D01*
X189476Y30365D01*
X189538Y30315D01*
X189607Y30275D01*
X189682Y30247D01*
X189760Y30231D01*
X189839Y30227D01*
X189919Y30235D01*
X189996Y30256D01*
X190069Y30289D01*
X190135Y30332D01*
X190195Y30386D01*
X190245Y30448D01*
X190284Y30517D01*
X190313Y30592D01*
X190329Y30670D01*
X190333Y30750D01*
X190324Y30829D01*
X190304Y30906D01*
X190271Y30979D01*
X190226Y31045D01*
X189852Y31563D01*
X189531Y32116D01*
X189260Y32696D01*
X189041Y33296D01*
X189017Y33386D01*
Y37614D01*
X189041Y37704D01*
X189260Y38304D01*
X189531Y38884D01*
X189852Y39437D01*
X190221Y39960D01*
X190265Y40025D01*
X190297Y40096D01*
X190318Y40172D01*
X190326Y40251D01*
X190322Y40329D01*
X190306Y40406D01*
X190278Y40480D01*
X190239Y40548D01*
X190189Y40609D01*
X190131Y40662D01*
X190065Y40705D01*
X189993Y40737D01*
X189917Y40758D01*
X189839Y40766D01*
X189761Y40762D01*
X189684Y40746D01*
X189610Y40718D01*
X189542Y40679D01*
X189480Y40630D01*
X189429Y40570D01*
X189017Y39998D01*
Y176001D01*
X189422Y175425D01*
X189476Y175365D01*
X189538Y175315D01*
X189607Y175275D01*
X189682Y175247D01*
X189760Y175231D01*
X189839Y175227D01*
X189919Y175235D01*
X189996Y175256D01*
X190069Y175289D01*
X190135Y175332D01*
X190195Y175386D01*
X190245Y175448D01*
X190284Y175517D01*
X190313Y175592D01*
X190329Y175670D01*
X190333Y175750D01*
X190324Y175829D01*
X190304Y175906D01*
X190271Y175979D01*
X190226Y176045D01*
X189852Y176563D01*
X189531Y177116D01*
X189260Y177696D01*
X189041Y178296D01*
X189017Y178386D01*
Y182614D01*
X189041Y182704D01*
X189260Y183304D01*
X189531Y183884D01*
X189852Y184437D01*
X190221Y184960D01*
X190265Y185025D01*
X190297Y185096D01*
X190318Y185172D01*
X190326Y185251D01*
X190322Y185329D01*
X190306Y185406D01*
X190278Y185480D01*
X190239Y185548D01*
X190189Y185609D01*
X190131Y185662D01*
X190065Y185705D01*
X189993Y185737D01*
X189917Y185758D01*
X189839Y185766D01*
X189761Y185762D01*
X189684Y185746D01*
X189610Y185718D01*
X189542Y185679D01*
X189480Y185630D01*
X189429Y185570D01*
X189017Y184998D01*
Y503000D01*
G37*
G36*
Y178386D02*X188874Y178914D01*
X188763Y179543D01*
X188707Y180180D01*
Y180820D01*
X188763Y181457D01*
X188874Y182086D01*
X189017Y182614D01*
Y178386D01*
G37*
G36*
Y33386D02*X188874Y33914D01*
X188763Y34543D01*
X188707Y35180D01*
Y35820D01*
X188763Y36457D01*
X188874Y37086D01*
X189017Y37614D01*
Y33386D01*
G37*
G36*
X173991Y503000D02*X189017D01*
Y184998D01*
X189004Y184980D01*
X188638Y184351D01*
X188330Y183692D01*
X188080Y183008D01*
X187891Y182305D01*
X187764Y181589D01*
X187700Y180864D01*
Y180136D01*
X187764Y179411D01*
X187891Y178695D01*
X188080Y177992D01*
X188330Y177308D01*
X188638Y176649D01*
X189004Y176020D01*
X189017Y176001D01*
Y39998D01*
X189004Y39980D01*
X188638Y39351D01*
X188330Y38692D01*
X188080Y38008D01*
X187891Y37305D01*
X187764Y36589D01*
X187700Y35864D01*
Y35136D01*
X187764Y34411D01*
X187891Y33695D01*
X188080Y32992D01*
X188330Y32308D01*
X188638Y31649D01*
X189004Y31020D01*
X189017Y31001D01*
Y10000D01*
X173991D01*
Y206982D01*
X174000Y206981D01*
X174942Y207056D01*
X175860Y207276D01*
X176732Y207637D01*
X177538Y208131D01*
X178256Y208744D01*
X178869Y209462D01*
X179363Y210268D01*
X179724Y211140D01*
X179944Y212058D01*
X180000Y213000D01*
X179944Y213942D01*
X179724Y214860D01*
X179363Y215732D01*
X178869Y216538D01*
X178256Y217256D01*
X177538Y217869D01*
X176732Y218363D01*
X175860Y218724D01*
X174942Y218944D01*
X174000Y219019D01*
X173991Y219018D01*
Y503000D01*
G37*
G36*
X157284D02*X173991D01*
Y219018D01*
X173058Y218944D01*
X172140Y218724D01*
X171268Y218363D01*
X170462Y217869D01*
X169744Y217256D01*
X169131Y216538D01*
X168637Y215732D01*
X168276Y214860D01*
X168056Y213942D01*
X167981Y213000D01*
X168056Y212058D01*
X168276Y211140D01*
X168637Y210268D01*
X169131Y209462D01*
X169744Y208744D01*
X170462Y208131D01*
X171268Y207637D01*
X172140Y207276D01*
X173058Y207056D01*
X173991Y206982D01*
Y10000D01*
X157284D01*
Y181869D01*
X157287Y181870D01*
X157355Y181909D01*
X157416Y181958D01*
X157469Y182017D01*
X157511Y182083D01*
X157674Y182408D01*
X157803Y182748D01*
X157901Y183098D01*
X157967Y183456D01*
X158000Y183818D01*
Y184182D01*
X157967Y184544D01*
X157901Y184902D01*
X157803Y185252D01*
X157674Y185592D01*
X157515Y185919D01*
X157472Y185985D01*
X157419Y186044D01*
X157357Y186094D01*
X157288Y186133D01*
X157284Y186135D01*
Y207975D01*
X157538Y208131D01*
X158256Y208744D01*
X158869Y209462D01*
X159363Y210268D01*
X159724Y211140D01*
X159944Y212058D01*
X160000Y213000D01*
X159944Y213942D01*
X159724Y214860D01*
X159363Y215732D01*
X158869Y216538D01*
X158256Y217256D01*
X157538Y217869D01*
X157284Y218025D01*
Y503000D01*
G37*
G36*
Y10000D02*X153991D01*
Y180000D01*
X154182D01*
X154544Y180033D01*
X154902Y180099D01*
X155252Y180197D01*
X155592Y180326D01*
X155919Y180485D01*
X155985Y180528D01*
X156044Y180581D01*
X156094Y180643D01*
X156133Y180712D01*
X156161Y180786D01*
X156177Y180863D01*
X156181Y180942D01*
X156173Y181021D01*
X156152Y181097D01*
X156120Y181170D01*
X156077Y181236D01*
X156024Y181295D01*
X155962Y181344D01*
X155893Y181384D01*
X155819Y181412D01*
X155742Y181428D01*
X155663Y181432D01*
X155584Y181424D01*
X155507Y181403D01*
X155436Y181370D01*
X155193Y181247D01*
X154938Y181150D01*
X154676Y181077D01*
X154408Y181028D01*
X154136Y181003D01*
X153991D01*
Y186997D01*
X154136D01*
X154408Y186972D01*
X154676Y186923D01*
X154938Y186850D01*
X155193Y186753D01*
X155437Y186633D01*
X155509Y186600D01*
X155584Y186579D01*
X155663Y186571D01*
X155741Y186575D01*
X155818Y186591D01*
X155892Y186619D01*
X155960Y186658D01*
X156021Y186707D01*
X156074Y186766D01*
X156117Y186832D01*
X156149Y186904D01*
X156170Y186980D01*
X156178Y187058D01*
X156174Y187136D01*
X156158Y187213D01*
X156130Y187287D01*
X156091Y187355D01*
X156042Y187416D01*
X155983Y187469D01*
X155917Y187511D01*
X155592Y187674D01*
X155252Y187803D01*
X154902Y187901D01*
X154544Y187967D01*
X154182Y188000D01*
X153991D01*
Y206982D01*
X154000Y206981D01*
X154942Y207056D01*
X155860Y207276D01*
X156732Y207637D01*
X157284Y207975D01*
Y186135D01*
X157214Y186161D01*
X157137Y186177D01*
X157058Y186181D01*
X156979Y186173D01*
X156903Y186152D01*
X156830Y186120D01*
X156764Y186077D01*
X156705Y186024D01*
X156656Y185962D01*
X156616Y185893D01*
X156588Y185819D01*
X156572Y185742D01*
X156568Y185663D01*
X156576Y185584D01*
X156597Y185507D01*
X156630Y185436D01*
X156753Y185193D01*
X156850Y184938D01*
X156923Y184676D01*
X156972Y184408D01*
X156997Y184136D01*
Y183864D01*
X156972Y183592D01*
X156923Y183324D01*
X156850Y183062D01*
X156753Y182807D01*
X156633Y182563D01*
X156600Y182491D01*
X156579Y182416D01*
X156571Y182337D01*
X156575Y182259D01*
X156591Y182182D01*
X156619Y182108D01*
X156658Y182040D01*
X156707Y181979D01*
X156766Y181926D01*
X156832Y181883D01*
X156904Y181851D01*
X156980Y181830D01*
X157058Y181822D01*
X157136Y181826D01*
X157213Y181842D01*
X157284Y181869D01*
Y10000D01*
G37*
G36*
X153991Y503000D02*X157284D01*
Y218025D01*
X156732Y218363D01*
X155860Y218724D01*
X154942Y218944D01*
X154000Y219019D01*
X153991Y219018D01*
Y503000D01*
G37*
G36*
X150716Y207975D02*X151268Y207637D01*
X152140Y207276D01*
X153058Y207056D01*
X153991Y206982D01*
Y188000D01*
X153818D01*
X153456Y187967D01*
X153098Y187901D01*
X152748Y187803D01*
X152408Y187674D01*
X152081Y187515D01*
X152015Y187472D01*
X151956Y187419D01*
X151906Y187357D01*
X151867Y187288D01*
X151839Y187214D01*
X151823Y187137D01*
X151819Y187058D01*
X151827Y186979D01*
X151848Y186903D01*
X151880Y186830D01*
X151923Y186764D01*
X151976Y186705D01*
X152038Y186656D01*
X152107Y186616D01*
X152181Y186588D01*
X152258Y186572D01*
X152337Y186568D01*
X152416Y186576D01*
X152493Y186597D01*
X152564Y186630D01*
X152807Y186753D01*
X153062Y186850D01*
X153324Y186923D01*
X153592Y186972D01*
X153864Y186997D01*
X153991D01*
Y181003D01*
X153864D01*
X153592Y181028D01*
X153324Y181077D01*
X153062Y181150D01*
X152807Y181247D01*
X152563Y181367D01*
X152491Y181400D01*
X152415Y181421D01*
X152337Y181429D01*
X152259Y181425D01*
X152182Y181409D01*
X152108Y181381D01*
X152040Y181342D01*
X151979Y181293D01*
X151926Y181234D01*
X151883Y181168D01*
X151851Y181096D01*
X151830Y181020D01*
X151822Y180942D01*
X151826Y180864D01*
X151842Y180787D01*
X151870Y180713D01*
X151909Y180645D01*
X151958Y180584D01*
X152017Y180531D01*
X152083Y180489D01*
X152408Y180326D01*
X152748Y180197D01*
X153098Y180099D01*
X153456Y180033D01*
X153818Y180000D01*
X153991D01*
Y10000D01*
X150716D01*
Y181865D01*
X150786Y181839D01*
X150863Y181823D01*
X150942Y181819D01*
X151021Y181827D01*
X151097Y181848D01*
X151170Y181880D01*
X151236Y181923D01*
X151295Y181976D01*
X151344Y182038D01*
X151384Y182107D01*
X151412Y182181D01*
X151428Y182258D01*
X151432Y182337D01*
X151424Y182416D01*
X151403Y182493D01*
X151370Y182564D01*
X151247Y182807D01*
X151150Y183062D01*
X151077Y183324D01*
X151028Y183592D01*
X151003Y183864D01*
Y184136D01*
X151028Y184408D01*
X151077Y184676D01*
X151150Y184938D01*
X151247Y185193D01*
X151367Y185437D01*
X151400Y185509D01*
X151421Y185585D01*
X151429Y185663D01*
X151425Y185741D01*
X151409Y185818D01*
X151381Y185892D01*
X151342Y185960D01*
X151293Y186021D01*
X151234Y186074D01*
X151168Y186117D01*
X151096Y186149D01*
X151020Y186170D01*
X150942Y186178D01*
X150864Y186174D01*
X150787Y186158D01*
X150716Y186131D01*
Y207975D01*
G37*
G36*
Y503000D02*X153991D01*
Y219018D01*
X153058Y218944D01*
X152140Y218724D01*
X151268Y218363D01*
X150716Y218025D01*
Y503000D01*
G37*
G36*
X133991D02*X150716D01*
Y218025D01*
X150462Y217869D01*
X149744Y217256D01*
X149131Y216538D01*
X148637Y215732D01*
X148276Y214860D01*
X148056Y213942D01*
X147981Y213000D01*
X148056Y212058D01*
X148276Y211140D01*
X148637Y210268D01*
X149131Y209462D01*
X149744Y208744D01*
X150462Y208131D01*
X150716Y207975D01*
Y186131D01*
X150713Y186130D01*
X150645Y186091D01*
X150584Y186042D01*
X150531Y185983D01*
X150489Y185917D01*
X150326Y185592D01*
X150197Y185252D01*
X150099Y184902D01*
X150033Y184544D01*
X150000Y184182D01*
Y183818D01*
X150033Y183456D01*
X150099Y183098D01*
X150197Y182748D01*
X150326Y182408D01*
X150485Y182081D01*
X150528Y182015D01*
X150581Y181956D01*
X150643Y181906D01*
X150712Y181867D01*
X150716Y181865D01*
Y10000D01*
X133991D01*
Y206982D01*
X134000Y206981D01*
X134942Y207056D01*
X135860Y207276D01*
X136732Y207637D01*
X137538Y208131D01*
X138256Y208744D01*
X138869Y209462D01*
X139363Y210268D01*
X139724Y211140D01*
X139944Y212058D01*
X140000Y213000D01*
X139944Y213942D01*
X139724Y214860D01*
X139363Y215732D01*
X138869Y216538D01*
X138256Y217256D01*
X137538Y217869D01*
X136732Y218363D01*
X135860Y218724D01*
X134942Y218944D01*
X134000Y219019D01*
X133991Y219018D01*
Y503000D01*
G37*
G36*
X115994D02*X133991D01*
Y219018D01*
X133058Y218944D01*
X132140Y218724D01*
X131268Y218363D01*
X130462Y217869D01*
X129744Y217256D01*
X129131Y216538D01*
X128637Y215732D01*
X128276Y214860D01*
X128056Y213942D01*
X127981Y213000D01*
X128056Y212058D01*
X128276Y211140D01*
X128637Y210268D01*
X129131Y209462D01*
X129744Y208744D01*
X130462Y208131D01*
X131268Y207637D01*
X132140Y207276D01*
X133058Y207056D01*
X133991Y206982D01*
Y10000D01*
X115994D01*
Y208236D01*
X116000Y208235D01*
X116745Y208294D01*
X117472Y208469D01*
X118163Y208755D01*
X118801Y209145D01*
X119369Y209631D01*
X119855Y210199D01*
X120245Y210837D01*
X120531Y211528D01*
X120706Y212255D01*
X120750Y213000D01*
X120706Y213745D01*
X120531Y214472D01*
X120245Y215163D01*
X119855Y215801D01*
X119369Y216369D01*
X118801Y216855D01*
X118163Y217245D01*
X117472Y217531D01*
X116745Y217706D01*
X116000Y217765D01*
X115994Y217764D01*
Y242988D01*
X116000Y242988D01*
X116628Y243037D01*
X117240Y243184D01*
X117822Y243425D01*
X118358Y243754D01*
X118837Y244163D01*
X119246Y244642D01*
X119575Y245178D01*
X119816Y245760D01*
X119963Y246372D01*
X120000Y247000D01*
X119963Y247628D01*
X119816Y248240D01*
X119575Y248822D01*
X119246Y249358D01*
X119000Y249646D01*
Y352354D01*
X119246Y352642D01*
X119575Y353178D01*
X119816Y353760D01*
X119963Y354372D01*
X120000Y355000D01*
X119963Y355628D01*
X119816Y356240D01*
X119575Y356822D01*
X119246Y357358D01*
X118837Y357837D01*
X118358Y358246D01*
X117822Y358575D01*
X117240Y358816D01*
X116628Y358963D01*
X116000Y359012D01*
X115994Y359012D01*
Y503000D01*
G37*
G36*
X57983Y182614D02*X58126Y182086D01*
X58237Y181457D01*
X58293Y180820D01*
Y180180D01*
X58237Y179543D01*
X58126Y178914D01*
X57983Y178386D01*
Y182614D01*
G37*
G36*
Y37614D02*X58126Y37086D01*
X58237Y36457D01*
X58293Y35820D01*
Y35180D01*
X58237Y34543D01*
X58126Y33914D01*
X57983Y33386D01*
Y37614D01*
G37*
G36*
X105993Y503000D02*X115994D01*
Y359012D01*
X115372Y358963D01*
X114760Y358816D01*
X114178Y358575D01*
X113642Y358246D01*
X113163Y357837D01*
X112754Y357358D01*
X112425Y356822D01*
X112184Y356240D01*
X112037Y355628D01*
X111988Y355000D01*
X112037Y354372D01*
X112184Y353760D01*
X112425Y353178D01*
X112754Y352642D01*
X113000Y352354D01*
Y249646D01*
X112754Y249358D01*
X112425Y248822D01*
X112184Y248240D01*
X112037Y247628D01*
X111988Y247000D01*
X112037Y246372D01*
X112184Y245760D01*
X112425Y245178D01*
X112754Y244642D01*
X113163Y244163D01*
X113642Y243754D01*
X114178Y243425D01*
X114760Y243184D01*
X115372Y243037D01*
X115994Y242988D01*
Y217764D01*
X115255Y217706D01*
X114528Y217531D01*
X113837Y217245D01*
X113199Y216855D01*
X112631Y216369D01*
X112145Y215801D01*
X111755Y215163D01*
X111469Y214472D01*
X111294Y213745D01*
X111235Y213000D01*
X111294Y212255D01*
X111469Y211528D01*
X111755Y210837D01*
X112145Y210199D01*
X112631Y209631D01*
X113199Y209145D01*
X113837Y208755D01*
X114528Y208469D01*
X115255Y208294D01*
X115994Y208236D01*
Y10000D01*
X105993D01*
Y208236D01*
X106000Y208235D01*
X106745Y208294D01*
X107472Y208469D01*
X108163Y208755D01*
X108801Y209145D01*
X109369Y209631D01*
X109855Y210199D01*
X110245Y210837D01*
X110531Y211528D01*
X110706Y212255D01*
X110750Y213000D01*
X110706Y213745D01*
X110531Y214472D01*
X110245Y215163D01*
X109855Y215801D01*
X109369Y216369D01*
X108801Y216855D01*
X108163Y217245D01*
X107472Y217531D01*
X106745Y217706D01*
X106000Y217765D01*
X105993Y217764D01*
Y503000D01*
G37*
G36*
X95993D02*X105993D01*
Y217764D01*
X105255Y217706D01*
X104528Y217531D01*
X103837Y217245D01*
X103199Y216855D01*
X102631Y216369D01*
X102145Y215801D01*
X101755Y215163D01*
X101469Y214472D01*
X101294Y213745D01*
X101235Y213000D01*
X101294Y212255D01*
X101469Y211528D01*
X101755Y210837D01*
X102145Y210199D01*
X102631Y209631D01*
X103199Y209145D01*
X103837Y208755D01*
X104528Y208469D01*
X105255Y208294D01*
X105993Y208236D01*
Y10000D01*
X95993D01*
Y208236D01*
X96000Y208235D01*
X96745Y208294D01*
X97472Y208469D01*
X98163Y208755D01*
X98801Y209145D01*
X99369Y209631D01*
X99855Y210199D01*
X100245Y210837D01*
X100531Y211528D01*
X100706Y212255D01*
X100750Y213000D01*
X100706Y213745D01*
X100531Y214472D01*
X100245Y215163D01*
X99855Y215801D01*
X99369Y216369D01*
X98801Y216855D01*
X98163Y217245D01*
X97472Y217531D01*
X96745Y217706D01*
X96000Y217765D01*
X95993Y217764D01*
Y503000D01*
G37*
G36*
X85993D02*X95993D01*
Y217764D01*
X95255Y217706D01*
X94528Y217531D01*
X93837Y217245D01*
X93199Y216855D01*
X92631Y216369D01*
X92145Y215801D01*
X91755Y215163D01*
X91469Y214472D01*
X91294Y213745D01*
X91235Y213000D01*
X91294Y212255D01*
X91469Y211528D01*
X91755Y210837D01*
X92145Y210199D01*
X92631Y209631D01*
X93199Y209145D01*
X93837Y208755D01*
X94528Y208469D01*
X95255Y208294D01*
X95993Y208236D01*
Y10000D01*
X85993D01*
Y208236D01*
X86000Y208235D01*
X86745Y208294D01*
X87472Y208469D01*
X88163Y208755D01*
X88801Y209145D01*
X89369Y209631D01*
X89855Y210199D01*
X90245Y210837D01*
X90531Y211528D01*
X90706Y212255D01*
X90750Y213000D01*
X90706Y213745D01*
X90531Y214472D01*
X90245Y215163D01*
X89855Y215801D01*
X89369Y216369D01*
X88801Y216855D01*
X88163Y217245D01*
X87472Y217531D01*
X86745Y217706D01*
X86000Y217765D01*
X85993Y217764D01*
Y503000D01*
G37*
G36*
X75993D02*X85993D01*
Y217764D01*
X85255Y217706D01*
X84528Y217531D01*
X83837Y217245D01*
X83199Y216855D01*
X82631Y216369D01*
X82145Y215801D01*
X81755Y215163D01*
X81469Y214472D01*
X81294Y213745D01*
X81235Y213000D01*
X81294Y212255D01*
X81469Y211528D01*
X81755Y210837D01*
X82145Y210199D01*
X82631Y209631D01*
X83199Y209145D01*
X83837Y208755D01*
X84528Y208469D01*
X85255Y208294D01*
X85993Y208236D01*
Y10000D01*
X75993D01*
Y208236D01*
X76000Y208235D01*
X76745Y208294D01*
X77472Y208469D01*
X78163Y208755D01*
X78801Y209145D01*
X79369Y209631D01*
X79855Y210199D01*
X80245Y210837D01*
X80531Y211528D01*
X80706Y212255D01*
X80750Y213000D01*
X80706Y213745D01*
X80531Y214472D01*
X80245Y215163D01*
X79855Y215801D01*
X79369Y216369D01*
X78801Y216855D01*
X78163Y217245D01*
X77472Y217531D01*
X76745Y217706D01*
X76000Y217765D01*
X75993Y217764D01*
Y503000D01*
G37*
G36*
X65993Y570000D02*X66000D01*
Y503000D01*
X75993D01*
Y217764D01*
X75255Y217706D01*
X74528Y217531D01*
X73837Y217245D01*
X73199Y216855D01*
X72631Y216369D01*
X72145Y215801D01*
X71755Y215163D01*
X71469Y214472D01*
X71294Y213745D01*
X71235Y213000D01*
X71294Y212255D01*
X71469Y211528D01*
X71755Y210837D01*
X72145Y210199D01*
X72631Y209631D01*
X73199Y209145D01*
X73837Y208755D01*
X74528Y208469D01*
X75255Y208294D01*
X75993Y208236D01*
Y10000D01*
X65993D01*
Y208236D01*
X66000Y208235D01*
X66745Y208294D01*
X67472Y208469D01*
X68163Y208755D01*
X68801Y209145D01*
X69369Y209631D01*
X69855Y210199D01*
X70245Y210837D01*
X70531Y211528D01*
X70706Y212255D01*
X70750Y213000D01*
X70706Y213745D01*
X70531Y214472D01*
X70245Y215163D01*
X69855Y215801D01*
X69369Y216369D01*
X68801Y216855D01*
X68163Y217245D01*
X67472Y217531D01*
X66745Y217706D01*
X66000Y217765D01*
X65993Y217764D01*
Y570000D01*
G37*
G36*
X57983D02*X65993D01*
Y217764D01*
X65255Y217706D01*
X64528Y217531D01*
X63837Y217245D01*
X63199Y216855D01*
X62631Y216369D01*
X62145Y215801D01*
X61755Y215163D01*
X61469Y214472D01*
X61294Y213745D01*
X61235Y213000D01*
X61294Y212255D01*
X61469Y211528D01*
X61755Y210837D01*
X62145Y210199D01*
X62631Y209631D01*
X63199Y209145D01*
X63837Y208755D01*
X64528Y208469D01*
X65255Y208294D01*
X65993Y208236D01*
Y10000D01*
X57983D01*
Y31002D01*
X57996Y31020D01*
X58362Y31649D01*
X58670Y32308D01*
X58920Y32992D01*
X59109Y33695D01*
X59236Y34411D01*
X59300Y35136D01*
Y35864D01*
X59236Y36589D01*
X59109Y37305D01*
X58920Y38008D01*
X58670Y38692D01*
X58362Y39351D01*
X57996Y39980D01*
X57983Y39999D01*
Y176002D01*
X57996Y176020D01*
X58362Y176649D01*
X58670Y177308D01*
X58920Y177992D01*
X59109Y178695D01*
X59236Y179411D01*
X59300Y180136D01*
Y180864D01*
X59236Y181589D01*
X59109Y182305D01*
X58920Y183008D01*
X58670Y183692D01*
X58362Y184351D01*
X57996Y184980D01*
X57983Y184999D01*
Y570000D01*
G37*
G36*
X51004D02*X57983D01*
Y184999D01*
X57578Y185575D01*
X57524Y185635D01*
X57462Y185685D01*
X57393Y185725D01*
X57318Y185753D01*
X57240Y185769D01*
X57161Y185773D01*
X57081Y185765D01*
X57004Y185744D01*
X56931Y185711D01*
X56865Y185668D01*
X56805Y185614D01*
X56755Y185552D01*
X56716Y185483D01*
X56687Y185408D01*
X56671Y185330D01*
X56667Y185250D01*
X56676Y185171D01*
X56696Y185094D01*
X56729Y185021D01*
X56774Y184955D01*
X57148Y184437D01*
X57469Y183884D01*
X57740Y183304D01*
X57959Y182704D01*
X57983Y182614D01*
Y178386D01*
X57959Y178296D01*
X57740Y177696D01*
X57469Y177116D01*
X57148Y176563D01*
X56779Y176040D01*
X56735Y175976D01*
X56703Y175904D01*
X56682Y175828D01*
X56674Y175749D01*
X56678Y175671D01*
X56694Y175594D01*
X56722Y175520D01*
X56761Y175452D01*
X56811Y175391D01*
X56869Y175338D01*
X56935Y175295D01*
X57007Y175263D01*
X57083Y175242D01*
X57161Y175234D01*
X57239Y175238D01*
X57316Y175254D01*
X57390Y175282D01*
X57458Y175321D01*
X57520Y175370D01*
X57571Y175430D01*
X57983Y176002D01*
Y39999D01*
X57578Y40575D01*
X57524Y40635D01*
X57462Y40685D01*
X57393Y40725D01*
X57318Y40753D01*
X57240Y40769D01*
X57161Y40773D01*
X57081Y40765D01*
X57004Y40744D01*
X56931Y40711D01*
X56865Y40668D01*
X56805Y40614D01*
X56755Y40552D01*
X56716Y40483D01*
X56687Y40408D01*
X56671Y40330D01*
X56667Y40250D01*
X56676Y40171D01*
X56696Y40094D01*
X56729Y40021D01*
X56774Y39955D01*
X57148Y39437D01*
X57469Y38884D01*
X57740Y38304D01*
X57959Y37704D01*
X57983Y37614D01*
Y33386D01*
X57959Y33296D01*
X57740Y32696D01*
X57469Y32116D01*
X57148Y31563D01*
X56779Y31040D01*
X56735Y30976D01*
X56703Y30904D01*
X56682Y30828D01*
X56674Y30749D01*
X56678Y30671D01*
X56694Y30594D01*
X56722Y30520D01*
X56761Y30452D01*
X56811Y30391D01*
X56869Y30338D01*
X56935Y30295D01*
X57007Y30263D01*
X57083Y30242D01*
X57161Y30234D01*
X57239Y30238D01*
X57316Y30254D01*
X57390Y30282D01*
X57458Y30321D01*
X57520Y30370D01*
X57571Y30430D01*
X57983Y31002D01*
Y10000D01*
X51004D01*
Y27200D01*
X51364D01*
X52089Y27264D01*
X52805Y27391D01*
X53508Y27580D01*
X54192Y27830D01*
X54851Y28138D01*
X55480Y28504D01*
X56075Y28923D01*
X56135Y28976D01*
X56185Y29038D01*
X56225Y29107D01*
X56253Y29182D01*
X56269Y29260D01*
X56273Y29339D01*
X56265Y29419D01*
X56244Y29496D01*
X56211Y29569D01*
X56168Y29635D01*
X56114Y29695D01*
X56052Y29745D01*
X55983Y29784D01*
X55908Y29813D01*
X55830Y29829D01*
X55750Y29833D01*
X55671Y29824D01*
X55594Y29804D01*
X55521Y29771D01*
X55455Y29726D01*
X54937Y29352D01*
X54384Y29031D01*
X53804Y28760D01*
X53204Y28541D01*
X52586Y28374D01*
X51957Y28263D01*
X51320Y28207D01*
X51004D01*
Y42793D01*
X51320D01*
X51957Y42737D01*
X52586Y42626D01*
X53204Y42459D01*
X53804Y42240D01*
X54384Y41969D01*
X54937Y41648D01*
X55460Y41279D01*
X55524Y41235D01*
X55596Y41203D01*
X55672Y41182D01*
X55751Y41174D01*
X55829Y41178D01*
X55906Y41194D01*
X55980Y41222D01*
X56048Y41261D01*
X56109Y41311D01*
X56162Y41369D01*
X56205Y41435D01*
X56237Y41507D01*
X56258Y41583D01*
X56266Y41661D01*
X56262Y41739D01*
X56246Y41816D01*
X56218Y41890D01*
X56179Y41958D01*
X56130Y42020D01*
X56070Y42071D01*
X55480Y42496D01*
X54851Y42862D01*
X54192Y43170D01*
X53508Y43420D01*
X52805Y43609D01*
X52089Y43736D01*
X51364Y43800D01*
X51004D01*
Y172200D01*
X51364D01*
X52089Y172264D01*
X52805Y172391D01*
X53508Y172580D01*
X54192Y172830D01*
X54851Y173138D01*
X55480Y173504D01*
X56075Y173922D01*
X56135Y173976D01*
X56185Y174038D01*
X56225Y174107D01*
X56253Y174182D01*
X56269Y174260D01*
X56273Y174339D01*
X56265Y174419D01*
X56244Y174496D01*
X56211Y174569D01*
X56168Y174635D01*
X56114Y174695D01*
X56052Y174745D01*
X55983Y174784D01*
X55908Y174813D01*
X55830Y174829D01*
X55750Y174833D01*
X55671Y174824D01*
X55594Y174804D01*
X55521Y174771D01*
X55455Y174726D01*
X54937Y174352D01*
X54384Y174031D01*
X53804Y173760D01*
X53204Y173541D01*
X52586Y173374D01*
X51957Y173263D01*
X51320Y173207D01*
X51004D01*
Y187793D01*
X51320D01*
X51957Y187737D01*
X52586Y187626D01*
X53204Y187459D01*
X53804Y187240D01*
X54384Y186969D01*
X54937Y186648D01*
X55460Y186279D01*
X55524Y186235D01*
X55596Y186203D01*
X55672Y186182D01*
X55751Y186174D01*
X55829Y186178D01*
X55906Y186194D01*
X55980Y186222D01*
X56048Y186261D01*
X56109Y186311D01*
X56162Y186369D01*
X56205Y186435D01*
X56237Y186507D01*
X56258Y186583D01*
X56266Y186661D01*
X56262Y186739D01*
X56246Y186816D01*
X56218Y186890D01*
X56179Y186958D01*
X56130Y187020D01*
X56070Y187071D01*
X55480Y187496D01*
X54851Y187862D01*
X54192Y188170D01*
X53508Y188420D01*
X52805Y188609D01*
X52089Y188736D01*
X51364Y188800D01*
X51004D01*
Y258414D01*
X51082Y258856D01*
X51150Y259618D01*
Y260382D01*
X51082Y261144D01*
X51004Y261586D01*
Y570000D01*
G37*
G36*
X44017D02*X51004D01*
Y261586D01*
X50948Y261897D01*
X50748Y262635D01*
X50483Y263353D01*
X50156Y264044D01*
X49769Y264704D01*
X49326Y265327D01*
X49272Y265386D01*
X49210Y265436D01*
X49140Y265475D01*
X49065Y265504D01*
X48987Y265519D01*
X48907Y265523D01*
X48828Y265514D01*
X48751Y265493D01*
X48678Y265460D01*
X48612Y265416D01*
X48553Y265362D01*
X48503Y265299D01*
X48464Y265230D01*
X48436Y265155D01*
X48420Y265077D01*
X48416Y264997D01*
X48425Y264917D01*
X48447Y264840D01*
X48480Y264768D01*
X48525Y264702D01*
X48923Y264156D01*
X49264Y263573D01*
X49553Y262962D01*
X49787Y262328D01*
X49964Y261676D01*
X50083Y261011D01*
X50143Y260338D01*
Y259662D01*
X50083Y258989D01*
X49964Y258324D01*
X49787Y257672D01*
X49553Y257038D01*
X49264Y256427D01*
X48923Y255844D01*
X48531Y255293D01*
X48486Y255229D01*
X48454Y255157D01*
X48433Y255081D01*
X48424Y255003D01*
X48427Y254924D01*
X48443Y254847D01*
X48470Y254774D01*
X48509Y254705D01*
X48558Y254644D01*
X48616Y254590D01*
X48682Y254547D01*
X48754Y254514D01*
X48829Y254493D01*
X48908Y254485D01*
X48986Y254488D01*
X49063Y254504D01*
X49137Y254531D01*
X49206Y254570D01*
X49267Y254619D01*
X49319Y254678D01*
X49769Y255296D01*
X50156Y255956D01*
X50483Y256647D01*
X50748Y257365D01*
X50948Y258103D01*
X51004Y258414D01*
Y188800D01*
X50636D01*
X49911Y188736D01*
X49195Y188609D01*
X48492Y188420D01*
X47808Y188170D01*
X47149Y187862D01*
X46520Y187496D01*
X45925Y187078D01*
X45865Y187024D01*
X45815Y186962D01*
X45775Y186893D01*
X45747Y186818D01*
X45731Y186740D01*
X45727Y186661D01*
X45735Y186581D01*
X45756Y186504D01*
X45789Y186431D01*
X45832Y186365D01*
X45886Y186305D01*
X45948Y186255D01*
X46017Y186216D01*
X46092Y186187D01*
X46170Y186171D01*
X46250Y186167D01*
X46329Y186176D01*
X46406Y186196D01*
X46479Y186229D01*
X46545Y186274D01*
X47063Y186648D01*
X47616Y186969D01*
X48196Y187240D01*
X48796Y187459D01*
X49414Y187626D01*
X50043Y187737D01*
X50680Y187793D01*
X51004D01*
Y173207D01*
X50680D01*
X50043Y173263D01*
X49414Y173374D01*
X48796Y173541D01*
X48196Y173760D01*
X47616Y174031D01*
X47063Y174352D01*
X46540Y174721D01*
X46475Y174765D01*
X46404Y174797D01*
X46328Y174818D01*
X46249Y174826D01*
X46171Y174822D01*
X46094Y174806D01*
X46020Y174778D01*
X45952Y174739D01*
X45891Y174689D01*
X45838Y174631D01*
X45795Y174565D01*
X45763Y174493D01*
X45742Y174417D01*
X45734Y174339D01*
X45738Y174261D01*
X45754Y174184D01*
X45782Y174110D01*
X45821Y174042D01*
X45870Y173980D01*
X45930Y173929D01*
X46520Y173504D01*
X47149Y173138D01*
X47808Y172830D01*
X48492Y172580D01*
X49195Y172391D01*
X49911Y172264D01*
X50636Y172200D01*
X51004D01*
Y43800D01*
X50636D01*
X49911Y43736D01*
X49195Y43609D01*
X48492Y43420D01*
X47808Y43170D01*
X47149Y42862D01*
X46520Y42496D01*
X45925Y42078D01*
X45865Y42024D01*
X45815Y41962D01*
X45775Y41893D01*
X45747Y41818D01*
X45731Y41740D01*
X45727Y41661D01*
X45735Y41581D01*
X45756Y41504D01*
X45789Y41431D01*
X45832Y41365D01*
X45886Y41305D01*
X45948Y41255D01*
X46017Y41216D01*
X46092Y41187D01*
X46170Y41171D01*
X46250Y41167D01*
X46329Y41176D01*
X46406Y41196D01*
X46479Y41229D01*
X46545Y41274D01*
X47063Y41648D01*
X47616Y41969D01*
X48196Y42240D01*
X48796Y42459D01*
X49414Y42626D01*
X50043Y42737D01*
X50680Y42793D01*
X51004D01*
Y28207D01*
X50680D01*
X50043Y28263D01*
X49414Y28374D01*
X48796Y28541D01*
X48196Y28760D01*
X47616Y29031D01*
X47063Y29352D01*
X46540Y29721D01*
X46475Y29765D01*
X46404Y29797D01*
X46328Y29818D01*
X46249Y29826D01*
X46171Y29822D01*
X46094Y29806D01*
X46020Y29778D01*
X45952Y29739D01*
X45891Y29689D01*
X45838Y29631D01*
X45795Y29565D01*
X45763Y29493D01*
X45742Y29417D01*
X45734Y29339D01*
X45738Y29261D01*
X45754Y29184D01*
X45782Y29110D01*
X45821Y29042D01*
X45870Y28980D01*
X45930Y28929D01*
X46520Y28504D01*
X47149Y28138D01*
X47808Y27830D01*
X48492Y27580D01*
X49195Y27391D01*
X49911Y27264D01*
X50636Y27200D01*
X51004D01*
Y10000D01*
X44017D01*
Y31001D01*
X44422Y30425D01*
X44476Y30365D01*
X44538Y30315D01*
X44607Y30275D01*
X44682Y30247D01*
X44760Y30231D01*
X44839Y30227D01*
X44919Y30235D01*
X44996Y30256D01*
X45069Y30289D01*
X45135Y30332D01*
X45195Y30386D01*
X45245Y30448D01*
X45284Y30517D01*
X45313Y30592D01*
X45329Y30670D01*
X45333Y30750D01*
X45324Y30829D01*
X45304Y30906D01*
X45271Y30979D01*
X45226Y31045D01*
X44852Y31563D01*
X44531Y32116D01*
X44260Y32696D01*
X44041Y33296D01*
X44017Y33386D01*
Y37614D01*
X44041Y37704D01*
X44260Y38304D01*
X44531Y38884D01*
X44852Y39437D01*
X45221Y39960D01*
X45265Y40025D01*
X45297Y40096D01*
X45318Y40172D01*
X45326Y40251D01*
X45322Y40329D01*
X45306Y40406D01*
X45278Y40480D01*
X45239Y40548D01*
X45189Y40609D01*
X45131Y40662D01*
X45065Y40705D01*
X44993Y40737D01*
X44917Y40758D01*
X44839Y40766D01*
X44761Y40762D01*
X44684Y40746D01*
X44610Y40718D01*
X44542Y40679D01*
X44480Y40630D01*
X44429Y40570D01*
X44017Y39998D01*
Y176001D01*
X44422Y175425D01*
X44476Y175365D01*
X44538Y175315D01*
X44607Y175275D01*
X44682Y175247D01*
X44760Y175231D01*
X44839Y175227D01*
X44919Y175235D01*
X44996Y175256D01*
X45069Y175289D01*
X45135Y175332D01*
X45195Y175386D01*
X45245Y175448D01*
X45284Y175517D01*
X45313Y175592D01*
X45329Y175670D01*
X45333Y175750D01*
X45324Y175829D01*
X45304Y175906D01*
X45271Y175979D01*
X45226Y176045D01*
X44852Y176563D01*
X44531Y177116D01*
X44260Y177696D01*
X44041Y178296D01*
X44017Y178386D01*
Y182614D01*
X44041Y182704D01*
X44260Y183304D01*
X44531Y183884D01*
X44852Y184437D01*
X45221Y184960D01*
X45265Y185025D01*
X45297Y185096D01*
X45318Y185172D01*
X45326Y185251D01*
X45322Y185329D01*
X45306Y185406D01*
X45278Y185480D01*
X45239Y185548D01*
X45189Y185609D01*
X45131Y185662D01*
X45065Y185705D01*
X44993Y185737D01*
X44917Y185758D01*
X44839Y185766D01*
X44761Y185762D01*
X44684Y185746D01*
X44610Y185718D01*
X44542Y185679D01*
X44480Y185630D01*
X44429Y185570D01*
X44017Y184998D01*
Y251484D01*
X44397Y251552D01*
X45135Y251752D01*
X45853Y252017D01*
X46544Y252344D01*
X47204Y252731D01*
X47827Y253174D01*
X47886Y253228D01*
X47936Y253290D01*
X47975Y253360D01*
X48003Y253435D01*
X48019Y253513D01*
X48023Y253593D01*
X48014Y253672D01*
X47993Y253749D01*
X47960Y253822D01*
X47916Y253888D01*
X47862Y253947D01*
X47799Y253997D01*
X47730Y254036D01*
X47655Y254064D01*
X47577Y254080D01*
X47497Y254084D01*
X47417Y254075D01*
X47340Y254053D01*
X47268Y254020D01*
X47202Y253975D01*
X46656Y253577D01*
X46073Y253236D01*
X45462Y252947D01*
X44828Y252713D01*
X44176Y252536D01*
X44017Y252507D01*
Y267493D01*
X44176Y267464D01*
X44828Y267287D01*
X45462Y267053D01*
X46073Y266764D01*
X46656Y266423D01*
X47207Y266031D01*
X47271Y265986D01*
X47343Y265954D01*
X47419Y265933D01*
X47497Y265924D01*
X47576Y265927D01*
X47653Y265943D01*
X47726Y265970D01*
X47795Y266009D01*
X47856Y266058D01*
X47910Y266116D01*
X47953Y266182D01*
X47986Y266254D01*
X48007Y266329D01*
X48015Y266408D01*
X48012Y266486D01*
X47996Y266563D01*
X47969Y266637D01*
X47930Y266706D01*
X47881Y266767D01*
X47822Y266819D01*
X47204Y267269D01*
X46544Y267656D01*
X45853Y267983D01*
X45135Y268248D01*
X44397Y268448D01*
X44017Y268516D01*
Y570000D01*
G37*
G36*
Y178386D02*X43874Y178914D01*
X43763Y179543D01*
X43707Y180180D01*
Y180820D01*
X43763Y181457D01*
X43874Y182086D01*
X44017Y182614D01*
Y178386D01*
G37*
G36*
Y33386D02*X43874Y33914D01*
X43763Y34543D01*
X43707Y35180D01*
Y35820D01*
X43763Y36457D01*
X43874Y37086D01*
X44017Y37614D01*
Y33386D01*
G37*
G36*
X37283Y522339D02*X37287Y522328D01*
X37464Y521676D01*
X37583Y521011D01*
X37643Y520338D01*
Y519662D01*
X37583Y518989D01*
X37464Y518324D01*
X37287Y517672D01*
X37283Y517661D01*
Y522339D01*
G37*
G36*
Y253104D02*X37796Y252731D01*
X38456Y252344D01*
X39147Y252017D01*
X39865Y251752D01*
X40603Y251552D01*
X41356Y251418D01*
X42118Y251350D01*
X42882D01*
X43644Y251418D01*
X44017Y251484D01*
Y184998D01*
X44004Y184980D01*
X43638Y184351D01*
X43330Y183692D01*
X43080Y183008D01*
X42891Y182305D01*
X42764Y181589D01*
X42700Y180864D01*
Y180136D01*
X42764Y179411D01*
X42891Y178695D01*
X43080Y177992D01*
X43330Y177308D01*
X43638Y176649D01*
X44004Y176020D01*
X44017Y176001D01*
Y39998D01*
X44004Y39980D01*
X43638Y39351D01*
X43330Y38692D01*
X43080Y38008D01*
X42891Y37305D01*
X42764Y36589D01*
X42700Y35864D01*
Y35136D01*
X42764Y34411D01*
X42891Y33695D01*
X43080Y32992D01*
X43330Y32308D01*
X43638Y31649D01*
X44004Y31020D01*
X44017Y31001D01*
Y10000D01*
X37283D01*
Y253104D01*
G37*
G36*
Y265959D02*X37345Y265936D01*
X37423Y265920D01*
X37503Y265916D01*
X37583Y265925D01*
X37660Y265947D01*
X37732Y265980D01*
X37798Y266025D01*
X38344Y266423D01*
X38927Y266764D01*
X39538Y267053D01*
X40172Y267287D01*
X40824Y267464D01*
X41489Y267583D01*
X42162Y267643D01*
X42838D01*
X43511Y267583D01*
X44017Y267493D01*
Y252507D01*
X43511Y252417D01*
X42838Y252357D01*
X42162D01*
X41489Y252417D01*
X40824Y252536D01*
X40172Y252713D01*
X39538Y252947D01*
X38927Y253236D01*
X38344Y253577D01*
X37793Y253969D01*
X37729Y254014D01*
X37657Y254046D01*
X37581Y254067D01*
X37503Y254076D01*
X37424Y254073D01*
X37347Y254057D01*
X37283Y254033D01*
Y265959D01*
G37*
G36*
Y570000D02*X44017D01*
Y268516D01*
X43644Y268583D01*
X42882Y268650D01*
X42118D01*
X41356Y268583D01*
X40603Y268448D01*
X39865Y268248D01*
X39147Y267983D01*
X38456Y267656D01*
X37796Y267269D01*
X37283Y266904D01*
Y276180D01*
X37624Y276389D01*
X38156Y276844D01*
X38611Y277376D01*
X38977Y277974D01*
X39245Y278621D01*
X39409Y279302D01*
X39450Y280000D01*
X39409Y280698D01*
X39245Y281379D01*
X38977Y282026D01*
X38611Y282624D01*
X38156Y283156D01*
X37624Y283611D01*
X37283Y283820D01*
Y286180D01*
X37624Y286389D01*
X38156Y286844D01*
X38611Y287376D01*
X38977Y287974D01*
X39245Y288621D01*
X39409Y289302D01*
X39450Y290000D01*
X39409Y290698D01*
X39245Y291379D01*
X38977Y292026D01*
X38611Y292624D01*
X38156Y293156D01*
X37624Y293611D01*
X37283Y293820D01*
Y296180D01*
X37624Y296389D01*
X38156Y296844D01*
X38611Y297376D01*
X38977Y297974D01*
X39245Y298621D01*
X39409Y299302D01*
X39450Y300000D01*
X39409Y300698D01*
X39245Y301379D01*
X38977Y302026D01*
X38611Y302624D01*
X38156Y303156D01*
X37624Y303611D01*
X37283Y303820D01*
Y306180D01*
X37624Y306389D01*
X38156Y306844D01*
X38611Y307376D01*
X38977Y307974D01*
X39245Y308621D01*
X39409Y309302D01*
X39450Y310000D01*
X39409Y310698D01*
X39245Y311379D01*
X38977Y312026D01*
X38611Y312624D01*
X38156Y313156D01*
X37624Y313611D01*
X37283Y313820D01*
Y316180D01*
X37624Y316389D01*
X38156Y316844D01*
X38611Y317376D01*
X38977Y317974D01*
X39245Y318621D01*
X39409Y319302D01*
X39450Y320000D01*
X39409Y320698D01*
X39245Y321379D01*
X38977Y322026D01*
X38611Y322624D01*
X38156Y323156D01*
X37624Y323611D01*
X37283Y323820D01*
Y326180D01*
X37624Y326389D01*
X38156Y326844D01*
X38611Y327376D01*
X38977Y327974D01*
X39245Y328621D01*
X39409Y329302D01*
X39450Y330000D01*
X39409Y330698D01*
X39245Y331379D01*
X38977Y332026D01*
X38611Y332624D01*
X38156Y333156D01*
X37624Y333611D01*
X37283Y333820D01*
Y336180D01*
X37624Y336389D01*
X38156Y336844D01*
X38611Y337376D01*
X38977Y337974D01*
X39245Y338621D01*
X39409Y339302D01*
X39450Y340000D01*
X39409Y340698D01*
X39245Y341379D01*
X38977Y342026D01*
X38611Y342624D01*
X38156Y343156D01*
X37624Y343611D01*
X37283Y343820D01*
Y346180D01*
X37624Y346389D01*
X38156Y346844D01*
X38611Y347376D01*
X38977Y347974D01*
X39245Y348621D01*
X39409Y349302D01*
X39450Y350000D01*
X39409Y350698D01*
X39245Y351379D01*
X38977Y352026D01*
X38611Y352624D01*
X38156Y353156D01*
X37624Y353611D01*
X37283Y353820D01*
Y356180D01*
X37624Y356389D01*
X38156Y356844D01*
X38611Y357376D01*
X38977Y357974D01*
X39245Y358621D01*
X39409Y359302D01*
X39450Y360000D01*
X39409Y360698D01*
X39245Y361379D01*
X38977Y362026D01*
X38611Y362624D01*
X38156Y363156D01*
X37624Y363611D01*
X37283Y363820D01*
Y366180D01*
X37624Y366389D01*
X38156Y366844D01*
X38611Y367376D01*
X38977Y367974D01*
X39245Y368621D01*
X39409Y369302D01*
X39450Y370000D01*
X39409Y370698D01*
X39245Y371379D01*
X38977Y372026D01*
X38611Y372624D01*
X38156Y373156D01*
X37624Y373611D01*
X37283Y373820D01*
Y376180D01*
X37624Y376389D01*
X38156Y376844D01*
X38611Y377376D01*
X38977Y377974D01*
X39245Y378621D01*
X39409Y379302D01*
X39450Y380000D01*
X39409Y380698D01*
X39245Y381379D01*
X38977Y382026D01*
X38611Y382624D01*
X38156Y383156D01*
X37624Y383611D01*
X37283Y383820D01*
Y386180D01*
X37624Y386389D01*
X38156Y386844D01*
X38611Y387376D01*
X38977Y387974D01*
X39245Y388621D01*
X39409Y389302D01*
X39450Y390000D01*
X39409Y390698D01*
X39245Y391379D01*
X38977Y392026D01*
X38611Y392624D01*
X38156Y393156D01*
X37624Y393611D01*
X37283Y393820D01*
Y396180D01*
X37624Y396389D01*
X38156Y396844D01*
X38611Y397376D01*
X38977Y397974D01*
X39245Y398621D01*
X39409Y399302D01*
X39450Y400000D01*
X39409Y400698D01*
X39245Y401379D01*
X38977Y402026D01*
X38611Y402624D01*
X38156Y403156D01*
X37624Y403611D01*
X37283Y403820D01*
Y406180D01*
X37624Y406389D01*
X38156Y406844D01*
X38611Y407376D01*
X38977Y407974D01*
X39245Y408621D01*
X39409Y409302D01*
X39450Y410000D01*
X39409Y410698D01*
X39245Y411379D01*
X38977Y412026D01*
X38611Y412624D01*
X38156Y413156D01*
X37624Y413611D01*
X37283Y413820D01*
Y416180D01*
X37624Y416389D01*
X38156Y416844D01*
X38611Y417376D01*
X38977Y417974D01*
X39245Y418621D01*
X39409Y419302D01*
X39450Y420000D01*
X39409Y420698D01*
X39245Y421379D01*
X38977Y422026D01*
X38611Y422624D01*
X38156Y423156D01*
X37624Y423611D01*
X37283Y423820D01*
Y426180D01*
X37624Y426389D01*
X38156Y426844D01*
X38611Y427376D01*
X38977Y427974D01*
X39245Y428621D01*
X39409Y429302D01*
X39450Y430000D01*
X39409Y430698D01*
X39245Y431379D01*
X38977Y432026D01*
X38611Y432624D01*
X38156Y433156D01*
X37624Y433611D01*
X37283Y433820D01*
Y436180D01*
X37624Y436389D01*
X38156Y436844D01*
X38611Y437376D01*
X38977Y437974D01*
X39245Y438621D01*
X39409Y439302D01*
X39450Y440000D01*
X39409Y440698D01*
X39245Y441379D01*
X38977Y442026D01*
X38611Y442624D01*
X38156Y443156D01*
X37624Y443611D01*
X37283Y443820D01*
Y446180D01*
X37624Y446389D01*
X38156Y446844D01*
X38611Y447376D01*
X38977Y447974D01*
X39245Y448621D01*
X39409Y449302D01*
X39450Y450000D01*
X39409Y450698D01*
X39245Y451379D01*
X38977Y452026D01*
X38611Y452624D01*
X38156Y453156D01*
X37624Y453611D01*
X37283Y453820D01*
Y456180D01*
X37624Y456389D01*
X38156Y456844D01*
X38611Y457376D01*
X38977Y457974D01*
X39245Y458621D01*
X39409Y459302D01*
X39450Y460000D01*
X39409Y460698D01*
X39245Y461379D01*
X38977Y462026D01*
X38611Y462624D01*
X38156Y463156D01*
X37624Y463611D01*
X37283Y463820D01*
Y466180D01*
X37624Y466389D01*
X38156Y466844D01*
X38611Y467376D01*
X38977Y467974D01*
X39245Y468621D01*
X39409Y469302D01*
X39450Y470000D01*
X39409Y470698D01*
X39245Y471379D01*
X38977Y472026D01*
X38611Y472624D01*
X38156Y473156D01*
X37624Y473611D01*
X37283Y473820D01*
Y476180D01*
X37624Y476389D01*
X38156Y476844D01*
X38611Y477376D01*
X38977Y477974D01*
X39245Y478621D01*
X39409Y479302D01*
X39450Y480000D01*
X39409Y480698D01*
X39245Y481379D01*
X38977Y482026D01*
X38611Y482624D01*
X38156Y483156D01*
X37624Y483611D01*
X37283Y483820D01*
Y486180D01*
X37624Y486389D01*
X38156Y486844D01*
X38611Y487376D01*
X38977Y487974D01*
X39245Y488621D01*
X39409Y489302D01*
X39450Y490000D01*
X39409Y490698D01*
X39245Y491379D01*
X38977Y492026D01*
X38611Y492624D01*
X38156Y493156D01*
X37624Y493611D01*
X37283Y493820D01*
Y495558D01*
X38607Y495559D01*
X38760Y495596D01*
X38905Y495656D01*
X39040Y495738D01*
X39159Y495841D01*
X39262Y495960D01*
X39344Y496095D01*
X39404Y496240D01*
X39441Y496393D01*
X39450Y496550D01*
X39441Y503607D01*
X39404Y503760D01*
X39344Y503905D01*
X39262Y504040D01*
X39159Y504159D01*
X39040Y504262D01*
X38905Y504344D01*
X38760Y504404D01*
X38607Y504441D01*
X38450Y504450D01*
X37283Y504448D01*
Y515320D01*
X37656Y515956D01*
X37983Y516647D01*
X38248Y517365D01*
X38448Y518103D01*
X38582Y518856D01*
X38650Y519618D01*
Y520382D01*
X38582Y521144D01*
X38448Y521897D01*
X38248Y522635D01*
X37983Y523353D01*
X37656Y524044D01*
X37283Y524680D01*
Y570000D01*
G37*
G36*
Y493820D02*X37026Y493977D01*
X36379Y494245D01*
X35698Y494409D01*
X35000Y494464D01*
X34993Y494463D01*
Y495555D01*
X37283Y495558D01*
Y493820D01*
G37*
G36*
Y483820D02*X37026Y483977D01*
X36379Y484245D01*
X35698Y484409D01*
X35000Y484464D01*
X34993Y484463D01*
Y485537D01*
X35000Y485536D01*
X35698Y485591D01*
X36379Y485755D01*
X37026Y486023D01*
X37283Y486180D01*
Y483820D01*
G37*
G36*
Y473820D02*X37026Y473977D01*
X36379Y474245D01*
X35698Y474409D01*
X35000Y474464D01*
X34993Y474463D01*
Y475537D01*
X35000Y475536D01*
X35698Y475591D01*
X36379Y475755D01*
X37026Y476023D01*
X37283Y476180D01*
Y473820D01*
G37*
G36*
Y463820D02*X37026Y463977D01*
X36379Y464245D01*
X35698Y464409D01*
X35000Y464464D01*
X34993Y464463D01*
Y465537D01*
X35000Y465536D01*
X35698Y465591D01*
X36379Y465755D01*
X37026Y466023D01*
X37283Y466180D01*
Y463820D01*
G37*
G36*
Y453820D02*X37026Y453977D01*
X36379Y454245D01*
X35698Y454409D01*
X35000Y454464D01*
X34993Y454463D01*
Y455537D01*
X35000Y455536D01*
X35698Y455591D01*
X36379Y455755D01*
X37026Y456023D01*
X37283Y456180D01*
Y453820D01*
G37*
G36*
Y443820D02*X37026Y443977D01*
X36379Y444245D01*
X35698Y444409D01*
X35000Y444464D01*
X34993Y444463D01*
Y445537D01*
X35000Y445536D01*
X35698Y445591D01*
X36379Y445755D01*
X37026Y446023D01*
X37283Y446180D01*
Y443820D01*
G37*
G36*
Y433820D02*X37026Y433977D01*
X36379Y434245D01*
X35698Y434409D01*
X35000Y434464D01*
X34993Y434463D01*
Y435537D01*
X35000Y435536D01*
X35698Y435591D01*
X36379Y435755D01*
X37026Y436023D01*
X37283Y436180D01*
Y433820D01*
G37*
G36*
Y423820D02*X37026Y423977D01*
X36379Y424245D01*
X35698Y424409D01*
X35000Y424464D01*
X34993Y424463D01*
Y425537D01*
X35000Y425536D01*
X35698Y425591D01*
X36379Y425755D01*
X37026Y426023D01*
X37283Y426180D01*
Y423820D01*
G37*
G36*
Y413820D02*X37026Y413977D01*
X36379Y414245D01*
X35698Y414409D01*
X35000Y414464D01*
X34993Y414463D01*
Y415537D01*
X35000Y415536D01*
X35698Y415591D01*
X36379Y415755D01*
X37026Y416023D01*
X37283Y416180D01*
Y413820D01*
G37*
G36*
Y403820D02*X37026Y403977D01*
X36379Y404245D01*
X35698Y404409D01*
X35000Y404464D01*
X34993Y404463D01*
Y405537D01*
X35000Y405536D01*
X35698Y405591D01*
X36379Y405755D01*
X37026Y406023D01*
X37283Y406180D01*
Y403820D01*
G37*
G36*
Y393820D02*X37026Y393977D01*
X36379Y394245D01*
X35698Y394409D01*
X35000Y394464D01*
X34993Y394463D01*
Y395537D01*
X35000Y395536D01*
X35698Y395591D01*
X36379Y395755D01*
X37026Y396023D01*
X37283Y396180D01*
Y393820D01*
G37*
G36*
Y383820D02*X37026Y383977D01*
X36379Y384245D01*
X35698Y384409D01*
X35000Y384464D01*
X34993Y384463D01*
Y385537D01*
X35000Y385536D01*
X35698Y385591D01*
X36379Y385755D01*
X37026Y386023D01*
X37283Y386180D01*
Y383820D01*
G37*
G36*
Y373820D02*X37026Y373977D01*
X36379Y374245D01*
X35698Y374409D01*
X35000Y374464D01*
X34993Y374463D01*
Y375537D01*
X35000Y375536D01*
X35698Y375591D01*
X36379Y375755D01*
X37026Y376023D01*
X37283Y376180D01*
Y373820D01*
G37*
G36*
Y363820D02*X37026Y363977D01*
X36379Y364245D01*
X35698Y364409D01*
X35000Y364464D01*
X34993Y364463D01*
Y365537D01*
X35000Y365536D01*
X35698Y365591D01*
X36379Y365755D01*
X37026Y366023D01*
X37283Y366180D01*
Y363820D01*
G37*
G36*
Y353820D02*X37026Y353977D01*
X36379Y354245D01*
X35698Y354409D01*
X35000Y354464D01*
X34993Y354463D01*
Y355537D01*
X35000Y355536D01*
X35698Y355591D01*
X36379Y355755D01*
X37026Y356023D01*
X37283Y356180D01*
Y353820D01*
G37*
G36*
Y343820D02*X37026Y343977D01*
X36379Y344245D01*
X35698Y344409D01*
X35000Y344464D01*
X34993Y344463D01*
Y345537D01*
X35000Y345536D01*
X35698Y345591D01*
X36379Y345755D01*
X37026Y346023D01*
X37283Y346180D01*
Y343820D01*
G37*
G36*
Y333820D02*X37026Y333977D01*
X36379Y334245D01*
X35698Y334409D01*
X35000Y334464D01*
X34993Y334463D01*
Y335537D01*
X35000Y335536D01*
X35698Y335591D01*
X36379Y335755D01*
X37026Y336023D01*
X37283Y336180D01*
Y333820D01*
G37*
G36*
Y323820D02*X37026Y323977D01*
X36379Y324245D01*
X35698Y324409D01*
X35000Y324464D01*
X34993Y324463D01*
Y325537D01*
X35000Y325536D01*
X35698Y325591D01*
X36379Y325755D01*
X37026Y326023D01*
X37283Y326180D01*
Y323820D01*
G37*
G36*
Y313820D02*X37026Y313977D01*
X36379Y314245D01*
X35698Y314409D01*
X35000Y314464D01*
X34993Y314463D01*
Y315537D01*
X35000Y315536D01*
X35698Y315591D01*
X36379Y315755D01*
X37026Y316023D01*
X37283Y316180D01*
Y313820D01*
G37*
G36*
Y303820D02*X37026Y303977D01*
X36379Y304245D01*
X35698Y304409D01*
X35000Y304464D01*
X34993Y304463D01*
Y305537D01*
X35000Y305536D01*
X35698Y305591D01*
X36379Y305755D01*
X37026Y306023D01*
X37283Y306180D01*
Y303820D01*
G37*
G36*
Y293820D02*X37026Y293977D01*
X36379Y294245D01*
X35698Y294409D01*
X35000Y294464D01*
X34993Y294463D01*
Y295537D01*
X35000Y295536D01*
X35698Y295591D01*
X36379Y295755D01*
X37026Y296023D01*
X37283Y296180D01*
Y293820D01*
G37*
G36*
Y283820D02*X37026Y283977D01*
X36379Y284245D01*
X35698Y284409D01*
X35000Y284464D01*
X34993Y284463D01*
Y285537D01*
X35000Y285536D01*
X35698Y285591D01*
X36379Y285755D01*
X37026Y286023D01*
X37283Y286180D01*
Y283820D01*
G37*
G36*
Y266904D02*X37173Y266826D01*
X37114Y266772D01*
X37064Y266710D01*
X37025Y266640D01*
X36996Y266565D01*
X36981Y266487D01*
X36977Y266407D01*
X36986Y266328D01*
X37007Y266251D01*
X37040Y266178D01*
X37084Y266112D01*
X37138Y266053D01*
X37201Y266003D01*
X37270Y265964D01*
X37283Y265959D01*
Y254033D01*
X37274Y254030D01*
X37205Y253991D01*
X37143Y253942D01*
X37090Y253884D01*
X37047Y253818D01*
X37014Y253746D01*
X36993Y253671D01*
X36984Y253592D01*
X36988Y253514D01*
X37004Y253437D01*
X37031Y253363D01*
X37070Y253294D01*
X37119Y253233D01*
X37178Y253181D01*
X37283Y253104D01*
Y10000D01*
X34993D01*
Y255702D01*
X35231Y255296D01*
X35674Y254673D01*
X35728Y254614D01*
X35790Y254564D01*
X35860Y254525D01*
X35935Y254497D01*
X36013Y254481D01*
X36093Y254477D01*
X36172Y254486D01*
X36249Y254507D01*
X36322Y254540D01*
X36388Y254584D01*
X36447Y254638D01*
X36497Y254701D01*
X36536Y254770D01*
X36564Y254845D01*
X36580Y254923D01*
X36584Y255003D01*
X36575Y255083D01*
X36553Y255160D01*
X36520Y255232D01*
X36475Y255298D01*
X36077Y255844D01*
X35736Y256427D01*
X35447Y257038D01*
X35213Y257672D01*
X35036Y258324D01*
X34993Y258563D01*
Y261437D01*
X35036Y261676D01*
X35213Y262328D01*
X35447Y262962D01*
X35736Y263573D01*
X36077Y264156D01*
X36469Y264707D01*
X36514Y264771D01*
X36546Y264843D01*
X36567Y264919D01*
X36576Y264997D01*
X36573Y265076D01*
X36557Y265153D01*
X36530Y265226D01*
X36491Y265295D01*
X36442Y265357D01*
X36384Y265410D01*
X36318Y265453D01*
X36246Y265486D01*
X36171Y265507D01*
X36092Y265516D01*
X36014Y265512D01*
X35937Y265496D01*
X35863Y265469D01*
X35794Y265430D01*
X35733Y265381D01*
X35681Y265322D01*
X35231Y264704D01*
X34993Y264299D01*
Y275537D01*
X35000Y275536D01*
X35698Y275591D01*
X36379Y275755D01*
X37026Y276023D01*
X37283Y276180D01*
Y266904D01*
G37*
G36*
X34993Y570000D02*X37283D01*
Y524680D01*
X37269Y524704D01*
X36826Y525327D01*
X36772Y525386D01*
X36710Y525436D01*
X36640Y525475D01*
X36565Y525504D01*
X36487Y525519D01*
X36407Y525523D01*
X36328Y525514D01*
X36251Y525493D01*
X36178Y525460D01*
X36112Y525416D01*
X36053Y525362D01*
X36003Y525299D01*
X35964Y525230D01*
X35936Y525155D01*
X35920Y525077D01*
X35916Y524997D01*
X35925Y524917D01*
X35947Y524840D01*
X35980Y524768D01*
X36025Y524702D01*
X36423Y524156D01*
X36764Y523573D01*
X37053Y522962D01*
X37283Y522339D01*
Y517661D01*
X37053Y517038D01*
X36764Y516427D01*
X36423Y515844D01*
X36031Y515293D01*
X35986Y515229D01*
X35954Y515157D01*
X35933Y515081D01*
X35924Y515003D01*
X35927Y514924D01*
X35943Y514847D01*
X35970Y514774D01*
X36009Y514705D01*
X36058Y514644D01*
X36116Y514590D01*
X36182Y514547D01*
X36254Y514514D01*
X36329Y514493D01*
X36408Y514485D01*
X36486Y514488D01*
X36563Y514504D01*
X36637Y514531D01*
X36706Y514570D01*
X36767Y514619D01*
X36819Y514678D01*
X37269Y515296D01*
X37283Y515320D01*
Y504448D01*
X34993Y504445D01*
Y512937D01*
X35327Y513174D01*
X35386Y513228D01*
X35436Y513290D01*
X35475Y513360D01*
X35503Y513435D01*
X35519Y513513D01*
X35523Y513593D01*
X35514Y513672D01*
X35493Y513749D01*
X35460Y513822D01*
X35416Y513888D01*
X35362Y513947D01*
X35299Y513997D01*
X35230Y514036D01*
X35155Y514064D01*
X35077Y514080D01*
X34997Y514084D01*
X34993Y514083D01*
Y525924D01*
X34997Y525924D01*
X35076Y525927D01*
X35153Y525943D01*
X35226Y525970D01*
X35295Y526009D01*
X35356Y526058D01*
X35410Y526116D01*
X35453Y526182D01*
X35486Y526254D01*
X35507Y526329D01*
X35515Y526408D01*
X35512Y526486D01*
X35496Y526563D01*
X35469Y526637D01*
X35430Y526706D01*
X35381Y526767D01*
X35322Y526819D01*
X34993Y527059D01*
Y570000D01*
G37*
G36*
Y258563D02*X34917Y258989D01*
X34857Y259662D01*
Y260338D01*
X34917Y261011D01*
X34993Y261437D01*
Y258563D01*
G37*
G36*
X24993Y512951D02*X25296Y512731D01*
X25956Y512344D01*
X26647Y512017D01*
X27365Y511752D01*
X28103Y511552D01*
X28856Y511418D01*
X29618Y511350D01*
X30382D01*
X31144Y511418D01*
X31897Y511552D01*
X32635Y511752D01*
X33353Y512017D01*
X34044Y512344D01*
X34704Y512731D01*
X34993Y512937D01*
Y504445D01*
X31393Y504441D01*
X31240Y504404D01*
X31095Y504344D01*
X30960Y504262D01*
X30841Y504159D01*
X30738Y504040D01*
X30656Y503905D01*
X30596Y503760D01*
X30559Y503607D01*
X30550Y503450D01*
X30559Y496393D01*
X30596Y496240D01*
X30656Y496095D01*
X30738Y495960D01*
X30841Y495841D01*
X30960Y495738D01*
X31095Y495656D01*
X31240Y495596D01*
X31393Y495559D01*
X31550Y495550D01*
X34993Y495555D01*
Y494463D01*
X34302Y494409D01*
X33621Y494245D01*
X32974Y493977D01*
X32376Y493611D01*
X31844Y493156D01*
X31389Y492624D01*
X31023Y492026D01*
X30755Y491379D01*
X30591Y490698D01*
X30536Y490000D01*
X30591Y489302D01*
X30755Y488621D01*
X31023Y487974D01*
X31389Y487376D01*
X31844Y486844D01*
X32376Y486389D01*
X32974Y486023D01*
X33621Y485755D01*
X34302Y485591D01*
X34993Y485537D01*
Y484463D01*
X34302Y484409D01*
X33621Y484245D01*
X32974Y483977D01*
X32376Y483611D01*
X31844Y483156D01*
X31389Y482624D01*
X31023Y482026D01*
X30755Y481379D01*
X30591Y480698D01*
X30536Y480000D01*
X30591Y479302D01*
X30755Y478621D01*
X31023Y477974D01*
X31389Y477376D01*
X31844Y476844D01*
X32376Y476389D01*
X32974Y476023D01*
X33621Y475755D01*
X34302Y475591D01*
X34993Y475537D01*
Y474463D01*
X34302Y474409D01*
X33621Y474245D01*
X32974Y473977D01*
X32376Y473611D01*
X31844Y473156D01*
X31389Y472624D01*
X31023Y472026D01*
X30755Y471379D01*
X30591Y470698D01*
X30536Y470000D01*
X30591Y469302D01*
X30755Y468621D01*
X31023Y467974D01*
X31389Y467376D01*
X31844Y466844D01*
X32376Y466389D01*
X32974Y466023D01*
X33621Y465755D01*
X34302Y465591D01*
X34993Y465537D01*
Y464463D01*
X34302Y464409D01*
X33621Y464245D01*
X32974Y463977D01*
X32376Y463611D01*
X31844Y463156D01*
X31389Y462624D01*
X31023Y462026D01*
X30755Y461379D01*
X30591Y460698D01*
X30536Y460000D01*
X30591Y459302D01*
X30755Y458621D01*
X31023Y457974D01*
X31389Y457376D01*
X31844Y456844D01*
X32376Y456389D01*
X32974Y456023D01*
X33621Y455755D01*
X34302Y455591D01*
X34993Y455537D01*
Y454463D01*
X34302Y454409D01*
X33621Y454245D01*
X32974Y453977D01*
X32376Y453611D01*
X31844Y453156D01*
X31389Y452624D01*
X31023Y452026D01*
X30755Y451379D01*
X30591Y450698D01*
X30536Y450000D01*
X30591Y449302D01*
X30755Y448621D01*
X31023Y447974D01*
X31389Y447376D01*
X31844Y446844D01*
X32376Y446389D01*
X32974Y446023D01*
X33621Y445755D01*
X34302Y445591D01*
X34993Y445537D01*
Y444463D01*
X34302Y444409D01*
X33621Y444245D01*
X32974Y443977D01*
X32376Y443611D01*
X31844Y443156D01*
X31389Y442624D01*
X31023Y442026D01*
X30755Y441379D01*
X30591Y440698D01*
X30536Y440000D01*
X30591Y439302D01*
X30755Y438621D01*
X31023Y437974D01*
X31389Y437376D01*
X31844Y436844D01*
X32376Y436389D01*
X32974Y436023D01*
X33621Y435755D01*
X34302Y435591D01*
X34993Y435537D01*
Y434463D01*
X34302Y434409D01*
X33621Y434245D01*
X32974Y433977D01*
X32376Y433611D01*
X31844Y433156D01*
X31389Y432624D01*
X31023Y432026D01*
X30755Y431379D01*
X30591Y430698D01*
X30536Y430000D01*
X30591Y429302D01*
X30755Y428621D01*
X31023Y427974D01*
X31389Y427376D01*
X31844Y426844D01*
X32376Y426389D01*
X32974Y426023D01*
X33621Y425755D01*
X34302Y425591D01*
X34993Y425537D01*
Y424463D01*
X34302Y424409D01*
X33621Y424245D01*
X32974Y423977D01*
X32376Y423611D01*
X31844Y423156D01*
X31389Y422624D01*
X31023Y422026D01*
X30755Y421379D01*
X30591Y420698D01*
X30536Y420000D01*
X30591Y419302D01*
X30755Y418621D01*
X31023Y417974D01*
X31389Y417376D01*
X31844Y416844D01*
X32376Y416389D01*
X32974Y416023D01*
X33621Y415755D01*
X34302Y415591D01*
X34993Y415537D01*
Y414463D01*
X34302Y414409D01*
X33621Y414245D01*
X32974Y413977D01*
X32376Y413611D01*
X31844Y413156D01*
X31389Y412624D01*
X31023Y412026D01*
X30755Y411379D01*
X30591Y410698D01*
X30536Y410000D01*
X30591Y409302D01*
X30755Y408621D01*
X31023Y407974D01*
X31389Y407376D01*
X31844Y406844D01*
X32376Y406389D01*
X32974Y406023D01*
X33621Y405755D01*
X34302Y405591D01*
X34993Y405537D01*
Y404463D01*
X34302Y404409D01*
X33621Y404245D01*
X32974Y403977D01*
X32376Y403611D01*
X31844Y403156D01*
X31389Y402624D01*
X31023Y402026D01*
X30755Y401379D01*
X30591Y400698D01*
X30536Y400000D01*
X30591Y399302D01*
X30755Y398621D01*
X31023Y397974D01*
X31389Y397376D01*
X31844Y396844D01*
X32376Y396389D01*
X32974Y396023D01*
X33621Y395755D01*
X34302Y395591D01*
X34993Y395537D01*
Y394463D01*
X34302Y394409D01*
X33621Y394245D01*
X32974Y393977D01*
X32376Y393611D01*
X31844Y393156D01*
X31389Y392624D01*
X31023Y392026D01*
X30755Y391379D01*
X30591Y390698D01*
X30536Y390000D01*
X30591Y389302D01*
X30755Y388621D01*
X31023Y387974D01*
X31389Y387376D01*
X31844Y386844D01*
X32376Y386389D01*
X32974Y386023D01*
X33621Y385755D01*
X34302Y385591D01*
X34993Y385537D01*
Y384463D01*
X34302Y384409D01*
X33621Y384245D01*
X32974Y383977D01*
X32376Y383611D01*
X31844Y383156D01*
X31389Y382624D01*
X31023Y382026D01*
X30755Y381379D01*
X30591Y380698D01*
X30536Y380000D01*
X30591Y379302D01*
X30755Y378621D01*
X31023Y377974D01*
X31389Y377376D01*
X31844Y376844D01*
X32376Y376389D01*
X32974Y376023D01*
X33621Y375755D01*
X34302Y375591D01*
X34993Y375537D01*
Y374463D01*
X34302Y374409D01*
X33621Y374245D01*
X32974Y373977D01*
X32376Y373611D01*
X31844Y373156D01*
X31389Y372624D01*
X31023Y372026D01*
X30755Y371379D01*
X30591Y370698D01*
X30536Y370000D01*
X30591Y369302D01*
X30755Y368621D01*
X31023Y367974D01*
X31389Y367376D01*
X31844Y366844D01*
X32376Y366389D01*
X32974Y366023D01*
X33621Y365755D01*
X34302Y365591D01*
X34993Y365537D01*
Y364463D01*
X34302Y364409D01*
X33621Y364245D01*
X32974Y363977D01*
X32376Y363611D01*
X31844Y363156D01*
X31389Y362624D01*
X31023Y362026D01*
X30755Y361379D01*
X30591Y360698D01*
X30536Y360000D01*
X30591Y359302D01*
X30755Y358621D01*
X31023Y357974D01*
X31389Y357376D01*
X31844Y356844D01*
X32376Y356389D01*
X32974Y356023D01*
X33621Y355755D01*
X34302Y355591D01*
X34993Y355537D01*
Y354463D01*
X34302Y354409D01*
X33621Y354245D01*
X32974Y353977D01*
X32376Y353611D01*
X31844Y353156D01*
X31389Y352624D01*
X31023Y352026D01*
X30755Y351379D01*
X30591Y350698D01*
X30536Y350000D01*
X30591Y349302D01*
X30755Y348621D01*
X31023Y347974D01*
X31389Y347376D01*
X31844Y346844D01*
X32376Y346389D01*
X32974Y346023D01*
X33621Y345755D01*
X34302Y345591D01*
X34993Y345537D01*
Y344463D01*
X34302Y344409D01*
X33621Y344245D01*
X32974Y343977D01*
X32376Y343611D01*
X31844Y343156D01*
X31389Y342624D01*
X31023Y342026D01*
X30755Y341379D01*
X30591Y340698D01*
X30536Y340000D01*
X30591Y339302D01*
X30755Y338621D01*
X31023Y337974D01*
X31389Y337376D01*
X31844Y336844D01*
X32376Y336389D01*
X32974Y336023D01*
X33621Y335755D01*
X34302Y335591D01*
X34993Y335537D01*
Y334463D01*
X34302Y334409D01*
X33621Y334245D01*
X32974Y333977D01*
X32376Y333611D01*
X31844Y333156D01*
X31389Y332624D01*
X31023Y332026D01*
X30755Y331379D01*
X30591Y330698D01*
X30536Y330000D01*
X30591Y329302D01*
X30755Y328621D01*
X31023Y327974D01*
X31389Y327376D01*
X31844Y326844D01*
X32376Y326389D01*
X32974Y326023D01*
X33621Y325755D01*
X34302Y325591D01*
X34993Y325537D01*
Y324463D01*
X34302Y324409D01*
X33621Y324245D01*
X32974Y323977D01*
X32376Y323611D01*
X31844Y323156D01*
X31389Y322624D01*
X31023Y322026D01*
X30755Y321379D01*
X30591Y320698D01*
X30536Y320000D01*
X30591Y319302D01*
X30755Y318621D01*
X31023Y317974D01*
X31389Y317376D01*
X31844Y316844D01*
X32376Y316389D01*
X32974Y316023D01*
X33621Y315755D01*
X34302Y315591D01*
X34993Y315537D01*
Y314463D01*
X34302Y314409D01*
X33621Y314245D01*
X32974Y313977D01*
X32376Y313611D01*
X31844Y313156D01*
X31389Y312624D01*
X31023Y312026D01*
X30755Y311379D01*
X30591Y310698D01*
X30536Y310000D01*
X30591Y309302D01*
X30755Y308621D01*
X31023Y307974D01*
X31389Y307376D01*
X31844Y306844D01*
X32376Y306389D01*
X32974Y306023D01*
X33621Y305755D01*
X34302Y305591D01*
X34993Y305537D01*
Y304463D01*
X34302Y304409D01*
X33621Y304245D01*
X32974Y303977D01*
X32376Y303611D01*
X31844Y303156D01*
X31389Y302624D01*
X31023Y302026D01*
X30755Y301379D01*
X30591Y300698D01*
X30536Y300000D01*
X30591Y299302D01*
X30755Y298621D01*
X31023Y297974D01*
X31389Y297376D01*
X31844Y296844D01*
X32376Y296389D01*
X32974Y296023D01*
X33621Y295755D01*
X34302Y295591D01*
X34993Y295537D01*
Y294463D01*
X34302Y294409D01*
X33621Y294245D01*
X32974Y293977D01*
X32376Y293611D01*
X31844Y293156D01*
X31389Y292624D01*
X31023Y292026D01*
X30755Y291379D01*
X30591Y290698D01*
X30536Y290000D01*
X30591Y289302D01*
X30755Y288621D01*
X31023Y287974D01*
X31389Y287376D01*
X31844Y286844D01*
X32376Y286389D01*
X32974Y286023D01*
X33621Y285755D01*
X34302Y285591D01*
X34993Y285537D01*
Y284463D01*
X34302Y284409D01*
X33621Y284245D01*
X32974Y283977D01*
X32376Y283611D01*
X31844Y283156D01*
X31389Y282624D01*
X31023Y282026D01*
X30755Y281379D01*
X30591Y280698D01*
X30536Y280000D01*
X30591Y279302D01*
X30755Y278621D01*
X31023Y277974D01*
X31389Y277376D01*
X31844Y276844D01*
X32376Y276389D01*
X32974Y276023D01*
X33621Y275755D01*
X34302Y275591D01*
X34993Y275537D01*
Y264299D01*
X34844Y264044D01*
X34517Y263353D01*
X34252Y262635D01*
X34052Y261897D01*
X33917Y261144D01*
X33850Y260382D01*
Y259618D01*
X33917Y258856D01*
X34052Y258103D01*
X34252Y257365D01*
X34517Y256647D01*
X34844Y255956D01*
X34993Y255702D01*
Y10000D01*
X24993D01*
Y275537D01*
X25000Y275536D01*
X25698Y275591D01*
X26379Y275755D01*
X27026Y276023D01*
X27624Y276389D01*
X28156Y276844D01*
X28611Y277376D01*
X28977Y277974D01*
X29245Y278621D01*
X29409Y279302D01*
X29450Y280000D01*
X29409Y280698D01*
X29245Y281379D01*
X28977Y282026D01*
X28611Y282624D01*
X28156Y283156D01*
X27624Y283611D01*
X27026Y283977D01*
X26379Y284245D01*
X25698Y284409D01*
X25000Y284464D01*
X24993Y284463D01*
Y285537D01*
X25000Y285536D01*
X25698Y285591D01*
X26379Y285755D01*
X27026Y286023D01*
X27624Y286389D01*
X28156Y286844D01*
X28611Y287376D01*
X28977Y287974D01*
X29245Y288621D01*
X29409Y289302D01*
X29450Y290000D01*
X29409Y290698D01*
X29245Y291379D01*
X28977Y292026D01*
X28611Y292624D01*
X28156Y293156D01*
X27624Y293611D01*
X27026Y293977D01*
X26379Y294245D01*
X25698Y294409D01*
X25000Y294464D01*
X24993Y294463D01*
Y295537D01*
X25000Y295536D01*
X25698Y295591D01*
X26379Y295755D01*
X27026Y296023D01*
X27624Y296389D01*
X28156Y296844D01*
X28611Y297376D01*
X28977Y297974D01*
X29245Y298621D01*
X29409Y299302D01*
X29450Y300000D01*
X29409Y300698D01*
X29245Y301379D01*
X28977Y302026D01*
X28611Y302624D01*
X28156Y303156D01*
X27624Y303611D01*
X27026Y303977D01*
X26379Y304245D01*
X25698Y304409D01*
X25000Y304464D01*
X24993Y304463D01*
Y305537D01*
X25000Y305536D01*
X25698Y305591D01*
X26379Y305755D01*
X27026Y306023D01*
X27624Y306389D01*
X28156Y306844D01*
X28611Y307376D01*
X28977Y307974D01*
X29245Y308621D01*
X29409Y309302D01*
X29450Y310000D01*
X29409Y310698D01*
X29245Y311379D01*
X28977Y312026D01*
X28611Y312624D01*
X28156Y313156D01*
X27624Y313611D01*
X27026Y313977D01*
X26379Y314245D01*
X25698Y314409D01*
X25000Y314464D01*
X24993Y314463D01*
Y315537D01*
X25000Y315536D01*
X25698Y315591D01*
X26379Y315755D01*
X27026Y316023D01*
X27624Y316389D01*
X28156Y316844D01*
X28611Y317376D01*
X28977Y317974D01*
X29245Y318621D01*
X29409Y319302D01*
X29450Y320000D01*
X29409Y320698D01*
X29245Y321379D01*
X28977Y322026D01*
X28611Y322624D01*
X28156Y323156D01*
X27624Y323611D01*
X27026Y323977D01*
X26379Y324245D01*
X25698Y324409D01*
X25000Y324464D01*
X24993Y324463D01*
Y325537D01*
X25000Y325536D01*
X25698Y325591D01*
X26379Y325755D01*
X27026Y326023D01*
X27624Y326389D01*
X28156Y326844D01*
X28611Y327376D01*
X28977Y327974D01*
X29245Y328621D01*
X29409Y329302D01*
X29450Y330000D01*
X29409Y330698D01*
X29245Y331379D01*
X28977Y332026D01*
X28611Y332624D01*
X28156Y333156D01*
X27624Y333611D01*
X27026Y333977D01*
X26379Y334245D01*
X25698Y334409D01*
X25000Y334464D01*
X24993Y334463D01*
Y335537D01*
X25000Y335536D01*
X25698Y335591D01*
X26379Y335755D01*
X27026Y336023D01*
X27624Y336389D01*
X28156Y336844D01*
X28611Y337376D01*
X28977Y337974D01*
X29245Y338621D01*
X29409Y339302D01*
X29450Y340000D01*
X29409Y340698D01*
X29245Y341379D01*
X28977Y342026D01*
X28611Y342624D01*
X28156Y343156D01*
X27624Y343611D01*
X27026Y343977D01*
X26379Y344245D01*
X25698Y344409D01*
X25000Y344464D01*
X24993Y344463D01*
Y345537D01*
X25000Y345536D01*
X25698Y345591D01*
X26379Y345755D01*
X27026Y346023D01*
X27624Y346389D01*
X28156Y346844D01*
X28611Y347376D01*
X28977Y347974D01*
X29245Y348621D01*
X29409Y349302D01*
X29450Y350000D01*
X29409Y350698D01*
X29245Y351379D01*
X28977Y352026D01*
X28611Y352624D01*
X28156Y353156D01*
X27624Y353611D01*
X27026Y353977D01*
X26379Y354245D01*
X25698Y354409D01*
X25000Y354464D01*
X24993Y354463D01*
Y355537D01*
X25000Y355536D01*
X25698Y355591D01*
X26379Y355755D01*
X27026Y356023D01*
X27624Y356389D01*
X28156Y356844D01*
X28611Y357376D01*
X28977Y357974D01*
X29245Y358621D01*
X29409Y359302D01*
X29450Y360000D01*
X29409Y360698D01*
X29245Y361379D01*
X28977Y362026D01*
X28611Y362624D01*
X28156Y363156D01*
X27624Y363611D01*
X27026Y363977D01*
X26379Y364245D01*
X25698Y364409D01*
X25000Y364464D01*
X24993Y364463D01*
Y365537D01*
X25000Y365536D01*
X25698Y365591D01*
X26379Y365755D01*
X27026Y366023D01*
X27624Y366389D01*
X28156Y366844D01*
X28611Y367376D01*
X28977Y367974D01*
X29245Y368621D01*
X29409Y369302D01*
X29450Y370000D01*
X29409Y370698D01*
X29245Y371379D01*
X28977Y372026D01*
X28611Y372624D01*
X28156Y373156D01*
X27624Y373611D01*
X27026Y373977D01*
X26379Y374245D01*
X25698Y374409D01*
X25000Y374464D01*
X24993Y374463D01*
Y375537D01*
X25000Y375536D01*
X25698Y375591D01*
X26379Y375755D01*
X27026Y376023D01*
X27624Y376389D01*
X28156Y376844D01*
X28611Y377376D01*
X28977Y377974D01*
X29245Y378621D01*
X29409Y379302D01*
X29450Y380000D01*
X29409Y380698D01*
X29245Y381379D01*
X28977Y382026D01*
X28611Y382624D01*
X28156Y383156D01*
X27624Y383611D01*
X27026Y383977D01*
X26379Y384245D01*
X25698Y384409D01*
X25000Y384464D01*
X24993Y384463D01*
Y385537D01*
X25000Y385536D01*
X25698Y385591D01*
X26379Y385755D01*
X27026Y386023D01*
X27624Y386389D01*
X28156Y386844D01*
X28611Y387376D01*
X28977Y387974D01*
X29245Y388621D01*
X29409Y389302D01*
X29450Y390000D01*
X29409Y390698D01*
X29245Y391379D01*
X28977Y392026D01*
X28611Y392624D01*
X28156Y393156D01*
X27624Y393611D01*
X27026Y393977D01*
X26379Y394245D01*
X25698Y394409D01*
X25000Y394464D01*
X24993Y394463D01*
Y395537D01*
X25000Y395536D01*
X25698Y395591D01*
X26379Y395755D01*
X27026Y396023D01*
X27624Y396389D01*
X28156Y396844D01*
X28611Y397376D01*
X28977Y397974D01*
X29245Y398621D01*
X29409Y399302D01*
X29450Y400000D01*
X29409Y400698D01*
X29245Y401379D01*
X28977Y402026D01*
X28611Y402624D01*
X28156Y403156D01*
X27624Y403611D01*
X27026Y403977D01*
X26379Y404245D01*
X25698Y404409D01*
X25000Y404464D01*
X24993Y404463D01*
Y405537D01*
X25000Y405536D01*
X25698Y405591D01*
X26379Y405755D01*
X27026Y406023D01*
X27624Y406389D01*
X28156Y406844D01*
X28611Y407376D01*
X28977Y407974D01*
X29245Y408621D01*
X29409Y409302D01*
X29450Y410000D01*
X29409Y410698D01*
X29245Y411379D01*
X28977Y412026D01*
X28611Y412624D01*
X28156Y413156D01*
X27624Y413611D01*
X27026Y413977D01*
X26379Y414245D01*
X25698Y414409D01*
X25000Y414464D01*
X24993Y414463D01*
Y415537D01*
X25000Y415536D01*
X25698Y415591D01*
X26379Y415755D01*
X27026Y416023D01*
X27624Y416389D01*
X28156Y416844D01*
X28611Y417376D01*
X28977Y417974D01*
X29245Y418621D01*
X29409Y419302D01*
X29450Y420000D01*
X29409Y420698D01*
X29245Y421379D01*
X28977Y422026D01*
X28611Y422624D01*
X28156Y423156D01*
X27624Y423611D01*
X27026Y423977D01*
X26379Y424245D01*
X25698Y424409D01*
X25000Y424464D01*
X24993Y424463D01*
Y425537D01*
X25000Y425536D01*
X25698Y425591D01*
X26379Y425755D01*
X27026Y426023D01*
X27624Y426389D01*
X28156Y426844D01*
X28611Y427376D01*
X28977Y427974D01*
X29245Y428621D01*
X29409Y429302D01*
X29450Y430000D01*
X29409Y430698D01*
X29245Y431379D01*
X28977Y432026D01*
X28611Y432624D01*
X28156Y433156D01*
X27624Y433611D01*
X27026Y433977D01*
X26379Y434245D01*
X25698Y434409D01*
X25000Y434464D01*
X24993Y434463D01*
Y435537D01*
X25000Y435536D01*
X25698Y435591D01*
X26379Y435755D01*
X27026Y436023D01*
X27624Y436389D01*
X28156Y436844D01*
X28611Y437376D01*
X28977Y437974D01*
X29245Y438621D01*
X29409Y439302D01*
X29450Y440000D01*
X29409Y440698D01*
X29245Y441379D01*
X28977Y442026D01*
X28611Y442624D01*
X28156Y443156D01*
X27624Y443611D01*
X27026Y443977D01*
X26379Y444245D01*
X25698Y444409D01*
X25000Y444464D01*
X24993Y444463D01*
Y445537D01*
X25000Y445536D01*
X25698Y445591D01*
X26379Y445755D01*
X27026Y446023D01*
X27624Y446389D01*
X28156Y446844D01*
X28611Y447376D01*
X28977Y447974D01*
X29245Y448621D01*
X29409Y449302D01*
X29450Y450000D01*
X29409Y450698D01*
X29245Y451379D01*
X28977Y452026D01*
X28611Y452624D01*
X28156Y453156D01*
X27624Y453611D01*
X27026Y453977D01*
X26379Y454245D01*
X25698Y454409D01*
X25000Y454464D01*
X24993Y454463D01*
Y455537D01*
X25000Y455536D01*
X25698Y455591D01*
X26379Y455755D01*
X27026Y456023D01*
X27624Y456389D01*
X28156Y456844D01*
X28611Y457376D01*
X28977Y457974D01*
X29245Y458621D01*
X29409Y459302D01*
X29450Y460000D01*
X29409Y460698D01*
X29245Y461379D01*
X28977Y462026D01*
X28611Y462624D01*
X28156Y463156D01*
X27624Y463611D01*
X27026Y463977D01*
X26379Y464245D01*
X25698Y464409D01*
X25000Y464464D01*
X24993Y464463D01*
Y465537D01*
X25000Y465536D01*
X25698Y465591D01*
X26379Y465755D01*
X27026Y466023D01*
X27624Y466389D01*
X28156Y466844D01*
X28611Y467376D01*
X28977Y467974D01*
X29245Y468621D01*
X29409Y469302D01*
X29450Y470000D01*
X29409Y470698D01*
X29245Y471379D01*
X28977Y472026D01*
X28611Y472624D01*
X28156Y473156D01*
X27624Y473611D01*
X27026Y473977D01*
X26379Y474245D01*
X25698Y474409D01*
X25000Y474464D01*
X24993Y474463D01*
Y475537D01*
X25000Y475536D01*
X25698Y475591D01*
X26379Y475755D01*
X27026Y476023D01*
X27624Y476389D01*
X28156Y476844D01*
X28611Y477376D01*
X28977Y477974D01*
X29245Y478621D01*
X29409Y479302D01*
X29450Y480000D01*
X29409Y480698D01*
X29245Y481379D01*
X28977Y482026D01*
X28611Y482624D01*
X28156Y483156D01*
X27624Y483611D01*
X27026Y483977D01*
X26379Y484245D01*
X25698Y484409D01*
X25000Y484464D01*
X24993Y484463D01*
Y485537D01*
X25000Y485536D01*
X25698Y485591D01*
X26379Y485755D01*
X27026Y486023D01*
X27624Y486389D01*
X28156Y486844D01*
X28611Y487376D01*
X28977Y487974D01*
X29245Y488621D01*
X29409Y489302D01*
X29450Y490000D01*
X29409Y490698D01*
X29245Y491379D01*
X28977Y492026D01*
X28611Y492624D01*
X28156Y493156D01*
X27624Y493611D01*
X27026Y493977D01*
X26379Y494245D01*
X25698Y494409D01*
X25000Y494464D01*
X24993Y494463D01*
Y495537D01*
X25000Y495536D01*
X25698Y495591D01*
X26379Y495755D01*
X27026Y496023D01*
X27624Y496389D01*
X28156Y496844D01*
X28611Y497376D01*
X28977Y497974D01*
X29245Y498621D01*
X29409Y499302D01*
X29450Y500000D01*
X29409Y500698D01*
X29245Y501379D01*
X28977Y502026D01*
X28611Y502624D01*
X28156Y503156D01*
X27624Y503611D01*
X27026Y503977D01*
X26379Y504245D01*
X25698Y504409D01*
X25000Y504464D01*
X24993Y504463D01*
Y512951D01*
G37*
G36*
Y525917D02*X25003Y525916D01*
X25083Y525925D01*
X25160Y525947D01*
X25232Y525980D01*
X25298Y526025D01*
X25844Y526423D01*
X26427Y526764D01*
X27038Y527053D01*
X27672Y527287D01*
X28324Y527464D01*
X28989Y527583D01*
X29662Y527643D01*
X30338D01*
X31011Y527583D01*
X31676Y527464D01*
X32328Y527287D01*
X32962Y527053D01*
X33573Y526764D01*
X34156Y526423D01*
X34707Y526031D01*
X34771Y525986D01*
X34843Y525954D01*
X34919Y525933D01*
X34993Y525924D01*
Y514083D01*
X34917Y514075D01*
X34840Y514053D01*
X34768Y514020D01*
X34702Y513975D01*
X34156Y513577D01*
X33573Y513236D01*
X32962Y512947D01*
X32328Y512713D01*
X31676Y512536D01*
X31011Y512417D01*
X30338Y512357D01*
X29662D01*
X28989Y512417D01*
X28324Y512536D01*
X27672Y512713D01*
X27038Y512947D01*
X26427Y513236D01*
X25844Y513577D01*
X25293Y513969D01*
X25229Y514014D01*
X25157Y514046D01*
X25081Y514067D01*
X25003Y514076D01*
X24993Y514076D01*
Y525917D01*
G37*
G36*
Y570000D02*X34993D01*
Y527059D01*
X34704Y527269D01*
X34044Y527656D01*
X33353Y527983D01*
X32635Y528248D01*
X31897Y528448D01*
X31144Y528583D01*
X30382Y528650D01*
X29618D01*
X28856Y528583D01*
X28103Y528448D01*
X27365Y528248D01*
X26647Y527983D01*
X25956Y527656D01*
X25296Y527269D01*
X24993Y527054D01*
Y570000D01*
G37*
G36*
X22717Y276180D02*X22974Y276023D01*
X23621Y275755D01*
X24302Y275591D01*
X24993Y275537D01*
Y10000D01*
X22717D01*
Y276180D01*
G37*
G36*
Y286180D02*X22974Y286023D01*
X23621Y285755D01*
X24302Y285591D01*
X24993Y285537D01*
Y284463D01*
X24302Y284409D01*
X23621Y284245D01*
X22974Y283977D01*
X22717Y283820D01*
Y286180D01*
G37*
G36*
Y296180D02*X22974Y296023D01*
X23621Y295755D01*
X24302Y295591D01*
X24993Y295537D01*
Y294463D01*
X24302Y294409D01*
X23621Y294245D01*
X22974Y293977D01*
X22717Y293820D01*
Y296180D01*
G37*
G36*
Y306180D02*X22974Y306023D01*
X23621Y305755D01*
X24302Y305591D01*
X24993Y305537D01*
Y304463D01*
X24302Y304409D01*
X23621Y304245D01*
X22974Y303977D01*
X22717Y303820D01*
Y306180D01*
G37*
G36*
Y316180D02*X22974Y316023D01*
X23621Y315755D01*
X24302Y315591D01*
X24993Y315537D01*
Y314463D01*
X24302Y314409D01*
X23621Y314245D01*
X22974Y313977D01*
X22717Y313820D01*
Y316180D01*
G37*
G36*
Y326180D02*X22974Y326023D01*
X23621Y325755D01*
X24302Y325591D01*
X24993Y325537D01*
Y324463D01*
X24302Y324409D01*
X23621Y324245D01*
X22974Y323977D01*
X22717Y323820D01*
Y326180D01*
G37*
G36*
Y336180D02*X22974Y336023D01*
X23621Y335755D01*
X24302Y335591D01*
X24993Y335537D01*
Y334463D01*
X24302Y334409D01*
X23621Y334245D01*
X22974Y333977D01*
X22717Y333820D01*
Y336180D01*
G37*
G36*
Y346180D02*X22974Y346023D01*
X23621Y345755D01*
X24302Y345591D01*
X24993Y345537D01*
Y344463D01*
X24302Y344409D01*
X23621Y344245D01*
X22974Y343977D01*
X22717Y343820D01*
Y346180D01*
G37*
G36*
Y356180D02*X22974Y356023D01*
X23621Y355755D01*
X24302Y355591D01*
X24993Y355537D01*
Y354463D01*
X24302Y354409D01*
X23621Y354245D01*
X22974Y353977D01*
X22717Y353820D01*
Y356180D01*
G37*
G36*
Y366180D02*X22974Y366023D01*
X23621Y365755D01*
X24302Y365591D01*
X24993Y365537D01*
Y364463D01*
X24302Y364409D01*
X23621Y364245D01*
X22974Y363977D01*
X22717Y363820D01*
Y366180D01*
G37*
G36*
Y376180D02*X22974Y376023D01*
X23621Y375755D01*
X24302Y375591D01*
X24993Y375537D01*
Y374463D01*
X24302Y374409D01*
X23621Y374245D01*
X22974Y373977D01*
X22717Y373820D01*
Y376180D01*
G37*
G36*
Y386180D02*X22974Y386023D01*
X23621Y385755D01*
X24302Y385591D01*
X24993Y385537D01*
Y384463D01*
X24302Y384409D01*
X23621Y384245D01*
X22974Y383977D01*
X22717Y383820D01*
Y386180D01*
G37*
G36*
Y396180D02*X22974Y396023D01*
X23621Y395755D01*
X24302Y395591D01*
X24993Y395537D01*
Y394463D01*
X24302Y394409D01*
X23621Y394245D01*
X22974Y393977D01*
X22717Y393820D01*
Y396180D01*
G37*
G36*
Y406180D02*X22974Y406023D01*
X23621Y405755D01*
X24302Y405591D01*
X24993Y405537D01*
Y404463D01*
X24302Y404409D01*
X23621Y404245D01*
X22974Y403977D01*
X22717Y403820D01*
Y406180D01*
G37*
G36*
Y416180D02*X22974Y416023D01*
X23621Y415755D01*
X24302Y415591D01*
X24993Y415537D01*
Y414463D01*
X24302Y414409D01*
X23621Y414245D01*
X22974Y413977D01*
X22717Y413820D01*
Y416180D01*
G37*
G36*
Y426180D02*X22974Y426023D01*
X23621Y425755D01*
X24302Y425591D01*
X24993Y425537D01*
Y424463D01*
X24302Y424409D01*
X23621Y424245D01*
X22974Y423977D01*
X22717Y423820D01*
Y426180D01*
G37*
G36*
Y436180D02*X22974Y436023D01*
X23621Y435755D01*
X24302Y435591D01*
X24993Y435537D01*
Y434463D01*
X24302Y434409D01*
X23621Y434245D01*
X22974Y433977D01*
X22717Y433820D01*
Y436180D01*
G37*
G36*
Y446180D02*X22974Y446023D01*
X23621Y445755D01*
X24302Y445591D01*
X24993Y445537D01*
Y444463D01*
X24302Y444409D01*
X23621Y444245D01*
X22974Y443977D01*
X22717Y443820D01*
Y446180D01*
G37*
G36*
Y456180D02*X22974Y456023D01*
X23621Y455755D01*
X24302Y455591D01*
X24993Y455537D01*
Y454463D01*
X24302Y454409D01*
X23621Y454245D01*
X22974Y453977D01*
X22717Y453820D01*
Y456180D01*
G37*
G36*
Y466180D02*X22974Y466023D01*
X23621Y465755D01*
X24302Y465591D01*
X24993Y465537D01*
Y464463D01*
X24302Y464409D01*
X23621Y464245D01*
X22974Y463977D01*
X22717Y463820D01*
Y466180D01*
G37*
G36*
Y476180D02*X22974Y476023D01*
X23621Y475755D01*
X24302Y475591D01*
X24993Y475537D01*
Y474463D01*
X24302Y474409D01*
X23621Y474245D01*
X22974Y473977D01*
X22717Y473820D01*
Y476180D01*
G37*
G36*
Y486180D02*X22974Y486023D01*
X23621Y485755D01*
X24302Y485591D01*
X24993Y485537D01*
Y484463D01*
X24302Y484409D01*
X23621Y484245D01*
X22974Y483977D01*
X22717Y483820D01*
Y486180D01*
G37*
G36*
Y496180D02*X22974Y496023D01*
X23621Y495755D01*
X24302Y495591D01*
X24993Y495537D01*
Y494463D01*
X24302Y494409D01*
X23621Y494245D01*
X22974Y493977D01*
X22717Y493820D01*
Y496180D01*
G37*
G36*
Y570000D02*X24993D01*
Y527054D01*
X24673Y526826D01*
X24614Y526772D01*
X24564Y526710D01*
X24525Y526640D01*
X24496Y526565D01*
X24481Y526487D01*
X24477Y526407D01*
X24486Y526328D01*
X24507Y526251D01*
X24540Y526178D01*
X24584Y526112D01*
X24638Y526053D01*
X24701Y526003D01*
X24770Y525964D01*
X24845Y525936D01*
X24923Y525920D01*
X24993Y525917D01*
Y514076D01*
X24924Y514073D01*
X24847Y514057D01*
X24774Y514030D01*
X24705Y513991D01*
X24643Y513942D01*
X24590Y513884D01*
X24547Y513818D01*
X24514Y513746D01*
X24493Y513671D01*
X24484Y513592D01*
X24488Y513514D01*
X24504Y513437D01*
X24531Y513363D01*
X24570Y513294D01*
X24619Y513233D01*
X24678Y513181D01*
X24993Y512951D01*
Y504463D01*
X24302Y504409D01*
X23621Y504245D01*
X22974Y503977D01*
X22717Y503820D01*
Y515320D01*
X22731Y515296D01*
X23174Y514673D01*
X23228Y514614D01*
X23290Y514564D01*
X23360Y514525D01*
X23435Y514497D01*
X23513Y514481D01*
X23593Y514477D01*
X23672Y514486D01*
X23749Y514507D01*
X23822Y514540D01*
X23888Y514584D01*
X23947Y514638D01*
X23997Y514701D01*
X24036Y514770D01*
X24064Y514845D01*
X24080Y514923D01*
X24084Y515003D01*
X24075Y515083D01*
X24053Y515160D01*
X24020Y515232D01*
X23975Y515298D01*
X23577Y515844D01*
X23236Y516427D01*
X22947Y517038D01*
X22717Y517661D01*
Y522339D01*
X22947Y522962D01*
X23236Y523573D01*
X23577Y524156D01*
X23969Y524707D01*
X24014Y524771D01*
X24046Y524843D01*
X24067Y524919D01*
X24076Y524997D01*
X24073Y525076D01*
X24057Y525153D01*
X24030Y525226D01*
X23991Y525295D01*
X23942Y525357D01*
X23884Y525410D01*
X23818Y525453D01*
X23746Y525486D01*
X23671Y525507D01*
X23592Y525516D01*
X23514Y525512D01*
X23437Y525496D01*
X23363Y525469D01*
X23294Y525430D01*
X23233Y525381D01*
X23181Y525322D01*
X22731Y524704D01*
X22717Y524680D01*
Y570000D01*
G37*
G36*
Y517661D02*X22713Y517672D01*
X22536Y518324D01*
X22417Y518989D01*
X22357Y519662D01*
Y520338D01*
X22417Y521011D01*
X22536Y521676D01*
X22713Y522328D01*
X22717Y522339D01*
Y517661D01*
G37*
G36*
X10000Y570000D02*X22717D01*
Y524680D01*
X22344Y524044D01*
X22017Y523353D01*
X21752Y522635D01*
X21552Y521897D01*
X21417Y521144D01*
X21350Y520382D01*
Y519618D01*
X21417Y518856D01*
X21552Y518103D01*
X21752Y517365D01*
X22017Y516647D01*
X22344Y515956D01*
X22717Y515320D01*
Y503820D01*
X22376Y503611D01*
X21844Y503156D01*
X21389Y502624D01*
X21023Y502026D01*
X20755Y501379D01*
X20591Y500698D01*
X20536Y500000D01*
X20591Y499302D01*
X20755Y498621D01*
X21023Y497974D01*
X21389Y497376D01*
X21844Y496844D01*
X22376Y496389D01*
X22717Y496180D01*
Y493820D01*
X22376Y493611D01*
X21844Y493156D01*
X21389Y492624D01*
X21023Y492026D01*
X20755Y491379D01*
X20591Y490698D01*
X20536Y490000D01*
X20591Y489302D01*
X20755Y488621D01*
X21023Y487974D01*
X21389Y487376D01*
X21844Y486844D01*
X22376Y486389D01*
X22717Y486180D01*
Y483820D01*
X22376Y483611D01*
X21844Y483156D01*
X21389Y482624D01*
X21023Y482026D01*
X20755Y481379D01*
X20591Y480698D01*
X20536Y480000D01*
X20591Y479302D01*
X20755Y478621D01*
X21023Y477974D01*
X21389Y477376D01*
X21844Y476844D01*
X22376Y476389D01*
X22717Y476180D01*
Y473820D01*
X22376Y473611D01*
X21844Y473156D01*
X21389Y472624D01*
X21023Y472026D01*
X20755Y471379D01*
X20591Y470698D01*
X20536Y470000D01*
X20591Y469302D01*
X20755Y468621D01*
X21023Y467974D01*
X21389Y467376D01*
X21844Y466844D01*
X22376Y466389D01*
X22717Y466180D01*
Y463820D01*
X22376Y463611D01*
X21844Y463156D01*
X21389Y462624D01*
X21023Y462026D01*
X20755Y461379D01*
X20591Y460698D01*
X20536Y460000D01*
X20591Y459302D01*
X20755Y458621D01*
X21023Y457974D01*
X21389Y457376D01*
X21844Y456844D01*
X22376Y456389D01*
X22717Y456180D01*
Y453820D01*
X22376Y453611D01*
X21844Y453156D01*
X21389Y452624D01*
X21023Y452026D01*
X20755Y451379D01*
X20591Y450698D01*
X20536Y450000D01*
X20591Y449302D01*
X20755Y448621D01*
X21023Y447974D01*
X21389Y447376D01*
X21844Y446844D01*
X22376Y446389D01*
X22717Y446180D01*
Y443820D01*
X22376Y443611D01*
X21844Y443156D01*
X21389Y442624D01*
X21023Y442026D01*
X20755Y441379D01*
X20591Y440698D01*
X20536Y440000D01*
X20591Y439302D01*
X20755Y438621D01*
X21023Y437974D01*
X21389Y437376D01*
X21844Y436844D01*
X22376Y436389D01*
X22717Y436180D01*
Y433820D01*
X22376Y433611D01*
X21844Y433156D01*
X21389Y432624D01*
X21023Y432026D01*
X20755Y431379D01*
X20591Y430698D01*
X20536Y430000D01*
X20591Y429302D01*
X20755Y428621D01*
X21023Y427974D01*
X21389Y427376D01*
X21844Y426844D01*
X22376Y426389D01*
X22717Y426180D01*
Y423820D01*
X22376Y423611D01*
X21844Y423156D01*
X21389Y422624D01*
X21023Y422026D01*
X20755Y421379D01*
X20591Y420698D01*
X20536Y420000D01*
X20591Y419302D01*
X20755Y418621D01*
X21023Y417974D01*
X21389Y417376D01*
X21844Y416844D01*
X22376Y416389D01*
X22717Y416180D01*
Y413820D01*
X22376Y413611D01*
X21844Y413156D01*
X21389Y412624D01*
X21023Y412026D01*
X20755Y411379D01*
X20591Y410698D01*
X20536Y410000D01*
X20591Y409302D01*
X20755Y408621D01*
X21023Y407974D01*
X21389Y407376D01*
X21844Y406844D01*
X22376Y406389D01*
X22717Y406180D01*
Y403820D01*
X22376Y403611D01*
X21844Y403156D01*
X21389Y402624D01*
X21023Y402026D01*
X20755Y401379D01*
X20591Y400698D01*
X20536Y400000D01*
X20591Y399302D01*
X20755Y398621D01*
X21023Y397974D01*
X21389Y397376D01*
X21844Y396844D01*
X22376Y396389D01*
X22717Y396180D01*
Y393820D01*
X22376Y393611D01*
X21844Y393156D01*
X21389Y392624D01*
X21023Y392026D01*
X20755Y391379D01*
X20591Y390698D01*
X20536Y390000D01*
X20591Y389302D01*
X20755Y388621D01*
X21023Y387974D01*
X21389Y387376D01*
X21844Y386844D01*
X22376Y386389D01*
X22717Y386180D01*
Y383820D01*
X22376Y383611D01*
X21844Y383156D01*
X21389Y382624D01*
X21023Y382026D01*
X20755Y381379D01*
X20591Y380698D01*
X20536Y380000D01*
X20591Y379302D01*
X20755Y378621D01*
X21023Y377974D01*
X21389Y377376D01*
X21844Y376844D01*
X22376Y376389D01*
X22717Y376180D01*
Y373820D01*
X22376Y373611D01*
X21844Y373156D01*
X21389Y372624D01*
X21023Y372026D01*
X20755Y371379D01*
X20591Y370698D01*
X20536Y370000D01*
X20591Y369302D01*
X20755Y368621D01*
X21023Y367974D01*
X21389Y367376D01*
X21844Y366844D01*
X22376Y366389D01*
X22717Y366180D01*
Y363820D01*
X22376Y363611D01*
X21844Y363156D01*
X21389Y362624D01*
X21023Y362026D01*
X20755Y361379D01*
X20591Y360698D01*
X20536Y360000D01*
X20591Y359302D01*
X20755Y358621D01*
X21023Y357974D01*
X21389Y357376D01*
X21844Y356844D01*
X22376Y356389D01*
X22717Y356180D01*
Y353820D01*
X22376Y353611D01*
X21844Y353156D01*
X21389Y352624D01*
X21023Y352026D01*
X20755Y351379D01*
X20591Y350698D01*
X20536Y350000D01*
X20591Y349302D01*
X20755Y348621D01*
X21023Y347974D01*
X21389Y347376D01*
X21844Y346844D01*
X22376Y346389D01*
X22717Y346180D01*
Y343820D01*
X22376Y343611D01*
X21844Y343156D01*
X21389Y342624D01*
X21023Y342026D01*
X20755Y341379D01*
X20591Y340698D01*
X20536Y340000D01*
X20591Y339302D01*
X20755Y338621D01*
X21023Y337974D01*
X21389Y337376D01*
X21844Y336844D01*
X22376Y336389D01*
X22717Y336180D01*
Y333820D01*
X22376Y333611D01*
X21844Y333156D01*
X21389Y332624D01*
X21023Y332026D01*
X20755Y331379D01*
X20591Y330698D01*
X20536Y330000D01*
X20591Y329302D01*
X20755Y328621D01*
X21023Y327974D01*
X21389Y327376D01*
X21844Y326844D01*
X22376Y326389D01*
X22717Y326180D01*
Y323820D01*
X22376Y323611D01*
X21844Y323156D01*
X21389Y322624D01*
X21023Y322026D01*
X20755Y321379D01*
X20591Y320698D01*
X20536Y320000D01*
X20591Y319302D01*
X20755Y318621D01*
X21023Y317974D01*
X21389Y317376D01*
X21844Y316844D01*
X22376Y316389D01*
X22717Y316180D01*
Y313820D01*
X22376Y313611D01*
X21844Y313156D01*
X21389Y312624D01*
X21023Y312026D01*
X20755Y311379D01*
X20591Y310698D01*
X20536Y310000D01*
X20591Y309302D01*
X20755Y308621D01*
X21023Y307974D01*
X21389Y307376D01*
X21844Y306844D01*
X22376Y306389D01*
X22717Y306180D01*
Y303820D01*
X22376Y303611D01*
X21844Y303156D01*
X21389Y302624D01*
X21023Y302026D01*
X20755Y301379D01*
X20591Y300698D01*
X20536Y300000D01*
X20591Y299302D01*
X20755Y298621D01*
X21023Y297974D01*
X21389Y297376D01*
X21844Y296844D01*
X22376Y296389D01*
X22717Y296180D01*
Y293820D01*
X22376Y293611D01*
X21844Y293156D01*
X21389Y292624D01*
X21023Y292026D01*
X20755Y291379D01*
X20591Y290698D01*
X20536Y290000D01*
X20591Y289302D01*
X20755Y288621D01*
X21023Y287974D01*
X21389Y287376D01*
X21844Y286844D01*
X22376Y286389D01*
X22717Y286180D01*
Y283820D01*
X22376Y283611D01*
X21844Y283156D01*
X21389Y282624D01*
X21023Y282026D01*
X20755Y281379D01*
X20591Y280698D01*
X20536Y280000D01*
X20591Y279302D01*
X20755Y278621D01*
X21023Y277974D01*
X21389Y277376D01*
X21844Y276844D01*
X22376Y276389D01*
X22717Y276180D01*
Y10000D01*
X10000D01*
Y570000D01*
G37*
G54D30*X220000Y520000D03*
G54D29*G36*
X221550Y503450D02*Y496550D01*
X228450D01*
Y503450D01*
X221550D01*
G37*
G54D31*X215000Y500000D03*
Y490000D03*
X225000D03*
X215000Y480000D03*
Y470000D03*
X225000Y480000D03*
Y470000D03*
G54D29*G36*
X31550Y503450D02*Y496550D01*
X38450D01*
Y503450D01*
X31550D01*
G37*
G54D31*X215000Y370000D03*
X35000D03*
X215000Y360000D03*
X35000D03*
X25000D03*
Y370000D03*
X215000Y460000D03*
Y450000D03*
Y440000D03*
Y430000D03*
Y420000D03*
X225000Y460000D03*
Y450000D03*
Y440000D03*
Y430000D03*
Y420000D03*
Y410000D03*
Y400000D03*
Y390000D03*
Y380000D03*
Y370000D03*
Y360000D03*
X215000Y410000D03*
Y400000D03*
Y390000D03*
Y380000D03*
G54D32*X300000Y440000D03*
G54D29*G36*
X276000Y433000D02*Y427000D01*
X282000D01*
Y433000D01*
X276000D01*
G37*
G54D32*X279000Y440000D03*
G54D29*G36*
X254000Y433000D02*Y427000D01*
X260000D01*
Y433000D01*
X254000D01*
G37*
G54D32*X257000Y440000D03*
X300000Y430000D03*
Y420000D03*
Y410000D03*
Y400000D03*
Y390000D03*
Y380000D03*
Y370000D03*
G54D29*G36*
X361250Y412750D02*Y407250D01*
X366750D01*
Y412750D01*
X361250D01*
G37*
G36*
Y402750D02*Y397250D01*
X366750D01*
Y402750D01*
X361250D01*
G37*
G54D33*X404000Y410000D03*
Y400000D03*
G54D30*X30000Y520000D03*
G54D31*X25000Y500000D03*
X35000Y450000D03*
X25000D03*
X35000Y490000D03*
Y480000D03*
X25000D03*
Y490000D03*
X35000Y470000D03*
Y460000D03*
X25000D03*
Y470000D03*
G54D30*X42500Y260000D03*
G54D31*X35000Y280000D03*
Y350000D03*
Y340000D03*
Y330000D03*
Y320000D03*
Y310000D03*
Y300000D03*
X25000D03*
Y310000D03*
X35000Y290000D03*
X25000Y280000D03*
Y290000D03*
Y320000D03*
Y330000D03*
Y340000D03*
Y350000D03*
X35000Y440000D03*
X25000D03*
X35000Y430000D03*
X25000D03*
X35000Y420000D03*
Y410000D03*
Y400000D03*
X25000D03*
Y410000D03*
X35000Y390000D03*
Y380000D03*
X25000D03*
Y390000D03*
Y420000D03*
G54D30*X207500Y260000D03*
G54D31*X215000Y280000D03*
G54D34*X393504Y201189D03*
X375000Y213000D03*
Y189378D03*
G54D31*X215000Y350000D03*
Y340000D03*
Y330000D03*
Y320000D03*
Y310000D03*
Y300000D03*
Y290000D03*
X225000Y280000D03*
Y290000D03*
Y350000D03*
Y340000D03*
Y330000D03*
Y320000D03*
Y310000D03*
Y300000D03*
G54D35*X196000Y35500D03*
Y180500D03*
X51000Y35500D03*
Y180500D03*
G54D36*X116000Y213000D03*
X106000D03*
X96000D03*
X86000D03*
X76000D03*
X66000D03*
G54D37*X174000D03*
X154000D03*
X134000D03*
G54D32*X350000Y189000D03*
X154000Y184000D03*
X245000Y500000D03*
G54D38*X344000Y385000D03*
G54D32*X244000Y430000D03*
X245000Y490000D03*
Y470000D03*
G54D38*X344000Y435000D03*
G54D32*X116000Y247000D03*
Y355000D03*
G54D39*G54D37*G54D39*G54D37*G54D39*G54D40*G54D41*G54D39*G54D42*G54D39*G54D42*G54D40*G54D41*G54D40*G54D41*G54D40*G54D41*G54D32*G54D41*G54D43*G54D41*M02*
