M48
INCH
T49C0.060
T48C0.038
T47C0.125
T46C0.041
T45C0.130
T44C0.030
T43C0.035
%
T44
X008500Y030000
X008500Y026000
X009500Y015000
X009500Y011000
X010200Y030000
X010200Y026000
X014000Y030000
X014000Y026000
X015000Y015000
X015000Y011000
X015700Y030000
X015700Y026000
X023300Y007300
X023300Y006300
X023900Y005000
X024900Y005000
X025400Y007300
X025400Y006300
X027000Y025000
X027000Y024000
X027000Y021970
X027000Y021000
X029100Y025000
X029100Y024000
X029300Y007300
X029300Y006300
X029900Y005000
X030900Y005000
X031000Y021970
X031000Y021000
X031400Y007300
X031400Y006300
T43
X005100Y005000
X008500Y016800
X009500Y016800
X010500Y016800
X011100Y016200
X011200Y026000
X013800Y001700
X014000Y016800
X015000Y016800
X016000Y016800
X016600Y026000
X016600Y016200
X022100Y006000
X023700Y031000
X023900Y002400
X024300Y025000
X024300Y024000
X024300Y023000
X024300Y022000
X024300Y021000
X024300Y020000
X024300Y019000
X024300Y018000
X024600Y029500
X024900Y002400
X025400Y026300
X025400Y008300
X025900Y002400
X026900Y002400
X027000Y023300
X027900Y002400
X028000Y025000
X028900Y002400
X029300Y008300
X029900Y002400
X030600Y024000
X030900Y002400
X031400Y008300
T48
X003100Y003900
X003100Y002900
X004100Y003900
X004100Y002900
X005100Y003900
X005100Y002900
X006100Y003900
X006100Y002900
X007100Y003900
X007100Y002900
T46
X002500Y031000
X002500Y030000
X002500Y029000
X002500Y028000
X002500Y027000
X002500Y026000
X002500Y025000
X002500Y024000
X002500Y023000
X002500Y022000
X002500Y021000
X002500Y020000
X002500Y019000
X002500Y018000
X002500Y017000
X002500Y016000
X002500Y015000
X002500Y014000
X002500Y013000
X002500Y012000
X002500Y011000
X002500Y010000
X002500Y009000
X003500Y031000
X003500Y030000
X003500Y029000
X003500Y028000
X003500Y027000
X003500Y026000
X003500Y025000
X003500Y024000
X003500Y023000
X003500Y022000
X003500Y021000
X003500Y020000
X003500Y019000
X003500Y018000
X003500Y017000
X003500Y016000
X003500Y015000
X003500Y014000
X003500Y013000
X003500Y012000
X003500Y011000
X003500Y010000
X003500Y009000
X021500Y031000
X021500Y030000
X021500Y029000
X021500Y028000
X021500Y027000
X021500Y026000
X021500Y025000
X021500Y024000
X021500Y023000
X021500Y022000
X021500Y021000
X021500Y020000
X021500Y019000
X021500Y018000
X021500Y017000
X021500Y016000
X021500Y015000
X021500Y014000
X021500Y013000
X021500Y012000
X021500Y011000
X021500Y010000
X021500Y009000
X022500Y031000
X022500Y030000
X022500Y029000
X022500Y028000
X022500Y027000
X022500Y026000
X022500Y025000
X022500Y024000
X022500Y023000
X022500Y022000
X022500Y021000
X022500Y020000
X022500Y019000
X022500Y018000
X022500Y017000
X022500Y016000
X022500Y015000
X022500Y014000
X022500Y013000
X022500Y012000
X022500Y011000
X022500Y010000
X022500Y009000
T49
X015000Y003562
X015000Y001200
X016850Y002381
T47
X003000Y033000
X004250Y007000
X020750Y007000
X022000Y033000
T45
X009500Y023500
X015000Y023500
M30
