G04 start of page 9 for group -3984 idx -3984 *
G04 Title: Motor Controller, fab *
G04 Creator: pcb 4.2.2 *
G04 CreationDate: Mon Feb 22 05:04:53 2021 UTC *
G04 For: kevin *
G04 Format: Gerber/RS-274X *
G04 PCB-Dimensions (mil): 4750.00 5800.00 *
G04 PCB-Coordinate-Origin: lower left *
%MOIN*%
%FSLAX25Y25*%
%LNFAB*%
%ADD76C,0.0100*%
%ADD75C,0.0075*%
%ADD74C,0.0060*%
%ADD73C,0.0080*%
G54D73*X30000Y523200D02*Y516800D01*
X26800Y520000D02*X33200D01*
X28400Y521600D02*X31600D01*
X28400D02*Y518400D01*
X31600D01*
Y521600D02*Y518400D01*
X220000Y523200D02*Y516800D01*
X216800Y520000D02*X223200D01*
X218400Y521600D02*X221600D01*
X218400D02*Y518400D01*
X221600D01*
Y521600D02*Y518400D01*
X207500Y263200D02*Y256800D01*
X204300Y260000D02*X210700D01*
X205900Y261600D02*X209100D01*
X205900D02*Y258400D01*
X209100D01*
Y261600D02*Y258400D01*
X42500Y263200D02*Y256800D01*
X39300Y260000D02*X45700D01*
X40900Y261600D02*X44100D01*
X40900D02*Y258400D01*
X44100D01*
Y261600D02*Y258400D01*
X15000Y594450D02*Y588050D01*
X11800Y591250D02*X18200D01*
X13400Y592850D02*X16600D01*
X13400D02*Y589650D01*
X16600D01*
Y592850D02*Y589650D01*
G54D74*X135000Y593500D02*X136500Y590500D01*
X138000Y593500D01*
X136500Y590500D02*Y587500D01*
X139800Y590800D02*X142050D01*
X139800Y587500D02*X142800D01*
X139800Y593500D02*Y587500D01*
Y593500D02*X142800D01*
X147600D02*X148350Y592750D01*
X145350Y593500D02*X147600D01*
X144600Y592750D02*X145350Y593500D01*
X144600Y592750D02*Y591250D01*
X145350Y590500D01*
X147600D01*
X148350Y589750D01*
Y588250D01*
X147600Y587500D02*X148350Y588250D01*
X145350Y587500D02*X147600D01*
X144600Y588250D02*X145350Y587500D01*
X98000Y589750D02*X101000Y593500D01*
X98000Y589750D02*X101750D01*
X101000Y593500D02*Y587500D01*
X45000Y588250D02*X45750Y587500D01*
X45000Y592750D02*Y588250D01*
Y592750D02*X45750Y593500D01*
X47250D01*
X48000Y592750D01*
Y588250D01*
X47250Y587500D02*X48000Y588250D01*
X45750Y587500D02*X47250D01*
X45000Y589000D02*X48000Y592000D01*
X49800Y587500D02*X50550D01*
X52350Y592300D02*X53550Y593500D01*
Y587500D01*
X52350D02*X54600D01*
X56400Y592750D02*X57150Y593500D01*
X59400D01*
X60150Y592750D01*
Y591250D01*
X56400Y587500D02*X60150Y591250D01*
X56400Y587500D02*X60150D01*
X61950Y593500D02*X64950D01*
X61950D02*Y590500D01*
X62700Y591250D01*
X64200D01*
X64950Y590500D01*
Y588250D01*
X64200Y587500D02*X64950Y588250D01*
X62700Y587500D02*X64200D01*
X61950Y588250D02*X62700Y587500D01*
X196000Y35500D02*Y32300D01*
Y35500D02*X198773Y37100D01*
X196000Y35500D02*X193227Y37100D01*
X194400Y35500D02*G75*G03X197600Y35500I1600J0D01*G01*
G75*G03X194400Y35500I-1600J0D01*G01*
X51000D02*Y32300D01*
Y35500D02*X53773Y37100D01*
X51000Y35500D02*X48227Y37100D01*
X49400Y35500D02*G75*G03X52600Y35500I1600J0D01*G01*
G75*G03X49400Y35500I-1600J0D01*G01*
X51000Y180500D02*Y177300D01*
Y180500D02*X53773Y182100D01*
X51000Y180500D02*X48227Y182100D01*
X49400Y180500D02*G75*G03X52600Y180500I1600J0D01*G01*
G75*G03X49400Y180500I-1600J0D01*G01*
X196000D02*Y177300D01*
Y180500D02*X198773Y182100D01*
X196000Y180500D02*X193227Y182100D01*
X194400Y180500D02*G75*G03X197600Y180500I1600J0D01*G01*
G75*G03X194400Y180500I-1600J0D01*G01*
X15000Y606250D02*Y603050D01*
Y606250D02*X17773Y607850D01*
X15000Y606250D02*X12227Y607850D01*
X13400Y606250D02*G75*G03X16600Y606250I1600J0D01*G01*
G75*G03X13400Y606250I-1600J0D01*G01*
X135000Y608500D02*X136500Y605500D01*
X138000Y608500D01*
X136500Y605500D02*Y602500D01*
X139800Y605800D02*X142050D01*
X139800Y602500D02*X142800D01*
X139800Y608500D02*Y602500D01*
Y608500D02*X142800D01*
X147600D02*X148350Y607750D01*
X145350Y608500D02*X147600D01*
X144600Y607750D02*X145350Y608500D01*
X144600Y607750D02*Y606250D01*
X145350Y605500D01*
X147600D01*
X148350Y604750D01*
Y603250D01*
X147600Y602500D02*X148350Y603250D01*
X145350Y602500D02*X147600D01*
X144600Y603250D02*X145350Y602500D01*
X98000Y604750D02*X101000Y608500D01*
X98000Y604750D02*X101750D01*
X101000Y608500D02*Y602500D01*
X45000Y603250D02*X45750Y602500D01*
X45000Y607750D02*Y603250D01*
Y607750D02*X45750Y608500D01*
X47250D01*
X48000Y607750D01*
Y603250D01*
X47250Y602500D02*X48000Y603250D01*
X45750Y602500D02*X47250D01*
X45000Y604000D02*X48000Y607000D01*
X49800Y602500D02*X50550D01*
X52350Y607300D02*X53550Y608500D01*
Y602500D01*
X52350D02*X54600D01*
X56400Y607750D02*X57150Y608500D01*
X59400D01*
X60150Y607750D01*
Y606250D01*
X56400Y602500D02*X60150Y606250D01*
X56400Y602500D02*X60150D01*
X61950Y603250D02*X62700Y602500D01*
X61950Y607750D02*Y603250D01*
Y607750D02*X62700Y608500D01*
X64200D01*
X64950Y607750D01*
Y603250D01*
X64200Y602500D02*X64950Y603250D01*
X62700Y602500D02*X64200D01*
X61950Y604000D02*X64950Y607000D01*
X342400Y386600D02*X345600D01*
X342400D02*Y383400D01*
X345600D01*
Y386600D02*Y383400D01*
X342400Y436600D02*X345600D01*
X342400D02*Y433400D01*
X345600D01*
Y436600D02*Y433400D01*
X13400Y622850D02*X16600D01*
X13400D02*Y619650D01*
X16600D01*
Y622850D02*Y619650D01*
X135000Y623500D02*X136500Y620500D01*
X138000Y623500D01*
X136500Y620500D02*Y617500D01*
X139800Y620800D02*X142050D01*
X139800Y617500D02*X142800D01*
X139800Y623500D02*Y617500D01*
Y623500D02*X142800D01*
X147600D02*X148350Y622750D01*
X145350Y623500D02*X147600D01*
X144600Y622750D02*X145350Y623500D01*
X144600Y622750D02*Y621250D01*
X145350Y620500D01*
X147600D01*
X148350Y619750D01*
Y618250D01*
X147600Y617500D02*X148350Y618250D01*
X145350Y617500D02*X147600D01*
X144600Y618250D02*X145350Y617500D01*
X98000Y622750D02*X98750Y623500D01*
X101000D01*
X101750Y622750D01*
Y621250D01*
X98000Y617500D02*X101750Y621250D01*
X98000Y617500D02*X101750D01*
X45000Y618250D02*X45750Y617500D01*
X45000Y622750D02*Y618250D01*
Y622750D02*X45750Y623500D01*
X47250D01*
X48000Y622750D01*
Y618250D01*
X47250Y617500D02*X48000Y618250D01*
X45750Y617500D02*X47250D01*
X45000Y619000D02*X48000Y622000D01*
X49800Y617500D02*X50550D01*
X52350Y622300D02*X53550Y623500D01*
Y617500D01*
X52350D02*X54600D01*
X56400Y618250D02*X57150Y617500D01*
X56400Y622750D02*Y618250D01*
Y622750D02*X57150Y623500D01*
X58650D01*
X59400Y622750D01*
Y618250D01*
X58650Y617500D02*X59400Y618250D01*
X57150Y617500D02*X58650D01*
X56400Y619000D02*X59400Y622000D01*
X61200Y618250D02*X61950Y617500D01*
X61200Y622750D02*Y618250D01*
Y622750D02*X61950Y623500D01*
X63450D01*
X64200Y622750D01*
Y618250D01*
X63450Y617500D02*X64200Y618250D01*
X61950Y617500D02*X63450D01*
X61200Y619000D02*X64200Y622000D01*
X392704Y201189D02*G75*G03X394304Y201189I800J0D01*G01*
G75*G03X392704Y201189I-800J0D01*G01*
X374200Y213000D02*G75*G03X375800Y213000I800J0D01*G01*
G75*G03X374200Y213000I-800J0D01*G01*
Y189378D02*G75*G03X375800Y189378I800J0D01*G01*
G75*G03X374200Y189378I-800J0D01*G01*
X14200Y636250D02*G75*G03X15800Y636250I800J0D01*G01*
G75*G03X14200Y636250I-800J0D01*G01*
X135000Y638500D02*X136500Y635500D01*
X138000Y638500D01*
X136500Y635500D02*Y632500D01*
X139800Y635800D02*X142050D01*
X139800Y632500D02*X142800D01*
X139800Y638500D02*Y632500D01*
Y638500D02*X142800D01*
X147600D02*X148350Y637750D01*
X145350Y638500D02*X147600D01*
X144600Y637750D02*X145350Y638500D01*
X144600Y637750D02*Y636250D01*
X145350Y635500D01*
X147600D01*
X148350Y634750D01*
Y633250D01*
X147600Y632500D02*X148350Y633250D01*
X145350Y632500D02*X147600D01*
X144600Y633250D02*X145350Y632500D01*
X98000Y637750D02*X98750Y638500D01*
X100250D01*
X101000Y637750D01*
X100250Y632500D02*X101000Y633250D01*
X98750Y632500D02*X100250D01*
X98000Y633250D02*X98750Y632500D01*
Y635800D02*X100250D01*
X101000Y637750D02*Y636550D01*
Y635050D02*Y633250D01*
Y635050D02*X100250Y635800D01*
X101000Y636550D02*X100250Y635800D01*
X45000Y633250D02*X45750Y632500D01*
X45000Y637750D02*Y633250D01*
Y637750D02*X45750Y638500D01*
X47250D01*
X48000Y637750D01*
Y633250D01*
X47250Y632500D02*X48000Y633250D01*
X45750Y632500D02*X47250D01*
X45000Y634000D02*X48000Y637000D01*
X49800Y632500D02*X50550D01*
X52350Y633250D02*X53100Y632500D01*
X52350Y637750D02*Y633250D01*
Y637750D02*X53100Y638500D01*
X54600D01*
X55350Y637750D01*
Y633250D01*
X54600Y632500D02*X55350Y633250D01*
X53100Y632500D02*X54600D01*
X52350Y634000D02*X55350Y637000D01*
X59400Y638500D02*X60150Y637750D01*
X57900Y638500D02*X59400D01*
X57150Y637750D02*X57900Y638500D01*
X57150Y637750D02*Y633250D01*
X57900Y632500D01*
X59400Y635800D02*X60150Y635050D01*
X57150Y635800D02*X59400D01*
X57900Y632500D02*X59400D01*
X60150Y633250D01*
Y635050D02*Y633250D01*
X61950D02*X62700Y632500D01*
X61950Y637750D02*Y633250D01*
Y637750D02*X62700Y638500D01*
X64200D01*
X64950Y637750D01*
Y633250D01*
X64200Y632500D02*X64950Y633250D01*
X62700Y632500D02*X64200D01*
X61950Y634000D02*X64950Y637000D01*
X213800Y501200D02*X216200Y498800D01*
X213800D02*X216200Y501200D01*
X213800Y281200D02*X216200Y278800D01*
X213800D02*X216200Y281200D01*
X213800Y491200D02*X216200Y488800D01*
X213800D02*X216200Y491200D01*
X213800Y481200D02*X216200Y478800D01*
X213800D02*X216200Y481200D01*
X213800Y471200D02*X216200Y468800D01*
X213800D02*X216200Y471200D01*
X213800Y461200D02*X216200Y458800D01*
X213800D02*X216200Y461200D01*
X213800Y451200D02*X216200Y448800D01*
X213800D02*X216200Y451200D01*
X213800Y441200D02*X216200Y438800D01*
X213800D02*X216200Y441200D01*
X213800Y431200D02*X216200Y428800D01*
X213800D02*X216200Y431200D01*
X213800Y421200D02*X216200Y418800D01*
X213800D02*X216200Y421200D01*
X213800Y411200D02*X216200Y408800D01*
X213800D02*X216200Y411200D01*
X213800Y401200D02*X216200Y398800D01*
X213800D02*X216200Y401200D01*
X213800Y391200D02*X216200Y388800D01*
X213800D02*X216200Y391200D01*
X213800Y381200D02*X216200Y378800D01*
X213800D02*X216200Y381200D01*
X213800Y371200D02*X216200Y368800D01*
X213800D02*X216200Y371200D01*
X213800Y361200D02*X216200Y358800D01*
X213800D02*X216200Y361200D01*
X213800Y351200D02*X216200Y348800D01*
X213800D02*X216200Y351200D01*
X213800Y341200D02*X216200Y338800D01*
X213800D02*X216200Y341200D01*
X213800Y331200D02*X216200Y328800D01*
X213800D02*X216200Y331200D01*
X213800Y321200D02*X216200Y318800D01*
X213800D02*X216200Y321200D01*
X213800Y311200D02*X216200Y308800D01*
X213800D02*X216200Y311200D01*
X213800Y301200D02*X216200Y298800D01*
X213800D02*X216200Y301200D01*
X213800Y291200D02*X216200Y288800D01*
X213800D02*X216200Y291200D01*
X33800Y281200D02*X36200Y278800D01*
X33800D02*X36200Y281200D01*
X33800Y491200D02*X36200Y488800D01*
X33800D02*X36200Y491200D01*
X33800Y481200D02*X36200Y478800D01*
X33800D02*X36200Y481200D01*
X33800Y471200D02*X36200Y468800D01*
X33800D02*X36200Y471200D01*
X33800Y461200D02*X36200Y458800D01*
X33800D02*X36200Y461200D01*
X33800Y451200D02*X36200Y448800D01*
X33800D02*X36200Y451200D01*
X33800Y441200D02*X36200Y438800D01*
X33800D02*X36200Y441200D01*
X33800Y431200D02*X36200Y428800D01*
X33800D02*X36200Y431200D01*
X33800Y421200D02*X36200Y418800D01*
X33800D02*X36200Y421200D01*
X33800Y411200D02*X36200Y408800D01*
X33800D02*X36200Y411200D01*
X33800Y401200D02*X36200Y398800D01*
X33800D02*X36200Y401200D01*
X33800Y391200D02*X36200Y388800D01*
X33800D02*X36200Y391200D01*
X33800Y381200D02*X36200Y378800D01*
X33800D02*X36200Y381200D01*
X33800Y371200D02*X36200Y368800D01*
X33800D02*X36200Y371200D01*
X33800Y361200D02*X36200Y358800D01*
X33800D02*X36200Y361200D01*
X33800Y351200D02*X36200Y348800D01*
X33800D02*X36200Y351200D01*
X33800Y341200D02*X36200Y338800D01*
X33800D02*X36200Y341200D01*
X33800Y331200D02*X36200Y328800D01*
X33800D02*X36200Y331200D01*
X33800Y321200D02*X36200Y318800D01*
X33800D02*X36200Y321200D01*
X33800Y311200D02*X36200Y308800D01*
X33800D02*X36200Y311200D01*
X33800Y301200D02*X36200Y298800D01*
X33800D02*X36200Y301200D01*
X33800Y291200D02*X36200Y288800D01*
X33800D02*X36200Y291200D01*
X23800Y501200D02*X26200Y498800D01*
X23800D02*X26200Y501200D01*
X23800Y281200D02*X26200Y278800D01*
X23800D02*X26200Y281200D01*
X23800Y291200D02*X26200Y288800D01*
X23800D02*X26200Y291200D01*
X23800Y301200D02*X26200Y298800D01*
X23800D02*X26200Y301200D01*
X23800Y311200D02*X26200Y308800D01*
X23800D02*X26200Y311200D01*
X23800Y321200D02*X26200Y318800D01*
X23800D02*X26200Y321200D01*
X23800Y331200D02*X26200Y328800D01*
X23800D02*X26200Y331200D01*
X23800Y341200D02*X26200Y338800D01*
X23800D02*X26200Y341200D01*
X23800Y361200D02*X26200Y358800D01*
X23800D02*X26200Y361200D01*
X23800Y351200D02*X26200Y348800D01*
X23800D02*X26200Y351200D01*
X23800Y371200D02*X26200Y368800D01*
X23800D02*X26200Y371200D01*
X23800Y381200D02*X26200Y378800D01*
X23800D02*X26200Y381200D01*
X23800Y391200D02*X26200Y388800D01*
X23800D02*X26200Y391200D01*
X23800Y401200D02*X26200Y398800D01*
X23800D02*X26200Y401200D01*
X23800Y411200D02*X26200Y408800D01*
X23800D02*X26200Y411200D01*
X23800Y421200D02*X26200Y418800D01*
X23800D02*X26200Y421200D01*
X23800Y431200D02*X26200Y428800D01*
X23800D02*X26200Y431200D01*
X23800Y441200D02*X26200Y438800D01*
X23800D02*X26200Y441200D01*
X23800Y451200D02*X26200Y448800D01*
X23800D02*X26200Y451200D01*
X23800Y461200D02*X26200Y458800D01*
X23800D02*X26200Y461200D01*
X23800Y481200D02*X26200Y478800D01*
X23800D02*X26200Y481200D01*
X23800Y471200D02*X26200Y468800D01*
X23800D02*X26200Y471200D01*
X23800Y491200D02*X26200Y488800D01*
X23800D02*X26200Y491200D01*
X223800Y501200D02*X226200Y498800D01*
X223800D02*X226200Y501200D01*
X223800Y281200D02*X226200Y278800D01*
X223800D02*X226200Y281200D01*
X223800Y491200D02*X226200Y488800D01*
X223800D02*X226200Y491200D01*
X223800Y481200D02*X226200Y478800D01*
X223800D02*X226200Y481200D01*
X223800Y471200D02*X226200Y468800D01*
X223800D02*X226200Y471200D01*
X223800Y461200D02*X226200Y458800D01*
X223800D02*X226200Y461200D01*
X223800Y451200D02*X226200Y448800D01*
X223800D02*X226200Y451200D01*
X223800Y441200D02*X226200Y438800D01*
X223800D02*X226200Y441200D01*
X223800Y431200D02*X226200Y428800D01*
X223800D02*X226200Y431200D01*
X223800Y421200D02*X226200Y418800D01*
X223800D02*X226200Y421200D01*
X223800Y411200D02*X226200Y408800D01*
X223800D02*X226200Y411200D01*
X223800Y401200D02*X226200Y398800D01*
X223800D02*X226200Y401200D01*
X223800Y391200D02*X226200Y388800D01*
X223800D02*X226200Y391200D01*
X223800Y381200D02*X226200Y378800D01*
X223800D02*X226200Y381200D01*
X223800Y371200D02*X226200Y368800D01*
X223800D02*X226200Y371200D01*
X223800Y361200D02*X226200Y358800D01*
X223800D02*X226200Y361200D01*
X223800Y351200D02*X226200Y348800D01*
X223800D02*X226200Y351200D01*
X223800Y341200D02*X226200Y338800D01*
X223800D02*X226200Y341200D01*
X223800Y331200D02*X226200Y328800D01*
X223800D02*X226200Y331200D01*
X223800Y321200D02*X226200Y318800D01*
X223800D02*X226200Y321200D01*
X223800Y311200D02*X226200Y308800D01*
X223800D02*X226200Y311200D01*
X223800Y301200D02*X226200Y298800D01*
X223800D02*X226200Y301200D01*
X223800Y291200D02*X226200Y288800D01*
X223800D02*X226200Y291200D01*
X33800Y501200D02*X36200Y498800D01*
X33800D02*X36200Y501200D01*
X114800Y214200D02*X117200Y211800D01*
X114800D02*X117200Y214200D01*
X104800D02*X107200Y211800D01*
X104800D02*X107200Y214200D01*
X94800D02*X97200Y211800D01*
X94800D02*X97200Y214200D01*
X84800D02*X87200Y211800D01*
X84800D02*X87200Y214200D01*
X74800D02*X77200Y211800D01*
X74800D02*X77200Y214200D01*
X64800D02*X67200Y211800D01*
X64800D02*X67200Y214200D01*
X172800D02*X175200Y211800D01*
X172800D02*X175200Y214200D01*
X152800D02*X155200Y211800D01*
X152800D02*X155200Y214200D01*
X132800D02*X135200Y211800D01*
X132800D02*X135200Y214200D01*
X13800Y652450D02*X16200Y650050D01*
X13800D02*X16200Y652450D01*
X135000Y653500D02*X136500Y650500D01*
X138000Y653500D01*
X136500Y650500D02*Y647500D01*
X139800Y650800D02*X142050D01*
X139800Y647500D02*X142800D01*
X139800Y653500D02*Y647500D01*
Y653500D02*X142800D01*
X147600D02*X148350Y652750D01*
X145350Y653500D02*X147600D01*
X144600Y652750D02*X145350Y653500D01*
X144600Y652750D02*Y651250D01*
X145350Y650500D01*
X147600D01*
X148350Y649750D01*
Y648250D01*
X147600Y647500D02*X148350Y648250D01*
X145350Y647500D02*X147600D01*
X144600Y648250D02*X145350Y647500D01*
X98000Y652300D02*X99200Y653500D01*
Y647500D01*
X98000D02*X100250D01*
X102050Y648250D02*X102800Y647500D01*
X102050Y652750D02*Y648250D01*
Y652750D02*X102800Y653500D01*
X104300D01*
X105050Y652750D01*
Y648250D01*
X104300Y647500D02*X105050Y648250D01*
X102800Y647500D02*X104300D01*
X102050Y649000D02*X105050Y652000D01*
X106850Y652300D02*X108050Y653500D01*
Y647500D01*
X106850D02*X109100D01*
X45000Y648250D02*X45750Y647500D01*
X45000Y652750D02*Y648250D01*
Y652750D02*X45750Y653500D01*
X47250D01*
X48000Y652750D01*
Y648250D01*
X47250Y647500D02*X48000Y648250D01*
X45750Y647500D02*X47250D01*
X45000Y649000D02*X48000Y652000D01*
X49800Y647500D02*X50550D01*
X52350Y648250D02*X53100Y647500D01*
X52350Y652750D02*Y648250D01*
Y652750D02*X53100Y653500D01*
X54600D01*
X55350Y652750D01*
Y648250D01*
X54600Y647500D02*X55350Y648250D01*
X53100Y647500D02*X54600D01*
X52350Y649000D02*X55350Y652000D01*
X57150Y649750D02*X60150Y653500D01*
X57150Y649750D02*X60900D01*
X60150Y653500D02*Y647500D01*
X62700Y652300D02*X63900Y653500D01*
Y647500D01*
X62700D02*X64950D01*
X300000Y441600D02*Y438400D01*
X298400Y440000D02*X301600D01*
X300000Y431600D02*Y428400D01*
X298400Y430000D02*X301600D01*
X300000Y421600D02*Y418400D01*
X298400Y420000D02*X301600D01*
X300000Y411600D02*Y408400D01*
X298400Y410000D02*X301600D01*
X300000Y401600D02*Y398400D01*
X298400Y400000D02*X301600D01*
X300000Y391600D02*Y388400D01*
X298400Y390000D02*X301600D01*
X300000Y381600D02*Y378400D01*
X298400Y380000D02*X301600D01*
X300000Y371600D02*Y368400D01*
X298400Y370000D02*X301600D01*
X350000Y190600D02*Y187400D01*
X348400Y189000D02*X351600D01*
X154000Y185600D02*Y182400D01*
X152400Y184000D02*X155600D01*
X245000Y501600D02*Y498400D01*
X243400Y500000D02*X246600D01*
X244000Y431600D02*Y428400D01*
X242400Y430000D02*X245600D01*
X245000Y491600D02*Y488400D01*
X243400Y490000D02*X246600D01*
X245000Y471600D02*Y468400D01*
X243400Y470000D02*X246600D01*
X116000Y248600D02*Y245400D01*
X114400Y247000D02*X117600D01*
X116000Y356600D02*Y353400D01*
X114400Y355000D02*X117600D01*
X15000Y667850D02*Y664650D01*
X13400Y666250D02*X16600D01*
X135000Y668500D02*X136500Y665500D01*
X138000Y668500D01*
X136500Y665500D02*Y662500D01*
X139800Y665800D02*X142050D01*
X139800Y662500D02*X142800D01*
X139800Y668500D02*Y662500D01*
Y668500D02*X142800D01*
X147600D02*X148350Y667750D01*
X145350Y668500D02*X147600D01*
X144600Y667750D02*X145350Y668500D01*
X144600Y667750D02*Y666250D01*
X145350Y665500D01*
X147600D01*
X148350Y664750D01*
Y663250D01*
X147600Y662500D02*X148350Y663250D01*
X145350Y662500D02*X147600D01*
X144600Y663250D02*X145350Y662500D01*
X98000Y667300D02*X99200Y668500D01*
Y662500D01*
X98000D02*X100250D01*
X104300Y668500D02*X105050Y667750D01*
X102800Y668500D02*X104300D01*
X102050Y667750D02*X102800Y668500D01*
X102050Y667750D02*Y663250D01*
X102800Y662500D01*
X104300Y665800D02*X105050Y665050D01*
X102050Y665800D02*X104300D01*
X102800Y662500D02*X104300D01*
X105050Y663250D01*
Y665050D02*Y663250D01*
X45000D02*X45750Y662500D01*
X45000Y667750D02*Y663250D01*
Y667750D02*X45750Y668500D01*
X47250D01*
X48000Y667750D01*
Y663250D01*
X47250Y662500D02*X48000Y663250D01*
X45750Y662500D02*X47250D01*
X45000Y664000D02*X48000Y667000D01*
X49800Y662500D02*X50550D01*
X52350Y663250D02*X53100Y662500D01*
X52350Y667750D02*Y663250D01*
Y667750D02*X53100Y668500D01*
X54600D01*
X55350Y667750D01*
Y663250D01*
X54600Y662500D02*X55350Y663250D01*
X53100Y662500D02*X54600D01*
X52350Y664000D02*X55350Y667000D01*
X57150Y667750D02*X57900Y668500D01*
X59400D01*
X60150Y667750D01*
X59400Y662500D02*X60150Y663250D01*
X57900Y662500D02*X59400D01*
X57150Y663250D02*X57900Y662500D01*
Y665800D02*X59400D01*
X60150Y667750D02*Y666550D01*
Y665050D02*Y663250D01*
Y665050D02*X59400Y665800D01*
X60150Y666550D02*X59400Y665800D01*
X61950Y668500D02*X64950D01*
X61950D02*Y665500D01*
X62700Y666250D01*
X64200D01*
X64950Y665500D01*
Y663250D01*
X64200Y662500D02*X64950Y663250D01*
X62700Y662500D02*X64200D01*
X61950Y663250D02*X62700Y662500D01*
X364000Y410000D02*Y408400D01*
Y410000D02*X365387Y410800D01*
X364000Y410000D02*X362613Y410800D01*
X404000Y410000D02*Y408400D01*
Y410000D02*X405387Y410800D01*
X404000Y410000D02*X402613Y410800D01*
X279000Y430000D02*Y428400D01*
Y430000D02*X280387Y430800D01*
X279000Y430000D02*X277613Y430800D01*
X279000Y440000D02*Y438400D01*
Y440000D02*X280387Y440800D01*
X279000Y440000D02*X277613Y440800D01*
X257000Y430000D02*Y428400D01*
Y430000D02*X258387Y430800D01*
X257000Y430000D02*X255613Y430800D01*
X257000Y440000D02*Y438400D01*
Y440000D02*X258387Y440800D01*
X257000Y440000D02*X255613Y440800D01*
X364000Y400000D02*Y398400D01*
Y400000D02*X365387Y400800D01*
X364000Y400000D02*X362613Y400800D01*
X404000Y400000D02*Y398400D01*
Y400000D02*X405387Y400800D01*
X404000Y400000D02*X402613Y400800D01*
X15000Y681250D02*Y679650D01*
Y681250D02*X16387Y682050D01*
X15000Y681250D02*X13613Y682050D01*
X135000Y683500D02*X136500Y680500D01*
X138000Y683500D01*
X136500Y680500D02*Y677500D01*
X139800Y680800D02*X142050D01*
X139800Y677500D02*X142800D01*
X139800Y683500D02*Y677500D01*
Y683500D02*X142800D01*
X147600D02*X148350Y682750D01*
X145350Y683500D02*X147600D01*
X144600Y682750D02*X145350Y683500D01*
X144600Y682750D02*Y681250D01*
X145350Y680500D01*
X147600D01*
X148350Y679750D01*
Y678250D01*
X147600Y677500D02*X148350Y678250D01*
X145350Y677500D02*X147600D01*
X144600Y678250D02*X145350Y677500D01*
X98000Y678250D02*X98750Y677500D01*
X98000Y679450D02*Y678250D01*
Y679450D02*X99050Y680500D01*
X99950D01*
X101000Y679450D01*
Y678250D01*
X100250Y677500D02*X101000Y678250D01*
X98750Y677500D02*X100250D01*
X98000Y681550D02*X99050Y680500D01*
X98000Y682750D02*Y681550D01*
Y682750D02*X98750Y683500D01*
X100250D01*
X101000Y682750D01*
Y681550D01*
X99950Y680500D02*X101000Y681550D01*
X45000Y678250D02*X45750Y677500D01*
X45000Y682750D02*Y678250D01*
Y682750D02*X45750Y683500D01*
X47250D01*
X48000Y682750D01*
Y678250D01*
X47250Y677500D02*X48000Y678250D01*
X45750Y677500D02*X47250D01*
X45000Y679000D02*X48000Y682000D01*
X49800Y677500D02*X50550D01*
X52350Y678250D02*X53100Y677500D01*
X52350Y682750D02*Y678250D01*
Y682750D02*X53100Y683500D01*
X54600D01*
X55350Y682750D01*
Y678250D01*
X54600Y677500D02*X55350Y678250D01*
X53100Y677500D02*X54600D01*
X52350Y679000D02*X55350Y682000D01*
X57150Y682750D02*X57900Y683500D01*
X59400D01*
X60150Y682750D01*
X59400Y677500D02*X60150Y678250D01*
X57900Y677500D02*X59400D01*
X57150Y678250D02*X57900Y677500D01*
Y680800D02*X59400D01*
X60150Y682750D02*Y681550D01*
Y680050D02*Y678250D01*
Y680050D02*X59400Y680800D01*
X60150Y681550D02*X59400Y680800D01*
X61950Y678250D02*X62700Y677500D01*
X61950Y682750D02*Y678250D01*
Y682750D02*X62700Y683500D01*
X64200D01*
X64950Y682750D01*
Y678250D01*
X64200Y677500D02*X64950Y678250D01*
X62700Y677500D02*X64200D01*
X61950Y679000D02*X64950Y682000D01*
X3000Y698500D02*X3750Y697750D01*
X750Y698500D02*X3000D01*
X0Y697750D02*X750Y698500D01*
X0Y697750D02*Y696250D01*
X750Y695500D01*
X3000D01*
X3750Y694750D01*
Y693250D01*
X3000Y692500D02*X3750Y693250D01*
X750Y692500D02*X3000D01*
X0Y693250D02*X750Y692500D01*
X5550Y695500D02*Y693250D01*
X6300Y692500D01*
X8550Y695500D02*Y691000D01*
X7800Y690250D02*X8550Y691000D01*
X6300Y690250D02*X7800D01*
X5550Y691000D02*X6300Y690250D01*
Y692500D02*X7800D01*
X8550Y693250D01*
X11100Y694750D02*Y692500D01*
Y694750D02*X11850Y695500D01*
X12600D01*
X13350Y694750D01*
Y692500D01*
Y694750D02*X14100Y695500D01*
X14850D01*
X15600Y694750D01*
Y692500D01*
X10350Y695500D02*X11100Y694750D01*
X17400Y698500D02*Y692500D01*
Y693250D02*X18150Y692500D01*
X19650D01*
X20400Y693250D01*
Y694750D02*Y693250D01*
X19650Y695500D02*X20400Y694750D01*
X18150Y695500D02*X19650D01*
X17400Y694750D02*X18150Y695500D01*
X22200Y694750D02*Y693250D01*
Y694750D02*X22950Y695500D01*
X24450D01*
X25200Y694750D01*
Y693250D01*
X24450Y692500D02*X25200Y693250D01*
X22950Y692500D02*X24450D01*
X22200Y693250D02*X22950Y692500D01*
X27000Y698500D02*Y693250D01*
X27750Y692500D01*
X0Y689250D02*X29250D01*
X41750Y698500D02*Y692500D01*
X43700Y698500D02*X44750Y697450D01*
Y693550D01*
X43700Y692500D02*X44750Y693550D01*
X41000Y692500D02*X43700D01*
X41000Y698500D02*X43700D01*
G54D75*X46550Y697000D02*Y696850D01*
G54D74*Y694750D02*Y692500D01*
X50300Y695500D02*X51050Y694750D01*
X48800Y695500D02*X50300D01*
X48050Y694750D02*X48800Y695500D01*
X48050Y694750D02*Y693250D01*
X48800Y692500D01*
X51050Y695500D02*Y693250D01*
X51800Y692500D01*
X48800D02*X50300D01*
X51050Y693250D01*
X54350Y694750D02*Y692500D01*
Y694750D02*X55100Y695500D01*
X55850D01*
X56600Y694750D01*
Y692500D01*
Y694750D02*X57350Y695500D01*
X58100D01*
X58850Y694750D01*
Y692500D01*
X53600Y695500D02*X54350Y694750D01*
X60650Y692500D02*X61400D01*
X65900Y693250D02*X66650Y692500D01*
X65900Y697750D02*X66650Y698500D01*
X65900Y697750D02*Y693250D01*
X68450Y698500D02*X69950D01*
X69200D02*Y692500D01*
X68450D02*X69950D01*
X72500Y694750D02*Y692500D01*
Y694750D02*X73250Y695500D01*
X74000D01*
X74750Y694750D01*
Y692500D01*
X71750Y695500D02*X72500Y694750D01*
X77300Y695500D02*X79550D01*
X76550Y694750D02*X77300Y695500D01*
X76550Y694750D02*Y693250D01*
X77300Y692500D01*
X79550D01*
X81350Y698500D02*Y692500D01*
Y694750D02*X82100Y695500D01*
X83600D01*
X84350Y694750D01*
Y692500D01*
X86150Y698500D02*X86900Y697750D01*
Y693250D01*
X86150Y692500D02*X86900Y693250D01*
X41000Y689250D02*X88700D01*
X96050Y692500D02*X98000D01*
X95000Y693550D02*X96050Y692500D01*
X95000Y697450D02*Y693550D01*
Y697450D02*X96050Y698500D01*
X98000D01*
X99800Y694750D02*Y693250D01*
Y694750D02*X100550Y695500D01*
X102050D01*
X102800Y694750D01*
Y693250D01*
X102050Y692500D02*X102800Y693250D01*
X100550Y692500D02*X102050D01*
X99800Y693250D02*X100550Y692500D01*
X104600Y695500D02*Y693250D01*
X105350Y692500D01*
X106850D01*
X107600Y693250D01*
Y695500D02*Y693250D01*
X110150Y694750D02*Y692500D01*
Y694750D02*X110900Y695500D01*
X111650D01*
X112400Y694750D01*
Y692500D01*
X109400Y695500D02*X110150Y694750D01*
X114950Y698500D02*Y693250D01*
X115700Y692500D01*
X114200Y696250D02*X115700D01*
X95000Y689250D02*X117200D01*
X130750Y698500D02*Y692500D01*
X130000Y698500D02*X133000D01*
X133750Y697750D01*
Y696250D01*
X133000Y695500D02*X133750Y696250D01*
X130750Y695500D02*X133000D01*
X135550Y698500D02*Y693250D01*
X136300Y692500D01*
X140050Y695500D02*X140800Y694750D01*
X138550Y695500D02*X140050D01*
X137800Y694750D02*X138550Y695500D01*
X137800Y694750D02*Y693250D01*
X138550Y692500D01*
X140800Y695500D02*Y693250D01*
X141550Y692500D01*
X138550D02*X140050D01*
X140800Y693250D01*
X144100Y698500D02*Y693250D01*
X144850Y692500D01*
X143350Y696250D02*X144850D01*
X147100Y692500D02*X149350D01*
X146350Y693250D02*X147100Y692500D01*
X146350Y694750D02*Y693250D01*
Y694750D02*X147100Y695500D01*
X148600D01*
X149350Y694750D01*
X146350Y694000D02*X149350D01*
Y694750D02*Y694000D01*
X154150Y698500D02*Y692500D01*
X153400D02*X154150Y693250D01*
X151900Y692500D02*X153400D01*
X151150Y693250D02*X151900Y692500D01*
X151150Y694750D02*Y693250D01*
Y694750D02*X151900Y695500D01*
X153400D01*
X154150Y694750D01*
X157450Y695500D02*Y694750D01*
Y693250D02*Y692500D01*
X155950Y697750D02*Y697000D01*
Y697750D02*X156700Y698500D01*
X158200D01*
X158950Y697750D01*
Y697000D01*
X157450Y695500D02*X158950Y697000D01*
X130000Y689250D02*X160750D01*
X0Y713500D02*X3000D01*
X1500D02*Y707500D01*
X4800Y713500D02*Y707500D01*
Y709750D02*X5550Y710500D01*
X7050D01*
X7800Y709750D01*
Y707500D01*
X10350D02*X12600D01*
X9600Y708250D02*X10350Y707500D01*
X9600Y709750D02*Y708250D01*
Y709750D02*X10350Y710500D01*
X11850D01*
X12600Y709750D01*
X9600Y709000D02*X12600D01*
Y709750D02*Y709000D01*
X15150Y709750D02*Y707500D01*
Y709750D02*X15900Y710500D01*
X17400D01*
X14400D02*X15150Y709750D01*
X19950Y707500D02*X22200D01*
X19200Y708250D02*X19950Y707500D01*
X19200Y709750D02*Y708250D01*
Y709750D02*X19950Y710500D01*
X21450D01*
X22200Y709750D01*
X19200Y709000D02*X22200D01*
Y709750D02*Y709000D01*
X28950Y710500D02*X29700Y709750D01*
X27450Y710500D02*X28950D01*
X26700Y709750D02*X27450Y710500D01*
X26700Y709750D02*Y708250D01*
X27450Y707500D01*
X29700Y710500D02*Y708250D01*
X30450Y707500D01*
X27450D02*X28950D01*
X29700Y708250D01*
X33000Y709750D02*Y707500D01*
Y709750D02*X33750Y710500D01*
X35250D01*
X32250D02*X33000Y709750D01*
X37800Y707500D02*X40050D01*
X37050Y708250D02*X37800Y707500D01*
X37050Y709750D02*Y708250D01*
Y709750D02*X37800Y710500D01*
X39300D01*
X40050Y709750D01*
X37050Y709000D02*X40050D01*
Y709750D02*Y709000D01*
X45300Y707500D02*X48300Y713500D01*
X44550D02*X48300D01*
X55800D02*Y707500D01*
X55050D02*X55800Y708250D01*
X53550Y707500D02*X55050D01*
X52800Y708250D02*X53550Y707500D01*
X52800Y709750D02*Y708250D01*
Y709750D02*X53550Y710500D01*
X55050D01*
X55800Y709750D01*
G54D75*X57600Y712000D02*Y711850D01*
G54D74*Y709750D02*Y707500D01*
X59850Y712750D02*Y707500D01*
Y712750D02*X60600Y713500D01*
X61350D01*
X59100Y710500D02*X60600D01*
X63600Y712750D02*Y707500D01*
Y712750D02*X64350Y713500D01*
X65100D01*
X62850Y710500D02*X64350D01*
X67350Y707500D02*X69600D01*
X66600Y708250D02*X67350Y707500D01*
X66600Y709750D02*Y708250D01*
Y709750D02*X67350Y710500D01*
X68850D01*
X69600Y709750D01*
X66600Y709000D02*X69600D01*
Y709750D02*Y709000D01*
X72150Y709750D02*Y707500D01*
Y709750D02*X72900Y710500D01*
X74400D01*
X71400D02*X72150Y709750D01*
X76950Y707500D02*X79200D01*
X76200Y708250D02*X76950Y707500D01*
X76200Y709750D02*Y708250D01*
Y709750D02*X76950Y710500D01*
X78450D01*
X79200Y709750D01*
X76200Y709000D02*X79200D01*
Y709750D02*Y709000D01*
X81750Y709750D02*Y707500D01*
Y709750D02*X82500Y710500D01*
X83250D01*
X84000Y709750D01*
Y707500D01*
X81000Y710500D02*X81750Y709750D01*
X86550Y713500D02*Y708250D01*
X87300Y707500D01*
X85800Y711250D02*X87300D01*
X94500Y713500D02*Y707500D01*
X93750D02*X94500Y708250D01*
X92250Y707500D02*X93750D01*
X91500Y708250D02*X92250Y707500D01*
X91500Y709750D02*Y708250D01*
Y709750D02*X92250Y710500D01*
X93750D01*
X94500Y709750D01*
X97050D02*Y707500D01*
Y709750D02*X97800Y710500D01*
X99300D01*
X96300D02*X97050Y709750D01*
G54D75*X101100Y712000D02*Y711850D01*
G54D74*Y709750D02*Y707500D01*
X102600Y713500D02*Y708250D01*
X103350Y707500D01*
X104850Y713500D02*Y708250D01*
X105600Y707500D01*
X110550D02*X112800D01*
X113550Y708250D01*
X112800Y709000D02*X113550Y708250D01*
X110550Y709000D02*X112800D01*
X109800Y709750D02*X110550Y709000D01*
X109800Y709750D02*X110550Y710500D01*
X112800D01*
X113550Y709750D01*
X109800Y708250D02*X110550Y707500D01*
G54D75*X115350Y712000D02*Y711850D01*
G54D74*Y709750D02*Y707500D01*
X116850Y710500D02*X119850D01*
X116850Y707500D02*X119850Y710500D01*
X116850Y707500D02*X119850D01*
X122400D02*X124650D01*
X121650Y708250D02*X122400Y707500D01*
X121650Y709750D02*Y708250D01*
Y709750D02*X122400Y710500D01*
X123900D01*
X124650Y709750D01*
X121650Y709000D02*X124650D01*
Y709750D02*Y709000D01*
X127200Y707500D02*X129450D01*
X130200Y708250D01*
X129450Y709000D02*X130200Y708250D01*
X127200Y709000D02*X129450D01*
X126450Y709750D02*X127200Y709000D01*
X126450Y709750D02*X127200Y710500D01*
X129450D01*
X130200Y709750D01*
X126450Y708250D02*X127200Y707500D01*
X134700Y710500D02*Y708250D01*
X135450Y707500D01*
X136950D01*
X137700Y708250D01*
Y710500D02*Y708250D01*
X140250Y707500D02*X142500D01*
X143250Y708250D01*
X142500Y709000D02*X143250Y708250D01*
X140250Y709000D02*X142500D01*
X139500Y709750D02*X140250Y709000D01*
X139500Y709750D02*X140250Y710500D01*
X142500D01*
X143250Y709750D01*
X139500Y708250D02*X140250Y707500D01*
X145800D02*X148050D01*
X145050Y708250D02*X145800Y707500D01*
X145050Y709750D02*Y708250D01*
Y709750D02*X145800Y710500D01*
X147300D01*
X148050Y709750D01*
X145050Y709000D02*X148050D01*
Y709750D02*Y709000D01*
X152850Y713500D02*Y707500D01*
X152100D02*X152850Y708250D01*
X150600Y707500D02*X152100D01*
X149850Y708250D02*X150600Y707500D01*
X149850Y709750D02*Y708250D01*
Y709750D02*X150600Y710500D01*
X152100D01*
X152850Y709750D01*
G54D75*X157350Y712000D02*Y711850D01*
G54D74*Y709750D02*Y707500D01*
X159600Y709750D02*Y707500D01*
Y709750D02*X160350Y710500D01*
X161100D01*
X161850Y709750D01*
Y707500D01*
X158850Y710500D02*X159600Y709750D01*
X167100Y713500D02*Y708250D01*
X167850Y707500D01*
X166350Y711250D02*X167850D01*
X169350Y713500D02*Y707500D01*
Y709750D02*X170100Y710500D01*
X171600D01*
X172350Y709750D01*
Y707500D01*
G54D75*X174150Y712000D02*Y711850D01*
G54D74*Y709750D02*Y707500D01*
X176400D02*X178650D01*
X179400Y708250D01*
X178650Y709000D02*X179400Y708250D01*
X176400Y709000D02*X178650D01*
X175650Y709750D02*X176400Y709000D01*
X175650Y709750D02*X176400Y710500D01*
X178650D01*
X179400Y709750D01*
X175650Y708250D02*X176400Y707500D01*
X183900Y713500D02*Y708250D01*
X184650Y707500D01*
X188400Y710500D02*X189150Y709750D01*
X186900Y710500D02*X188400D01*
X186150Y709750D02*X186900Y710500D01*
X186150Y709750D02*Y708250D01*
X186900Y707500D01*
X189150Y710500D02*Y708250D01*
X189900Y707500D01*
X186900D02*X188400D01*
X189150Y708250D01*
X191700Y710500D02*Y708250D01*
X192450Y707500D01*
X194700Y710500D02*Y706000D01*
X193950Y705250D02*X194700Y706000D01*
X192450Y705250D02*X193950D01*
X191700Y706000D02*X192450Y705250D01*
Y707500D02*X193950D01*
X194700Y708250D01*
X196500Y709750D02*Y708250D01*
Y709750D02*X197250Y710500D01*
X198750D01*
X199500Y709750D01*
Y708250D01*
X198750Y707500D02*X199500Y708250D01*
X197250Y707500D02*X198750D01*
X196500Y708250D02*X197250Y707500D01*
X201300Y710500D02*Y708250D01*
X202050Y707500D01*
X203550D01*
X204300Y708250D01*
Y710500D02*Y708250D01*
X206850Y713500D02*Y708250D01*
X207600Y707500D01*
X206100Y711250D02*X207600D01*
X209100Y706000D02*X210600Y707500D01*
X215100Y712300D02*X216300Y713500D01*
Y707500D01*
X215100D02*X217350D01*
X219150Y712750D02*X219900Y713500D01*
X221400D01*
X222150Y712750D01*
X221400Y707500D02*X222150Y708250D01*
X219900Y707500D02*X221400D01*
X219150Y708250D02*X219900Y707500D01*
Y710800D02*X221400D01*
X222150Y712750D02*Y711550D01*
Y710050D02*Y708250D01*
Y710050D02*X221400Y710800D01*
X222150Y711550D02*X221400Y710800D01*
X223950Y708250D02*X224700Y707500D01*
X223950Y709450D02*Y708250D01*
Y709450D02*X225000Y710500D01*
X225900D01*
X226950Y709450D01*
Y708250D01*
X226200Y707500D02*X226950Y708250D01*
X224700Y707500D02*X226200D01*
X223950Y711550D02*X225000Y710500D01*
X223950Y712750D02*Y711550D01*
Y712750D02*X224700Y713500D01*
X226200D01*
X226950Y712750D01*
Y711550D01*
X225900Y710500D02*X226950Y711550D01*
X231450Y713500D02*Y707500D01*
Y709750D02*X232200Y710500D01*
X233700D01*
X234450Y709750D01*
Y707500D01*
X236250Y709750D02*Y708250D01*
Y709750D02*X237000Y710500D01*
X238500D01*
X239250Y709750D01*
Y708250D01*
X238500Y707500D02*X239250Y708250D01*
X237000Y707500D02*X238500D01*
X236250Y708250D02*X237000Y707500D01*
X241050Y713500D02*Y708250D01*
X241800Y707500D01*
X244050D02*X246300D01*
X243300Y708250D02*X244050Y707500D01*
X243300Y709750D02*Y708250D01*
Y709750D02*X244050Y710500D01*
X245550D01*
X246300Y709750D01*
X243300Y709000D02*X246300D01*
Y709750D02*Y709000D01*
X248850Y707500D02*X251100D01*
X251850Y708250D01*
X251100Y709000D02*X251850Y708250D01*
X248850Y709000D02*X251100D01*
X248100Y709750D02*X248850Y709000D01*
X248100Y709750D02*X248850Y710500D01*
X251100D01*
X251850Y709750D01*
X248100Y708250D02*X248850Y707500D01*
X257100Y713500D02*Y708250D01*
X257850Y707500D01*
X256350Y711250D02*X257850D01*
X259350Y709750D02*Y708250D01*
Y709750D02*X260100Y710500D01*
X261600D01*
X262350Y709750D01*
Y708250D01*
X261600Y707500D02*X262350Y708250D01*
X260100Y707500D02*X261600D01*
X259350Y708250D02*X260100Y707500D01*
X264900Y713500D02*Y708250D01*
X265650Y707500D01*
X264150Y711250D02*X265650D01*
X269400Y710500D02*X270150Y709750D01*
X267900Y710500D02*X269400D01*
X267150Y709750D02*X267900Y710500D01*
X267150Y709750D02*Y708250D01*
X267900Y707500D01*
X270150Y710500D02*Y708250D01*
X270900Y707500D01*
X267900D02*X269400D01*
X270150Y708250D01*
X272700Y713500D02*Y708250D01*
X273450Y707500D01*
G54D76*X0Y580000D02*Y0D01*
X207000Y513000D02*Y580000D01*
X0D02*X76000D01*
X207000D02*X475000D01*
X76000D02*Y513000D01*
X207000D01*
X475000Y0D02*X0D01*
X475000D02*Y580000D01*
G54D74*X151175Y-9500D02*X154175D01*
X154925Y-8750D01*
Y-6950D02*Y-8750D01*
X154175Y-6200D02*X154925Y-6950D01*
X151925Y-6200D02*X154175D01*
X151925Y-3500D02*Y-9500D01*
X151175Y-3500D02*X154175D01*
X154925Y-4250D01*
Y-5450D01*
X154175Y-6200D02*X154925Y-5450D01*
X156725Y-7250D02*Y-8750D01*
Y-7250D02*X157475Y-6500D01*
X158975D01*
X159725Y-7250D01*
Y-8750D01*
X158975Y-9500D02*X159725Y-8750D01*
X157475Y-9500D02*X158975D01*
X156725Y-8750D02*X157475Y-9500D01*
X163775Y-6500D02*X164525Y-7250D01*
X162275Y-6500D02*X163775D01*
X161525Y-7250D02*X162275Y-6500D01*
X161525Y-7250D02*Y-8750D01*
X162275Y-9500D01*
X164525Y-6500D02*Y-8750D01*
X165275Y-9500D01*
X162275D02*X163775D01*
X164525Y-8750D01*
X167825Y-7250D02*Y-9500D01*
Y-7250D02*X168575Y-6500D01*
X170075D01*
X167075D02*X167825Y-7250D01*
X174875Y-3500D02*Y-9500D01*
X174125D02*X174875Y-8750D01*
X172625Y-9500D02*X174125D01*
X171875Y-8750D02*X172625Y-9500D01*
X171875Y-7250D02*Y-8750D01*
Y-7250D02*X172625Y-6500D01*
X174125D01*
X174875Y-7250D01*
X179375D02*Y-8750D01*
Y-7250D02*X180125Y-6500D01*
X181625D01*
X182375Y-7250D01*
Y-8750D01*
X181625Y-9500D02*X182375Y-8750D01*
X180125Y-9500D02*X181625D01*
X179375Y-8750D02*X180125Y-9500D01*
X184175Y-6500D02*Y-8750D01*
X184925Y-9500D01*
X186425D01*
X187175Y-8750D01*
Y-6500D02*Y-8750D01*
X189725Y-3500D02*Y-8750D01*
X190475Y-9500D01*
X188975Y-5750D02*X190475D01*
X191975Y-3500D02*Y-8750D01*
X192725Y-9500D01*
G54D75*X194225Y-5000D02*Y-5150D01*
G54D74*Y-7250D02*Y-9500D01*
X196475Y-7250D02*Y-9500D01*
Y-7250D02*X197225Y-6500D01*
X197975D01*
X198725Y-7250D01*
Y-9500D01*
X195725Y-6500D02*X196475Y-7250D01*
X201275Y-9500D02*X203525D01*
X200525Y-8750D02*X201275Y-9500D01*
X200525Y-7250D02*Y-8750D01*
Y-7250D02*X201275Y-6500D01*
X202775D01*
X203525Y-7250D01*
X200525Y-8000D02*X203525D01*
Y-7250D02*Y-8000D01*
G54D75*X208025Y-5000D02*Y-5150D01*
G54D74*Y-7250D02*Y-9500D01*
X210275D02*X212525D01*
X213275Y-8750D01*
X212525Y-8000D02*X213275Y-8750D01*
X210275Y-8000D02*X212525D01*
X209525Y-7250D02*X210275Y-8000D01*
X209525Y-7250D02*X210275Y-6500D01*
X212525D01*
X213275Y-7250D01*
X209525Y-8750D02*X210275Y-9500D01*
X218525Y-3500D02*Y-8750D01*
X219275Y-9500D01*
X217775Y-5750D02*X219275D01*
X220775Y-3500D02*Y-9500D01*
Y-7250D02*X221525Y-6500D01*
X223025D01*
X223775Y-7250D01*
Y-9500D01*
X226325D02*X228575D01*
X225575Y-8750D02*X226325Y-9500D01*
X225575Y-7250D02*Y-8750D01*
Y-7250D02*X226325Y-6500D01*
X227825D01*
X228575Y-7250D01*
X225575Y-8000D02*X228575D01*
Y-7250D02*Y-8000D01*
X233825Y-6500D02*X236075D01*
X233075Y-7250D02*X233825Y-6500D01*
X233075Y-7250D02*Y-8750D01*
X233825Y-9500D01*
X236075D01*
X238625D02*X240875D01*
X237875Y-8750D02*X238625Y-9500D01*
X237875Y-7250D02*Y-8750D01*
Y-7250D02*X238625Y-6500D01*
X240125D01*
X240875Y-7250D01*
X237875Y-8000D02*X240875D01*
Y-7250D02*Y-8000D01*
X243425Y-7250D02*Y-9500D01*
Y-7250D02*X244175Y-6500D01*
X244925D01*
X245675Y-7250D01*
Y-9500D01*
X242675Y-6500D02*X243425Y-7250D01*
X248225Y-3500D02*Y-8750D01*
X248975Y-9500D01*
X247475Y-5750D02*X248975D01*
X251225Y-9500D02*X253475D01*
X250475Y-8750D02*X251225Y-9500D01*
X250475Y-7250D02*Y-8750D01*
Y-7250D02*X251225Y-6500D01*
X252725D01*
X253475Y-7250D01*
X250475Y-8000D02*X253475D01*
Y-7250D02*Y-8000D01*
X256025Y-7250D02*Y-9500D01*
Y-7250D02*X256775Y-6500D01*
X258275D01*
X255275D02*X256025Y-7250D01*
X260075Y-3500D02*Y-8750D01*
X260825Y-9500D01*
G54D75*X262325Y-5000D02*Y-5150D01*
G54D74*Y-7250D02*Y-9500D01*
X264575Y-7250D02*Y-9500D01*
Y-7250D02*X265325Y-6500D01*
X266075D01*
X266825Y-7250D01*
Y-9500D01*
X263825Y-6500D02*X264575Y-7250D01*
X269375Y-9500D02*X271625D01*
X268625Y-8750D02*X269375Y-9500D01*
X268625Y-7250D02*Y-8750D01*
Y-7250D02*X269375Y-6500D01*
X270875D01*
X271625Y-7250D01*
X268625Y-8000D02*X271625D01*
Y-7250D02*Y-8000D01*
X276125Y-7250D02*Y-8750D01*
Y-7250D02*X276875Y-6500D01*
X278375D01*
X279125Y-7250D01*
Y-8750D01*
X278375Y-9500D02*X279125Y-8750D01*
X276875Y-9500D02*X278375D01*
X276125Y-8750D02*X276875Y-9500D01*
X281675Y-4250D02*Y-9500D01*
Y-4250D02*X282425Y-3500D01*
X283175D01*
X280925Y-6500D02*X282425D01*
X288125Y-3500D02*Y-8750D01*
X288875Y-9500D01*
X287375Y-5750D02*X288875D01*
X290375Y-3500D02*Y-9500D01*
Y-7250D02*X291125Y-6500D01*
X292625D01*
X293375Y-7250D01*
Y-9500D01*
G54D75*X295175Y-5000D02*Y-5150D01*
G54D74*Y-7250D02*Y-9500D01*
X297425D02*X299675D01*
X300425Y-8750D01*
X299675Y-8000D02*X300425Y-8750D01*
X297425Y-8000D02*X299675D01*
X296675Y-7250D02*X297425Y-8000D01*
X296675Y-7250D02*X297425Y-6500D01*
X299675D01*
X300425Y-7250D01*
X296675Y-8750D02*X297425Y-9500D01*
X305675Y-7250D02*Y-11750D01*
X304925Y-6500D02*X305675Y-7250D01*
X306425Y-6500D01*
X307925D01*
X308675Y-7250D01*
Y-8750D01*
X307925Y-9500D02*X308675Y-8750D01*
X306425Y-9500D02*X307925D01*
X305675Y-8750D02*X306425Y-9500D01*
X312725Y-6500D02*X313475Y-7250D01*
X311225Y-6500D02*X312725D01*
X310475Y-7250D02*X311225Y-6500D01*
X310475Y-7250D02*Y-8750D01*
X311225Y-9500D01*
X313475Y-6500D02*Y-8750D01*
X314225Y-9500D01*
X311225D02*X312725D01*
X313475Y-8750D01*
X316775Y-3500D02*Y-8750D01*
X317525Y-9500D01*
X316025Y-5750D02*X317525D01*
X319025Y-3500D02*Y-9500D01*
Y-7250D02*X319775Y-6500D01*
X321275D01*
X322025Y-7250D01*
Y-9500D01*
X200750Y608500D02*Y602500D01*
X202700Y608500D02*X203750Y607450D01*
Y603550D01*
X202700Y602500D02*X203750Y603550D01*
X200000Y602500D02*X202700D01*
X200000Y608500D02*X202700D01*
X207800Y605500D02*X208550Y604750D01*
X206300Y605500D02*X207800D01*
X205550Y604750D02*X206300Y605500D01*
X205550Y604750D02*Y603250D01*
X206300Y602500D01*
X208550Y605500D02*Y603250D01*
X209300Y602500D01*
X206300D02*X207800D01*
X208550Y603250D01*
X211850Y608500D02*Y603250D01*
X212600Y602500D01*
X211100Y606250D02*X212600D01*
X214850Y602500D02*X217100D01*
X214100Y603250D02*X214850Y602500D01*
X214100Y604750D02*Y603250D01*
Y604750D02*X214850Y605500D01*
X216350D01*
X217100Y604750D01*
X214100Y604000D02*X217100D01*
Y604750D02*Y604000D01*
X218900Y606250D02*X219650D01*
X218900Y604750D02*X219650D01*
X224150Y608500D02*Y602500D01*
Y608500D02*X226400Y605500D01*
X228650Y608500D01*
Y602500D01*
X230450Y604750D02*Y603250D01*
Y604750D02*X231200Y605500D01*
X232700D01*
X233450Y604750D01*
Y603250D01*
X232700Y602500D02*X233450Y603250D01*
X231200Y602500D02*X232700D01*
X230450Y603250D02*X231200Y602500D01*
X236000Y604750D02*Y602500D01*
Y604750D02*X236750Y605500D01*
X237500D01*
X238250Y604750D01*
Y602500D01*
X235250Y605500D02*X236000Y604750D01*
X242750Y608500D02*Y602500D01*
Y608500D02*X245750D01*
X242750Y605800D02*X245000D01*
X248300Y602500D02*X250550D01*
X247550Y603250D02*X248300Y602500D01*
X247550Y604750D02*Y603250D01*
Y604750D02*X248300Y605500D01*
X249800D01*
X250550Y604750D01*
X247550Y604000D02*X250550D01*
Y604750D02*Y604000D01*
X252350Y608500D02*Y602500D01*
Y603250D02*X253100Y602500D01*
X254600D01*
X255350Y603250D01*
Y604750D02*Y603250D01*
X254600Y605500D02*X255350Y604750D01*
X253100Y605500D02*X254600D01*
X252350Y604750D02*X253100Y605500D01*
X259850Y607750D02*X260600Y608500D01*
X262850D01*
X263600Y607750D01*
Y606250D01*
X259850Y602500D02*X263600Y606250D01*
X259850Y602500D02*X263600D01*
X265400Y607750D02*X266150Y608500D01*
X268400D01*
X269150Y607750D01*
Y606250D01*
X265400Y602500D02*X269150Y606250D01*
X265400Y602500D02*X269150D01*
X273650Y603250D02*X274400Y602500D01*
X273650Y607750D02*Y603250D01*
Y607750D02*X274400Y608500D01*
X275900D01*
X276650Y607750D01*
Y603250D01*
X275900Y602500D02*X276650Y603250D01*
X274400Y602500D02*X275900D01*
X273650Y604000D02*X276650Y607000D01*
X278450Y608500D02*X281450D01*
X278450D02*Y605500D01*
X279200Y606250D01*
X280700D01*
X281450Y605500D01*
Y603250D01*
X280700Y602500D02*X281450Y603250D01*
X279200Y602500D02*X280700D01*
X278450Y603250D02*X279200Y602500D01*
X283250Y606250D02*X284000D01*
X283250Y604750D02*X284000D01*
X285800Y603250D02*X286550Y602500D01*
X285800Y607750D02*Y603250D01*
Y607750D02*X286550Y608500D01*
X288050D01*
X288800Y607750D01*
Y603250D01*
X288050Y602500D02*X288800Y603250D01*
X286550Y602500D02*X288050D01*
X285800Y604000D02*X288800Y607000D01*
X290600Y604750D02*X293600Y608500D01*
X290600Y604750D02*X294350D01*
X293600Y608500D02*Y602500D01*
X296150Y606250D02*X296900D01*
X296150Y604750D02*X296900D01*
X298700Y608500D02*X301700D01*
X298700D02*Y605500D01*
X299450Y606250D01*
X300950D01*
X301700Y605500D01*
Y603250D01*
X300950Y602500D02*X301700Y603250D01*
X299450Y602500D02*X300950D01*
X298700Y603250D02*X299450Y602500D01*
X303500Y607750D02*X304250Y608500D01*
X305750D01*
X306500Y607750D01*
X305750Y602500D02*X306500Y603250D01*
X304250Y602500D02*X305750D01*
X303500Y603250D02*X304250Y602500D01*
Y605800D02*X305750D01*
X306500Y607750D02*Y606550D01*
Y605050D02*Y603250D01*
Y605050D02*X305750Y605800D01*
X306500Y606550D02*X305750Y605800D01*
X311000Y607750D02*X311750Y608500D01*
X314000D01*
X314750Y607750D01*
Y606250D01*
X311000Y602500D02*X314750Y606250D01*
X311000Y602500D02*X314750D01*
X316550Y603250D02*X317300Y602500D01*
X316550Y607750D02*Y603250D01*
Y607750D02*X317300Y608500D01*
X318800D01*
X319550Y607750D01*
Y603250D01*
X318800Y602500D02*X319550Y603250D01*
X317300Y602500D02*X318800D01*
X316550Y604000D02*X319550Y607000D01*
X321350Y607750D02*X322100Y608500D01*
X324350D01*
X325100Y607750D01*
Y606250D01*
X321350Y602500D02*X325100Y606250D01*
X321350Y602500D02*X325100D01*
X326900Y607300D02*X328100Y608500D01*
Y602500D01*
X326900D02*X329150D01*
X333650Y608500D02*Y603250D01*
X334400Y602500D01*
X335900D01*
X336650Y603250D01*
Y608500D02*Y603250D01*
X338450Y608500D02*X341450D01*
X339950D02*Y602500D01*
X344300D02*X346250D01*
X343250Y603550D02*X344300Y602500D01*
X343250Y607450D02*Y603550D01*
Y607450D02*X344300Y608500D01*
X346250D01*
X200000Y622000D02*Y617500D01*
Y622000D02*X201050Y623500D01*
X202700D01*
X203750Y622000D01*
Y617500D01*
X200000Y620500D02*X203750D01*
X205550D02*Y618250D01*
X206300Y617500D01*
X207800D01*
X208550Y618250D01*
Y620500D02*Y618250D01*
X211100Y623500D02*Y618250D01*
X211850Y617500D01*
X210350Y621250D02*X211850D01*
X213350Y623500D02*Y617500D01*
Y619750D02*X214100Y620500D01*
X215600D01*
X216350Y619750D01*
Y617500D01*
X218150Y619750D02*Y618250D01*
Y619750D02*X218900Y620500D01*
X220400D01*
X221150Y619750D01*
Y618250D01*
X220400Y617500D02*X221150Y618250D01*
X218900Y617500D02*X220400D01*
X218150Y618250D02*X218900Y617500D01*
X223700Y619750D02*Y617500D01*
Y619750D02*X224450Y620500D01*
X225950D01*
X222950D02*X223700Y619750D01*
X227750Y621250D02*X228500D01*
X227750Y619750D02*X228500D01*
X233000Y623500D02*Y617500D01*
Y620500D02*X236000Y623500D01*
X233000Y620500D02*X236000Y617500D01*
X238550D02*X240800D01*
X237800Y618250D02*X238550Y617500D01*
X237800Y619750D02*Y618250D01*
Y619750D02*X238550Y620500D01*
X240050D01*
X240800Y619750D01*
X237800Y619000D02*X240800D01*
Y619750D02*Y619000D01*
X242600Y620500D02*X244100Y617500D01*
X245600Y620500D02*X244100Y617500D01*
G54D75*X247400Y622000D02*Y621850D01*
G54D74*Y619750D02*Y617500D01*
X249650Y619750D02*Y617500D01*
Y619750D02*X250400Y620500D01*
X251150D01*
X251900Y619750D01*
Y617500D01*
X248900Y620500D02*X249650Y619750D01*
X257450Y623500D02*X258650D01*
Y618250D01*
X257900Y617500D02*X258650Y618250D01*
X257150Y617500D02*X257900D01*
X256400Y618250D02*X257150Y617500D01*
X256400Y619000D02*Y618250D01*
X260450Y619750D02*Y618250D01*
Y619750D02*X261200Y620500D01*
X262700D01*
X263450Y619750D01*
Y618250D01*
X262700Y617500D02*X263450Y618250D01*
X261200Y617500D02*X262700D01*
X260450Y618250D02*X261200Y617500D01*
X265250Y623500D02*Y617500D01*
Y619750D02*X266000Y620500D01*
X267500D01*
X268250Y619750D01*
Y617500D01*
X270800Y619750D02*Y617500D01*
Y619750D02*X271550Y620500D01*
X272300D01*
X273050Y619750D01*
Y617500D01*
X270050Y620500D02*X270800Y619750D01*
X275600Y617500D02*X277850D01*
X278600Y618250D01*
X277850Y619000D02*X278600Y618250D01*
X275600Y619000D02*X277850D01*
X274850Y619750D02*X275600Y619000D01*
X274850Y619750D02*X275600Y620500D01*
X277850D01*
X278600Y619750D01*
X274850Y618250D02*X275600Y617500D01*
X280400Y619750D02*Y618250D01*
Y619750D02*X281150Y620500D01*
X282650D01*
X283400Y619750D01*
Y618250D01*
X282650Y617500D02*X283400Y618250D01*
X281150Y617500D02*X282650D01*
X280400Y618250D02*X281150Y617500D01*
X285950Y619750D02*Y617500D01*
Y619750D02*X286700Y620500D01*
X287450D01*
X288200Y619750D01*
Y617500D01*
X285200Y620500D02*X285950Y619750D01*
X200000Y638500D02*X203000D01*
X201500D02*Y632500D01*
G54D75*X204800Y637000D02*Y636850D01*
G54D74*Y634750D02*Y632500D01*
X207050Y638500D02*Y633250D01*
X207800Y632500D01*
X206300Y636250D02*X207800D01*
X209300Y638500D02*Y633250D01*
X210050Y632500D01*
X212300D02*X214550D01*
X211550Y633250D02*X212300Y632500D01*
X211550Y634750D02*Y633250D01*
Y634750D02*X212300Y635500D01*
X213800D01*
X214550Y634750D01*
X211550Y634000D02*X214550D01*
Y634750D02*Y634000D01*
X216350Y636250D02*X217100D01*
X216350Y634750D02*X217100D01*
X221600Y638500D02*Y632500D01*
Y638500D02*X223850Y635500D01*
X226100Y638500D01*
Y632500D01*
X227900Y634750D02*Y633250D01*
Y634750D02*X228650Y635500D01*
X230150D01*
X230900Y634750D01*
Y633250D01*
X230150Y632500D02*X230900Y633250D01*
X228650Y632500D02*X230150D01*
X227900Y633250D02*X228650Y632500D01*
X233450Y638500D02*Y633250D01*
X234200Y632500D01*
X232700Y636250D02*X234200D01*
X235700Y634750D02*Y633250D01*
Y634750D02*X236450Y635500D01*
X237950D01*
X238700Y634750D01*
Y633250D01*
X237950Y632500D02*X238700Y633250D01*
X236450Y632500D02*X237950D01*
X235700Y633250D02*X236450Y632500D01*
X241250Y634750D02*Y632500D01*
Y634750D02*X242000Y635500D01*
X243500D01*
X240500D02*X241250Y634750D01*
X249050Y632500D02*X251000D01*
X248000Y633550D02*X249050Y632500D01*
X248000Y637450D02*Y633550D01*
Y637450D02*X249050Y638500D01*
X251000D01*
X252800Y634750D02*Y633250D01*
Y634750D02*X253550Y635500D01*
X255050D01*
X255800Y634750D01*
Y633250D01*
X255050Y632500D02*X255800Y633250D01*
X253550Y632500D02*X255050D01*
X252800Y633250D02*X253550Y632500D01*
X258350Y634750D02*Y632500D01*
Y634750D02*X259100Y635500D01*
X259850D01*
X260600Y634750D01*
Y632500D01*
X257600Y635500D02*X258350Y634750D01*
X263150Y638500D02*Y633250D01*
X263900Y632500D01*
X262400Y636250D02*X263900D01*
X266150Y634750D02*Y632500D01*
Y634750D02*X266900Y635500D01*
X268400D01*
X265400D02*X266150Y634750D01*
X270200D02*Y633250D01*
Y634750D02*X270950Y635500D01*
X272450D01*
X273200Y634750D01*
Y633250D01*
X272450Y632500D02*X273200Y633250D01*
X270950Y632500D02*X272450D01*
X270200Y633250D02*X270950Y632500D01*
X275000Y638500D02*Y633250D01*
X275750Y632500D01*
X277250Y638500D02*Y633250D01*
X278000Y632500D01*
X280250D02*X282500D01*
X279500Y633250D02*X280250Y632500D01*
X279500Y634750D02*Y633250D01*
Y634750D02*X280250Y635500D01*
X281750D01*
X282500Y634750D01*
X279500Y634000D02*X282500D01*
Y634750D02*Y634000D01*
X285050Y634750D02*Y632500D01*
Y634750D02*X285800Y635500D01*
X287300D01*
X284300D02*X285050Y634750D01*
X291800Y635500D02*X294800D01*
X299300Y638500D02*Y632500D01*
Y638500D02*X302300D01*
X299300Y635800D02*X301550D01*
X306350Y635500D02*X307100Y634750D01*
X304850Y635500D02*X306350D01*
X304100Y634750D02*X304850Y635500D01*
X304100Y634750D02*Y633250D01*
X304850Y632500D01*
X307100Y635500D02*Y633250D01*
X307850Y632500D01*
X304850D02*X306350D01*
X307100Y633250D01*
X309650Y638500D02*Y632500D01*
Y633250D02*X310400Y632500D01*
X311900D01*
X312650Y633250D01*
Y634750D02*Y633250D01*
X311900Y635500D02*X312650Y634750D01*
X310400Y635500D02*X311900D01*
X309650Y634750D02*X310400Y635500D01*
X315200Y634750D02*Y632500D01*
Y634750D02*X315950Y635500D01*
X317450D01*
X314450D02*X315200Y634750D01*
G54D75*X319250Y637000D02*Y636850D01*
G54D74*Y634750D02*Y632500D01*
X321500Y635500D02*X323750D01*
X320750Y634750D02*X321500Y635500D01*
X320750Y634750D02*Y633250D01*
X321500Y632500D01*
X323750D01*
X327800Y635500D02*X328550Y634750D01*
X326300Y635500D02*X327800D01*
X325550Y634750D02*X326300Y635500D01*
X325550Y634750D02*Y633250D01*
X326300Y632500D01*
X328550Y635500D02*Y633250D01*
X329300Y632500D01*
X326300D02*X327800D01*
X328550Y633250D01*
X331850Y638500D02*Y633250D01*
X332600Y632500D01*
X331100Y636250D02*X332600D01*
G54D75*X334100Y637000D02*Y636850D01*
G54D74*Y634750D02*Y632500D01*
X335600Y634750D02*Y633250D01*
Y634750D02*X336350Y635500D01*
X337850D01*
X338600Y634750D01*
Y633250D01*
X337850Y632500D02*X338600Y633250D01*
X336350Y632500D02*X337850D01*
X335600Y633250D02*X336350Y632500D01*
X341150Y634750D02*Y632500D01*
Y634750D02*X341900Y635500D01*
X342650D01*
X343400Y634750D01*
Y632500D01*
X340400Y635500D02*X341150Y634750D01*
X348650Y638500D02*Y632500D01*
X350600Y638500D02*X351650Y637450D01*
Y633550D01*
X350600Y632500D02*X351650Y633550D01*
X347900Y632500D02*X350600D01*
X347900Y638500D02*X350600D01*
X354200Y634750D02*Y632500D01*
Y634750D02*X354950Y635500D01*
X356450D01*
X353450D02*X354200Y634750D01*
X360500Y635500D02*X361250Y634750D01*
X359000Y635500D02*X360500D01*
X358250Y634750D02*X359000Y635500D01*
X358250Y634750D02*Y633250D01*
X359000Y632500D01*
X361250Y635500D02*Y633250D01*
X362000Y632500D01*
X359000D02*X360500D01*
X361250Y633250D01*
X363800Y635500D02*Y633250D01*
X364550Y632500D01*
X365300D01*
X366050Y633250D01*
Y635500D02*Y633250D01*
X366800Y632500D01*
X367550D01*
X368300Y633250D01*
Y635500D02*Y633250D01*
G54D75*X370100Y637000D02*Y636850D01*
G54D74*Y634750D02*Y632500D01*
X372350Y634750D02*Y632500D01*
Y634750D02*X373100Y635500D01*
X373850D01*
X374600Y634750D01*
Y632500D01*
X371600Y635500D02*X372350Y634750D01*
X378650Y635500D02*X379400Y634750D01*
X377150Y635500D02*X378650D01*
X376400Y634750D02*X377150Y635500D01*
X376400Y634750D02*Y633250D01*
X377150Y632500D01*
X378650D01*
X379400Y633250D01*
X376400Y631000D02*X377150Y630250D01*
X378650D01*
X379400Y631000D01*
Y635500D02*Y631000D01*
M02*
