G04 start of page 9 for group -4078 idx -4078 *
G04 Title: Motor Controller, bottomsilk *
G04 Creator: pcb 4.0.2 *
G04 CreationDate: Wed Aug 19 04:53:54 2020 UTC *
G04 For: kevin *
G04 Format: Gerber/RS-274X *
G04 PCB-Dimensions (mil): 3300.00 3900.00 *
G04 PCB-Coordinate-Origin: lower left *
%MOIN*%
%FSLAX25Y25*%
%LNBOTTOMSILK*%
%ADD71C,0.0100*%
%ADD70C,0.0060*%
G54D70*X48500Y6000D02*X51000Y8500D01*
X48500Y6000D02*X51000D01*
Y3500D02*Y6000D01*
X48500Y3500D02*X51000D01*
X48500D02*Y8500D01*
X45500Y3500D02*X47500D01*
X45500Y6000D02*X47500D01*
X45500Y8500D02*X47500D01*
X45500Y3500D02*Y8500D01*
X44500Y3500D02*Y8500D01*
X41500D02*X44500D01*
X43000Y7000D02*Y8500D01*
X41500Y3500D02*Y8500D01*
X38500Y3500D02*X40500D01*
Y8500D01*
X38500D02*X40500D01*
X38500Y3500D02*Y8500D01*
X35000Y5500D02*X37500D01*
Y3500D02*Y5500D01*
X35000Y3500D02*X37500D01*
X35000D02*Y8500D01*
X215500Y307000D02*X218000D01*
X215500Y305000D02*X218000D01*
Y309500D01*
X215500D02*X218000D01*
X215500Y305000D02*Y309500D01*
X212000Y306500D02*X214500D01*
Y305000D02*Y306500D01*
X212000Y305000D02*X214500D01*
X212000D02*Y309500D01*
X22000Y307000D02*X24500D01*
X28000Y305000D02*Y309500D01*
X25500Y307000D02*X28000D01*
X25500Y305000D02*X28000D01*
X25500D02*Y307000D01*
X24500Y305000D02*Y307000D01*
X22000Y305000D02*X24500D01*
X22000D02*Y309500D01*
X210000Y68000D02*X209000Y69000D01*
X210000Y68000D02*Y71500D01*
X209000D02*X211000D01*
X219000D02*X221000D01*
Y69500D02*X219000Y71500D01*
X221000Y68500D02*Y69500D01*
X220500Y68000D02*X221000Y68500D01*
X219500Y68000D02*X220500D01*
X219000Y68500D02*X219500Y68000D01*
X20000D02*X19000Y69000D01*
X20000Y68000D02*Y71500D01*
X19000D02*X21000D01*
X29000D02*X31000D01*
Y69500D02*X29000Y71500D01*
X31000Y68500D02*Y69500D01*
X30500Y68000D02*X31000Y68500D01*
X29500Y68000D02*X30500D01*
X29000Y68500D02*X29500Y68000D01*
X32500Y1000D02*Y51000D01*
X62500Y500D02*Y51000D01*
X32500D02*X62500D01*
G54D71*Y340500D02*X177500D01*
X167000Y23000D02*X227500D01*
X95000Y500D02*Y84000D01*
X27500Y500D02*X95000D01*
X227500Y23000D02*Y293000D01*
X12500Y32500D02*Y293000D01*
G54D70*X116500Y85000D02*Y88500D01*
X115500Y85000D02*X117500D01*
X112500D02*X114500D01*
X112500Y86500D02*X114500D01*
X112500Y88500D02*X114500D01*
X112500Y85000D02*Y88500D01*
X111500Y85000D02*Y88500D01*
Y87000D02*Y88500D01*
X109500Y85000D02*X111500Y87000D01*
X109500Y85000D02*Y88500D01*
X107000Y87000D02*X108500Y88500D01*
X107000Y87000D02*X108500D01*
Y85000D02*Y87000D01*
X107000Y85000D02*X108500D01*
X107000D02*Y88500D01*
X104500Y85000D02*X106000D01*
X104500Y86500D02*X106000D01*
X104500Y88500D02*X106000D01*
X104500Y85000D02*Y88500D01*
X103500Y85000D02*Y88500D01*
X102000Y86500D02*X103500D01*
X102000Y85000D02*Y88500D01*
X100000Y85000D02*Y88500D01*
X99000Y85000D02*X101000D01*
X96000D02*X98000D01*
X96000Y86500D02*X98000D01*
X96000Y88500D02*X98000D01*
X96000Y85000D02*Y88500D01*
G54D71*X95000Y84000D02*X167000D01*
Y23000D02*Y84000D01*
X12500Y32500D02*X27500D01*
Y500D02*Y32500D01*
X62500Y340500D02*G75*G03X12500Y290500I0J-50000D01*G01*
X227500Y290500D02*G75*G03X177500Y340500I-50000J0D01*G01*
G54D70*X15409Y35215D02*Y38715D01*
X15909Y39215D01*
X16909D01*
X17409Y38715D01*
Y35215D02*Y38715D01*
X18609Y36015D02*X19409Y35215D01*
Y39215D01*
X18609D02*X20109D01*
M02*
