M48
INCH
T50C0.020
T49C0.035
T48C0.030
T47C0.130
T46C0.125
T45C0.041
T44C0.060
%
T50
X022200Y037400
X023000Y035400
X023800Y035900
X024300Y015500
X024800Y017300
X025300Y022000
X025400Y036900
X025400Y033800
X026000Y034800
X026000Y021000
X027800Y018300
X029300Y022500
X029800Y022000
X030600Y021500
T48
X008450Y029900
X008450Y025900
X009450Y015100
X009450Y011100
X014050Y029900
X014050Y025900
X015050Y015100
X015050Y011100
T49
X005900Y011000
X008450Y016800
X009450Y016800
X010450Y016800
X011300Y015900
X014050Y016800
X015050Y016800
X016050Y016800
X016900Y015900
X017200Y011800
X020100Y008800
X024000Y002300
X024200Y013900
X024200Y012900
X024200Y011900
X024200Y010900
X024200Y009900
X024200Y008900
X024200Y007900
X024200Y006900
X024400Y021500
X025000Y002300
X026000Y002300
X026500Y011900
X027000Y002300
X028000Y002300
X029000Y002300
X029100Y031700
X030000Y002300
X031000Y002300
X031500Y021000
T45
X002000Y029800
X002000Y028800
X002000Y027800
X002000Y026800
X002000Y025800
X002000Y024800
X002000Y023800
X002000Y022800
X002000Y021800
X002000Y020800
X002000Y019800
X002000Y018800
X002000Y017800
X002000Y016800
X002000Y015800
X002000Y014800
X002000Y013800
X002000Y012800
X002000Y011800
X002000Y010800
X002000Y009800
X002000Y008800
X002000Y007800
X003000Y029800
X003000Y028800
X003000Y027800
X003000Y026800
X003000Y025800
X003000Y024800
X003000Y023800
X003000Y022800
X003000Y021800
X003000Y020800
X003000Y019800
X003000Y018800
X003000Y017800
X003000Y016800
X003000Y015800
X003000Y014800
X003000Y013800
X003000Y012800
X003000Y011800
X003000Y010800
X003000Y009800
X003000Y008800
X003000Y007800
X021000Y029800
X021000Y028800
X021000Y027800
X021000Y026800
X021000Y025800
X021000Y024800
X021000Y023800
X021000Y022800
X021000Y021800
X021000Y020800
X021000Y019800
X021000Y018800
X021000Y017800
X021000Y016800
X021000Y015800
X021000Y014800
X021000Y013800
X021000Y012800
X021000Y011800
X021000Y010800
X021000Y009800
X021000Y008800
X021000Y007800
X022000Y029800
X022000Y028800
X022000Y027800
X022000Y026800
X022000Y025800
X022000Y024800
X022000Y023800
X022000Y022800
X022000Y021800
X022000Y020800
X022000Y019800
X022000Y018800
X022000Y017800
X022000Y016800
X022000Y015800
X022000Y014800
X022000Y013800
X022000Y012800
X022000Y011800
X022000Y010800
X022000Y009800
X022000Y008800
X022000Y007800
T44
X028300Y034862
X028300Y032500
X030150Y033681
T46
X002500Y005800
X003750Y031800
X020250Y031800
X021500Y005800
T47
X009450Y023500
X015050Y023500
M30
