G04 start of page 2 for group 0 idx 0 *
G04 Title: Motor Controller, top *
G04 Creator: pcb 4.0.2 *
G04 CreationDate: Wed Aug 19 04:53:54 2020 UTC *
G04 For: kevin *
G04 Format: Gerber/RS-274X *
G04 PCB-Dimensions (mil): 3300.00 3900.00 *
G04 PCB-Coordinate-Origin: lower left *
%MOIN*%
%FSLAX25Y25*%
%LNTOP*%
%ADD26C,0.0300*%
%ADD25C,0.1300*%
%ADD24C,0.1250*%
%ADD23C,0.0410*%
%ADD22C,0.0200*%
%ADD21C,0.0350*%
%ADD20C,0.0360*%
%ADD19C,0.0600*%
%ADD18C,0.0550*%
%ADD17C,0.0001*%
%ADD16C,0.1500*%
%ADD15C,0.1530*%
%ADD14C,0.0690*%
%ADD13C,0.0900*%
%ADD12C,0.0250*%
%ADD11C,0.0100*%
G54D11*X25000Y283000D02*X43000D01*
G54D12*X84500Y299000D02*X68000Y282500D01*
X75000Y264000D02*X110000Y299000D01*
X140500D01*
G54D11*X43000Y283000D02*X49000Y289000D01*
G54D12*X68000Y282500D02*Y152000D01*
X75000Y145000D02*Y264000D01*
X140500Y259000D02*Y168000D01*
X84500Y259000D02*Y168000D01*
G54D11*X25000Y173000D02*X56000D01*
X30000Y168000D02*X59000D01*
X55000Y355000D02*X57000Y357000D01*
X58000Y352000D02*X60000Y354000D01*
X49000Y360000D02*X52000Y363000D01*
X64000Y346000D02*X66000Y348000D01*
X52000Y358000D02*X54000Y360000D01*
X49000Y289000D02*Y360000D01*
X52000Y358000D02*Y200000D01*
X55000Y355000D02*Y190000D01*
X58000Y352000D02*Y175000D01*
X61000Y349000D02*Y170000D01*
X64000Y346000D02*Y165000D01*
X20000Y168000D02*X25000Y173000D01*
X20000Y278000D02*X25000Y283000D01*
X20000Y108000D02*X14000Y114000D01*
Y161000D01*
X16000Y163000D01*
X30000Y188000D02*X31000Y187000D01*
X16000Y163000D02*X59000D01*
X32000Y188000D02*X53000D01*
X52000Y200000D02*X50000Y198000D01*
X55000Y190000D02*X53000Y188000D01*
X30000Y198000D02*X50000D01*
G54D12*X68000Y152000D02*X64000Y148000D01*
X30000D01*
Y138000D02*X68000D01*
X75000Y145000D01*
X30000Y88000D02*X37000D01*
X59000Y110000D02*X37000Y88000D01*
G54D11*X260000Y230000D02*X254000Y236000D01*
Y338000D01*
X232000Y225000D02*X230000Y223000D01*
X204000D01*
X210000Y188000D02*X204000D01*
X201000Y191000D01*
Y220000D02*Y191000D01*
Y220000D02*X204000Y223000D01*
X268000Y353000D02*Y261000D01*
X271000Y258000D01*
X289000D01*
X292000Y255000D01*
Y233000D02*Y255000D01*
X268000Y353000D02*X257000Y364000D01*
X58000Y175000D02*X56000Y173000D01*
X61000Y170000D02*X59000Y168000D01*
X64000Y165000D02*X62000Y163000D01*
X58000D01*
G54D12*X150500Y151000D02*X156000Y145500D01*
Y96000D01*
X159000Y93000D01*
X182000D01*
G54D11*X66000Y348000D02*X260000D01*
X61000Y349000D02*X63000Y351000D01*
X193000D01*
X52000Y363000D02*X182000D01*
X193000Y374000D01*
X184000Y360000D02*X193000Y369000D01*
X187000Y357000D02*X194000Y364000D01*
X54000Y360000D02*X184000D01*
X57000Y357000D02*X187000D01*
X60000Y354000D02*X190000D01*
X193000Y374000D02*X222000D01*
X193000Y369000D02*X254000D01*
X194000Y364000D02*X257000D01*
X195000Y359000D02*X238000D01*
X196000Y354000D02*X230000D01*
X190000D02*X195000Y359000D01*
X193000Y351000D02*X196000Y354000D01*
G54D12*X269250Y215000D02*X244000D01*
X282750Y210000D02*X315000D01*
X282750Y215000D02*X306000D01*
G54D11*X269250Y210000D02*X260000D01*
X269250Y230000D02*X260000D01*
X282750D02*X289000D01*
X282750Y225000D02*X293000D01*
X289000Y230000D02*X292000Y233000D01*
X282750Y220000D02*X298000D01*
X269250Y225000D02*X232000D01*
X269250Y220000D02*X253000D01*
X215000Y173000D02*X248000D01*
X210000Y178000D02*X215000Y183000D01*
X278000D01*
G54D12*X310000Y23000D02*X303000Y16000D01*
X297000D01*
X270000Y23000D02*X263000Y16000D01*
X257000D01*
X250000Y23000D01*
X297000Y16000D02*X279000Y34000D01*
X249500Y23500D02*X244000Y29000D01*
X242000Y139000D02*X250000D01*
X253000Y136000D01*
X250000Y39000D02*X253000Y42000D01*
Y136000D02*Y42000D01*
X244000Y29000D02*X188000D01*
X279000Y34000D02*X192000D01*
X250000Y39000D02*X197000D01*
G54D11*X215000Y143000D02*X231000D01*
X243000Y155000D01*
G54D12*X197000Y39000D02*X194000Y42000D01*
Y96000D02*Y42000D01*
X201000Y88000D02*Y80000D01*
X203000Y78000D01*
X210000D01*
X188000Y29000D02*X184000Y33000D01*
X192000Y34000D02*X189000Y37000D01*
Y85000D01*
X184000Y33000D02*Y84000D01*
X180000Y88000D02*X184000Y84000D01*
X94500Y150500D02*X100000Y145000D01*
Y92000D01*
X104000Y88000D01*
X180000D01*
X194000Y96000D02*X172000Y118000D01*
X182000Y93000D02*X189000Y86000D01*
X150500Y151000D02*Y168000D01*
X160500D02*Y167500D01*
X169000Y159000D01*
G54D11*X210000Y168000D02*X215000Y173000D01*
X210000Y138000D02*X215000Y143000D01*
G54D12*X94500Y168000D02*Y151000D01*
X104500Y168000D02*Y167500D01*
X113000Y159000D01*
G54D13*X301504Y336811D03*
X283000Y348622D03*
Y325000D03*
G54D14*X210000Y298000D03*
G54D15*X202500Y318000D03*
G54D14*X220000Y298000D03*
Y288000D03*
Y278000D03*
Y268000D03*
Y258000D03*
Y248000D03*
Y238000D03*
G54D16*X150500Y235000D03*
X94500D03*
G54D17*G36*
X137750Y261750D02*Y256250D01*
X143250D01*
Y261750D01*
X137750D01*
G37*
G54D18*X140500Y299000D03*
G54D17*G36*
X81750Y261750D02*Y256250D01*
X87250D01*
Y261750D01*
X81750D01*
G37*
G54D18*X84500Y299000D03*
G54D14*X30000Y298000D03*
Y268000D03*
Y278000D03*
Y288000D03*
X20000Y298000D03*
Y288000D03*
Y248000D03*
Y258000D03*
Y268000D03*
Y278000D03*
X30000Y248000D03*
Y258000D03*
G54D15*X37500Y318000D03*
G54D14*X20000Y178000D03*
X30000D03*
Y188000D03*
X20000D03*
Y198000D03*
Y208000D03*
Y218000D03*
Y228000D03*
Y238000D03*
X30000Y198000D03*
Y208000D03*
Y218000D03*
Y228000D03*
Y238000D03*
X210000Y178000D03*
X220000D03*
X210000Y188000D03*
X220000D03*
X210000Y198000D03*
X220000D03*
X210000Y208000D03*
X220000Y218000D03*
Y228000D03*
Y208000D03*
X210000Y218000D03*
Y228000D03*
Y238000D03*
Y248000D03*
Y258000D03*
Y268000D03*
Y278000D03*
Y288000D03*
G54D17*G36*
X137500Y171000D02*Y165000D01*
X143500D01*
Y171000D01*
X137500D01*
G37*
G36*
X81500D02*Y165000D01*
X87500D01*
Y171000D01*
X81500D01*
G37*
G54D19*X94500Y168000D03*
X104500D03*
X150500D03*
G54D17*G36*
X147750Y153750D02*Y148250D01*
X153250D01*
Y153750D01*
X147750D01*
G37*
G36*
X91750D02*Y148250D01*
X97250D01*
Y153750D01*
X91750D01*
G37*
G54D18*X150500Y111000D03*
X94500D03*
G54D19*X160500Y168000D03*
G54D14*X30000Y78000D03*
X20000D03*
X30000Y88000D03*
G54D15*X25000Y58000D03*
G54D14*X20000Y118000D03*
Y128000D03*
Y138000D03*
Y148000D03*
Y158000D03*
Y168000D03*
Y88000D03*
Y98000D03*
Y108000D03*
X30000Y98000D03*
Y108000D03*
Y118000D03*
Y128000D03*
Y138000D03*
Y148000D03*
Y158000D03*
Y168000D03*
G54D19*X270000Y23000D03*
X260000D03*
X250000D03*
X280000D03*
X310000D03*
X300000D03*
X290000D03*
X240000D03*
X242000Y139000D03*
G54D14*X210000Y128000D03*
Y138000D03*
Y148000D03*
Y158000D03*
Y168000D03*
X220000D03*
Y158000D03*
Y148000D03*
G54D19*X242000Y119000D03*
Y109000D03*
Y99000D03*
Y89000D03*
Y79000D03*
Y69000D03*
G54D14*X220000Y78000D03*
Y88000D03*
X210000D03*
X220000Y108000D03*
G54D15*X215000Y58000D03*
G54D14*X210000Y78000D03*
G54D19*X242000Y129000D03*
G54D14*X210000Y98000D03*
Y108000D03*
Y118000D03*
X220000Y138000D03*
Y128000D03*
Y118000D03*
Y98000D03*
G54D17*G36*
X265000Y216500D02*Y213500D01*
X273500D01*
Y216500D01*
X265000D01*
G37*
G36*
X278500Y221500D02*Y218500D01*
X287000D01*
Y221500D01*
X278500D01*
G37*
G36*
X265000D02*Y218500D01*
X273500D01*
Y221500D01*
X265000D01*
G37*
G36*
X278500Y226500D02*Y223500D01*
X287000D01*
Y226500D01*
X278500D01*
G37*
G36*
X265000D02*Y223500D01*
X273500D01*
Y226500D01*
X265000D01*
G37*
G36*
X278500Y211500D02*Y208500D01*
X287000D01*
Y211500D01*
X278500D01*
G37*
G36*
X265000D02*Y208500D01*
X273500D01*
Y211500D01*
X265000D01*
G37*
G36*
X278500Y216500D02*Y213500D01*
X287000D01*
Y216500D01*
X278500D01*
G37*
G36*
Y231500D02*Y228500D01*
X287000D01*
Y231500D01*
X278500D01*
G37*
G36*
X265000D02*Y228500D01*
X273500D01*
Y231500D01*
X265000D01*
G37*
G54D19*Y119000D03*
G54D20*X278000Y183000D03*
G54D19*X244000Y215000D03*
G54D20*X248000Y173000D03*
X243000Y155000D03*
X253000Y220000D03*
X260000Y348000D03*
X254000Y338000D03*
X238000Y359000D03*
X230000Y354000D03*
G54D19*X315000Y210000D03*
X291000Y317000D03*
G54D20*X298000Y220000D03*
X260000Y210000D03*
X293000Y225000D03*
X306000Y215000D03*
X222000Y374000D03*
X254000Y369000D03*
G54D19*X169000Y159000D03*
X113000D03*
X172000Y118000D03*
X59000Y110000D03*
X201000Y88000D03*
G54D21*G54D22*G54D21*G54D22*G54D21*G54D22*G54D21*G54D19*G54D23*G54D24*G54D23*G54D25*G54D26*G54D23*G54D24*G54D23*G54D21*G54D26*G54D21*G54D23*G54D24*G54D23*G54D21*G54D23*G54D21*G54D23*G54D24*G54D23*G54D21*G54D23*M02*
