G04 start of page 6 for group -4063 idx -4063 *
G04 Title: Motor Controller, componentmask *
G04 Creator: pcb 4.0.2 *
G04 CreationDate: Wed Aug 19 04:53:54 2020 UTC *
G04 For: kevin *
G04 Format: Gerber/RS-274X *
G04 PCB-Dimensions (mil): 3300.00 3900.00 *
G04 PCB-Coordinate-Origin: lower left *
%MOIN*%
%FSLAX25Y25*%
%LNTOPMASK*%
%ADD57C,0.0660*%
%ADD56C,0.0610*%
%ADD55C,0.0001*%
%ADD54C,0.1560*%
%ADD53C,0.1590*%
%ADD52C,0.0750*%
%ADD51C,0.0960*%
G54D51*X301504Y336811D03*
X283000Y348622D03*
Y325000D03*
G54D52*X210000Y298000D03*
G54D53*X202500Y318000D03*
G54D52*X220000Y298000D03*
Y288000D03*
Y278000D03*
Y268000D03*
Y258000D03*
Y248000D03*
Y238000D03*
G54D54*X150500Y235000D03*
X94500D03*
G54D55*G36*
X137450Y262050D02*Y255950D01*
X143550D01*
Y262050D01*
X137450D01*
G37*
G54D56*X140500Y299000D03*
G54D55*G36*
X81450Y262050D02*Y255950D01*
X87550D01*
Y262050D01*
X81450D01*
G37*
G54D56*X84500Y299000D03*
G54D52*X30000Y298000D03*
Y268000D03*
Y278000D03*
Y288000D03*
X20000Y298000D03*
Y288000D03*
Y248000D03*
Y258000D03*
Y268000D03*
Y278000D03*
X30000Y248000D03*
Y258000D03*
G54D53*X37500Y318000D03*
G54D52*X20000Y178000D03*
X30000D03*
Y188000D03*
X20000D03*
Y198000D03*
Y208000D03*
Y218000D03*
Y228000D03*
Y238000D03*
X30000Y198000D03*
Y208000D03*
Y218000D03*
Y228000D03*
Y238000D03*
X210000Y178000D03*
X220000D03*
X210000Y188000D03*
X220000D03*
X210000Y198000D03*
X220000D03*
X210000Y208000D03*
X220000Y218000D03*
Y228000D03*
Y208000D03*
X210000Y218000D03*
Y228000D03*
Y238000D03*
Y248000D03*
Y258000D03*
Y268000D03*
Y278000D03*
Y288000D03*
G54D55*G36*
X137200Y171300D02*Y164700D01*
X143800D01*
Y171300D01*
X137200D01*
G37*
G36*
X81200D02*Y164700D01*
X87800D01*
Y171300D01*
X81200D01*
G37*
G54D57*X94500Y168000D03*
X104500D03*
X150500D03*
G54D55*G36*
X147450Y154050D02*Y147950D01*
X153550D01*
Y154050D01*
X147450D01*
G37*
G36*
X91450D02*Y147950D01*
X97550D01*
Y154050D01*
X91450D01*
G37*
G54D56*X150500Y111000D03*
X94500D03*
G54D57*X160500Y168000D03*
G54D52*X30000Y78000D03*
X20000D03*
X30000Y88000D03*
G54D53*X25000Y58000D03*
G54D52*X20000Y118000D03*
Y128000D03*
Y138000D03*
Y148000D03*
Y158000D03*
Y168000D03*
Y88000D03*
Y98000D03*
Y108000D03*
X30000Y98000D03*
Y108000D03*
Y118000D03*
Y128000D03*
Y138000D03*
Y148000D03*
Y158000D03*
Y168000D03*
G54D57*X270000Y23000D03*
X260000D03*
X250000D03*
X280000D03*
X310000D03*
X300000D03*
X290000D03*
X240000D03*
X242000Y139000D03*
G54D52*X210000Y128000D03*
Y138000D03*
Y148000D03*
Y158000D03*
Y168000D03*
X220000D03*
Y158000D03*
Y148000D03*
G54D57*X242000Y119000D03*
Y109000D03*
Y99000D03*
Y89000D03*
Y79000D03*
Y69000D03*
G54D52*X220000Y78000D03*
Y88000D03*
X210000D03*
X220000Y108000D03*
G54D53*X215000Y58000D03*
G54D52*X210000Y78000D03*
G54D57*X242000Y129000D03*
G54D52*X210000Y98000D03*
Y108000D03*
Y118000D03*
X220000Y138000D03*
Y128000D03*
Y118000D03*
Y98000D03*
G54D55*G36*
X264600Y216900D02*Y213100D01*
X273900D01*
Y216900D01*
X264600D01*
G37*
G36*
X278100Y221900D02*Y218100D01*
X287400D01*
Y221900D01*
X278100D01*
G37*
G36*
X264600D02*Y218100D01*
X273900D01*
Y221900D01*
X264600D01*
G37*
G36*
X278100Y226900D02*Y223100D01*
X287400D01*
Y226900D01*
X278100D01*
G37*
G36*
X264600D02*Y223100D01*
X273900D01*
Y226900D01*
X264600D01*
G37*
G36*
X278100Y211900D02*Y208100D01*
X287400D01*
Y211900D01*
X278100D01*
G37*
G36*
X264600D02*Y208100D01*
X273900D01*
Y211900D01*
X264600D01*
G37*
G36*
X278100Y216900D02*Y213100D01*
X287400D01*
Y216900D01*
X278100D01*
G37*
G36*
Y231900D02*Y228100D01*
X287400D01*
Y231900D01*
X278100D01*
G37*
G36*
X264600D02*Y228100D01*
X273900D01*
Y231900D01*
X264600D01*
G37*
M02*
